<svg xmlns="http://www.w3.org/2000/svg" xmlns:xlink="http://www.w3.org/1999/xlink" width="86" height="86" viewBox="0 0 86 86">
  <defs>
    <filter id="Elipse_11581" x="0" y="0" width="86" height="86" filterUnits="userSpaceOnUse">
      <feOffset dy="3" input="SourceAlpha"/>
      <feGaussianBlur stdDeviation="3" result="blur"/>
      <feFlood flood-opacity="0.161"/>
      <feComposite operator="in" in2="blur"/>
      <feComposite in="SourceGraphic"/>
    </filter>
  </defs>
  <g id="Grupo_1102226" data-name="Grupo 1102226" transform="translate(-180 -413)">
    <rect id="Rectángulo_403710" data-name="Rectángulo 403710" width="85" height="80" rx="8" transform="translate(180 413)" fill="#3e8ff2"/>
    <g id="Grupo_1102225" data-name="Grupo 1102225" transform="translate(196.466 426.509)">
      <g transform="matrix(1, 0, 0, 1, -16.47, -13.51)" filter="url(#Elipse_11581)">
        <g id="Elipse_11581-2" data-name="Elipse 11581" transform="translate(16 13)" fill="#fff7e6" stroke="rgba(250,246,237,0.5)" stroke-width="7">
          <circle cx="27" cy="27" r="27" stroke="none"/>
          <circle cx="27" cy="27" r="30.5" fill="none"/>
        </g>
      </g>
    </g>
    <g id="wound-care_17306911" transform="translate(201.429 428.576)">
      <g id="Grupo_1103961" data-name="Grupo 1103961" transform="translate(4.599 9.249)">
        <path id="Trazado_884862" data-name="Trazado 884862" d="M22.862,70.541,11.074,73.7l3.648,10.208c1.148,3.212,1.961,5.009,2.108,8.493.117,2.785-.915,4.848-.655,7.524.155,1.593.831,2.955,2.827,3.063,2.729.148,6.843-2.662,11.7-4.169,4.442-1.378,7.49-.268,11.519-1.321.973-.255,3.753-1.061,5.083-2.289a1.625,1.625,0,0,0,.52-2.1c-.5-.913-2.062-.873-3.636-.669a18,18,0,0,1-9.339-.672,27.81,27.81,0,0,1-7.515-3.353,4.123,4.123,0,0,1-1.821-2.719c-1.8-9.04-1.713-10.8-2.649-15.148Z" transform="translate(-11.074 -70.541)" fill="#fdb0a0" fill-rule="evenodd"/>
        <path id="Trazado_884863" data-name="Trazado 884863" d="M36.4,70.54,25.714,73.4l3.648,10.208c1.148,3.212,1.961,5.009,2.108,8.493.117,2.785-.915,4.848-.655,7.524.155,1.593.831,2.955,2.827,3.063a6.034,6.034,0,0,0,1.09-.05c2.552-.78,5.814-2.678,9.507-3.824,4.442-1.378,7.49-.268,11.519-1.321.973-.255,3.753-1.061,5.083-2.289a1.625,1.625,0,0,0,.52-2.1c-.5-.913-2.062-.873-3.636-.669a18,18,0,0,1-9.339-.672,27.81,27.81,0,0,1-7.515-3.353,4.123,4.123,0,0,1-1.821-2.719c-1.8-9.04-1.713-10.8-2.649-15.148Z" transform="translate(-24.61 -70.54)" fill="#ffcec0" fill-rule="evenodd"/>
        <path id="Trazado_884864" data-name="Trazado 884864" d="M105,154.694a172.179,172.179,0,0,0,9.764-18.1c.568-1.293.418-2.739-.786-3.254l-5.181-1.78a2.645,2.645,0,0,1,.156,2.962c-.225.441-.5.975-.821,1.584-1.355,2.574-3.505,6.48-5.985,10.315-4.221,6.528-9.4,12.854-13.227,12.061a2.732,2.732,0,0,0,2.055.915c2.208.12,5.323-1.7,9-3.193.868-.353,1.767-.688,2.694-.975a16.084,16.084,0,0,1,2.328-.537Z" transform="translate(-83.049 -126.96)" fill="#ebf1f5" fill-rule="evenodd"/>
        <path id="Trazado_884865" data-name="Trazado 884865" d="M78.944,287.75c3.83.792,9.006-5.533,13.227-12.061a21.068,21.068,0,0,1-2.843-1.6,4.122,4.122,0,0,1-1.821-2.719q-2.026,4.818-8.68,6.709c.092,2.194-.529,3.94-.669,5.89a9.61,9.61,0,0,0,.014,1.633,3.871,3.871,0,0,0,.771,2.147Z" transform="translate(-73.073 -256.225)" fill="#e4e8eb" fill-rule="evenodd"/>
        <path id="Trazado_884866" data-name="Trazado 884866" d="M84.47,332.992c3.83.792,9.006-5.533,13.227-12.061-.425-.2-.836-.405-1.241-.627l0,0c-3.905,6.04-8.627,11.905-12.345,12.122a2.741,2.741,0,0,0,.363.562Z" transform="translate(-78.599 -301.467)" fill="#d1d1d6" fill-rule="evenodd"/>
      </g>
      <circle id="Elipse_11946" data-name="Elipse 11946" cx="6.899" cy="6.899" r="6.899" transform="translate(10.632 4.778)" fill="#f23353"/>
      <path id="Trazado_884867" data-name="Trazado 884867" d="M97.534,25.194a6.9,6.9,0,1,1,6.474-6.885,6.9,6.9,0,0,1-6.474,6.885Z" transform="translate(-80.428 -6.633)" fill="#ff5471" fill-rule="evenodd"/>
      <path id="Trazado_884868" data-name="Trazado 884868" d="M130.905,47.992h2.054a.333.333,0,0,1,.332.332v2.437h2.437a.333.333,0,0,1,.332.332v2.054a.333.333,0,0,1-.332.332h-2.437v2.437a.333.333,0,0,1-.332.332h-2.054a.333.333,0,0,1-.332-.332V53.478h-2.437a.333.333,0,0,1-.332-.332V51.092a.333.333,0,0,1,.332-.332h2.437V48.324A.333.333,0,0,1,130.905,47.992Z" transform="translate(-114.402 -40.443)" fill="#fff" fill-rule="evenodd"/>
      <path id="Trazado_884869" data-name="Trazado 884869" d="M307.9,129.733a2.264,2.264,0,0,0,1.4,2.869l1.183.406c.32-.609.6-1.143.821-1.584a2.645,2.645,0,0,0-.156-2.962l-.381-.131A2.264,2.264,0,0,0,307.9,129.733Z" transform="translate(-280.804 -114.611)" fill="#d1d1d6" fill-rule="evenodd"/>
      <path id="Trazado_884870" data-name="Trazado 884870" d="M329.873,132.9l1.04.357c.32-.609.6-1.143.821-1.584a2.645,2.645,0,0,0-.156-2.962l-.381-.131a2.248,2.248,0,0,0-.431-.1,2.765,2.765,0,0,1-.022,2.742c-.225.441-.5.975-.821,1.584Z" transform="translate(-301.231 -114.856)" fill="#c3c3c9" fill-rule="evenodd"/>
      <path id="Trazado_884871" data-name="Trazado 884871" d="M13.93,10.845h2.24a.528.528,0,0,0,.528-.528V8.077h1.662v2.241a.528.528,0,0,0,.528.528h2.24v1.662h-2.24a.528.528,0,0,0-.528.528v2.241H16.7V13.035a.528.528,0,0,0-.528-.528H13.93ZM13.4,13.563h2.241V15.8a.529.529,0,0,0,.528.528h2.718a.529.529,0,0,0,.528-.528V13.563h2.241a.528.528,0,0,0,.528-.528V10.317a.528.528,0,0,0-.528-.528H19.417V7.548a.529.529,0,0,0-.528-.528H16.171a.529.529,0,0,0-.528.528V9.789H13.4a.529.529,0,0,0-.528.528v2.718A.529.529,0,0,0,13.4,13.563Zm27.061,19.96c-1.254,1.159-4.034,1.951-4.857,2.166a20.1,20.1,0,0,1-5.1.517c-.951.012-1.917.025-2.939.121q1.466-2.425,2.795-4.757a19.215,19.215,0,0,0,7.411.091c.666-.086,2.693-.349,3.105.4.183.333.3.8-.415,1.461Zm-16.4,3.493a16.592,16.592,0,0,1,2.159-.515,169.366,169.366,0,0,0,9.608-17.834A2.538,2.538,0,0,0,35.99,16.8a1.2,1.2,0,0,0-.653-.675l-3.982-1.368a3.483,3.483,0,0,1-.389,2.312,133.223,133.223,0,0,1-8.616,14.6,41.706,41.706,0,0,1-6,7.108,10.687,10.687,0,0,1-3.86,2.385c.021,0,.043,0,.065,0,1.477.08,3.514-.835,5.874-1.894.867-.389,1.792-.8,2.762-1.2,1.285-1.794,2.372-3.376,3.229-4.7a.528.528,0,0,1,.886.573c-.653,1.011-1.436,2.166-2.337,3.448q.543-.193,1.1-.366Zm-13.877.41c3.128-.765,5.978-3.867,6.8-4.835a.528.528,0,0,0-.8-.686c-.742.868-3.222,3.578-5.907,4.4.063-.49.148-.976.236-1.474a18.019,18.019,0,0,0,.368-3.336c3.824-1.16,6.526-3.086,8.056-5.739a4.669,4.669,0,0,0,1.616,1.8,21.821,21.821,0,0,0,2.365,1.373c-.471.719-.953,1.433-1.441,2.132-4.475,6.395-8.178,9.576-10.729,9.228a3.558,3.558,0,0,1-.533-1.711,8.722,8.722,0,0,1-.034-1.15ZM9.152,23.565a22.662,22.662,0,0,1,1.69,6.84c3.834-1.217,6.4-3.257,7.641-6.07-.378-1.9-.7-3.622-.98-5.233a7.435,7.435,0,0,1-7.4-7.426q0-.1,0-.2L5.289,12.77l3.454,9.666c.142.4.278.77.409,1.129ZM17.53,5.306a6.37,6.37,0,1,0,6.371,6.37,6.377,6.377,0,0,0-6.371-6.37ZM28.671,17.492a1.73,1.73,0,0,1,1.124-3.272l.247.084a2.2,2.2,0,0,1,.009,2.238c-.006.01-.012.02-.017.031-.168.329-.373.726-.609,1.178l-.754-.26ZM41.8,31.552c-.67-1.215-2.482-1.155-4.166-.938a18.476,18.476,0,0,1-6.731-.005c2.305-4.1,4.277-7.948,5.892-11.511a3.552,3.552,0,0,0,.173-2.686,2.25,2.25,0,0,0-1.235-1.265l-.036-.014-5.181-1.78-.381-.131a2.786,2.786,0,0,0-1.81,5.269l.6.206c-1.285,2.416-3.217,5.892-5.421,9.339a20.425,20.425,0,0,1-2.358-1.361,3.616,3.616,0,0,1-1.6-2.382c-.382-1.917-.706-3.644-.988-5.262a7.426,7.426,0,1,0-8.342-8.675L4.462,11.9a.527.527,0,0,0-.36.688L7.749,22.791c.143.4.279.774.41,1.135a20.888,20.888,0,0,1,1.667,7.2,15.826,15.826,0,0,1-.345,3.522,22.777,22.777,0,0,0-.321,2.273q0,.033,0,.065a10.071,10.071,0,0,0,.017,1.691c.271,2.79,1.957,3.464,3.323,3.538.079,0,.157.006.238.006,1.689,0,3.753-.926,6.126-1.992a49.02,49.02,0,0,1,5.52-2.206,20.21,20.21,0,0,1,6.14-.763,21.215,21.215,0,0,0,5.353-.551c1.131-.3,3.911-1.122,5.306-2.411a2.115,2.115,0,0,0,.625-2.747Z" fill-rule="evenodd"/>
    </g>
  </g>
</svg>
