<svg xmlns="http://www.w3.org/2000/svg" width="61.554" height="56.767" viewBox="0 0 61.554 56.767">
  <g id="_13" data-name="13" transform="translate(-334.621 -1399.423)">
    <g id="Rectángulo_401341" data-name="Rectángulo 401341" transform="translate(334.621 1399.423)" fill="#ffb27e" stroke="#fcd8c0" stroke-width="3">
      <rect width="61.554" height="56.767" rx="12" stroke="none"/>
      <rect x="1.5" y="1.5" width="58.554" height="53.767" rx="10.5" fill="none"/>
    </g>
    <g id="empleados_1_" data-name="empleados (1)" transform="translate(346.086 1378.849)">
      <path id="Trazado_874636" data-name="Trazado 874636" d="M231.188,270.964l-3.264-1.284H216.336l-3.264,1.284a3.16,3.16,0,0,0-2,3.067l.437,10.906h21.244l.437-10.906A3.16,3.16,0,0,0,231.188,270.964Z" transform="translate(-195.145 -219.691)" fill="#dbd9dc"/>
      <rect id="Rectángulo_401461" data-name="Rectángulo 401461" width="7.374" height="6.32" transform="translate(23.297 45.759)" fill="#b48764"/>
      <path id="Trazado_874637" data-name="Trazado 874637" d="M280.232,39.078a6.813,6.813,0,0,0-4.126,1.58s-2.195,0-2.195,2.634a19.677,19.677,0,0,0,.527,4.2h12.114C287.606,41.7,285.1,38.815,280.232,39.078Z" transform="translate(-253.248 -6.471)" fill="#5c414b"/>
      <path id="Trazado_874638" data-name="Trazado 874638" d="M277.072,64.884a4.732,4.732,0,0,1-.966-4.657s-2.195,0-2.195,2.634a19.676,19.676,0,0,0,.527,4.2h2.634Z" transform="translate(-253.248 -26.039)" fill="#503441"/>
      <path id="Trazado_874639" data-name="Trazado 874639" d="M279.571,115.5h-.527l-1.033-1.249c-4.74.988-7.224-1.06-7.224-1.06a5.33,5.33,0,0,1-1.847,2.874l-.974-.566h0a1.033,1.033,0,0,0-.176.019,1.113,1.113,0,0,0-.859,1.111v.381a1.106,1.106,0,0,0,.842,1.1,1.037,1.037,0,0,0,.293.018.509.509,0,0,1,.536.421,5.261,5.261,0,0,0,10.352.007.512.512,0,0,1,.51-.425h.109a1.053,1.053,0,0,0,1.053-1.053v-.527A1.053,1.053,0,0,0,279.571,115.5Z" transform="translate(-246.793 -75.01)" fill="#c39772"/>
      <path id="Trazado_874640" data-name="Trazado 874640" d="M456.365,306.127l2.292-2.292a3.149,3.149,0,0,1,.468,1.775l-.437,10.906h-3.248v-8.155A3.16,3.16,0,0,1,456.365,306.127Z" transform="translate(-421.081 -251.27)" fill="#edebed"/>
      <path id="Trazado_874641" data-name="Trazado 874641" d="M338.241,297.707h-2.117l-.529,13.143h3.176Z" transform="translate(-310.277 -245.604)" fill="#5d5360"/>
      <path id="Trazado_874642" data-name="Trazado 874642" d="M343.432,300.57l-.115-2.863H341.2l-.115,2.863Z" transform="translate(-315.353 -245.604)" fill="#4b3f4e"/>
      <g id="Grupo_1101136" data-name="Grupo 1101136" transform="translate(21.191 48.409)">
        <path id="Trazado_874643" data-name="Trazado 874643" d="M286.688,252.422l-4.214-3.687-1.58,1.58,2.447,3.671a1.053,1.053,0,0,0,1.621.161Z" transform="translate(-280.894 -248.735)" fill="#edebed"/>
        <path id="Trazado_874644" data-name="Trazado 874644" d="M357.693,252.422l4.214-3.687,1.58,1.58-2.447,3.671a1.053,1.053,0,0,1-1.621.161Z" transform="translate(-351.899 -248.735)" fill="#edebed"/>
      </g>
      <path id="Trazado_874645" data-name="Trazado 874645" d="M274.822,130.536a5.269,5.269,0,0,1-4.2-5.16V121.6a5.821,5.821,0,0,1-1.677,2.24l-.975-.566h0a1.031,1.031,0,0,0-.176.019,1.113,1.113,0,0,0-.859,1.111v.381a1.106,1.106,0,0,0,.842,1.1,1.04,1.04,0,0,0,.293.018.509.509,0,0,1,.536.421,5.247,5.247,0,0,0,6.221,4.215Z" transform="translate(-246.794 -82.778)" fill="#b48764"/>
      <path id="Trazado_874646" data-name="Trazado 874646" d="M24.645,312.592l-2.842-1.24H12.318l-2.842,1.24a3.16,3.16,0,0,0-1.893,3.03l.332,7.844H26.206l.332-7.844A3.16,3.16,0,0,0,24.645,312.592Z" transform="translate(-7.008 -258.22)" fill="#5d5360"/>
      <rect id="Rectángulo_401462" data-name="Rectángulo 401462" width="5.267" height="5.267" transform="translate(7.419 49.445)" fill="#fad7a5"/>
      <circle id="Elipse_11517" data-name="Elipse 11517" cx="3.16" cy="3.16" r="3.16" transform="translate(6.892 32.591)" fill="#deaf73"/>
      <ellipse id="Elipse_11518" data-name="Elipse 11518" cx="6.32" cy="6.057" rx="6.32" ry="6.057" transform="translate(3.732 35.224)" fill="#d59f63"/>
      <path id="Trazado_874647" data-name="Trazado 874647" d="M53.685,102.683c-2.107-2.107-2.422-3.923-2.372-5.063a5.913,5.913,0,0,0-1.842,4.273,5.823,5.823,0,0,0,.906,3.119Z" transform="translate(-45.739 -60.611)" fill="#cd915a"/>
      <path id="Trazado_874648" data-name="Trazado 874648" d="M55.341,150.29a2.846,2.846,0,0,0-.3-.022,1.053,1.053,0,0,1-.745-.309l-.725-.55a10.2,10.2,0,0,1-7.106-1.461,6.358,6.358,0,0,1-1.94,2.646l-1-.326h0a1.029,1.029,0,0,0-.177.019,1.113,1.113,0,0,0-.858,1.111v.382a1.106,1.106,0,0,0,.842,1.1,1.038,1.038,0,0,0,.294.019.509.509,0,0,1,.535.421,5.261,5.261,0,0,0,10.351.014.516.516,0,0,1,.538-.433,1.061,1.061,0,0,0,.343-.025,1.091,1.091,0,0,0,.8-1.1c-.006-.239-.006-.473-.006-.473A1.1,1.1,0,0,0,55.341,150.29Z" transform="translate(-39.283 -107.143)" fill="#ffe1b4"/>
      <g id="Grupo_1101137" data-name="Grupo 1101137" transform="translate(0.572 55.065)">
        <path id="Trazado_874649" data-name="Trazado 874649" d="M10.412,339.273l-1.924-2.309a3.152,3.152,0,0,0-.905,2.338l.332,7.844h3.352v-5.512A3.687,3.687,0,0,0,10.412,339.273Z" transform="translate(-7.58 -336.964)" fill="#6f6571"/>
        <path id="Trazado_874650" data-name="Trazado 874650" d="M210.907,339.273l1.924-2.309a3.152,3.152,0,0,1,.905,2.338l-.332,7.844h-3.352v-5.512A3.687,3.687,0,0,1,210.907,339.273Z" transform="translate(-194.778 -336.964)" fill="#6f6571"/>
      </g>
      <path id="Trazado_874651" data-name="Trazado 874651" d="M46.177,160.529v-3.761a7.6,7.6,0,0,1-1.652,1.98l-1-.326h0a1.03,1.03,0,0,0-.177.019,1.113,1.113,0,0,0-.858,1.111v.382a1.106,1.106,0,0,0,.842,1.1,1.039,1.039,0,0,0,.294.019.508.508,0,0,1,.535.421,5.247,5.247,0,0,0,6.221,4.216A5.269,5.269,0,0,1,46.177,160.529Z" transform="translate(-39.284 -115.297)" fill="#fad7a5"/>
      <g id="Grupo_1101138" data-name="Grupo 1101138" transform="translate(5.141 51.484)">
        <path id="Trazado_874652" data-name="Trazado 874652" d="M72.909,292.672,69.733,289.5l-1.588,1.588,1.959,3.179a.529.529,0,0,0,.794.125Z" transform="translate(-68.145 -289.496)" fill="#6f6571"/>
        <path id="Trazado_874653" data-name="Trazado 874653" d="M131.3,292.672l3.176-3.176,1.588,1.588-1.959,3.179a.529.529,0,0,1-.794.125Z" transform="translate(-126.532 -289.496)" fill="#6f6571"/>
      </g>
      <path id="Trazado_874654" data-name="Trazado 874654" d="M282.162,361.686h-2.117a.566.566,0,1,0,0,1.132h2.117a.566.566,0,1,0,0-1.132Z" transform="translate(-258.395 -304.756)"/>
      <path id="Trazado_874655" data-name="Trazado 874655" d="M240.307,50.875l-3.081-1.188-1.571-1.571a.563.563,0,0,0-.364-.164V46.7a5.835,5.835,0,0,0,1.48-2.915,1.619,1.619,0,0,0,.4-.032,1.674,1.674,0,0,0,1.3-1.661v-.413a1.7,1.7,0,0,0-.5-1.2c.5-2.717.088-4.932-1.2-6.414-1.242-1.434-3.242-2.119-5.784-1.981a7.578,7.578,0,0,0-4.346,1.6,2.981,2.981,0,0,0-1.164.4,3.011,3.011,0,0,0-1.377,2.8,14.129,14.129,0,0,0,.392,3.287,1.677,1.677,0,0,0-.922,1.519v.406a1.674,1.674,0,0,0,1.3,1.661,1.615,1.615,0,0,0,.4.032,5.836,5.836,0,0,0,1.48,2.915v1.25a.563.563,0,0,0-.364.164l-1.571,1.571-3.081,1.188a3.747,3.747,0,0,0-.757.4.566.566,0,1,0,.636.936,2.618,2.618,0,0,1,.528-.276l2.859-1.1,2.186,3.279a1.619,1.619,0,0,0,1.192.715c.054.005.108.008.162.008a1.615,1.615,0,0,0,.8-.211l-.469,10.642a.566.566,0,0,0,.54.59h.025a.566.566,0,0,0,.565-.541l.435-9.878h1.175l.435,9.878a.566.566,0,0,0,.565.541h.025a.566.566,0,0,0,.54-.59L232.7,54.62a1.615,1.615,0,0,0,.8.211c.054,0,.108,0,.162-.008a1.619,1.619,0,0,0,1.192-.715l2.186-3.279,2.859,1.1a2.6,2.6,0,0,1,1.018.709L238.961,54.6a3.717,3.717,0,0,0-1.1,2.646v8.045a.566.566,0,1,0,1.132,0V57.242a2.593,2.593,0,0,1,.765-1.846l1.717-1.717a2.608,2.608,0,0,1,.09.791l-.438,10.794a.566.566,0,0,0,.542.588h.023a.566.566,0,0,0,.565-.543l.438-10.794A3.741,3.741,0,0,0,240.307,50.875Zm-9.287.594-3.14-2.747V47.639a5.856,5.856,0,0,0,6.279,0v1.083Zm-5.789-8.814a.485.485,0,0,1-.132-.009.549.549,0,0,1-.395-.552v-.406a.536.536,0,0,1,.4-.538.492.492,0,0,1,.484.185.789.789,0,0,0,1.084.17,4.108,4.108,0,0,0,.928-.907.566.566,0,0,0-.908-.675,3,3,0,0,1-.441.476,1.619,1.619,0,0,0-.614-.328,13.013,13.013,0,0,1-.4-3.189,1.982,1.982,0,0,1,.794-1.81,1.837,1.837,0,0,1,.846-.271.571.571,0,0,0,.39-.156,6.374,6.374,0,0,1,3.787-1.433c2.18-.118,3.864.433,4.868,1.592s1.349,2.963.983,5.208a2.452,2.452,0,0,0-.483.034l-.532-1.277a.566.566,0,0,0-.666-.33c-.053.014-5.278,1.338-7.468-1.389a.566.566,0,1,0-.882.709c2.237,2.785,6.676,2.179,8.154,1.884l.411.987a.93.93,0,0,0,1.075.551,1.221,1.221,0,0,1,.423-.031.534.534,0,0,1,.4.531v.413a.549.549,0,0,1-.395.552.48.48,0,0,1-.132.009,1.1,1.1,0,0,0-1.146.9,4.722,4.722,0,0,1-9.287,0A1.1,1.1,0,0,0,225.231,42.655ZM228.49,53.7a.486.486,0,0,1-.362-.217l-2.2-3.3.886-.886,3.381,2.959-1.306,1.306A.486.486,0,0,1,228.49,53.7Zm1.993.606.034-.778.5-.5.5.5.034.778Zm3.43-.823a.493.493,0,0,1-.759.075l-1.306-1.306,3.381-2.959.886.886Z" transform="translate(-204.077 -0.003)"/>
      <path id="Trazado_874656" data-name="Trazado 874656" d="M17.943,53.838,15.18,52.632l-1.51-1.51a.563.563,0,0,0-.364-.164v-.89a5.844,5.844,0,0,0,2.539-3.8,1.626,1.626,0,0,0,.447-.043,1.684,1.684,0,0,0,1.249-1.65v-.413a1.687,1.687,0,0,0-.725-1.391,6.4,6.4,0,0,0,.2-1.567,6.6,6.6,0,0,0-3.177-5.594,3.668,3.668,0,0,0-3.741-3.542,3.668,3.668,0,0,0-3.741,3.542A6.6,6.6,0,0,0,3.176,41.2a6.4,6.4,0,0,0,.194,1.563,1.691,1.691,0,0,0-.724,1.4v.406A1.684,1.684,0,0,0,3.9,46.22a1.622,1.622,0,0,0,.447.043,5.844,5.844,0,0,0,2.539,3.8v.89a.563.563,0,0,0-.364.164l-1.51,1.51L2.245,53.838A3.765,3.765,0,0,0,0,57.425l.334,7.883A.566.566,0,0,0,.9,65.85H.927a.566.566,0,0,0,.541-.589l-.334-7.883a2.605,2.605,0,0,1,.359-1.425l1.485,1.782a3.145,3.145,0,0,1,.728,2.01v5.54a.566.566,0,1,0,1.132,0v-5.54a4.279,4.279,0,0,0-.99-2.734L2.268,55.116a2.565,2.565,0,0,1,.429-.241l2.408-1.051,1.7,2.762a1.1,1.1,0,0,0,1.643.259l1.078-.92v9.36a.566.566,0,0,0,1.132,0v-9.36l1.078.92a1.1,1.1,0,0,0,1.643-.259l1.7-2.762,2.408,1.051a2.568,2.568,0,0,1,.429.241L16.341,57.01a4.279,4.279,0,0,0-.99,2.734v5.54a.566.566,0,1,0,1.132,0v-5.54a3.146,3.146,0,0,1,.728-2.01L18.7,55.952a2.605,2.605,0,0,1,.359,1.425L18.72,65.26a.566.566,0,0,0,.541.589h.024a.566.566,0,0,0,.565-.542l.334-7.883A3.766,3.766,0,0,0,17.943,53.838ZM10.094,33.195A2.592,2.592,0,0,1,12.614,35a7.175,7.175,0,0,0-5.039,0A2.592,2.592,0,0,1,10.094,33.195ZM5.45,46.03a1.1,1.1,0,0,0-1.146-.9.489.489,0,0,1-.148-.013.553.553,0,0,1-.378-.549v-.406a.536.536,0,0,1,.4-.538.492.492,0,0,1,.484.185.789.789,0,0,0,1.084.17,4.1,4.1,0,0,0,.916-.891.566.566,0,0,0-.9-.679,3,3,0,0,1-.432.464,1.621,1.621,0,0,0-.854-.376,5.269,5.269,0,0,1-.164-1.3,5.665,5.665,0,0,1,5.786-5.522A5.665,5.665,0,0,1,15.88,41.2a5.267,5.267,0,0,1-.163,1.3,2.6,2.6,0,0,0-.44.073l-.425-.35a1.086,1.086,0,0,0-.755-.248c-.832.049-5.091.162-7.276-2.454a.566.566,0,0,0-.868.726,8.086,8.086,0,0,0,4.7,2.592,13.848,13.848,0,0,0,3.494.266l.664.546a.565.565,0,0,0,.643.052,1.248,1.248,0,0,1,.558-.074.534.534,0,0,1,.4.531v.413a.552.552,0,0,1-.378.549.484.484,0,0,1-.148.013,1.1,1.1,0,0,0-1.146.9,4.722,4.722,0,0,1-9.287,0Zm4.644,5a5.841,5.841,0,0,0,2.081-.383v1.17L10.094,53.9,8.013,51.816V50.646A5.84,5.84,0,0,0,10.094,51.029ZM7.748,55.956l-1.7-2.762.872-.872,2.343,2.343Zm4.692,0-1.513-1.291,2.343-2.343.872.872Z" transform="translate(0)"/>
      <path id="Trazado_874657" data-name="Trazado 874657" d="M79.338,394.766H77.75a.566.566,0,0,0,0,1.132h1.588a.566.566,0,0,0,0-1.132Z" transform="translate(-71.361 -335.341)"/>
    </g>
  </g>
</svg>
