<svg xmlns="http://www.w3.org/2000/svg" width="61.554" height="56.767" viewBox="0 0 61.554 56.767">
  <g id="Grupo_1101139" data-name="Grupo 1101139" transform="translate(-334.621 -1399.423)">
    <g id="Rectángulo_401341" data-name="Rectángulo 401341" transform="translate(334.621 1399.423)" fill="#ffb27e" stroke="#fcd8c0" stroke-width="3">
      <rect width="61.554" height="56.767" rx="12" stroke="none"/>
      <rect x="1.5" y="1.5" width="58.554" height="53.767" rx="10.5" fill="none"/>
    </g>
    <g id="fractura" transform="translate(347.592 1410.421)">
      <g id="Grupo_1104022" data-name="Grupo 1104022" transform="translate(0.961 0.509)">
        <path id="Trazado_885023" data-name="Trazado 885023" d="M38.033,24.836,36.039,35.347l-1.12,5.9H22.757a49.249,49.249,0,0,1-.8-5.9,48.572,48.572,0,0,1,.587-12.208A1.967,1.967,0,0,0,22,21.376l-3-2.966L7.952,7.5H29.1l2.01,2.759,5.269,7.233a9.475,9.475,0,0,1,1.651,7.345Z" transform="translate(-7.952 -7.5)" fill="#fd4755"/>
        <path id="Trazado_885024" data-name="Trazado 885024" d="M302.947,17.492l-5.269-7.233L295.668,7.5h-1.729l2.01,2.759,5.269,7.233a9.476,9.476,0,0,1,1.651,7.345l-1.994,10.511-1.12,5.9h1.729l1.12-5.9L304.6,24.836a9.476,9.476,0,0,0-1.651-7.345Z" transform="translate(-274.517 -7.5)" fill="#e41f2d"/>
        <path id="Trazado_885025" data-name="Trazado 885025" d="M286.057,247.923l-1.1,12.015h-4.431l1.243-13.521c-.589-.582-1.6-1.306-1.554-2.24a1.826,1.826,0,0,1,1.533-2c1.241-.3,1.923.538,2.514,1.483l1.511,2.836A2.535,2.535,0,0,1,286.057,247.923Z" transform="translate(-261.712 -226.186)" fill="#e8edf2"/>
        <path id="Trazado_885026" data-name="Trazado 885026" d="M300.707,246.5l-1.511-2.836c-.591-.945-1.273-1.779-2.514-1.483a1.826,1.826,0,0,0-.455.134,3.623,3.623,0,0,1,1.241,1.349l1.511,2.836a2.534,2.534,0,0,1,.287,1.424l-1.1,12.015h1.729l1.1-12.015A2.535,2.535,0,0,0,300.707,246.5Z" transform="translate(-276.649 -226.186)" fill="#cde0e6"/>
        <path id="Trazado_885027" data-name="Trazado 885027" d="M152.946,19.952c-1.108.687-2.037.1-2.914-.628-.2.986-.6,2.038-1.732,2.192a1.865,1.865,0,0,1-2.131-1.5c-.358-1.189.4-1.906,1.1-2.731L138.182,7.5h5.871l7.509,8.353c.758.374,1.969.75,2.227,1.67A1.865,1.865,0,0,1,152.946,19.952Z" transform="translate(-129.338 -7.5)" fill="#e8edf2"/>
        <g id="Grupo_1104021" data-name="Grupo 1104021" transform="translate(12.986 0)">
          <path id="Trazado_885028" data-name="Trazado 885028" d="M271.833,178.154a1.857,1.857,0,0,0,1.042.132c1.133-.153,1.533-1.205,1.732-2.192a7.893,7.893,0,0,0-.723-.359.466.466,0,0,0-.655.353A2.176,2.176,0,0,1,271.833,178.154Z" transform="translate(-266.899 -164.27)" fill="#cde0e6"/>
          <path id="Trazado_885029" data-name="Trazado 885029" d="M210.643,17.523c-.257-.92-1.469-1.3-2.227-1.67L200.908,7.5h-1.729l7.509,8.353c.758.374,1.969.75,2.227,1.67a1.865,1.865,0,0,1-.843,2.429c-.053.033-.1.06-.144.083a1.809,1.809,0,0,0,1.873-.083,1.865,1.865,0,0,0,.843-2.429Z" transform="translate(-199.179 -7.5)" fill="#cde0e6"/>
          <path id="Trazado_885030" data-name="Trazado 885030" d="M312.672,181.61q.1.083.2.163A1.18,1.18,0,0,0,312.672,181.61Z" transform="translate(-304.965 -169.786)" fill="#e8edf2"/>
        </g>
        <path id="Trazado_885031" data-name="Trazado 885031" d="M370.5,213.907l.778-2.244a.537.537,0,0,1,.694-.328l1.4.519a.537.537,0,0,1,.2.874l-1.838,1.931a.74.74,0,0,1-1.235-.752Z" transform="translate(-345.841 -197.461)" fill="#e8edf2"/>
        <path id="Trazado_885032" data-name="Trazado 885032" d="M374.061,211.855l-1.4-.519a.537.537,0,0,0-.678.289l.62.23a.537.537,0,0,1,.2.874l-1.606,1.688a.739.739,0,0,0,1.225.244l1.838-1.931A.537.537,0,0,0,374.061,211.855Z" transform="translate(-346.531 -197.462)" fill="#cde0e6"/>
      </g>
      <g id="Grupo_1104023" data-name="Grupo 1104023" transform="translate(0.452 0)">
        <path id="Trazado_885033" data-name="Trazado 885033" d="M277.715,236.487c-.422-.684-1.319-2.135-3.062-1.744a2.334,2.334,0,0,0-1.945,2.512,3.542,3.542,0,0,0,1.534,2.424l-1.22,13.276a.509.509,0,1,0,1.014.093l1.243-13.521a.51.51,0,0,0-.149-.409c-.108-.107-.224-.213-.347-.326-.507-.465-1.082-.992-1.056-1.527a1.367,1.367,0,0,1,1.143-1.526c.858-.2,1.351.279,1.955,1.243l1.5,2.82a2.02,2.02,0,0,1,.229,1.138l-1.1,12.015a.509.509,0,0,0,.461.554l.047,0a.509.509,0,0,0,.507-.463l1.1-12.015a3.037,3.037,0,0,0-.345-1.71Z" transform="translate(-254.21 -218.74)"/>
        <path id="Trazado_885034" data-name="Trazado 885034" d="M141.383,15.029a2.45,2.45,0,0,0,1.958-1.824,2.5,2.5,0,0,0,2.865.2,2.373,2.373,0,0,0,1.071-3.047c-.293-.965-1.321-1.426-2.074-1.763-.113-.051-.221-.1-.32-.146L137.44.169a.509.509,0,1,0-.758.681L144.191,9.2a.509.509,0,0,0,.153.116c.139.069.285.134.441.2.643.288,1.372.615,1.521,1.147a1.406,1.406,0,0,1-.621,1.858c-.774.48-1.413.164-2.321-.587a.509.509,0,0,0-.824.292c-.23,1.145-.632,1.7-1.3,1.787a1.4,1.4,0,0,1-1.575-1.146c-.235-.78.137-1.259.814-2.038l.186-.215a.509.509,0,0,0-.014-.677L131.563.163a.509.509,0,1,0-.746.693l8.777,9.446a2.865,2.865,0,0,0-.912,2.839,2.4,2.4,0,0,0,2.7,1.888Z" transform="translate(-121.837 0)"/>
        <path id="Trazado_885035" data-name="Trazado 885035" d="M15.476,28.318a47.745,47.745,0,0,1,.58-12.076,2.474,2.474,0,0,0-.693-2.219L1.319.147A.509.509,0,0,0,.6.871L14.646,14.747a1.457,1.457,0,0,1,.408,1.307,48.792,48.792,0,0,0-.595,12.34,49.912,49.912,0,0,0,.807,5.966.509.509,0,0,0,1-.2A48.883,48.883,0,0,1,15.476,28.318Z" transform="translate(-0.452 0)"/>
        <path id="Trazado_885036" data-name="Trazado 885036" d="M367.214,205.124a1.044,1.044,0,0,0-.655-.745l-1.4-.519a1.047,1.047,0,0,0-1.353.638l-.778,2.244a1.249,1.249,0,0,0,2.085,1.27l1.838-1.931a1.044,1.044,0,0,0,.261-.957Zm-1,.255-1.837,1.931a.23.23,0,0,1-.384-.234l.777-2.244a.026.026,0,0,1,.014-.016.027.027,0,0,1,.021,0l1.4.519a.028.028,0,0,1,.01.045Z" transform="translate(-338.342 -189.954)"/>
        <path id="Trazado_885037" data-name="Trazado 885037" d="M322.82,6.887a.509.509,0,1,0-.8-.634l-2.511,3.155-4.691-6.44L312.81.209a.509.509,0,1,0-.823.6L314,3.568l4.857,6.667-1.035,1.3a.509.509,0,0,0,.8.634l.855-1.075a9,9,0,0,1,1.358,6.655l-3.114,16.416a.509.509,0,1,0,1,.19l3.114-16.416a10.023,10.023,0,0,0-1.7-7.678Z" transform="translate(-290.739 0)"/>
        <path id="Trazado_885038" data-name="Trazado 885038" d="M465.866,152.852a.509.509,0,1,0-.536-.866l-1.441.892a.509.509,0,1,0,.536.866Z" transform="translate(-432.191 -141.593)"/>
        <path id="Trazado_885039" data-name="Trazado 885039" d="M475.283,211.028H473.7a.509.509,0,1,0,0,1.019h1.587a.509.509,0,0,0,0-1.019Z" transform="translate(-441.083 -196.697)"/>
      </g>
    </g>
  </g>
</svg>
