<svg xmlns="http://www.w3.org/2000/svg" width="61.554" height="56.767" viewBox="0 0 61.554 56.767">
  <g id="Grupo_1102429" data-name="Grupo 1102429" transform="translate(-334.621 -1399.423)">
    <g id="Rectángulo_401341" data-name="Rectángulo 401341" transform="translate(334.621 1399.423)" fill="#ffb27e" stroke="#fcd8c0" stroke-width="3">
      <rect width="61.554" height="56.767" rx="12" stroke="none"/>
      <rect x="1.5" y="1.5" width="58.554" height="53.767" rx="10.5" fill="none"/>
    </g>
    <g id="back_5848818" transform="translate(347.503 1409.911)">
      <path id="Trazado_885078" data-name="Trazado 885078" d="M7.648,17.739A84.165,84.165,0,0,1,8.54,29.961V34.7H28.16V29.961a84.171,84.171,0,0,1,.892-12.221L34.7,21.622V12.357L32.17,8.382a4.36,4.36,0,0,0-3.679-2.017H26.525A4.36,4.36,0,0,1,22.165,2h-7.63a4.36,4.36,0,0,1-4.36,4.36H8.209A4.36,4.36,0,0,0,4.53,8.385L2,12.357v9.265Z" transform="translate(-0.455 -0.457)" fill="#fad7a5"/>
      <path id="Trazado_885079" data-name="Trazado 885079" d="M28.492,7.45H26.525c-2.408,0-5.014-1.454-5.014-3.862L21.558,2H15.121l-.03,1.5c0,2.408-2.508,3.947-4.916,3.947H8.208A4.36,4.36,0,0,0,4.53,9.469L2,13.445V21.62l5.648-3.883A84.165,84.165,0,0,1,8.54,29.959V34.7H28.16V29.959a84.171,84.171,0,0,1,.892-12.221L34.7,21.62V13.445L32.17,9.469A4.36,4.36,0,0,0,28.492,7.45Z" transform="translate(-0.455 -0.455)" fill="#ffe1b4"/>
      <path id="Trazado_885080" data-name="Trazado 885080" d="M12.191,44.168h1.354l-.09-8.669a16.254,16.254,0,0,0-.882-4.847,16.374,16.374,0,0,1-.731-3.525c-.211-1.435-.463-2.889-.749-4.319l-1.068.214c.282,1.412.53,2.847.735,4.236l.028.3.514-.353c.113.769.2,1.541.3,2.312.059.518.117,1.036.168,1.554.277,2.775.427,5.559.427,8.353v4.741Z" transform="translate(-4.106 -9.923)" fill="#fad7a5"/>
      <path id="Trazado_885081" data-name="Trazado 885081" d="M50.009,22.8c-.286,1.431-.538,2.884-.75,4.334l-.014.116a23.614,23.614,0,0,1-.848,3.97,15.646,15.646,0,0,0-.7,4.272L47.6,44.164h1.308V39.423c0-2.627.137-5.249.382-7.862q.084-.9.185-1.8c.092-.792.186-1.585.3-2.375.009-.062.015-.124.024-.185l.068.046.014.01.425.292.032-.269c.208-1.417.457-2.853.738-4.265Z" transform="translate(-21.203 -9.919)" fill="#fad7a5"/>
      <g id="Grupo_1104034" data-name="Grupo 1104034" transform="translate(10.075 4.815)">
        <path id="Trazado_885082" data-name="Trazado 885082" d="M18.033,22.961l-.382-1.021.788-.3A4.982,4.982,0,0,0,21.657,17h1.09a6.079,6.079,0,0,1-3.924,5.668Z" transform="translate(-17.652 -12.095)" fill="#875f44"/>
        <path id="Trazado_885083" data-name="Trazado 885083" d="M41.713,22.961l-.789-.293A6.079,6.079,0,0,1,37,17h1.09a4.982,4.982,0,0,0,3.219,4.644l.788.3Z" transform="translate(-26.455 -12.095)" fill="#875f44"/>
        <path id="Trazado_885084" data-name="Trazado 885084" d="M31,8h1.09v3.27H31Z" transform="translate(-23.725 -8)" fill="#875f44"/>
        <path id="Trazado_885085" data-name="Trazado 885085" d="M33.087,28.037l-1.057-.264a17.72,17.72,0,0,0,.529-4.3V23h1.09v.478a18.815,18.815,0,0,1-.56,4.555Z" transform="translate(-24.194 -14.825)" fill="#875f44"/>
        <path id="Trazado_885086" data-name="Trazado 885086" d="M29.09,42.7H28v-.288a10.935,10.935,0,0,1,1.147-4.861l.976.487a9.826,9.826,0,0,0-1.033,4.374Z" transform="translate(-22.36 -21.447)" fill="#875f44"/>
        <path id="Trazado_885087" data-name="Trazado 885087" d="M28,55h1.09v3.815H28Z" transform="translate(-22.36 -29.385)" fill="#875f44"/>
      </g>
      <path id="Trazado_885088" data-name="Trazado 885088" d="M32.174,7.632A4.882,4.882,0,0,0,28.036,5.36H26.07a3.82,3.82,0,0,1-3.815-3.815A.545.545,0,0,0,21.71,1H14.08a.545.545,0,0,0-.545.545A3.82,3.82,0,0,1,9.72,5.36H7.754A4.882,4.882,0,0,0,3.616,7.632L1.086,11.61A.552.552,0,0,0,1,11.9v9.265a.545.545,0,0,0,.853.449L6.77,18.235A83.776,83.776,0,0,1,7.54,29.5v4.742a.545.545,0,0,0,.545.545h19.62a.545.545,0,0,0,.545-.545V29.5a83.776,83.776,0,0,1,.77-11.268l4.917,3.379a.545.545,0,0,0,.853-.45V11.9a.552.552,0,0,0-.085-.293ZM33.7,20.13l-4.513-3.1q.3-1.974.687-3.93l-1.068-.216A84.906,84.906,0,0,0,27.16,29.5v4.2H16.805V30.43h-1.09V33.7H8.63V29.5A84.87,84.87,0,0,0,6.987,12.9l-1.071.2q.391,1.954.687,3.93L2.09,20.13V12.059L4.535,8.217A3.8,3.8,0,0,1,7.754,6.45H9.72a4.912,4.912,0,0,0,4.874-4.36h6.6A4.912,4.912,0,0,0,26.07,6.45h1.966a3.8,3.8,0,0,1,3.219,1.767L33.7,12.059Z" transform="translate(0)"/>
      <path id="Trazado_885089" data-name="Trazado 885089" d="M18.436,21.644l-.788.3.382,1.021.791-.293A6.079,6.079,0,0,0,22.745,17h-1.09A4.982,4.982,0,0,1,18.436,21.644Z" transform="translate(-7.575 -7.28)"/>
      <path id="Trazado_885090" data-name="Trazado 885090" d="M38.09,17H37a6.079,6.079,0,0,0,3.924,5.668l.788.3.382-1.021-.788-.3A4.982,4.982,0,0,1,38.09,17Z" transform="translate(-16.38 -7.28)"/>
      <path id="Trazado_885091" data-name="Trazado 885091" d="M31,8h1.09v3.27H31Z" transform="translate(-13.65 -3.185)"/>
      <path id="Trazado_885092" data-name="Trazado 885092" d="M32.559,23.478a17.718,17.718,0,0,1-.528,4.294l1.057.265a18.823,18.823,0,0,0,.561-4.559V23h-1.09Z" transform="translate(-14.119 -10.01)"/>
      <path id="Trazado_885093" data-name="Trazado 885093" d="M28,42.414V42.7h1.09v-.288a9.826,9.826,0,0,1,1.036-4.374l-.976-.487A10.935,10.935,0,0,0,28,42.414Z" transform="translate(-12.285 -16.632)"/>
    </g>
  </g>
</svg>
