<svg xmlns="http://www.w3.org/2000/svg" width="61.554" height="56.767" viewBox="0 0 61.554 56.767">
  <g id="Grupo_1102431" data-name="Grupo 1102431" transform="translate(-334.621 -1399.423)">
    <g id="Rectángulo_401341" data-name="Rectángulo 401341" transform="translate(334.621 1399.423)" fill="#ffb27e" stroke="#fcd8c0" stroke-width="3">
      <rect width="61.554" height="56.767" rx="12" stroke="none"/>
      <rect x="1.5" y="1.5" width="58.554" height="53.767" rx="10.5" fill="none"/>
    </g>
    <g id="hinchazon-de-la-cara" transform="translate(267.679 1409.082)">
      <g id="Grupo_1104026" data-name="Grupo 1104026" transform="translate(85.778 0.549)">
        <path id="Trazado_885040" data-name="Trazado 885040" d="M112.936,323.06l-5.8-1.37H102.21l-5.8,1.37a4.777,4.777,0,0,0-3.679,4.649v7.352h23.883v-7.352A4.776,4.776,0,0,0,112.936,323.06Z" transform="translate(-92.731 -298.71)" fill="#bbec6c"/>
        <path id="Trazado_885041" data-name="Trazado 885041" d="M378.451,343.449v11.779h2.985v-7.352A4.776,4.776,0,0,0,378.451,343.449Z" transform="translate(-357.553 -318.877)" fill="#a2e62e"/>
        <path id="Trazado_885042" data-name="Trazado 885042" d="M195.238,326.517a4.834,4.834,0,0,0,4.795-4.276l-2.332-.551h-4.926l-2.332.551A4.834,4.834,0,0,0,195.238,326.517Z" transform="translate(-183.296 -298.71)" fill="#e4f7c6"/>
        <path id="Trazado_885043" data-name="Trazado 885043" d="M224.789,272.228a2.463,2.463,0,0,1-2.463-2.463v-4.1h4.926v4.1A2.463,2.463,0,0,1,224.789,272.228Z" transform="translate(-212.847 -246.785)" fill="#f6a96c"/>
        <g id="Grupo_1104025" data-name="Grupo 1104025" transform="translate(3.209)">
          <path id="Trazado_885044" data-name="Trazado 885044" d="M180.451,114.019v-7.136H168.958v7.136c-1.01,1.139-.891,3.988.464,5.342s3.535,1.53,4.643.517a5.653,5.653,0,0,0,1.28,0c1.108,1.012,3.286.839,4.643-.517S181.462,115.158,180.451,114.019Z" transform="translate(-165.972 -99.614)" fill="#fed2a4"/>
          <path id="Trazado_885045" data-name="Trazado 885045" d="M280.719,114.019v-7.136H278.65v6.044a4.175,4.175,0,0,0,.364,1.676,4.764,4.764,0,0,1-.828,4.758,4.015,4.015,0,0,1-1.717,1.01,3.848,3.848,0,0,0,3.786-1.01C281.609,118.006,281.729,115.158,280.719,114.019Z" transform="translate(-266.24 -99.614)" fill="#ffbd86"/>
          <path id="Trazado_885046" data-name="Trazado 885046" d="M167.766,14.769l-3.508,2.848v-1.3l-3.253,2.392.547-1.713-3.041,2.732V18.247h-1.493V14.74a7.24,7.24,0,1,1,14.479,0v3.508h-1.493v1.478Z" transform="translate(-155.526 -7.5)" fill="#685e68"/>
          <path id="Trazado_885047" data-name="Trazado 885047" d="M246.979,18.362l.724,1.363V18.248H249.2V14.74a7.246,7.246,0,0,0-8.348-7.155,7.241,7.241,0,0,1,6.131,7.155Z" transform="translate(-233.224 -7.5)" fill="#554e56"/>
          <g id="Grupo_1104024" data-name="Grupo 1104024" transform="translate(0 10.747)">
            <path id="Trazado_885048" data-name="Trazado 885048" d="M335.767,158.024h-1.194v-3.583h1.194a1.791,1.791,0,0,1,0,3.583Z" transform="translate(-320.094 -154.441)" fill="#f6a96c"/>
            <path id="Trazado_885049" data-name="Trazado 885049" d="M138.4,158.024H139.6v-3.583H138.4a1.791,1.791,0,0,0,0,3.583Z" transform="translate(-136.61 -154.441)" fill="#f6a96c"/>
          </g>
        </g>
      </g>
      <g id="Grupo_1104027" data-name="Grupo 1104027" transform="translate(85.229 0)">
        <path id="Trazado_885050" data-name="Trazado 885050" d="M106.108,24.365l-5.377-1.27V21.974a4.588,4.588,0,0,0,2.659-1.29,5.355,5.355,0,0,0,.989-5.257h.281a2.339,2.339,0,0,0,.847-4.52V9.547a.549.549,0,1,0-1.1,0v1.2h-.944a.545.545,0,0,0-.279.077l-1.46-3.232a.549.549,0,0,0-.846-.2L98.268,9.513V9.362a.549.549,0,0,0-.874-.442L95.5,10.311l.033-.1a.549.549,0,0,0-.889-.575l-2.126,1.91V11.3a.549.549,0,0,0-.549-.549h-.944V7.788a6.691,6.691,0,0,1,13.341-.741.549.549,0,1,0,1.091-.119,7.788,7.788,0,0,0-15.528.86v3.119a2.339,2.339,0,0,0,.847,4.52h.281a5.355,5.355,0,0,0,.989,5.257,4.586,4.586,0,0,0,2.659,1.289v1.122l-5.377,1.27a5.306,5.306,0,0,0-4.1,5.183V30.9a.549.549,0,1,0,1.1,0V29.547a4.213,4.213,0,0,1,3.257-4.115l2.9-.685a5.374,5.374,0,0,0,10.469,0l2.9.685a4.212,4.212,0,0,1,3.256,4.115V30.9a.549.549,0,0,0,1.1,0V29.547a5.305,5.305,0,0,0-4.1-5.183Zm-10.3-2.4a3.158,3.158,0,0,0,1.45-.585,6.135,6.135,0,0,0,.93,0,3.159,3.159,0,0,0,1.45.584v1.565a1.915,1.915,0,0,1-3.83,0V21.965Zm8.856-10.12a1.243,1.243,0,0,1,0,2.485h-.646V11.845ZM91.424,14.33h-.646a1.243,1.243,0,0,1,0-2.485h.646Zm.959.987a.549.549,0,0,0,.138-.364V13.018l1.4-1.255a.549.549,0,0,0,.874.433l2.379-1.75v.218a.549.549,0,0,0,.894.426l2.955-2.4,1.9,4.2v2.062a.549.549,0,0,0,.138.364c.942,1.062.547,3.6-.441,4.59a3.007,3.007,0,0,1-3.885.5.547.547,0,0,0-.43-.14,5.111,5.111,0,0,1-1.159,0,.547.547,0,0,0-.43.14,3.007,3.007,0,0,1-3.885-.5C91.67,18.753,91.577,16.226,92.383,15.317Zm5.337,12.49a4.274,4.274,0,0,1-4.167-3.312l1.232-.291a3.011,3.011,0,0,0,5.869,0l1.232.291A4.274,4.274,0,0,1,97.719,27.807Z" transform="translate(-85.229 0)"/>
        <path id="Trazado_885051" data-name="Trazado 885051" d="M109.662,424.226a.549.549,0,0,0-.549.549v2.889h-3.381v-4.2l.337-.337a.549.549,0,0,0-.776-.776l-.5.5a.548.548,0,0,0-.161.388v4.426H90.805v-4.426a.549.549,0,0,0-.161-.388l-.5-.5a.549.549,0,0,0-.776.776l.337.337v4.2H86.327v-2.889a.549.549,0,1,0-1.1,0v3.438a.548.548,0,0,0,.549.549h23.884a.548.548,0,0,0,.549-.549v-3.438a.549.549,0,0,0-.549-.549Z" transform="translate(-85.23 -391.312)"/>
        <path id="Trazado_885052" data-name="Trazado 885052" d="M232.295,235.868a1.225,1.225,0,0,1,1.733,0,.549.549,0,1,0,.775-.777,2.321,2.321,0,0,0-3.282,0,.549.549,0,0,0,.775.777Z" transform="translate(-220.671 -217.267)"/>
        <path id="Trazado_885053" data-name="Trazado 885053" d="M364.74,262.349a.549.549,0,0,0-.251,1.068l1.007.237a.549.549,0,0,0,.251-1.068Z" transform="translate(-343.672 -243.147)"/>
        <path id="Trazado_885054" data-name="Trazado 885054" d="M362.847,229.562l-.879.545a.549.549,0,1,0,.578.933l.879-.545a.549.549,0,1,0-.578-.933Z" transform="translate(-341.486 -212.696)"/>
        <path id="Trazado_885055" data-name="Trazado 885055" d="M350.236,283.677a.549.549,0,0,0-.178.755l.545.879a.549.549,0,1,0,.933-.578l-.545-.879a.548.548,0,0,0-.755-.178Z" transform="translate(-330.612 -262.852)"/>
        <path id="Trazado_885056" data-name="Trazado 885056" d="M119.712,263.668a.549.549,0,0,0,.126-.015l1.007-.237a.549.549,0,0,0-.251-1.068l-1.007.237a.549.549,0,0,0,.125,1.083Z" transform="translate(-116.682 -243.147)"/>
        <path id="Trazado_885057" data-name="Trazado 885057" d="M123.527,230.5l.879.545a.549.549,0,1,0,.578-.933l-.879-.545a.549.549,0,0,0-.578.933Z" transform="translate(-120.485 -212.696)"/>
        <path id="Trazado_885058" data-name="Trazado 885058" d="M140.2,283.855l-.545.879a.549.549,0,1,0,.933.578l.545-.879a.549.549,0,0,0-.933-.578Z" transform="translate(-135.601 -262.853)"/>
      </g>
    </g>
  </g>
</svg>
