<svg xmlns="http://www.w3.org/2000/svg" xmlns:xlink="http://www.w3.org/1999/xlink" width="65" height="65" viewBox="0 0 65 65">
  <defs>
    <clipPath id="clip-path">
      <rect id="Rectángulo_402684" data-name="Rectángulo 402684" width="45" height="45" transform="translate(0 -0.484)" fill="#12263f"/>
    </clipPath>
  </defs>
  <g id="Grupo_1101574" data-name="Grupo 1101574" transform="translate(-198.051 -3965)">
    <circle id="Elipse_11709" data-name="Elipse 11709" cx="32.5" cy="32.5" r="32.5" transform="translate(198.051 3965)" fill="#d7f38d"/>
    <g id="Grupo_1101552" data-name="Grupo 1101552" transform="translate(208.051 3975.484)">
      <g id="Grupo_1101551" data-name="Grupo 1101551" clip-path="url(#clip-path)">
        <path id="Trazado_880981" data-name="Trazado 880981" d="M27.5,44.516H17.018a2.766,2.766,0,0,1-2.763-2.763V30.261H2.763A2.766,2.766,0,0,1,0,27.5V17.018a2.766,2.766,0,0,1,2.763-2.763H14.255V2.763A2.766,2.766,0,0,1,17.018,0H27.5a2.766,2.766,0,0,1,2.762,2.763V14.255H41.753a2.766,2.766,0,0,1,2.762,2.763V27.5a2.766,2.766,0,0,1-2.762,2.763H30.261V41.753A2.766,2.766,0,0,1,27.5,44.516M2.763,15.255A1.765,1.765,0,0,0,1,17.018V27.5A1.765,1.765,0,0,0,2.763,29.26H15.255V41.753a1.765,1.765,0,0,0,1.763,1.763H27.5a1.764,1.764,0,0,0,1.762-1.763V29.26H41.753A1.764,1.764,0,0,0,43.515,27.5V17.018a1.764,1.764,0,0,0-1.762-1.763H29.26V2.763A1.764,1.764,0,0,0,27.5,1H17.018a1.765,1.765,0,0,0-1.763,1.763V15.255Z" fill="#12263f"/>
        <path id="Trazado_880982" data-name="Trazado 880982" d="M24.23,43.11,21.9,36.9,20.036,40H11.5V39h7.969l2.638-4.4,2.171,5.789,3.707-8.9,3.793,8.344,2.98-5.959L37.318,39h7.194v1H36.7l-1.942-3.883-3.023,6.045L28.026,34Z" transform="translate(-5.748 -15.742)" fill="#12263f"/>
      </g>
    </g>
  </g>
</svg>
