<svg xmlns="http://www.w3.org/2000/svg" xmlns:xlink="http://www.w3.org/1999/xlink" width="65" height="65" viewBox="0 0 65 65">
  <defs>
    <clipPath id="clip-path">
      <rect id="Rectángulo_402685" data-name="Rectángulo 402685" width="43.676" height="43.607" fill="#12263f"/>
    </clipPath>
  </defs>
  <g id="Grupo_1101577" data-name="Grupo 1101577" transform="translate(-515.051 -3965)">
    <g id="Grupo_1101576" data-name="Grupo 1101576">
      <circle id="Elipse_11710" data-name="Elipse 11710" cx="32.5" cy="32.5" r="32.5" transform="translate(515.051 3965)" fill="#d7f38d"/>
      <g id="Grupo_1101554" data-name="Grupo 1101554" transform="translate(525.076 3974.262)">
        <g id="Grupo_1101553" data-name="Grupo 1101553" transform="translate(0 0)" clip-path="url(#clip-path)">
          <path id="Trazado_880983" data-name="Trazado 880983" d="M50.48,42.271a.454.454,0,1,1,0-.908c1.132,0,1.363-.717,1.363-.908a.454.454,0,1,1,.908,0,2.044,2.044,0,0,1-2.271,1.817" transform="translate(-27.302 -21.831)" fill="#12263f"/>
          <path id="Trazado_880984" data-name="Trazado 880984" d="M53.389,29.634c-.764,0-1.363-.8-1.363-1.817S52.625,26,53.389,26s1.363.8,1.363,1.817-.6,1.817-1.363,1.817m0-2.725c-.185,0-.454.354-.454.908s.269.908.454.908.454-.354.454-.908-.269-.908-.454-.908" transform="translate(-28.394 -14.19)" fill="#12263f"/>
          <path id="Trazado_880985" data-name="Trazado 880985" d="M39.389,29.634c-.764,0-1.363-.8-1.363-1.817S38.625,26,39.389,26s1.363.8,1.363,1.817-.6,1.817-1.363,1.817m0-2.725c-.185,0-.454.354-.454.908s.269.908.454.908.454-.354.454-.908-.269-.908-.454-.908" transform="translate(-20.753 -14.19)" fill="#12263f"/>
          <path id="Trazado_880986" data-name="Trazado 880986" d="M39.217,39.753a.454.454,0,0,1-.249-.834l3.422-2.237a.454.454,0,0,0-.491-.764L36.95,39.152a.454.454,0,1,1-.5-.76L41.4,35.161a1.363,1.363,0,0,1,1.5,2.278l-3.427,2.24a.454.454,0,0,1-.248.074" transform="translate(-19.782 -19.067)" fill="#12263f"/>
          <path id="Trazado_880987" data-name="Trazado 880987" d="M43.233,45.2a.454.454,0,0,1-.227-.848l.209-.12.475-.322a.454.454,0,0,0,.123-.631.532.532,0,0,0-.288-.226.316.316,0,0,0-.272.051l-.766.5a.454.454,0,0,1-.5-.76l.761-.5a1.217,1.217,0,0,1,1.013-.17,1.435,1.435,0,0,1,.8.594,1.365,1.365,0,0,1-.367,1.892l-.739.476a.454.454,0,0,1-.226.06" transform="translate(-22.804 -22.997)" fill="#12263f"/>
          <path id="Trazado_880988" data-name="Trazado 880988" d="M44.661,49.478a.454.454,0,0,1-.245-.837l.992-.632a.454.454,0,0,0-.518-.747l-.237.137a.454.454,0,1,1-.453-.787l.209-.12a1.362,1.362,0,0,1,1.5,2.277l-1,.638a.454.454,0,0,1-.244.071" transform="translate(-23.999 -25.254)" fill="#12263f"/>
          <path id="Trazado_880989" data-name="Trazado 880989" d="M41.516,55.241a.454.454,0,0,1-.248-.835l2.551-1.653a.418.418,0,0,0,.124-.6.53.53,0,0,0-.306-.219.379.379,0,0,0-.311.051.454.454,0,1,1-.508-.753,1.279,1.279,0,0,1,1.038-.18,1.431,1.431,0,0,1,.841.593,1.328,1.328,0,0,1-.377,1.861l-2.557,1.658a.451.451,0,0,1-.247.073" transform="translate(-22.409 -27.843)" fill="#12263f"/>
          <path id="Trazado_880990" data-name="Trazado 880990" d="M31.7,41.056a.454.454,0,0,1-.249-.834l1.521-.994A1.683,1.683,0,0,1,33.2,39.1c.065-.032.065-.032.076-.047a1.738,1.738,0,0,0,.272-1.289L30.58,39.7a.454.454,0,0,1-.5-.762l3.794-2.466.249.37a2.508,2.508,0,0,1-.119,2.751,1,1,0,0,1-.412.329.86.86,0,0,0-.118.065l-1.527,1a.454.454,0,0,1-.248.074" transform="translate(-16.306 -19.904)" fill="#12263f"/>
          <path id="Trazado_880991" data-name="Trazado 880991" d="M.455,72.253a.454.454,0,0,1-.283-.81l14.909-11.86a.453.453,0,0,1,.312-.1,5.182,5.182,0,0,0,3.349-.9.454.454,0,1,1,.508.753A6.053,6.053,0,0,1,15.512,60.4L.738,72.154a.453.453,0,0,1-.283.1" transform="translate(0 -31.932)" fill="#12263f"/>
          <path id="Trazado_880992" data-name="Trazado 880992" d="M.455,54.472a.454.454,0,0,1-.217-.854l10.9-5.9c.033-1.826.832-4.692,2.637-5.909a.454.454,0,1,1,.508.753c-1.6,1.077-2.278,3.867-2.236,5.414a.454.454,0,0,1-.238.412L.67,54.417a.451.451,0,0,1-.216.055" transform="translate(0 -22.778)" fill="#12263f"/>
          <path id="Trazado_880993" data-name="Trazado 880993" d="M30.239,12.355l-.523-1.578a9.984,9.984,0,0,1-.53-2.993c0-4.8,3.279-7.783,8.557-7.783A9.1,9.1,0,0,1,44.2,2.494a7.265,7.265,0,0,1,2.1,5.292,9.213,9.213,0,0,1-.518,2.967l-.489,1.459-.405-1.393c-.167-.576-.638-2.152-.807-2.529a14.226,14.226,0,0,0-.954-1.579,6.153,6.153,0,0,1-2.38.562,6.924,6.924,0,0,1-2.737-.619l1.151,2.074-.653.094A10.247,10.247,0,0,1,34.839,8.6a10.252,10.252,0,0,1-2.764-1.363,11.179,11.179,0,0,0-.682,1.082,17.248,17.248,0,0,0-.779,2.508ZM43.4,5.51l.246.352a18.4,18.4,0,0,1,1.263,2.056c.09.2.235.632.38,1.09a6.89,6.89,0,0,0,.1-1.221,6.378,6.378,0,0,0-1.835-4.654A8.186,8.186,0,0,0,37.743.908c-3.7,0-7.649,1.806-7.649,6.875a7.16,7.16,0,0,0,.1,1.149,7.057,7.057,0,0,1,.394-1.039A14.635,14.635,0,0,1,31.6,6.333l.271-.363.364.271a10.418,10.418,0,0,0,2.834,1.479,9.107,9.107,0,0,0,2.631.257L35.66,4.289l1.479.912a8.068,8.068,0,0,0,3.585,1.164,5.082,5.082,0,0,0,2.313-.628Z" transform="translate(-15.929 0)" fill="#12263f"/>
          <path id="Trazado_880994" data-name="Trazado 880994" d="M40.206,22.908H37.48a.454.454,0,1,1,0-.908h2.725a.454.454,0,1,1,0,.908" transform="translate(-20.207 -12.007)" fill="#12263f"/>
          <path id="Trazado_880995" data-name="Trazado 880995" d="M54.206,22.908H51.48a.454.454,0,1,1,0-.908h2.725a.454.454,0,1,1,0,.908" transform="translate(-27.848 -12.007)" fill="#12263f"/>
          <path id="Trazado_880996" data-name="Trazado 880996" d="M63.05,31.511l.128-.557a13.68,13.68,0,0,0,.344-3.07c0-.352-.008-.7-.019-1.041l-.015-.438.488-.032a2.686,2.686,0,0,1,2.516,2.581,2.638,2.638,0,0,1-2.516,2.556Zm1.376-4.14c0,.17,0,.341,0,.514a14.724,14.724,0,0,1-.247,2.7,1.759,1.759,0,0,0,1.4-1.628,1.809,1.809,0,0,0-1.158-1.583" transform="translate(-34.41 -14.394)" fill="#12263f"/>
          <path id="Trazado_880997" data-name="Trazado 880997" d="M28.865,31.511h-.927a2.637,2.637,0,0,1-2.516-2.556,2.686,2.686,0,0,1,2.516-2.581l.055,0,.426.04-.008.428c-.011.342-.019.689-.019,1.041a13.674,13.674,0,0,0,.344,3.07Zm-1.376-4.147a1.821,1.821,0,0,0-1.158,1.59,1.759,1.759,0,0,0,1.4,1.628,14.729,14.729,0,0,1-.247-2.7c0-.175,0-.348,0-.52" transform="translate(-13.874 -14.394)" fill="#12263f"/>
          <path id="Trazado_880998" data-name="Trazado 880998" d="M39.977,29.378a.454.454,0,0,1-.141-.886c2.482-.81,4.506-3.408,5.283-6.778a13.68,13.68,0,0,0,.344-3.07c0-.352-.008-.7-.019-1.041-.018-.539-.048-1.029-.091-1.486l-.041-.144c-.168-.576-.639-2.153-.808-2.53a14.045,14.045,0,0,0-.954-1.579,6.162,6.162,0,0,1-2.38.562,6.925,6.925,0,0,1-2.737-.619l1.151,2.074-.653.093a10.244,10.244,0,0,1-3.668-.225A10.236,10.236,0,0,1,32.5,12.388a11.276,11.276,0,0,0-.682,1.082,17.23,17.23,0,0,0-.779,2.508l-.071.29c-.035.414-.061.855-.077,1.336-.011.342-.019.689-.019,1.041a13.677,13.677,0,0,0,.344,3.07q.059.258.128.509a.454.454,0,1,1-.876.24c-.05-.18-.095-.362-.138-.546a14.58,14.58,0,0,1-.367-3.274c0-.362.008-.719.02-1.071.023-.689.065-1.3.128-1.871l.233-2.121.22.686a7.958,7.958,0,0,1,.45-1.22,14.558,14.558,0,0,1,1.015-1.56l.271-.364.364.271A10.428,10.428,0,0,0,35.5,12.873a9.141,9.141,0,0,0,2.631.257L36.082,9.442l1.479.913a8.081,8.081,0,0,0,3.585,1.164,5.153,5.153,0,0,0,2.315-.629l.365-.223.246.35a18.356,18.356,0,0,1,1.263,2.056c.1.226.27.738.431,1.254L46,13.613l.23,2.1c.062.567.1,1.175.126,1.858.012.352.02.709.02,1.071A14.612,14.612,0,0,1,46,21.918c-.848,3.679-3.1,6.529-5.886,7.438a.45.45,0,0,1-.141.023" transform="translate(-16.351 -5.153)" fill="#12263f"/>
          <path id="Trazado_880999" data-name="Trazado 880999" d="M74.287,69.868a.387.387,0,0,1-.045,0,.454.454,0,0,1-.407-.5,26.733,26.733,0,0,0,.02-3.107c-.012-.373-.022-.694-.022-.922,0-5.362-.916-7.4-1.684-8.172-1.484-1.484-5.483-2.478-9.011-3.356a47.69,47.69,0,0,1-5.828-1.689.454.454,0,0,1-.284-.421V48.573a.454.454,0,1,1,.908,0v2.819a52.154,52.154,0,0,0,5.423,1.538c3.821.951,7.772,1.934,9.434,3.6,1.294,1.294,1.95,4.259,1.95,8.814,0,.221.01.532.021.893a27.329,27.329,0,0,1-.024,3.226.454.454,0,0,1-.452.409" transform="translate(-31.123 -26.262)" fill="#12263f"/>
          <path id="Trazado_881000" data-name="Trazado 881000" d="M76.3,91.1a.454.454,0,0,1-.44-.344c-.163-.65-.326-1.242-.468-1.732-.142.49-.305,1.082-.468,1.732a.454.454,0,1,1-.881-.221c.453-1.813.9-3.145.918-3.2a.454.454,0,0,1,.861,0c.019.056.465,1.387.918,3.2a.454.454,0,0,1-.33.551.443.443,0,0,1-.111.014" transform="translate(-40.401 -47.498)" fill="#12263f"/>
          <path id="Trazado_881001" data-name="Trazado 881001" d="M47.48,74.211a.454.454,0,0,1-.163-.879l5.905-2.271a.454.454,0,1,1,.326.848L47.643,74.18a.456.456,0,0,1-.163.03" transform="translate(-25.665 -38.766)" fill="#12263f"/>
          <path id="Trazado_881002" data-name="Trazado 881002" d="M16.843,87.268a.454.454,0,0,1-.447-.376c-.585-3.323-1.348-6.295-1.355-6.324a.454.454,0,1,1,.879-.227c.008.03.779,3.037,1.37,6.394a.454.454,0,0,1-.369.526.469.469,0,0,1-.079.007" transform="translate(-8.201 -43.661)" fill="#12263f"/>
          <path id="Trazado_881003" data-name="Trazado 881003" d="M40.385,74.21a.447.447,0,0,1-.163-.03l-5.905-2.271a.454.454,0,1,1,.326-.848l5.905,2.271a.454.454,0,0,1-.163.878" transform="translate(-18.57 -38.766)" fill="#12263f"/>
        </g>
      </g>
    </g>
  </g>
</svg>
