<svg xmlns="http://www.w3.org/2000/svg" width="90" height="90" viewBox="0 0 90 90">
  <g id="Grupo_1103497" data-name="Grupo 1103497" transform="translate(-1228.051 -940)">
    <g id="Grupo_1103461" data-name="Grupo 1103461" transform="translate(209.051 -5824)">
      <rect id="Rectángulo_401800" data-name="Rectángulo 401800" width="90" height="90" rx="5" transform="translate(1019 6764)" fill="#d7f38d"/>
    </g>
    <g id="rehabilitation_12024949" transform="translate(1212.443 949.501)">
      <g id="Grupo_1103496" data-name="Grupo 1103496" transform="translate(30.763 1.68)">
        <g id="Grupo_1103489" data-name="Grupo 1103489" transform="translate(20.675 20.458)">
          <path id="Trazado_883985" data-name="Trazado 883985" d="M193.994,163.507c-9.072,2.334-9.275,10.586-1.866,13.467,1.659.644,5,.57,8.248.332l7.78,7.78,7.421-7.421-7.78-7.776c.238-3.248.316-6.589-.332-8.252C204.585,154.229,196.329,154.435,193.994,163.507Z" transform="translate(-186.857 -156.368)" fill="#cdedf7" fill-rule="evenodd"/>
        </g>
        <g id="Grupo_1103490" data-name="Grupo 1103490" transform="translate(0.219)">
          <path id="Trazado_883986" data-name="Trazado 883986" d="M61.081,30.579c-2.334,9.072-10.586,9.279-13.471,1.87-.644-1.659-.566-5-.328-8.248l-7.78-7.78L46.919,9l7.78,7.78c3.248-.238,6.589-.316,8.248.332C70.359,19.992,70.152,28.244,61.081,30.579Z" transform="translate(-39.502 -9)" fill="#cdedf7" fill-rule="evenodd"/>
        </g>
        <g id="Grupo_1103491" data-name="Grupo 1103491" transform="translate(20.675 29.085)">
          <path id="Trazado_883987" data-name="Trazado 883987" d="M190.382,218.511c-5.332,3.3-4.5,9.548,1.749,11.98,1.659.644,5,.57,8.248.332l7.78,7.78,2.775-2.775-7.78-7.78c-3.248.238-6.589.312-8.248-.332C190.148,225.865,188.532,221.8,190.382,218.511Z" transform="translate(-186.86 -218.511)" fill="#bae7f5" fill-rule="evenodd"/>
        </g>
        <g id="Grupo_1103492" data-name="Grupo 1103492" transform="translate(0.219 4.645)">
          <path id="Trazado_883988" data-name="Trazado 883988" d="M47.61,61.265c2.432,6.246,8.681,7.081,11.98,1.749-3.291,1.85-7.354.23-9.2-4.524-.644-1.659-.566-5-.328-8.248l-7.78-7.78L39.5,45.237l7.78,7.78C47.044,56.265,46.965,59.606,47.61,61.265Z" transform="translate(-39.502 -42.462)" fill="#bae7f5" fill-rule="evenodd"/>
        </g>
        <g id="Grupo_1103493" data-name="Grupo 1103493" transform="translate(0 42.607)">
          <path id="Trazado_883989" data-name="Trazado 883989" d="M88.993,333.385a4.483,4.483,0,0,0-3.911-8.069l-12.827,6.222a4.5,4.5,0,0,0-1.233-5.633q-5.961-4.6-11.925-9.2a3.668,3.668,0,0,0-2.327-.792H37.927v16.953h9.415C70.541,344.971,65.783,344.639,88.993,333.385Z" transform="translate(-37.927 -315.913)" fill="#ffcebf" fill-rule="evenodd"/>
        </g>
        <g id="Grupo_1103494" data-name="Grupo 1103494" transform="translate(41.022 25.861)">
          <path id="Trazado_883990" data-name="Trazado 883990" d="M343.187,214.814a9.765,9.765,0,1,0-9.763-9.767A9.782,9.782,0,0,0,343.187,214.814Z" transform="translate(-333.424 -195.285)" fill="#5fd4f3" fill-rule="evenodd"/>
        </g>
        <g id="Grupo_1103495" data-name="Grupo 1103495" transform="translate(41.022 25.861)">
          <path id="Trazado_883991" data-name="Trazado 883991" d="M335.142,205.048a9.762,9.762,0,0,1,8.9-9.724c-.281-.027-.57-.039-.859-.039a9.765,9.765,0,0,0,0,19.529c.289,0,.578-.012.859-.039a9.762,9.762,0,0,1-8.9-9.728Z" transform="translate(-333.424 -195.285)" fill="#17c5fa" fill-rule="evenodd"/>
        </g>
      </g>
      <path id="Trazado_883992" data-name="Trazado 883992" d="M57.774,28.442c1.282-4.351,4.117-7.15,7.492-7.351,3.285-.2,6.256,2.069,7.749,5.911a.97.97,0,0,1-1.808.7c-1.178-3.029-3.408-4.82-5.826-4.677-2.644.157-4.9,2.627-5.879,6.445a.97.97,0,0,1-.7.7c-3.819.983-6.289,3.237-6.447,5.883-.144,2.416,1.648,4.649,4.675,5.826,1.224.475,3.873.565,7.874.267a.973.973,0,0,1,.758.282l7.827,7.831a.97.97,0,1,1-1.372,1.371l-7.513-7.517c-4.155.288-6.791.152-8.276-.425-3.841-1.494-6.105-4.463-5.909-7.75.2-3.377,3-6.213,7.353-7.5ZM37.626,17.131c-.283,4.164-.146,6.8.428,8.276,1.434,3.689,4.227,5.924,7.355,5.924q.2,0,.393-.012c3.376-.2,6.211-3,7.493-7.352,4.351-1.282,7.151-4.117,7.353-7.493.2-3.286-2.068-6.257-5.91-7.753-1.488-.576-4.125-.712-8.279-.425L38.949.784a.97.97,0,1,0-1.372,1.371L45.4,9.982a.972.972,0,0,0,.758.282c4-.3,6.652-.209,7.878.266,3.029,1.179,4.82,3.413,4.676,5.829-.158,2.645-2.628,4.9-6.447,5.88a.97.97,0,0,0-.7.7c-.983,3.819-3.236,6.289-5.88,6.446-2.417.148-4.647-1.649-5.825-4.679-.473-1.216-.564-3.865-.27-7.875a.97.97,0,0,0-.281-.757L31.484,8.245a.97.97,0,0,0-1.372,1.372Zm28.883-1.9a.97.97,0,0,0,1.372,0l6.99-6.994A.97.97,0,1,0,73.5,6.867l-6.99,6.994a.97.97,0,0,0,0,1.372Zm1.861,3.892a.969.969,0,0,0,1.207.652l9.39-2.8a.97.97,0,0,0-.555-1.859l-9.39,2.8A.97.97,0,0,0,68.37,19.124Zm-5.164-6.346a.969.969,0,0,0,1.207-.652l2.8-9.39a.97.97,0,0,0-1.859-.555l-2.8,9.39A.97.97,0,0,0,63.206,12.778ZM77.6,52.921,66.591,58.259a5.48,5.48,0,0,0-2.123-4.64L62.45,52.063q-4.992-3.85-9.98-7.7a4.642,4.642,0,0,0-2.932-1H30.578a.97.97,0,0,0,0,1.94h18.96a2.731,2.731,0,0,1,1.748.595q4.989,3.852,9.98,7.7l2.017,1.556A3.542,3.542,0,0,1,64.4,59.292c-.013.032-.028.064-.042.1-.022.051-.046.1-.07.151a3.583,3.583,0,0,1-.364.583,3.541,3.541,0,0,1-4.963.637L50.448,54.2a.97.97,0,1,0-1.185,1.536l8.51,6.562A5.447,5.447,0,0,0,65.8,60.8l12.643-6.131a3.54,3.54,0,1,1,3.085,6.371c-2.4,1.164-4.511,2.215-6.372,3.142-7.224,3.6-10.852,5.4-14.377,5.307-3.543-.1-7.336-2.11-14.894-6.12-1.593-.845-3.4-1.8-5.387-2.841a.97.97,0,0,0-.449-.11H30.578a.97.97,0,0,0,0,1.94h9.234c1.9.993,3.631,1.911,5.165,2.725,8.058,4.276,12.054,6.358,16.074,6.358,3.811,0,7.642-1.872,14.971-5.522,1.857-.925,3.961-1.973,6.354-3.133A5.48,5.48,0,0,0,77.6,52.921ZM92.465,37.308a10.794,10.794,0,1,1-10.8-10.792,10.808,10.808,0,0,1,10.8,10.792Zm-1.94,0a8.854,8.854,0,1,0-8.856,8.856A8.864,8.864,0,0,0,90.525,37.308Zm-4.414-.97H82.64V32.867a.97.97,0,0,0-1.94,0v3.472H77.228a.97.97,0,1,0,0,1.94H80.7v3.475a.97.97,0,1,0,1.94,0V38.278h3.471a.97.97,0,1,0,0-1.94Z" transform="translate(0 0)"/>
    </g>
  </g>
</svg>
