<svg xmlns="http://www.w3.org/2000/svg" xmlns:xlink="http://www.w3.org/1999/xlink" width="65" height="65" viewBox="0 0 65 65">
  <defs>
    <clipPath id="clip-path">
      <rect id="Rectángulo_402686" data-name="Rectángulo 402686" width="38.656" height="42.973" fill="#12263f"/>
    </clipPath>
  </defs>
  <g id="Grupo_1101578" data-name="Grupo 1101578" transform="translate(-830.051 -3965)">
    <circle id="Elipse_11712" data-name="Elipse 11712" cx="32.5" cy="32.5" r="32.5" transform="translate(830.051 3965)" fill="#d7f38d"/>
    <g id="Grupo_1101556" data-name="Grupo 1101556" transform="translate(841.651 3974.941)">
      <g id="Grupo_1101555" data-name="Grupo 1101555" transform="translate(0 0)" clip-path="url(#clip-path)">
        <path id="Trazado_881004" data-name="Trazado 881004" d="M54.881,45.025a14.707,14.707,0,0,1-3.449-.7.467.467,0,0,1,.288-.888,13.328,13.328,0,0,0,3.269.652c.325-.015.606-.465.6-.961-.008-1.236-.1-2.826-.1-2.842l-.03-.523.524.03c.841.05,3.119-.091,3.567-1.3.24-.646-.346-2.171-.773-3.286a12.116,12.116,0,0,1-.615-1.865A8.427,8.427,0,0,1,58.2,31.1a10.731,10.731,0,0,0,.042-2.688.467.467,0,1,1,.923-.142,11.6,11.6,0,0,1-.035,2.922,7.838,7.838,0,0,0-.047,1.98,11.727,11.727,0,0,0,.568,1.7c.56,1.46,1.138,2.969.776,3.945-.61,1.646-2.927,1.89-3.978,1.914.028.579.069,1.561.075,2.39a1.767,1.767,0,0,1-1.493,1.9c-.049,0-.1,0-.151,0" transform="translate(-27.236 -14.856)" fill="#12263f"/>
        <path id="Trazado_881005" data-name="Trazado 881005" d="M.466,50.9a.467.467,0,0,1-.377-.743c.035-.047,3.422-4.724,3.853-9.2a26.814,26.814,0,0,0-.586-7.138c-.612-3.572-1.245-7.266-.006-11.558a.467.467,0,1,1,.9.259c-1.179,4.086-.565,7.673.029,11.141a27.508,27.508,0,0,1,.6,7.385C4.417,45.779.989,50.507.843,50.706a.466.466,0,0,1-.377.191" transform="translate(0 -11.685)" fill="#12263f"/>
        <path id="Trazado_881006" data-name="Trazado 881006" d="M38.43,68.19a2.92,2.92,0,0,1-1.061-.221,23.3,23.3,0,0,1-7.293-4.533,7.141,7.141,0,0,1-2.443-4.412.467.467,0,0,1,.932-.063,6.344,6.344,0,0,0,2.142,3.786,22.372,22.372,0,0,0,7,4.351,1.288,1.288,0,0,0,1.78-.518c.231-.344.133-.749-.019-1.243a1.355,1.355,0,0,1-.092-.786,1.146,1.146,0,0,1,.7-.751.512.512,0,0,0,.349-.365c.05-.145-.392-.549-.846-.773a.467.467,0,1,1,.413-.837c.173.085,1.682.864,1.315,1.917a1.41,1.41,0,0,1-.832.9c-.14.066-.17.083-.193.138.011.063.049.186.078.279a2.289,2.289,0,0,1-.1,2.038A2.162,2.162,0,0,1,38.43,68.19" transform="translate(-14.725 -31.19)" fill="#12263f"/>
        <path id="Trazado_881007" data-name="Trazado 881007" d="M26.836,82.632a.467.467,0,0,1-.405-.7l4.138-7.277a.467.467,0,1,1,.812.462L27.242,82.4a.467.467,0,0,1-.406.236" transform="translate(-14.052 -39.66)" fill="#12263f"/>
        <path id="Trazado_881008" data-name="Trazado 881008" d="M9.554,26.1a.467.467,0,1,1,0-.934c1.623,0,4.065-1.024,6.533-2.74a.468.468,0,0,0,.206-.38.508.508,0,0,0-.2-.419,4.068,4.068,0,0,1-1.561-3.648A4.078,4.078,0,0,1,21.352,15.4a.481.481,0,0,0,.416.121.514.514,0,0,0,.369-.274,6.242,6.242,0,0,1,2.088-2.668c1.352-.806,3.261-.872,5.282-.942a21.431,21.431,0,0,0,5.077-.583,8.583,8.583,0,0,0,1.852-.742c3.253-1.807,4.044-6.375,4.227-8.033a32.984,32.984,0,0,1-9.017.773l-.077-.008a34.921,34.921,0,0,1-6.307-1.029,30.117,30.117,0,0,0-4.543-1C14.878.3,9.221,4.432,7.263,10.845a21.522,21.522,0,0,0-.2,9.773c.073.45.149.9.225,1.34.183,1.071.372,2.178.5,3.265a.467.467,0,0,1-.928.109c-.125-1.062-.3-2.109-.493-3.217-.077-.447-.153-.9-.227-1.348a22.363,22.363,0,0,1,.224-10.188C8.46,3.725,14.543-.683,20.835.088a31.048,31.048,0,0,1,4.7,1.036,34.255,34.255,0,0,0,6.13.993l.077.007a34.289,34.289,0,0,0,9.332-.893l.6-.145-.022.616c-.011.283-.307,6.955-4.759,9.428a9.478,9.478,0,0,1-2.052.824,22.454,22.454,0,0,1-5.3.617c-1.9.065-3.691.128-4.837.81a5.3,5.3,0,0,0-1.735,2.291,1.439,1.439,0,0,1-1.037.768,1.41,1.41,0,0,1-1.213-.353,3.145,3.145,0,1,0-4.055,4.8,1.455,1.455,0,0,1,.564,1.181,1.4,1.4,0,0,1-.607,1.123C13.962,25.041,11.386,26.1,9.554,26.1" transform="translate(-3.016 0)" fill="#12263f"/>
        <path id="Trazado_881009" data-name="Trazado 881009" d="M71.211,67.111H66.54a.467.467,0,0,1,0-.934h4.671a.467.467,0,0,1,0,.934" transform="translate(-35.211 -35.266)" fill="#12263f"/>
        <path id="Trazado_881010" data-name="Trazado 881010" d="M64.376,79.683a.466.466,0,0,1-.4-.234L61.636,75.4a.467.467,0,1,1,.809-.467l2.335,4.045a.467.467,0,0,1-.4.7" transform="translate(-32.813 -39.81)" fill="#12263f"/>
        <path id="Trazado_881011" data-name="Trazado 881011" d="M70.425,74.647a.466.466,0,0,1-.23-.061L64.836,71.55a.467.467,0,1,1,.461-.813l5.359,3.036a.467.467,0,0,1-.231.873" transform="translate(-34.426 -37.664)" fill="#12263f"/>
      </g>
    </g>
  </g>
</svg>
