<svg xmlns="http://www.w3.org/2000/svg" width="61.554" height="56.767" viewBox="0 0 61.554 56.767">
  <g id="Grupo_1102451" data-name="Grupo 1102451" transform="translate(-334.621 -1399.423)">
    <g id="Rectángulo_401341" data-name="Rectángulo 401341" transform="translate(334.621 1399.423)" fill="#ffb27e" stroke="#fcd8c0" stroke-width="3">
      <rect width="61.554" height="56.767" rx="12" stroke="none"/>
      <rect x="1.5" y="1.5" width="58.554" height="53.767" rx="10.5" fill="none"/>
    </g>
    <g id="cuerpo" transform="translate(331.311 1391.205)">
      <path id="Trazado_885114" data-name="Trazado 885114" d="M1201.269,750s-5.2,7.8-4.268,15.6a153.357,153.357,0,0,0,3.934,18.538h19.071s1.267-11.269.467-15.671a5.969,5.969,0,0,0,0-4.335c-.934-2.2-6.535-10.2-6.668-11.8a12.6,12.6,0,0,0-.333-2.267Z" transform="translate(-1172.244 -730.47)" fill="#ffe3b8"/>
      <path id="Trazado_885115" data-name="Trazado 885115" d="M1365.293,1002.6s-2.8-1.8-.467-6.868,6.468-4.868,8.6-3.8,3.8,7.335,0,12.069c0,0,2.2,11.536-.867,17.338h-6s-1.267-4-.934-11.536C1365.626,1009.8,1363.692,1007.135,1365.293,1002.6Z" transform="translate(-1336.401 -967.666)" fill="#f55"/>
      <path id="Trazado_885116" data-name="Trazado 885116" d="M1445.65,1652.34a21.886,21.886,0,0,0,4.135,2.868s1.867.734,2,2.267l2-3.734" transform="translate(-1416.758 -1617.406)" fill="none" stroke="#000" stroke-linecap="round" stroke-linejoin="round" stroke-width="1"/>
      <path id="Trazado_885117" data-name="Trazado 885117" d="M1785.49,1966.467s1-9.6.4-13.337" transform="translate(-1750.797 -1913.061)" fill="none" stroke="#000" stroke-linecap="round" stroke-linejoin="round" stroke-width="1"/>
      <path id="Trazado_885118" data-name="Trazado 885118" d="M1465.18,1778.574s.811-4.667,2.406-5.135" transform="translate(-1435.955 -1736.439)" fill="none" stroke="#000" stroke-linecap="round" stroke-linejoin="round" stroke-width="1"/>
      <path id="Trazado_885119" data-name="Trazado 885119" d="M1605.985,1859.38s-2.267,4.734-2.467,7.335a53.762,53.762,0,0,0,.422,7.669" transform="translate(-1571.892 -1820.912)" fill="none" stroke="#000" stroke-linecap="round" stroke-linejoin="round" stroke-width="1"/>
      <path id="Trazado_885120" data-name="Trazado 885120" d="M1366.557,1021.35s-1.267-4-.934-11.536c0,0-1.934-2.667-.333-7.2,0,0-2.8-1.8-.467-6.868s6.468-4.868,8.6-3.8,3.8,7.335,0,12.069c0,0,2.2,11.536-.867,17.338" transform="translate(-1336.399 -967.678)" fill="none" stroke="#000" stroke-linecap="round" stroke-linejoin="round" stroke-width="1"/>
      <path id="Trazado_885121" data-name="Trazado 885121" d="M2174.835,787.946s1.267-11.269.467-15.671a5.968,5.968,0,0,0,0-4.334c-.934-2.2-6.535-10.2-6.668-11.8a12.582,12.582,0,0,0-.333-2.267" transform="translate(-2127.072 -734.274)" fill="none" stroke="#000" stroke-linecap="round" stroke-linejoin="round" stroke-width="1"/>
      <path id="Trazado_885122" data-name="Trazado 885122" d="M1341.53,2388.25c.85,3.573,1.577,6.175,1.577,6.175" transform="translate(-1314.415 -2340.754)" fill="none" stroke="#000" stroke-linecap="round" stroke-linejoin="round" stroke-width="1"/>
      <path id="Trazado_885123" data-name="Trazado 885123" d="M1262.54,2026.55q.135.688.276,1.37" transform="translate(-1236.774 -1985.228)" fill="none" stroke="#000" stroke-linecap="round" stroke-linejoin="round" stroke-width="1"/>
      <path id="Trazado_885124" data-name="Trazado 885124" d="M1201.269,750s-5.2,7.8-4.268,15.6" transform="translate(-1172.244 -730.47)" fill="none" stroke="#000" stroke-linecap="round" stroke-linejoin="round" stroke-width="1"/>
      <path id="Trazado_885125" data-name="Trazado 885125" d="M1603.57,2375a10.1,10.1,0,0,0,3.32,3.783" transform="translate(-1571.982 -2327.73)" fill="none" stroke="#000" stroke-linecap="round" stroke-linejoin="round" stroke-width="1"/>
      <path id="Trazado_885126" data-name="Trazado 885126" d="M1474.91,1151.5s4.348,3.63,5.3,7.683a48.858,48.858,0,0,1,.3,5.552" transform="translate(-1445.519 -1125.116)" fill="none" stroke="#000" stroke-linecap="round" stroke-linejoin="round" stroke-width="1"/>
      <path id="Trazado_885127" data-name="Trazado 885127" d="M1799.344,1027.34a19.972,19.972,0,0,1-2.134,10.269" transform="translate(-1762.317 -1003.076)" fill="none" stroke="#000" stroke-linecap="round" stroke-linejoin="round" stroke-width="1"/>
      <path id="Trazado_885128" data-name="Trazado 885128" d="M1531.083,1246.09s-2.091,4.138,2.422,9.9" transform="translate(-1500.257 -1218.091)" fill="none" stroke="#000" stroke-linecap="round" stroke-linejoin="round" stroke-width="1"/>
      <path id="Trazado_885129" data-name="Trazado 885129" d="M1691.74,1003.91a36.638,36.638,0,0,1,1.8,10.136" transform="translate(-1658.647 -980.046)" fill="none" stroke="#000" stroke-linecap="round" stroke-linejoin="round" stroke-width="1"/>
      <path id="Trazado_885130" data-name="Trazado 885130" d="M1822.475,1990.3a24.813,24.813,0,0,1-2.314,5.59" transform="translate(-1784.875 -1949.597)" fill="none" stroke="#000" stroke-linecap="round" stroke-linejoin="round" stroke-width="1"/>
      <path id="Trazado_885131" data-name="Trazado 885131" d="M1799.934,2375s-1.267,3.6-2.734,5.135" transform="translate(-1762.307 -2327.73)" fill="none" stroke="#000" stroke-linecap="round" stroke-linejoin="round" stroke-width="1"/>
      <path id="Trazado_885132" data-name="Trazado 885132" d="M1164.17,1424.926l-3.781-1.516.035,1.6-3.2-1.454,4.558,3.947-.036-1.623,2.486,1.719Z" transform="translate(-1118.269 -1379.915)" fill="#f55"/>
      <path id="Trazado_885133" data-name="Trazado 885133" d="M1164.17,1424.926l-3.781-1.516.035,1.6-3.2-1.454,4.558,3.947-.036-1.623,2.486,1.719Z" transform="translate(-1118.269 -1379.915)" fill="none" stroke="#000" stroke-linecap="round" stroke-linejoin="round" stroke-width="1"/>
      <path id="Trazado_885134" data-name="Trazado 885134" d="M1164.7,988.28l-3.641,1.826,1.22,1.033-3.212,1.436,5.977-.8-1.239-1.049,2.935-.722Z" transform="translate(-1120.087 -952.213)" fill="#f55"/>
      <path id="Trazado_885135" data-name="Trazado 885135" d="M1164.7,988.28l-3.641,1.826,1.22,1.033-3.212,1.436,5.977-.8-1.239-1.049,2.935-.722Z" transform="translate(-1120.087 -952.213)" fill="none" stroke="#000" stroke-linecap="round" stroke-linejoin="round" stroke-width="1"/>
      <path id="Trazado_885136" data-name="Trazado 885136" d="M91.6,1424.926l3.781-1.516-.035,1.6,3.2-1.454L93.99,1427.5l.035-1.623L91.54,1427.6Z" transform="translate(-70.781 -1379.915)" fill="#f55"/>
      <path id="Trazado_885137" data-name="Trazado 885137" d="M91.6,1424.926l3.781-1.516-.035,1.6,3.2-1.454L93.99,1427.5l.035-1.623L91.54,1427.6Z" transform="translate(-70.781 -1379.915)" fill="none" stroke="#000" stroke-linecap="round" stroke-linejoin="round" stroke-width="1"/>
      <path id="Trazado_885138" data-name="Trazado 885138" d="M21.569,988.28l3.641,1.826-1.22,1.033,3.212,1.436-5.977-.8,1.239-1.049-2.935-.722Z" transform="translate(0 -952.213)" fill="#f55"/>
      <path id="Trazado_885139" data-name="Trazado 885139" d="M21.569,988.28l3.641,1.826-1.22,1.033,3.212,1.436-5.977-.8,1.239-1.049-2.935-.722Z" transform="translate(0 -952.213)" fill="none" stroke="#000" stroke-linecap="round" stroke-linejoin="round" stroke-width="1"/>
    </g>
  </g>
</svg>
