<svg id="Grupo_1103545" data-name="Grupo 1103545" xmlns="http://www.w3.org/2000/svg" xmlns:xlink="http://www.w3.org/1999/xlink" width="122.932" height="122.932" viewBox="0 0 122.932 122.932">
  <defs>
    <clipPath id="clip-path">
      <rect id="Rectángulo_403527" data-name="Rectángulo 403527" width="122.932" height="122.932" fill="none"/>
    </clipPath>
    <clipPath id="clip-path-2">
      <rect id="Rectángulo_403526" data-name="Rectángulo 403526" width="122.932" height="122.932" fill="#b1fafc"/>
    </clipPath>
    <clipPath id="clip-path-3">
      <rect id="Rectángulo_404281" data-name="Rectángulo 404281" width="120.257" height="86.201" fill="none"/>
    </clipPath>
  </defs>
  <g id="Grupo_1101867" data-name="Grupo 1101867">
    <g id="Grupo_1101865" data-name="Grupo 1101865">
      <g id="Grupo_1101864" data-name="Grupo 1101864" clip-path="url(#clip-path)">
        <rect id="Rectángulo_403526-2" data-name="Rectángulo 403526" width="122.932" height="122.932" fill="#1aa6d2"/>
      </g>
    </g>
  </g>
  <g id="Enmascarar_grupo_1099697" data-name="Enmascarar grupo 1099697" clip-path="url(#clip-path-2)">
    <g id="Grupo_1103541" data-name="Grupo 1103541" transform="translate(10.613 36.73)">
      <g id="Grupo_1103540" data-name="Grupo 1103540" clip-path="url(#clip-path-3)">
        <path id="Trazado_884028" data-name="Trazado 884028" d="M221.507,77.371a56.8,56.8,0,0,1-2.7,17.287q-.557,1.768-1.243,3.507s-33.884-4.382-38.908-3.85-2.78,1.392-7.272,2.566-17.957,1.5-22.767,1.388-11.331-.105-13.256.432-5.238-1.82-5.238-1.82-4.919-31.535-5.988-32.924a.308.308,0,0,1-.056-.186.533.533,0,0,1,.028-.169.106.106,0,0,1,.012-.045c.012-.04.028-.081.045-.125a4.294,4.294,0,0,1,.521-.831A19.914,19.914,0,0,1,126.2,60.9c.722-.75,1.586-1.578,2.51-2.429,3.882-3.583,8.8-7.55,8.8-7.55L165.3,53.8s1.59.468,3.757,1.041c.411.109.847.222,1.3.339.174.045.347.085.521.129.585.149,1.19.295,1.8.436.161.04.323.077.484.113.117.028.23.056.347.081q.442.1.884.194c.065.012.125.028.19.04.226.048.452.1.678.141.7.141,1.368.262,1.993.359q.3.049.581.085c.4.052.767.093,1.11.117l.178.012.294.012c3.955.109,9.088,0,13.042-.319s25.119,0,25.119,0l.2.512a57,57,0,0,1,3.741,20.277" transform="translate(-101.25 -41.547)" fill="#f9c193"/>
        <path id="Trazado_884029" data-name="Trazado 884029" d="M145.443,92.528l-7.2-18.883s-2.525-.5-5.515-1.063c-1.308,1.122-2.722,2.364-4.021,3.563-.924.851-1.788,1.679-2.51,2.429a19.913,19.913,0,0,0-1.509,1.707,4.293,4.293,0,0,0-.521.831c-.016.044-.032.085-.044.125a.106.106,0,0,0-.012.045.528.528,0,0,0-.028.169.308.308,0,0,0,.056.185c1.07,1.388,5.988,32.924,5.988,32.924a15.154,15.154,0,0,0,1.8,1.064c.3.128,7.216-.808,8.954-5.936.728-2.148.459-5.238.171-7.184a3.582,3.582,0,0,1,.885-2.921,16.959,16.959,0,0,0,3.5-7.055" transform="translate(-101.25 -59.226)" fill="#dd9b7a"/>
        <path id="Trazado_884030" data-name="Trazado 884030" d="M98.992,230.376a3.724,3.724,0,0,0-.7,2.459c.275,1.069,1.557,4.81,2.306,5.452s3.528,2.566,5.238,2.672,5.024-2.031,7.055-2.993,3.087-.638,4.269-2.3a9.145,9.145,0,0,0,1.717-5.287c-.107-1.4.534-4.877-2.459-5.114s-15.714,4.039-17.424,5.108" transform="translate(-80.163 -183.807)" fill="#f9c193"/>
        <path id="Trazado_884031" data-name="Trazado 884031" d="M127.12,231.4c-.094-1.228.388-4.067-1.53-4.895a11.242,11.242,0,0,1,.361,3.674,9.145,9.145,0,0,1-1.717,5.287c-1.182,1.659-2.238,1.334-4.269,2.3s-5.345,3.1-7.055,2.993c-1.367-.085-3.413-1.33-4.563-2.154a2.7,2.7,0,0,0,.495.7c.748.641,3.528,2.566,5.238,2.672s5.024-2.031,7.055-2.993,3.087-.637,4.269-2.3a9.145,9.145,0,0,0,1.717-5.287" transform="translate(-88.408 -184.823)" fill="#f5af84"/>
        <path id="Trazado_884032" data-name="Trazado 884032" d="M74.11,155.606s-1.822,1.989-.539,5.517,2.565,5.879,4.917,6.093,17.916-5.2,19.273-5.805,2.64-2.961,3.175-4.457.611-1.4,1.268-3.534-.733-6.621-6.292-5.339-21.8,7.525-21.8,7.525" transform="translate(-59.66 -120.647)" fill="#f9c193"/>
        <path id="Trazado_884033" data-name="Trazado 884033" d="M113.749,148.073a4.548,4.548,0,0,1,1.621,4.727c-.657,2.132-.733,2.037-1.268,3.534s-1.817,3.848-3.175,4.457c-1.32.592-16.057,5.718-19.042,5.809a3.472,3.472,0,0,0,1.92.795c2.352.214,17.916-5.2,19.273-5.805s2.641-2.961,3.175-4.457.611-1.4,1.268-3.534a4.386,4.386,0,0,0-3.773-5.525" transform="translate(-74.977 -120.825)" fill="#f5af84"/>
        <path id="Trazado_884034" data-name="Trazado 884034" d="M36.253,2.1C35.825,2.314,26.1-.465,23,.07S9.422,2.849,6.321,5.094c-1.355.981-4.7,5.452-5.772,6.628S.121,17.6,1.19,18.99a7.623,7.623,0,0,0,6.093,3.421C10.6,22.518,36.253,2.1,36.253,2.1" transform="translate(0 -0.001)" fill="#f9c193"/>
        <path id="Trazado_884035" data-name="Trazado 884035" d="M34.52,1.477h0C32.235.969,26.708-.3,24.55.073,22.724.388,18.337,1.3,14.407,2.45l-.2.322a5.639,5.639,0,0,0-.71.316C9.859,5.119,9.645,6.3,9.431,8.113c-.081.691-.209,2.017-.4,3.494a6.119,6.119,0,0,1-6.106,5.356c-.427,0-.785-.026-1.029-.047a5.935,5.935,0,0,0,.841,2.079,7.719,7.719,0,0,0,5.02,3.314,6.279,6.279,0,0,0,1.249.1c3.707-.5,25.865-17.97,28.793-20.3a20.1,20.1,0,0,1-3.285-.627" transform="translate(-1.552 -0.005)" fill="#f5af84"/>
        <path id="Trazado_884036" data-name="Trazado 884036" d="M31.844,108.512c-.149.26.226,2.523,3.219,4.02s2.978,1.71,9.026.641,13.958-.857,17.058-3.955,1.279-4.007,1.281-6.012-.212-5.212-3.74-6.388-20.976,1.474-26.843,11.694" transform="translate(-25.962 -78.791)" fill="#f9c193"/>
        <path id="Trazado_884037" data-name="Trazado 884037" d="M65.816,105.763c0-1.847-.187-4.711-2.973-6.07a7.965,7.965,0,0,1,.972,4.321c0,2.005,1.819,2.913-1.281,6.012s-11.011,2.886-17.058,3.955-6.032.855-9.025-.641c-.169-.085-.328-.173-.481-.262a6.728,6.728,0,0,0,2.482,2.01c2.993,1.5,2.978,1.71,9.026.641s13.958-.857,17.058-3.955,1.279-4.007,1.281-6.012" transform="translate(-29.351 -81.348)" fill="#f5af84"/>
        <path id="Trazado_884038" data-name="Trazado 884038" d="M65.2,121.96c0,1.2,2.607,2.511,7.939,1.255s11.251-.731,12.506-3.683,0-4.208-1.076-5.284-9.914-.159-13.476,1-5.893,4.2-5.893,6.715" transform="translate(-53.205 -92.834)" fill="#ffcca6"/>
        <path id="Trazado_884039" data-name="Trazado 884039" d="M51.3,23.254s7.7,17.1,18.173,18.6,20.952-10.476,19.883-18.6S72.467,9.25,69.473,8.4,60.6,3.906,59.1,3.8a29.733,29.733,0,0,0-8.766,1.6C46.6,6.578,33.876,5.3,30.242,7.326s-3.848,3.207-4.062,5.024-.748,8.017-1.817,9.835-4.062,6.2-3.314,7.91S23.935,35.12,28,33.73,38.687,30.1,39.97,22.884c0,0,6.842-1.981,11.331.37" transform="translate(-17.078 -3.089)" fill="#f9c193"/>
        <path id="Trazado_884040" data-name="Trazado 884040" d="M136.073,82.86c-11.65-1.533-39.106-5.347-43.6-3.172-2.1,1.013-3.22,3.357-4.1,5.516C85.544,92.088,77.518,98.868,69.48,97.722,59,96.225,51.3,79.119,51.3,79.119c-2.942-1.542-6.9-1.219-9.273-.815a21.007,21.007,0,0,0-2.058.448C38.69,85.971,32.065,88.207,28,89.6s-6.2-1.925-6.949-3.636a2.963,2.963,0,0,1,.133-1.957c.819,1.755,2.946,4.79,6.864,3.45,4.064-1.388,10.693-3.628,11.973-10.847a23.494,23.494,0,0,1,4.519-.734,13.163,13.163,0,0,1,6.811,1.106s7.7,17.1,18.175,18.6c5.524.791,11.045-2.167,14.874-6.327a13.187,13.187,0,0,0,3.289-11.819,9.409,9.409,0,0,0-2.8-5.181,61.49,61.49,0,0,0,10.354,2.058c3.955.109,9.087,0,13.042-.319s25.119,0,25.119,0a56.57,56.57,0,0,1,2.671,8.869" transform="translate(-17.084 -58.956)" fill="#f5af84"/>
        <path id="Trazado_884041" data-name="Trazado 884041" d="M410.325,126.4c-3,2.307-5.38,16.859.9,20.087s32.844,5.652,36.335,5.292,4.726-19.306,2.332-22.605-37.232-4.567-39.564-2.773" transform="translate(-332.328 -102.47)" fill="#ffcca6"/>
        <path id="Trazado_884042" data-name="Trazado 884042" d="M427.283,152.569c-2.144,1.693-2.69,7.844,1.435,10.2s31.652,6.392,34.219,4.866,2.125-11.478,1.08-13.092-33.327-4.663-36.734-1.973" transform="translate(-347.313 -123.623)" fill="#ffd3b6"/>
        <path id="Trazado_884043" data-name="Trazado 884043" d="M224.208,224.9c-2.562,1.678-2.123,7.353,0,8.429s18.012,2.906,23.645-1.588c2.244-1.79,3.587-6.581,1.973-7.967s-10.4,2.022-15.065,1.125-8.91-1.076-10.553,0" transform="translate(-181.513 -182.318)" fill="#ffcca6"/>
        <path id="Trazado_884044" data-name="Trazado 884044" d="M59.468,28.526a10.644,10.644,0,0,1,8.67,6.94c2.085,5.833,5.379,11.151,11.685,11.151,8.429,0,18.256-7.559,15.065-13.65S73.008,17.743,69.421,17.922,52.473,19.9,48.572,19.537s-8.922-.583-9.64,2.309-.538,9.667-1.435,11.122-4.84,4.5-3.227,6.476,4.4,2.036,8.428-.031c4.89-2.511,4.539-7.9,6.377-9.654,1.015-.968,5.83-1.822,10.392-1.233" transform="translate(-27.651 -14.622)" fill="#ffcca6"/>
        <path id="Trazado_884045" data-name="Trazado 884045" d="M210.455,222.074a4.259,4.259,0,0,1-3.623-2.746,30.056,30.056,0,0,0-4.961-7.971c1.417,4.4,1.207,8.651,0,10.525-4.156,6.454-19.363,4.3-24.173,4.2s-11.331-.109-13.256.432a3.814,3.814,0,0,1-2.145-.212l-2.58,1.837c1,.631,3.263,1.893,4.725,1.482,1.925-.537,8.446-.537,13.256-.432s18.28-.214,22.767-1.388,2.247-2.03,7.271-2.566,38.908,3.85,38.908,3.85q.684-1.737,1.243-3.507c-7.868-.868-29.5-2.809-37.433-3.5" transform="translate(-130.326 -172.464)" fill="#f5af84"/>
        <path id="Trazado_884046" data-name="Trazado 884046" d="M95.4,176.955c-1.8,1.561.652,5.685,1.859,6.223s14.25-4.033,15.283-5,4.044-5.219,3.5-6.116-3.617-.256-5.755,1.307S97,175.574,95.4,176.955" transform="translate(-77.324 -140.063)" fill="#ffcca6"/>
        <path id="Trazado_884047" data-name="Trazado 884047" d="M114.174,241.212c-1.6,1.383.975,5.452,2.231,5.811s6.1-2.045,8.07-2.905,5.288-5.032,4.527-6.623-5.439-.515-7.853.92-5.44,1.47-6.976,2.8" transform="translate(-92.749 -193.147)" fill="#ffcca6"/>
        <path id="Trazado_884048" data-name="Trazado 884048" d="M240.243,57.409c-.8,3.749,4,13.468,10.7,11.845s11.361-4.144,8.851-8.084-10.043-9.916-14.886-10.426-4.125,4.154-4.663,6.664" transform="translate(-195.962 -41.376)" fill="#ffd3b6"/>
        <path id="Trazado_884049" data-name="Trazado 884049" d="M44.123,51.549c-.426,3.648,7.768.83,8.776-2.708s2.36-8.174,3.029-9.622-3.865-7.053-5.723-3.982-1.126,7.324-2.216,10.423-3.606,3.663-3.866,5.889" transform="translate(-35.99 -28.013)" fill="#ffd3b6"/>
        <path id="Trazado_884050" data-name="Trazado 884050" d="M139.926,184.406c-1.24,1.459,6.223,2.072,8.017.461s4.18-3.66,3.166-4.07-3.112,2.468-5.47,2.554-4.4-.484-5.712,1.056" transform="translate(-114.064 -147.494)" fill="#ffd3b6"/>
        <path id="Trazado_884051" data-name="Trazado 884051" d="M146.645,247.413c-1.045,2.407-.868,4.3,1.142,3.939s5.776-2.225,5.955-4.072-6.3-1.694-7.1.133" transform="translate(-119.147 -200.705)" fill="#ffd3b6"/>
        <path id="Trazado_884052" data-name="Trazado 884052" d="M138.375,122.991c-1.117.635.907,4.772,2.917,4.139s3.9-1.709,2.864-3.144a4.673,4.673,0,0,0-5.781-1" transform="translate(-112.652 -99.883)" fill="#ffd3b6"/>
        <path id="Trazado_884053" data-name="Trazado 884053" d="M247.829,253.332c-1.277,1.829,6.815,3.117,10.4,2.714s9.147-.543,9.326-2.714-1.973-1.707-5.38-1.4-12.733-.911-14.348,1.4" transform="translate(-202.114 -205.355)" fill="#ffd3b6"/>
        <path id="Trazado_884054" data-name="Trazado 884054" d="M477.446,268.552a31.32,31.32,0,0,0-3.754,16.639c.5,9.736,18.283,20.144,18.283,20.144l8.409-6.883s-15.992-8.393-15.967-14.6,3.334-12.412,3.334-12.412Z" transform="translate(-386.489 -219.134)" fill="#e8e1da"/>
        <path id="Trazado_884055" data-name="Trazado 884055" d="M485.463,277.255a33.579,33.579,0,0,1,2.286-5.82l-10.3-2.883a31.319,31.319,0,0,0-3.754,16.639,12.918,12.918,0,0,0,2.439,6.362c.233-6.629,4.061-12.207,9.333-14.3" transform="translate(-386.488 -219.134)" fill="#e2d9d0"/>
        <path id="Trazado_884056" data-name="Trazado 884056" d="M556.114,392.665s-7.77-4.079-12.47-8.654a19.948,19.948,0,0,0-1.353,11.905c3.038,2.24,5.414,3.631,5.414,3.631Z" transform="translate(-442.22 -313.346)" fill="#f4ece3"/>
        <path id="Trazado_884057" data-name="Trazado 884057" d="M492.081,342.4S474.3,331.994,473.8,322.257a31.6,31.6,0,0,1,.522-7.623,31.541,31.541,0,0,0-.629,8.159c.5,9.737,18.283,20.144,18.283,20.144l8.409-6.883s-.118-.062-.33-.177Z" transform="translate(-386.488 -256.736)" fill="#f9f5f2"/>
        <path id="Trazado_884058" data-name="Trazado 884058" d="M416.52,80.552c.771,1.593,6.685,14.762,3.628,37.839a.118.118,0,0,0,.106.133l10.022.887a.117.117,0,0,0,.127-.1c.233-1.924,3.224-27.985-4-38.972a.119.119,0,0,0-.1-.054l-9.673.1a.116.116,0,0,0-.106.166" transform="translate(-339.863 -65.509)" fill="#f4ece3"/>
        <path id="Trazado_884059" data-name="Trazado 884059" d="M420.575,118.524a.118.118,0,0,1-.105-.133c3.057-23.077-2.858-36.246-3.628-37.839a.116.116,0,0,1,.106-.166l9.366-.1a.126.126,0,0,0-.014,0l-9.673.1a.116.116,0,0,0-.106.166c.771,1.593,6.685,14.762,3.628,37.839a.118.118,0,0,0,.106.133Z" transform="translate(-339.863 -65.509)" fill="#f9f5f2"/>
        <path id="Trazado_884060" data-name="Trazado 884060" d="M426.4,80.336a.119.119,0,0,0-.1-.054l-9.673.1a.116.116,0,0,0-.106.166,33.2,33.2,0,0,1,1.668,4.413A23.629,23.629,0,0,1,424.28,101.3a24.773,24.773,0,0,1-3.7,13.284c-.118,1.237-.258,2.5-.43,3.8a.118.118,0,0,0,.106.133l10.022.887a.117.117,0,0,0,.127-.1c.233-1.924,3.224-27.985-4-38.972" transform="translate(-339.863 -65.509)" fill="#e8e1da"/>
        <path id="Trazado_884061" data-name="Trazado 884061" d="M446.926,80.336a.119.119,0,0,0-.1-.054l-5.162.056c3.256,5.452,5.258,12.822,5.258,20.941a43.59,43.59,0,0,1-3.475,17.481l7.356.651a.117.117,0,0,0,.127-.1c.233-1.924,3.224-27.985-4-38.972" transform="translate(-360.389 -65.509)" fill="#e2d9d0"/>
        <path id="Trazado_884062" data-name="Trazado 884062" d="M462.832,76.766c.92,1.119,5.218,8.071,4.031,39.269a.119.119,0,0,0,.1.122l9.342,1.368a.118.118,0,0,0,.134-.105c.2-2.08,2.684-29.895-2.6-41.088a.118.118,0,0,0-.111-.067l-10.8.311a.117.117,0,0,0-.089.19" transform="translate(-377.642 -62.23)" fill="#f4ece3"/>
        <path id="Trazado_884063" data-name="Trazado 884063" d="M473.836,76.331a.118.118,0,0,0-.111-.067l-10.8.312a.117.117,0,0,0-.089.19c.362.44,1.246,1.784,2.114,5.149A21.3,21.3,0,0,1,471.3,97.477a21.973,21.973,0,0,1-4.279,13.264c-.034,1.683-.084,3.444-.155,5.293a.118.118,0,0,0,.1.122l9.342,1.368a.118.118,0,0,0,.134-.106c.2-2.08,2.684-29.895-2.6-41.088" transform="translate(-377.642 -62.23)" fill="#e8e1da"/>
        <path id="Trazado_884064" data-name="Trazado 884064" d="M467.285,116.157a.118.118,0,0,1-.1-.122c1.187-31.2-3.111-38.15-4.031-39.269a.117.117,0,0,1,.089-.19l10.514-.3a.112.112,0,0,0-.032-.008l-10.8.312a.117.117,0,0,0-.089.19c.92,1.119,5.218,8.071,4.031,39.269a.118.118,0,0,0,.1.122Z" transform="translate(-377.642 -62.23)" fill="#f9f5f2"/>
        <path id="Trazado_884065" data-name="Trazado 884065" d="M495.323,76.331a.118.118,0,0,0-.111-.067l-6.073.175a41.866,41.866,0,0,1,5.7,20.052,42.128,42.128,0,0,1-3.82,20.042l6.773.992a.118.118,0,0,0,.134-.106c.2-2.08,2.684-29.895-2.6-41.088" transform="translate(-399.129 -62.23)" fill="#e2d9d0"/>
        <path id="Trazado_884066" data-name="Trazado 884066" d="M516.154,73.1c.62,1.539,5.476,14.8.629,41.335a.118.118,0,0,0,.094.137l9.671,1.8a.117.117,0,0,0,.138-.1c.34-2.066,4.944-30.942-.993-43.612a.119.119,0,0,0-.112-.068l-9.32.345a.116.116,0,0,0-.106.158" transform="translate(-421.166 -59.238)" fill="#f4ece3"/>
        <path id="Trazado_884067" data-name="Trazado 884067" d="M537.96,72.665a.119.119,0,0,0-.112-.068l-4.862.18c3.285,5.8,5.021,13.806,4.388,22.51a42,42,0,0,1-6.194,19.664l7.636,1.421a.117.117,0,0,0,.137-.1c.34-2.066,4.944-30.942-.993-43.612" transform="translate(-433.433 -59.238)" fill="#e8e1da"/>
        <path id="Trazado_884068" data-name="Trazado 884068" d="M517.2,114.572a.118.118,0,0,1-.094-.137c4.847-26.539-.01-39.8-.63-41.335a.116.116,0,0,1,.106-.158l9.04-.335a.113.113,0,0,0-.04-.01l-9.32.345a.116.116,0,0,0-.106.158c.62,1.539,5.476,14.8.629,41.335a.118.118,0,0,0,.094.137Z" transform="translate(-421.166 -59.238)" fill="#f9f5f2"/>
      </g>
    </g>
  </g>
  <rect id="Rectángulo_403527-2" data-name="Rectángulo 403527" width="122.932" height="122.932" fill="none"/>
</svg>
