<svg xmlns="http://www.w3.org/2000/svg" xmlns:xlink="http://www.w3.org/1999/xlink" width="65" height="65" viewBox="0 0 65 65">
  <defs>
    <clipPath id="clip-path">
      <rect id="Rectángulo_402688" data-name="Rectángulo 402688" width="41.432" height="47.053" fill="#12263f"/>
    </clipPath>
  </defs>
  <g id="Grupo_1101575" data-name="Grupo 1101575" transform="translate(-515.051 -4089)">
    <circle id="Elipse_11714" data-name="Elipse 11714" cx="32.5" cy="32.5" r="32.5" transform="translate(515.051 4089)" fill="#d7f38d"/>
    <g id="Grupo_1101560" data-name="Grupo 1101560" transform="translate(524.132 4099.947)">
      <g id="Grupo_1101559" data-name="Grupo 1101559" transform="translate(0 0)" clip-path="url(#clip-path)">
        <path id="Trazado_881021" data-name="Trazado 881021" d="M11.665,27.337a.489.489,0,1,1,0-.978c1.7,0,4.257-1.073,6.843-2.87a.491.491,0,0,0,.216-.4.534.534,0,0,0-.212-.439,4.273,4.273,0,1,1,5.511-6.521.5.5,0,0,0,.435.126.536.536,0,0,0,.386-.287,6.536,6.536,0,0,1,2.188-2.794c1.416-.844,3.416-.913,5.533-.986a22.447,22.447,0,0,0,5.318-.611,8.979,8.979,0,0,0,1.94-.777c3.408-1.893,4.236-6.678,4.427-8.414a34.54,34.54,0,0,1-9.444.81l-.081-.008A36.564,36.564,0,0,1,28.12,2.112a31.526,31.526,0,0,0-4.759-1.05c-6.118-.751-12.046,3.58-14.1,10.3a22.536,22.536,0,0,0-.207,10.236c.076.472.157.94.236,1.407.192,1.121.39,2.28.524,3.417a.489.489,0,0,1-.972.114c-.131-1.112-.318-2.207-.517-3.366-.08-.469-.161-.94-.238-1.415A23.418,23.418,0,0,1,8.327,11.08C10.518,3.9,16.891-.716,23.481.091A32.632,32.632,0,0,1,28.4,1.175a35.825,35.825,0,0,0,6.42,1.041l.081.008a35.883,35.883,0,0,0,9.774-.935l.628-.152-.024.645c-.011.3-.321,7.285-4.984,9.875a9.918,9.918,0,0,1-2.149.864,23.523,23.523,0,0,1-5.55.647c-1.988.068-3.865.134-5.066.848a5.534,5.534,0,0,0-1.817,2.4,1.51,1.51,0,0,1-1.087.8,1.48,1.48,0,0,1-1.271-.37,3.294,3.294,0,1,0-4.248,5.028,1.524,1.524,0,0,1,.591,1.238,1.465,1.465,0,0,1-.636,1.176c-2.784,1.935-5.481,3.045-7.4,3.045" transform="translate(-3.875 0)" fill="#12263f"/>
        <path id="Trazado_881022" data-name="Trazado 881022" d="M.489,50.914a.489.489,0,0,1-.3-.873c.045-.035,4.443-3.572,4.887-8.18a28.084,28.084,0,0,0-.614-7.476c-.64-3.742-1.3-7.611-.006-12.106a.489.489,0,1,1,.94.271c-1.235,4.28-.592,8.037.03,11.669a28.789,28.789,0,0,1,.623,7.735c-.485,5.028-5.059,8.7-5.254,8.853a.484.484,0,0,1-.3.106" transform="translate(0 -11.199)" fill="#12263f"/>
        <path id="Trazado_881023" data-name="Trazado 881023" d="M56.987,45.839a15.417,15.417,0,0,1-3.614-.733.489.489,0,0,1,.3-.931,13.932,13.932,0,0,0,3.424.682c.34-.016.635-.487.632-1.007-.009-1.295-.1-2.959-.1-2.976l-.032-.548.548.032c.876.049,3.267-.095,3.737-1.362.25-.676-.362-2.274-.81-3.442a12.735,12.735,0,0,1-.645-1.953,8.845,8.845,0,0,1,.039-2.345,11.244,11.244,0,0,0,.044-2.816.489.489,0,0,1,.967-.148,12.2,12.2,0,0,1-.037,3.061,8.187,8.187,0,0,0-.05,2.073,12.222,12.222,0,0,0,.595,1.777c.586,1.529,1.192,3.11.814,4.132-.639,1.725-3.066,1.979-4.167,2,.029.606.073,1.635.079,2.5a1.851,1.851,0,0,1-1.565,1.991c-.051,0-.1,0-.158,0" transform="translate(-27.088 -14.238)" fill="#12263f"/>
        <path id="Trazado_881024" data-name="Trazado 881024" d="M40.869,68.647a3.058,3.058,0,0,1-1.111-.232,24.424,24.424,0,0,1-7.639-4.747,7.48,7.48,0,0,1-2.558-4.621.489.489,0,0,1,.977-.066,6.65,6.65,0,0,0,2.243,3.966A23.445,23.445,0,0,0,40.114,67.5a1.35,1.35,0,0,0,1.864-.543c.242-.361.14-.785-.019-1.3a1.411,1.411,0,0,1-.1-.823,1.2,1.2,0,0,1,.733-.786.534.534,0,0,0,.365-.382c.052-.15-.411-.574-.887-.81a.489.489,0,0,1,.433-.877c.182.089,1.761.9,1.378,2.008a1.477,1.477,0,0,1-.871.945c-.146.069-.179.087-.2.145.011.066.051.195.081.293a2.4,2.4,0,0,1-.1,2.135,2.263,2.263,0,0,1-1.921,1.14" transform="translate(-15.098 -29.893)" fill="#12263f"/>
        <path id="Trazado_881025" data-name="Trazado 881025" d="M38.488,73.134a.489.489,0,0,1-.437-.708l.489-.978a.489.489,0,1,1,.876.437l-.489.978a.49.49,0,0,1-.438.271" transform="translate(-19.409 -36.354)" fill="#12263f"/>
        <path id="Trazado_881026" data-name="Trazado 881026" d="M21.468,81.112a1.468,1.468,0,1,1,1.468-1.468,1.47,1.47,0,0,1-1.468,1.468m0-1.957a.489.489,0,1,0,.489.489.49.49,0,0,0-.489-.489" transform="translate(-10.215 -39.93)" fill="#12263f"/>
        <path id="Trazado_881027" data-name="Trazado 881027" d="M18.4,80.983a4.4,4.4,0,1,1,4.4-4.4,4.408,4.408,0,0,1-4.4,4.4m0-7.828a3.425,3.425,0,1,0,3.425,3.425A3.429,3.429,0,0,0,18.4,73.155" transform="translate(-7.151 -36.865)" fill="#12263f"/>
        <path id="Trazado_881028" data-name="Trazado 881028" d="M15.339,80.854a7.339,7.339,0,1,1,7.339-7.339,7.347,7.347,0,0,1-7.339,7.339m0-13.7a6.36,6.36,0,1,0,6.36,6.36,6.367,6.367,0,0,0-6.36-6.36" transform="translate(-4.086 -33.801)" fill="#12263f"/>
      </g>
    </g>
  </g>
</svg>
