<svg id="Grupo_1103542" data-name="Grupo 1103542" xmlns="http://www.w3.org/2000/svg" xmlns:xlink="http://www.w3.org/1999/xlink" width="122.932" height="122.932" viewBox="0 0 122.932 122.932">
  <defs>
    <clipPath id="clip-path">
      <rect id="Rect치ngulo_403527" data-name="Rect치ngulo 403527" width="122.932" height="122.932" fill="#1aa6d2"/>
    </clipPath>
    <clipPath id="clip-path-2">
      <rect id="Rect치ngulo_404284" data-name="Rect치ngulo 404284" width="134.242" height="58.142" fill="none"/>
    </clipPath>
  </defs>
  <g id="Grupo_1101867" data-name="Grupo 1101867">
    <g id="Grupo_1101865" data-name="Grupo 1101865">
      <g id="Grupo_1101864" data-name="Grupo 1101864" clip-path="url(#clip-path)">
        <path id="Trazado_885008" data-name="Trazado 885008" d="M0,0H122.932V122.932H0Z" fill="#1aa6d2"/>
        <g id="Grupo_1103544" data-name="Grupo 1103544" transform="translate(10.707 37.749)">
          <g id="Grupo_1103543" data-name="Grupo 1103543" clip-path="url(#clip-path-2)">
            <path id="Trazado_884069" data-name="Trazado 884069" d="M132.986,49.654a.831.831,0,0,1-.216.058c-10.31,1.266-20.594-.152-30.893-.771a83.573,83.573,0,0,0-15.6.19,62.166,62.166,0,0,0-14.733,4.075,90.639,90.639,0,0,1-9.174,3.238,48.859,48.859,0,0,1-9.74,1.584,89.567,89.567,0,0,1-19.945-1.417,90.877,90.877,0,0,1-9.439-1.738c-2.09-.579-4.423-1.612-4.982-3.923A3.746,3.746,0,0,1,19.3,47.441c-1.7-.31-3.392-.653-5.072-1.046a26.728,26.728,0,0,1-6.049-1.936c-3.255-1.648-6.882-5.684-4.673-9.55a5.6,5.6,0,0,1,.777-1.061,12.088,12.088,0,0,1-1.144-.939C1.446,31.333-.176,28.983.016,26.548a5.072,5.072,0,0,1,4.028-4.685,12.488,12.488,0,0,1,2.267-.3,5.258,5.258,0,0,1-1.148-4.252c.875-5.851,8.869-3.616,12.675-3.356a58.627,58.627,0,0,0,13.8-.681,31.008,31.008,0,0,1-7.046-3.057c-1.462-.871-2.9-1.96-3.257-3.721a4.682,4.682,0,0,1,2-4.448C24.89.848,26.958.6,28.858.429c2.295-.207,4.6-.348,6.9-.4a103.655,103.655,0,0,1,13.4.5A110.393,110.393,0,0,1,69.011,4.564c6.547,1.957,13.034,4.149,19.843,5.01a95.4,95.4,0,0,0,20.575.015c6.865-.623,13.636-1.942,20.483-2.653a.673.673,0,0,1,.775.657c.6,3.381.758,6.86,1.059,10.28.3,3.392.564,6.784.837,10.178.559,6.925,1.095,13.851,1.656,20.776.057.709-.664.986-1.253.828" transform="translate(0 0)" fill="#feba91"/>
            <path id="Trazado_884070" data-name="Trazado 884070" d="M258.332,70.059a113.981,113.981,0,0,0-28.445-.553,117.961,117.961,0,0,0-14.148,2.365c-4.489,1.04-13.907,4.79-14.489,4.436a77.322,77.322,0,0,1-21.4-19.668c-2.813-3.8-5.727-8.03-6.717-12.737a14.935,14.935,0,0,1-.047-6.47,10.141,10.141,0,0,1,3.025-5.358c.4-.374,32.043-7.834,32.345-7.8,14.088,1.708,16.6,9.125,52.777,3.469.6-.093-1.885,42.461-2.9,42.313" transform="translate(-139.774 -19.643)" fill="#fef6f0"/>
            <path id="Trazado_884071" data-name="Trazado 884071" d="M460.349,85.206a86.859,86.859,0,0,1-10.174-18.228,104.189,104.189,0,0,1-5.424-20.45c-.139-.784-1.617-.623-1.586.186a65.534,65.534,0,0,0,4.68,20.843,74.01,74.01,0,0,0,10.386,18.767c.85,1.092,3.017.146,2.118-1.118" transform="translate(-358.567 -37.232)" fill="#e7dfd6"/>
            <path id="Trazado_884072" data-name="Trazado 884072" d="M367.977,78.46a82.581,82.581,0,0,1-15.559-17.454,72.405,72.405,0,0,1-5.7-10.3c-1.628-3.566-2.829-7.295-4.348-10.9a.818.818,0,0,0-1.575.377,44.755,44.755,0,0,0,3.826,11.389,88.844,88.844,0,0,0,5.726,10.517,76.881,76.881,0,0,0,15.86,17.964c1.117.932,2.994-.572,1.766-1.6" transform="translate(-275.733 -31.801)" fill="#e7dfd6"/>
            <path id="Trazado_884073" data-name="Trazado 884073" d="M256.861,97.971c-7.543-5.627-15-11.351-22.2-17.422q-5.337-4.5-10.458-9.258c-2.952-2.754-5.784-5.943-6.526-10.046-.133-.737-1.479-.572-1.48.173-.005,4.061,2.531,7.284,5.248,10.063,3.359,3.435,7.06,6.58,10.7,9.712,7.427,6.391,15.138,12.468,22.977,18.345,1.133.849,2.988-.63,1.734-1.566" transform="translate(-174.93 -49.168)" fill="#e7dfd6"/>
            <path id="Trazado_884074" data-name="Trazado 884074" d="M483.122,56.153a100.757,100.757,0,0,0-4.8,10.035c-1.546,3.45-3.1,6.9-4.7,10.318-.585,1.247,1.735,1.818,2.261.56,1.4-3.348,2.846-6.674,4.3-10a100.9,100.9,0,0,0,4.275-10.431c.231-.743-.981-1.088-1.336-.484" transform="translate(-383.132 -45.184)" fill="#e7dfd6"/>
            <path id="Trazado_884075" data-name="Trazado 884075" d="M51.336,112.013a52.509,52.509,0,0,1-11.265.287,49.15,49.15,0,0,1-11.16-2.583c-.548-.189-1.022.62-.433.882a40.513,40.513,0,0,0,23.082,2.887.746.746,0,0,0-.224-1.472" transform="translate(-22.822 -88.749)" fill="#e88452"/>
            <path id="Trazado_884076" data-name="Trazado 884076" d="M44.047,175.409a56.259,56.259,0,0,1-19.655-.061c-.559-.1-.866.651-.254.783a53.178,53.178,0,0,0,20.269.417c.868-.149.446-1.28-.36-1.139" transform="translate(-19.259 -141.868)" fill="#e88452"/>
            <path id="Trazado_884077" data-name="Trazado 884077" d="M120.034,250.028a70.456,70.456,0,0,1-9.207.237,63.4,63.4,0,0,1-9.749-1.409c-.6-.13-.9.643-.269.832a44.974,44.974,0,0,0,19.4,1.475c.739-.115.538-1.185-.176-1.134" transform="translate(-81.283 -201.338)" fill="#e88452"/>
          </g>
        </g>
      </g>
    </g>
  </g>
</svg>
