<svg xmlns="http://www.w3.org/2000/svg" xmlns:xlink="http://www.w3.org/1999/xlink" width="65" height="65" viewBox="0 0 65 65">
  <defs>
    <clipPath id="clip-path">
      <rect id="Rectángulo_402683" data-name="Rectángulo 402683" width="45.994" height="43.669" fill="#12263f"/>
    </clipPath>
  </defs>
  <g id="Grupo_1101579" data-name="Grupo 1101579" transform="translate(-830.051 -4089)">
    <circle id="Elipse_11715" data-name="Elipse 11715" cx="32.5" cy="32.5" r="32.5" transform="translate(830.051 4089)" fill="#d7f38d"/>
    <g id="Grupo_1101550" data-name="Grupo 1101550" transform="translate(839.554 4099.666)">
      <g id="Grupo_1101549" data-name="Grupo 1101549" transform="translate(0 0)" clip-path="url(#clip-path)">
        <path id="Trazado_880974" data-name="Trazado 880974" d="M54.145,53.525l-.231-.115A32.8,32.8,0,0,1,48,49.419c-3.922-3.333-6-6.938-6-10.424,0-3.544,2.759-7.493,6.718-7.493a7.135,7.135,0,0,1,5.426,2.731A7.135,7.135,0,0,1,59.571,31.5c3.959,0,6.718,3.949,6.718,7.493,0,3.486-2.073,7.091-6,10.424a32.763,32.763,0,0,1-5.918,3.992ZM48.718,32.535c-3.254,0-5.685,3.411-5.685,6.46,0,7.106,9.5,12.5,11.111,13.37,1.615-.866,11.111-6.264,11.111-13.37,0-3.049-2.431-6.46-5.685-6.46A6.129,6.129,0,0,0,54.58,35.4l-.435.681-.436-.681a6.131,6.131,0,0,0-4.991-2.862" transform="translate(-20.295 -15.221)" fill="#12263f"/>
        <path id="Trazado_880975" data-name="Trazado 880975" d="M30.569,4.135h-.053A2.068,2.068,0,0,1,28.5,2.016,2.08,2.08,0,0,1,30.619,0,2.068,2.068,0,0,1,32.634,2.12a2.067,2.067,0,0,1-2.065,2.015m0-3.1A1.034,1.034,0,0,0,30.541,3.1a1.014,1.014,0,0,0,.738-.284,1.034,1.034,0,0,0-.686-1.783h-.026" transform="translate(-13.771 0)" fill="#12263f"/>
        <path id="Trazado_880976" data-name="Trazado 880976" d="M9.569,4.135H9.515A2.067,2.067,0,0,1,9.567,0h.053A2.068,2.068,0,0,1,11.634,2.12,2.067,2.067,0,0,1,9.569,4.135m0-3.1A1.034,1.034,0,0,0,9.541,3.1a1.014,1.014,0,0,0,.738-.284,1.034,1.034,0,0,0-.686-1.783H9.567" transform="translate(-3.624 0)" fill="#12263f"/>
        <path id="Trazado_880977" data-name="Trazado 880977" d="M12.87,29.126c-3.991,0-7.936-.5-9.765-4.162L4.03,24.5c1.291,2.583,3.77,3.59,8.84,3.59,4.154,0,7.3-1.295,8.872-3.646l.86.574c-1.765,2.648-5.221,4.106-9.732,4.106" transform="translate(-1.5 -11.812)" fill="#12263f"/>
        <path id="Trazado_880978" data-name="Trazado 880978" d="M11.369,22.649c-5.469,0-9.093-6.7-9.765-8.038A19.913,19.913,0,0,1,0,6.628C0,3.91,4.116,3.056,4.291,3.021l.2,1.013c-.035.007-3.461.751-3.461,2.594a19.109,19.109,0,0,0,1.5,7.521c1.722,3.444,5.071,7.466,8.84,7.466s7.118-4.022,8.84-7.466a19.109,19.109,0,0,0,1.5-7.521c0-1.843-3.426-2.587-3.461-2.594l.2-1.013c.175.035,4.291.889,4.291,3.607a19.913,19.913,0,0,1-1.6,7.983c-.671,1.342-4.3,8.038-9.765,8.038" transform="translate(0 -1.46)" fill="#12263f"/>
        <path id="Trazado_880979" data-name="Trazado 880979" d="M25.591,62.955c-6.276,0-9.1-4.253-11.17-7.359l-.189-.284q-.071.586-.17,1.169c-.128.758-.847,3.241-4.733,3.372a3.793,3.793,0,0,1-3.515-2.5A4.887,4.887,0,0,1,6.621,52,4.292,4.292,0,0,1,10,50.5a5.374,5.374,0,0,1,3.416,2c.067-1.7.029-3.416-.007-5.1a59.148,59.148,0,0,1,.156-7.494l1.028.109a58.386,58.386,0,0,0-.15,7.363c.045,2.079.091,4.207-.056,6.324.29.4.586.848.9,1.317,2.043,3.073,4.587,6.9,10.309,6.9,6.522,0,11.089-14.224,11.135-14.367l.986.311c-.194.616-4.849,15.09-12.12,15.09M9.728,51.526a3.413,3.413,0,0,0-2.376,1.2,3.85,3.85,0,0,0-.59,4.211A2.745,2.745,0,0,0,9.294,58.82c3.1-.1,3.654-1.948,3.749-2.511.128-.759.218-1.526.28-2.3-1.181-1.56-2.327-2.394-3.408-2.479-.063-.005-.126-.007-.188-.007" transform="translate(-2.594 -19.285)" fill="#12263f"/>
        <path id="Trazado_880980" data-name="Trazado 880980" d="M65.842,52.186a2.842,2.842,0,1,1,2.842-2.842,2.845,2.845,0,0,1-2.842,2.842m0-4.651a1.809,1.809,0,1,0,1.809,1.809,1.811,1.811,0,0,0-1.809-1.809" transform="translate(-30.442 -22.47)" fill="#12263f"/>
      </g>
    </g>
  </g>
</svg>
