<svg xmlns="http://www.w3.org/2000/svg" xmlns:xlink="http://www.w3.org/1999/xlink" width="65" height="65" viewBox="0 0 65 65">
  <defs>
    <clipPath id="clip-path">
      <rect id="Rectángulo_402694" data-name="Rectángulo 402694" width="43" height="43" fill="#12263f"/>
    </clipPath>
  </defs>
  <g id="Grupo_1101573" data-name="Grupo 1101573" transform="translate(-198.051 -4448)">
    <path id="Trazado_882298" data-name="Trazado 882298" d="M32.5,0A32.5,32.5,0,1,1,0,32.5,32.5,32.5,0,0,1,32.5,0Z" transform="translate(198.051 4448)" fill="#d7f38d"/>
    <g id="Grupo_1101566" data-name="Grupo 1101566" transform="translate(210.051 4455.73)">
      <g id="Grupo_1101565" data-name="Grupo 1101565" transform="translate(0 0.27)" clip-path="url(#clip-path)">
        <path id="Trazado_881029" data-name="Trazado 881029" d="M46.705,51.483a.45.45,0,0,1-.246-.073A7.358,7.358,0,0,0,43.079,50.3,7.353,7.353,0,0,0,39.7,51.41a.453.453,0,0,1-.495-.76A8.171,8.171,0,0,1,43.079,49.4a8.167,8.167,0,0,1,3.874,1.254.453.453,0,0,1-.248.833" transform="translate(-21.323 -27.25)" fill="#12263f"/>
        <path id="Trazado_881030" data-name="Trazado 881030" d="M55.36,35.626c-.762,0-1.36-.8-1.36-1.813S54.6,32,55.36,32s1.36.8,1.36,1.813-.6,1.813-1.36,1.813m0-2.72c-.185,0-.453.353-.453.907s.268.907.453.907.453-.353.453-.907-.268-.907-.453-.907" transform="translate(-29.524 -17.739)" fill="#12263f"/>
        <path id="Trazado_881031" data-name="Trazado 881031" d="M37.36,35.626c-.762,0-1.36-.8-1.36-1.813S36.6,32,37.36,32s1.36.8,1.36,1.813-.6,1.813-1.36,1.813m0-2.72c-.185,0-.453.353-.453.907s.268.907.453.907.453-.353.453-.907-.268-.907-.453-.907" transform="translate(-19.683 -17.739)" fill="#12263f"/>
        <path id="Trazado_881032" data-name="Trazado 881032" d="M35.453,28.359a.453.453,0,0,1-.074-.9l2.72-.453a.453.453,0,0,1,.15.894l-2.72.453a.429.429,0,0,1-.075.006" transform="translate(-19.136 -15.005)" fill="#12263f"/>
        <path id="Trazado_881033" data-name="Trazado 881033" d="M56.173,28.36a.429.429,0,0,1-.075-.006l-2.72-.453a.453.453,0,0,1,.15-.894l2.72.453a.453.453,0,0,1-.074.9" transform="translate(-28.978 -15.005)" fill="#12263f"/>
        <path id="Trazado_881034" data-name="Trazado 881034" d="M43.512,84.063H0V83.61a8.168,8.168,0,0,1,8.108-8.159l5.351-1.189a.453.453,0,0,1,.2.885l-5.5,1.211a7.262,7.262,0,0,0-7.238,6.8H42.592a7.262,7.262,0,0,0-7.238-6.8l-.1-.012L29.8,75.063A.453.453,0,0,1,30,74.18l5.4,1.271a8.168,8.168,0,0,1,8.105,8.159Z" transform="translate(0 -40.794)" fill="#12263f"/>
        <path id="Trazado_881035" data-name="Trazado 881035" d="M69.307,36.346c-.047,0-.094,0-.141-.007a.469.469,0,0,1-.433-.488.44.44,0,0,1,.467-.419l.04,0c.022,0,.044,0,.067,0a2.08,2.08,0,0,0,1.813-2.266,2.08,2.08,0,0,0-1.813-2.266.453.453,0,1,1,0-.907,2.976,2.976,0,0,1,2.72,3.173,2.976,2.976,0,0,1-2.72,3.173" transform="translate(-37.579 -16.645)" fill="#12263f"/>
        <path id="Trazado_881036" data-name="Trazado 881036" d="M22.72,36.346A2.976,2.976,0,0,1,20,33.173,2.976,2.976,0,0,1,22.72,30a.453.453,0,1,1,0,.907,2.08,2.08,0,0,0-1.813,2.266,2.08,2.08,0,0,0,1.813,2.266.453.453,0,0,1,0,.907" transform="translate(-10.935 -16.645)" fill="#12263f"/>
        <path id="Trazado_881037" data-name="Trazado 881037" d="M35.453,52.631c-5.467,0-10.036-5.752-10.4-13.095a.453.453,0,0,1,.905-.045c.341,6.86,4.512,12.233,9.5,12.233s9.155-5.373,9.5-12.233a.453.453,0,0,1,.905.045c-.365,7.343-4.934,13.095-10.4,13.095" transform="translate(-13.697 -21.599)" fill="#12263f"/>
        <path id="Trazado_881038" data-name="Trazado 881038" d="M44.85,14.5a.471.471,0,0,1-.142-.023.453.453,0,0,1-.288-.573,15.019,15.019,0,0,0,.43-4.022,8.337,8.337,0,0,0-2.4-6.078,10.661,10.661,0,0,0-7.573-2.9c-6.151,0-9.972,3.439-9.972,8.975a14.3,14.3,0,0,0,.431,4.029.454.454,0,0,1-.863.279A14.94,14.94,0,0,1,24,9.882C24,3.787,28.168,0,34.878,0a11.572,11.572,0,0,1,8.215,3.17,9.216,9.216,0,0,1,2.662,6.715,15.46,15.46,0,0,1-.476,4.308.454.454,0,0,1-.43.311" transform="translate(-13.122 -0.244)" fill="#12263f"/>
        <path id="Trazado_881039" data-name="Trazado 881039" d="M45.584,19.784a.454.454,0,0,1-.431-.315c-.207-.642-.31-.911-.36-1.023a19.047,19.047,0,0,0-1.3-2.144,7.775,7.775,0,0,1-3.111.758,9.131,9.131,0,0,1-3.82-.94l1.256,2.265a.453.453,0,0,1-.332.668,13.026,13.026,0,0,1-4.667-.286,13.275,13.275,0,0,1-3.624-1.807,15.188,15.188,0,0,0-.96,1.511,6.269,6.269,0,0,0-.349.895.453.453,0,0,1-.861-.284,7.215,7.215,0,0,1,.407-1.033,18.592,18.592,0,0,1,1.294-1.989.454.454,0,0,1,.634-.093,13.559,13.559,0,0,0,3.691,1.924,12.024,12.024,0,0,0,3.635.324l-1.648-2.974a.453.453,0,0,1,.635-.605,10.6,10.6,0,0,0,4.684,1.517,6.755,6.755,0,0,0,3.043-.829.454.454,0,0,1,.609.126,23.571,23.571,0,0,1,1.613,2.623c.088.2.218.561.4,1.116a.454.454,0,0,1-.431.592" transform="translate(-14.762 -8.209)" fill="#12263f"/>
        <path id="Trazado_881040" data-name="Trazado 881040" d="M46.36,72.72a1.36,1.36,0,1,1,1.36-1.36,1.361,1.361,0,0,1-1.36,1.36m0-1.813a.453.453,0,1,0,.453.453.454.454,0,0,0-.453-.453" transform="translate(-24.604 -38.515)" fill="#12263f"/>
        <path id="Trazado_881041" data-name="Trazado 881041" d="M44.173,74.532a3.174,3.174,0,0,1-2.992-4.23.453.453,0,0,1,.855.3,2.266,2.266,0,1,0,4.274,0,.453.453,0,1,1,.855-.3,3.175,3.175,0,0,1-2.992,4.231" transform="translate(-22.417 -38.514)" fill="#12263f"/>
        <path id="Trazado_881042" data-name="Trazado 881042" d="M41.986,75.761a4.989,4.989,0,0,1-4.773-6.43.453.453,0,0,1,.868.262,4.079,4.079,0,1,0,7.79-.07.453.453,0,1,1,.863-.278,4.989,4.989,0,0,1-4.746,6.516" transform="translate(-20.23 -37.93)" fill="#12263f"/>
        <path id="Trazado_881043" data-name="Trazado 881043" d="M39.8,76.518a6.8,6.8,0,0,1-6.352-9.227.453.453,0,0,1,.847.323,5.892,5.892,0,1,0,11.01,0,.454.454,0,0,1,.847-.324A6.8,6.8,0,0,1,39.8,76.518" transform="translate(-18.043 -36.875)" fill="#12263f"/>
      </g>
    </g>
  </g>
</svg>
