<svg xmlns="http://www.w3.org/2000/svg" xmlns:xlink="http://www.w3.org/1999/xlink" width="65" height="65" viewBox="0 0 65 65">
  <defs>
    <clipPath id="clip-path">
      <rect id="Rectángulo_402695" data-name="Rectángulo 402695" width="45" height="45" transform="translate(0 -0.051)" fill="#12263f"/>
    </clipPath>
  </defs>
  <g id="Grupo_1101572" data-name="Grupo 1101572" transform="translate(-515.051 -4448)">
    <circle id="Elipse_11717" data-name="Elipse 11717" cx="32.5" cy="32.5" r="32.5" transform="translate(515.051 4448)" fill="#d7f38d"/>
    <g id="Grupo_1101568" data-name="Grupo 1101568" transform="translate(525.051 4458.051)">
      <g id="Grupo_1101567" data-name="Grupo 1101567" clip-path="url(#clip-path)">
        <path id="Trazado_881044" data-name="Trazado 881044" d="M27.765,44.949H17.184a2.793,2.793,0,0,1-2.79-2.789v-11.6H2.79A2.793,2.793,0,0,1,0,27.766V17.183a2.793,2.793,0,0,1,2.79-2.789h11.6V2.789A2.793,2.793,0,0,1,17.184,0H27.765a2.793,2.793,0,0,1,2.79,2.789v11.6h11.6a2.793,2.793,0,0,1,2.79,2.789V27.766a2.793,2.793,0,0,1-2.79,2.789h-11.6v11.6a2.793,2.793,0,0,1-2.79,2.789M2.79,15.4a1.782,1.782,0,0,0-1.78,1.779V27.766a1.782,1.782,0,0,0,1.78,1.779H15.4V42.16a1.782,1.782,0,0,0,1.78,1.779H27.765a1.782,1.782,0,0,0,1.78-1.779V29.545H42.159a1.782,1.782,0,0,0,1.78-1.779V17.183a1.782,1.782,0,0,0-1.78-1.779H29.545V2.789a1.782,1.782,0,0,0-1.78-1.779H17.184A1.782,1.782,0,0,0,15.4,2.789V15.4Z" fill="#12263f"/>
        <path id="Trazado_881045" data-name="Trazado 881045" d="M38.066,45.472l-.276-.18c-.257-.167-6.289-4.158-6.289-8.756A3.347,3.347,0,0,1,35.035,33a4.446,4.446,0,0,1,3.03,1.908A4.444,4.444,0,0,1,41.1,33a3.347,3.347,0,0,1,3.535,3.535c0,4.6-6.033,8.589-6.289,8.756ZM35.035,34.01a2.343,2.343,0,0,0-2.525,2.525c0,3.541,4.4,6.9,5.556,7.72,1.158-.823,5.556-4.184,5.556-7.72A2.343,2.343,0,0,0,41.1,34.01c-.925,0-2.078,1.189-2.6,2.033l-.429.693-.429-.692c-.524-.845-1.677-2.034-2.6-2.034" transform="translate(-15.591 -16.333)" fill="#12263f"/>
      </g>
    </g>
  </g>
</svg>
