<svg xmlns="http://www.w3.org/2000/svg" xmlns:xlink="http://www.w3.org/1999/xlink" width="65" height="65" viewBox="0 0 65 65">
  <defs>
    <clipPath id="clip-path">
      <rect id="Rectángulo_402696" data-name="Rectángulo 402696" width="43" height="43" transform="translate(0 0.497)" fill="#12263f"/>
    </clipPath>
  </defs>
  <g id="Grupo_1101571" data-name="Grupo 1101571" transform="translate(-830.051 -4448)">
    <circle id="Elipse_11718" data-name="Elipse 11718" cx="32.5" cy="32.5" r="32.5" transform="translate(830.051 4448)" fill="#d7f38d"/>
    <g id="Grupo_1101570" data-name="Grupo 1101570" transform="translate(843.084 4456.537)">
      <g id="Grupo_1101569" data-name="Grupo 1101569" transform="translate(-0.034 -0.034)" clip-path="url(#clip-path)">
        <path id="Trazado_881046" data-name="Trazado 881046" d="M32.7,68.4c-1.016,0-1.811-.6-1.811-1.359a2.319,2.319,0,0,1,.427-1.2c.031-.05.06-.1.085-.142.2-.346.384-.933.19-1.158a1.044,1.044,0,0,0-.816-.34c-.3.022-.58.571-.686.954-.014.05-.027.1-.04.161a2.322,2.322,0,0,1-.55,1.153,1.239,1.239,0,0,1-1.143.3,2.324,2.324,0,0,1-1.714-1.714,1.238,1.238,0,0,1,.3-1.143,2.312,2.312,0,0,1,1.153-.549c.057-.014.111-.027.16-.041.384-.106.932-.389.954-.685a1.044,1.044,0,0,0-.34-.817c-.226-.195-.812-.005-1.157.19-.045.025-.092.054-.142.084a2.317,2.317,0,0,1-1.205.427C25.6,62.51,25,61.714,25,60.7s.6-1.811,1.359-1.811a2.317,2.317,0,0,1,1.205.427c.05.03.1.059.142.084.345.2.933.384,1.157.19a1.042,1.042,0,0,0,.34-.816c-.022-.3-.571-.58-.954-.686-.049-.014-.1-.027-.16-.041a2.315,2.315,0,0,1-1.154-.55,1.616,1.616,0,0,1,.32-2.241,2.2,2.2,0,0,1,1.1-.616,1.238,1.238,0,0,1,1.144.3,2.323,2.323,0,0,1,.55,1.153c.014.057.027.111.04.16.106.383.389.932.686.954a1.051,1.051,0,0,0,.816-.34c.194-.225.005-.812-.19-1.158-.026-.045-.054-.092-.085-.143a2.317,2.317,0,0,1-.427-1.2c0-.762.8-1.359,1.811-1.359s1.811.6,1.811,1.359a2.317,2.317,0,0,1-.427,1.206c-.03.05-.059.1-.084.141-.182.322-.394.921-.19,1.158a1.05,1.05,0,0,0,.816.34c.3-.022.579-.571.686-.954.014-.048.026-.1.04-.158a2.314,2.314,0,0,1,.55-1.155,1.239,1.239,0,0,1,1.143-.3,2.2,2.2,0,0,1,1.1.616,1.617,1.617,0,0,1,.32,2.241,2.312,2.312,0,0,1-1.155.55c-.057.014-.11.027-.159.041-.383.106-.932.389-.954.686a1.044,1.044,0,0,0,.34.816c.237.2.836-.009,1.158-.19.044-.025.091-.053.141-.084a2.317,2.317,0,0,1,1.206-.427c.762,0,1.359.8,1.359,1.811s-.6,1.811-1.359,1.811a2.313,2.313,0,0,1-1.206-.428c-.05-.03-.1-.059-.141-.084-.322-.183-.92-.394-1.158-.19a1.044,1.044,0,0,0-.34.817c.022.3.571.579.954.686.049.014.1.026.159.04a2.317,2.317,0,0,1,1.154.55,1.239,1.239,0,0,1,.3,1.143,2.323,2.323,0,0,1-1.714,1.714,1.241,1.241,0,0,1-1.143-.3,2.314,2.314,0,0,1-.55-1.155c-.014-.057-.026-.11-.04-.158-.106-.383-.389-.932-.686-.954a1.032,1.032,0,0,0-.816.339c-.2.237.008.836.19,1.158.024.043.053.09.083.14a2.316,2.316,0,0,1,.428,1.206c0,.762-.8,1.359-1.811,1.359m-1.867-5.11a1.956,1.956,0,0,1,1.443.656c.664.77.043,1.964-.088,2.2-.029.052-.063.108-.1.167a1.561,1.561,0,0,0-.3.734c0,.18.361.453.906.453s.906-.269.906-.453a1.567,1.567,0,0,0-.3-.736c-.035-.058-.069-.113-.1-.164-.131-.232-.751-1.427-.087-2.2a1.944,1.944,0,0,1,1.568-.651c1.014.074,1.421,1.359,1.492,1.615.016.058.031.12.048.186a1.561,1.561,0,0,0,.31.729.374.374,0,0,0,.326.048,1.428,1.428,0,0,0,1-1,.375.375,0,0,0-.048-.325,1.562,1.562,0,0,0-.729-.311c-.067-.016-.13-.031-.187-.048-.257-.071-1.541-.477-1.615-1.492a1.948,1.948,0,0,1,.651-1.568c.769-.665,1.964-.044,2.2.087.052.029.107.063.165.1a1.557,1.557,0,0,0,.735.3c.185,0,.453-.353.453-.906s-.268-.906-.453-.906a1.561,1.561,0,0,0-.735.3c-.058.035-.114.069-.165.1-.232.131-1.427.75-2.2.087a1.949,1.949,0,0,1-.651-1.569c.075-1.014,1.359-1.421,1.615-1.492.058-.016.12-.031.187-.048a1.561,1.561,0,0,0,.729-.311c.13-.13.071-.57-.321-.961a1.3,1.3,0,0,0-.635-.368.37.37,0,0,0-.325.048,1.566,1.566,0,0,0-.31.729c-.016.067-.031.129-.048.186-.072.257-.478,1.541-1.492,1.616a1.952,1.952,0,0,1-1.568-.651c-.664-.769-.044-1.964.086-2.2.029-.052.063-.107.1-.166a1.562,1.562,0,0,0,.3-.735c0-.185-.353-.453-.906-.453s-.906.273-.906.453a1.557,1.557,0,0,0,.295.733c.036.059.07.115.1.168.131.231.751,1.425.088,2.195a1.959,1.959,0,0,1-1.569.651c-1.016-.074-1.421-1.359-1.492-1.615-.016-.057-.032-.12-.048-.187a1.558,1.558,0,0,0-.31-.728.368.368,0,0,0-.325-.048,1.305,1.305,0,0,0-.635.368c-.391.391-.451.83-.32.961a1.558,1.558,0,0,0,.728.311c.067.016.13.032.187.048.256.071,1.541.477,1.615,1.492a1.949,1.949,0,0,1-.651,1.568c-.769.664-1.964.043-2.2-.087-.052-.029-.107-.063-.166-.1a1.558,1.558,0,0,0-.735-.3c-.185,0-.453.353-.453.906s.268.906.453.906a1.559,1.559,0,0,0,.735-.3c.059-.036.114-.069.166-.1.231-.131,1.424-.753,2.2-.087a1.948,1.948,0,0,1,.651,1.568c-.074,1.015-1.359,1.421-1.615,1.492-.057.016-.12.031-.187.048a1.559,1.559,0,0,0-.728.311.373.373,0,0,0-.048.325,1.427,1.427,0,0,0,1,1,.373.373,0,0,0,.325-.048,1.559,1.559,0,0,0,.311-.729c.016-.067.032-.13.048-.187.071-.256.476-1.541,1.492-1.615.041,0,.083,0,.125,0" transform="translate(-13.656 -28.976)" fill="#12263f"/>
        <path id="Trazado_881047" data-name="Trazado 881047" d="M39.453,67.908a.451.451,0,0,1-.172-.036.529.529,0,0,1-.149-.1.431.431,0,0,1-.054-.072.478.478,0,0,1-.067-.163.556.556,0,0,1-.01-.086.468.468,0,0,1,.131-.322.529.529,0,0,1,.149-.1.452.452,0,0,1,.494.1l.054.068a.343.343,0,0,1,.041.082.274.274,0,0,1,.027.082.613.613,0,0,1,.009.091.555.555,0,0,1-.009.086.262.262,0,0,1-.027.086.252.252,0,0,1-.041.077c-.018.027-.036.05-.054.072a.474.474,0,0,1-.322.131" transform="translate(-21.316 -36.637)" fill="#12263f"/>
        <path id="Trazado_881048" data-name="Trazado 881048" d="M43.453,66.907a.451.451,0,0,1-.172-.036.529.529,0,0,1-.149-.1A.476.476,0,0,1,43,66.454a.451.451,0,0,1,.036-.172.467.467,0,0,1,.1-.149.672.672,0,0,1,.149-.1.464.464,0,0,1,.494.1.453.453,0,0,1-.322.774" transform="translate(-23.504 -36.089)" fill="#12263f"/>
        <path id="Trazado_881049" data-name="Trazado 881049" d="M42.453,72.906a.451.451,0,0,1-.172-.036.46.46,0,0,1-.149-.1.441.441,0,0,1-.1-.489.423.423,0,0,1,.1-.149.529.529,0,0,1,.149-.1.415.415,0,0,1,.344,0,.523.523,0,0,1,.149.1.474.474,0,0,1,.131.322.455.455,0,0,1-.131.317.409.409,0,0,1-.149.1.449.449,0,0,1-.172.036" transform="translate(-22.957 -39.371)" fill="#12263f"/>
        <path id="Trazado_881050" data-name="Trazado 881050" d="M45.453,69.908a.455.455,0,0,1-.322-.774.452.452,0,0,1,.494-.1.523.523,0,0,1,.149.1.459.459,0,0,1,0,.643.523.523,0,0,1-.149.1.449.449,0,0,1-.172.036" transform="translate(-24.599 -37.732)" fill="#12263f"/>
        <path id="Trazado_881051" data-name="Trazado 881051" d="M37.453,70.915A.456.456,0,0,1,37,70.462a.451.451,0,0,1,.036-.172.423.423,0,0,1,.1-.149.474.474,0,0,1,.643,0,.423.423,0,0,1,.1.149.442.442,0,0,1,.036.172.456.456,0,0,1-.453.453" transform="translate(-20.221 -38.285)" fill="#12263f"/>
        <path id="Trazado_881052" data-name="Trazado 881052" d="M16.811,12.623a1.811,1.811,0,1,1,1.811-1.811,1.813,1.813,0,0,1-1.811,1.811m0-2.717a.906.906,0,1,0,.906.906.907.907,0,0,0-.906-.906" transform="translate(-8.184 -4.901)" fill="#12263f"/>
        <path id="Trazado_881053" data-name="Trazado 881053" d="M18.453,7.811A.453.453,0,0,1,18,7.359V6.453a.453.453,0,1,1,.906,0v.906a.453.453,0,0,1-.453.453" transform="translate(-9.826 -3.26)" fill="#12263f"/>
        <path id="Trazado_881054" data-name="Trazado 881054" d="M18.359,5.906h-.906a.453.453,0,0,1,0-.906h.906a.453.453,0,0,1,0,.906" transform="translate(-9.279 -2.713)" fill="#12263f"/>
        <path id="Trazado_881055" data-name="Trazado 881055" d="M18.453,17.811A.453.453,0,0,1,18,17.359v-.906a.453.453,0,1,1,.906,0v.906a.453.453,0,0,1-.453.453" transform="translate(-9.826 -8.731)" fill="#12263f"/>
        <path id="Trazado_881056" data-name="Trazado 881056" d="M18.359,19.906h-.906a.453.453,0,0,1,0-.906h.906a.453.453,0,1,1,0,.906" transform="translate(-9.279 -10.373)" fill="#12263f"/>
        <path id="Trazado_881057" data-name="Trazado 881057" d="M14.851,9.3a.452.452,0,0,1-.32-.133l-.64-.64a.453.453,0,1,1,.64-.64l.64.64a.453.453,0,0,1-.32.773" transform="translate(-7.505 -4.221)" fill="#12263f"/>
        <path id="Trazado_881058" data-name="Trazado 881058" d="M12.8,7.889a.453.453,0,0,1-.32-.773l.64-.64a.453.453,0,1,1,.64.64l-.64.64a.452.452,0,0,1-.32.133" transform="translate(-6.731 -3.448)" fill="#12263f"/>
        <path id="Trazado_881059" data-name="Trazado 881059" d="M21.922,16.375a.452.452,0,0,1-.32-.133l-.64-.641a.453.453,0,1,1,.64-.64l.64.641a.453.453,0,0,1-.32.773" transform="translate(-11.373 -8.09)" fill="#12263f"/>
        <path id="Trazado_881060" data-name="Trazado 881060" d="M22.7,17.789a.453.453,0,0,1-.32-.773l.64-.64a.453.453,0,1,1,.64.64l-.64.64a.452.452,0,0,1-.32.133" transform="translate(-12.147 -8.864)" fill="#12263f"/>
        <path id="Trazado_881061" data-name="Trazado 881061" d="M13.359,12.906h-.906a.453.453,0,0,1,0-.906h.906a.453.453,0,0,1,0,.906" transform="translate(-6.543 -6.543)" fill="#12263f"/>
        <path id="Trazado_881062" data-name="Trazado 881062" d="M11.453,12.811A.453.453,0,0,1,11,12.359v-.906a.453.453,0,1,1,.906,0v.906a.453.453,0,0,1-.453.453" transform="translate(-5.996 -5.996)" fill="#12263f"/>
        <path id="Trazado_881063" data-name="Trazado 881063" d="M23.359,12.906h-.906a.453.453,0,1,1,0-.906h.906a.453.453,0,0,1,0,.906" transform="translate(-12.014 -6.543)" fill="#12263f"/>
        <path id="Trazado_881064" data-name="Trazado 881064" d="M25.453,12.811A.453.453,0,0,1,25,12.359v-.906a.453.453,0,1,1,.906,0v.906a.453.453,0,0,1-.453.453" transform="translate(-13.656 -5.996)" fill="#12263f"/>
        <path id="Trazado_881065" data-name="Trazado 881065" d="M14.211,16.375a.453.453,0,0,1-.32-.773l.64-.641a.453.453,0,0,1,.64.64l-.64.641a.452.452,0,0,1-.32.133" transform="translate(-7.505 -8.09)" fill="#12263f"/>
        <path id="Trazado_881066" data-name="Trazado 881066" d="M13.437,17.789a.452.452,0,0,1-.32-.133l-.64-.64a.453.453,0,1,1,.64-.64l.64.64a.453.453,0,0,1-.32.773" transform="translate(-6.731 -8.864)" fill="#12263f"/>
        <path id="Trazado_881067" data-name="Trazado 881067" d="M21.282,9.3a.453.453,0,0,1-.32-.773l.64-.64a.453.453,0,0,1,.64.64l-.64.64a.452.452,0,0,1-.32.133" transform="translate(-11.373 -4.221)" fill="#12263f"/>
        <path id="Trazado_881068" data-name="Trazado 881068" d="M23.336,7.889a.452.452,0,0,1-.32-.133l-.64-.64a.453.453,0,0,1,.64-.64l.64.64a.453.453,0,0,1-.32.773" transform="translate(-12.147 -3.448)" fill="#12263f"/>
        <path id="Trazado_881069" data-name="Trazado 881069" d="M37.587,62.624H.453A.453.453,0,0,1,0,62.171v-23.1a.453.453,0,0,1,.453-.453H6.124l1.335-3.338A.453.453,0,0,1,7.88,35H20.2a.453.453,0,0,1,.42.285l1.335,3.338H37.587a.453.453,0,0,1,.453.453v23.1a.453.453,0,0,1-.453.453M.906,61.719H37.134V39.529H21.647a.453.453,0,0,1-.421-.285l-1.335-3.338H8.186L6.851,39.244a.453.453,0,0,1-.421.284H.906Z" transform="translate(0.023 -19.127)" fill="#12263f"/>
        <path id="Trazado_881070" data-name="Trazado 881070" d="M76.6,51.1a.453.453,0,0,1-.447-.526l3.537-21.664H68.453a.453.453,0,0,1,0-.906H80.227a.453.453,0,0,1,.447.526l-3.623,22.19a.453.453,0,0,1-.447.38" transform="translate(-37.183 -15.297)" fill="#12263f"/>
        <path id="Trazado_881071" data-name="Trazado 881071" d="M52.34,9.057H46.453A.453.453,0,0,1,46,8.6V.453a.453.453,0,0,1,.906,0v7.7H52.34a.453.453,0,1,1,0,.906" transform="translate(-25.146 0.023)" fill="#12263f"/>
        <path id="Trazado_881072" data-name="Trazado 881072" d="M35.434,6.906H30.453a.453.453,0,1,1,0-.906h4.981a.453.453,0,1,1,0,.906" transform="translate(-16.391 -3.26)" fill="#12263f"/>
        <path id="Trazado_881073" data-name="Trazado 881073" d="M35.434,12.906H30.453a.453.453,0,1,1,0-.906h4.981a.453.453,0,1,1,0,.906" transform="translate(-16.391 -6.543)" fill="#12263f"/>
        <path id="Trazado_881074" data-name="Trazado 881074" d="M35.434,18.906H30.453a.453.453,0,1,1,0-.906h4.981a.453.453,0,1,1,0,.906" transform="translate(-16.391 -9.826)" fill="#12263f"/>
        <path id="Trazado_881075" data-name="Trazado 881075" d="M33.19,24.906H11.453a.453.453,0,1,1,0-.906H33.19a.453.453,0,1,1,0,.906" transform="translate(-5.996 -13.109)" fill="#12263f"/>
        <path id="Trazado_881076" data-name="Trazado 881076" d="M33.19,30.906H11.453a.453.453,0,1,1,0-.906H33.19a.453.453,0,1,1,0,.906" transform="translate(-5.996 -16.391)" fill="#12263f"/>
        <path id="Trazado_881077" data-name="Trazado 881077" d="M53.981,36.906H49.453a.453.453,0,0,1,0-.906h4.529a.453.453,0,0,1,0,.906" transform="translate(-26.787 -19.674)" fill="#12263f"/>
        <path id="Trazado_881078" data-name="Trazado 881078" d="M32.719,18.567a.453.453,0,0,1-.453-.453V8.792L24.38.906H6.906V18.114a.453.453,0,0,1-.906,0V.453A.453.453,0,0,1,6.453,0H24.567a.451.451,0,0,1,.32.133l8.151,8.151a.452.452,0,0,1,.133.32v9.51a.453.453,0,0,1-.453.453" transform="translate(-3.26 0.023)" fill="#12263f"/>
      </g>
    </g>
  </g>
</svg>
