<svg xmlns="http://www.w3.org/2000/svg" width="60.4" height="61.25" viewBox="0 0 60.4 61.25">
  <g id="reshot-icon-bell-VQHG73LEAS" transform="translate(-3.555)">
    <circle id="Elipse_11719" data-name="Elipse 11719" cx="10.962" cy="10.962" r="10.962" transform="translate(22.792 38.298)" fill="#ffc850"/>
    <path id="Trazado_881079" data-name="Trazado 881079" d="M186.291,331.105a10.963,10.963,0,1,0-21.421,3.289h.006a10.926,10.926,0,0,0,14.289,6.969,10.962,10.962,0,0,1-5.979-5.426,1.09,1.09,0,0,1,1-1.543h11.6A10.953,10.953,0,0,0,186.291,331.105Z" transform="translate(-141.575 -281.845)" fill="#eab049"/>
    <path id="Trazado_881080" data-name="Trazado 881080" d="M69.384,56.824H13.231a1.1,1.1,0,0,1-1.04-1.443l3.454-10.361a8.772,8.772,0,0,0,.45-2.773V33.8A25.213,25.213,0,0,1,41.307,8.591h0A25.213,25.213,0,0,1,66.52,33.8v8.443a8.769,8.769,0,0,0,.45,2.773l3.454,10.361A1.1,1.1,0,0,1,69.384,56.824Z" transform="translate(-7.553 -7.563)" fill="#ffdc64"/>
    <path id="Trazado_881081" data-name="Trazado 881081" d="M27.1,55.381l2.57-10.362A11.551,11.551,0,0,0,30,42.246V33.8c0-12.466,6.735-22.811,15.58-24.844A25.2,25.2,0,0,0,16.095,33.8v8.443a8.768,8.768,0,0,1-.45,2.773L12.191,55.381a1.1,1.1,0,0,0,1.04,1.443H27.873C27.316,56.824,26.923,56.091,27.1,55.381Z" transform="translate(-7.553 -7.563)" fill="#ffc850"/>
    <path id="Trazado_881082" data-name="Trazado 881082" d="M63.846,47.493,60.392,37.131a7.726,7.726,0,0,1-.4-2.448V26.24a26.24,26.24,0,0,0-52.481,0v8.443a7.729,7.729,0,0,1-.4,2.448L3.663,47.493a2.124,2.124,0,0,0,2.015,2.8H21.809a11.989,11.989,0,0,0,23.89,0H61.831a2.124,2.124,0,0,0,2.015-2.8Zm-30.091,11.7a9.948,9.948,0,0,1-9.881-8.907H43.635A9.948,9.948,0,0,1,33.754,59.195ZM61.886,48.2a.062.062,0,0,1-.056.028H5.678a.069.069,0,0,1-.065-.09L9.067,37.781a9.778,9.778,0,0,0,.5-3.1V26.24a24.185,24.185,0,1,1,48.37,0v8.443a9.774,9.774,0,0,0,.5,3.1L61.9,48.142A.063.063,0,0,1,61.886,48.2Z"/>
    <path id="Trazado_881083" data-name="Trazado 881083" d="M248.437,444.087a7.616,7.616,0,0,0,5.668-2.535,1.028,1.028,0,0,0-1.531-1.371,5.559,5.559,0,0,1-4.137,1.85,1.028,1.028,0,1,0,0,2.055Z" transform="translate(-214.682 -387.222)"/>
    <path id="Trazado_881084" data-name="Trazado 881084" d="M62.631,229.083a1.028,1.028,0,0,0-1.028,1.028v6.25a12.1,12.1,0,0,1-.622,3.835l-.915,2.745a1.028,1.028,0,1,0,1.95.65l.915-2.745a14.159,14.159,0,0,0,.728-4.485v-6.25A1.028,1.028,0,0,0,62.631,229.083Z" transform="translate(-49.704 -201.678)"/>
    <path id="Trazado_881085" data-name="Trazado 881085" d="M359.048,76.1a1.028,1.028,0,1,0-1.3,1.592A19.784,19.784,0,0,1,364.8,89.9a1.028,1.028,0,0,0,1.014.866,1.048,1.048,0,0,0,.163-.013,1.028,1.028,0,0,0,.853-1.177A21.836,21.836,0,0,0,359.048,76.1Z" transform="translate(-311.489 -66.791)"/>
    <path id="Trazado_881086" data-name="Trazado 881086" d="M315.265,50.042a21.881,21.881,0,0,0-2.3-1.075,1.028,1.028,0,0,0-.76,1.91,19.8,19.8,0,0,1,2.085.974,1.028,1.028,0,0,0,.977-1.808Z" transform="translate(-271.155 -43.044)"/>
  </g>
</svg>
