<svg xmlns="http://www.w3.org/2000/svg" width="63" height="63" viewBox="0 0 63 63">
  <g id="Grupo_1101586" data-name="Grupo 1101586" transform="translate(16302 8349.73)">
    <circle id="Elipse_11616" data-name="Elipse 11616" cx="31.5" cy="31.5" r="31.5" transform="translate(-16302 -8349.73)" fill="#d7f38d"/>
    <g id="Grupo_1100700" data-name="Grupo 1100700" transform="translate(-16283.672 -8335.395)">
      <path id="Trazado_875095" data-name="Trazado 875095" d="M123.151,100.407H108.53a.667.667,0,0,1-.665-.665h-1.994V123.8h19.937V99.742h-1.994A.667.667,0,0,1,123.151,100.407Z" transform="translate(-102.549 -93.113)" fill="#fff69b" fill-rule="evenodd"/>
      <g id="Grupo_1100409" data-name="Grupo 1100409" transform="translate(0 0)">
        <path id="Trazado_875096" data-name="Trazado 875096" d="M80.461,3.305H77.624a1.33,1.33,0,0,0-1.151-.665H72.42a3.328,3.328,0,0,0-6.512,0H61.853a1.33,1.33,0,0,0-1.151.665H57.866A2,2,0,0,0,55.872,5.3V32.015a2,2,0,0,0,1.994,1.994h22.6a2,2,0,0,0,1.994-1.994V5.3a2,2,0,0,0-1.994-1.994ZM66.505,3.97a.665.665,0,0,0,.665-.665,1.994,1.994,0,0,1,3.988,0,.665.665,0,0,0,.665.665h4.652V6.628H61.853V3.97ZM81.126,32.015a.665.665,0,0,1-.665.665h-22.6a.665.665,0,0,1-.665-.665V5.3a.665.665,0,0,1,.665-.665h2.658V6.628a1.331,1.331,0,0,0,1.329,1.329h14.62A1.331,1.331,0,0,0,77.8,6.628V4.635h2.658a.665.665,0,0,1,.665.665Z" transform="translate(-55.872 0)" fill="#020288"/>
        <path id="Trazado_875097" data-name="Trazado 875097" d="M246.537,41.13a.665.665,0,1,0-.665-.665A.665.665,0,0,0,246.537,41.13Z" transform="translate(-233.245 -37.16)" fill="#020288"/>
        <path id="Trazado_875098" data-name="Trazado 875098" d="M136.537,151.721H138.2v1.661a.665.665,0,0,0,.665.665h3.323a.665.665,0,0,0,.665-.665v-1.661h1.661a.665.665,0,0,0,.665-.665v-3.323a.665.665,0,0,0-.665-.665H142.85v-1.661a.665.665,0,0,0-.665-.665h-3.323a.665.665,0,0,0-.665.665v1.661h-1.661a.665.665,0,0,0-.665.665v3.323A.665.665,0,0,0,136.537,151.721Zm.665-3.323h1.661a.665.665,0,0,0,.665-.665v-1.661h1.994v1.661a.665.665,0,0,0,.665.665h1.661v1.994h-1.661a.665.665,0,0,0-.665.665v1.661h-1.994v-1.661a.665.665,0,0,0-.665-.665H137.2Z" transform="translate(-130.555 -135.124)" fill="#020288"/>
        <path id="Trazado_875099" data-name="Trazado 875099" d="M151.157,406.744h-14.62a.665.665,0,0,0,0,1.329h14.62A.665.665,0,0,0,151.157,406.744Z" transform="translate(-130.555 -379.713)" fill="#020288"/>
        <path id="Trazado_875100" data-name="Trazado 875100" d="M151.157,361.41h-14.62a.665.665,0,0,0,0,1.329h14.62A.665.665,0,0,0,151.157,361.41Z" transform="translate(-130.555 -337.392)" fill="#020288"/>
        <path id="Trazado_875101" data-name="Trazado 875101" d="M151.157,316.077h-14.62a.665.665,0,0,0,0,1.329h14.62A.665.665,0,0,0,151.157,316.077Z" transform="translate(-130.555 -295.071)" fill="#020288"/>
        <path id="Trazado_875102" data-name="Trazado 875102" d="M308.986,250.076H305.6a.665.665,0,0,0,0,1.329h3.389a.665.665,0,0,0,0-1.329Z" transform="translate(-288.385 -233.457)" fill="#020288"/>
        <path id="Trazado_875103" data-name="Trazado 875103" d="M308.986,204.743H305.6a.665.665,0,0,0,0,1.329h3.389a.665.665,0,0,0,0-1.329Z" transform="translate(-288.385 -191.136)" fill="#020288"/>
        <path id="Trazado_875104" data-name="Trazado 875104" d="M308.986,159.409H305.6a.665.665,0,0,0,0,1.329h3.389a.665.665,0,0,0,0-1.329Z" transform="translate(-288.385 -148.815)" fill="#020288"/>
      </g>
    </g>
  </g>
</svg>
