<svg xmlns="http://www.w3.org/2000/svg" width="61.06" height="63.141" viewBox="0 0 61.06 63.141">
  <g id="Grupo_1103642" data-name="Grupo 1103642" transform="translate(0 0)">
    <g id="cinta-adhesiva-azul-aislado-sobre-fondo-blanco_457211-2103" transform="translate(0 0)" fill="#fff">
      <path d="M 30.52982521057129 60.6412239074707 C 26.75523567199707 60.6412239074707 23.09409141540527 59.87699127197266 19.64805793762207 58.36975860595703 C 16.31265830993652 56.91091537475586 13.31525897979736 54.82046890258789 10.73912525177002 52.15651321411133 C 8.15732479095459 49.48670196533203 6.129880905151367 46.37668991088867 4.713114261627197 42.91287994384766 C 3.244602918624878 39.32257080078125 2.500003099441528 35.5064811706543 2.500003099441528 31.57061386108398 C 2.500003099441528 27.63474655151367 3.244602918624878 23.81865882873535 4.713114261627197 20.22834777832031 C 6.129880905151367 16.76453590393066 8.15732479095459 13.65452480316162 10.73912525177002 10.98471355438232 C 13.31525897979736 8.320757865905762 16.31265830993652 6.230324745178223 19.64805793762207 4.771469593048096 C 23.09409141540527 3.264235973358154 26.75524711608887 2.500002861022949 30.52982521057129 2.500002861022949 C 34.30441284179688 2.500002861022949 37.96556854248047 3.264235973358154 41.41159057617188 4.771469593048096 C 44.74700164794922 6.230324745178223 47.74440383911133 8.320757865905762 50.32053756713867 10.98471355438232 C 52.90232467651367 13.65452480316162 54.92977142333984 16.76453590393066 56.34653472900391 20.22834777832031 C 57.81504821777344 23.81865882873535 58.55964660644531 27.63474655151367 58.55964660644531 31.57061386108398 C 58.55964660644531 35.5064811706543 57.81504821777344 39.32257080078125 56.34653472900391 42.91287994384766 C 54.92977142333984 46.37668991088867 52.90232467651367 49.48670196533203 50.32053756713867 52.15651321411133 C 47.74440383911133 54.82046890258789 44.74700164794922 56.91091537475586 41.41159057617188 58.36975860595703 C 37.96556854248047 59.87699127197266 34.30441284179688 60.6412239074707 30.52982521057129 60.6412239074707 Z" stroke="none"/>
      <path d="M 30.52982521057129 5 C 27.1021614074707 5 23.778076171875 5.693737030029297 20.64988708496094 7.061962127685547 C 17.61455154418945 8.389564514160156 14.88472366333008 10.29409027099609 12.53626251220703 12.72261428833008 C 10.17647552490234 15.1628532409668 8.322898864746094 18.00657653808594 7.02703857421875 21.17478942871094 C 5.681987762451172 24.46323776245117 5 27.96090316772461 5 31.57061386108398 C 5 35.18033981323242 5.681987762451172 38.67798614501953 7.02703857421875 41.96643829345703 C 8.322898864746094 45.13466644287109 10.17647552490234 47.97837829589844 12.53626251220703 50.41861343383789 C 14.88472366333008 52.84713745117188 17.61455154418945 54.75166320800781 20.64988708496094 56.07926177978516 C 23.778076171875 57.44748687744141 27.1021614074707 58.14122772216797 30.52982521057129 58.14122772216797 C 33.95748901367188 58.14122772216797 37.28158569335938 57.44748687744141 40.40976333618164 56.07926177978516 C 43.44511413574219 54.75166320800781 46.1749267578125 52.84713745117188 48.52338790893555 50.41861343383789 C 50.88317489624023 47.97838973999023 52.73675155639648 45.13466644287109 54.03261184692383 41.96643829345703 C 55.37766265869141 38.67798614501953 56.05965042114258 35.18033981323242 56.05965042114258 31.57061386108398 C 56.05965042114258 27.96090316772461 55.37766265869141 24.46323776245117 54.03261184692383 21.17478942871094 C 52.73675155639648 18.00657653808594 50.88317489624023 15.1628532409668 48.52338790893555 12.72261428833008 C 46.1749267578125 10.29409027099609 43.44511413574219 8.389564514160156 40.40976333618164 7.061962127685547 C 37.28158569335938 5.693737030029297 33.95748901367188 5 30.52982521057129 5 M 30.52982521057129 0 C 47.39098739624023 0 61.05965042114258 14.13465118408203 61.05965042114258 31.57061386108398 C 61.05965042114258 49.00658798217773 47.39098739624023 63.14122772216797 30.52982521057129 63.14122772216797 C 13.66867446899414 63.14122772216797 0 49.00658798217773 0 31.57061386108398 C 0 14.13465118408203 13.66867446899414 0 30.52982521057129 0 Z" stroke="none" fill="#ffb27e"/>
    </g>
    <g id="bandage_9260497" transform="translate(-32.921 13.025)">
      <g id="Grupo_1103647" data-name="Grupo 1103647" transform="translate(47.88 0.543)">
        <path id="Trazado_884123" data-name="Trazado 884123" d="M189.429,376.674l-8.435,2.421-7.884-2.421V370.09h16.319Z" transform="translate(-164.544 -343.823)" fill="#a3defe"/>
        <path id="Trazado_884124" data-name="Trazado 884124" d="M59.653,186.836l3.652-2.946-1.631-4.87H60.86a5.933,5.933,0,0,0-3.691,1.355,5.767,5.767,0,0,0-2.225,3.21,4.239,4.239,0,0,0,.6,3.095Z" transform="translate(-54.864 -166.594)" fill="#ffcbbe"/>
        <path id="Trazado_884125" data-name="Trazado 884125" d="M66.395,225.313a16.925,16.925,0,0,0-2.234,1.978,4.7,4.7,0,0,0,.527.679l5.341,5.727a.107.107,0,0,0,.14.014l4.115-2.969a.107.107,0,0,0,.038-.123l-2.837-7.746a.107.107,0,0,0-.129-.066,15.712,15.712,0,0,0-4.96,2.508Z" transform="translate(-63.488 -207.203)" fill="#5fc5fc"/>
        <path id="Trazado_884126" data-name="Trazado 884126" d="M134.514,224.157a10.309,10.309,0,0,0,9.528,6.37h1.41a10.31,10.31,0,0,0,9.529-6.37q.193-.469.342-.961a10.291,10.291,0,0,0,.436-2.975V215.3H133.735l3.136,4.542Z" transform="translate(-128.021 -200.247)" fill="#5fc5fc"/>
        <path id="Trazado_884127" data-name="Trazado 884127" d="M155.759,225.625v.73H134.514a10.267,10.267,0,0,1-.779-3.937v-4.641a.107.107,0,0,1,.143-.1l21.444,7.717.365.132A.106.106,0,0,1,155.759,225.625Z" transform="translate(-128.021 -202.444)" fill="#1cacfa"/>
        <path id="Trazado_884128" data-name="Trazado 884128" d="M139.138,47.181h-5.292a.107.107,0,0,1-.107-.107V37.053a2.753,2.753,0,0,1,5.506,0l1.342,3.688-1.342,6.334A.107.107,0,0,1,139.138,47.181Z" transform="translate(-128.025 -32.359)" fill="#ffddcf"/>
        <path id="Trazado_884129" data-name="Trazado 884129" d="M215.139,22.978h-5.292a.107.107,0,0,1-.107-.107V10.253a2.753,2.753,0,1,1,5.506,0v1.941l1.052,3.86-1.052,6.818A.107.107,0,0,1,215.139,22.978Z" transform="translate(-198.52 -7.5)" fill="#ffcbbe"/>
        <path id="Trazado_884130" data-name="Trazado 884130" d="M291.139,47.181h-5.292a.107.107,0,0,1-.107-.107V37.053a2.753,2.753,0,1,1,5.506,0v4.12l1.368,2.664-1.368,3.238A.107.107,0,0,1,291.139,47.181Z" transform="translate(-269.015 -32.359)" fill="#ffddcf"/>
        <path id="Trazado_884131" data-name="Trazado 884131" d="M367.14,99.934h-5.292a.107.107,0,0,1-.107-.107v-5.9a2.753,2.753,0,0,1,5.506,0v5.9A.107.107,0,0,1,367.14,99.934Z" transform="translate(-339.51 -85.111)" fill="#ffcbbe"/>
        <path id="Trazado_884132" data-name="Trazado 884132" d="M144.274,167.786h-19.3a2.269,2.269,0,0,1-2.269-2.269v-1.2a2.269,2.269,0,0,1,2.269-2.269h19.3a2.269,2.269,0,0,1,2.269,2.269v1.2A2.269,2.269,0,0,1,144.274,167.786Z" transform="translate(-117.789 -150.857)" fill="#a3defe"/>
        <path id="Trazado_884133" data-name="Trazado 884133" d="M150.64,279.076l-19.514,3.441a2.012,2.012,0,0,1-2.331-1.632l-.3-1.682a2.012,2.012,0,0,1,1.632-2.331l19.514-3.441a2.012,2.012,0,0,1,2.331,1.632l.3,1.682A2.012,2.012,0,0,1,150.64,279.076Z" transform="translate(-123.135 -254.137)" fill="#a3defe"/>
        <path id="Trazado_884134" data-name="Trazado 884134" d="M173.11,460.974v1.845a1.309,1.309,0,0,0,1.309,1.309h13.7a1.309,1.309,0,0,0,1.309-1.309v-1.845Z" transform="translate(-164.544 -428.123)" fill="#5fc5fc"/>
      </g>
      <path id="Trazado_884135" data-name="Trazado 884135" d="M77.526,22.905l-.243-1.379a2.692,2.692,0,0,0-1.114-1.749l-.007,0V17.367A2.807,2.807,0,0,0,77.178,15.2v-1.2a2.807,2.807,0,0,0-1.017-2.163V9.358a3.294,3.294,0,0,0-5.506-2.444V5.238a3.294,3.294,0,0,0-5.539-2.412,3.3,3.3,0,0,0-6.524,0,3.3,3.3,0,0,0-5.541,2.414v.9a.543.543,0,0,0,1.087,0v-.9a2.21,2.21,0,0,1,4.42,0V11.2H55.064a2.8,2.8,0,0,0-.926.157v-3a.543.543,0,0,0-1.087,0v3.693a2.829,2.829,0,0,0-.475.652,8.175,8.175,0,0,0-3.87,2.3,4.888,4.888,0,0,0-1.371,3.353,4.774,4.774,0,0,0,.8,2.625,5.155,5.155,0,0,0,.552.7l4.088,4.385.206,1.17a2.712,2.712,0,0,0,2.663,2.24c.087,0,.175,0,.262-.013v5.778a1.854,1.854,0,0,0,1.852,1.852h13.7a1.854,1.854,0,0,0,1.852-1.852V27.847a10.846,10.846,0,0,0,1.257-1.668l.762-.134a2.71,2.71,0,0,0,2.2-3.139Zm-2.452-3.58a2.711,2.711,0,0,0-.931,0l-5.992,1.057-6.582-2.369h12.8a2.8,2.8,0,0,0,.708-.091v1.4Zm-25.6,1.614c-.078-.084-.149-.167-.22-.256a16.748,16.748,0,0,1,3.792-2.834v6.192a2.7,2.7,0,0,0-.221.492Zm4.658-3.08a2.8,2.8,0,0,0,.926.157h3.3L66,20.765,54.933,22.716a2.716,2.716,0,0,0-.8.272v-5.13ZM72.865,7.148a2.209,2.209,0,0,1,2.21,2.21v1.929a2.807,2.807,0,0,0-.708-.091H70.655V9.358A2.212,2.212,0,0,1,72.865,7.148Zm-5.506-4.12a2.21,2.21,0,0,1,2.21,2.21V11.2H65.15V5.238a2.212,2.212,0,0,1,2.21-2.21ZM59.644,3.3a2.21,2.21,0,1,1,4.419,0v7.9H59.644Zm14.722,8.987a1.727,1.727,0,0,1,1.725,1.725v1.2a1.727,1.727,0,0,1-1.725,1.725h-19.3A1.727,1.727,0,0,1,53.338,15.2v-1.2a1.727,1.727,0,0,1,1.725-1.725h19.3ZM49.5,15.744a7.09,7.09,0,0,1,2.757-1.807c0,.024,0,.047,0,.071v1.2a2.8,2.8,0,0,0,.487,1.58,17.549,17.549,0,0,0-2.275,1.432,17.765,17.765,0,0,0-1.772,1.5,3.622,3.622,0,0,1-.271-1.367A3.806,3.806,0,0,1,49.5,15.744ZM57.4,29.206a10.73,10.73,0,0,0,6.5,2.161h1.41a10.788,10.788,0,0,0,6.911-2.486v3.971H56.99V29.278Zm14.819,6.034a.766.766,0,0,1-.765.765h-13.7a.766.766,0,0,1-.765-.765v-1.3H72.222Zm3.965-10.932a1.613,1.613,0,0,1-1.048.668l-4.486.791a.543.543,0,1,0,.189,1.07l2.226-.392a9.756,9.756,0,0,1-7.757,3.837H63.9a9.653,9.653,0,0,1-4.95-1.347L68.2,27.3a.543.543,0,0,0-.189-1.07l-12.081,2.13a1.625,1.625,0,0,1-1.88-1.317l-.243-1.379a1.625,1.625,0,0,1,1.317-1.88L74.332,20.4a1.625,1.625,0,0,1,1.88,1.317l.243,1.379A1.612,1.612,0,0,1,76.187,24.307Z" transform="translate(0 0)"/>
    </g>
  </g>
</svg>
