<svg xmlns="http://www.w3.org/2000/svg" width="61.554" height="56.767" viewBox="0 0 61.554 56.767">
  <g id="Grupo_1102439" data-name="Grupo 1102439" transform="translate(-334.621 -1399.423)">
    <g id="Rectángulo_401341" data-name="Rectángulo 401341" transform="translate(334.621 1399.423)" fill="#ffb27e" stroke="#fcd8c0" stroke-width="3">
      <rect width="61.554" height="56.767" rx="12" stroke="none"/>
      <rect x="1.5" y="1.5" width="58.554" height="53.767" rx="10.5" fill="none"/>
    </g>
    <g id="bone_966044" transform="translate(347.021 1409.425)">
      <g id="Grupo_1104056" data-name="Grupo 1104056" transform="translate(19.184 19.189)">
        <path id="Trazado_885146" data-name="Trazado 885146" d="M231.542,209.14a4.383,4.383,0,0,0,3.119,1.292A4.395,4.395,0,0,1,231.542,209.14Z" transform="translate(-229.487 -209.14)" fill="#78b9eb"/>
        <path id="Trazado_885147" data-name="Trazado 885147" d="M209.142,231.54a4.395,4.395,0,0,1,1.292,3.119A4.383,4.383,0,0,0,209.142,231.54Z" transform="translate(-209.142 -229.485)" fill="#78b9eb"/>
      </g>
      <g id="Grupo_1104057" data-name="Grupo 1104057" transform="translate(0.734 0.739)">
        <path id="Trazado_885148" data-name="Trazado 885148" d="M20.46,189.945h2.885a4.75,4.75,0,0,0,.734-.057,4.4,4.4,0,0,0,2.378-7.459A4.334,4.334,0,0,0,24.02,181.2a4.334,4.334,0,0,0-1.233-2.436,4.4,4.4,0,0,0-7.456,2.382,4.748,4.748,0,0,0-.057.734v2.885l-2.8,2.8-4.465,4.459,5.189,5.189,4.463-4.463ZM18.9,188.389l.519-.519Zm-.678-6.751a1.465,1.465,0,0,1,2.891-.01,1.465,1.465,0,0,0-2.891.01,1.4,1.4,0,0,0-.019.236,1.4,1.4,0,0,1,.019-.238Zm-5.03,12.46,4.151-4.151Z" transform="translate(-8.006 -161.924)" fill="#ebe5e9"/>
        <path id="Trazado_885149" data-name="Trazado 885149" d="M191.991,8l-7.265,7.265h-2.885a4.748,4.748,0,0,0-.734.057,4.4,4.4,0,0,0-2.378,7.459,4.334,4.334,0,0,0,2.436,1.233,4.334,4.334,0,0,0,1.233,2.436,4.4,4.4,0,0,0,7.456-2.382,4.748,4.748,0,0,0,.057-.734v-2.88l2.8-2.8,4.462-4.463Zm-5.708,8.821-.519.519Zm.688,6.742a1.465,1.465,0,0,1-2.89.012,1.465,1.465,0,0,0,2.89-.012,1.391,1.391,0,0,0,.019-.234A1.381,1.381,0,0,1,186.971,23.567Zm.869-8.3,4.151-4.152Z" transform="translate(-161.894 -8.004)" fill="#ebe5e9"/>
      </g>
      <path id="Trazado_885150" data-name="Trazado 885150" d="M58.159,45.431a4.748,4.748,0,0,1-.057.734,4.4,4.4,0,0,1-7.459,2.378,4.334,4.334,0,0,1-1.233-2.436,4.334,4.334,0,0,1-2.436-1.233,4.4,4.4,0,0,1,2.382-7.456,4.748,4.748,0,0,1,.734-.057h2.885l2.8-2.8A15.414,15.414,0,0,0,34.605,55.728l2.8-2.8V50.04a4.749,4.749,0,0,1,.057-.734,4.4,4.4,0,0,1,7.454-2.378,4.334,4.334,0,0,1,1.233,2.436A4.334,4.334,0,0,1,48.588,50.6a4.4,4.4,0,0,1-2.382,7.456,4.749,4.749,0,0,1-.734.057h-2.88l-2.8,2.8a15.41,15.41,0,0,0,21.171-21.17l-2.8,2.8Z" transform="translate(-29.404 -29.353)" fill="#ffd195"/>
      <g id="Grupo_1104058" data-name="Grupo 1104058" transform="translate(10.386 12.399)">
        <path id="Trazado_885151" data-name="Trazado 885151" d="M113.23,316.278l2.8-2.8Z" transform="translate(-113.23 -297.115)" fill="#78b9eb"/>
        <path id="Trazado_885152" data-name="Trazado 885152" d="M135.118,177.428a4.395,4.395,0,0,1,3.121,1.294A4.383,4.383,0,0,0,135.118,177.428Z" transform="translate(-133.11 -173.547)" fill="#78b9eb"/>
        <path id="Trazado_885153" data-name="Trazado 885153" d="M177.43,135.116a4.383,4.383,0,0,0,1.294,3.121A4.395,4.395,0,0,1,177.43,135.116Z" transform="translate(-171.541 -135.116)" fill="#78b9eb"/>
      </g>
      <path id="Trazado_885154" data-name="Trazado 885154" d="M112.683,203.575a.721.721,0,0,1,.724-.615h.006a.686.686,0,0,1,.509.211.673.673,0,0,1,.2.381l1.452-.214a2.191,2.191,0,0,0-2.156-1.846H113.4a2.191,2.191,0,0,0-2.166,1.835,2.12,2.12,0,0,0-.031.367h1.468a.645.645,0,0,1,.01-.119Z" transform="translate(-101.005 -183.004)"/>
      <path id="Trazado_885155" data-name="Trazado 885155" d="M244.822,175.25a.754.754,0,0,1-.729.618.691.691,0,0,1-.514-.211.676.676,0,0,1-.2-.382l-1.452.215a2.19,2.19,0,0,0,2.16,1.845h.01a2.194,2.194,0,0,0,2.169-1.835,2.1,2.1,0,0,0,.03-.361h-1.468a.659.659,0,0,1-.005.11Z" transform="translate(-219.735 -159.069)"/>
      <path id="Trazado_885156" data-name="Trazado 885156" d="M287.131,34.074l-4.151,4.151A.734.734,0,1,0,284,39.28l.018-.018,4.151-4.151a.734.734,0,1,0-1.02-1.056Z" transform="translate(-256.819 -30.74)"/>
      <path id="Trazado_885157" data-name="Trazado 885157" d="M260.95,98.161a.734.734,0,0,0,.519-.215l.519-.519a.734.734,0,1,0-1.038-1.038l-.519.519a.734.734,0,0,0,.519,1.253Z" transform="translate(-236.347 -87.347)"/>
      <path id="Trazado_885158" data-name="Trazado 885158" d="M61.889,305.7a.734.734,0,0,0-1.038,0h0L56.7,309.847a.734.734,0,1,0,1.02,1.056l.018-.018,4.152-4.151a.734.734,0,0,0,0-1.038Z" transform="translate(-51.296 -277.455)"/>
      <path id="Trazado_885159" data-name="Trazado 885159" d="M119.538,283.061l-.519.519a.734.734,0,0,0,1.038,1.038l.519-.519a.734.734,0,0,0-1.038-1.038Z" transform="translate(-107.907 -256.896)"/>
      <path id="Trazado_885160" data-name="Trazado 885160" d="M36.539,5.41,31.35.221a.734.734,0,0,0-1.038,0L26.239,4.293A16.13,16.13,0,0,0,4.287,26.245L.215,30.317a.734.734,0,0,0,0,1.038L5.4,36.544a.734.734,0,0,0,1.038,0l4.071-4.072A16.133,16.133,0,0,0,32.467,10.52l4.073-4.073A.734.734,0,0,0,36.539,5.41ZM5.923,34.987,1.773,30.836,8.518,24.09a.734.734,0,0,0,.215-.519V20.686a4.066,4.066,0,0,1,.046-.609,3.669,3.669,0,0,1,6.214-1.989,3.6,3.6,0,0,1,1.027,2.027.734.734,0,0,0,.619.619,3.589,3.589,0,0,1,2.027,1.027,3.679,3.679,0,0,1,1.077,2.6,3.734,3.734,0,0,1-.059.66,3.586,3.586,0,0,1-.1.353c-.026.089-.041.182-.073.268a3.663,3.663,0,0,1-2.825,2.334,3.975,3.975,0,0,1-.616.049H13.188a.734.734,0,0,0-.519.215Zm22.832-6.227A14.631,14.631,0,0,1,11.583,31.4l1.908-1.9h2.582a5.562,5.562,0,0,0,.845-.066h.009a5.208,5.208,0,0,0,1.321-.408,5.119,5.119,0,0,0,2.968-4.654v-.039a5.137,5.137,0,0,0-3.84-4.934,5.138,5.138,0,0,0-10.04.453,5.564,5.564,0,0,0-.065.845v2.581L5.362,25.18a14.683,14.683,0,0,1,19.8-19.814l-1.908,1.9H20.681a5.573,5.573,0,0,0-.854.068,5.208,5.208,0,0,0-1.321.408A5.119,5.119,0,0,0,15.539,12.4v.039a5.137,5.137,0,0,0,3.84,4.934,5.137,5.137,0,0,0,4.928,3.84h.044a5.127,5.127,0,0,0,5.063-4.3,5.564,5.564,0,0,0,.065-.845V13.5l1.908-1.908a14.63,14.63,0,0,1-2.633,17.172Zm-.519-16.086a.734.734,0,0,0-.215.519v2.885a4.066,4.066,0,0,1-.046.609,3.669,3.669,0,0,1-.723,1.634c-.028.037-.05.079-.08.114a3.634,3.634,0,0,1-.258.261c-.063.062-.119.131-.186.187s-.147.1-.215.153c-.1.073-.194.147-.3.212-.063.037-.134.062-.2.095a3.633,3.633,0,0,1-.374.178c-.054.02-.113.029-.168.046a3.762,3.762,0,0,1-.454.124c-.073.013-.155.012-.232.021a3.537,3.537,0,0,1-.426.038,3.675,3.675,0,0,1-2.6-1.074,3.6,3.6,0,0,1-1.027-2.027.734.734,0,0,0-.619-.619A3.589,3.589,0,0,1,18.088,15a3.669,3.669,0,0,1,1.977-6.216,4,4,0,0,1,.619-.049h2.885a.734.734,0,0,0,.519-.215l6.746-6.745,4.151,4.151Z"/>
    </g>
  </g>
</svg>
