<svg xmlns="http://www.w3.org/2000/svg" width="61.554" height="56.767" viewBox="0 0 61.554 56.767">
  <g id="Grupo_1103500" data-name="Grupo 1103500" transform="translate(-334.621 -1399.423)">
    <g id="Rectángulo_401341" data-name="Rectángulo 401341" transform="translate(334.621 1399.423)" fill="#ffb27e" stroke="#fcd8c0" stroke-width="3">
      <rect width="61.554" height="56.767" rx="12" stroke="none"/>
      <rect x="1.5" y="1.5" width="58.554" height="53.767" rx="10.5" fill="none"/>
    </g>
    <g id="hombro" transform="translate(349.169 1410.576)">
      <path id="Trazado_885172" data-name="Trazado 885172" d="M297.629,332.895l-6.984-3.019a2.852,2.852,0,0,1-1.716-2.461l-2.853,5.613,11.945,5.613h1.9v-2.255A3.8,3.8,0,0,0,297.629,332.895Z" transform="translate(-267.94 -306.658)" fill="#ffba9c"/>
      <path id="Trazado_885173" data-name="Trazado 885173" d="M35.208,325.65l-5.776-3.019a2.89,2.89,0,0,1-1.418-2.461c0-.052,0-.1,0-.158v-.333H18.5v.333a2.853,2.853,0,0,1-1.721,2.619L9.795,325.65A3.8,3.8,0,0,0,7.5,329.142V331.4H37.106v-2.255a3.9,3.9,0,0,0-1.9-3.492Z" transform="translate(-7.025 -299.413)" fill="#ffd1bd"/>
      <path id="Trazado_885174" data-name="Trazado 885174" d="M190.509,252.024v-4.58H181v4.58a7.844,7.844,0,0,0,9.509,0Z" transform="translate(-169.525 -231.757)" fill="#ffba9c"/>
      <path id="Trazado_885175" data-name="Trazado 885175" d="M263.132,15.108v-.476A7.132,7.132,0,0,0,256,7.5V26.994a5.937,5.937,0,0,0,5.632-4.06l.485-1.456,1.154-.769a2.853,2.853,0,0,0,1.27-2.374v-1.8A1.426,1.426,0,0,0,263.132,15.108Z" transform="translate(-239.771 -7.025)" fill="#ffd1bd"/>
      <path id="Trazado_885176" data-name="Trazado 885176" d="M135.028,17.247c0-5.383-2.342-9.747-5.23-9.747a7.132,7.132,0,0,0-7.132,7.132v.476a1.426,1.426,0,0,0-1.41,1.426v1.8a2.853,2.853,0,0,0,1.27,2.374l1.154.769.485,1.456a5.937,5.937,0,0,0,5.633,4.06C132.686,26.994,135.028,22.63,135.028,17.247Z" transform="translate(-113.568 -7.025)" fill="#ffe4d9"/>
      <circle id="Elipse_11958" data-name="Elipse 11958" cx="5.23" cy="5.23" r="5.23" transform="translate(0.475 19.621)" fill="#ffa18c"/>
      <circle id="Elipse_11959" data-name="Elipse 11959" cx="3.328" cy="3.328" r="3.328" transform="translate(2.377 21.523)" fill="#ff8178"/>
      <circle id="Elipse_11960" data-name="Elipse 11960" cx="1.426" cy="1.426" r="1.426" transform="translate(4.279 23.425)" fill="#fc424b"/>
      <path id="Trazado_885177" data-name="Trazado 885177" d="M33.8,332a3.8,3.8,0,1,0,3.8,3.8A3.808,3.808,0,0,0,33.8,332Zm0,6.657a2.853,2.853,0,1,1,2.853-2.853A2.856,2.856,0,0,1,33.8,338.657Z" transform="translate(-28.098 -310.952)"/>
      <path id="Trazado_885178" data-name="Trazado 885178" d="M61.9,362a1.9,1.9,0,1,0,1.9,1.9A1.9,1.9,0,0,0,61.9,362Zm0,2.853a.951.951,0,1,1,.951-.951A.952.952,0,0,1,61.9,364.853Z" transform="translate(-56.196 -339.05)"/>
      <path id="Trazado_885179" data-name="Trazado 885179" d="M29.878,25.8l-6.984-3.019A2.376,2.376,0,0,1,21.46,20.6V17.743a6.42,6.42,0,0,0,.853-1.683l.434-1.3,1.018-.679a3.322,3.322,0,0,0,1.482-2.769v-1.8a1.91,1.91,0,0,0-1.41-1.837V7.608a7.608,7.608,0,1,0-15.215,0v.065a1.91,1.91,0,0,0-1.41,1.837v1.8A3.322,3.322,0,0,0,8.694,14.08l1.018.679.434,1.3A6.42,6.42,0,0,0,11,17.743V20.6a2.376,2.376,0,0,1-.4,1.32A5.7,5.7,0,0,0,.641,27.477,4.249,4.249,0,0,0,0,29.728v2.255a.475.475,0,0,0,.475.475H4.755a.475.475,0,0,0,0-.951H.951v-1.78a3.308,3.308,0,0,1,.281-1.339,5.7,5.7,0,0,0,9.823-5.521A3.327,3.327,0,0,0,11.95,20.6V18.81a6.417,6.417,0,0,0,8.559,0V20.6a3.326,3.326,0,0,0,2.008,3.055L29.5,26.673a3.326,3.326,0,0,1,2.008,3.055v1.78H6.657a.475.475,0,1,0,0,.951H31.983a.475.475,0,0,0,.475-.475V29.728A4.277,4.277,0,0,0,29.878,25.8ZM5.706,29.606a4.755,4.755,0,1,1,4.755-4.755A4.76,4.76,0,0,1,5.706,29.606ZM16.229,19.494a5.455,5.455,0,0,1-5.181-3.735L10.563,14.3a.475.475,0,0,0-.187-.245l-1.154-.769a2.373,2.373,0,0,1-1.059-1.978v-1.8a.954.954,0,0,1,.94-.951.475.475,0,0,0,.47-.475V7.608a6.657,6.657,0,1,1,13.313,0v.476a.476.476,0,0,0,.47.475.954.954,0,0,1,.94.951v1.8a2.373,2.373,0,0,1-1.059,1.978l-1.154.769a.475.475,0,0,0-.187.245l-.485,1.456a5.455,5.455,0,0,1-5.182,3.735Z" transform="translate(0)"/>
    </g>
  </g>
</svg>
