<svg xmlns="http://www.w3.org/2000/svg" width="61.554" height="56.767" viewBox="0 0 61.554 56.767">
  <g id="Grupo_1103498" data-name="Grupo 1103498" transform="translate(-334.621 -1399.423)">
    <g id="Rectángulo_401341" data-name="Rectángulo 401341" transform="translate(334.621 1399.423)" fill="#ffb27e" stroke="#fcd8c0" stroke-width="3">
      <rect width="61.554" height="56.767" rx="12" stroke="none"/>
      <rect x="1.5" y="1.5" width="58.554" height="53.767" rx="10.5" fill="none"/>
    </g>
    <g id="broken-bone_12967827" transform="translate(348.221 1410.737)">
      <g id="Grupo_1104060" data-name="Grupo 1104060" transform="translate(0.67 0.671)">
        <path id="Trazado_885180" data-name="Trazado 885180" d="M36.488,23.732a6.71,6.71,0,0,0-3.779-6.516L18.02,10,10,22.548a21.816,21.816,0,0,0,16.058,4.735l.349-.038,0,.008a12.215,12.215,0,0,0-.1,10.1,12.062,12.062,0,0,1,1.008,4.114l.1,1.544H35.13Z" transform="translate(-10 -10)" fill="#f3c9a6"/>
        <g id="Grupo_1104059" data-name="Grupo 1104059" transform="translate(3.931 3.568)">
          <path id="Trazado_885181" data-name="Trazado 885181" d="M276.342,205.321v7.54l1.677-1.468,1.678.932v-7a3.212,3.212,0,1,0-3.355,0Z" transform="translate(-261.149 -192.685)" fill="#fff"/>
          <path id="Trazado_885182" data-name="Trazado 885182" d="M301.678,407,300,408.468v4.907h3.355v-5.443Z" transform="translate(-284.471 -383.929)" fill="#fff"/>
          <path id="Trazado_885183" data-name="Trazado 885183" d="M80.918,67.705a1.678,1.678,0,0,0-2.095.34l-8.438-4.872L68.577,66l8.569,4.947a1.678,1.678,0,1,0,3.134-.128,1.678,1.678,0,0,0,.638-3.118Z" transform="translate(-68.577 -63.174)" fill="#fff"/>
        </g>
      </g>
      <g id="Grupo_1104061" data-name="Grupo 1104061" transform="translate(-0.001 0)">
        <path id="Trazado_885184" data-name="Trazado 885184" d="M428.561,93.471l.955.517a.671.671,0,0,0,.7-.04l1.1-.77a.671.671,0,1,0-.77-1.1l-.76.532-.955-.517a.671.671,0,0,0-.7.04l-1.1.77a.671.671,0,0,0,.77,1.1Z" transform="translate(-398.11 -85.787)"/>
        <path id="Trazado_885185" data-name="Trazado 885185" d="M387.9,44.169l.567-1.216a.671.671,0,0,0-1.216-.567l-.392.84-1.085.03a.671.671,0,0,0-.59.387l-.567,1.216a.671.671,0,0,0,1.216.567l.392-.84,1.085-.03A.671.671,0,0,0,387.9,44.169Z" transform="translate(-358.745 -39.18)"/>
        <path id="Trazado_885186" data-name="Trazado 885186" d="M443.43,152.046a.671.671,0,0,0-.822-.475l-.9.24-.72-.812a.671.671,0,0,0-.676-.2l-1.3.347a.671.671,0,0,0,.347,1.3l.9-.24.72.812a.671.671,0,0,0,.676.2l1.3-.347A.671.671,0,0,0,443.43,152.046Z" transform="translate(-409.098 -140.656)"/>
        <path id="Trazado_885187" data-name="Trazado 885187" d="M267.455,204.038l1.322-1.157,1.265.7a.671.671,0,0,0,1-.587v-6.526a3.787,3.787,0,1,0-4.7,0v7.062A.671.671,0,0,0,267.455,204.038Zm-.106-10.7a1,1,0,0,1,.806.4.671.671,0,0,0,1.073,0,1.007,1.007,0,1,1,1.008,1.59.671.671,0,0,0-.537.658v5.864l-.681-.378a.671.671,0,0,0-.768.082l-.565.494v-6.062a.671.671,0,0,0-.537-.658,1.007,1.007,0,0,1,.2-1.993Z" transform="translate(-247.218 -179.117)"/>
        <path id="Trazado_885188" data-name="Trazado 885188" d="M123.249,394.909l1.261-.459a.671.671,0,1,0-.459-1.261l-.871.317-.788-.746a.671.671,0,0,0-.691-.143l-1.261.459a.671.671,0,1,0,.459,1.261l.871-.317.788.746A.671.671,0,0,0,123.249,394.909Z" transform="translate(-111.946 -366.233)"/>
        <path id="Trazado_885189" data-name="Trazado 885189" d="M164.837,436.71a.671.671,0,0,0-.945.083l-.6.71-1.056-.252a.671.671,0,0,0-.67.221l-.863,1.028a.671.671,0,1,0,1.028.863l.6-.71,1.056.252a.671.671,0,0,0,.67-.221l.863-1.028A.671.671,0,0,0,164.837,436.71Z" transform="translate(-149.777 -407.26)"/>
        <path id="Trazado_885190" data-name="Trazado 885190" d="M126.5,329.466h.927l.486.971a.671.671,0,0,0,.6.371h1.342a.671.671,0,1,0,0-1.342h-.927l-.486-.971a.671.671,0,0,0-.6-.371H126.5a.671.671,0,1,0,0,1.342Z" transform="translate(-117.381 -306.107)"/>
        <circle id="Elipse_11961" data-name="Elipse 11961" cx="0.671" cy="0.671" r="0.671" transform="translate(25.65 25.632)"/>
        <path id="Trazado_885191" data-name="Trazado 885191" d="M23.675,7.285,8.986.069A.671.671,0,0,0,8.125.31L.1,12.857a.671.671,0,0,0,.143.883,22.374,22.374,0,0,0,7.789,4.091,22.357,22.357,0,0,0,7.994.859,12.885,12.885,0,0,0,.332,9.608,11.356,11.356,0,0,1,.952,3.885l.1,1.544a.671.671,0,0,0,.67.628H25.8a.671.671,0,0,0,.669-.624l.307-4.362a.671.671,0,1,0-1.339-.094l-.263,3.738h-1.02V28.242a.671.671,0,0,0-.345-.587l-1.678-.932a.671.671,0,0,0-.768.082l-1.678,1.468a.671.671,0,0,0-.229.505v4.236h-.745l-.059-.916a12.694,12.694,0,0,0-1.064-4.343,11.542,11.542,0,0,1,.091-9.547l0-.008a.671.671,0,0,0-.68-.951l-.349.038A21.3,21.3,0,0,1,1.563,13.067l3.257-5.1,7.6,4.388a2.348,2.348,0,1,0,4.68-.01A2.348,2.348,0,1,0,14.77,8.292L7.353,4.009l1.58-2.472L23.088,8.492a6.009,6.009,0,0,1,3.4,5.864l-.625,8.881a.671.671,0,0,0,1.339.094l.625-8.881a7.381,7.381,0,0,0-4.153-7.165ZM20.8,29.082l1.093-.957.92.511v4.377H20.8ZM14.513,9.693a.671.671,0,0,0,.838-.137,1.007,1.007,0,1,1,.873,1.668.671.671,0,0,0-.537.929,1.007,1.007,0,1,1-1.881.078.671.671,0,0,0-.3-.794l-7.963-4.6,1.085-1.7Z" transform="translate(0.001 0)"/>
      </g>
    </g>
  </g>
</svg>
