<svg xmlns="http://www.w3.org/2000/svg" width="61.554" height="56.767" viewBox="0 0 61.554 56.767">
  <g id="Grupo_1103525" data-name="Grupo 1103525" transform="translate(-334.621 -1399.423)">
    <g id="Rectángulo_401341" data-name="Rectángulo 401341" transform="translate(334.621 1399.423)" fill="#ffb27e" stroke="#fcd8c0" stroke-width="3">
      <rect width="61.554" height="56.767" rx="12" stroke="none"/>
      <rect x="1.5" y="1.5" width="58.554" height="53.767" rx="10.5" fill="none"/>
    </g>
    <g id="descansar" transform="translate(346.605 1409.016)">
      <path id="Trazado_885225" data-name="Trazado 885225" d="M15.11,13.119V9.933A2,2,0,0,1,15.4,5.944h6.939A4.844,4.844,0,0,1,27,9.388l.453,1.378A4.867,4.867,0,0,1,26,15.868l-1.148.981h3.168a20.031,20.031,0,0,1,5.895,1.085,1.5,1.5,0,0,0,.717.034,1.423,1.423,0,0,0,1.108-1.113,1.481,1.481,0,0,0-.034-.712,20.41,20.41,0,0,1-1.085-5.895A20.41,20.41,0,0,1,35.71,4.354a1.5,1.5,0,0,0,.034-.717A1.423,1.423,0,0,0,34.63,2.529a1.481,1.481,0,0,0-.712.034,20.031,20.031,0,0,1-5.895,1.085H14.249A20.031,20.031,0,0,1,8.354,2.564a1.5,1.5,0,0,0-.717-.034A1.423,1.423,0,0,0,6.529,3.643a1.481,1.481,0,0,0,.034.712,20.41,20.41,0,0,1,1.085,5.895,20.41,20.41,0,0,1-1.085,5.895,1.5,1.5,0,0,0-.034.717,1.423,1.423,0,0,0,1.113,1.108,1.481,1.481,0,0,0,.712-.034,20.031,20.031,0,0,1,5.895-1.085h2.6A4.867,4.867,0,0,1,15.11,13.119Z" transform="translate(-2.344 -0.641)" fill="#5e6472"/>
      <path id="Trazado_885226" data-name="Trazado 885226" d="M29.962,22.962V20.379a.287.287,0,0,1,.287-.287.861.861,0,1,0,0-1.722.287.287,0,0,1-.287-.287V16.361A.861.861,0,0,0,29.1,15.5H22.5v3.157a4.3,4.3,0,0,0,4.3,4.3Z" transform="translate(-9.16 -6.179)" fill="#faf3dd"/>
      <path id="Trazado_885227" data-name="Trazado 885227" d="M28.5,29.36v2.089a2.009,2.009,0,1,0,4.018,0V29.44H29.361A4.758,4.758,0,0,1,28.5,29.36Z" transform="translate(-11.716 -12.084)" fill="#faf3dd"/>
      <path id="Trazado_885228" data-name="Trazado 885228" d="M32.414,13.914l-.425-1.378A4.282,4.282,0,0,0,27.874,9.5H20.935a1.435,1.435,0,1,0,0,2.87h6.888A1.435,1.435,0,0,1,29.257,13.8v1.464a1.435,1.435,0,0,1,0,2.812v1.98L31.134,18.4A4.316,4.316,0,0,0,32.414,13.914Z" transform="translate(-7.882 -3.623)" fill="#ffa69e"/>
      <path id="Trazado_885229" data-name="Trazado 885229" d="M13.78,46.093a1.722,1.722,0,0,0,.436-2.17L11.582,39.09l.505-.276.574,1H28.307l-.115-.821.574-.08.936,7.02a1.55,1.55,0,0,0,3.082-.207V40.1a6.606,6.606,0,0,0-6.6-6.6H24.158a2.583,2.583,0,0,1-5.131,0H14.968a6.618,6.618,0,0,0-6.216,4.379L7.57,41.191l3.8,4.649a1.722,1.722,0,0,0,2.411.253Z" transform="translate(-2.799 -13.848)" fill="#faf3dd"/>
      <path id="Trazado_885230" data-name="Trazado 885230" d="M34.355,45.5H31.2v5.338a2.124,2.124,0,0,1-4.23.281L26.222,45.5H10.782l1.762,3.26A2.3,2.3,0,0,1,8.75,51.314l-3.891-4.77a.293.293,0,0,1-.046-.281l.27-.763H4.509A2.009,2.009,0,0,0,2.5,47.509v7.175H36.364V47.509A2.009,2.009,0,0,0,34.355,45.5Z" transform="translate(-0.639 -18.96)" fill="#5e6472"/>
      <path id="Trazado_885231" data-name="Trazado 885231" d="M48.444,15.444V14.3a2.3,2.3,0,0,1-2.3-2.3H45A3.444,3.444,0,0,0,48.444,15.444Z" transform="translate(-18.746 -4.688)"/>
      <path id="Trazado_885232" data-name="Trazado 885232" d="M13,18v1.148a2.3,2.3,0,0,1,2.3,2.3h1.148A3.444,3.444,0,0,0,13,18Z" transform="translate(-5.112 -7.244)"/>
      <path id="Trazado_885233" data-name="Trazado 885233" d="M33.716,25.679h-2.87a7.462,7.462,0,0,0-7.462-6.888H21.663V17.328l.3-.258H25.68a19.2,19.2,0,0,1,5.642,1.05,2.348,2.348,0,0,0,1.148.052,2.3,2.3,0,0,0,1.791-1.8,2.353,2.353,0,0,0-.052-1.148,19.09,19.09,0,0,1-1.068-5.619,19.165,19.165,0,0,1,1.05-5.642,2.347,2.347,0,0,0,.052-1.148,2.3,2.3,0,0,0-1.791-1.774,2.348,2.348,0,0,0-1.148.052,19.2,19.2,0,0,1-5.625,1.05H11.905A19.2,19.2,0,0,1,6.263,1.1a2.348,2.348,0,0,0-1.148-.052,2.3,2.3,0,0,0-1.774,1.8,2.353,2.353,0,0,0,.052,1.148,19.09,19.09,0,0,1,1.05,5.619,19.165,19.165,0,0,1-1.05,5.642A2.348,2.348,0,0,0,3.342,16.4a2.3,2.3,0,0,0,1.791,1.774,2.543,2.543,0,0,0,.459.046,2.4,2.4,0,0,0,.672-.1,19.2,19.2,0,0,1,5.642-1.05h3.386a4.747,4.747,0,0,0,.631.27v1.452H12.169a7.462,7.462,0,0,0-7.031,4.953l-.694,1.934H3.87A2.87,2.87,0,0,0,1,28.549V36.01a.574.574,0,0,0,.574.574H36.012a.574.574,0,0,0,.574-.574V28.549A2.87,2.87,0,0,0,33.716,25.679ZM21.663,15.807V14.659a1.722,1.722,0,0,0,0-3.249V10.182A1.722,1.722,0,0,0,19.941,8.46H13.053a1.148,1.148,0,1,1,0-2.3h6.939A4.018,4.018,0,0,1,23.832,9l.425,1.378a4.018,4.018,0,0,1-1.194,4.2Zm-9.757.115a20.623,20.623,0,0,0-5.975,1.1,1.148,1.148,0,0,1-1.487-.849,1.3,1.3,0,0,1,0-.574A20.508,20.508,0,0,0,5.592,9.608,20.623,20.623,0,0,0,4.5,3.633a1.228,1.228,0,0,1,0-.574,1.148,1.148,0,0,1,.855-.913,1.2,1.2,0,0,1,.574,0,20.7,20.7,0,0,0,5.981,1.148H25.68a20.622,20.622,0,0,0,5.975-1.1,1.228,1.228,0,0,1,.574,0,1.148,1.148,0,0,1,.913.849,1.3,1.3,0,0,1,0,.574,20.508,20.508,0,0,0-1.148,5.986,20.622,20.622,0,0,0,1.1,5.975,1.228,1.228,0,0,1,.029.574,1.148,1.148,0,0,1-.884.913,1.2,1.2,0,0,1-.574-.029,20.7,20.7,0,0,0-5.981-1.119H23.27l.574-.476a5.166,5.166,0,0,0,1.538-5.407l-.425-1.378a5.166,5.166,0,0,0-4.965-3.645H13.053a2.3,2.3,0,0,0-.574,4.511v2.95a5.131,5.131,0,0,0,1.326,3.444Zm1.722-3.444V9.608h6.314a.574.574,0,0,1,.574.574V11.9a.574.574,0,0,0,.574.574.574.574,0,1,1,0,1.148.574.574,0,0,0-.574.574v2.3h-2.87a4.018,4.018,0,0,1-4.018-4.018Zm6.888,5.166v1.722a1.722,1.722,0,0,1-3.444,0V17.609a4.74,4.74,0,0,0,.574.034ZM6.223,24.129a6.314,6.314,0,0,1,5.946-4.19H15.98a2.87,2.87,0,0,0,5.625,0h1.779A6.314,6.314,0,0,1,29.7,26.253v5.625a1.263,1.263,0,0,1-2.514.166l-.93-7.014-1.148.149.063.5H10l-.459-.849L8.53,25.4l2.64,4.833a1.435,1.435,0,0,1-2.376,1.6l-3.7-4.546ZM35.438,35.436H2.148V28.549A1.722,1.722,0,0,1,3.87,26.827h.172l-.138.379a.574.574,0,0,0,.1.574l3.886,4.787a2.583,2.583,0,0,0,4.27-2.87l-1.527-2.87h14.7l.717,5.372a2.411,2.411,0,0,0,4.8-.321V26.827h2.87a1.722,1.722,0,0,1,1.722,1.722Z" transform="translate(0 0)"/>
    </g>
  </g>
</svg>
