<svg id="_31" data-name="31" xmlns="http://www.w3.org/2000/svg" xmlns:xlink="http://www.w3.org/1999/xlink" width="391.395" height="118.049" viewBox="0 0 391.395 118.049">
  <defs>
    <clipPath id="clip-path">
      <rect id="Rectángulo_402728" data-name="Rectángulo 402728" width="391.395" height="118.049" fill="none"/>
    </clipPath>
    <clipPath id="clip-path-2">
      <rect id="Rectángulo_402727" data-name="Rectángulo 402727" width="391.395" height="118.05" fill="none"/>
    </clipPath>
    <clipPath id="clip-path-3">
      <rect id="Rectángulo_402714" data-name="Rectángulo 402714" width="136.007" height="20.832" fill="none"/>
    </clipPath>
    <clipPath id="clip-path-4">
      <rect id="Rectángulo_402715" data-name="Rectángulo 402715" width="110.191" height="22.228" fill="none"/>
    </clipPath>
    <clipPath id="clip-path-5">
      <rect id="Rectángulo_402716" data-name="Rectángulo 402716" width="36.979" height="77.51" fill="none"/>
    </clipPath>
    <clipPath id="clip-path-6">
      <rect id="Rectángulo_402717" data-name="Rectángulo 402717" width="23.034" height="14.799" fill="none"/>
    </clipPath>
    <clipPath id="clip-path-7">
      <rect id="Rectángulo_402718" data-name="Rectángulo 402718" width="11.159" height="11.375" fill="none"/>
    </clipPath>
    <clipPath id="clip-path-8">
      <rect id="Rectángulo_402719" data-name="Rectángulo 402719" width="13.496" height="11.56" fill="none"/>
    </clipPath>
    <clipPath id="clip-path-9">
      <rect id="Rectángulo_402720" data-name="Rectángulo 402720" width="99.678" height="6.876" fill="none"/>
    </clipPath>
    <clipPath id="clip-path-10">
      <rect id="Rectángulo_402721" data-name="Rectángulo 402721" width="8.148" height="36.92" fill="none"/>
    </clipPath>
    <clipPath id="clip-path-11">
      <rect id="Rectángulo_402722" data-name="Rectángulo 402722" width="8.674" height="24.125" fill="none"/>
    </clipPath>
    <clipPath id="clip-path-12">
      <rect id="Rectángulo_402723" data-name="Rectángulo 402723" width="7.713" height="24.398" fill="none"/>
    </clipPath>
    <clipPath id="clip-path-13">
      <rect id="Rectángulo_402724" data-name="Rectángulo 402724" width="41.161" height="19.138" fill="none"/>
    </clipPath>
    <clipPath id="clip-path-14">
      <rect id="Rectángulo_402725" data-name="Rectángulo 402725" width="12.865" height="19.631" fill="none"/>
    </clipPath>
    <clipPath id="clip-path-15">
      <rect id="Rectángulo_402726" data-name="Rectángulo 402726" width="7.802" height="19.403" fill="none"/>
    </clipPath>
  </defs>
  <g id="Grupo_1101636" data-name="Grupo 1101636" clip-path="url(#clip-path)">
    <g id="Grupo_1101635" data-name="Grupo 1101635" transform="translate(0 0)">
      <g id="Grupo_1101634" data-name="Grupo 1101634" clip-path="url(#clip-path-2)">
        <path id="Trazado_881087" data-name="Trazado 881087" d="M384.893,53.295c0,1.382-86.161,2.5-192.446,2.5S0,54.677,0,53.295s86.163-2.5,192.448-2.5,192.446,1.119,192.446,2.5" transform="translate(0 62.254)" fill="#bfc0c3"/>
        <path id="Trazado_881088" data-name="Trazado 881088" d="M64.907,71.333,115.247,78.9l27.411-1.629,1.469,1.3,30.037-1.783,1.2-1.347,67.356-4,1.651,1.467,48.812-2.9,4.315-5.415,3.888-24.346-19.65-14.6L72.543,44.565l-9.152,17.7Z" transform="translate(77.695 31.44)" fill="#2c3352"/>
        <path id="Trazado_881089" data-name="Trazado 881089" d="M317.73,79.311c0,2.119-.223,3.993-.917,4.674a9.626,9.626,0,0,1-1.9,1.278A59.707,59.707,0,0,1,304.1,89.685a12.747,12.747,0,0,1-2.68.543l-3.423.207a26.329,26.329,0,0,0,.465-4.055c.027-.826.02-1.658-.029-2.506a26.027,26.027,0,0,0-44.455-16.79,25.642,25.642,0,0,0-2.715,3.22,26.071,26.071,0,0,0-4.445,19.632,26.308,26.308,0,0,0,.861,3.485l-124.41,7.389c-.416.02-.861.049-1.34.069a25.79,25.79,0,0,0,.472-4.471c.013-.681,0-1.375-.042-2.077a25.895,25.895,0,0,0-4.389-13A26.124,26.124,0,0,0,107.434,72.3c-.207-.1-.423-.194-.632-.285s-.423-.187-.639-.272c-.118-.047-.229-.089-.347-.131-.214-.089-.436-.174-.659-.249-.249-.091-.5-.18-.75-.258s-.507-.16-.763-.236c-.14-.04-.285-.082-.425-.118-.354-.1-.714-.187-1.082-.269-.314-.071-.632-.14-.953-.2-.223-.049-.452-.082-.681-.118-.263-.049-.534-.082-.8-.118s-.543-.062-.815-.089-.548-.049-.819-.065-.548-.033-.819-.04-.554-.016-.832-.016c-.521,0-1.048.016-1.578.049-.325.022-.652.042-.97.085a2.486,2.486,0,0,0-.314.027c-.292.029-.583.062-.875.111-.131.013-.263.036-.4.056-.269.042-.541.091-.806.138-.145.029-.292.056-.436.091-.272.056-.534.111-.8.18-.7.167-1.389.361-2.07.59-.082.029-.167.056-.243.085-.312.1-.625.214-.93.334-.347.138-.694.276-1.035.43-.327.138-.645.285-.959.438a1.072,1.072,0,0,0-.131.069c-.632.3-1.242.645-1.841,1a.167.167,0,0,0-.047.027c-.314.189-.619.383-.924.585a.616.616,0,0,1-.056.033c-.285.187-.57.383-.848.59-.3.209-.6.438-.881.668-.236.18-.458.361-.681.554-.069.058-.147.12-.216.189-.236.194-.465.4-.688.61-.04.036-.082.078-.125.118-.256.236-.5.481-.743.723-.207.207-.41.423-.6.639-.076.076-.147.16-.216.236-.223.243-.436.494-.652.757s-.452.55-.668.835c-.069.089-.131.174-.2.269-.16.209-.314.423-.458.639-.194.278-.383.556-.57.848l-.042.069c-.387.612-.757,1.244-1.1,1.89-.187.354-.361.714-.534,1.075-.1.236-.207.465-.312.7-.049.109-.1.22-.147.338-.125.307-.249.619-.361.93-.125.334-.243.668-.354,1.008a1.13,1.13,0,0,0-.036.118c-.082.263-.167.527-.236.8-.033.111-.069.22-.1.341-.085.312-.167.63-.238.95-.082.341-.151.681-.214,1.028a1.093,1.093,0,0,0-.029.167c-.049.269-.1.534-.131.806-.013.076-.02.151-.036.229-1.582-1.578-3.354-3.363-4.963-5.05-2.731-2.84-5.043-5.4-5.375-6.263-.87-2.257,2.139-14.062,4.193-15.624s5.008,0,5.008,0,2-4.16,4.645-8.6c.354-.59.721-1.193,1.091-1.785.472-.741.944-1.471,1.431-2.172V52.8c4.845-1,10.2-1.987,15.415-2.9,2.168,1.137,4.347,2.437,6.319,3.59,3.18,1.854,5.827,3.318,6.973,3.062,1.235-.278,3.381-1.814,5.6-3.661,3.833-3.165,7.894-7.236,7.894-7.236s28.25-23.4,44.8-29.332a27.7,27.7,0,0,1,2.8-.861C208.249,5.1,275.745,5.5,280.753,7.753,285.489,9.885,300.465,27,304.1,33.612c.127.216.229.423.32.619.076.138.131.278.187.4a29.079,29.079,0,0,1,1.022,3.04c.895,3.062,1.916,7.451,2.867,11.86,1.772,8.181,3.305,16.436,3.305,16.436a30.021,30.021,0,0,1,4.752,4.389,2.4,2.4,0,0,1,.43.868,51.865,51.865,0,0,1,.75,8.09" transform="translate(73.665 7.9)" fill="#56a3ba"/>
        <path id="Trazado_881090" data-name="Trazado 881090" d="M121.927,39.426l-9.4,7.311-5.1,3.973c-.207-.1-.423-.194-.632-.285s-.423-.187-.639-.272c-.118-.047-.229-.089-.347-.131-.214-.089-.436-.174-.659-.249-.249-.091-.5-.18-.75-.256s-.507-.167-.763-.238c-.14-.04-.285-.082-.425-.118-.354-.1-.714-.187-1.082-.269-.314-.071-.632-.14-.953-.2-.223-.049-.45-.082-.679-.118-.265-.049-.536-.082-.806-.118s-.543-.062-.812-.089-.55-.049-.821-.062-.548-.036-.819-.042-.554-.013-.832-.013c-.521,0-1.048.013-1.576.049-.327.02-.654.04-.973.082a2.486,2.486,0,0,0-.314.027c-.292.029-.583.065-.875.111-.131.016-.263.036-.4.056-.269.042-.541.091-.806.14-.145.027-.292.056-.436.089-.272.056-.534.111-.8.18-.7.167-1.389.363-2.07.592-.082.027-.167.056-.243.082-.312.1-.625.216-.93.334-.347.138-.694.278-1.035.43s-.645.285-.957.438a1.271,1.271,0,0,0-.134.069c-.632.3-1.242.645-1.841,1a.178.178,0,0,0-.047.029c-.314.187-.619.381-.924.583a.616.616,0,0,1-.056.033c-.285.2-.57.389-.848.592-.3.214-.59.436-.881.665-.229.18-.458.367-.681.556-.069.056-.145.118-.216.187-.236.194-.465.4-.688.612-.04.033-.082.076-.125.118-.256.236-.5.479-.743.721-.207.209-.41.423-.6.639-.076.076-.147.16-.216.236-.223.243-.436.494-.652.757s-.452.55-.668.835c-.069.089-.131.174-.2.269-.16.209-.312.425-.458.639-.194.278-.383.556-.57.848l-.042.069c-.387.612-.757,1.244-1.1,1.89-.189.354-.363.714-.536,1.077l-.312.7c-.049.111-.1.22-.147.341-.125.3-.249.617-.361.93-.125.332-.243.665-.354,1.006-.013.042-.027.082-.036.118-.082.265-.167.527-.236.8-.033.111-.069.223-.1.341-.085.312-.167.632-.236.95-.078.341-.154.681-.216,1.028a1.457,1.457,0,0,0-.029.167c-.049.272-.1.534-.131.806-.013.076-.02.151-.036.229-1.582-1.578-3.354-3.361-4.963-5.048-2.731-2.842-5.043-5.4-5.375-6.265-.835-2.172,1.916-13.173,3.957-15.4a1.668,1.668,0,0,1,.236-.223c1.972-1.5,4.765-.125,4.994-.007l.013.007s2-4.16,4.645-8.6c.354-.59.723-1.193,1.091-1.783.472-.743.944-1.473,1.431-2.174V31.2A35.46,35.46,0,0,1,79.4,27.6a15.445,15.445,0,0,1,1.346-1.369c2.25-2.021,6.728-.341,11.3,2.077,2.168,1.137,4.347,2.437,6.319,3.59,3.18,1.854,5.827,3.318,6.973,3.062,1.235-.278,3.381-1.812,5.6-3.659,3.833-3.167,7.894-7.238,7.894-7.238L120.2,30.9Z" transform="translate(73.665 29.495)" fill="#56a3ba"/>
        <path id="Trazado_881091" data-name="Trazado 881091" d="M181.966,37.58C173.2,39.568,169.91,36,169.91,36a12.66,12.66,0,0,0,7.311-2.813,29.639,29.639,0,0,1,4.745,4.393" transform="translate(208.246 40.675)" fill="#64bed9"/>
        <g id="Grupo_1101597" data-name="Grupo 1101597" transform="translate(191.637 74.986)" opacity="0.5">
          <g id="Grupo_1101596" data-name="Grupo 1101596">
            <g id="Grupo_1101595" data-name="Grupo 1101595" clip-path="url(#clip-path-3)">
              <path id="Trazado_881092" data-name="Trazado 881092" d="M222.112,33.692a25.394,25.394,0,0,0-2.717,3.223L89.3,54.524a25.644,25.644,0,0,0-3.2-6.586Z" transform="translate(-86.105 -33.692)" fill="#64bed9"/>
            </g>
          </g>
        </g>
        <path id="Trazado_881093" data-name="Trazado 881093" d="M276.426,34.23c-70.9,13.34-136.458,16.18-184.213,18.264q-4.761.207-9.27.4c3.833-3.167,7.894-7.236,7.894-7.236s28.25-23.4,44.8-29.334a27.1,27.1,0,0,1,2.8-.859C180.256,5.1,247.753,5.495,252.761,7.752,257.5,9.884,272.475,27,276.105,33.611c.127.216.229.425.32.619" transform="translate(101.657 7.899)" fill="#64bed9"/>
        <path id="Trazado_881094" data-name="Trazado 881094" d="M131.286,10.885a195.3,195.3,0,0,0-17.743,14.8c-6.583,6.051-12.417,11.86-15.134,14.593-8.5.138-11.918-.065-11.918-.065s10.1-8.368,21.76-16.358c7.841-5.384,16.381-10.594,23.035-12.971" transform="translate(106.006 13.341)" fill="#4b5774"/>
        <path id="Trazado_881095" data-name="Trazado 881095" d="M221.116,23.737c-1.075,1.456-6.127,10.1-67.739,15.152-24.684,2.023-42.621,3.054-55.242,3.559,3.254-3.283,7.874-7.939,12.154-12.248,5.508-5.537,10.474-10.494,11.3-11.217,1.983-1.745,12.2-5.593,32.7-7.743C174.551,9.12,213.2,7.513,214.748,10.2a114.344,114.344,0,0,1,5.731,10.414c.645,1.5.966,2.677.637,3.12" transform="translate(120.276 10.773)" fill="#4b5774"/>
        <g id="Grupo_1101600" data-name="Grupo 1101600" transform="translate(230.564 19.563)" opacity="0.1">
          <g id="Grupo_1101599" data-name="Grupo 1101599">
            <g id="Grupo_1101598" data-name="Grupo 1101598" clip-path="url(#clip-path-4)">
              <path id="Trazado_881096" data-name="Trazado 881096" d="M208.054,10.2a113.8,113.8,0,0,1,5.731,10.414c-31.53,6-80.853,12.773-110.189,9.584,5.506-5.537,10.472-10.494,11.3-11.217,1.983-1.745,12.194-5.593,32.7-7.743C167.859,9.12,206.5,7.513,208.054,10.2" transform="translate(-103.594 -8.79)" fill="#fff"/>
            </g>
          </g>
        </g>
        <path id="Trazado_881097" data-name="Trazado 881097" d="M125.859,8.995,120.1,40.872,133.7,39.6l.977-30.433Z" transform="translate(147.196 11.024)" fill="#64bed9"/>
        <path id="Trazado_881098" data-name="Trazado 881098" d="M140.458,8.518l11.814,27.124,8.4-3.049L152.488,8.035Z" transform="translate(172.15 9.848)" fill="#64bed9"/>
        <path id="Trazado_881099" data-name="Trazado 881099" d="M203.327,7.859c-1.622-.948-15.272-.525-27.535.418-3.65.285-7.812.7-12.13,1.2-.243.036-.485.062-.726.091-15.757,1.867-33.282,4.885-35.341,7-.643.659-3.134,2.746-6.3,5.39-11.749,9.837-23.32,19.721-24.566,22.989C90.553,61.19,94.873,96.57,94.921,96.931l.69-.091c-.047-.352-4.351-35.559,1.769-51.643,1.289-3.374,15.735-15.479,24.368-22.713,3.294-2.755,5.68-4.754,6.341-5.433,1.674-1.714,18.123-4.8,34.686-6.777-2.121,9.517-5.985,28.188-6.432,35.408-.588,9.454,1.217,47.809,1.233,48.2l.694-.033c-.018-.389-1.818-38.708-1.237-48.12.441-7.1,4.382-26.131,6.468-35.534,4.2-.492,8.4-.917,12.343-1.22,13.4-1.033,25.831-1.271,27.113-.525,1.251,1.135,12.8,38.092,13,41.619.053.895-1.91,1.923-4.178,3.107a25.875,25.875,0,0,0-12.508,13.607c-4.2,11.108-2.7,24.228-2.671,24.364l.681-.131c-.029-.136-1.487-13.062,2.635-23.992a25.289,25.289,0,0,1,12.185-13.227c2.784-1.467,4.627-2.43,4.547-3.768-.151-2.573-11.691-41.2-13.327-42.165" transform="translate(114.483 8.978)" fill="#4e93a8"/>
        <path id="Trazado_881100" data-name="Trazado 881100" d="M125.218,28.763l.007.111a2.524,2.524,0,0,1-.031.412,2.466,2.466,0,0,1-2.237,2.061L114,32.031a2.443,2.443,0,0,1-2.608-2.105.35.35,0,0,1-.011-.082l-.016-.151a2.45,2.45,0,0,1,2.288-2.7l8.969-.532a2.447,2.447,0,0,1,2.593,2.308" transform="translate(136.48 32.419)" fill="#44839e"/>
        <path id="Trazado_881101" data-name="Trazado 881101" d="M125.218,28.763l.007.111a2.524,2.524,0,0,1-.031.412c-3.405.16-10.26.479-13.8.639a.35.35,0,0,1-.011-.082l-.016-.151a2.45,2.45,0,0,1,2.288-2.7l8.969-.532a2.447,2.447,0,0,1,2.593,2.308" transform="translate(136.48 32.419)" fill="#64bed9"/>
        <path id="Trazado_881102" data-name="Trazado 881102" d="M152.314,27.155l.009.111a2.8,2.8,0,0,1-.033.412,2.464,2.464,0,0,1-2.237,2.061l-8.954.683a2.447,2.447,0,0,1-2.608-2.105.526.526,0,0,1-.011-.082l-.016-.154a2.45,2.45,0,0,1,2.288-2.7l8.972-.532a2.443,2.443,0,0,1,2.591,2.308" transform="translate(169.69 30.448)" fill="#44839e"/>
        <path id="Trazado_881103" data-name="Trazado 881103" d="M152.314,27.155l.009.111a2.8,2.8,0,0,1-.033.412c-3.405.16-10.26.476-13.8.639a.526.526,0,0,1-.011-.082l-.016-.154a2.45,2.45,0,0,1,2.288-2.7l8.972-.532a2.443,2.443,0,0,1,2.591,2.308" transform="translate(169.69 30.448)" fill="#64bed9"/>
        <path id="Trazado_881104" data-name="Trazado 881104" d="M182.593,32.894c-3.416-.479-7.607-1.358-9-2.833-1.166-1.251-4.453-6.483-7.585-11.653-3.479-5.727-6.77-11.375-6.77-11.375,2.217,1,6.672,5.275,11.159,10.218,5.108,5.631,10.258,12.121,12.192,15.644" transform="translate(195.172 8.619)" fill="#4b5774"/>
        <path id="Trazado_881105" data-name="Trazado 881105" d="M180.409,32.332c-3.572.539-9.461,1.3-10.623.568-1.683-1.055-6.094-8.911-5.005-10.136.815-.919,8.82-1.867,12.762-2.29.89,3.065,1.916,7.449,2.867,11.858" transform="translate(201.751 25.094)" fill="#cc4468"/>
        <path id="Trazado_881106" data-name="Trazado 881106" d="M125.265,64.468a30.714,30.714,0,0,1-.334,4.4l-4.707.278c-.416.02-.861.049-1.34.069a25.79,25.79,0,0,0,.472-4.471c.013-.681,0-1.375-.042-2.077a26.027,26.027,0,0,0-51.761-2.034c-1.582-1.578-3.354-3.361-4.965-5.05a31.934,31.934,0,0,1,62.622,6.73c.042.721.062,1.438.056,2.152" transform="translate(76.708 39.563)" fill="#64bed9"/>
        <path id="Trazado_881107" data-name="Trazado 881107" d="M189.867,52.828A22.178,22.178,0,1,1,166.413,32a22.178,22.178,0,0,1,23.454,20.825" transform="translate(178.388 39.175)" fill="#444b69"/>
        <path id="Trazado_881108" data-name="Trazado 881108" d="M173.776,47.722a11.79,11.79,0,1,1-12.468-11.07,11.79,11.79,0,0,1,12.468,11.07" transform="translate(184.11 44.896)" fill="#a9abb6"/>
        <path id="Trazado_881109" data-name="Trazado 881109" d="M171.546,47.014A10.351,10.351,0,1,1,160.6,37.3a10.351,10.351,0,0,1,10.946,9.719" transform="translate(184.902 45.688)" fill="#7b7d85"/>
        <path id="Trazado_881110" data-name="Trazado 881110" d="M160.229,43.424a3.044,3.044,0,1,1-3.22-2.858,3.045,3.045,0,0,1,3.22,2.858" transform="translate(188.925 49.712)" fill="#a9abb6"/>
        <path id="Trazado_881111" data-name="Trazado 881111" d="M156.184,43.725a.551.551,0,0,0,.516-.534l.145-5.66-2.052.122.815,5.6a.55.55,0,0,0,.576.47" transform="translate(189.719 45.999)" fill="#3b3c40"/>
        <path id="Trazado_881112" data-name="Trazado 881112" d="M157.347,43.225a.546.546,0,0,0-.2-.712l-4.83-2.958-.919,1.838,5.259,2.1a.549.549,0,0,0,.694-.265" transform="translate(185.552 48.48)" fill="#3b3c40"/>
        <path id="Trazado_881113" data-name="Trazado 881113" d="M157.3,42.954a.547.547,0,0,0-.719-.18l-4.977,2.7,1.133,1.716,4.445-3.508a.55.55,0,0,0,.118-.732" transform="translate(185.811 52.343)" fill="#3b3c40"/>
        <path id="Trazado_881114" data-name="Trazado 881114" d="M155.972,43.543a.549.549,0,0,0-.514.534l-.145,5.66,2.05-.122-.817-5.6a.543.543,0,0,0-.574-.47" transform="translate(190.356 53.366)" fill="#3b3c40"/>
        <path id="Trazado_881115" data-name="Trazado 881115" d="M156.991,42.819a.546.546,0,0,0,.2.712l4.83,2.958.919-1.838-5.259-2.1a.549.549,0,0,0-.694.265" transform="translate(192.341 52.109)" fill="#3b3c40"/>
        <path id="Trazado_881116" data-name="Trazado 881116" d="M156.913,43.373a.547.547,0,0,0,.719.18l4.977-2.7-1.133-1.716-4.445,3.508a.55.55,0,0,0-.118.732" transform="translate(192.206 47.963)" fill="#3b3c40"/>
        <path id="Trazado_881117" data-name="Trazado 881117" d="M157.136,37.622l-1.28,5.517a.548.548,0,0,0,1.039.336l2.2-5.219Z" transform="translate(191.004 46.111)" fill="#3b3c40"/>
        <path id="Trazado_881118" data-name="Trazado 881118" d="M157.118,43.619a.547.547,0,0,0,.069-.739l-3.421-4.511-1.527,1.378,4.137,3.866a.548.548,0,0,0,.741.007" transform="translate(186.588 47.026)" fill="#3b3c40"/>
        <path id="Trazado_881119" data-name="Trazado 881119" d="M157.36,42.5a.55.55,0,0,0-.605-.43l-5.617.708.43,2.01,5.417-1.649a.548.548,0,0,0,.376-.639" transform="translate(185.238 51.564)" fill="#3b3c40"/>
        <path id="Trazado_881120" data-name="Trazado 881120" d="M156.6,43.481a.547.547,0,0,0-.674.309l-2.2,5.219,1.956.634,1.28-5.517a.546.546,0,0,0-.365-.645" transform="translate(188.411 53.258)" fill="#3b3c40"/>
        <path id="Trazado_881121" data-name="Trazado 881121" d="M156.7,43.206a.547.547,0,0,0-.069.739l3.421,4.511,1.527-1.378-4.137-3.866a.548.548,0,0,0-.741-.007" transform="translate(191.83 52.781)" fill="#3b3c40"/>
        <path id="Trazado_881122" data-name="Trazado 881122" d="M157.1,42.85a.55.55,0,0,0,.605.43l5.617-.708-.43-2.01-5.417,1.649a.548.548,0,0,0-.376.639" transform="translate(192.533 49.714)" fill="#3b3c40"/>
        <path id="Trazado_881123" data-name="Trazado 881123" d="M204.97,57.62c.024.41.042.81.045,1.215a31.181,31.181,0,0,1-.269,4.948,13.524,13.524,0,0,1-2.682.541l-3.423.2a25.706,25.706,0,0,0,.467-4.057q.043-1.232-.029-2.5a26.027,26.027,0,0,0-51.962,3.085,26.233,26.233,0,0,0,1.211,6.461l-6.051.358A31.932,31.932,0,1,1,204.97,57.62" transform="translate(173.018 33.805)" fill="#64bed9"/>
        <path id="Trazado_881124" data-name="Trazado 881124" d="M213.634,47.442,89.222,54.829c-.416.024-.859.051-1.34.073a25.839,25.839,0,0,0,.472-4.474q2.894-.13,5.911-.28c35.6-1.691,82.66-4.115,118.508-6.189a24.5,24.5,0,0,0,.861,3.483" transform="translate(107.711 53.878)" fill="#44839e"/>
        <path id="Trazado_881125" data-name="Trazado 881125" d="M186.725,39.186c0,2.114-.223,3.993-.912,4.674-1.413,1.391-8.284,4.456-12.717,5.7a13.555,13.555,0,0,1-2.682.543l-3.423.2a25.708,25.708,0,0,0,.467-4.055c.628-.087,1.068-.16,1.322-.225,1.438-.378,3-.866,4.585-1.413,5.152-1.781,10.623-4.186,13.36-5.426" transform="translate(204.668 48.028)" fill="#44839e"/>
        <g id="Grupo_1101603" data-name="Grupo 1101603" transform="translate(354.414 15.652)" opacity="0.3" style="mix-blend-mode: multiply;isolation: isolate">
          <g id="Grupo_1101602" data-name="Grupo 1101602">
            <g id="Grupo_1101601" data-name="Grupo 1101601" clip-path="url(#clip-path-5)">
              <path id="Trazado_881126" data-name="Trazado 881126" d="M196.221,78.595c0,2.114-.223,3.993-.912,4.674a9.554,9.554,0,0,1-1.9,1.273c-.136-4.006-.576-9.439-1.943-11.251-2.263-3-6.178-4.5-6.67-6.908s-5.582-29.581-7.908-33.616S159.242,7.032,159.242,7.032c4.738,2.132,19.717,19.247,23.351,25.862a10.657,10.657,0,0,1,.505,1.013,28.134,28.134,0,0,1,1.022,3.042c.892,3.065,1.916,7.447,2.869,11.858,1.772,8.179,3.305,16.436,3.305,16.436s4.856,3.654,5.181,5.257a52.6,52.6,0,0,1,.746,8.095" transform="translate(-159.242 -7.033)" fill="#44839e"/>
            </g>
          </g>
        </g>
        <g id="Grupo_1101606" data-name="Grupo 1101606" transform="translate(214.258 24.227)" opacity="0.1">
          <g id="Grupo_1101605" data-name="Grupo 1101605">
            <g id="Grupo_1101604" data-name="Grupo 1101604" clip-path="url(#clip-path-6)">
              <path id="Trazado_881127" data-name="Trazado 881127" d="M119.3,10.885a195.3,195.3,0,0,0-17.743,14.8,35.529,35.529,0,0,1-5.293-1.829c7.841-5.384,16.381-10.594,23.035-12.971" transform="translate(-96.269 -10.886)" fill="#fff"/>
            </g>
          </g>
        </g>
        <g id="Grupo_1101609" data-name="Grupo 1101609" transform="translate(354.414 15.652)" opacity="0.1">
          <g id="Grupo_1101608" data-name="Grupo 1101608">
            <g id="Grupo_1101607" data-name="Grupo 1101607" clip-path="url(#clip-path-7)">
              <path id="Trazado_881128" data-name="Trazado 881128" d="M170.4,17.25c-1.246.352-2.717.746-4.391,1.157-3.476-5.727-6.768-11.375-6.768-11.375,2.217,1,6.67,5.275,11.159,10.218" transform="translate(-159.242 -7.033)" fill="#fff"/>
            </g>
          </g>
        </g>
        <path id="Trazado_881129" data-name="Trazado 881129" d="M110.8,58.839a22.051,22.051,0,0,1-3.806,12.423H70.244A22.179,22.179,0,1,1,110.8,58.839" transform="translate(81.428 44.933)" fill="#444b69"/>
        <path id="Trazado_881130" data-name="Trazado 881130" d="M109.676,54.2h-41.8a1.807,1.807,0,1,1,0-3.614h41.8a1.807,1.807,0,0,1,0,3.614" transform="translate(80.978 61.997)" fill="#444b69"/>
        <path id="Trazado_881131" data-name="Trazado 881131" d="M94.687,53.118A11.79,11.79,0,1,1,82.9,41.329,11.789,11.789,0,0,1,94.687,53.118" transform="translate(87.15 50.654)" fill="#a9abb6"/>
        <path id="Trazado_881132" data-name="Trazado 881132" d="M92.454,52.326A10.35,10.35,0,1,1,82.1,41.975,10.35,10.35,0,0,1,92.454,52.326" transform="translate(87.942 51.446)" fill="#7b7d85"/>
        <path id="Trazado_881133" data-name="Trazado 881133" d="M81.124,48.3a3.045,3.045,0,1,1-3.042-3.045A3.041,3.041,0,0,1,81.124,48.3" transform="translate(91.965 55.47)" fill="#a9abb6"/>
        <path id="Trazado_881134" data-name="Trazado 881134" d="M76.97,48.393a.55.55,0,0,0,.548-.5L78,42.248H75.942l.483,5.644a.546.546,0,0,0,.545.5" transform="translate(93.077 51.781)" fill="#3b3c40"/>
        <path id="Trazado_881135" data-name="Trazado 881135" d="M78.218,48a.547.547,0,0,0-.162-.723L73.41,44.037l-1.028,1.781,5.128,2.4A.549.549,0,0,0,78.218,48" transform="translate(88.713 53.973)" fill="#3b3c40"/>
        <path id="Trazado_881136" data-name="Trazado 881136" d="M78.218,47.585a.549.549,0,0,0-.708-.223l-5.128,2.4,1.028,1.781,4.645-3.238a.547.547,0,0,0,.162-.723" transform="translate(88.713 57.986)" fill="#3b3c40"/>
        <path id="Trazado_881137" data-name="Trazado 881137" d="M76.97,48.242a.546.546,0,0,0-.545.5l-.483,5.644H78l-.481-5.644a.55.55,0,0,0-.548-.5" transform="translate(93.077 59.127)" fill="#3b3c40"/>
        <path id="Trazado_881138" data-name="Trazado 881138" d="M77.845,47.585a.545.545,0,0,0,.162.723l4.645,3.238,1.028-1.781-5.128-2.4a.549.549,0,0,0-.708.223" transform="translate(95.318 57.986)" fill="#3b3c40"/>
        <path id="Trazado_881139" data-name="Trazado 881139" d="M77.845,48a.549.549,0,0,0,.708.223l5.128-2.4-1.028-1.781-4.645,3.238a.545.545,0,0,0-.162.723" transform="translate(95.318 53.973)" fill="#3b3c40"/>
        <path id="Trazado_881140" data-name="Trazado 881140" d="M78.462,42.38l-1.6,5.431a.548.548,0,0,0,1.017.4l2.5-5.081Z" transform="translate(94.171 51.942)" fill="#3b3c40"/>
        <path id="Trazado_881141" data-name="Trazado 881141" d="M77.949,48.358a.548.548,0,0,0,.114-.732l-3.149-4.707-1.6,1.284,3.9,4.1a.549.549,0,0,0,.741.051" transform="translate(89.85 52.603)" fill="#3b3c40"/>
        <path id="Trazado_881142" data-name="Trazado 881142" d="M78.236,47.126a.548.548,0,0,0-.579-.465l-5.651.374.309,2.032,5.506-1.324a.549.549,0,0,0,.414-.617" transform="translate(88.253 57.187)" fill="#3b3c40"/>
        <path id="Trazado_881143" data-name="Trazado 881143" d="M77.574,48.152a.549.549,0,0,0-.692.269L74.38,53.5l1.916.748,1.6-5.431a.55.55,0,0,0-.327-.665" transform="translate(91.162 58.97)" fill="#3b3c40"/>
        <path id="Trazado_881144" data-name="Trazado 881144" d="M77.526,47.954a.548.548,0,0,0-.114.732l3.149,4.707,1.6-1.284-3.9-4.1a.549.549,0,0,0-.741-.051" transform="translate(94.766 58.627)" fill="#3b3c40"/>
        <path id="Trazado_881145" data-name="Trazado 881145" d="M78.005,47.451a.548.548,0,0,0,.579.465l5.651-.374-.309-2.032-5.506,1.324a.55.55,0,0,0-.414.617" transform="translate(95.598 55.779)" fill="#3b3c40"/>
        <path id="Trazado_881146" data-name="Trazado 881146" d="M106.894,33.025s-4.939-4.407-6.156-5.1-6.423,3.452-8.767,2.6S81.484,22.1,79.307,20.413s-7.734,6.307-7.734,6.307l-2.43-4.872s7.812-5.034,10.242-4.34,10.937,10.071,13.367,9.9,6.77-2.433,8.682-2.953,6.319,7.727,6.319,7.727Z" transform="translate(84.744 21.378)" fill="#44839e"/>
        <path id="Trazado_881147" data-name="Trazado 881147" d="M81.366,30.361c-.521,1.389-2.778,6.6-5.034,6.77-1.625.125-7.042-2.459-9.937-3.91a51.944,51.944,0,0,1,5.293-7.567c3.512,1.082,10.089,3.6,9.679,4.707" transform="translate(81.374 31.442)" fill="#346378"/>
        <path id="Trazado_881148" data-name="Trazado 881148" d="M71.875,42.494c-.263-.138-7.445-4-9.924-8.972a1.8,1.8,0,0,1,.236-.223c1.974-1.5,4.765-.125,4.994-.007l.013.007c1.513,6.561,4.494,9.047,4.68,9.194" transform="translate(75.929 39.961)" fill="#64bed9"/>
        <path id="Trazado_881149" data-name="Trazado 881149" d="M53.251,38.689,50.947,65.5a2.83,2.83,0,0,0,2.829,2.822h7.843A2.825,2.825,0,0,0,64.443,65.5l2.208-22.058a3.3,3.3,0,0,0-2.927-3.61Z" transform="translate(62.442 47.419)" fill="#444b69"/>
        <path id="Trazado_881150" data-name="Trazado 881150" d="M66.008,53.487H51.453a1.349,1.349,0,1,1,0-2.7H66.008a1.349,1.349,0,1,1,0,2.7" transform="translate(61.409 62.25)" fill="#444b69"/>
        <path id="Trazado_881151" data-name="Trazado 881151" d="M7.38,43.824V59.2A2.827,2.827,0,0,0,10.2,62.025h7.848A2.827,2.827,0,0,0,20.876,59.2V45.108Z" transform="translate(9.045 53.712)" fill="#444b69"/>
        <g id="Grupo_1101612" data-name="Grupo 1101612" transform="translate(16.426 97.537)" opacity="0.4" style="mix-blend-mode: multiply;isolation: isolate">
          <g id="Grupo_1101611" data-name="Grupo 1101611">
            <g id="Grupo_1101610" data-name="Grupo 1101610" clip-path="url(#clip-path-8)">
              <path id="Trazado_881152" data-name="Trazado 881152" d="M7.38,43.824v11.5l13.5.06V45.109Z" transform="translate(-7.38 -43.824)" fill="#444b69"/>
            </g>
          </g>
        </g>
        <path id="Trazado_881153" data-name="Trazado 881153" d="M55.756,28.871l-.67,2.045s7.425,7.22,9.232,7A14.44,14.44,0,0,0,68.9,35.919c1.017-.648,1.776-1.284,1.783-1.658.018-.919-6.3-6.568-7.071-6.474a26.926,26.926,0,0,0-2.976.964c-1.422.519-2.8,1.046-2.8,1.046Z" transform="translate(67.515 34.055)" fill="#ffb655"/>
        <path id="Trazado_881154" data-name="Trazado 881154" d="M7.192,24.9A13.7,13.7,0,0,0,9.2,28.933c1.226,1.351,11.56.739,11.56.739l.832-1.987L19.42,27.03s-.8-1.48-1.591-2.887a22.977,22.977,0,0,0-1.469-2.41c-.525-.579-9-.43-9.588.276-.269.325-.033,1.54.421,2.887" transform="translate(8.16 26.2)" fill="#ffb655"/>
        <path id="Trazado_881155" data-name="Trazado 881155" d="M121.542,90.154c-.136.236-.265.454-.385.634a9.083,9.083,0,0,1-.8,1.026,10.851,10.851,0,0,1-8.638,3.857l-93.646-4.46a10.843,10.843,0,0,1-8.233-4.66,8.457,8.457,0,0,1-.7-1.1,42.014,42.014,0,0,1-2.709-8.965C6,74.072,8.289,53.2,8.685,52.487s5.849-2.858,5.849-2.858l0-.013c.178-.381,3.136-6.759,7.173-14,3.786-6.8,8.524-14.34,12.768-18.344l.007-.013c5.219-4.89,34.119-3.332,34.2-3.327s28.328,1.175,33.551,6.388a1.354,1.354,0,0,1,.185.189c3.844,4.389,7.845,12.346,10.968,19.472,3.323,7.592,5.671,14.224,5.8,14.62l.007.013s-1.9,8.711-2.991,15.221c-.187,1.131-.356,2.194-.476,3.134-.065.45-.118.87-.158,1.257-.487,4.565,3.962,12.57,5.971,15.927" transform="translate(7.82 16.783)" fill="#ffb655"/>
        <path id="Trazado_881156" data-name="Trazado 881156" d="M19.009,17.261c15.424,4.732,52.819,7.9,67.746,3.056-5.224-5.208-33.471-6.381-33.554-6.385s-28.973-1.558-34.192,3.33" transform="translate(23.298 16.783)" fill="#fcce60"/>
        <path id="Trazado_881157" data-name="Trazado 881157" d="M84.329,36.3,82.7,47.27l-30.863,1.7L18.517,44.35l.6-9.771Z" transform="translate(22.695 42.382)" fill="#485066"/>
        <path id="Trazado_881158" data-name="Trazado 881158" d="M65.915,50.71v.007a16.19,16.19,0,0,1-.677,1.927,5.54,5.54,0,0,1-1.351,2.119c-.659.539-8.028.507-16.844.269l.338-1.994.69-4.18a18.506,18.506,0,0,0,5.671,1.224C55,49.9,57.124,46,58.119,44.367c.737-.02,1.44-.042,2.094-.073,2.13,1.3,5.586,4.186,5.7,6.416" transform="translate(57.658 54.288)" fill="#303645"/>
        <path id="Trazado_881159" data-name="Trazado 881159" d="M10.991,51.335a4.844,4.844,0,0,0,1,1.809c.608.6,7.945,1.266,16.739,1.867l-.734-10.618c-9.481-.961-16.318-1.932-17.676-2.555a19.06,19.06,0,0,0,.674,9.5" transform="translate(12.231 51.278)" fill="#303645"/>
        <path id="Trazado_881160" data-name="Trazado 881160" d="M76.979,56.291c-13.389-.416-28.515-1.2-28.55-1.2S33.264,54.432,19.9,53.573c.036-.723.071-1.507.118-2.317.136-2.864.316-6.076.441-8.072,7.834.721,16.957,1.407,26.1,1.876h.013L58.981,47.1s2.559-.761,4.509-1.4c.917-.3,1.7-.574,2.016-.726s1.747.236,3.5.835h.007c3.332,1.14,7.85,3.009,8.279,3.2-.065,1.678-.149,3.572-.225,5.308-.024.685-.058,1.36-.087,1.976" transform="translate(24.391 52.928)" fill="#303645"/>
        <g id="Grupo_1101615" data-name="Grupo 1101615" transform="translate(23.223 102.612)" opacity="0.3" style="mix-blend-mode: screen;isolation: isolate">
          <g id="Grupo_1101614" data-name="Grupo 1101614">
            <g id="Grupo_1101613" data-name="Grupo 1101613" clip-path="url(#clip-path-9)">
              <path id="Trazado_881161" data-name="Trazado 881161" d="M65.242,48.046a5.615,5.615,0,0,1-1.355,2.121c-.659.539-8.03.507-16.841.269l.332-2a154.473,154.473,0,0,0,17.865-.392" transform="translate(34.436 -43.725)" fill="#5b6b6e"/>
              <path id="Trazado_881162" data-name="Trazado 881162" d="M77.067,49.87c-.027.688-.06,1.355-.089,1.979-13.392-.418-28.51-1.2-28.55-1.2s-15.163-.661-28.528-1.52c.036-.721.071-1.509.116-2.319,16.69,1.177,39.61,2.611,57.052,3.06" transform="translate(1.167 -45.24)" fill="#5b6b6e"/>
              <path id="Trazado_881163" data-name="Trazado 881163" d="M28.008,47.422l.165,2.359c-8.8-.6-16.136-1.271-16.741-1.867a4.826,4.826,0,0,1-1-1.809c2.377.191,8.9.7,17.574,1.318" transform="translate(-10.435 -46.105)" fill="#5b6b6e"/>
            </g>
          </g>
        </g>
        <path id="Trazado_881164" data-name="Trazado 881164" d="M51.259,48.672c-.107,2.232,1.151,4.1,2.807,4.182s3.085-1.665,3.192-3.9-1.151-4.1-2.807-4.182-3.085,1.665-3.192,3.9" transform="translate(62.817 54.875)" fill="#5b6b6e"/>
        <path id="Trazado_881165" data-name="Trazado 881165" d="M51.5,48.293c-.087,1.825.941,3.358,2.3,3.423s2.524-1.364,2.611-3.189-.941-3.358-2.3-3.423-2.524,1.364-2.611,3.189" transform="translate(63.118 55.279)" fill="#839a9e"/>
        <g id="Grupo_1101618" data-name="Grupo 1101618" transform="translate(14.202 66.415)" opacity="0.3" style="mix-blend-mode: multiply;isolation: isolate">
          <g id="Grupo_1101617" data-name="Grupo 1101617">
            <g id="Grupo_1101616" data-name="Grupo 1101616" clip-path="url(#clip-path-10)">
              <path id="Trazado_881166" data-name="Trazado 881166" d="M9.839,66.761a9.155,9.155,0,0,1-.7-1.1,41.7,41.7,0,0,1-2.7-8.963C6,54.282,8.286,33.41,8.684,32.693s5.844-2.851,5.844-2.851C11.3,38.324,9.016,59,9.839,66.761" transform="translate(-6.381 -29.84)" fill="#c99043"/>
            </g>
          </g>
        </g>
        <path id="Trazado_881167" data-name="Trazado 881167" d="M112.493,42.277c-.185,1.131-.354,2.194-.476,3.134a47.4,47.4,0,0,1-13.63,7.527c-2.82.83-18.74-2.519-19.606-2.575s-14.516,1.282-16.361,1.215l0,.007-.276-.013c-.18-.007-.278-.013-.278-.013v-.007c-4.416-.265-34.241-2.123-40.11-4.106C15.418,45.3,11.7,42.177,9.409,36.179c4.827,2.989,23.612,6.644,52.992,8.043,5.459.26,12.626,2.194,15.524,2.221s12.475-1.812,17.582-2.09a96.086,96.086,0,0,0,16.986-2.077" transform="translate(11.532 44.342)" fill="#fcce60"/>
        <path id="Trazado_881168" data-name="Trazado 881168" d="M18.909,47.106a4.044,4.044,0,1,1-3.848-4.233,4.044,4.044,0,0,1,3.848,4.233" transform="translate(13.267 52.54)" fill="#5b6b6e"/>
        <path id="Trazado_881169" data-name="Trazado 881169" d="M17.769,46.665A3.309,3.309,0,1,1,14.622,43.2a3.309,3.309,0,0,1,3.147,3.463" transform="translate(13.672 52.945)" fill="#839a9e"/>
        <path id="Trazado_881170" data-name="Trazado 881170" d="M114.709,42.542A16.6,16.6,0,0,1,105.23,50.2c-7.046,2.564-19.5,3.848-43.467,2.706-.8-.038-1.576-.073-2.344-.118-19.757-1.046-31.181-3.042-38.1-5.624-7.187-2.693-9.517-6.029-11.277-9.61l.007-.013c.171-.381,3.138-6.759,7.173-14l4.336.207L62.934,28.3l41.63-.6,4.336.2c3.323,7.592,5.669,14.224,5.8,14.62Z" transform="translate(12.308 28.856)" fill="#fcce60"/>
        <g id="Grupo_1101621" data-name="Grupo 1101621" transform="translate(114.336 56.502)" opacity="0.3" style="mix-blend-mode: multiply;isolation: isolate">
          <g id="Grupo_1101620" data-name="Grupo 1101620">
            <g id="Grupo_1101619" data-name="Grupo 1101619" clip-path="url(#clip-path-11)">
              <path id="Trazado_881171" data-name="Trazado 881171" d="M51.589,49.513c4.222-1.8,6.8-4.169,7.881-7.249,1.424-4.055.236-9.261-3.855-16.877l-.485.263c4.011,7.467,5.188,12.535,3.821,16.432-1.028,2.924-3.508,5.19-7.578,6.924Z" transform="translate(-51.372 -25.387)" fill="#c99043"/>
            </g>
          </g>
        </g>
        <g id="Grupo_1101624" data-name="Grupo 1101624" transform="translate(26.432 52.387)" opacity="0.3" style="mix-blend-mode: multiply;isolation: isolate">
          <g id="Grupo_1101623" data-name="Grupo 1101623">
            <g id="Grupo_1101622" data-name="Grupo 1101622" clip-path="url(#clip-path-12)">
              <path id="Trazado_881172" data-name="Trazado 881172" d="M19.325,47.936c-4.033-2.192-6.374-4.8-7.158-7.963-1.033-4.173.648-9.241,5.442-16.434l.461.3c-4.7,7.053-6.359,11.987-5.366,16,.743,3.009,3,5.5,6.884,7.612Z" transform="translate(-11.877 -23.537)" fill="#c99043"/>
            </g>
          </g>
        </g>
        <path id="Trazado_881173" data-name="Trazado 881173" d="M26.88,15.427S51.635,17.343,58.8,17.684s31.987.786,31.987.786,6.287,7.111,10.843,19.659c-1.015,1.976-43.809.122-43.809.122s-42.779-2.221-43.6-4.287C19.945,21.906,26.88,15.427,26.88,15.427" transform="translate(17.426 18.908)" fill="#4b5774"/>
        <path id="Trazado_881174" data-name="Trazado 881174" d="M31.48,45.779c-.659.592-14.113-1.959-19.178-3.8a5.738,5.738,0,0,1-1.767-.879c-1.756-1.74-1.091-7.963-.692-8.68.073-.122.732-.053,1.792.162C16.726,33.6,30.946,37.873,31.8,38.986c1.044,1.335-.323,6.793-.323,6.793" transform="translate(11.497 39.659)" fill="#c9ecf2"/>
        <path id="Trazado_881175" data-name="Trazado 881175" d="M12.3,41.977a5.757,5.757,0,0,1-1.769-.879c-1.756-1.74-1.088-7.966-.69-8.68.071-.122.73-.053,1.792.162Z" transform="translate(11.498 39.659)" fill="#ff7b48"/>
        <g id="Grupo_1101627" data-name="Grupo 1101627" transform="translate(76.482 37.709)" opacity="0.2">
          <g id="Grupo_1101626" data-name="Grupo 1101626">
            <g id="Grupo_1101625" data-name="Grupo 1101625" clip-path="url(#clip-path-13)">
              <path id="Trazado_881176" data-name="Trazado 881176" d="M65.568,17.706a67.007,67.007,0,0,1,9.957,17.939c-4.022.719-21.475.474-38.332-.191L34.365,16.943c6.875.312,27.7.7,31.2.763" transform="translate(-34.364 -16.943)" fill="#fff"/>
            </g>
          </g>
        </g>
        <path id="Trazado_881177" data-name="Trazado 881177" d="M60.555,27.788a26.907,26.907,0,0,0-2.976.961l8.264,7.169c1.017-.645,1.776-1.284,1.783-1.658.018-.917-6.3-6.566-7.071-6.472" transform="translate(70.57 34.056)" fill="#fcce60"/>
        <path id="Trazado_881178" data-name="Trazado 881178" d="M7.192,24.9l10.636-.752a22.977,22.977,0,0,0-1.469-2.41c-.525-.579-9-.43-9.588.276-.269.325-.033,1.54.421,2.887" transform="translate(8.16 26.2)" fill="#fcce60"/>
        <g id="Grupo_1101630" data-name="Grupo 1101630" transform="translate(99.894 58.028)" opacity="0.3" style="mix-blend-mode: multiply;isolation: isolate">
          <g id="Grupo_1101629" data-name="Grupo 1101629">
            <g id="Grupo_1101628" data-name="Grupo 1101628" clip-path="url(#clip-path-14)">
              <path id="Trazado_881179" data-name="Trazado 881179" d="M44.883,36.733a68.563,68.563,0,0,0,.045-10.661L57.747,43.95,55.7,45.7s-10.636-7.8-10.812-8.972" transform="translate(-44.884 -26.073)" fill="#c99043"/>
            </g>
          </g>
        </g>
        <g id="Grupo_1101633" data-name="Grupo 1101633" transform="translate(112.759 56.502)" opacity="0.6" style="mix-blend-mode: screen;isolation: isolate">
          <g id="Grupo_1101632" data-name="Grupo 1101632">
            <g id="Grupo_1101631" data-name="Grupo 1101631" clip-path="url(#clip-path-15)">
              <path id="Trazado_881180" data-name="Trazado 881180" d="M50.664,44.79l5.82-19.4s1.91,5.517,1.981,6.448-2.324,12.288-2.791,12.381-5.01.574-5.01.574" transform="translate(-50.663 -25.387)" fill="#fcce60"/>
            </g>
          </g>
        </g>
        <path id="Trazado_881181" data-name="Trazado 881181" d="M78.7,47.069a5.42,5.42,0,0,0-.661.581C70.99,50.211,58.542,51.5,34.569,50.356c-.795-.04-1.576-.076-2.341-.12,11.15-1.818,27.322-12.791,28.165-12.958.933-.191,10.868,7.816,12.864,7.215s5.121-5.317,5.566-7.38.728-11.486.728-11.486,3.463,6.234,3.777,11.811a11.2,11.2,0,0,1-4.632,9.63" transform="translate(39.5 31.409)" fill="#303645"/>
        <path id="Trazado_881182" data-name="Trazado 881182" d="M63.8,45.328c-1.046.062-2.479-1.509-4.349-1.251-.216.031-.525.093-.913.18-.541.12-1.235.287-2,.481-2.92.73-6.953,1.769-8.313,1.712-.249,0-.414-.056-.458-.147a1.88,1.88,0,0,1-.129-.367c-.383-1.444-.714-5.729.111-6.586.85-.892,9.261-4.663,10.881-4.7s5.9,2.6,6.532,4.015-.314,6.59-1.36,6.659" transform="translate(57.893 42.473)" fill="#8f8b81"/>
        <path id="Trazado_881183" data-name="Trazado 881183" d="M63.8,45.328c-1.046.062-2.479-1.509-4.349-1.251-.216.031-.525.093-.913.18L59.9,43.232l2.575.643.763-1.418-1.324-.236-.525-1.068,1.809-.316-.579-1.3,1.146-.877L60.3,36.005,57.557,35.3,56,38.756s-3.49-.861-3.663-.87-3.107,1.883-3.107,1.883L48.7,42.462l1.071,1.907,1.213-2.377.7,2.348,4.854.4.276.02s-6.55,2.533-7.131,2.615c-.231.038-.83-.394-1.458-.924-.194-.169-.394-.338-.588-.514-.383-1.444-.714-5.729.111-6.586.85-.892,9.261-4.663,10.881-4.7s5.9,2.6,6.532,4.015-.314,6.59-1.36,6.659" transform="translate(57.893 42.473)" fill="#c9ecf2"/>
        <path id="Trazado_881184" data-name="Trazado 881184" d="M77.169,38.018l3.819,13.194L82.724,40.8l13.714,7.812L88.106,32.463l25.519-14.582L87.932,22.568,96.091.347,81.162,19.964,73,0,73.7,21.526,50.435,11.978S72.308,28.123,71.614,28.123,42.623,33.5,42.623,33.5l32.116-.521L53.907,45.136Z" transform="translate(52.24 0)" fill="#ff6742"/>
        <path id="Trazado_881185" data-name="Trazado 881185" d="M69.131,29.517l1.852,11.226,1.042-11.11,8.911,7.523L75.612,26.161,94.361,16.44,74.57,20.722,81.977,4.751,70.867,19.217,65.659,4.056l1.389,14.7L50.614,12.621,65.08,23.152,50.267,26.624l16.781,1.042L55.59,34.841Z" transform="translate(61.608 4.972)" fill="#ffca61"/>
      </g>
    </g>
  </g>
</svg>
