<svg xmlns="http://www.w3.org/2000/svg" width="122.932" height="122.932" viewBox="0 0 122.932 122.932">
  <g id="Grupo_1103682" data-name="Grupo 1103682" transform="translate(-791.051 -1798.342)">
    <rect id="Rectángulo_403526" data-name="Rectángulo 403526" width="122.932" height="122.932" transform="translate(791.051 1798.342)" fill="#b1fafc"/>
    <g id="hand_3613375" transform="translate(810.083 1815.969)">
      <g id="Grupo_1103693" data-name="Grupo 1103693" transform="translate(2.391 2.392)">
        <g id="Grupo_1103686" data-name="Grupo 1103686" transform="translate(0 0)">
          <path id="Trazado_884193" data-name="Trazado 884193" d="M35.4,10.349a2.8,2.8,0,0,0-2.783,2.783V7.566A2.791,2.791,0,0,0,29.83,4.783a2.8,2.8,0,0,0-2.783,2.783V4.783A2.791,2.791,0,0,0,24.264,2a2.721,2.721,0,0,0-1.962.821,2.721,2.721,0,0,0-.821,1.962V7.566A2.8,2.8,0,0,0,18.7,4.783a2.791,2.791,0,0,0-2.783,2.783v22.7a2.358,2.358,0,0,1-2.352,2.352,2.195,2.195,0,0,1-2.171-1.781c-.39-1.92-1.016-5.051-1.517-7.653A5.559,5.559,0,0,0,4.421,18.7H4.338A2.334,2.334,0,0,0,2,21.078v.1a2.816,2.816,0,0,0,.07.6c.877,3.521,1.6,7.069,2.143,10.645l1.405,9.114a11.164,11.164,0,0,0,3.131,6.178l4.383,4.383-2.783,33.4h27.83V13.132A2.791,2.791,0,0,0,35.4,10.349Z" transform="translate(-2 -2)" fill="#f0d0b4"/>
        </g>
        <g id="Grupo_1103687" data-name="Grupo 1103687" transform="translate(16.699 55.66)">
          <path id="Trazado_884194" data-name="Trazado 884194" d="M25.132,53.132a5.566,5.566,0,0,1-11.132,0C14,48.958,19.566,42,19.566,42S25.132,48.958,25.132,53.132Z" transform="translate(-14 -42)" fill="#ef7385"/>
        </g>
        <g id="Grupo_1103688" data-name="Grupo 1103688" transform="translate(58.444 36.179)">
          <path id="Trazado_884195" data-name="Trazado 884195" d="M69.047,30.783v2.783a2.791,2.791,0,0,1-2.783,2.783H44V28H66.264A2.791,2.791,0,0,1,69.047,30.783Z" transform="translate(-44 -28)" fill="#969faa"/>
        </g>
        <g id="Grupo_1103689" data-name="Grupo 1103689" transform="translate(30.614 36.179)">
          <path id="Trazado_884196" data-name="Trazado 884196" d="M46.264,33.566v1.392l-2.212,1.656a12.587,12.587,0,0,1-20.038-8.5L24,28H46.264Z" transform="translate(-24 -28)" fill="#e6e9ed"/>
        </g>
        <g id="Grupo_1103690" data-name="Grupo 1103690" transform="translate(52.878 36.179)">
          <path id="Trazado_884197" data-name="Trazado 884197" d="M45.566,28v8.349H41.392A1.4,1.4,0,0,1,40,34.958V28Z" transform="translate(-40 -28)" fill="#fcd770"/>
        </g>
        <g id="Grupo_1103691" data-name="Grupo 1103691" transform="translate(41.746 61.226)">
          <path id="Trazado_884198" data-name="Trazado 884198" d="M75.137,48.783v5.566H40.349v2.783L32,51.566,40.349,46v2.783Z" transform="translate(-32 -46)" fill="#ffeaa7"/>
        </g>
        <g id="Grupo_1103692" data-name="Grupo 1103692" transform="translate(41.746 11.132)">
          <path id="Trazado_884199" data-name="Trazado 884199" d="M75.137,12.783v5.566H40.349v2.783L32,15.566,40.349,10v2.783Z" transform="translate(-32 -10)" fill="#ffeaa7"/>
        </g>
      </g>
      <g id="Grupo_1103694" data-name="Grupo 1103694" transform="translate(0.999 1)">
        <path id="Trazado_884200" data-name="Trazado 884200" d="M17.783,44.481h2.783V41.7h2.783V38.915H20.566V36.132h2.783V33.349H20.566V30.566h2.783V27.783H20.566V25H17.783v2.783H15v2.783h2.783v2.783H15v2.783h2.783v2.783H15V41.7h2.783Z" transform="translate(4.482 8.396)"/>
        <path id="Trazado_884201" data-name="Trazado 884201" d="M19.958,40.4l-1.087,1.358c-.6.751-5.871,7.47-5.871,12a6.958,6.958,0,1,0,13.915,0c0-4.532-5.27-11.25-5.871-12Zm0,17.534a4.18,4.18,0,0,1-4.175-4.175c0-2.425,2.452-6.4,4.175-8.814,1.723,2.414,4.175,6.384,4.175,8.814A4.18,4.18,0,0,1,19.958,57.933Z" transform="translate(3.699 14.425)"/>
        <path id="Trazado_884202" data-name="Trazado 884202" d="M83.1,37.179H39.962V13.524a4.18,4.18,0,0,0-4.175-4.175,4.128,4.128,0,0,0-1.392.256V7.958a4.161,4.161,0,0,0-5.727-3.868,4.151,4.151,0,0,0-8.026,0,4.161,4.161,0,0,0-5.727,3.868v22.69a.967.967,0,0,1-.963.966.813.813,0,0,1-.808-.658c-.383-1.919-1-5.053-1.513-7.653a6.979,6.979,0,0,0-6.906-5.6,3.7,3.7,0,0,0-2.659,1.116A3.745,3.745,0,0,0,1,21.568a3.892,3.892,0,0,0,.115.939c.864,3.45,1.575,6.987,2.118,10.513l1.4,9.119a12.425,12.425,0,0,0,3.522,6.951l3.924,3.924L9.228,87.273H39.962V49.93a13.872,13.872,0,0,0,5.545,1.165,14.063,14.063,0,0,0,8.387-2.8l.92-.69a2.763,2.763,0,0,0,1.847.7H83.1a4.18,4.18,0,0,0,4.175-4.175V41.354A4.18,4.18,0,0,0,83.1,37.179ZM37.179,84.49H12.253l2.711-32.532L10.127,47.12a9.675,9.675,0,0,1-2.74-5.406L5.985,32.6C5.429,28.985,4.7,25.363,3.817,21.834a1.513,1.513,0,0,1-.035-.391.936.936,0,0,1,.27-.679,1,1,0,0,1,.761-.282A4.167,4.167,0,0,1,8.9,23.835c.508,2.6,1.131,5.741,1.514,7.664a3.612,3.612,0,0,0,3.539,2.9h0A3.753,3.753,0,0,0,17.7,30.647V7.958a1.392,1.392,0,0,1,2.783,0V28.83h2.783V5.175a1.392,1.392,0,1,1,2.783,0V28.83H28.83V7.958a1.392,1.392,0,1,1,2.783,0V28.83H34.4V13.524a1.392,1.392,0,0,1,2.783,0V37.179H33l-1.563.107.2,1.564a13.959,13.959,0,0,0,5.541,9.48Zm8.328-36.179a11.218,11.218,0,0,1-10.816-8.349H53.877v2.783H42.745v2.783H52.951l-.726.545A11.271,11.271,0,0,1,45.508,48.311ZM56.66,39.962h2.783v5.566H56.66Zm27.83,4.175A1.394,1.394,0,0,1,83.1,45.528H62.227V39.962H83.1a1.394,1.394,0,0,1,1.392,1.392Z" transform="translate(-0.999 -1)"/>
        <path id="Trazado_884203" data-name="Trazado 884203" d="M42.446,12.123V8.131L30.2,16.3l12.249,8.167V20.472H56.361V17.689h-16.7v1.574L35.215,16.3l4.449-2.965v1.574H75.843V12.123Z" transform="translate(10.432 1.792)"/>
        <path id="Trazado_884204" data-name="Trazado 884204" d="M51,15H67.7v2.783H51Z" transform="translate(18.576 4.481)"/>
        <path id="Trazado_884205" data-name="Trazado 884205" d="M42.446,44.132,30.2,52.3l12.249,8.165V56.472H56.361V53.689h-16.7v1.575L35.215,52.3l4.449-2.967v1.575H75.843V48.123h-33.4Z" transform="translate(10.432 15.886)"/>
        <path id="Trazado_884206" data-name="Trazado 884206" d="M51,51H67.7v2.783H51Z" transform="translate(18.576 18.575)"/>
      </g>
    </g>
  </g>
</svg>
