<svg xmlns="http://www.w3.org/2000/svg" width="122.932" height="122.932" viewBox="0 0 122.932 122.932">
  <g id="Grupo_1103683" data-name="Grupo 1103683" transform="translate(-1107.051 -1798.342)">
    <rect id="Rectángulo_404337" data-name="Rectángulo 404337" width="122.932" height="122.932" transform="translate(1107.051 1798.342)" fill="#b1fafc"/>
    <g id="sunburn_11009188" transform="translate(1126.831 1784.472)">
      <g id="Grupo_1103701" data-name="Grupo 1103701" transform="translate(1.221 41.415)">
        <g id="Grupo_1103699" data-name="Grupo 1103699" transform="translate(0 0)">
          <g id="Grupo_1103698" data-name="Grupo 1103698">
            <g id="Grupo_1103697" data-name="Grupo 1103697">
              <g id="Grupo_1103695" data-name="Grupo 1103695">
                <path id="Trazado_884207" data-name="Trazado 884207" d="M88.432,115.535S84.5,91.262,80.131,76.27a13.882,13.882,0,0,0-5.949-7.865L56.752,57.461V47.694H39.181v9.767L21.751,68.405A13.881,13.881,0,0,0,15.8,76.27c-4.371,14.991-8.3,39.264-8.3,39.264Z" transform="translate(-7.501 -47.694)" fill="#ffdfd0"/>
              </g>
              <g id="Grupo_1103696" data-name="Grupo 1103696" transform="translate(42.193 0)">
                <path id="Trazado_884208" data-name="Trazado 884208" d="M305.349,115.537H297.8c-1.187-6.913-4.359-24.5-7.806-36.326a13.883,13.883,0,0,0-5.948-7.865L267.373,60.88a1.628,1.628,0,0,1-.762-1.379V47.7h7.057v9.767L291.1,68.408a13.886,13.886,0,0,1,5.95,7.865c4.371,14.991,8.3,39.264,8.3,39.264Z" transform="translate(-266.611 -47.697)" fill="#ffcec0"/>
              </g>
              <path id="Trazado_884209" data-name="Trazado 884209" d="M386.535,210.038a13.812,13.812,0,0,0-1.036-2.557c-1.136,2.721-1.933,6.951-.694,13.081,1.944,9.619-11.423,5.75-11.3,18.612a32.369,32.369,0,0,0,1.729,10.128h19.6S390.906,225.029,386.535,210.038Z" transform="translate(-313.904 -181.462)" fill="#f69583"/>
              <path id="Trazado_884210" data-name="Trazado 884210" d="M434.79,210.038a13.814,13.814,0,0,0-1.036-2.557c-1.136,2.721-1.933,6.951-.694,13.081.625,3.092-.333,4.789-1.915,6.1,1.994,9.048,3.617,18.125,4.393,22.642h7.552C443.087,249.282,439.159,225.023,434.79,210.038Z" transform="translate(-362.159 -181.462)" fill="#ea806f"/>
              <path id="Trazado_884211" data-name="Trazado 884211" d="M183.774,66.665c9.394-2.995,16.474,6.427,19.873-4.53L196.2,57.461V47.694H178.631v9.767l-4.555,2.86C174.833,63.318,177.146,68.778,183.774,66.665Z" transform="translate(-146.951 -47.694)" fill="#f69583"/>
              <path id="Trazado_884212" data-name="Trazado 884212" d="M273.668,47.7h-7.057V59.5a1.629,1.629,0,0,0,.762,1.379L277.5,67.235c1.465-.612,2.681-2.082,3.617-5.1l-7.444-4.674V47.7Z" transform="translate(-224.418 -47.696)" fill="#ea806f"/>
            </g>
          </g>
        </g>
        <g id="Grupo_1103700" data-name="Grupo 1103700" transform="translate(40.975 31.796)">
          <path id="Trazado_884213" data-name="Trazado 884213" d="M259.349,259.665a9.041,9.041,0,0,0,.024-4.262c-.265-1.039-.128-2.451,1.48-3.941,3.215-2.98,1.737-4.1,6.529-7.372,4.136-2.823,11.772-.208,7.352,5.8-6.112,8.313-2.308,9.751-7.529,15.057C263.888,268.323,257.916,265.871,259.349,259.665Z" transform="translate(-259.131 -242.952)" fill="#f69583"/>
          <path id="Trazado_884214" data-name="Trazado 884214" d="M287.149,249.9c-6.111,8.313-2.307,9.751-7.528,15.058a4.734,4.734,0,0,1-5.66.975,5.216,5.216,0,0,0,1.312-.975c5.221-5.307,1.417-6.745,7.528-15.058,2.531-3.442,1.111-5.771-1.343-6.6C285.633,241.965,291.025,244.626,287.149,249.9Z" transform="translate(-271.546 -242.956)" fill="#ea806f"/>
        </g>
      </g>
      <g id="Grupo_1103702" data-name="Grupo 1103702" transform="translate(-0.001 40.194)">
        <path id="Trazado_884215" data-name="Trazado 884215" d="M491.32,411.383c-.006-.037-.607-3.743-1.581-9.06a1.221,1.221,0,0,0-2.4.44c.969,5.29,1.567,8.973,1.573,9.01a1.222,1.222,0,0,0,1.2,1.026,1.223,1.223,0,0,0,1.207-1.417Z" transform="translate(-407.962 -342.516)"/>
        <path id="Trazado_884216" data-name="Trazado 884216" d="M16.12,161.853l2.412-1.514a1.221,1.221,0,0,0-1.3-2.069l-2.412,1.514a15.087,15.087,0,0,0-6.473,8.557C4.007,183.233.055,207.509.015,207.753a1.221,1.221,0,1,0,2.411.39c.039-.242,3.968-24.371,8.267-39.118a12.647,12.647,0,0,1,5.426-7.173Z" transform="translate(0.001 -138.886)"/>
        <path id="Trazado_884217" data-name="Trazado 884217" d="M188.6,96.1a1.221,1.221,0,0,0,.967-1.431c-2.013-10.419-3.947-18.836-5.749-25.017a15.087,15.087,0,0,0-6.473-8.558L160.486,50.507V41.415a1.221,1.221,0,1,0-2.443,0v9.767a1.222,1.222,0,0,0,.572,1.034l6.628,4.162c-1.672,4.558-3.895,4.047-8.086,3.079-2.953-.682-6.627-1.531-10.692-.234a5.9,5.9,0,0,1-4.763-.162,7.74,7.74,0,0,1-3.137-4.473l3.778-2.372a1.221,1.221,0,0,0,.572-1.034V41.415a1.221,1.221,0,1,0-2.443,0v9.092l-9.947,6.246a1.221,1.221,0,1,0,1.3,2.069l4.615-2.9a9.557,9.557,0,0,0,4.075,5.272,8.222,8.222,0,0,0,6.692.355c3.426-1.092,6.6-.359,9.4.287a20.443,20.443,0,0,0,4.463.7c2.465,0,4.71-1.025,6.275-4.836l8.7,5.463a12.672,12.672,0,0,1,4.218,4.362c-1.389,3.7-1.574,8.145-.546,13.235.756,3.74-1.125,4.857-3.973,6.547l-.459.274c-.857-4.671-1.524-8-1.54-8.079a1.221,1.221,0,1,0-2.395.481c.017.083.777,3.881,1.717,9.049-2.5,1.863-4.727,4.628-4.675,10.109a33.614,33.614,0,0,0,1.794,10.509,1.221,1.221,0,1,0,2.313-.786,31.18,31.18,0,0,1-1.665-9.747c-.035-3.715,1.1-5.819,2.727-7.332,1.005,5.688,2.1,12.389,2.673,17.606a1.221,1.221,0,0,0,1.212,1.088,1.271,1.271,0,0,0,.135-.007,1.221,1.221,0,0,0,1.08-1.348c-.623-5.646-1.841-13-2.909-18.966.406-.255.821-.5,1.239-.75,2.915-1.731,6.219-3.692,5.12-9.132a25.529,25.529,0,0,1-.343-8.9c1.68,5.952,3.539,14.131,5.4,23.759a1.22,1.22,0,0,0,1.43.967Z" transform="translate(-108.792 -40.194)"/>
        <path id="Trazado_884218" data-name="Trazado 884218" d="M89.245,275.576a1.221,1.221,0,0,0-1.438.957c-.037.182-3.669,18.321-4.916,29.621a1.221,1.221,0,0,0,1.08,1.348,1.271,1.271,0,0,0,.135.007,1.221,1.221,0,0,0,1.212-1.088c1.235-11.192,4.847-29.227,4.883-29.408a1.221,1.221,0,0,0-.957-1.438Z" transform="translate(-69.386 -237.226)"/>
        <path id="Trazado_884219" data-name="Trazado 884219" d="M269.818,237.292c-2.125-2.2-6.507-2.412-9.377-.453a12.2,12.2,0,0,0-4.528,4.718,9.887,9.887,0,0,1-2.143,2.767,5.187,5.187,0,0,0-1.834,5.138,7.777,7.777,0,0,1-.031,3.686c-.767,3.323.3,6.234,2.78,7.6a5.711,5.711,0,0,0,2.758.709,6.157,6.157,0,0,0,4.38-1.889,12.243,12.243,0,0,0,3.3-5.183,1.221,1.221,0,0,0-2.336-.713,9.616,9.616,0,0,1-2.7,4.183,3.526,3.526,0,0,1-4.221.752c-1.505-.826-2.094-2.661-1.575-4.907a10.188,10.188,0,0,0,.018-4.839,2.759,2.759,0,0,1,1.127-2.744,12.248,12.248,0,0,0,2.607-3.353,9.914,9.914,0,0,1,3.781-3.906c2.076-1.417,5.061-1.092,6.243.132,1.094,1.134.3,2.768-.564,3.939a26.324,26.324,0,0,0-3.215,5.492,1.221,1.221,0,1,0,2.258.932,23.953,23.953,0,0,1,2.925-4.976c2.806-3.816,1.181-6.225.353-7.083Z" transform="translate(-210.68 -203.693)"/>
        <path id="Trazado_884220" data-name="Trazado 884220" d="M326.242,429.307a1.221,1.221,0,0,0-1.221,1.221v.013a1.221,1.221,0,1,0,1.221-1.234Z" transform="translate(-272.095 -365.944)"/>
        <path id="Trazado_884221" data-name="Trazado 884221" d="M304.86,192.376a1.225,1.225,0,1,0-1.221-1.228v.013A1.216,1.216,0,0,0,304.86,192.376Z" transform="translate(-254.195 -165.545)"/>
        <path id="Trazado_884222" data-name="Trazado 884222" d="M237.123,118.932a1.228,1.228,0,1,0,0-.013Z" transform="translate(-198.51 -105.077)"/>
        <path id="Trazado_884223" data-name="Trazado 884223" d="M299.368,283.616a1.221,1.221,0,1,0-2.443,0v.013a1.221,1.221,0,0,0,2.443-.013Z" transform="translate(-248.574 -242.955)"/>
        <path id="Trazado_884224" data-name="Trazado 884224" d="M286.106,305.434a1.221,1.221,0,0,0-1.221,1.221v.013a1.221,1.221,0,1,0,1.221-1.234Z" transform="translate(-238.495 -262.243)"/>
        <path id="Trazado_884225" data-name="Trazado 884225" d="M333.479,205.076a1.221,1.221,0,1,0-2.443,0v.013a1.221,1.221,0,0,0,2.443-.013Z" transform="translate(-277.13 -177.205)"/>
        <path id="Trazado_884226" data-name="Trazado 884226" d="M278.159,226.013a1.225,1.225,0,1,0-1.221-1.228v.013A1.216,1.216,0,0,0,278.159,226.013Z" transform="translate(-231.842 -193.704)"/>
        <path id="Trazado_884227" data-name="Trazado 884227" d="M223.9,96.7a1.224,1.224,0,1,0-1.221-1.228v.013A1.216,1.216,0,0,0,223.9,96.7Z" transform="translate(-186.415 -85.448)"/>
        <path id="Trazado_884228" data-name="Trazado 884228" d="M385.251,247.2a1.225,1.225,0,1,0-1.221-1.228v.013A1.216,1.216,0,0,0,385.251,247.2Z" transform="translate(-321.495 -211.441)"/>
        <path id="Trazado_884229" data-name="Trazado 884229" d="M304.86,406.329a1.221,1.221,0,0,0-1.221,1.221v.013a1.221,1.221,0,1,0,1.221-1.234Z" transform="translate(-254.195 -346.708)"/>
      </g>
    </g>
  </g>
</svg>
