<svg xmlns="http://www.w3.org/2000/svg" xmlns:xlink="http://www.w3.org/1999/xlink" width="315" height="195" viewBox="0 0 315 195">
  <defs>
    <clipPath id="clip-path">
      <rect id="Rect치ngulo_402555" data-name="Rect치ngulo 402555" width="255.949" height="150.085" fill="none"/>
    </clipPath>
  </defs>
  <g id="Grupo_1103028" data-name="Grupo 1103028" transform="translate(-390.051 -752)">
    <g id="Grupo_1101325" data-name="Grupo 1101325">
      <rect id="Rect치ngulo_402548" data-name="Rect치ngulo 402548" width="315" height="195" transform="translate(390.051 752)" fill="#eefad1"/>
      <circle id="Elipse_11667" data-name="Elipse 11667" cx="79.5" cy="79.5" r="79.5" transform="translate(459.051 772)" fill="#fafdf2"/>
      <g id="Grupo_1101324" data-name="Grupo 1101324" transform="translate(402.051 776.458)">
        <g id="Grupo_1101323" data-name="Grupo 1101323" clip-path="url(#clip-path)">
          <path id="Trazado_880140" data-name="Trazado 880140" d="M33.263,226.876c-1.241-1.691-1.288-3.7-1.453-5.659-.561-6.632-1.778-13.178-2.525-19.785a39.724,39.724,0,0,1-.181-8.807,2.226,2.226,0,0,1,1.538-2.21,2.154,2.154,0,0,1,2.646,1.223,23.224,23.224,0,0,1,1.508,3.273c1.554,4.479,4.642,7.954,7.5,11.577a4.533,4.533,0,0,0,3.462,1.557c3.658.212,7.318.459,10.98.53,7.864.152,15.732.17,23.59-.253,3.945-.213,7.881-.582,11.822-.874.548-.041.907-.14.791-.859-1.091-6.8.677-13.307,2.119-19.839.425-1.925.909-3.845,1.511-5.721.888-2.769,2.651-3.673,5.357-2.682,2.373.869,4.946,1.327,6.941,3.065a.925.925,0,0,1,.05.639c-1.935,1.766-3.15,4.078-4.662,6.165a3.9,3.9,0,0,0-.583,1.3c-.6,2.244-.184,2.919,2.107,3.441a6.513,6.513,0,0,1,2.571.857,1.79,1.79,0,0,1,.439.827c-.246,2.976.034,5.969-.286,8.943-.166,1.539-.053,1.684,1.542,1.452,7.916-1.15,15.833-2.291,23.763-3.345,1.243-.165,2.487-.176,3.454-.233.472.055.229.25.3.07.012-.03-.029-.057-.121-.054a22.163,22.163,0,0,1-5.136-.692c-5.954-1.191-11.9-2.444-17.879-3.486-1.725-.3-2.843-1.1-3.11-2.892a58.5,58.5,0,0,1,.811-11.441,1.64,1.64,0,0,1,1.287-1.539c3.922-.125,7.765.685,11.65,1,2.445.2,4.881.491,7.592.77-.841-1.189-1.542-2.2-2.263-3.2-3.729-5.152-7.814-10.063-11-15.584-4.894-8.475-4.657-17.057-.2-25.639q.3-.575.594-1.151c.689-.337,1.092.17,1.5.55,6.093,5.669,13.584,8.017,21.592,9.261a8.063,8.063,0,0,0,6.239-1.548,1.956,1.956,0,0,1,1.314-.519,1.764,1.764,0,0,1,1.011,1.329c1.409,4.621,3.986,8.667,6.3,12.842,6.218,11.23,12.944,22.167,19.2,33.374.541.969,1.032,1.966,1.5,2.974.236.509.587,1.046.063,1.6a5.46,5.46,0,0,1-2.84.332c-1.016,0-1.517.384-1.5,1.446.141,7.229-.457,14.48.657,21.679a4.136,4.136,0,0,1,.05,1.723c-.2.668-.759.837-1.339.914-3.575.477-7.118,1.161-10.686,1.674a6,6,0,0,1-2.422-.28c-1.95-.528-3.956-.853-5.889-1.406-4.185-1.2-7.871-.124-11.387,2.093a3.662,3.662,0,0,1-1.849.748c-6.122-.382-12.252.007-18.371-.205a134.659,134.659,0,0,0-25.2,1.562,92.517,92.517,0,0,1-11.972.721c-8.1.183-16.215.264-24.31-.017-5.693-.2-11.378-.126-17.066-.2a60.225,60.225,0,0,0-7.515.209c-1.424.159-2.969.193-3.6-1.608" transform="translate(-17.755 -84.388)" fill="#1e4678"/>
          <path id="Trazado_880141" data-name="Trazado 880141" d="M276.908,67.6a90.637,90.637,0,0,1,11.487-13.469,44.383,44.383,0,0,1,17.038-10.149,34.769,34.769,0,0,1,3.443-1.022c1.037-.217,1.685-.683,1.816-1.761a1.762,1.762,0,0,0,1.735.675,21.263,21.263,0,0,1,4.665-.249c1.882.071,3.764.011,5.646.033a7.483,7.483,0,0,1,1.443.093c1.566.323,1.816.758,1.092,2.17a11.729,11.729,0,0,0-1.256,5.164c-.056,2.99-.4,5.964-.4,8.957,0,1.162.395,1.564,1.552,1.34a20.8,20.8,0,0,1,2.3-.236c1.3-.1,1.825.513,1.454,1.756a21.439,21.439,0,0,1-1.219,2.939,14.066,14.066,0,0,0-.726,1.735,5.423,5.423,0,0,0-.439,1.7c1.149-2.5,2.326-4.642,3.241-6.914a10.4,10.4,0,0,1,1.992-3.652,1.562,1.562,0,0,1,.906-.208c.242.026.538.065.644.268.713,1.37.471,2.9.61,4.352.087.917-.7,1.466-1.448,1.811C330.176,64,329.4,66.164,328.7,68.3a19.257,19.257,0,0,1-5.862,8.4,12.006,12.006,0,0,0-1.195,1.243c-.475.291-.381.681-.235,1.123.525,1.586.9,3.134-.691,4.427-.517.42-.146,1.336-.746,1.8-.554-.087-.542-.57-.677-.95-.336-.55-.805-.211-1.158-.1a51.853,51.853,0,0,1-8.892,1.85,3.479,3.479,0,0,0-1.892.628,3.318,3.318,0,0,1-3.2-2.738,8.786,8.786,0,0,0-.809-2.424c.017-.517.315-.941.794-.8,2.476.746,4.742-.476,7.1-.719a53.4,53.4,0,0,0,7.17-1.722c1.065-.262,1.4-.784,1.1-1.882-1.324-4.846-2.022-9.83-3.185-14.715-.7-2.957-1.373-5.922-2.2-8.849-.072-.254-.1-.584-.573-.717a12.816,12.816,0,0,0,.712,2.932c1.555,6.626,2.828,13.312,4.267,19.962.47,2.173-.024,2.9-2.138,3.477-3.453.938-7,1.409-10.5,2.145-1.551.326-1.885.144-2.214-1.448-.732-3.548-1.728-7.033-2.452-10.58-.549-2.695-1.317-5.334-1.906-8.114-.392.491-.093.867-.017,1.223.61,2.881,1.164,5.773,1.807,8.646a2.847,2.847,0,0,1-.858,2.883,30.312,30.312,0,0,1-9.133,6.535,23.9,23.9,0,0,1-6.912,1.438,3.442,3.442,0,0,1-1.8-.462,32.524,32.524,0,0,1-7.166-4.611c-1.5-1.245-1.586-1.944-.583-3.613a29.1,29.1,0,0,1,2.255-3.192,1.171,1.171,0,0,0-.014-1.778" transform="translate(-168.145 -25.285)" fill="#e2d1c5"/>
          <path id="Trazado_880142" data-name="Trazado 880142" d="M404.394,317.058c-1.269-7.953-.824-15.969-.916-23.967-.014-1.214.318-1.5,1.5-1.513,1.149-.008,2.373.337,3.477-.313a41.247,41.247,0,0,1,9.009.025c2.161,1.436,4.714,1.653,7.146,2.127,3.448.672,6.993.671,10.476,1.173.831.119,1.679.535,2.552.175a4.309,4.309,0,0,1,1.973-.31c1.647.111,2.091-.527,1.533-2.079-.127-.352-.393-.68-.257-1.1a74.712,74.712,0,0,1,9.358,2.22,33.185,33.185,0,0,1,9.662,4.447,6.758,6.758,0,0,0,1.3.549c-.124.224-.366.333-.511.534a37.9,37.9,0,0,1,3.253,4.716c2.882,6.1,2.655,12.624-3.341,16.927a11.122,11.122,0,0,1-4.427,1.7c-5.109,1.02-10.281,1.688-15.4,2.684-1.648.321-1.877.006-2.051-1.682a57.776,57.776,0,0,0-1.409-8.994,11.89,11.89,0,0,0-1.3-3.05c-.8-1.341-.65-1.677.881-2.109,1.115-.314,2.247-.557,3.379-.8,3.817-.829,7.59-1.852,11.431-2.58a1.444,1.444,0,0,0,.9-.43,25.653,25.653,0,0,0-5.981.919c-.831.2-2.032.893-2.456-.161-.349-.867.925-1.281,1.6-1.785a15.018,15.018,0,0,1,2.959-1.529,79.557,79.557,0,0,0-12.852,3.363,41.024,41.024,0,0,0-7.963,4.38,25.922,25.922,0,0,1-10.141,4.029,20.523,20.523,0,0,0-3.618,1c-1.359.036-2.616,1.081-4.045.412-.609-.469-.586-1.165-.669-1.832-.469-3.759-.863-7.529-1.547-11.259a97.453,97.453,0,0,0,1.126,10.691,5.1,5.1,0,0,1,.012,2.291,4.141,4.141,0,0,1-4.635,1.13" transform="translate(-247.596 -178.595)" fill="#e2d2c5"/>
          <path id="Trazado_880143" data-name="Trazado 880143" d="M375.318,16.738a22.04,22.04,0,0,0-5.117.362c-1.2.257-1.379-.217-1.275-1.181.628-5.338,4.691-6.785,9.225-7.923-4.455-.461-6.954.277-8.985,4.75-.544-1.924.786-4.4,2.911-5.583a11.236,11.236,0,0,1,5.2-1,8.867,8.867,0,0,0,5.772-2.605,13.785,13.785,0,0,1,4.282-2.9C390.881-.7,396-.063,398.761,3.471c.456.585.771.574,1.418.292,11.518-5.015,21.563,2.8,22.129,14.262A11.063,11.063,0,0,1,420,26a7.4,7.4,0,0,1-2.367,1.836c-1.1.065-.554-.64-.407-1a7.694,7.694,0,0,0,.379-4.395c-.155-.831-.467-1.044-1.266-.781-4.251,1.4-8.478.744-12.674-.266-1.664-.4-1.9-.931-1.567-2.636a5.17,5.17,0,0,0,.186-1.856,1.837,1.837,0,0,0-2.991-1.384,3.988,3.988,0,0,0-1.62,1.981,2.176,2.176,0,0,1-2.254,1.446,8.383,8.383,0,0,1-4.061-.8c-.5-.457-.4-1.037-.328-1.614.342-2.86,1.126-5.556,2.18-6.9a15.322,15.322,0,0,1-11.45,6.876c-2.138.34-4.3-.082-6.438.229" transform="translate(-226.379 0)" fill="#4a4b67"/>
          <path id="Trazado_880144" data-name="Trazado 880144" d="M414.173,205.8c1.354,1.682,1.41,2.314.361,3.269a1.292,1.292,0,0,1-1.44.366,1.972,1.972,0,0,0-1.806.12,12.753,12.753,0,0,1-3.778-.595,89.579,89.579,0,0,0-9.334-1.905,21.516,21.516,0,0,1-3.912-1.34,7.928,7.928,0,0,1-3.8-2.761c-5.484-6.395-11.312-12.5-16.491-19.147a121.079,121.079,0,0,1-9.276-12.881c-1.26-2.146-1.562-4.642-2.417-6.939-.908-2.44-1.263-5.043-2.14-7.5a1.567,1.567,0,0,1,.243-1.877c2.056-.646,4.247-.59,6.31-1.25,1.451-.464,2.953-.765,4.382-1.321.412-.16.853-.512,1.344-.15.1.4-.06.867.328,1.186.878,1.5.909,3.218,1.2,4.854q.619,3.484,1.263,6.963a9.212,9.212,0,0,0,1.689,3.486c5.259,7.666,9.832,15.767,14.961,23.515.8,1.2,1.464,2.487,2.276,3.685a5.368,5.368,0,0,0,5.035,2.508,20.307,20.307,0,0,0,4.5,1.807,4.646,4.646,0,0,1,1.886,1.25c2.745,1.791,5.761,3.077,8.62,4.657" transform="translate(-220.883 -93.109)" fill="#e8a98d"/>
          <path id="Trazado_880145" data-name="Trazado 880145" d="M353.109,352.363c1.42.258,2.641-.851,4.06-.594,3.248-.789,6.592-.851,9.884-1.315a4.057,4.057,0,0,0,2.894.551c1.82-.234,2.549.286,2.984,2.084a25.922,25.922,0,0,1,.9,7.266c-.04.88.566,1.756,0,2.629a3.266,3.266,0,0,1-1.547.289c-5.825.217-11.653.258-17.481.334-5.679.073-11.357.265-17.039.279a43.207,43.207,0,0,0-5.17.565,64.416,64.416,0,0,1-10.955.228,3.188,3.188,0,0,0-1.567.116c-1.774,0-3.549.018-5.323,0-.8-.006-1.564,0-1.34-1.246.183-1.019-1.259-.533-1.429-1.319a18,18,0,0,1,7.116-5.472,17.587,17.587,0,0,0-7.128,5.46c-.39-.006-.5-.3-.611-.594-1.025-.67-1.142-1.227-.328-2.153a11.716,11.716,0,0,1,3.275-2.753c1.395-.744,2.777-1.513,4.187-2.226a10.967,10.967,0,0,1,7.556-.953c1.637.366,3.328.563,4.911,1.087a13.846,13.846,0,0,0,7.774.388c2.83-.674,5.778-.74,8.6-1.491a7.739,7.739,0,0,0,4.386-1.156,5.7,5.7,0,0,1,1.387-.005" transform="translate(-190.538 -215.06)" fill="#e9a88c"/>
          <path id="Trazado_880146" data-name="Trazado 880146" d="M433.261,204.192c-2.067-1.179-4.6-1.306-6.5-2.848a1.318,1.318,0,0,1-1.134-.775c-4.934-7.6-10.063-15.067-14.454-23.007a47.624,47.624,0,0,1-4.4-11.425c-.475-1.868-1.025-3.717-1.473-5.592a2.171,2.171,0,0,1,.017-1.82,4.04,4.04,0,0,1,2.442-.717,60.54,60.54,0,0,0,6.689-1.025c2.442-.512,2.44-.523,2.826,1.738A36.546,36.546,0,0,0,420.786,172c3.407,7.167,6.054,14.681,9.469,21.856a21.24,21.24,0,0,0,1.289,2.417,2.967,2.967,0,0,0,2.165,1.537c4.826.533,8.97,3.067,13.459,4.591.36.122.8.3.711.774a.893.893,0,0,1-.994.681c-.953-.047-1.89-.335-2.655.642-.215.275-.932.09-1.382-.109-2.74-1.212-5.651-1.011-8.533-1.04-.567-.006-1.086.088-1.055.847" transform="translate(-248.592 -96.162)" fill="#da836b"/>
          <path id="Trazado_880147" data-name="Trazado 880147" d="M604.943,291.086c.316-2.613,1.129-3.944,2.87-4.629.17.828-.468,1.58-.129,2.47a5.978,5.978,0,0,1,2.177-1.34c.61-.109,1.043-.06.913.769a5.8,5.8,0,0,0,1,4.4c3.348,4.631,2.806,9.683,1.771,14.827a21.373,21.373,0,0,1-3.862,8.127c-1.1,1.545-2.792,2.314-4.385,3.2a2.622,2.622,0,0,1-2.226,1.133c-4.266.425-8.448.238-12.256-2.082a65.289,65.289,0,0,1-6.167-4.679,1.349,1.349,0,0,1-.634-.917,15.783,15.783,0,0,1,5.065-5.019c.784-.512,1.344-.065,1.81.6a3.828,3.828,0,0,0,3.414,1.822c.8-.029,1.6-.131,1.97-.943a2.142,2.142,0,0,0-.493-2.4c-1.926-2.195-1.811-2.826.623-4.489a15.684,15.684,0,0,1,8.187-2.524c1.142-.065,1.462-.523,1.464-1.6a13.756,13.756,0,0,0-1.006-4.783c-.234-.638-.524-1.263-.11-1.934" transform="translate(-358.39 -175.787)" fill="#4b4b67"/>
          <path id="Trazado_880148" data-name="Trazado 880148" d="M593.7,290.538a4.971,4.971,0,0,0,.472,1.8,13.558,13.558,0,0,1,1.07,5.343c.012,1.144-.251,1.572-1.5,1.593a14.294,14.294,0,0,0-9.252,3.129c-1.5,1.25-1.489,1.487,0,2.753a2.867,2.867,0,0,1,1.1,3.219c-.434,1.2-1.624,1.339-2.8,1.279a3.919,3.919,0,0,1-3.548-2.094c-.411-.794-.818-.761-1.442-.331a28.444,28.444,0,0,0-4.878,4.689,4.094,4.094,0,0,1-2.4.051c-2.225-.529-2.388-.731-2.42-2.993a22.875,22.875,0,0,0-2.194-10.523,1.618,1.618,0,0,1-.206-.974,2.184,2.184,0,0,1,3.608.081,18.3,18.3,0,0,1,2.014,3.137,24.315,24.315,0,0,1-2.719-6.4c-.016-.624-.054-1.249-.045-1.873.044-2.973,1.067-4.045,4.052-4.192,1.2-.059,2.405-.011,3.607-.044,1.064-.029,1.91-.259,2.257-1.535a1.321,1.321,0,0,1,2.281-.653,11.326,11.326,0,0,0,7.925,3.548c1.726.092,3.285.947,5.011.986" transform="translate(-347.144 -175.239)" fill="#e8a98e"/>
          <path id="Trazado_880149" data-name="Trazado 880149" d="M123.767,365.891c-.734,1.179-1.955,1.874-2.88,2.868-.673.723-.851,1.331-.067,2.039-21.419,0-42.839.173-64.254-.089-9.2-.113-18.413.07-27.61-.243-5.573-.189-11.158-.207-16.717-.593-3.824-.266-7.675-.212-11.477-.809-.279-.044-.591,0-.761-.4.656-.769,1.593-.363,2.385-.517a80.543,80.543,0,0,1,8.29-.838,23.228,23.228,0,0,0,4.833-.588,4.15,4.15,0,0,0,3.545,1.173c7.612-.607,15.235-.285,22.852-.133,12.3.245,24.6.455,36.88-.512,4.841-.381,9.655-1.134,14.473-1.783a29.971,29.971,0,0,1,4.182.107q11.8.03,23.592.128c.912.007,1.824.124,2.735.19" transform="translate(0 -224.232)" fill="#cddae1"/>
          <path id="Trazado_880150" data-name="Trazado 880150" d="M421.45,41.076a20.172,20.172,0,0,0,4.422.627c.807-.018,1.223-.217,1.484-.992a4.172,4.172,0,0,1,1.385-2.153c.948-.7,1.95-1.166,3.066-.521a2.612,2.612,0,0,1,1.094,2.92c-.468,3.11-.458,3.146,2.7,3.609,3.052.447,6.1.934,9.186.293a7.348,7.348,0,0,0,2.069-.6c.945-.525,1.22-.33,1.294.712.139,1.961.569,3.931-.7,5.726-.139.2.178.254.35.3-1.981.292-3.574,1.518-5.377,2.239a3.008,3.008,0,0,0-1.642,2.386c-.582,2.249-.931,2.386-3.047,1.349-.328-.161-.663-.3-.931-.011-1.524,1.634-3.786,1.422-5.639,2.243a2.5,2.5,0,0,1-3.14-1.1,27.643,27.643,0,0,1-2.527-4.525c-.556-1.043-1.439-1.064-2.464-.871-1.526.289-3.071.814-4.6-.013a6.47,6.47,0,0,1-.042-4.119c.61-2.548.576-5.309,2.35-7.5a.572.572,0,0,1,.7,0" transform="translate(-256.558 -23.153)" fill="#e8a98d"/>
          <path id="Trazado_880151" data-name="Trazado 880151" d="M274.292,83.38c1.487.229,1.555.345.755,1.5-.96,1.382-1.943,2.748-2.92,4.117a1.451,1.451,0,0,0,.28,2.241,34.055,34.055,0,0,0,8.236,5.281c.913.41,1.79-.054,2.687-.122,4.261-.32,7.793-2.254,10.993-4.915,1.146-.953,2.2-2.018,3.321-3a1.68,1.68,0,0,0,.557-1.807c-.716-3.232-1.4-6.472-2.088-9.711-.122-.576-.528-1.421.258-1.609.671-.16.744.77.865,1.287,1.332,5.653,2.673,11.3,3.917,16.978.586,2.672.5,2.724,3.194,2.185,3.2-.64,6.441-1.072,9.587-1.98,1.755-.506,2.039-.876,1.668-2.657-.577-2.772-1.219-5.53-1.774-8.306-.952-4.752-1.991-9.482-3.274-14.158a1.141,1.141,0,0,1-.078-.423c.065-.477-.357-1.206.372-1.351.564-.113.709.588.848,1.012,1.065,3.241,1.714,6.59,2.522,9.9,1.22,4.988,1.813,10.114,3.317,15.035.282.921-.18,1.27-.9,1.449-3.583.883-7.106,2.021-10.811,2.386-1.477.145-2.9,1.073-4.429.1-.219-.138-.491.367-.476.743-.327,1.884-1.71,3.057-2.926,4.344a18.527,18.527,0,0,1-6.308-.3,39.447,39.447,0,0,1-17.723-6.939,23.782,23.782,0,0,1-3.571-3.15c-.479-.512-.865-1.05-.513-1.8l4.415-6.326" transform="translate(-165.529 -41.06)" fill="#d1a294"/>
          <path id="Trazado_880152" data-name="Trazado 880152" d="M396.553,101.938a1.414,1.414,0,0,1,.53-1.126,19.238,19.238,0,0,0,6.957-10.191,6.962,6.962,0,0,1,3.609-4.224,2.86,2.86,0,0,0,.813-.579c.54-.642.081-4.43-.581-5.076.3-.771.748-.61,1.236-.2q.843,6.923,1.686,13.847.578,4.782,1.139,9.565a.234.234,0,0,1-.08.391,118.326,118.326,0,0,1-12.478,2.3,2.187,2.187,0,0,1-2.06-.295c-.437-1.438-1.2-2.822-.77-4.412" transform="translate(-243.272 -49.215)" fill="#d3a394"/>
          <path id="Trazado_880153" data-name="Trazado 880153" d="M532.955,223.519c.3-1.335.545-2.69.939-4a.92.92,0,0,0-.637-1.329c-3.79-1.514-5.481-4.369-5.207-8.379a7.464,7.464,0,0,1,4.565-6.518c5.726-2.64,11.084.807,11.871,6.918a7.7,7.7,0,0,1-5.418,7.979c-2.363.581-3.472,2.153-4.733,3.8-.4.527-.782,1.071-1.172,1.607l-.208-.083" transform="translate(-324.026 -124.204)" fill="#dfc9ba"/>
          <path id="Trazado_880154" data-name="Trazado 880154" d="M335.286,374.068a1.14,1.14,0,0,1,.943-.252,64.854,64.854,0,0,0,11.934-.6c4.876-.837,9.789-.379,14.679-.614,5.949-.285,11.9-.129,17.847-.272,2.834-.068,5.664-.338,8.5-.26a1.981,1.981,0,0,1,.913.463c1.921-.474,3.963.014,5.844-.756,5.273-.86,10.539-1.756,15.868-2.23a15.919,15.919,0,0,0,8.864-3.526,2.062,2.062,0,0,1,.742-.435,1.02,1.02,0,0,1,.86.286,1.617,1.617,0,0,1-.749,2.413,3.683,3.683,0,0,0-1.916,2.329l-1.448,0c.062-.685-.166-.689-.821-.577a6.113,6.113,0,0,0-2.94.85,41.093,41.093,0,0,1-10.135,1.18c-1.654.261-3.359.108-4.983.463-1.431.313-2.967.2-4.294.97a35.865,35.865,0,0,1-6.578.54c-3.364.181-6.751-.085-10.116.082-11.794.585-23.593.11-35.388.241-2.542.028-5.087-.19-7.631-.294" transform="translate(-205.752 -224.335)" fill="#d1dadd"/>
          <path id="Trazado_880155" data-name="Trazado 880155" d="M553.392,370.508a1.737,1.737,0,0,1,1.215-2.324A1.952,1.952,0,0,0,556,365.871a2.035,2.035,0,0,1,1.618-.457c4.771-.066,9.53.21,14.287.538,4.652,2.44,9.467,3.2,14.529,1.405,1.589.182,3.177.369,4.767.544,1.047.115,2.1.209,3.143.318.246.026.53.106.54.38.013.369-.318.438-.608.45-1.341.058-2.686.186-4.017.239-2.831.113-5.655.351-8.493.4-5.615.105-11.227.446-16.843.627-3.846.124-7.69.062-11.532.19" transform="translate(-339.524 -224.234)" fill="#ccd9e1"/>
          <path id="Trazado_880156" data-name="Trazado 880156" d="M266.417,125.912c.244,1.726,1.72,2.542,2.85,3.462a36.208,36.208,0,0,0,11.319,6.162,43.425,43.425,0,0,0,13.973,2.283.42.42,0,0,1,.28.494,2.934,2.934,0,0,0-.617.338,8.474,8.474,0,0,1-7.632,2.018,47.726,47.726,0,0,1-16.183-5.447,29.158,29.158,0,0,1-5.046-3.849c-.372-.34-.624-.9-1.259-.867a27.679,27.679,0,0,1,2.314-4.594" transform="translate(-162.07 -77.267)" fill="#e2d2c5"/>
          <path id="Trazado_880157" data-name="Trazado 880157" d="M412.546,141.99c.008-.1.015-.2.023-.3a7.556,7.556,0,0,1,.771,4.82c-.233.985-.955,1.869-.765,3-.651-1.768-.646-1.743-2.69-1.289-2.794.621-5.645.882-8.477,1.265-.29.039-.573.066-.745.346-1.638.32-2.261-.027-2.645-1.531a23.869,23.869,0,0,1-.507-2.54c-.08-.564-.193-1.164.433-1.54a2.081,2.081,0,0,0,1.479.4,80.587,80.587,0,0,0,10.43-1.6,9.648,9.648,0,0,0,2.692-1.026" transform="translate(-243.898 -86.952)" fill="#d7b3a6"/>
          <path id="Trazado_880158" data-name="Trazado 880158" d="M237.777,250.7a2.306,2.306,0,0,0-.9,1.7,98.822,98.822,0,0,0-.827,11.33c-1.067.716-2.153.051-3.23.047l-.277-.649a2.033,2.033,0,0,1-.949-1.978,44.123,44.123,0,0,1,.8-8.422,6.977,6.977,0,0,1,.7-1.409l.138-.637a9.038,9.038,0,0,1,4.549.017" transform="translate(-142.117 -153.661)" fill="#e0d0c3"/>
          <path id="Trazado_880159" data-name="Trazado 880159" d="M556.593,312.378c.452,1.1.927,2.191,1.351,3.3a22.75,22.75,0,0,1,1.239,8.063c.011,1.554-.083,3.019,2.044,3.113-1.865.243-3.261,1.884-5.248,1.764-.25-.372-.068-.733.013-1.1,1.284-5.8.147-10.942-4.116-15.259-.544-.551-1.4-.92-1.4-1.888l.937-.041a8.051,8.051,0,0,1,4.316,1.172c.4.18.81.359.867.881" transform="translate(-337.804 -190.423)" fill="#e3cfc4"/>
          <path id="Trazado_880160" data-name="Trazado 880160" d="M422.49,77.189c-.431-.056-.874-.187-1.236.2l-.852.065c-.6.342-1.17.9-1.889.222a1.884,1.884,0,0,1,.171-2.264,19.008,19.008,0,0,0,4.958-.533c1.528-.383,1.9-.046,1.95,1.4a7.974,7.974,0,0,0-3.1.911" transform="translate(-256.645 -45.858)" fill="#cf7b64"/>
          <path id="Trazado_880161" data-name="Trazado 880161" d="M564.937,311.074a2.011,2.011,0,0,1-.867-.881c1.182-.668,2.7-.742,3.542-2.012,1.009.632.769,1.849,1.266,2.741a39.727,39.727,0,0,0,2.62,4.75,2.055,2.055,0,0,1-1.658-1.228,16.913,16.913,0,0,0-1.309-2.058c-1.246-1.693-1.594-1.849-3.595-1.311" transform="translate(-346.148 -189.118)" fill="#cf836c"/>
          <path id="Trazado_880162" data-name="Trazado 880162" d="M489.848,383.676a1.689,1.689,0,0,1,1.234-.871,27.452,27.452,0,0,1,8.043-.562c-2.182.725-4.489.713-6.726,1.12a6.983,6.983,0,0,1-2.551.313" transform="translate(-300.601 -234.513)" fill="#ccd9e1"/>
          <path id="Trazado_880163" data-name="Trazado 880163" d="M540.095,377.162c.714-1.889,2.519-.723,3.694-1.365.3.377-.036.748.067,1.092-1.268-.115-2.486.477-3.761.273" transform="translate(-331.435 -230.612)" fill="#ccd9e1"/>
          <path id="Trazado_880164" data-name="Trazado 880164" d="M343.214,150.625l-.281-.494,2.9-4.064c.717-.328.483.311.6.59.462,1.125.32,2.484,1.427,3.369.525.42,1.367.231,1.687.963a.3.3,0,0,1,.284.32,92,92,0,0,0,2.65,9.867c.81,2.609,1.357,5.338,3,7.616,2.142,2.965,4.255,5.953,6.484,8.853,4.749,6.176,9.923,12,15.123,17.794,2.082,2.32,3.888,4.927,6.637,6.577.671.461.225.725-.209.831a3.689,3.689,0,0,1-2.917-.261q-3.814-.02-7.628-.039a2.824,2.824,0,0,1-1.67-.294c-5.419-10.636-11.846-20.7-17.671-31.1-3.144-5.617-6.637-11.052-9.092-17.036-.472-1.15-.884-2.324-1.324-3.487" transform="translate(-210.445 -89.58)" fill="#edf8f8"/>
          <path id="Trazado_880165" data-name="Trazado 880165" d="M234.08,284.47c1.064-.894,2.157.217,3.23-.047.325,1.5,1.231,2.1,2.775,2.386,8.037,1.481,16.047,3.1,24.163,4.7-3.985.535-7.887,1.046-11.784,1.584-5.14.709-10.277,1.438-15.416,2.158-.427.06-.854.127-1.283.173-2.18.238-2.222.233-2.06-2.024.213-2.973-.051-5.965.377-8.928" transform="translate(-143.379 -174.35)" fill="#ebf8f9"/>
          <path id="Trazado_880166" data-name="Trazado 880166" d="M226.185,252.787a60.574,60.574,0,0,0-1.006,7.7,7.332,7.332,0,0,0,.457,4.107c-1.032-.2-2.073-.367-3.093-.615-2.064-.5-2.8-1.9-1.689-4.235a29.606,29.606,0,0,1,4.566-6.585c.172-.2.507-.253.766-.374" transform="translate(-135.212 -155.126)" fill="#d77f65"/>
          <path id="Trazado_880167" data-name="Trazado 880167" d="M395.342,140.463c-.493,1.722.292,3.284.72,4.857.2.741,1.305.339,1.9.727,1.7,6.45,3.018,13.008,6.427,18.895,4.1,7.078,8.56,13.92,13.088,20.723.6.908.942,2.013,1.886,2.684-1.939.5-3.838-.338-5.167-2.419-2.77-4.336-5.54-8.674-8.214-13.07-2.75-4.523-5.594-8.985-8.6-13.34a17.52,17.52,0,0,1-2.876-7.593c-.435-2.94-.963-5.866-1.45-8.8a2.672,2.672,0,0,1,1.176-2.8c.7-.453.328-1.588.136-2.411-.15-.646-.419-1.264-.608-1.9-.071-.24-.009-.514.3-.489.146.011.275.234.411.361-.141,1.545.651,2.89.932,4.345q.121.12.05.181a.179.179,0,0,1-.119.047" transform="translate(-241.197 -83.168)" fill="#f1f6f5"/>
          <path id="Trazado_880168" data-name="Trazado 880168" d="M398.6,57.692l1.728-.247q-2.315,4.951-4.628,9.9c-.1.217-.157.457-.272.665-.2.355-.53.689-.914.534-.473-.19-.259-.654-.116-1q1.19-2.86,2.408-5.708c.228-.534.58-1.1.142-1.613-.351-.407-.893-.154-1.36-.037-.979.247-2.007.047-2.995.364-.617.2-1-.141-.965-.852.235-4.726-.149-9.5,1.157-14.139a4.92,4.92,0,0,1,.4-1.07c.863-1.547.76-1.781-1.179-1.85-2.164-.077-4.332-.039-6.5-.051a16.062,16.062,0,0,1,3.73-.2c1-.076,2-.176,3.006-.265a10.9,10.9,0,0,1,2.456.263c1.323.576,1.469.805.722,1.839a8.931,8.931,0,0,0-1.512,4.31,63.763,63.763,0,0,0-.4,9.077c.022.981.351,1.439,1.4,1.211a10.288,10.288,0,0,0,3.688-1.138" transform="translate(-236.574 -25.853)" fill="#cba79a"/>
          <path id="Trazado_880169" data-name="Trazado 880169" d="M360.325,154.1l-.284-.32c-.039-.719.4-.814,1-.881a58.815,58.815,0,0,0,10.609-2.194c.46-.14.969-.5.829.441a37.58,37.58,0,0,1-12.152,2.954" transform="translate(-220.942 -92.367)" fill="#ce826d"/>
          <path id="Trazado_880170" data-name="Trazado 880170" d="M477.348,310.461c.737.759,1.463,1.528,2.211,2.276,4.135,4.132,4.739,9.2,3.87,14.646a6.3,6.3,0,0,1-.524,1.311,3.533,3.533,0,0,1-2.281,3.236c-3.249,2.881-7.089,4.034-11.382,4.363-4.182.321-8.331,1.1-12.483,1.748-.663.1-1.325.174-1.988.247-.868.16-.632-.435-.576-.868.495-3.841-.318-7.54-1.226-11.226a7.172,7.172,0,0,0-.877-1.967,1.486,1.486,0,0,0-1.686-.818c-1.332.313-3-.073-3.675,1.69a5.124,5.124,0,0,1-5.546.983c-3.217,1.026-6.573.862-9.876,1.146,1.693-1.023,3.665-1.114,5.517-1.532a24.6,24.6,0,0,0,8.844-4.1,39.079,39.079,0,0,1,13.965-5.943,33.718,33.718,0,0,1,7.394-1.3c-1.77,1.422-4.22,1.834-5.714,3.746a2.9,2.9,0,0,0,2.188-.223,49.238,49.238,0,0,1,5.367-1.042,2.258,2.258,0,0,1,.864.009c.363.076.85.145.828.632-.017.395-.442.423-.778.5-3.045.668-6.091,1.331-9.13,2.028-2.387.547-4.761,1.152-7.148,1.7-.533.123-.843.218-.409.812,2.209,3.025,2.276,6.657,2.844,10.145a12.888,12.888,0,0,1,.3,3.152c-.062.746.219,1.036,1.028.891,5.383-.965,10.786-1.825,16.156-2.857a10.631,10.631,0,0,0,8.669-8.118,12.956,12.956,0,0,0-.612-7.95,16.789,16.789,0,0,0-3.97-6.261c-.214-.209-1.308-.535-.168-1.058" transform="translate(-264.678 -190.518)" fill="#d1a597"/>
          <path id="Trazado_880171" data-name="Trazado 880171" d="M440.272,291.093c.942-.022,1.883-.057,2.825-.06.438,0,.465-.185.3-.51a.573.573,0,0,1,.977-.08c1.1,1.083,2.536.954,3.889,1.208,2.626.494,5.237,1.068,7.841,1.669,1.487.343,2.946.8,4.418,1.21-1.208.762-2.482.1-3.615-.075-3.413-.512-6.891-.431-10.259-1.149a29.218,29.218,0,0,1-6.093-1.629c-.33-.149-.5-.233-.284-.583" transform="translate(-270.118 -178.089)" fill="#cf9986"/>
          <path id="Trazado_880172" data-name="Trazado 880172" d="M416.189,332.924c-.461.655-.923.72-1.388,0-.368-2.949-.741-5.9-1.1-8.846-.175-1.429-.068-2.881-.363-4.3-.078-.377-.151-.964.5-1,.77-.04.573.594.631,1.04q.859,6.553,1.722,13.1" transform="translate(-253.617 -195.622)" fill="#c9a999"/>
          <path id="Trazado_880173" data-name="Trazado 880173" d="M405.223,28.95a5.51,5.51,0,0,1-2.273-.522c5.467-.97,9.288-4.347,12.646-8.625a19.967,19.967,0,0,0-3.429,10.272l-.562.019a23.533,23.533,0,0,1-6.382-1.144" transform="translate(-247.275 -12.152)" fill="#e9f5f7"/>
          <path id="Trazado_880174" data-name="Trazado 880174" d="M456.874,349.086a30.269,30.269,0,0,0,3.933-.262c.733-.056.887-.841,1.531-.876.9.605.982,1.638,1.209,2.537a86.016,86.016,0,0,1,1.814,9.649,4.261,4.261,0,0,1,0,1.582c-.2.826-.569.593-.96.133l-.593-.6a2.613,2.613,0,0,1-.579-1.868,30.357,30.357,0,0,0-.918-7.978c-.286-1.381-.938-1.759-2.367-1.578-1.1.138-2.281.463-3.07-.742" transform="translate(-280.366 -213.522)" fill="#d1826d"/>
          <path id="Trazado_880175" data-name="Trazado 880175" d="M314.31,370.759c.009-1.311,1.119-1.879,1.9-2.567a23.069,23.069,0,0,1,6.722-3.789.89.89,0,0,1,.753.165,23.979,23.979,0,0,0-3.479,1.688,14.676,14.676,0,0,0-4.4,3.433,3.212,3.212,0,0,1-1.487,1.081l-.012-.012" transform="translate(-192.88 -223.599)" fill="#d27b5e"/>
          <path id="Trazado_880176" data-name="Trazado 880176" d="M558.958,358.049a11.552,11.552,0,0,0,2.28-3.236c1.711-.644,3.164-2.057,5.2-1.744a7.352,7.352,0,0,1,2.352.249c2.216,1.66,4.249,3.56,6.6,5.037-.472.575-1.071.206-1.62.219-4.766.115-9.517-.5-14.286-.3l-.528-.225" transform="translate(-343.011 -216.637)" fill="#ecf7f9"/>
          <path id="Trazado_880177" data-name="Trazado 880177" d="M618.391,299.847l1.035,2.784-.377.144a4.316,4.316,0,0,1-1.025-2.788l.367-.14" transform="translate(-379.253 -184.004)" fill="#6d3a36"/>
          <path id="Trazado_880178" data-name="Trazado 880178" d="M589.65,293.081a1.929,1.929,0,0,1,.272,2.03c-.618-.636-.4-1.213-.272-2.03" transform="translate(-361.756 -179.852)" fill="#a66952"/>
          <path id="Trazado_880179" data-name="Trazado 880179" d="M406.541,43.48c2.151.248,4.357.191,6.382,1.144a28.034,28.034,0,0,0-2.291,11.608q0,1.144-.01,2.288a1.282,1.282,0,0,1-1.126,1.146c-1.037.186-2.068.41-3.11.564-.625.092-1.292.178-1.289-.827.013-4.086-.1-8.175.811-12.208a4.42,4.42,0,0,1,1.071-2.167c.91-.92.507-1.259-.439-1.548" transform="translate(-248.592 -26.682)" fill="#e5d2c6"/>
          <path id="Trazado_880180" data-name="Trazado 880180" d="M304.384,145.284c2.626.284,5.38-.023,7.74,1.545-2.769.46-5.243-.6-7.74-1.545" transform="translate(-186.789 -89.155)" fill="#e8cabe"/>
          <path id="Trazado_880181" data-name="Trazado 880181" d="M398.987,144.264a1.742,1.742,0,0,1,.069-.228,59.891,59.891,0,0,0,9.464-1.325,13,13,0,0,0,4.031-.924c.336-.18.647.051.939.22.037.7-.505.9-1,1.04a63.852,63.852,0,0,1-10.3,1.833,14.405,14.405,0,0,0-1.7.219c-.7.167-1.379.121-1.5-.835" transform="translate(-244.843 -86.968)" fill="#bf877a"/>
          <path id="Trazado_880182" data-name="Trazado 880182" d="M542.263,209.222c-.257,1.648-.522,3.3-.769,4.946-.117.782.188,1.216,1.032,1.108,1.147-.146,2.25.461,3.511.241-1.476,1.855-3.278,3.4-4.808,5.288.142-.906.23-1.826.443-2.716.18-.751-.058-.98-.782-1.17-1.052-.276-2.115-.033-3.237-.255a49.363,49.363,0,0,1,4.61-7.443" transform="translate(-329.937 -128.391)" fill="#f7f8f8"/>
          <path id="Trazado_880183" data-name="Trazado 880183" d="M472.785,358.562c.622.313.662.1.612-.519a58.506,58.506,0,0,0-1.3-8.1c-.4-1.775-.909-3.525-1.37-5.286-.262-.588-.358-1.016.478-1.3a20.374,20.374,0,0,1,3.654-.738c1.553-.234,1.8,1.158,2.2,2.058a23.672,23.672,0,0,1,1.518,6.851c.245,2.086.636,4.177-.052,6.26-.011.032.214.143.328.217a2.473,2.473,0,0,1-1.839.549c-1.142.091-2.347-.345-3.419.476-.329.252-.734.038-.8-.467" transform="translate(-288.75 -210.236)" fill="#e4d3c6"/>
        </g>
      </g>
    </g>
  </g>
</svg>
