<svg xmlns="http://www.w3.org/2000/svg" width="74.128" height="53.023" viewBox="0 0 74.128 53.023">
  <g id="_40" data-name="40" transform="translate(74.128 -72.885) rotate(90)">
    <path id="Trazado_881724" data-name="Trazado 881724" d="M99.771,17.194A9.692,9.692,0,0,0,90.08,7.5h0a9.692,9.692,0,0,0-9.692,9.692V39.41a41.185,41.185,0,0,0,7.23,23.306V77a2.462,2.462,0,0,0,2.462,2.462h0A2.462,2.462,0,0,0,92.542,77V62.716a41.185,41.185,0,0,0,7.23-23.306V17.194Z" transform="translate(-6.417 -6.416)" fill="#f9f1ef"/>
    <path id="Trazado_881725" data-name="Trazado 881725" d="M134.494,7.5h0a9.711,9.711,0,0,0-2.172.247,9.693,9.693,0,0,1,7.519,9.444V39.41a41.185,41.185,0,0,1-7.23,23.306V77a2.45,2.45,0,0,1-.29,1.159,2.461,2.461,0,0,0,2.172,1.3h0A2.462,2.462,0,0,0,136.956,77V62.716a41.185,41.185,0,0,0,7.23-23.306V17.194A9.692,9.692,0,0,0,134.494,7.5Z" transform="translate(-50.832 -6.416)" fill="#dddbdb"/>
    <path id="Trazado_881726" data-name="Trazado 881726" d="M135.114,102.371h0a2.068,2.068,0,0,1-2.067-2.067v-33.3a2.068,2.068,0,0,1,2.067-2.067h0a2.068,2.068,0,0,1,2.067,2.067v33.3A2.067,2.067,0,0,1,135.114,102.371Z" transform="translate(-51.452 -55.538)" fill="#ef3a47"/>
    <path id="Trazado_881727" data-name="Trazado 881727" d="M297.73,69.765a9.692,9.692,0,0,0,9.692,9.692h0a9.692,9.692,0,0,0,9.692-9.692V47.549a41.185,41.185,0,0,0-7.23-23.306V9.963A2.462,2.462,0,0,0,307.422,7.5h0a2.462,2.462,0,0,0-2.462,2.462v14.28a41.185,41.185,0,0,0-7.23,23.306V69.766h0Z" transform="translate(-192.292 -6.415)" fill="#f9f1ef"/>
    <path id="Trazado_881728" data-name="Trazado 881728" d="M354.3,24.243V9.963A2.462,2.462,0,0,0,351.84,7.5h0a2.461,2.461,0,0,0-2.172,1.3,2.45,2.45,0,0,1,.29,1.158v14.28a41.185,41.185,0,0,1,7.23,23.306V69.765a9.693,9.693,0,0,1-7.519,9.444,9.718,9.718,0,0,0,2.172.247h0a9.692,9.692,0,0,0,9.692-9.692V47.549A41.186,41.186,0,0,0,354.3,24.243Z" transform="translate(-236.71 -6.415)" fill="#dddbdb"/>
    <rect id="Rect치ngulo_403340" data-name="Rect치ngulo 403340" width="9.98" height="17.552" transform="translate(110.141 36.481)" fill="#00c1ec"/>
    <rect id="Rect치ngulo_403341" data-name="Rect치ngulo 403341" width="3.493" height="17.552" transform="translate(116.627 36.481)" fill="#00aade"/>
    <circle id="Elipse_11721" data-name="Elipse 11721" cx="2.927" cy="2.927" r="2.927" transform="translate(112.203 60.601)" fill="#f2ca5a"/>
    <g id="Grupo_1102883" data-name="Grupo 1102883" transform="translate(81.201 1.086)">
      <path id="Trazado_881729" data-name="Trazado 881729" d="M352.59,16.942V9.963A2.462,2.462,0,0,0,350.128,7.5h0a2.462,2.462,0,0,0-2.462,2.462v6.979h4.924Z" transform="translate(-316.199 -7.501)" fill="#ef3a47"/>
      <path id="Trazado_881730" data-name="Trazado 881730" d="M130.322,439.29v6.979a2.462,2.462,0,0,0,2.462,2.462h0a2.462,2.462,0,0,0,2.462-2.462V439.29Z" transform="translate(-130.322 -376.775)" fill="#ef3a47"/>
    </g>
    <path id="Trazado_881731" data-name="Trazado 881731" d="M133.048,168.264v20.4a2.067,2.067,0,0,0,4.135,0v-20.4Z" transform="translate(-51.452 -143.902)" fill="#ce3043"/>
    <path id="Trazado_881732" data-name="Trazado 881732" d="M334.539,263.875a1.087,1.087,0,0,0,.318-.768V245.555a1.086,1.086,0,0,0-1.086-1.086h-9.98a1.086,1.086,0,0,0-1.086,1.086v17.551a1.086,1.086,0,0,0,1.086,1.086h9.98A1.088,1.088,0,0,0,334.539,263.875Zm-9.662-1.854V246.641h7.807V262.02Z" transform="translate(-213.651 -209.074)"/>
    <path id="Trazado_881733" data-name="Trazado 881733" d="M291.316,53.508a1.086,1.086,0,0,0,1.086-1.086V41.134a39.931,39.931,0,0,1,7.039-22.691,1.087,1.087,0,0,0,.191-.615V11.613h2.752v6.215a1.086,1.086,0,0,0,.191.615A40.018,40.018,0,0,1,308.1,30.224a1.086,1.086,0,1,0,2.09-.591,42.186,42.186,0,0,0-5.634-12.139V3.548a3.548,3.548,0,1,0-7.1,0V17.494a42.089,42.089,0,0,0-7.23,23.64V52.422A1.086,1.086,0,0,0,291.316,53.508Zm8.316-49.96a1.376,1.376,0,1,1,2.752,0V9.441h-2.752V3.548Z" transform="translate(-185.877 0)"/>
    <path id="Trazado_881734" data-name="Trazado 881734" d="M311.186,229.767a1.086,1.086,0,1,0-2.141.365,40.2,40.2,0,0,1,.569,6.731v22.216a8.606,8.606,0,0,1-17.211,0v-6.584a1.086,1.086,0,1,0-2.172,0v6.584a10.778,10.778,0,0,0,21.556,0V236.862A42.4,42.4,0,0,0,311.186,229.767Z" transform="translate(-185.877 -195.728)"/>
    <path id="Trazado_881735" data-name="Trazado 881735" d="M336.959,415.078a4.012,4.012,0,1,0,4.012-4.012A4.017,4.017,0,0,0,336.959,415.078Zm5.853,0a1.84,1.84,0,1,1-1.84-1.84A1.842,1.842,0,0,1,342.812,415.078Z" transform="translate(-225.841 -351.551)"/>
    <path id="Trazado_881736" data-name="Trazado 881736" d="M83.663,0A10.79,10.79,0,0,0,72.885,10.778V32.994c0,.217,0,.433.006.649a1.09,1.09,0,0,0-.006.114,1.1,1.1,0,0,0,.01.143,42.077,42.077,0,0,0,7.219,22.735V70.58a3.548,3.548,0,0,0,7.1,0V56.634a42.089,42.089,0,0,0,7.23-23.64V20.209a1.086,1.086,0,0,0-2.172,0V32.994A39.931,39.931,0,0,1,85.23,55.685a1.086,1.086,0,0,0-.191.615v6.215H82.287V56.3a1.086,1.086,0,0,0-.191-.615,39.925,39.925,0,0,1-6.5-16.144h2.5a1.086,1.086,0,0,0,0-2.172H75.3q-.137-1.256-.194-2.525h1.464a1.086,1.086,0,0,0,0-2.172H75.057V30.145H78.1a1.086,1.086,0,1,0,0-2.172H75.057V25.448h1.507a1.086,1.086,0,1,0,0-2.172H75.057V20.75H78.1a1.086,1.086,0,1,0,0-2.172H75.057V16.052h1.507a1.086,1.086,0,1,0,0-2.172H75.057v-3.1a8.606,8.606,0,0,1,17.211,0v5.087a1.086,1.086,0,0,0,2.172,0V10.778A10.79,10.79,0,0,0,83.663,0Zm1.376,64.687V70.58a1.376,1.376,0,0,1-2.752,0V64.687Z"/>
    <path id="Trazado_881737" data-name="Trazado 881737" d="M130.768,79.068a1.086,1.086,0,0,0,1.086-1.086V60.592a3.154,3.154,0,1,0-6.307,0v33.3a3.154,3.154,0,0,0,6.307,0V82.326a1.086,1.086,0,1,0-2.172,0V93.888a.981.981,0,0,1-1.963,0v-33.3a.981.981,0,1,1,1.963,0v17.39A1.086,1.086,0,0,0,130.768,79.068Z" transform="translate(-45.038 -49.122)"/>
  </g>
</svg>
