<svg xmlns="http://www.w3.org/2000/svg" width="89.411" height="65.42" viewBox="0 0 89.411 65.42">
  <g id="_41" data-name="41" transform="translate(0 133.831) rotate(-90)">
    <path id="Trazado_881713" data-name="Trazado 881713" d="M76.427,19.961A11.976,11.976,0,0,0,91.539,31.488l34.266,63.125a5.956,5.956,0,0,0,2.43-8.092L96.767,28.55a11.972,11.972,0,1,0-20.34-8.588Zm6,0a6,6,0,1,1,6,5.972A5.988,5.988,0,0,1,82.431,19.961Z" transform="translate(-6.609 -6.61)" fill="#c7cfe2"/>
    <path id="Trazado_881714" data-name="Trazado 881714" d="M219.791,222.875a10.467,10.467,0,0,0-5.331,2.762l9.609,17.8a10.482,10.482,0,0,0,5.232-2.946Z" transform="translate(-120.631 -184.013)" fill="#afb9d2"/>
    <path id="Trazado_881715" data-name="Trazado 881715" d="M76.427,20.025A11.969,11.969,0,0,0,91.539,31.612l2.9,5.375a17.963,17.963,0,0,0,5.249-2.915l-2.924-5.414a12,12,0,1,0-20.34-8.634Zm6,0a6,6,0,1,1,6,6A6,6,0,0,1,82.431,20.025Z" transform="translate(-6.609 -6.611)" fill="#00c3ff"/>
    <path id="Trazado_881716" data-name="Trazado 881716" d="M176.81,8.017a11.924,11.924,0,0,0-8.333,20.533L156.908,49.861a5.968,5.968,0,0,0-5.614,5.933,5.885,5.885,0,0,0,.8,2.93l-15.089,27.8a5.956,5.956,0,0,0,2.43,8.092l17.832-32.85.028,0a5.988,5.988,0,0,0,6-5.972,5.917,5.917,0,0,0-1-3.3l11.4-21.01a11.949,11.949,0,1,0,3.1-23.471Zm0,17.916a5.972,5.972,0,1,1,6-5.972A5.988,5.988,0,0,1,176.81,25.933Z" transform="translate(-56.393 -6.61)" fill="#c7cfe2"/>
    <path id="Trazado_881717" data-name="Trazado 881717" d="M310.764,8.017a12,12,0,0,0-8.333,20.641l-2.924,5.414a17.964,17.964,0,0,0,5.249,2.915l2.9-5.375a12,12,0,1,0,3.105-23.594Zm0,18.01a6,6,0,1,1,6-6A6,6,0,0,1,310.764,26.027Z" transform="translate(-190.347 -6.61)" fill="#00c3ff"/>
    <g id="Grupo_1102882" data-name="Grupo 1102882" transform="translate(69.818 1.407)">
      <path id="Trazado_881718" data-name="Trazado 881718" d="M80.93,20.024A12.005,12.005,0,0,1,90.685,8.235a12.007,12.007,0,1,0,0,23.578A12.006,12.006,0,0,1,80.93,20.024Z" transform="translate(-76.427 -8.017)" fill="#00aaf0"/>
      <path id="Trazado_881719" data-name="Trazado 881719" d="M303.259,20.024a12.005,12.005,0,0,1,9.756-11.789,12.007,12.007,0,1,0,0,23.578A12.006,12.006,0,0,1,303.259,20.024Z" transform="translate(-259.733 -8.017)" fill="#00aaf0"/>
    </g>
    <path id="Trazado_881720" data-name="Trazado 881720" d="M117.2,39.762a1.407,1.407,0,0,0-2.725.7,4.589,4.589,0,1,1-3.3-3.3,1.407,1.407,0,1,0,.7-2.725,7.4,7.4,0,1,0,5.321,5.324Z" transform="translate(-28.199 -28.201)"/>
    <path id="Trazado_881721" data-name="Trazado 881721" d="M339.764,41.614a7.426,7.426,0,0,0-.233-1.851,1.407,1.407,0,1,0-2.725.7,4.589,4.589,0,1,1-3.3-3.3,1.407,1.407,0,1,0,.7-2.725,7.411,7.411,0,1,0,5.554,7.176Z" transform="translate(-211.936 -28.2)"/>
    <path id="Trazado_881722" data-name="Trazado 881722" d="M120.5,26.692a13.354,13.354,0,1,0-9.991-4.525l-9.392,17.419L91.729,22.167a13.316,13.316,0,1,0-9.991,4.525,13.017,13.017,0,0,0,2.358-.22l10.46,19.4a7.278,7.278,0,0,0-.8,3.312,7.154,7.154,0,0,0,.619,2.907L79.734,79.252a7.378,7.378,0,0,0,2.98,9.991,1.4,1.4,0,0,0,1.894-.567L101.121,58.05l16.513,30.626a1.4,1.4,0,0,0,1.894.567,7.378,7.378,0,0,0,2.98-9.991L107.876,52.114a7.363,7.363,0,0,0-.185-6.25l10.456-19.391A13.034,13.034,0,0,0,120.5,26.692Zm-36.044-3.17a10.54,10.54,0,1,1,4.584-2.593,1.4,1.4,0,0,0-.259,1.672l10.5,19.471a7.352,7.352,0,0,0-2.826,1.437l-10.407-19.3A1.4,1.4,0,0,0,84.461,23.522Zm35.945,60.541a4.551,4.551,0,0,1-1.079,1.859l-16.013-29.7a7.358,7.358,0,0,0,2.749-1.58l13.986,25.938A4.548,4.548,0,0,1,120.406,84.063ZM116.19,24.209,104.86,45.223a1.4,1.4,0,0,0,.065,1.439,4.569,4.569,0,0,1-3.751,7.1l-.068,0a1.408,1.408,0,0,0-1.243.735L82.915,85.922a4.585,4.585,0,0,1-.721-5.34l14.99-27.8a1.4,1.4,0,0,0-.014-1.357,4.5,4.5,0,0,1-.615-2.24,4.568,4.568,0,0,1,4.27-4.537,1.4,1.4,0,0,0,1.139-.732L113.457,22.6a1.4,1.4,0,0,0-.259-1.672,10.639,10.639,0,1,1,4.584,2.593A1.4,1.4,0,0,0,116.19,24.209Z"/>
    <path id="Trazado_881723" data-name="Trazado 881723" d="M249.442,273.636h-.015a1.415,1.415,0,1,0,.015,0Z" transform="translate(-148.306 -225.859)"/>
  </g>
</svg>
