<svg id="_42" data-name="42" xmlns="http://www.w3.org/2000/svg" xmlns:xlink="http://www.w3.org/1999/xlink" width="56.355" height="71.7" viewBox="0 0 56.355 71.7">
  <defs>
    <clipPath id="clip-path">
      <rect id="Rectángulo_403344" data-name="Rectángulo 403344" width="56.355" height="71.7" fill="none"/>
    </clipPath>
  </defs>
  <g id="Grupo_1102884" data-name="Grupo 1102884" clip-path="url(#clip-path)">
    <path id="Trazado_881738" data-name="Trazado 881738" d="M49.543,2.311A14.727,14.727,0,0,0,29.21,6.821l-5.747,9.025h0L2.311,49.057A14.735,14.735,0,0,0,14.7,71.7a14.877,14.877,0,0,0,3.218-.355,14.63,14.63,0,0,0,9.232-6.466L32.9,55.855h0l15.4-24.185,5.748-9.025A14.744,14.744,0,0,0,49.543,2.311m-24.071,61.5A12.732,12.732,0,0,1,3.993,50.129l5.212-8.184L30.684,55.624Zm6.283-9.866L10.277,40.263l14.332-22.5L46.088,31.438Zm20.616-32.37L47.16,29.756,25.681,16.077l5.212-8.184A12.649,12.649,0,0,1,38.875,2.3,12.823,12.823,0,0,1,41.657,2,12.738,12.738,0,0,1,52.371,21.572" transform="translate(0 0)" fill="#414042"/>
    <path id="Trazado_881739" data-name="Trazado 881739" d="M150.291,211.5,135.958,234l-21.478-13.679,14.332-22.5Z" transform="translate(-104.204 -180.062)" fill="#efceab"/>
    <path id="Trazado_881740" data-name="Trazado 881740" d="M29.442,467.241l-5.212,8.184A12.732,12.732,0,0,0,45.709,489.1l5.212-8.184ZM27.9,483.2a1,1,0,0,1-1.378.305l-.635-.4a1,1,0,1,1,1.071-1.683l.636.4A1,1,0,0,1,27.9,483.2m2.805-4.4a1,1,0,0,1-1.378.305l-.635-.4a1,1,0,1,1,1.071-1.682l.636.4a1,1,0,0,1,.306,1.378m.487-5.882a1,1,0,0,1,1.377-.305l.636.4a1,1,0,0,1-1.072,1.682l-.635-.4a1,1,0,0,1-.306-1.377m2.469,13.955a1,1,0,0,1-1.377.306l-.636-.4a1,1,0,0,1,1.072-1.682l.636.4a1,1,0,0,1,.305,1.377m2.805-4.4a1,1,0,0,1-1.377.305l-.636-.4a1,1,0,0,1,1.072-1.682l.636.4a1,1,0,0,1,.305,1.377m.487-5.881a1,1,0,0,1,1.377-.306l.636.4a1,1,0,1,1-1.072,1.683l-.636-.4a1,1,0,0,1-.305-1.377m2.469,13.955a1,1,0,0,1-.843.461.987.987,0,0,1-.534-.156l-.636-.4a1,1,0,1,1,1.071-1.682l.636.4a1,1,0,0,1,.306,1.377m2.805-4.405a1,1,0,0,1-1.377.305l-.636-.4a1,1,0,0,1,1.071-1.683l.636.4a1,1,0,0,1,.306,1.377m2.805-4.405a1,1,0,0,1-1.377.306l-.636-.4a1,1,0,1,1,1.071-1.682l.636.4a1,1,0,0,1,.306,1.377" transform="translate(-20.237 -425.296)" fill="#efceab"/>
    <path id="Trazado_881741" data-name="Trazado 881741" d="M308.863,24.228a12.65,12.65,0,0,0-6.815-2,12.823,12.823,0,0,0-2.782.307,12.649,12.649,0,0,0-7.982,5.59l-5.212,8.184,21.479,13.679,5.211-8.184a12.746,12.746,0,0,0-3.9-17.579M294.458,36.69A1,1,0,0,1,293.08,37l-.636-.4a1,1,0,1,1,1.072-1.682l.636.4a1,1,0,0,1,.305,1.378m2.805-4.405a1,1,0,0,1-1.377.305l-.636-.4a1,1,0,1,1,1.072-1.682l.636.4a1,1,0,0,1,.305,1.377m.487-5.881a1,1,0,0,1,1.377-.306l.636.4a1,1,0,1,1-1.072,1.683l-.636-.4a1,1,0,0,1-.305-1.377m2.468,13.955a1,1,0,0,1-1.377.305l-.636-.4a1,1,0,0,1,1.072-1.682l.636.4a1,1,0,0,1,.305,1.377m2.805-4.405a1,1,0,0,1-1.377.305l-.635-.4a1,1,0,1,1,1.071-1.683l.636.4a1,1,0,0,1,.305,1.377m.487-5.881a1,1,0,0,1,1.377-.305l.636.4a1,1,0,0,1-1.072,1.682l-.636-.4a1,1,0,0,1-.305-1.377m2.469,13.955a1,1,0,0,1-1.377.305l-.636-.4a1,1,0,0,1,1.072-1.683l.636.4a1,1,0,0,1,.305,1.377m2.805-4.405a1,1,0,0,1-1.377.306l-.636-.4a1,1,0,0,1,1.072-1.682l.636.4a1,1,0,0,1,.305,1.377m2.805-4.4a1,1,0,0,1-1.377.305l-.636-.4a1,1,0,0,1,1.072-1.682l.636.4a1,1,0,0,1,.305,1.377" transform="translate(-260.391 -20.235)" fill="#efceab"/>
    <path id="Trazado_881742" data-name="Trazado 881742" d="M416.892,65.512a1,1,0,0,1-1.377.306l-.636-.4a1,1,0,0,1,1.072-1.683l.636.4a1,1,0,0,1,.305,1.377" transform="translate(-377.215 -57.867)" fill="#414042"/>
    <path id="Trazado_881743" data-name="Trazado 881743" d="M481.069,106.385a1,1,0,0,1-1.377.305l-.636-.4a1,1,0,1,1,1.072-1.682l.636.4a1,1,0,0,1,.305,1.377" transform="translate(-435.631 -95.071)" fill="#414042"/>
    <path id="Trazado_881744" data-name="Trazado 881744" d="M545.242,147.258a1,1,0,0,1-1.377.305l-.636-.4a1,1,0,0,1,1.072-1.682l.636.4a1,1,0,0,1,.305,1.377" transform="translate(-494.043 -132.274)" fill="#414042"/>
    <path id="Trazado_881745" data-name="Trazado 881745" d="M385.642,114.578a1,1,0,0,1-1.377.305l-.636-.4A1,1,0,1,1,384.7,112.8l.636.4a1,1,0,0,1,.305,1.377" transform="translate(-348.77 -102.528)" fill="#414042"/>
    <path id="Trazado_881746" data-name="Trazado 881746" d="M449.819,155.448a1,1,0,0,1-1.377.305l-.635-.4a1,1,0,0,1,1.071-1.683l.636.4a1,1,0,0,1,.305,1.377" transform="translate(-407.186 -139.729)" fill="#414042"/>
    <path id="Trazado_881747" data-name="Trazado 881747" d="M513.992,196.324a1,1,0,0,1-1.377.306l-.636-.4a1,1,0,0,1,1.072-1.682l.636.4a1,1,0,0,1,.305,1.377" transform="translate(-465.598 -176.936)" fill="#414042"/>
    <path id="Trazado_881748" data-name="Trazado 881748" d="M354.392,163.645a1,1,0,0,1-1.377.305l-.636-.4a1,1,0,1,1,1.072-1.682l.636.4a1,1,0,0,1,.305,1.378" transform="translate(-320.326 -147.19)" fill="#414042"/>
    <path id="Trazado_881749" data-name="Trazado 881749" d="M418.569,204.518a1,1,0,0,1-1.377.305l-.636-.4a1,1,0,1,1,1.072-1.682l.636.4a1,1,0,0,1,.305,1.377" transform="translate(-378.741 -184.393)" fill="#414042"/>
    <path id="Trazado_881750" data-name="Trazado 881750" d="M482.742,245.388a1,1,0,0,1-1.377.305l-.636-.4a1,1,0,0,1,1.072-1.683l.636.4a1,1,0,0,1,.305,1.377" transform="translate(-437.154 -221.595)" fill="#414042"/>
    <path id="Trazado_881751" data-name="Trazado 881751" d="M122.79,527.288a1,1,0,0,1-1.378.305l-.635-.4a1,1,0,1,1,1.071-1.682l.636.4a1,1,0,0,1,.306,1.377" transform="translate(-109.514 -478.188)" fill="#414042"/>
    <path id="Trazado_881752" data-name="Trazado 881752" d="M186.965,568.162a1,1,0,0,1-1.377.306l-.636-.4a1,1,0,0,1,1.072-1.683l.636.4a1,1,0,0,1,.305,1.377" transform="translate(-167.928 -515.394)" fill="#414042"/>
    <path id="Trazado_881753" data-name="Trazado 881753" d="M251.14,609.034a1,1,0,0,1-1.377.306l-.636-.4a1,1,0,1,1,1.071-1.682l.636.4a1,1,0,0,1,.306,1.377" transform="translate(-226.342 -552.597)" fill="#414042"/>
    <path id="Trazado_881754" data-name="Trazado 881754" d="M91.54,576.355a1,1,0,0,1-1.378.305l-.635-.4a1,1,0,1,1,1.071-1.682l.636.4a1,1,0,0,1,.306,1.378" transform="translate(-81.07 -522.851)" fill="#414042"/>
    <path id="Trazado_881755" data-name="Trazado 881755" d="M155.715,617.228a1,1,0,0,1-1.377.305l-.636-.4a1,1,0,0,1,1.072-1.682l.636.4a1,1,0,0,1,.305,1.377" transform="translate(-139.484 -560.054)" fill="#414042"/>
    <path id="Trazado_881756" data-name="Trazado 881756" d="M219.89,658.1a1,1,0,0,1-.843.461.987.987,0,0,1-.534-.156l-.636-.4a1,1,0,0,1,1.071-1.683l.636.4a1,1,0,0,1,.306,1.377" transform="translate(-197.898 -597.259)" fill="#414042"/>
    <path id="Trazado_881757" data-name="Trazado 881757" d="M60.29,625.422a1,1,0,0,1-1.378.305l-.635-.4a1,1,0,1,1,1.071-1.683l.636.4a1,1,0,0,1,.306,1.377" transform="translate(-52.625 -567.513)" fill="#414042"/>
    <path id="Trazado_881758" data-name="Trazado 881758" d="M124.465,666.294a1,1,0,0,1-1.377.306l-.636-.4a1,1,0,0,1,1.072-1.682l.636.4a1,1,0,0,1,.305,1.377" transform="translate(-111.039 -604.717)" fill="#414042"/>
    <path id="Trazado_881759" data-name="Trazado 881759" d="M188.64,707.165a1,1,0,0,1-.843.461.987.987,0,0,1-.534-.156l-.636-.4a1,1,0,1,1,1.071-1.682l.636.4a1,1,0,0,1,.306,1.377" transform="translate(-169.453 -641.918)" fill="#414042"/>
  </g>
</svg>
