<svg xmlns="http://www.w3.org/2000/svg" width="63.003" height="63.002" viewBox="0 0 63.003 63.002">
  <g id="_43" data-name="43" transform="translate(-5.306 -5.306)">
    <path id="Trazado_881760" data-name="Trazado 881760" d="M65.334,40.718h0A21.545,21.545,0,0,1,40.72,65.332h0A21.534,21.534,0,1,0,65.334,40.718Z" transform="translate(-16.222 -16.221)" fill="#b1d1f9" stroke="#333" stroke-width="2"/>
    <path id="Trazado_881761" data-name="Trazado 881761" d="M70.5,51.4h0A21.537,21.537,0,0,1,51.4,70.5h0A16.01,16.01,0,1,0,70.5,51.4Z" transform="translate(-21.256 -21.256)" fill="#d7e8fc" stroke="#393939" stroke-width="2"/>
    <circle id="Elipse_11722" data-name="Elipse 11722" cx="21.532" cy="21.532" r="21.532" transform="translate(6.306 6.306)" fill="#b1d1f9" stroke="#313131" stroke-width="2"/>
    <circle id="Elipse_11723" data-name="Elipse 11723" cx="16.008" cy="16.008" r="16.008" transform="translate(11.83 11.83)" fill="#eaf3fd" stroke="#333" stroke-width="2"/>
    <path id="Trazado_881762" data-name="Trazado 881762" d="M80.954,58.323v1.041a3.881,3.881,0,0,1-3.875,3.875,2.031,2.031,0,0,0-2.03,2.03,3.881,3.881,0,0,1-3.875,3.875,2.03,2.03,0,0,0-2.03,2.03,3.881,3.881,0,0,1-3.875,3.875,2.03,2.03,0,0,0-2.03,2.03,3.881,3.881,0,0,1-3.875,3.875H58.323A15.945,15.945,0,0,1,56.7,79.1h2.664a2.028,2.028,0,0,0,2.025-2.025,3.883,3.883,0,0,1,3.88-3.88,2.028,2.028,0,0,0,2.025-2.025,3.883,3.883,0,0,1,3.88-3.88A2.028,2.028,0,0,0,73.2,65.269a3.883,3.883,0,0,1,3.88-3.88A2.028,2.028,0,0,0,79.1,59.364V56.7A15.4,15.4,0,0,1,80.954,58.323Z" transform="translate(-23.754 -23.754)" fill="#fffcf5"/>
    <path id="Trazado_881763" data-name="Trazado 881763" d="M93.073,75.482a3.855,3.855,0,0,1-2.7,1.089,2.029,2.029,0,0,0-2.03,2.025,3.881,3.881,0,0,1-3.875,3.875,2.031,2.031,0,0,0-2.03,2.03,3.881,3.881,0,0,1-3.875,3.875,2.029,2.029,0,0,0-2.025,2.03,3.837,3.837,0,0,1-1.094,2.7A15.6,15.6,0,0,1,72.9,92.62l.83-.492a2.014,2.014,0,0,0,.962-1.723,3.882,3.882,0,0,1,3.875-3.88A2.028,2.028,0,0,0,80.592,84.5a3.883,3.883,0,0,1,3.88-3.88A2.028,2.028,0,0,0,86.5,78.6a3.882,3.882,0,0,1,3.88-3.875,2.016,2.016,0,0,0,1.729-.973l.492-.788A14.749,14.749,0,0,1,93.073,75.482Z" transform="translate(-31.39 -31.418)" fill="#fffcf5"/>
    <path id="Trazado_881764" data-name="Trazado 881764" d="M47.034,24.4v1.041a3.882,3.882,0,0,1-3.88,3.875,2.028,2.028,0,0,0-2.025,2.025,3.883,3.883,0,0,1-3.88,3.88,2.028,2.028,0,0,0-2.025,2.025,3.883,3.883,0,0,1-3.88,3.88,2.028,2.028,0,0,0-2.025,2.025,3.882,3.882,0,0,1-3.875,3.88H24.4a15.4,15.4,0,0,1-1.623-1.85h2.659a2.03,2.03,0,0,0,2.03-2.03,3.881,3.881,0,0,1,3.875-3.875,2.03,2.03,0,0,0,2.03-2.03,3.881,3.881,0,0,1,3.875-3.875,2.03,2.03,0,0,0,2.03-2.03,3.881,3.881,0,0,1,3.875-3.875,2.029,2.029,0,0,0,2.03-2.025V22.78A15.4,15.4,0,0,1,47.034,24.4Z" transform="translate(-7.765 -7.765)" fill="#fffdfa"/>
    <path id="Trazado_881765" data-name="Trazado 881765" d="M38.868,18.23a3.871,3.871,0,0,1-3.78,3.024,2.028,2.028,0,0,0-2.025,2.025,3.883,3.883,0,0,1-3.88,3.88,2.028,2.028,0,0,0-2.025,2.025,3.883,3.883,0,0,1-3.88,3.88,2.028,2.028,0,0,0-2.025,2.025,3.871,3.871,0,0,1-3.024,3.78,14.289,14.289,0,0,1-.56-1.766.44.44,0,0,1,.079-.021A2.028,2.028,0,0,0,19.4,35.089a3.881,3.881,0,0,1,3.875-3.875,2.03,2.03,0,0,0,2.03-2.03,3.881,3.881,0,0,1,3.875-3.875,2.03,2.03,0,0,0,2.03-2.03A3.881,3.881,0,0,1,35.089,19.4a2.028,2.028,0,0,0,1.993-1.655.44.44,0,0,1,.021-.079,14.289,14.289,0,0,1,1.766.56Z" transform="translate(-5.357 -5.357)" fill="#fffdfa"/>
    <path id="Trazado_881766" data-name="Trazado 881766" d="M59.1,41.494a3.823,3.823,0,0,1-2.7,1.1,2.029,2.029,0,0,0-2.025,2.03,3.882,3.882,0,0,1-3.88,3.875,2.028,2.028,0,0,0-2.025,2.025A3.882,3.882,0,0,1,44.6,54.4a2.029,2.029,0,0,0-2.03,2.025,3.859,3.859,0,0,1-1.089,2.7,15.136,15.136,0,0,1-2.606-.5l.915-.5a2,2,0,0,0,.93-1.707,3.882,3.882,0,0,1,3.88-3.875,2.029,2.029,0,0,0,2.025-2.03,3.881,3.881,0,0,1,3.875-3.875,2.029,2.029,0,0,0,2.03-2.025,3.882,3.882,0,0,1,3.875-3.88,2.024,2.024,0,0,0,1.734-.973l.481-.841A15.251,15.251,0,0,1,59.1,41.494Z" transform="translate(-15.35 -15.378)" fill="#fffdfa"/>
  </g>
</svg>
