<svg xmlns="http://www.w3.org/2000/svg" width="71.57" height="71.7" viewBox="0 0 71.57 71.7">
  <g id="_44" data-name="44" transform="translate(-6.072 -6.35)">
    <path id="Trazado_881767" data-name="Trazado 881767" d="M75.183,63.573,71.4,59.789,41.757,30.147l-.227-.227a1.941,1.941,0,0,0,.028-.4,10.623,10.623,0,0,0-.241-3.8c-.071-.213-.263-1.082-.368-1.346-.127-.411-.283-.822-.453-1.247-.2-.467-6.2-14.467-6.5-14.878a.854.854,0,0,0-.113-.113,2.309,2.309,0,0,0-2.65-.6,2.483,2.483,0,0,0-1.417,2.678L31.4,19.973a.7.7,0,0,1-1.19.609c-2.018-2-.2-.188-10.485-10.485a2.2,2.2,0,0,0-2.31-.468v.014a2.141,2.141,0,0,0-.749,3.418c7.649,7.649,6.428,6.43,7.536,7.535A.711.711,0,0,1,23.195,21.6c-4.718-4.727-2.147-2.154-11.492-11.5a2.131,2.131,0,0,0-2.3-.466.021.021,0,0,0-.007.007l-.02.01A2.108,2.108,0,0,0,8.7,10.1a2.138,2.138,0,0,0-.464.7v.014a2.228,2.228,0,0,0-.156.779s0,.013,0,.014a2.255,2.255,0,0,0,.156.78v.014a2.122,2.122,0,0,0,.464.7c7.372,7.372,4.057,4.059,12.5,12.49a.729.729,0,0,1,0,1.006.706.706,0,0,1-1.007,0l-9.5-9.5a2.108,2.108,0,0,0-2.2-.476,2.071,2.071,0,0,0-1.261,1.19v.014a2.066,2.066,0,0,0-.156.779v.014a2.123,2.123,0,0,0,.156.779v.014a2.563,2.563,0,0,0,.468.708c5.05,5.032,2.716,2.7,10.485,10.485a.7.7,0,0,1-.5,1.2.733.733,0,0,1-.5-.2l-6.49-6.49a2.079,2.079,0,0,0-1.474-.6l-.17.014a2.162,2.162,0,0,0-.51.1c-.071.028-.142.042-.212.071a1.9,1.9,0,0,0-.638.411,2.5,2.5,0,0,0-.468.694v.028a2.05,2.05,0,0,0-.156.765v.028a2.182,2.182,0,0,0,.156.779v.014a2.3,2.3,0,0,0,.468.694L17.768,38.209c4.725,4.725,9.92,3.978,12.242,4.237L62.926,75.362l.241.227a2.165,2.165,0,0,0,3,0l9.012-9.012a2.079,2.079,0,0,0,.623-1.5A2.056,2.056,0,0,0,75.183,63.573Z" transform="translate(0.416 0.419)" fill="#fdcc99"/>
    <path id="Trazado_881768" data-name="Trazado 881768" d="M68.264,53.957a2.079,2.079,0,0,1-.623,1.5L58.628,64.47a2.165,2.165,0,0,1-3,0l-.241-.227L25.16,34.02c5.3,4.463,22.615,17.684,38.7,14.651l3.783,3.783A2.056,2.056,0,0,1,68.264,53.957Z" transform="translate(7.959 11.537)" fill="#fbb684"/>
    <path id="Trazado_881769" data-name="Trazado 881769" d="M59.753,48.108,47.737,60.124a1.428,1.428,0,0,1-2.012,0l-19.5-19.5L26,40.4a1.436,1.436,0,0,1,0-2.012L38.017,26.372a1.428,1.428,0,0,1,2.012,0L51.8,38.147l1.077,1.077,4.931,4.931.113.113L59.753,46.1A1.428,1.428,0,0,1,59.753,48.108Z" transform="translate(8.138 8.175)" fill="#e6e6e6"/>
    <path id="Trazado_881770" data-name="Trazado 881770" d="M57.266,44.269l-8.188,8.188a4.251,4.251,0,0,1-6.012,0l-15.9-15.9L37.362,26.369a1.417,1.417,0,0,1,2,0Z" transform="translate(8.797 8.174)" fill="#f2f2f2"/>
    <g id="Grupo_1102886" data-name="Grupo 1102886" transform="translate(33.727 39.308)">
      <path id="Trazado_881771" data-name="Trazado 881771" d="M45.867,30.687,26.228,39.1,26,38.877a1.4,1.4,0,0,1-.411-1.034l19.2-8.232Z" transform="translate(-25.589 -29.61)" fill="#999"/>
    </g>
    <path id="Trazado_881772" data-name="Trazado 881772" d="M29.156,37.4l15.672-6.716L43.751,29.61,28.082,36.329Z" transform="translate(9.177 9.698)" fill="#b3b3b3"/>
    <g id="Grupo_1102887" data-name="Grupo 1102887" transform="translate(40.303 46.322)">
      <path id="Trazado_881773" data-name="Trazado 881773" d="M50.946,35.637,31.307,44.054,30.23,42.977,49.869,34.56Z" transform="translate(-30.23 -34.56)" fill="#999"/>
    </g>
    <path id="Trazado_881774" data-name="Trazado 881774" d="M34.107,42.353l15.672-6.716L48.7,34.56,33.03,41.276Z" transform="translate(11.24 11.762)" fill="#b3b3b3"/>
    <g id="Grupo_1102888" data-name="Grupo 1102888" transform="translate(46.31 52.33)">
      <path id="Trazado_881775" data-name="Trazado 881775" d="M55.2,39.891,35.561,48.308,34.47,47.217,54.109,38.8Z" transform="translate(-34.47 -38.8)" fill="#999"/>
    </g>
    <path id="Trazado_881776" data-name="Trazado 881776" d="M38.361,46.607l12.249-5.25,2.444-2.444-.113-.113L37.27,45.516Z" transform="translate(13.008 13.53)" fill="#b3b3b3"/>
    <path id="Trazado_881777" data-name="Trazado 881777" d="M76.607,62.986,69.9,56.28l.5-.5a.708.708,0,0,0,0-1L47.658,32.033a.729.729,0,0,0-1,0l-.5.5L43.422,29.8a14.5,14.5,0,0,0-1.212-6.808l-1.4-3.25a.708.708,0,0,0-1.3.562l1.4,3.245a12.643,12.643,0,0,1,1.072,6.386.712.712,0,0,0,.2.623l2.977,2.977L33.13,45.56l-2.505-2.506a.7.7,0,0,0-.38-.2,10.719,10.719,0,0,0-1.411-.093,14.382,14.382,0,0,1-10.651-4.137l-.583-.583L8.11,28.556a2.127,2.127,0,0,1,0-3.005,2.178,2.178,0,0,1,3,0L17.6,32.033a.708.708,0,0,0,1-1l-6.483-6.483,0,0L8.11,20.541a2.126,2.126,0,0,1,3-3.008l9.491,9.491a.708.708,0,1,0,1-1l-9.489-9.49,0,0-3-3a2.125,2.125,0,1,1,3.006-3.005L23.611,22.015a.708.708,0,0,0,1-1l-7.485-7.486a2.125,2.125,0,1,1,3.006-3.005L30.618,21.006a.708.708,0,0,0,1.2-.614l-1.606-9.87A2.369,2.369,0,0,1,34.726,9.2l2.947,6.84a.708.708,0,0,0,1.3-.562l-2.947-6.84A3.764,3.764,0,0,0,31.162,6.62a3.8,3.8,0,0,0-2.348,4.128l1.254,7.7L21.136,9.519a3.547,3.547,0,0,0-5.01,0,3.508,3.508,0,0,0-.989,2.017L13.12,9.519a3.542,3.542,0,0,0-5.01,5.009l1.015,1.015a3.507,3.507,0,0,0-2.016.989,3.547,3.547,0,0,0,0,5.011l2.043,2.043a3.461,3.461,0,0,0-2.043.962,3.546,3.546,0,0,0,0,5.009l9.489,9.49.583.583A15.661,15.661,0,0,0,28.8,44.182c.39.011.738.021,1,.044l2.335,2.336-.5.5a.708.708,0,0,0,0,1L48.009,64.447a.708.708,0,1,0,1-1L47.4,61.831l19.638-8.417L68.9,55.278,54.873,69.305l-1.636-1.634a.708.708,0,0,0-1,1l2.136,2.135a.708.708,0,0,0,1,0l.5-.5,6.706,6.706a3.541,3.541,0,0,0,5.009,0L76.607,68A3.547,3.547,0,0,0,76.607,62.986ZM34.371,48.805,54.01,40.388l5.934,5.934L40.3,54.738Zm18.558-9.5L33.291,47.725l-.161-.161.5-.5h0L46.652,34.041l0,0,0,0,.5-.5ZM46.316,60.75l-4.932-4.932L61.024,47.4l4.931,4.931Zm29.289,6.243-9.018,9.018a2.177,2.177,0,0,1-3.005,0l-6.706-6.706L68.9,57.282l6.706,6.706A2.13,2.13,0,0,1,75.605,66.993Z" transform="translate(0)"/>
  </g>
</svg>
