<svg xmlns="http://www.w3.org/2000/svg" width="53.265" height="75.271" viewBox="0 0 53.265 75.271">
  <g id="_45" data-name="45" transform="translate(-22.9 -5.806)">
    <path id="Trazado_881778" data-name="Trazado 881778" d="M23.4,55.546H75.665V88.468a9.655,9.655,0,0,1-9.655,9.655H33.055A9.655,9.655,0,0,1,23.4,88.468V55.546Z" transform="translate(0 -17.546)" fill="#2fddbb" stroke="#000" stroke-width="1"/>
    <rect id="Rectángulo_403347" data-name="Rectángulo 403347" width="39.452" height="8.938" transform="translate(29.806 29.061)" fill="#f4d32c" stroke="#000" stroke-width="1"/>
    <path id="Trazado_881779" data-name="Trazado 881779" d="M36.869,6.306a3.517,3.517,0,0,1,3.517,3.517c.02,3.355-3.517,7.515-3.517,7.515s-3.54-4.161-3.516-7.515A3.516,3.516,0,0,1,36.87,6.306Z" transform="translate(-3.547 0)" fill="#f4d32c" stroke="#000" stroke-width="1"/>
    <path id="Trazado_881780" data-name="Trazado 881780" d="M53.658,6.306a3.517,3.517,0,0,1,3.517,3.517c.02,3.355-3.517,7.515-3.517,7.515s-3.536-4.161-3.516-7.515a3.516,3.516,0,0,1,3.517-3.517Z" transform="translate(-9.529 0)" fill="#f4d32c" stroke="#000" stroke-width="1"/>
    <path id="Trazado_881781" data-name="Trazado 881781" d="M70.451,6.306a3.516,3.516,0,0,1,3.516,3.517c.02,3.355-3.516,7.515-3.516,7.515s-3.54-4.161-3.52-7.515A3.517,3.517,0,0,1,70.451,6.306Z" transform="translate(-15.512)" fill="#f4d32c" stroke="#000" stroke-width="1"/>
    <path id="Trazado_881782" data-name="Trazado 881782" d="M87.237,6.306a3.516,3.516,0,0,1,3.516,3.517c.021,3.355-3.516,7.515-3.516,7.515S83.7,13.178,83.72,9.823a3.517,3.517,0,0,1,3.517-3.517Z" transform="translate(-21.494 0)" fill="#f4d32c" stroke="#000" stroke-width="1"/>
    <rect id="Rectángulo_403348" data-name="Rectángulo 403348" width="34.522" height="15.291" rx="5.275" transform="translate(32.272 51.643)" fill="#f4d32c" stroke="#000" stroke-width="1"/>
    <rect id="Rectángulo_403349" data-name="Rectángulo 403349" width="39.453" height="2.253" transform="translate(29.806 32.404)" fill="#ff5086" stroke="#000" stroke-width="1"/>
    <path id="Trazado_881783" data-name="Trazado 881783" d="M42.886,64.87H32.729a1.126,1.126,0,0,1,0-2.253H42.886a1.126,1.126,0,0,1,0,2.253Z" transform="translate(-2.923 -20.066)" fill="#ffeea4" stroke="#000" stroke-width="1"/>
    <path id="Trazado_881784" data-name="Trazado 881784" d="M59.057,64.87H56.1a1.126,1.126,0,1,1,0-2.253h2.952a1.126,1.126,0,0,1,0,2.253Z" transform="translate(-11.253 -20.066)" fill="#ffeea4" stroke="#000" stroke-width="1"/>
    <path id="Trazado_881785" data-name="Trazado 881785" d="M38.192,22.612s-.5-.591-1.126-1.506V34.335h2.253V21.106C38.7,22.021,38.192,22.612,38.192,22.612Z" transform="translate(-4.87 -5.274)" fill="#ff5086" stroke="#000" stroke-width="1"/>
    <path id="Trazado_881786" data-name="Trazado 881786" d="M54.981,22.612s-.5-.591-1.126-1.506V34.335h2.253V21.106C55.483,22.021,54.981,22.612,54.981,22.612Z" transform="translate(-10.852 -5.274)" fill="#ff5086" stroke="#000" stroke-width="1"/>
    <path id="Trazado_881787" data-name="Trazado 881787" d="M71.776,22.612s-.5-.591-1.126-1.506V34.335H72.9V21.106C72.275,22.021,71.776,22.612,71.776,22.612Z" transform="translate(-16.837 -5.274)" fill="#ff5086" stroke="#000" stroke-width="1"/>
    <path id="Trazado_881788" data-name="Trazado 881788" d="M88.56,22.612s-.5-.591-1.126-1.506V34.335h2.253V21.106C89.062,22.021,88.56,22.612,88.56,22.612Z" transform="translate(-22.818 -5.274)" fill="#ff5086" stroke="#000" stroke-width="1"/>
  </g>
</svg>
