<svg id="_46" data-name="46" xmlns="http://www.w3.org/2000/svg" xmlns:xlink="http://www.w3.org/1999/xlink" width="68.443" height="68.432" viewBox="0 0 68.443 68.432">
  <defs>
    <clipPath id="clip-path">
      <rect id="Rectángulo_403359" data-name="Rectángulo 403359" width="68.443" height="68.432" fill="none"/>
    </clipPath>
  </defs>
  <g id="Grupo_1102890" data-name="Grupo 1102890" clip-path="url(#clip-path)">
    <path id="Trazado_881791" data-name="Trazado 881791" d="M46.327,53.079,35.954,63.452a19.319,19.319,0,0,1-27.32-27.32l27.5-27.5A19.32,19.32,0,0,1,63.452,35.958L53.075,46.334" transform="translate(-1.826 -1.827)" fill="#f2a7c5"/>
    <path id="Trazado_881792" data-name="Trazado 881792" d="M20.467,68.432A20.467,20.467,0,0,1,5.988,33.486l27.5-27.5A20.478,20.478,0,0,1,62.444,34.949L52.067,45.326,50.43,43.688,60.807,33.311A18.162,18.162,0,1,0,35.124,7.625l-27.5,27.5A18.161,18.161,0,0,0,33.309,60.806L43.682,50.433l1.638,1.638L34.947,62.444a20.413,20.413,0,0,1-14.479,5.988" transform="translate(0 0)" fill="#1f2687"/>
    <path id="Trazado_881793" data-name="Trazado 881793" d="M71.428,51.965l7.965,7.965a2.42,2.42,0,0,1,0,3.423L63.343,79.4a2.42,2.42,0,0,1-3.423,0l-7.965-7.965a2.42,2.42,0,0,1,0-3.423L68.005,51.965a2.42,2.42,0,0,1,3.423,0" transform="translate(-31.462 -31.469)" fill="#cec09f"/>
    <path id="Trazado_881794" data-name="Trazado 881794" d="M59.789,79.431a3.556,3.556,0,0,1-2.531-1.048l-7.965-7.965a3.578,3.578,0,0,1,0-5.061L65.344,49.305a3.579,3.579,0,0,1,5.061,0l7.965,7.965a3.582,3.582,0,0,1,0,5.061L62.319,78.383a3.554,3.554,0,0,1-2.53,1.048m8.085-28.857a1.255,1.255,0,0,0-.893.37L50.931,66.994a1.262,1.262,0,0,0,0,1.785L58.9,76.745a1.292,1.292,0,0,0,1.785,0L76.733,60.693a1.264,1.264,0,0,0,0-1.785l-7.965-7.965a1.255,1.255,0,0,0-.893-.37" transform="translate(-29.62 -29.628)" fill="#212683"/>
    <path id="Trazado_881795" data-name="Trazado 881795" d="M125.119,22.674a1.876,1.876,0,1,1,0,2.653,1.877,1.877,0,0,1,0-2.653" transform="translate(-76.48 -13.583)" fill="#212683"/>
    <path id="Trazado_881796" data-name="Trazado 881796" d="M145.976,43.524a1.876,1.876,0,1,1,0,2.653,1.876,1.876,0,0,1,0-2.653" transform="translate(-89.285 -26.384)" fill="#212683"/>
    <path id="Trazado_881797" data-name="Trazado 881797" d="M111.3,36.5a1.876,1.876,0,1,1,0,2.653,1.876,1.876,0,0,1,0-2.653" transform="translate(-67.995 -22.074)" fill="#212683"/>
    <path id="Trazado_881798" data-name="Trazado 881798" d="M132.153,57.345a1.876,1.876,0,1,1,0,2.653,1.876,1.876,0,0,1,0-2.653" transform="translate(-80.798 -34.87)" fill="#212683"/>
    <path id="Trazado_881799" data-name="Trazado 881799" d="M36.489,111.3a1.876,1.876,0,1,1,0,2.653,1.876,1.876,0,0,1,0-2.653" transform="translate(-22.065 -67.993)" fill="#212683"/>
    <path id="Trazado_881800" data-name="Trazado 881800" d="M57.336,132.146a1.876,1.876,0,1,1,0,2.653,1.876,1.876,0,0,1,0-2.653" transform="translate(-34.864 -80.794)" fill="#212683"/>
    <path id="Trazado_881801" data-name="Trazado 881801" d="M22.66,125.134a1.876,1.876,0,1,1,0,2.653,1.876,1.876,0,0,1,0-2.653" transform="translate(-13.574 -76.489)" fill="#212683"/>
    <path id="Trazado_881802" data-name="Trazado 881802" d="M43.516,145.984a1.876,1.876,0,1,1,0,2.653,1.876,1.876,0,0,1,0-2.653" transform="translate(-26.379 -89.29)" fill="#212683"/>
    <path id="Trazado_881803" data-name="Trazado 881803" d="M121.714,120.535a1.258,1.258,0,1,1,0,1.78,1.258,1.258,0,0,1,0-1.78" transform="translate(-74.5 -73.777)" fill="#212683"/>
    <rect id="Rectángulo_403357" data-name="Rectángulo 403357" width="12.186" height="2.316" transform="translate(32.741 30.502) rotate(-45)" fill="#212683"/>
    <rect id="Rectángulo_403358" data-name="Rectángulo 403358" width="3.898" height="2.316" transform="matrix(0.707, -0.707, 0.707, 0.707, 28.861, 34.378)" fill="#212683"/>
  </g>
</svg>
