<svg xmlns="http://www.w3.org/2000/svg" width="35.536" height="71.208" viewBox="0 0 35.536 71.208">
  <g id="_47" data-name="47" transform="translate(-34.334 -4.555)">
    <rect id="Rectángulo_403360" data-name="Rectángulo 403360" width="14.774" height="6.526" transform="translate(44.716 17.52)" fill="#fee45a"/>
    <path id="Trazado_881804" data-name="Trazado 881804" d="M73.926,9.352A29.431,29.431,0,0,0,60.595,6.306a18.812,18.812,0,0,0-7.177,1.373v3.243a12.865,12.865,0,0,0,5.666,1.1c3.394-.013,9.535-.924,13.121,0Z" transform="translate(-7.654 -0.702)" fill="#fee45a"/>
    <path id="Trazado_881805" data-name="Trazado 881805" d="M45.418,37.1l-6.057,4.983a8.984,8.984,0,0,0-3.276,6.936V84.772a3,3,0,0,0,2.995,2.995H66.53a3,3,0,0,0,2.995-2.995V49.019a8.984,8.984,0,0,0-3.276-6.938L60.192,37.1Z" transform="translate(-0.702 -13.052)" fill="#99e6fc"/>
    <circle id="Elipse_11733" data-name="Elipse 11733" cx="10.529" cy="10.529" r="10.529" transform="translate(41.574 38.851)" fill="#dff6fd"/>
    <path id="Trazado_881806" data-name="Trazado 881806" d="M65.858,73.787H62.077v-3.78H58.393v3.78H54.612v3.685h3.781v3.781h3.685V77.472h3.781Z" transform="translate(-8.132 -26.249)" fill="#9cf8d2"/>
    <path id="Trazado_881807" data-name="Trazado 881807" d="M61.869,15.767c-.539,0-1.037-.024-1.506-.065h0v6.263h4.362V15.64h0C63.663,15.709,62.685,15.764,61.869,15.767Z" transform="translate(-10.439 -4.446)" fill="#fedf30"/>
    <g id="Grupo_1102892" data-name="Grupo 1102892" transform="translate(34.334 4.555)">
      <path id="Trazado_881808" data-name="Trazado 881808" d="M70.359,28.219l-5.675-4.669V17.519a1.048,1.048,0,0,0-1.048-1.048H59.479v-4.3c2.995-.2,6.656-.432,8.958.161a1.045,1.045,0,0,0,1.143-.447L71.3,9.217a1.049,1.049,0,0,0-.419-1.508A30.454,30.454,0,0,0,57.088,4.556a19.761,19.761,0,0,0-7.613,1.466,1.048,1.048,0,0,0-.612.955V10.22a1.049,1.049,0,0,0,.555.925,11.987,11.987,0,0,0,3.6,1.043v4.284H48.862a1.048,1.048,0,0,0-1.048,1.048v6.03l-2.789,2.294a1.048,1.048,0,0,0,1.331,1.617l2.882-2.371H63.261l5.767,4.745a7.906,7.906,0,0,1,2.894,6.131V53.756a1.048,1.048,0,0,0,2.1,0V35.967a10,10,0,0,0-3.658-7.747ZM50.959,9.525V7.688a18.614,18.614,0,0,1,6.128-1.036,28.484,28.484,0,0,1,11.8,2.437l-.678,1.053a39.845,39.845,0,0,0-9.044-.047c-1.34.09-2.606.175-3.594.18a13.2,13.2,0,0,1-4.612-.75Zm6.423,2.783v4.165H55.116V12.362c.133,0,.264.008.4.008h.065C56.123,12.368,56.733,12.343,57.382,12.308ZM62.588,23H49.91v-4.43H62.588Z" transform="translate(-38.481 -4.555)"/>
      <path id="Trazado_881809" data-name="Trazado 881809" d="M91.213,94.606a1.049,1.049,0,0,0-1.048,1.048v2.7a1.048,1.048,0,1,0,2.1,0v-2.7a1.048,1.048,0,0,0-1.048-1.048Z" transform="translate(-56.725 -40.669)"/>
      <path id="Trazado_881810" data-name="Trazado 881810" d="M68.822,83.2a1.048,1.048,0,0,0-1.048,1.048V88.2a1.949,1.949,0,0,1-1.947,1.947H38.377A1.949,1.949,0,0,1,36.43,88.2V52.45a7.952,7.952,0,0,1,1.836-5.077,1.048,1.048,0,0,0-1.612-1.34,10.05,10.05,0,0,0-2.321,6.417V88.2a4.048,4.048,0,0,0,4.043,4.043H65.828A4.047,4.047,0,0,0,69.87,88.2V84.25A1.048,1.048,0,0,0,68.822,83.2Z" transform="translate(-34.334 -21.038)"/>
      <path id="Trazado_881811" data-name="Trazado 881811" d="M67.825,71.646A11.577,11.577,0,1,0,56.249,83.22,11.577,11.577,0,0,0,67.825,71.646Zm-21.058,0a9.481,9.481,0,1,1,9.48,9.478,9.481,9.481,0,0,1-9.48-9.478Z" transform="translate(-38.48 -26.817)"/>
      <path id="Trazado_881812" data-name="Trazado 881812" d="M62.424,80.551V77.819h2.732A1.048,1.048,0,0,0,66.2,76.771V73.085a1.049,1.049,0,0,0-1.048-1.048H62.424V69.305a1.048,1.048,0,0,0-1.048-1.048H57.691a1.048,1.048,0,0,0-1.048,1.048v2.732H53.91a1.048,1.048,0,0,0-1.048,1.048v3.686a1.048,1.048,0,0,0,1.048,1.048h2.732v2.732A1.048,1.048,0,0,0,57.691,81.6h3.685A1.048,1.048,0,0,0,62.424,80.551Zm-2.1-3.78V79.5H58.739V76.771a1.048,1.048,0,0,0-1.048-1.048H54.958v-1.59h2.732a1.048,1.048,0,0,0,1.048-1.048V70.353h1.588v2.732a1.048,1.048,0,0,0,1.048,1.048h2.732v1.59H61.376A1.048,1.048,0,0,0,60.327,76.771Z" transform="translate(-41.765 -30.102)"/>
    </g>
  </g>
</svg>
