<svg id="_48" data-name="48" xmlns="http://www.w3.org/2000/svg" width="63.652" height="64" viewBox="0 0 63.652 64">
  <rect id="Rectángulo_403361" data-name="Rectángulo 403361" width="4" height="6" transform="translate(12 5)" fill="#cdd2e1"/>
  <path id="Trazado_881813" data-name="Trazado 881813" d="M20,15v4H8V15H20Z" fill="#4a9bf6"/>
  <path id="Trazado_881814" data-name="Trazado 881814" d="M18,11v4H10V11h8Z" fill="#dce1eb"/>
  <path id="Trazado_881815" data-name="Trazado 881815" d="M35,7H30a2.006,2.006,0,0,0-2-2H10a1.955,1.955,0,0,1-1.41-.59A1.955,1.955,0,0,1,8,3a2.006,2.006,0,0,1,2-2H29a6.009,6.009,0,0,1,6,6Z" fill="#4fc3f2"/>
  <path id="Trazado_881816" data-name="Trazado 881816" d="M27,31V61a2.006,2.006,0,0,1-2,2H3a2.006,2.006,0,0,1-2-2V26a7,7,0,0,1,7-7H20a7,7,0,0,1,7,7Z" fill="#4fc3f2"/>
  <path id="Trazado_881817" data-name="Trazado 881817" d="M23.5,28.146a1.5,1.5,0,0,1-1.5-1.5A3.165,3.165,0,0,0,19.967,23.7a1.5,1.5,0,0,1,1.062-2.8A6.18,6.18,0,0,1,25,26.646a1.5,1.5,0,0,1-1.5,1.5Z" fill="#f0f1f2"/>
  <path id="Trazado_881818" data-name="Trazado 881818" d="M23.5,32.5A1.5,1.5,0,0,1,22,31V30a1.5,1.5,0,0,1,3,0v1A1.5,1.5,0,0,1,23.5,32.5Z" fill="#f0f1f2"/>
  <path id="Trazado_881819" data-name="Trazado 881819" d="M26.1,39.5A2.823,2.823,0,0,0,29.16,42H26s-7.95-5.37-11.68-7.82a3.371,3.371,0,0,0-.32-.19v-.67A1.574,1.574,0,0,1,15.74,32H16a5.368,5.368,0,0,1,2.24.46q.3.135.6.3l7.98,5.13a2.232,2.232,0,0,0-.72,1.61Z" fill="#ffb4a3"/>
  <path id="Trazado_881820" data-name="Trazado 881820" d="M26.82,37.89c.06-.06.12-.11.18-.16A3.429,3.429,0,0,1,29.16,37H45.32a9.5,9.5,0,0,1,5.97,2.02L63,49V63H59L49.1,52H32.9a13.357,13.357,0,0,1-7.7-2.35L8.06,37.49A3.509,3.509,0,0,1,7,35a1.675,1.675,0,0,1,.91-1.52A4.383,4.383,0,0,1,10.1,33h.07a7.745,7.745,0,0,1,3.83.99,3.371,3.371,0,0,1,.32.19C18.05,36.63,26,42,26,42h3.16a2.823,2.823,0,0,1-3.06-2.5A2.232,2.232,0,0,1,26.82,37.89Z" fill="#ffc9bd"/>
  <path id="Trazado_881821" data-name="Trazado 881821" d="M20.1,31a7.468,7.468,0,0,1,3.45.82L34,37H29.16a3.429,3.429,0,0,0-2.16.73c-.06.05-.12.1-.18.16l-7.98-5.13q-.3-.165-.6-.3A1.623,1.623,0,0,1,20,31Z" fill="#fa9d82"/>
  <path id="Trazado_881822" data-name="Trazado 881822" d="M29.16,42H43a2,2,0,0,0-2-2H28a1.994,1.994,0,0,1-1.791-1.126,2.068,2.068,0,0,0-.109.626A2.823,2.823,0,0,0,29.16,42Z" fill="#ffb4a3"/>
  <path id="Trazado_881823" data-name="Trazado 881823" d="M49.343,49H30.851a6,6,0,0,1-3.381-1.044L7.873,34.6a1.974,1.974,0,0,1-.552-.589A1.639,1.639,0,0,0,7,35a3.509,3.509,0,0,0,1.06,2.49L25.2,49.65A13.357,13.357,0,0,0,32.9,52H49.1L59,63h4V61L52.172,50.172A4,4,0,0,0,49.343,49Z" fill="#ffb4a3"/>
  <path id="Trazado_881824" data-name="Trazado 881824" d="M26.1,39.5a2.227,2.227,0,0,1,.708-1.6l-.019-.01a1.225,1.225,0,0,0-.985-.053,3.626,3.626,0,0,1-3.047-.064l-6.672-3.64a3.989,3.989,0,0,1-1.638-1.693,1.156,1.156,0,0,0-.447.88v.67a3.371,3.371,0,0,1,.32.19C18.05,36.63,26,42,26,42h3.16a2.823,2.823,0,0,1-3.06-2.5Z" fill="#fa9d82"/>
  <path id="Trazado_881825" data-name="Trazado 881825" d="M39,28.92A4.3,4.3,0,0,1,34.5,33,4.3,4.3,0,0,1,30,28.92C30,26.66,33.38,19,34.5,19S39,26.66,39,28.92Z" fill="#6af8ff"/>
  <path id="Trazado_881826" data-name="Trazado 881826" d="M33,29c-.846-2.539.453-7.928.873-9.529C32.455,21.153,30,26.993,30,28.92A4.3,4.3,0,0,0,34.5,33a4.325,4.325,0,0,0,4.469-3.8C38.646,31.061,33.966,31.9,33,29Z" fill="#58dff5"/>
  <path id="Trazado_881827" data-name="Trazado 881827" d="M35.182,25.233a.488.488,0,0,0-.15.532.618.618,0,0,0,.148.182,7.925,7.925,0,0,0,1.049.873.972.972,0,0,0,.4.177.191.191,0,0,0,.095-.007.2.2,0,0,0,.073-.056.951.951,0,0,0,.2-.654,1.385,1.385,0,0,0-.306-.853,1.078,1.078,0,0,0-1.512-.194Z" fill="#fff"/>
  <path id="Trazado_881828" data-name="Trazado 881828" d="M36.468,28.452a1.941,1.941,0,0,0-.416.7.637.637,0,0,0,.113.7.788.788,0,0,0,.715.106,1.563,1.563,0,0,0,.6-.384,1.75,1.75,0,0,0,.453-.6.732.732,0,0,0-.054-.694C37.508,27.741,36.805,28.081,36.468,28.452Z" fill="#fff"/>
  <path id="Trazado_881829" data-name="Trazado 881829" d="M23,58H10a4,4,0,0,1-4-4V26c0-6,3-7,3-7H8a7,7,0,0,0-7,7V61a2.006,2.006,0,0,0,2,2H25a2.006,2.006,0,0,0,2-2V54A4,4,0,0,1,23,58Z" fill="#4a9bf6"/>
  <path id="Trazado_881830" data-name="Trazado 881830" d="M28.147,36a4,4,0,0,1-2.12-.608l-6.793-4.246a1.485,1.485,0,0,0-.994,1.314q.3.135.6.3l7.98,5.13c.06-.06.12-.11.18-.16A3.429,3.429,0,0,1,29.16,37H34l-2.017-1Z" fill="#fa8f70"/>
  <path id="Trazado_881831" data-name="Trazado 881831" d="M25.2,49.65,8.06,37.49a2.834,2.834,0,0,1-.875-1.418,3.563,3.563,0,0,0-1.275.408A1.675,1.675,0,0,0,5,38a3.509,3.509,0,0,0,1.06,2.49L23.2,52.65a12.526,12.526,0,0,0,3.8,1.8V50.7a12.074,12.074,0,0,1-1.8-1.05Z" fill="#4a9bf6"/>
  <path id="Trazado_881832" data-name="Trazado 881832" d="M11,15v1a2,2,0,0,0,2,2h7v1H8V15Z" fill="#4a7aff"/>
  <path id="Trazado_881833" data-name="Trazado 881833" d="M10,11h3v1a2,2,0,0,0,2,2h3v1H10Z" fill="#bec3d2"/>
  <path id="Trazado_881834" data-name="Trazado 881834" d="M16,5H12v6h1V9a2,2,0,0,1,2-2h1Z" fill="#8a90a0"/>
  <path id="Trazado_881835" data-name="Trazado 881835" d="M27.1,3H8a1.955,1.955,0,0,0,.59,1.41A1.955,1.955,0,0,0,10,5H28a2.006,2.006,0,0,1,2,2h2l-.053-.213A5,5,0,0,0,27.1,3Z" fill="#4a9bf6"/>
  <rect id="Rectángulo_403362" data-name="Rectángulo 403362" width="14" height="2" rx="1" transform="translate(12 1)" fill="#58dff5"/>
  <path id="Trazado_881836" data-name="Trazado 881836" d="M29.159,38H45.324a8.517,8.517,0,0,1,5.318,1.782l11.71,9.979,1.3-1.522L51.923,38.247A10.41,10.41,0,0,0,45.324,36H29.159a4.466,4.466,0,0,0-2.374.674l-7.159-4.59A1.318,1.318,0,0,1,20.1,32a6.522,6.522,0,0,1,3.006.717l6.456,3.2.888-1.792-6.439-3.19A8.613,8.613,0,0,0,20,30a2.807,2.807,0,0,0-2.363,1.2A6.452,6.452,0,0,0,16,31h-.257a2.711,2.711,0,0,0-2.576,1.537A9.155,9.155,0,0,0,10.1,32C7.572,32,6,33.149,6,35a4.515,4.515,0,0,0,1.479,3.311L24.625,50.467A14.389,14.389,0,0,0,32.9,53H48.65l9.606,10.669,1.486-1.338-9.9-11A1,1,0,0,0,49.1,51H32.9a12.376,12.376,0,0,1-7.119-2.165L8.656,36.694A2.663,2.663,0,0,1,8,35c0-.928,1.609-1,2.169-1a6.649,6.649,0,0,1,3.6,1.021c3.687,2.412,11.59,7.754,11.67,7.808A1,1,0,0,0,26,43H43V41H29.159c-1.116,0-2.059-.687-2.059-1.5S28.043,38,29.159,38ZM15.743,33H16a4.427,4.427,0,0,1,2.3.6l7.111,4.563A3.068,3.068,0,0,0,25.1,39.5a3.006,3.006,0,0,0,.1.754c-2.4-1.618-7.4-4.983-10.2-6.817v-.114C15,33.245,15.272,33,15.743,33Z"/>
  <path id="Trazado_881837" data-name="Trazado 881837" d="M34.5,18c-.479,0-1.477,0-3.584,4.7C29.989,24.771,29,27.488,29,28.917A5.31,5.31,0,0,0,34.5,34,5.31,5.31,0,0,0,40,28.917c0-1.429-.989-4.146-1.916-6.213C35.977,18,34.979,18,34.5,18Zm0,14A3.315,3.315,0,0,1,31,28.917c0-1.742,2.339-7.167,3.5-8.667,1.161,1.5,3.5,6.925,3.5,8.667A3.315,3.315,0,0,1,34.5,32Z"/>
  <path id="Trazado_881838" data-name="Trazado 881838" d="M26,61a1,1,0,0,1-1,1H3a1,1,0,0,1-1-1V26a6.006,6.006,0,0,1,6-6H20a6.006,6.006,0,0,1,6,6v5h2V26a8.008,8.008,0,0,0-7-7.931V15a1,1,0,0,0-1-1H19V11a1,1,0,0,0-1-1H17V6H28a1,1,0,0,1,1,1,1,1,0,0,0,1,1h5a1,1,0,0,0,1-1,7.008,7.008,0,0,0-7-7H10a3,3,0,1,0,0,6h1v4H10a1,1,0,0,0-1,1v3H8a1,1,0,0,0-1,1v3.069A8.008,8.008,0,0,0,0,26V61a3,3,0,0,0,3,3H25a3,3,0,0,0,3-3V57H26ZM9,3a1,1,0,0,1,1-1H29a5.008,5.008,0,0,1,4.9,4H30.83A3.006,3.006,0,0,0,28,4H10A1,1,0,0,1,9,3Zm4,3h2v4H13Zm-2,6h6v2H11ZM9,16H19v2H9Z"/>
  <rect id="Rectángulo_403363" data-name="Rectángulo 403363" width="2" height="2" transform="translate(26 53)"/>
  <path id="Trazado_881839" data-name="Trazado 881839" d="M43,22h2V20h2V18H45V16H43v2H41v2h2Z"/>
  <path id="Trazado_881840" data-name="Trazado 881840" d="M28,16V14h2V12H28V10H26v2H24v2h2v2Z"/>
</svg>
