<svg xmlns="http://www.w3.org/2000/svg" width="90.589" height="48.632" viewBox="0 0 90.589 48.632">
  <g id="_49" data-name="49" transform="translate(0 -118.568)">
    <path id="Trazado_881841" data-name="Trazado 881841" d="M95.813,134.281h0A3.814,3.814,0,0,1,92,138.095H11.9a3.814,3.814,0,0,1-3.814-3.814h0a7.629,7.629,0,0,1,7.629-7.629H88.184A7.629,7.629,0,0,1,95.813,134.281Z" transform="translate(-6.654 -6.654)" fill="#007dbc"/>
    <path id="Trazado_881842" data-name="Trazado 881842" d="M93.822,207.912h0a6.807,6.807,0,0,1-5.806-3.253l-4.475-7.309a5.835,5.835,0,0,0-4.977-2.788h0a5.835,5.835,0,0,0-4.977,2.788l-4.475,7.309a6.808,6.808,0,0,1-5.806,3.253h0a22.886,22.886,0,0,1-22.886-22.886V173.583a3.814,3.814,0,0,1,3.814-3.814h68.657a3.814,3.814,0,0,1,3.814,3.814v11.443A22.886,22.886,0,0,1,93.822,207.912Z" transform="translate(-33.27 -42.142)" fill="#79b7ac"/>
    <path id="Trazado_881843" data-name="Trazado 881843" d="M145.451,169.869l-29.032,29.408-1.18-1.928a5.835,5.835,0,0,0-4.977-2.788h0a5.835,5.835,0,0,0-4.977,2.788l-4.475,7.309A6.808,6.808,0,0,1,95,207.911h0a22.811,22.811,0,0,1-16.072-6.595l31.145-31.548h34.513A3.82,3.82,0,0,1,145.451,169.869Z" transform="translate(-64.967 -42.141)" fill="#91cec5"/>
    <path id="Trazado_881844" data-name="Trazado 881844" d="M84.579,180.319,74.006,190.793a1.43,1.43,0,0,1-2.013-2.032l10.573-10.474a1.43,1.43,0,0,1,2.013,2.032Zm29.958,13.23-.191.191a1.43,1.43,0,1,0,2.023,2.023l.191-.191a1.43,1.43,0,1,0-2.023-2.023ZM119.6,178.3a1.43,1.43,0,0,0-2.023-.01L107.009,188.76a1.43,1.43,0,1,0,2.013,2.032l10.573-10.474A1.43,1.43,0,0,0,119.6,178.3Zm-32.377-1.377a1.426,1.426,0,0,0,1.011-.419l.191-.191a1.43,1.43,0,0,0-2.023-2.023l-.191.191a1.43,1.43,0,0,0,1.011,2.442Zm35.016,0a1.426,1.426,0,0,0,1.011-.419l.191-.191a1.43,1.43,0,1,0-2.023-2.023l-.191.191a1.43,1.43,0,0,0,1.011,2.442Zm16.286-7.152h-.4l-19.967,19.967a1.43,1.43,0,1,0,2.023,2.023L141.137,170.8A3.8,3.8,0,0,0,138.53,169.767ZM78.608,193.531l-.206.2a1.43,1.43,0,1,0,2.012,2.034l.206-.2a1.43,1.43,0,1,0-2.012-2.034Zm3.906-4.067a1.43,1.43,0,1,0,2.012,2.034l21.969-21.731h-4.068Z" transform="translate(-58.906 -42.14)" fill="#fff"/>
    <path id="Trazado_881845" data-name="Trazado 881845" d="M90.589,127.627a5.254,5.254,0,0,1-1.21,3.351,1.43,1.43,0,1,1-2.2-1.829,2.354,2.354,0,0,0,.549-1.523,6.205,6.205,0,0,0-6.2-6.2H9.059a6.205,6.205,0,0,0-6.2,6.2,2.384,2.384,0,0,0,.824,1.8,1.43,1.43,0,1,1-1.873,2.162A5.243,5.243,0,0,1,0,127.627a9.069,9.069,0,0,1,9.059-9.059H81.531A9.069,9.069,0,0,1,90.589,127.627Zm-5.721,3.814v11.443A24.344,24.344,0,0,1,60.552,167.2a8.289,8.289,0,0,1-7.026-3.937l-4.475-7.309a4.4,4.4,0,0,0-7.513,0l-4.475,7.309a8.289,8.289,0,0,1-7.026,3.937A24.344,24.344,0,0,1,5.721,142.884V131.441a5.251,5.251,0,0,1,5.245-5.245H79.623A5.251,5.251,0,0,1,84.868,131.441Zm-2.861,0a2.387,2.387,0,0,0-2.384-2.384H10.966a2.387,2.387,0,0,0-2.384,2.384v11.443A21.48,21.48,0,0,0,30.037,164.34a5.411,5.411,0,0,0,4.586-2.569l4.475-7.309a7.266,7.266,0,0,1,12.393,0l4.475,7.309a5.411,5.411,0,0,0,4.586,2.57,21.48,21.48,0,0,0,21.455-21.455Z" transform="translate(0)"/>
  </g>
</svg>
