<svg xmlns="http://www.w3.org/2000/svg" width="314.917" height="314.917" viewBox="0 0 314.917 314.917">
  <g id="Grupo_1101582" data-name="Grupo 1101582" transform="translate(-390.002 -1147.081)">
    <path id="Trazado_880074" data-name="Trazado 880074" d="M.029,157.458Q.029,79.435,0,1.412C0,.26.26,0,1.412,0Q157.458.046,313.5,0c1.153,0,1.413.259,1.413,1.412q-.047,156.046,0,312.092c0,1.152-.259,1.413-1.412,1.412q-156.046-.046-312.092,0C.26,314.917,0,314.658,0,313.5q.05-78.023.029-156.046" transform="translate(390.002 1147.081)" fill="#d7e8fc"/>
    <circle id="Elipse_11720" data-name="Elipse 11720" cx="79.5" cy="79.5" r="79.5" transform="translate(468.051 1238)" fill="#fafdf2"/>
    <g id="Grupo_1101581" data-name="Grupo 1101581">
      <path id="Trazado_880075" data-name="Trazado 880075" d="M333.134,243.634c-.736-.734-1.242.017-1.7.351-8.588,6.21-15.456,13.749-18.539,24.186-.52,1.758-1.073,3.505-1.611,5.258-.807.926-1.951.8-2.99.884a2.553,2.553,0,0,0-2.674,2.147,34.652,34.652,0,0,1-1.868,4.851c-.218.533-.389,1.372-1.181,1.108-.7-.233-.248-.974-.263-1.5a41.97,41.97,0,0,1,1.412-4.06c.777-2.277.751-2.363-1.6-2.313A32.873,32.873,0,0,1,289.9,272.6c-.867-.32-1.7-.705-2.548-1.071-1.279-.554-1.529-.446-1.741.905a17.881,17.881,0,0,0,4.452,15.519q5.768,6.4,12.05,12.282c3.361,3.159,6.594,6.441,9.891,9.662a8.972,8.972,0,0,1,1.8,2.282c.141.274.256.6-.011.852s-.6.081-.832-.1a27.777,27.777,0,0,1-3.045-2.579c-5.6-5.7-11.418-11.179-17.072-16.822a67.869,67.869,0,0,1-4.916-5.488,18.875,18.875,0,0,1-3.868-16.45,1.875,1.875,0,0,0-1.1-2.331,42.587,42.587,0,0,1-8.7-6.531c-.727-.8-.305-1.535.194-2.2a74.983,74.983,0,0,1,7.425-9.134,49.276,49.276,0,0,0,10.339-14.12,2.524,2.524,0,0,0,.481-1.719c-2.24-3.171-4.832-6.08-6.9-9.373a3.789,3.789,0,0,1-.968-2.037c.006-.072.012-.144.019-.216-.478-.786.078-1.188.578-1.648,3.091-2.842,6.143-5.725,9.27-8.526.766-.686.776-1.111.1-1.823-7.106-7.43-6.125-18.75,2.364-25.543,4.047-3.239,8.774-3.632,13.689-2.583,2.036.435,4.049.977,6.115,1.337-3.818-2.108-7.271-5-11.916-5.187-4.617-.187-8.128,1.973-11.159,5.177-.313.332-.508.781-.837,1.092-.545.515-.81,1.947-1.6,1.433-.971-.629.056-1.627.474-2.35,4.271-7.376,12.517-9.922,20.256-6.276,1.713.807,3.406,1.654,5.11,2.48,5.823,2.824,9.8,2.015,14.1-2.792a36.971,36.971,0,0,1,6.291-6.065c6.415-4.437,13.306-4.853,20.014-1.211,6.548,3.554,10.041,9.346,9.631,17.051-.242,4.543-2.78,7.672-6.48,10.015-.71-.426-.205-.847.053-1.195.487-.656,1.025-1.274,1.543-1.908a11.725,11.725,0,0,0,2.422-7.588c.008-.557-.147-1.126.218-1.589a9.261,9.261,0,0,1-3.834,3.176c-3.982,2.065-8.085,3.486-12.658,2.14a3.346,3.346,0,0,1-2.715-2.931c-.255-1.8-1.328-2.759-2.763-2.722a3.331,3.331,0,0,0-2.925,2.9c-.128.809.009,1.638-.163,2.446-.341,1.112-1.291,1.741-2.014,2.552a24.6,24.6,0,0,1-6.087,4.871,26.33,26.33,0,0,1-8.618,2.665c-1.618.234-1.692.365-.762,1.632a29.2,29.2,0,0,1,4.031,8.754,10.906,10.906,0,0,0,2.521,4.523c2.626,2.665,5.709,2.105,7.291-1.281a27.466,27.466,0,0,0,1.081-4.312,7.033,7.033,0,0,1,1.087-2.788c.374-.459.691-1.024,1.432-.922A13.174,13.174,0,0,1,344.8,217.01c.074,8.708.027,17.417.03,26.125a1.862,1.862,0,0,1-1.226.839,33.065,33.065,0,0,1-9.986.009.849.849,0,0,1-.485-.349" transform="translate(228.434 1047.382)" fill="#235171"/>
      <path id="Trazado_880076" data-name="Trazado 880076" d="M253.936,509.933c2.465.364,4.89-.2,7.332-.34,3.568-.2,7.127-.565,10.692-.816,3.62-.255,7.182-.927,10.77-1.414a25.882,25.882,0,0,0,9.758-3.36,9.264,9.264,0,0,1,9.531.1c6.432,3.57,12.827,7.206,19.238,10.812a6.06,6.06,0,0,0,2.089.922c4.438,1.963,7.94,4.858,9.587,9.609a1.634,1.634,0,0,1-.173.705,2.351,2.351,0,0,0-.312.527c-1.139,4.516-4.445,6.871-8.521,8.32a191.5,191.5,0,0,1-27.033,7.6,17.358,17.358,0,0,1-3.983.167,1.947,1.947,0,0,1-1.751-.772,10.341,10.341,0,0,1-.2-3.6,2.552,2.552,0,0,0-.891-2.274,23.358,23.358,0,0,0-2.457-3.291c-3.248-1.985-6.766-1.749-10.283-1.174-5.252.858-10.466,1.937-15.731,2.73a17.521,17.521,0,0,1-2.6.169c-4.1,0-8.194.052-12.29-.013-4.31-.069-8.587.37-12.869.713-4.538.364-9.087.514-13.629.815-7.247.481-14.482,1.146-21.726,1.611-7.314.469-14.3,2.486-21.44,3.751a109.682,109.682,0,0,1-13.726,1.457c-8.853.438-17.71.115-26.561.323-2.758.065-5.516.3-8.28.255a7.24,7.24,0,0,1-2.869-.408,1.388,1.388,0,0,1-.663-1.14,23.026,23.026,0,0,1,.734-8.581,2.432,2.432,0,0,1,1.039-1.456,3.115,3.115,0,0,1,1.346-.263c10.9-.1,21.6-2.077,32.349-3.6a201.341,201.341,0,0,0,21.918-4.746c6.31-1.627,12.723-2.713,19.112-3.932,7.244-1.383,14.514-2.619,21.758-4.008,5.882-1.128,11.792-2.144,17.7-3.168,3.267-.566,6.54-1.148,9.778-1.88a30.127,30.127,0,0,1,3.262-.355" transform="translate(316.34 850.494)" fill="#6ca6b1"/>
      <path id="Trazado_880077" data-name="Trazado 880077" d="M616.334,534.771c5.648,4.42,6.82,10.346,5.655,17.014a13.343,13.343,0,0,0-.053,3.948c.394,3.3-.122,6.316-2.963,8.505a3.763,3.763,0,0,1-2.938,1.435,83.231,83.231,0,0,1-17.3.549c-.661-.034-1.323-.147-1.988-.142A120.337,120.337,0,0,1,577.8,564.65a72.564,72.564,0,0,0-21.849.362,31.439,31.439,0,0,1-12.016-.439c-.386-.262-.436-.549-.018-.82a3.967,3.967,0,0,1,1.462-.431,235.265,235.265,0,0,0,25.52-6.623,16.865,16.865,0,0,0,5.929-3.45,7.544,7.544,0,0,0,2.373-3.864,2.859,2.859,0,0,1,1.741-2.176c4.343-.974,8.7-1.714,13.17-.94a3.394,3.394,0,0,1,1.429.5c.611.525.573,1.285.672,1.978a4.818,4.818,0,0,0,2.129,3.41,2.9,2.9,0,0,0,3.329.043,2.663,2.663,0,0,0,1.2-2.931,7.948,7.948,0,0,0-1.428-3.025c-1.15-1.771-.7-2.569,1.373-2.779a44.8,44.8,0,0,0,7.6-.927c3.763-1.046,5.336-2.96,5.524-6.861.017-.355-.012-.731.4-.909" transform="translate(69.292 831.592)" fill="#234f70"/>
      <path id="Trazado_880078" data-name="Trazado 880078" d="M171.788,608.032c-1.847-.155-3.674.321-5.5.247-13.411-.547-26.831.028-40.238-.361-6.143-.178-12.291.1-18.415-.279-5.324-.329-10.651.053-15.953-.31-4.454-.305-8.9-.049-13.345-.277-5.819-.3-11.642-.4-17.461-.634-6.626-.262-13.246-.718-19.859-1.224-3.2-.244-6.367-.788-9.547-1.215-.384-.052-.918-.108-.908-.622.007-.394.483-.469.824-.551a63.592,63.592,0,0,1,8.77-1.246c2.688-.264,5.386-.419,8.08-.622a.739.739,0,0,1,.86-.068c2.746,1.386,5.453.777,8.155-.141a3.03,3.03,0,0,1,1.639-.259,4.606,4.606,0,0,0,2.189.518c3.04-.089,6.056.387,9.093.4a16.4,16.4,0,0,1,2.3-.133c4.2.007,8.4.088,12.59-.018,5.223-.132,10.43.244,15.644.365a149.016,149.016,0,0,0,31.44-2.581,33.1,33.1,0,0,1,6.259-.541q17.887.036,35.775.015a8.679,8.679,0,0,1,2.739.208c.767.882.715,1.37-.52,1.975a20.388,20.388,0,0,0-4.917,3.748,1.237,1.237,0,0,0-.438.762c-.018.283.033.566.02.848-.208.828,1,1.14.729,1.99" transform="translate(371.974 794.003)" fill="#abccd1"/>
      <path id="Trazado_880079" data-name="Trazado 880079" d="M207.428,360.206a2.441,2.441,0,0,0,2.67-1.491,20.765,20.765,0,0,1,3.844-4.54,12.794,12.794,0,0,0,3.064-4.5c1.67-3.872,3.51-7.68,4.975-11.629,2.247-6.059,5.295-11.793,7.287-17.935,1.095-3.374,3.6-5.45,5.936-7.752,3.257-3.213,6.568-6.371,10.016-9.382l.066.109a4.065,4.065,0,0,0,.713,1.95A35.711,35.711,0,0,1,249.45,313a2.228,2.228,0,0,1-.859,2.688c-2.235,1.695-4.415,3.464-6.669,5.131a2.531,2.531,0,0,0-1.262,2.7,22.018,22.018,0,0,1-2.764,6.624c-3.72,7-7.39,14.024-11.55,20.782-1.834,2.979-3.284,6.123-2.761,9.826.119.843.328,1.865-.551,2.566-.323.308-.406-.882-.89-.1-.964,1.564-2.3,2.876-3.132,4.538-.447.734.34,1.425.078,2.155-1.958,1.691-2.49,1.777-3.843.625a4.739,4.739,0,0,1,.534-3.234,1.138,1.138,0,0,0-.57-1.632,27.224,27.224,0,0,1-3.225-2.029,1.223,1.223,0,0,0-1.961.274,8.918,8.918,0,0,1-2.069,2.2c-.921-.193-.907-.967-1-1.65a10.382,10.382,0,0,1-.254-1.634c.016-.1.039-.23.116-.26,1.292-.515,1.263-1.361.608-2.37" transform="translate(268.057 968.34)" fill="#fcafa6"/>
      <path id="Trazado_880080" data-name="Trazado 880080" d="M162.556,447c2.658-1.4,4.662.406,6.823,1.4.636.293,1.223.691,1.833,1.041.893-.217,1.493.476,2.242.713,4.807,2.459,9.377,5.348,14.169,7.834a3.808,3.808,0,0,1,.736.546,5.943,5.943,0,0,0,2.267,1.24,40.42,40.42,0,0,1,6.434,3.578,5.348,5.348,0,0,1,1.607,7.575c-1.328,2.19-2.476,4.481-3.851,6.644A2.74,2.74,0,0,1,192.939,479c-1.671.222-3.011-.85-4.548-1.155-2.929-1.524-5.751-3.243-8.646-4.829a9.247,9.247,0,0,0-3.047-1.345,7.754,7.754,0,0,1-1.8-.821c-1.8-1-1.952-1.548-.978-3.421s.16-3.414-1.939-3.779a.778.778,0,0,0-.866.457c-.382.6-.669,1.259-1,1.893-.691,1.34-1.224,1.488-2.55.718-.661-.385-1.254-.873-1.876-1.319-2.724-1.977-5.851-3.256-8.686-5.035-.945-.593-2.268-.826-2.444-2.268a2.891,2.891,0,0,1,.533-1.423c1.726-2.6,3.086-5.419,4.9-7.961A3.23,3.23,0,0,1,162.556,447" transform="translate(298.818 883.677)" fill="#f6f9fd"/>
      <path id="Trazado_880081" data-name="Trazado 880081" d="M418.021,350.3c2.7-.131,5.382.4,8.089.057a20.313,20.313,0,0,0,3.609-.557c.025,4.2.079,8.392.059,12.588a3.794,3.794,0,0,0,1.178,2.85q5.573,5.8,10.536,12.132c3.779,4.807,7.724,9.487,11.685,14.146,1.146,1.347,3.023,1.348,4.619,1.8,3.038.852,6.227,1.241,8.942,3.048a2.842,2.842,0,0,1,1.148.967c-.645.432-.593,1.076-.629,1.754-.056,1.053-.777,1.525-1.525.861-1.7-1.513-3.83-.764-5.682-1.365-.614-.2-1.247.123-1.146.829.2,1.43-.658,1.763-2.067,1.975a9.365,9.365,0,0,1,4.542,1.537,1.862,1.862,0,0,0,1.882.273c.244,1.142-.176,1.756-1.206,1.419-2.954-.967-6.026-1.575-8.871-2.864a3.633,3.633,0,0,1-1.713-1.718c-1.458-3.036-4.225-4.807-6.6-6.941-7.623-6.85-15.492-13.424-22.88-20.54a10.855,10.855,0,0,1-3.314-7.772c-.21-4.23-.586-8.453-.89-12.679a2.936,2.936,0,0,1,.232-1.794" transform="translate(143.547 940.715)" fill="#fe7d70"/>
      <path id="Trazado_880082" data-name="Trazado 880082" d="M380.965,463.3c-.82,1.237-2.086.468-3.131.694-2.621.213-5.226.56-7.818,1a4.245,4.245,0,0,1-1.8.185c-.64-.233-.858-.846-1.185-1.35a113.939,113.939,0,0,0-11.272-14.315c-4.757-5.267-9.454-10.592-14.373-15.712a3.423,3.423,0,0,1-1.144-1.944,1.066,1.066,0,0,1,.041-.829,1.452,1.452,0,0,1,1.564.062c-.05.438-.1.877-.179,1.575a8.119,8.119,0,0,0,1.282-2.65,12.416,12.416,0,0,0,1.346-3.545c.23-1.912,1.381-2.3,2.937-2.422,1.059-.084,2.111-.239,3.167-.363a70.437,70.437,0,0,0,5.959,6.988c8.581,9.707,16.753,19.724,23.645,30.727.375.6.64,1.266.957,1.9" transform="translate(189.311 897.13)" fill="#598da2"/>
      <path id="Trazado_880083" data-name="Trazado 880083" d="M459.139,605.39c5.884.889,11.7.254,17.567-.437a62.645,62.645,0,0,1,18.364.5,96.552,96.552,0,0,0,14.519,1.207c5.989.157,11.974.426,17.968.067a23.327,23.327,0,0,0,6.877-1.347c.739.64,1.716.084,2.5.5.381.2,1.051.108,1.038.715-.012.545-.629.605-1.03.775-.925.393-1.926.124-2.888.279-3.981.644-8.009.834-12.022,1.133-6.1.455-12.214.846-18.324,1.215-2.345.141-4.7.153-7.044.268-5.619.274-11.26.131-16.878.419-8.178.42-16.361.426-24.539.668-4.452.132-8.9.069-13.35.218-12.031.4-24.066.288-36.1.31-1.327,0-2.624.452-3.966.307-.493-.053-1.039.142-1.445-.313-.353-1.173.859-1.018,1.292-1.527a1.87,1.87,0,0,1,.518-.127c2.432-.069,4.863-.02,7.294-.029a2.375,2.375,0,0,0,1.838-.528c3.98-1.848,7.935-3.516,12.536-3.333,7.353.291,14.684-.473,22.007-1.1,2.293-.2,4.6.1,6.892-.236a27.328,27.328,0,0,1,4.851-.135,1.854,1.854,0,0,1,1.523.538" transform="translate(153.83 790.453)" fill="#adcdd3"/>
      <path id="Trazado_880084" data-name="Trazado 880084" d="M144.866,474.737c.026.609.484.823.937,1.078,3.116,1.755,6.222,3.528,9.336,5.288a1.7,1.7,0,0,1,.805.659,6.65,6.65,0,0,0-1.559,1.65c-1.295,2.282-1.8,2.541.791,3.868a1.531,1.531,0,0,1,.621,2.446c-.217.347-.4.715-.627,1.057a1.071,1.071,0,0,0,.438,1.764,4.56,4.56,0,0,1,.39.246c1.9,1.249,1.9,1.249,3.064-.711,1.03-1.733,1.55-1.885,3.348-.977,1.574.795,1.564.766,2.553-.677.572-.835.878-1.87,1.776-2.471,1.666-.063,2.775,1.133,4.086,1.848,2.547,1.389,5.048,2.862,7.568,4.3.186.977-.527,1.642-.951,2.334-1.548,2.53-3.186,5.005-4.686,7.567a13.938,13.938,0,0,1-3.278,3.626,6.222,6.222,0,0,1-2.186-1.015c-2.066-1.308-4.381-2.27-6.3-3.758-1.894-1.472-4.234-2.009-6.12-3.5a34.111,34.111,0,0,0-3.874-2.08c-3.033-1.78-6.02-3.642-9.109-5.319-1.405-.763-3.021-1.141-4.091-2.457a7.329,7.329,0,0,1,1.007-5.4c1.6-2.849,3.489-5.512,5.059-8.373.223-.406.3-1.03,1-.994" transform="translate(308.801 867.01)" fill="#d1e4e6"/>
      <path id="Trazado_880085" data-name="Trazado 880085" d="M678.677,520.093c.786,4.9-2.206,7.36-6.161,8.335a37.2,37.2,0,0,1-7.613.769c-1.595.059-1.812.41-.933,1.81a10.462,10.462,0,0,1,1.768,3.367,3.322,3.322,0,0,1-1.4,3.627,3.815,3.815,0,0,1-4.186-.166,5.452,5.452,0,0,1-2.149-3.758c-.056-.559-.059-1.124-.086-1.685-.031-.2-.084.055-.053-.14.4-2.538-1.153-3.794-2.99-5.129a10.881,10.881,0,0,1-4.12-6.3c-.2-.786-.325-1.634-1.2-2.03a.669.669,0,0,1-.265-.332,2.081,2.081,0,0,0,.787-2.3c-.225-1.409-.24-2.954,1.2-3.97a3.342,3.342,0,0,1,3.967-.208c.51.305,1.109.458,1.646.723.406.2.5-.243.764-.308.625.483.329,1.354.843,1.966.545-.953-.064-1.6-.487-2.286,1.036-.794,1.7.275,2.437.594,1.073.468,1.72.411,2.183-.708a5.892,5.892,0,0,1,.631-1.042c.99-1.443,1.97-1.372,2.832.2.489.892.969,1.789,1.454,2.684,1.367,2.524,4.1,2.582,6.351,3.484a11.621,11.621,0,0,1,4.772,2.8" transform="translate(6.949 846.27)" fill="#fdb1a8"/>
      <path id="Trazado_880086" data-name="Trazado 880086" d="M373.255,594.13c-.358-.647-1.3-.919-1.189-1.866a2.4,2.4,0,0,0,2.631-.816,36.04,36.04,0,0,1,7.711-5.664,57.907,57.907,0,0,0-5.628,3.718,19.851,19.851,0,0,1-3.157,1.857c-.517.246-1.039.477-1.551-.016-.18-1.442,1.2-1.741,1.921-2.453a13.217,13.217,0,0,1,4.193-2.836,1.022,1.022,0,0,0,.617-.821,11.957,11.957,0,0,1,7.044-3.017,40.7,40.7,0,0,1,4.912-.013c4.347.225,8.538-.652,12.755-1.537,9.36-1.964,18.679-4.135,28.124-5.676a3.456,3.456,0,0,1,2.5.4c.544,1.057,1.724,1.716,1.886,3.013,1.224,1.83,1.109,3.806.635,5.823a3.624,3.624,0,0,1-1.807.26c-7.543-.363-15.007.789-22.512,1.137-3.583.166-7.129.842-10.723.71a5.9,5.9,0,0,0-4.034,1.626c-2.626,2.156-5.772,3.03-8.985,3.758a4.237,4.237,0,0,1-1.678.088c-.908-.1-1.926.184-2.609-.723-.184-.428.066-.661.515-.936-2.417,1.116-4.3,2.831-6.533,3.978-.358.184-.645.508-1.071.563a.873.873,0,0,1-.95-.336.782.782,0,0,1,.067-.867,5.985,5.985,0,0,1,1.709-1.742c1.791-1.262,3.492-2.657,4.946-3.477a71.118,71.118,0,0,0-7.009,5.009,5.8,5.8,0,0,1-2.152,1.137l-.579-.287" transform="translate(170.507 807.905)" fill="#fcb0a5"/>
      <path id="Trazado_880087" data-name="Trazado 880087" d="M434.243,214.864c-.223-1.862-.327-3.689,1.286-5.094a3.146,3.146,0,0,1,5.318,1.691c.529,2.621.928,3.079,3.6,3.419,5.4.686,10.041-1.1,14.15-4.512.306-.254.591-.533,1-.9a12.21,12.21,0,0,1-3.05,10.809c-.443.508-1.324.8-1.168,1.739a1.309,1.309,0,0,0-.793,1.6,14.086,14.086,0,0,1,.173,2.267c.1,1.355-.468,2.066-1.874,1.894a2.272,2.272,0,0,0-2.577,1.366,4.176,4.176,0,0,1-2.775,2.247,2.505,2.505,0,0,0-1.589,1.107c-1.425,2.072-3.638,1.547-5.039.3a12.431,12.431,0,0,1-2.835-3.374c-.344-.643-.68-1.538-1.68-1.6-.509-3.026-1.3-6.03-.656-9.142a2.507,2.507,0,0,0-.684-2.383,2.4,2.4,0,0,1-.8-1.432" transform="translate(133.894 1023.882)" fill="#fdb0a7"/>
      <path id="Trazado_880088" data-name="Trazado 880088" d="M231.388,522.417c2.757-.793,5.627-.777,8.439-1.179a1.444,1.444,0,0,1,1.421.271,70.957,70.957,0,0,1-7.129,1.523c-5.9,1.107-11.8,2.225-17.709,3.3-6.61,1.208-13.2,2.517-19.823,3.654q-10.464,1.8-20.86,3.917c-4.641.942-9.18,2.378-13.806,3.4-7.159,1.59-14.4,2.713-21.679,3.634-4.489.567-8.976,1.181-13.472,1.705a57.035,57.035,0,0,1-9.486.342c-.644-.168-.906.809-1.589.53a19.761,19.761,0,0,1-5.137-.337c-.808-.144-1.61-.331-1.9-1.27.1-1.494.208-2.984,1.625-3.934,8.416,2.524,17.05,2.478,25.671,1.9A119.433,119.433,0,0,0,153,537.18c.367-.25.85-.086,1.215-.344,3.8-.759,7.623-1.407,11.4-2.265a54.426,54.426,0,0,0,6.1-1.453c9.432-2.554,19.043-4.255,28.645-6q7.239-1.316,14.489-2.575a5.8,5.8,0,0,0,1.454-.472,2.2,2.2,0,0,1,.773-.127c3.467-.268,6.856-1.077,10.3-1.494,1.325-.161,2.668-.9,4.009-.033" transform="translate(325.896 839.612)" fill="#52859e"/>
      <path id="Trazado_880089" data-name="Trazado 880089" d="M43.564,528.577a1.345,1.345,0,0,1,1.929.128c1.394,1.165,3.044,2.074,3.936,3.762a.611.611,0,0,0,.752.352c.373-.093.392-.426.4-.735.03-1.377.053-2.755.079-4.133.834.2.688.905.723,1.472.07,1.123-.025,2.251.056,3.375a3.521,3.521,0,0,0,1.2,2.724c3.746,2.923,7.246,6.165,11.309,8.679.8.5,1.883.643,2.293,1.684a1.38,1.38,0,0,1-.091,1.033,13.947,13.947,0,0,0-1.562,6.1,1.28,1.28,0,0,1-2.22.832,11.947,11.947,0,0,0-4.748-1.137,5.676,5.676,0,0,1-5.033-3.231c-1.919-3.7-4.807-6.749-7.014-10.26a16.319,16.319,0,0,0-1.82-1.865c-.29-.545-.42-1.22.224-1.45,1.013-.362,1.684.461,2.259.938-.921-1.2-2.509-1.836-3.666-3-.267-.269-.745-.426-.559-.962l.01-.614c2.066.2,3.376,1.7,4.917,2.855-.91-.912-1.928-1.67-2.855-2.529-.393-.364-.931-.838-.413-1.429.441-.5.947-.068,1.391.143A13.813,13.813,0,0,1,46.7,532.52c-.971-1.171-3.091-1.721-3.135-3.944" transform="translate(365.24 835.616)" fill="#fdb2a9"/>
      <path id="Trazado_880090" data-name="Trazado 880090" d="M78.416,541.841c-5.176-2.427-9.163-6.5-13.67-9.859-1.24-.922-1.4-2.264-1.5-3.671-.1-1.45.454-2.935-.221-4.353-.138-.985-.259-2.12.778-2.57a2.847,2.847,0,0,1,3.184.848c1.618,1.577,2.432,3.76,4.016,5.352a75.788,75.788,0,0,0,11.7,9.936c.211.14.4.308.6.462a18.869,18.869,0,0,0-1.246,3.863,3.246,3.246,0,0,1-3.649-.008" transform="translate(352.872 839.608)" fill="#fc7e71"/>
      <path id="Trazado_880091" data-name="Trazado 880091" d="M44.352,549.061a4.46,4.46,0,0,1,2.342,2.092c2.319,3.7,5.286,6.951,7.337,10.833a3.634,3.634,0,0,0,2.911,1.948c2.294.305,4.669.371,6.734,1.668.229.144.6.066.9.092,1.076,1.156.963,2.721,1.412,4.094a1.049,1.049,0,0,1-.08,1.2,18.394,18.394,0,0,1-5.168,1.515,7.624,7.624,0,0,1-5.3-1.274c-1.662-2.285-2.578-4.943-3.695-7.495a22.267,22.267,0,0,0-4.408-6.893,10.144,10.144,0,0,1-2.49-4.657,3.346,3.346,0,0,0-1.713-2.564c-.367-.487-.581-1.109.029-1.416.682-.343.836.494,1.187.861" transform="translate(364.763 823.717)" fill="#fc7e71"/>
      <path id="Trazado_880092" data-name="Trazado 880092" d="M141.079,456.511c-1.064,2.233-2.523,4.235-3.733,6.374-1.41,2.493-3.551,4.772-3.091,8.015.016.111-.155.249-.24.374-3.1-1.976-3.544-5.244-1.71-8.285,2.647-4.391,5.164-8.863,7.891-13.2,1.171-1.863,2-4.043,4.078-5.251.7-.408,3.731-.946,4.4-.564.719.413.294.96.116,1.468-2.45,1.634-3.656,4.209-5.05,6.649-.854,1.493-1.769,2.949-2.657,4.423" transform="translate(312.589 885.235)" fill="#c0dde5"/>
      <path id="Trazado_880093" data-name="Trazado 880093" d="M426.316,223.546a4.182,4.182,0,0,1,1.855,4.959,11.164,11.164,0,0,0,.575,6.161,2.041,2.041,0,0,1-.29,1.837c-.288,1.113-1.584,1.506-1.87,2.621-1.271.928-1.668,2.356-2.138,3.742-.553.3-.678.968-1.2,1.324-1.168.8-2.052.531-2.439-.816a3.84,3.84,0,0,1-.116-1.367,71.117,71.117,0,0,1,2.774-14.578c.194-.663.771-1.081.925-1.741l1.921-2.142" transform="translate(141.82 1015.199)" fill="#fb7d71"/>
      <path id="Trazado_880094" data-name="Trazado 880094" d="M618.185,541.951a17.61,17.61,0,0,0-8.549-8.81c-.292-.153-.484-.5-.723-.753.688-.5,1.479-.272,2.222-.283,4.011-.061,8.034.2,12.014-.6a19.314,19.314,0,0,0,2.323-.719l.087.109c.113,1.067-.5,1.958-.75,2.933a26.234,26.234,0,0,0-.935,4.495,2.73,2.73,0,0,1-1.378,2.27,8.73,8.73,0,0,1-4.31,1.359" transform="translate(30.773 833.942)" fill="#fcb2a5"/>
      <path id="Trazado_880095" data-name="Trazado 880095" d="M217.04,537.648l-1.133,0c.184-.39,1-.244.836-.863a1.727,1.727,0,0,0-1.457-1.286c.465-1.652,2.118-2.383,2.908-3.842,1.543-2.846,3.329-5.56,5.028-8.321.292-.476.651-.911.979-1.364,1.636.021,2.922,1.386,4.613,1.2.716-.01,1.105.54,1.591.926a.479.479,0,0,1-.221.522c-3.32,2.108-4.565,5.637-6.133,8.946a2.486,2.486,0,0,1-1.668,2.457c-1.683.9-3.622.891-5.343,1.623" transform="translate(262.994 839.14)" fill="#acd0d7"/>
      <path id="Trazado_880096" data-name="Trazado 880096" d="M518.35,471.381a.983.983,0,0,1-1.621.458,9.1,9.1,0,0,0-5.6-1.83A1.742,1.742,0,0,1,512.9,468.9c.669-.007.879-.239.626-.965-.392-1.128.414-2.1,1.511-1.73a6.686,6.686,0,0,0,3.4.269c.824-.138,1.347.624,2.015.964.425.216.792.869,1.307.532s.205-.917.06-1.407c-.335-1.129.159-1.371,1.155-1.049l0,0c1.591,1.688,3.169,3.389,4.9,4.935a17.973,17.973,0,0,1,1.026,1.518c.222.405.368,1.059-.222,1.151-1.331.209-.922,1.009-.823,1.806.058.469.26,1.058-.321,1.384a1.254,1.254,0,0,1-1.649-.345c-.423-.456-.782-.679-1.424-.216-.7.5-1.252.006-1.637-.6-.794-1.243-1.561-2.5-2.34-3.756-.55-1.05-.961-2.264-2.514-2.129-.308-.04-.657.053-.877-.272-.68-.807-1.548-.568-2.4-.425-.029.005-.054.078-.07.123-.032.1.022.162.152.193l1.117.341c.088.981,1.01.6,1.5.916l.953,1.239" transform="translate(88.458 872.526)" fill="#f9735e"/>
      <path id="Trazado_880097" data-name="Trazado 880097" d="M376.393,612.041c1.408-1.128,2.758-2.341,4.239-3.363,1.883-1.3,3.868-2.453,5.824-3.646.23-.141.5-.4.97-.092-1.943,1.414-3.855,2.779-5.735,4.185a27.769,27.769,0,0,0-2.213,1.888c-.224.207-.689.483-.3.865.275.273.673.137.993-.074,1.509-1,2.991-2.05,4.537-2.991,1.2-.729,2.478-1.325,4.117-2.19-.581,1.13-1.423,1.228-1.908,1.737a2.046,2.046,0,0,1-.907.989c-1.182.745-2.355,1.493-1.6,3.2a29.922,29.922,0,0,1-7.024.1,1.258,1.258,0,0,1-.986-.614" transform="translate(167.948 790.28)" fill="#ee7670"/>
      <path id="Trazado_880098" data-name="Trazado 880098" d="M197.253,447.9c-.883.125-1.411-.559-2.085-.912.419-.794.818-1.6,1.263-2.381.925-1.618,2.2-2.605,4.191-2.193.464.426,1.521.358,1.213,1.429-.264.918-.99,1.051-1.8,1.021-1.361.615-1.81,2.065-2.783,3.036" transform="translate(274.862 886.135)" fill="#ed6557"/>
      <path id="Trazado_880099" data-name="Trazado 880099" d="M43.319,529.478c.935,2.055,2.974,3.072,4.418,4.695-1.755.085-2.5-1.878-4.439-1.993,1.012,1.5,2.515,2.213,3.572,3.359.324.351,1.149.583.806,1.081-.409.593-1.01.081-1.4-.332a23.171,23.171,0,0,0-4.5-3.12c-.779-1.769.67-2.608,1.54-3.689" transform="translate(365.485 834.715)" fill="#f59d90"/>
      <path id="Trazado_880100" data-name="Trazado 880100" d="M394.622,617.683c-1.306-1.109-1.233-1.788.416-2.976a23.42,23.42,0,0,1,2.094-1.218c.667.8,1.6.549,2.449.622.359.6-.11.782-.5.979-.477.239-1.022.367-1.324.869-.012.832-1.242.391-1.265,1.211-.721-.188-1.164.636-1.866.513" transform="translate(157.729 785.152)" fill="#f39b88"/>
      <path id="Trazado_880101" data-name="Trazado 880101" d="M43.584,544.255l-1.051-.687c-.361.38-.129.836-.165,1.242-.093-.034-.255-.048-.271-.1-.452-1.551-.915-3.1-.374-4.732,1.848,1.483,3.987,2.643,5.369,4.817-1.134.138-1.617-.836-2.355-1.238-1.023-.558-1.262-.347-1.153.7" transform="translate(365.531 828.522)" fill="#f59d90"/>
      <path id="Trazado_880102" data-name="Trazado 880102" d="M544.9,470.63a19.921,19.921,0,0,1-4.764-4.207A1.942,1.942,0,0,1,540,465.7a11.326,11.326,0,0,1,4.9,4.935" transform="translate(71.429 872.344)" fill="#fe7d70"/>
      <path id="Trazado_880103" data-name="Trazado 880103" d="M670.047,515.228a2.161,2.161,0,0,1,1,3c-.473.552-.8.214-1.014-.273a5.548,5.548,0,0,1-.339-2.4l.355-.32" transform="translate(-5.081 843.121)" fill="#e57e7d"/>
      <path id="Trazado_880104" data-name="Trazado 880104" d="M527.8,474.283c1.506-.931,2.377-.194,2.514,2.129a14.246,14.246,0,0,1-2.514-2.129" transform="translate(78.624 867.508)" fill="#fe7d70"/>
      <path id="Trazado_880105" data-name="Trazado 880105" d="M523.775,475.665c-.534-.063-.786,1-1.525.315-.539-.5-.254-.828.023-1.231a1.677,1.677,0,0,1,1.5.916" transform="translate(82.079 867.002)" fill="#fe7d70"/>
      <path id="Trazado_880106" data-name="Trazado 880106" d="M519.65,472.994c-.2-.093-.362-.388-.181-.417.881-.146,1.876-.627,2.494.527-.764-.2-1.516-.636-2.313-.109" transform="translate(83.586 868.416)" fill="#fe7d70"/>
      <path id="Trazado_880107" data-name="Trazado 880107" d="M235.666,459.577a5.93,5.93,0,0,1,1.185-2.772,34.614,34.614,0,0,0,2.25-3.651c.755-1.362,1.52-2.66,3.278-2.844,1.48-.879,3.172-.707,4.754-.766,8.534-.32,17.046-.968,25.562-1.549,1.005-.068,2.022.021,3.394-.14-1.9-1.552-3.531-2.906-5.169-4.247-4.634-3.793-9.249-7.619-13.6-11.727-5.612-5.3-9.539-11.612-10.394-19.5A20.727,20.727,0,0,1,248.9,401.79a14.648,14.648,0,0,1,2.972-4.956,55.555,55.555,0,0,0,9.949,7.088c.692.366.422.923.295,1.475a19.891,19.891,0,0,0,.524,11.473,19.1,19.1,0,0,0,4.053,6.461c7.681,8.3,15.931,16.035,24.076,23.871a1.958,1.958,0,0,0,.442.186,5.263,5.263,0,0,0-1.636-2.3c-5.57-5.5-11.209-10.932-16.735-16.476-3.2-3.213-6.6-6.284-8.733-10.414-2.053-3.975-2.036-8.153-1.378-12.42.209-1.356,1.02-.831,1.661-.526A33.128,33.128,0,0,0,272.816,408a37.589,37.589,0,0,0,8.248.478c1.169-.05,1.478.33,1.058,1.429-.675,1.767-1.29,3.556-1.93,5.337-.5.389-.985.1-1.476-.02-1.319-.528-2.208-1.779-3.662-2.1a18.719,18.719,0,0,0-7.59.009c4.068-.67,8.311-1.058,11.606,2.755a1.514,1.514,0,0,0,.416,1.2c4.435,4.71,8.907,9.39,13.2,14.23a137.8,137.8,0,0,1,12.936,16.235,3.218,3.218,0,0,1,.694,1.507c-4.2.589-8.4,1.131-12.549,1.992-.644.133-1.279.373-1.875-.123-2.172-2.592-5.169-2.954-8.107-2.954a16.249,16.249,0,0,1,4.153.482c1.442.328,2.821.817,3.348,2.436.23.679-.258.577-.659.649-6.81,1.218-13.622,2.423-20.423,3.686-5.351.995-10.707,1.979-16.023,3.141-2.529.552-5,1.389-7.566,1.81-3.29.41-6.564-.254-9.851-.147a1.46,1.46,0,0,1-1.1-.456" transform="translate(250.971 912.968)" fill="#6ea6b3"/>
      <path id="Trazado_880108" data-name="Trazado 880108" d="M252.224,357.636a19.487,19.487,0,0,1-1.988,3.956c-3.495,6.852-3.142,13.665.094,20.5,2.562,5.411,6.707,9.474,11.13,13.31,5.06,4.39,10.1,8.805,15.424,12.881a9.178,9.178,0,0,1,.775.829l-34.93,2c-.807.146-1.226-.328-1.542-.966,1.639-.628,2.038-2.274,2.747-3.579a29.187,29.187,0,0,1,2.248-3.8c2.322-3.049.865-6.855-2.713-8.531-2.275-1.065-4.426-2.4-6.748-3.387-.2-.084-.309-.37-.46-.562,2.553-1.22,3.232-3.375,1.853-5.894a1.488,1.488,0,0,1,.007-1.477c.787-1.117,1.028-2.571,2.159-3.469.673-1.679.248-3.429.279-5.141a8.255,8.255,0,0,1,.857-3.673c2-4.007,4.416-7.774,6.629-11.658,2.032-3.566,3.813-7.275,5.778-10.881a52.29,52.29,0,0,0,4.005-8.58c.272-1.047,1.189-1.513,1.957-2.069,2.98-2.16,6.186-4,9.044-6.335a2.208,2.208,0,0,1,2.111-.636c.539.7-.011,1.247-.289,1.813a47.71,47.71,0,0,1-9.92,13.853,64.6,64.6,0,0,0-8.128,9.931c-.306.434-1.025.865-.377,1.568" transform="translate(250.62 952.166)" fill="#e8ebe3"/>
      <path id="Trazado_880109" data-name="Trazado 880109" d="M405.371,228.771c.225,1.137-.442,2.124-.75,3.094a71.448,71.448,0,0,0-2.5,13.33,5.514,5.514,0,0,0,.133,1.2c.15,1.366.852,1.186,1.643.553a8.943,8.943,0,0,0,1.212-1.352c.358-.432.166.254.316.355a16.306,16.306,0,0,1-.967,4.314c-1.63,3.917-5.384,4.582-8.262,1.443a12.272,12.272,0,0,1-2.681-5.126,26.286,26.286,0,0,0-4.748-9.386,4.61,4.61,0,0,1-.333-.635c1.665-.289,3.214-.537,4.754-.827a22.89,22.89,0,0,0,12.183-6.96" transform="translate(160.845 1012.117)" fill="#fcb0a5"/>
      <path id="Trazado_880110" data-name="Trazado 880110" d="M301.531,314.453c-2.074.7-3.5,2.383-5.278,3.538-2.674,1.738-5.229,3.658-7.834,5.5-.6-1.026-.274-1.743.645-2.427,2.49-1.852,4.916-3.789,7.4-5.653a1.556,1.556,0,0,0,.647-1.963,43.132,43.132,0,0,0-3.444-8.082c-.369-.669-.8-1.328-.348-2.13a122.056,122.056,0,0,0,8.216,11.215" transform="translate(220.027 968.186)" fill="#f28271"/>
      <path id="Trazado_880111" data-name="Trazado 880111" d="M357.336,210.32c-4.788,2.92-9.815,4.52-15.441,3.028-3.489-.925-7.034-1.615-10.585-.573-5.313,1.559-8.26,5.317-9.347,10.542-.555-4.226,2.8-9.364,7.383-11.294a14.916,14.916,0,0,1,10.217-.525c6.1,1.8,12.021,2.028,17.774-1.178" transform="translate(200.095 1023.002)" fill="#e3f5f6"/>
      <path id="Trazado_880112" data-name="Trazado 880112" d="M288.96,572.98a44.581,44.581,0,0,0-8.463,1.206c-6.1,1.216-12.194,2.484-18.288,3.745-3.189.66-6.378,1.322-9.557,2.032a33.842,33.842,0,0,1-9.01.288,13.213,13.213,0,0,0-8.7,2.227,2.714,2.714,0,0,1-1.318.341c-13.818-.009-27.637-.119-41.453.044-3.435.041-6.863.938-10.287,1.487a117.849,117.849,0,0,1-20.437,1.531c-11.711-.175-23.424-.269-35.135-.4a.759.759,0,0,1-.183-.375c.06-.673-.488-1.4.166-2.02.86,0,1.721.022,2.579-.012,10.08-.4,20.169-.1,30.246-.366a107.591,107.591,0,0,0,21.25-2.233c3.763-.861,7.507-1.92,11.349-2.419,2.775-.361,5.58-.486,8.357-.831,5.817-.722,11.694-.7,17.508-1.477a60.469,60.469,0,0,1,6.112-.277c5.614-.178,11.208-.62,16.8-1.044,6.449-.49,12.9-.024,19.336-.286a88.692,88.692,0,0,0,12.675-1.931,66.8,66.8,0,0,1,9.208-1.363c2.58-.117,5.174.264,7.248,2.13" transform="translate(315.688 810.318)" fill="#578ca2"/>
      <path id="Trazado_880113" data-name="Trazado 880113" d="M534.13,578.839l-6.422.006c-.6-.678-.057-1.161.278-1.682.625-.4.265-1.362.982-1.7a12.214,12.214,0,0,0,6.629-.069,222.449,222.449,0,0,0,25.233-7.178,22.228,22.228,0,0,0,4.772-2.391,8.886,8.886,0,0,0,3.6-4.992c.151-.489.1-1.175.833-1.331a5.288,5.288,0,0,1,1.263,2.9c-.41.175-.794.271-.914.867-.958,4.78-4.625,6.991-8.687,8.41-7.641,2.67-15.557,4.419-23.413,6.347-1.373.338-2.838.185-4.151.814" transform="translate(78.84 817.004)" fill="#5386a1"/>
      <path id="Trazado_880114" data-name="Trazado 880114" d="M632.578,545.344c-1-.717-1.027-1.854-1.263-2.9q.043-.3.087-.609a8.243,8.243,0,0,1,2.935-1.2,2.98,2.98,0,0,0,2.316-2.785,15.737,15.737,0,0,1,2.123-7.07c.893-.464,1.263-.033,1.457.807a13.568,13.568,0,0,0,2.754,5.9,19.4,19.4,0,0,0,3.118,2.654c1.774,1.387,2,2.243,1.21,4.462-4.981-1.125-9.874-.483-14.736.742" transform="translate(17.557 834.061)" fill="#fb796c"/>
      <path id="Trazado_880115" data-name="Trazado 880115" d="M578.535,547.43l-12.89,5.475-.232-.545c4.191-2.076,8.534-3.8,12.868-5.543l.254.613" transform="translate(56.436 824.485)" fill="#21526c"/>
      <path id="Trazado_880116" data-name="Trazado 880116" d="M124.222,584.477c-.305.721.758,1.433.014,2.157a2.79,2.79,0,0,1-1.311-2.385,17.4,17.4,0,0,0-.325-1.768,16.657,16.657,0,0,1,.7-7.177c.154-.532.314-1.082.93-1.29.425-.015.4-1.613,1.192-.339a8.149,8.149,0,0,0-1.411,4.6,16.328,16.328,0,0,0,.208,6.207" transform="translate(317.758 808.932)" fill="#275d75"/>
      <path id="Trazado_880117" data-name="Trazado 880117" d="M529.336,589.573c-.3.6.33,1.514-.648,1.876a1.714,1.714,0,0,1-.041-2.484,15.008,15.008,0,0,0-.587-5.543,1.754,1.754,0,0,1,1.194,1.885c-.009,1.422.051,2.844.082,4.266" transform="translate(78.472 802.89)" fill="#a89a95"/>
      <path id="Trazado_880118" data-name="Trazado 880118" d="M701.545,584.205c1.454,4.581-.623,8.462-4.242,9.02a67.2,67.2,0,0,1-16.02.068c3.741-.255,7.488-.444,11.222-.784,3.957-.36,6.995-2.137,8.561-5.99a6.575,6.575,0,0,0,.479-2.315" transform="translate(-11.922 802.428)" fill="#ddeaed"/>
      <path id="Trazado_880119" data-name="Trazado 880119" d="M606.707,599.118c4.731-1.1,9.314.61,13.979.551-4.706.853-9.315-.783-13.979-.551" transform="translate(32.074 793.849)" fill="#c3dce8"/>
      <path id="Trazado_880120" data-name="Trazado 880120" d="M108.843,596.121a18.84,18.84,0,0,0,1.2,4.046q0,.119,0,.237c-3.307-.073-6.614-.169-9.922-.2a1.418,1.418,0,0,1-1.4-.9q-.162-.6-.323-1.2c-.017-1.118.9-.892,1.482-.916a47.1,47.1,0,0,1,6.412.032,2.423,2.423,0,0,0,2.554-1.1" transform="translate(331.953 795.398)" fill="#5b8ba1"/>
      <path id="Trazado_880121" data-name="Trazado 880121" d="M372.088,606.547c2.434-.553,4.342-2.078,6.318-3.461,1.563-1.094,3.095-2.224,5.164-2.392-1.067.677-2.1,1.416-3.207,2.017a23.009,23.009,0,0,0-5.892,4.8c-1.162,1.269-1.609.68-2.389-.042q0-.461.006-.921" transform="translate(170.491 792.7)" fill="#f07f78"/>
      <path id="Trazado_880122" data-name="Trazado 880122" d="M200.252,451.544c.561-1.348.595-3.18,2.783-3.036a2.656,2.656,0,0,1,.624,1.944c-.032.552-.032,1.128.6,1.411a20.014,20.014,0,0,1,7.378,4.3,1.5,1.5,0,0,0,2.484-.074,1.377,1.377,0,0,1,1.2-.522c1.2,1.25.889,2.636-.9,3.989-4.655-2.2-8.871-5.2-13.536-7.388-.255-.119-.428-.412-.64-.624" transform="translate(271.863 882.487)" fill="#efe2d8"/>
      <path id="Trazado_880123" data-name="Trazado 880123" d="M217.411,456.048l-7.378-4.3c.29-1.423,1.566-2.145,2.348-3.215.279-.381.986-.246,1.4.122A25.482,25.482,0,0,0,218,451.368c.681.393.725.784.4,1.346a9.067,9.067,0,0,0-1,3.334" transform="translate(266.093 882.604)" fill="#f97f6e"/>
      <path id="Trazado_880124" data-name="Trazado 880124" d="M234.819,465.962c-.039-.582.413-.893.7-1.305a2.139,2.139,0,0,0,.2-2.683c-1.156-.444-.727-1.331-.6-2.134,1.044-.744,1.9-.68,2.459.586,1.372,1.685.9,5.023-.871,6.072-.445.264-.878,0-1.3-.129l-.59-.407" transform="translate(251.472 876.081)" fill="#ec6b5c"/>
      <path id="Trazado_880125" data-name="Trazado 880125" d="M238.025,452.891c-.662-.859-1.586-.619-2.46-.587l3.98-5.717c.482.5.217.989.324,1.408a8.34,8.34,0,0,1-1.482,3.089,1.752,1.752,0,0,0-.362,1.807" transform="translate(251.03 883.616)" fill="#f29388"/>
      <path id="Trazado_880126" data-name="Trazado 880126" d="M188.35,495.038c-.329,1.54-1.5,2.635-2.147,4.011-.33.7-.97.271-1.473.029-2.816-1.355-2.874-1.386-4.318,1.372-.563,1.075-1.017,1.358-1.979.506-.8-.707-2.213-.876-2.558-1.822-.374-1.028.852-1.83,1.334-2.752.4-.764.286-1.249-.474-1.61a1.51,1.51,0,0,1-.266-.152c-.749-.566-2.338-.758-2.19-1.6a8.894,8.894,0,0,1,2.407-4.15c.133-.148.572-.023.868-.025,1.044.509,1.878,1.894,2.991,1.621,1.019-.25,1.215-1.778,1.711-2.746.643-1.255,1.266-1.195,2.174-.44a1.221,1.221,0,0,0,.125.089c2.546,1.615,2.563,1.624,1.184,4.341-.535,1.054-.729,1.866.733,2.308a10.127,10.127,0,0,1,1.878,1.024" transform="translate(287.191 859.931)" fill="#fa5f5d"/>
      <path id="Trazado_880127" data-name="Trazado 880127" d="M322.244,438.195c-.233-.09-.538-.114-.687-.279-2.8-3.109-6.4-2.66-9.993-2.3-.9.09-1.743.6-2.717.328,3.308-2.285,10.127-1.44,13.042,1.588l.355.661" transform="translate(207.797 890.662)" fill="#1b4b63"/>
      <path id="Trazado_880128" data-name="Trazado 880128" d="M351.711,436.222a22.984,22.984,0,0,1-5.538,4.8,22,22,0,0,1,5.538-4.8" transform="translate(185.776 889.73)" fill="#235069"/>
      <path id="Trazado_880129" data-name="Trazado 880129" d="M454.983,596.853q.02,1.243.04,2.484c-.041.569-.777.857-.612,1.51a2.142,2.142,0,0,1-.7.238c-5.114-.186-10.2.475-15.27.854-5.861.438-11.736.121-17.576.75a6.538,6.538,0,0,0-3.812,1.294c-1.135.992-2.669.844-3.921,1.477-.471.43-1.056.309-1.605.313-2.092.013-4.183,0-6.275.007a2.717,2.717,0,0,0-1.627.3,1.543,1.543,0,0,1-.275.031c-.517-.8.434-.753.684-1.076.266-.345,1.058-.046,1.145-.772a20.038,20.038,0,0,0,11.3-4.424,4.616,4.616,0,0,1,2.93-1.144c5.513-.128,10.99-.855,16.49-1.123,3.777-.184,7.527-.658,11.312-.754,2.6-.066,5.187.031,7.781.036" transform="translate(152.137 795.001)" fill="#f97b6c"/>
      <path id="Trazado_880130" data-name="Trazado 880130" d="M404.234,618.549c.349-.685.991-.6,1.6-.6q3.956-.011,7.913-.017c-.173.84-.863.587-1.367.593-2.713.031-5.427.021-8.141.025" transform="translate(151.523 782.531)" fill="#f39b88"/>
      <path id="Trazado_880131" data-name="Trazado 880131" d="M674.879,566.369c.075-1.156.273-1.961.954-2.362.712-.419,1.356.146,1.94.551,1.8,1.251,2.146,2.12,1.327,3.292-1.25,1.788-2.7,1.691-3.725-.252a3.291,3.291,0,0,1-.5-1.229" transform="translate(-8.143 814.431)" fill="#f87c67"/>
      <path id="Trazado_880132" data-name="Trazado 880132" d="M703.66,534.577c.386-2.074.518-3.963-.742-5.938a4,4,0,0,1,.742,5.938" transform="translate(-24.686 835.209)" fill="#58443e"/>
      <path id="Trazado_880133" data-name="Trazado 880133" d="M693.982,531.227c.508,1.437.4,2.982.907,4.4a4.2,4.2,0,0,1-.907-4.4" transform="translate(-19.261 833.683)" fill="#59403f"/>
      <path id="Trazado_880134" data-name="Trazado 880134" d="M441.738,215.951c.057,1.164-.335,2.047-1.616,2.129a2.29,2.29,0,0,1-2.015-2.144c.023-.841,1.327-2.2,2.124-2.081,1.158.171,1.571.989,1.507,2.1" transform="translate(131.54 1020.921)" fill="#f18269"/>
      <path id="Trazado_880135" data-name="Trazado 880135" d="M465.065,258.017c.64.182,1.261.333,1.156,1.158-.061.48-.413.76-.848.6-.606-.228-1.286-.631-1.341-1.277-.047-.556.661-.4,1.033-.476" transform="translate(116.247 994.863)" fill="#d86961"/>
      <path id="Trazado_880136" data-name="Trazado 880136" d="M107.365,581.632c-.078,1.937-.068,1.776-1.937,1.666-2.685-.158-5.384-.058-8.078-.043-.145,0-.29.237-.433.362a16.826,16.826,0,0,1-1.007-4.093,16.558,16.558,0,0,1,1.948-7.962l3.649.008c1.194,1.452,2.959.754,4.432,1.162.843.233,1.805-.281,2.621.326a20.591,20.591,0,0,0-1.194,8.575" transform="translate(333.432 809.888)" fill="#6ea6b2"/>
      <path id="Trazado_880137" data-name="Trazado 880137" d="M226.166,549.754a49.089,49.089,0,0,1,10.947.6,46.591,46.591,0,0,1-7.808,1.923c-3.223.708-6.462,1.327-9.742,1.716.05-.385.168-.631.656-.648a13.459,13.459,0,0,0,4.334-1.37c1.074-.416,1.724-1.01,1.614-2.224" transform="translate(260.471 822.791)" fill="#295272"/>
      <path id="Trazado_880138" data-name="Trazado 880138" d="M359.409,524.317c-2.235-2.437-5.217-2.734-8.269-2.867a14.458,14.458,0,0,1,6.158.412,3.98,3.98,0,0,1,2.717,2.49l-.606-.036" transform="translate(182.847 839.545)" fill="#36687b"/>
      <path id="Trazado_880139" data-name="Trazado 880139" d="M342.694,522.336h-2.811c0-.037,0-.075,0-.112h2.948l-.14.112" transform="translate(189.487 838.994)" fill="#36687b"/>
    </g>
  </g>
</svg>
