<svg xmlns="http://www.w3.org/2000/svg" width="77.619" height="78.734" viewBox="0 0 77.619 78.734">
  <g id="_5" data-name="5" transform="translate(-3.627)">
    <g id="Grupo_1102375" data-name="Grupo 1102375" transform="translate(4.78 1.153)">
      <path id="Trazado_883369" data-name="Trazado 883369" d="M29.825,149.036h-18.7v-28.7a14.731,14.731,0,0,1,1.144-5.693,21.742,21.742,0,0,1-1.144-6.946V94.555a8.784,8.784,0,0,1,6.44-8.464l2.6-.718,3.374-.933Z" transform="translate(-11.123 -72.608)" fill="#ffdfcf"/>
      <path id="Trazado_883370" data-name="Trazado 883370" d="M70.029,149.036h-11.4l1.735-9.942L61.63,112.76a19.321,19.321,0,0,1-1.263-6.869V85.373l3.374-.933Z" transform="translate(-51.327 -72.608)" fill="#ffcebf"/>
      <path id="Trazado_883371" data-name="Trazado 883371" d="M390.283,84.437l-5.422,54.654h5.422A12.413,12.413,0,0,0,402.7,126.677V94.554a8.782,8.782,0,0,0-6.44-8.464Z" transform="translate(-327.389 -72.606)" fill="#ffdfcf"/>
      <path id="Trazado_883372" data-name="Trazado 883372" d="M396.255,86.09l-5.973-1.653-.09.908,2.69.744a8.782,8.782,0,0,1,6.44,8.464v32.124A12.413,12.413,0,0,1,386.91,139.09h3.373A12.413,12.413,0,0,0,402.7,126.677V94.554A8.782,8.782,0,0,0,396.255,86.09Z" transform="translate(-327.389 -72.606)" fill="#ffcebf"/>
      <path id="Trazado_883373" data-name="Trazado 883373" d="M142.329,19.331v18.7H91.849v-18.7l8.3-2.052,5.695-1.408.431-.106a4.119,4.119,0,0,0,3.132-4V7.5h15.36v4.264a4.119,4.119,0,0,0,3.132,4Z" transform="translate(-79.435 -7.5)" fill="#ffdfcf"/>
      <path id="Trazado_883374" data-name="Trazado 883374" d="M290.5,15.765a4.12,4.12,0,0,1-3.132-4V7.5h-3.373v4.264a4.119,4.119,0,0,0,3.132,4l14.428,3.566v18.7h3.373v-18.7Z" transform="translate(-242.03 -7.5)" fill="#ffcebf"/>
      <path id="Trazado_883375" data-name="Trazado 883375" d="M134.521,136.046H80.573l1.735-9.942L83.569,99.77A19.365,19.365,0,0,1,82.308,92.9V71.451l4.93-1.218L91.86,69.09v5.236a9.435,9.435,0,0,0,5.424,8.539l5.1,2.4a12.141,12.141,0,0,0,10.325,0l5.1-2.4a9.433,9.433,0,0,0,5.424-8.539V69.09l9.553,2.36V92.9a19.343,19.343,0,0,1-1.261,6.869l1.261,26.333Z" transform="translate(-69.893 -59.619)" fill="#6c7fd8"/>
      <g id="Grupo_1102374" data-name="Grupo 1102374" transform="translate(15.33 9.471)">
        <path id="Trazado_883376" data-name="Trazado 883376" d="M119.47,199.976h-7.737a.923.923,0,0,1-.923-.923V196.38a.923.923,0,0,1,.923-.923h7.737a.923.923,0,0,1,.923.923v2.673A.923.923,0,0,1,119.47,199.976Z" transform="translate(-110.811 -176.024)" fill="#4f66d0"/>
        <path id="Trazado_883377" data-name="Trazado 883377" d="M129.607,78.693v24.958a2.847,2.847,0,1,1-5.694,0V70.233l4.623-1.143v5.236a9.416,9.416,0,0,0,1.072,4.367Z" transform="translate(-121.898 -69.09)" fill="#4f66d0"/>
        <g id="Grupo_1102373" data-name="Grupo 1102373" transform="translate(3.265)">
          <path id="Trazado_883378" data-name="Trazado 883378" d="M132.04,69.922v4.4a9.436,9.436,0,0,0,5.423,8.54l5.1,2.4a12.141,12.141,0,0,0,6.849,1.034,12.132,12.132,0,0,1-3.476-1.034l-5.1-2.4a9.436,9.436,0,0,1-5.423-8.54V69.089Z" transform="translate(-132.04 -69.089)" fill="#4f66d0"/>
          <path id="Trazado_883379" data-name="Trazado 883379" d="M367.545,126.1l-1.262-26.333a19.326,19.326,0,0,0,1.262-6.868V71.45l-9.553-2.36v.833l6.18,1.527V92.9a19.327,19.327,0,0,1-1.262,6.868l1.262,26.333,1.734,9.943h3.373Z" transform="translate(-323.246 -69.089)" fill="#4f66d0"/>
        </g>
      </g>
      <path id="Trazado_883380" data-name="Trazado 883380" d="M29.825,328.78l-6.288,17.08h-10a2.411,2.411,0,0,1-2.41-2.41V334.7a2.411,2.411,0,0,1,1.758-2.32l3.7-1.04,1.313-1.461a3.315,3.315,0,0,1,2.464-1.1Z" transform="translate(-11.123 -279.374)" fill="#ffdfcf"/>
      <path id="Trazado_883381" data-name="Trazado 883381" d="M79.575,328.78l-6.288,17.08H69.913v-7.838L72.3,328.78Z" transform="translate(-60.872 -279.374)" fill="#ffcebf"/>
      <path id="Trazado_883382" data-name="Trazado 883382" d="M154.745,272.57v13.311a12.413,12.413,0,0,1-12.413,12.413H91.853v-7.838l3.7-14.367a4.691,4.691,0,0,1,4.541-3.518Z" transform="translate(-79.439 -231.808)" fill="#b98080"/>
      <path id="Trazado_883383" data-name="Trazado 883383" d="M129.607,272.57v3.271a2.847,2.847,0,1,1-5.694,0v-1.9a4.684,4.684,0,0,1,3.312-1.37Z" transform="translate(-106.568 -231.808)" fill="#ae6c6c"/>
      <path id="Trazado_883384" data-name="Trazado 883384" d="M410.593,272.565v13.311a12.413,12.413,0,0,1-12.413,12.413h3.373a12.413,12.413,0,0,0,12.413-12.413V272.565Z" transform="translate(-338.659 -231.804)" fill="#ae6c6c"/>
      <path id="Trazado_883385" data-name="Trazado 883385" d="M151.537,61.934V97.6a2.847,2.847,0,1,1-5.695,0V63.342Z" transform="translate(-125.125 -53.563)" fill="#ffb09e"/>
      <path id="Trazado_883386" data-name="Trazado 883386" d="M154.552,62.768V97.6a2.84,2.84,0,0,1-1.161,2.29,2.843,2.843,0,0,0,4.534-2.29V61.934Z" transform="translate(-131.513 -53.563)" fill="#ffb09e"/>
      <path id="Trazado_883387" data-name="Trazado 883387" d="M141.4,199.976h-7.737a.923.923,0,0,1-.923-.923V196.38a.923.923,0,0,1,.923-.923H141.4a.923.923,0,0,1,.923.923v2.673A.923.923,0,0,1,141.4,199.976Z" transform="translate(-114.041 -166.553)" fill="#e8edf2"/>
      <path id="Trazado_883388" data-name="Trazado 883388" d="M170.494,195.457h-3.373a.923.923,0,0,1,.923.923v2.673a.923.923,0,0,1-.923.923h3.373a.923.923,0,0,0,.923-.923V196.38A.923.923,0,0,0,170.494,195.457Z" transform="translate(-143.132 -166.553)" fill="#cde0e6"/>
    </g>
    <g id="Grupo_1102376" data-name="Grupo 1102376" transform="translate(3.627 0)">
      <path id="Trazado_883389" data-name="Trazado 883389" d="M80.088,37.671a1.153,1.153,0,0,0,1.153-1.153V23.1a9.965,9.965,0,0,0-7.286-9.576L53.522,8.3a2.961,2.961,0,0,1-2.255-2.881V1.153a1.153,1.153,0,0,0-2.307,0V5.418a5.263,5.263,0,0,0,4.009,5.12l4,.988v3.43H52.04a5.4,5.4,0,0,0-3.2,1.058l-1.086.807a1.153,1.153,0,1,0,1.375,1.852l1.086-.807a3.079,3.079,0,0,1,1.824-.6h4.8a8.319,8.319,0,0,1-4.639,6.093l-5.1,2.4a10.953,10.953,0,0,1-9.344,0c-1.032-.493-4.519-2.108-5.418-2.555V17.263a3.626,3.626,0,0,1,2.306.6l1.086.807a1.153,1.153,0,1,0,1.376-1.851l-1.086-.807a5.881,5.881,0,0,0-3.682-1.058v-4.55a5.262,5.262,0,0,0,3.563-4.989V1.153a1.153,1.153,0,0,0-2.307,0V5.418A2.961,2.961,0,0,1,31.347,8.3L25.22,9.812a1.161,1.161,0,0,0-.876,1.12V28.907a2.077,2.077,0,0,0-2.014,2.073v2.673a2.077,2.077,0,0,0,2.014,2.073v5.14a5.84,5.84,0,0,0-4.565,4.28l-.469,1.82.3-5.6a1.149,1.149,0,0,0-.074-.471,18.209,18.209,0,0,1-1.186-6.459V13.887l2.114-.522a1.153,1.153,0,0,0-.553-2.239l-8.995,2.4A9.964,9.964,0,0,0,3.627,23.1V36.242a22.768,22.768,0,0,0,1.07,6.9,15.8,15.8,0,0,0-1.07,5.733v28.7a1.153,1.153,0,0,0,2.307,0V68.563a3.545,3.545,0,0,0,1.256.229H66.7l1.568,8.987a1.153,1.153,0,0,0,2.273-.4l-1.511-8.658c6.562-.531,12.4-6.661,12.208-13.5V41.914a1.153,1.153,0,0,0-1.153-1.153H67.824a20.415,20.415,0,0,0,1-6.327V31.7s0-.008,0-.012V14.5l4.513,1.247A7.652,7.652,0,0,1,78.934,23.1V36.518a1.153,1.153,0,0,0,1.153,1.153ZM26.65,11.835,30.037,11V28.9H26.65ZM24.636,31.21h7.276v2.212H24.636Zm2.014,4.519h3.388v9.457a1.7,1.7,0,0,1-1.693,1.695,1.741,1.741,0,0,1-1.695-1.695V35.729ZM7.016,42.818a20.467,20.467,0,0,1-1.083-6.575V23.1a7.65,7.65,0,0,1,5.594-7.352L16.04,14.5V31.685s0,.008,0,.012v2.738a20.523,20.523,0,0,0,1.25,7.048l-.42,7.923H14.018A4.476,4.476,0,0,0,10.7,50.884L9.608,52.1c-.812.239-3.018.823-3.674,1.046V48.881a13.521,13.521,0,0,1,1.054-5.248A1.152,1.152,0,0,0,7.016,42.818ZM5.934,65.244v-.989h2.29a1.157,1.157,0,0,0,.227-.022l3.863-.774A1.153,1.153,0,0,0,11.86,61.2l-3.751.752H5.934v-1.97h2.29a1.158,1.158,0,0,0,.227-.022l3.863-.774a1.153,1.153,0,0,0-.453-2.262l-3.751.752H5.934V56.459a1.262,1.262,0,0,1,.915-1.192l3.423-.96,2.182.495a1.153,1.153,0,0,0,.51-2.25l-.551-.125a2.165,2.165,0,0,1,1.605-.714h4.068l-2.01,7.8a1.157,1.157,0,0,0-.036.288v6.685H7.189a1.258,1.258,0,0,1-1.256-1.242Zm73-10.018a11.3,11.3,0,0,1-11.289,11.26h-49.3V59.947l3.665-14.226a3.532,3.532,0,0,1,2.331-2.478v1.943a4.064,4.064,0,0,0,4,4,4.005,4.005,0,0,0,4-4V43.068H78.933V55.226ZM32.344,40.762V35.719a2.079,2.079,0,0,0,1.874-2.066V30.98a2.078,2.078,0,0,0-1.874-2.066V25.756l4.437,2.085a13.254,13.254,0,0,0,11.306,0l5.1-2.4a10.706,10.706,0,0,0,6.087-9.583V12.1l7.246,1.791V34.435a18.126,18.126,0,0,1-1.137,6.327H32.344Z" transform="translate(-3.627 0)"/>
      <path id="Trazado_883390" data-name="Trazado 883390" d="M75.224,467.17a1.152,1.152,0,0,0-1.334.938l-.8,4.589a1.153,1.153,0,1,0,2.273.4l.8-4.59A1.154,1.154,0,0,0,75.224,467.17Z" transform="translate(-62.392 -395.315)"/>
    </g>
  </g>
</svg>
