<svg xmlns="http://www.w3.org/2000/svg" width="92.293" height="60.906" viewBox="0 0 92.293 60.906">
  <g id="_50" data-name="50" transform="translate(1 1)">
    <path id="_274397288" d="M19.431,39.677a1.822,1.822,0,1,0,1.186-3.445A34.915,34.915,0,0,1,8.42,29.5c-2.546-2.359-3.98-4.969-3.98-7.674a9.211,9.211,0,0,1,2.043-5.549,21.662,21.662,0,0,1,6.475-5.411C17.891,7.989,25.63,8.624,34.241,9.331c4.158.341,8.51.7,12.9.7a1.83,1.83,0,0,0,0-3.659c-4.28,0-8.543-.35-12.615-.684-9.2-.755-17.473-1.434-23.4,2.017a25.264,25.264,0,0,0-7.562,6.383A12.772,12.772,0,0,0,.781,21.822c0,3.773,1.861,7.284,5.166,10.347a38.5,38.5,0,0,0,13.483,7.508ZM45.928,1.7a1.83,1.83,0,1,0,0,3.659,136.181,136.181,0,0,1,18.27.991,40.835,40.835,0,0,1,13.911,4.072,23.009,23.009,0,0,1,7.067,5.608,9.361,9.361,0,0,1,2.239,5.8c0,2.654-1.385,5.219-3.849,7.546a34.059,34.059,0,0,1-11.828,6.681,1.829,1.829,0,1,0,1.229,3.445,37.622,37.622,0,0,0,13.1-7.467c3.206-3.027,5.007-6.488,5.007-10.2a12.911,12.911,0,0,0-3.025-8.054,26.6,26.6,0,0,0-8.181-6.552A44.344,44.344,0,0,0,64.7,2.73,139.249,139.249,0,0,0,45.928,1.7Z" transform="translate(-0.781 -1.696)" fill="#d7e8fc" stroke="#1c1c1c" stroke-width="2"/>
    <path id="_274396184" d="M9.761,2.818a84.468,84.468,0,0,0,19.412,2A113.1,113.1,0,0,0,48.827,2.8a5.838,5.838,0,0,1,1.065-.1,6.3,6.3,0,0,1,4.466,1.962,8.236,8.236,0,0,1,2.208,4.244,7.735,7.735,0,0,1,.137,1.409V33.643a6.3,6.3,0,0,1-2.4,5.021,15.06,15.06,0,0,1-4.507,2.405A57.843,57.843,0,0,1,29.738,44.8,61.626,61.626,0,0,1,8.753,41.084,14.357,14.357,0,0,1,4.2,38.674a6.347,6.347,0,0,1-2.391-5.03V10.315a7.843,7.843,0,0,1,.2-1.716A8.354,8.354,0,0,1,4.219,4.565a6.113,6.113,0,0,1,4.31-1.884V2.675a5.608,5.608,0,0,1,1.232.144Z" transform="translate(15.889 14.106)" fill="#d7e8fc" stroke="#1c1c1c" stroke-width="2" fill-rule="evenodd"/>
    <path id="_274396568" d="M12.064,3.348h3.773v8.273h8.273v4.773H15.838v8.273H11.065V16.394H2.792V11.622h8.273V3.348Z" transform="translate(31.695 24.989)" fill="#d7e8fc" stroke="#1c1c1c" stroke-width="2" fill-rule="evenodd"/>
  </g>
</svg>
