<svg xmlns="http://www.w3.org/2000/svg" width="64.342" height="74" viewBox="0 0 64.342 74">
  <g id="_51" data-name="51" transform="translate(-33.413 0)">
    <path id="Trazado_881846" data-name="Trazado 881846" d="M99.872,208.46l3.845,3.847-21.38,21.13L42.9,194.007a3.758,3.758,0,0,1,1.438-6.212l37.994,37.994Z" transform="translate(-7.178 -160.653)" fill="#2bbfa3"/>
    <g id="Grupo_1102893" data-name="Grupo 1102893" transform="translate(34.626 1.213)">
      <path id="Trazado_881847" data-name="Trazado 881847" d="M143.751,9.49l11.376,11.374a4.374,4.374,0,0,0-7.461,3.168l-7.459-7.459L138.438,14.8a3.757,3.757,0,1,1,5.313-5.313Z" transform="translate(-123.53 -8.389)" fill="#35d8b9"/>
      <path id="Trazado_881848" data-name="Trazado 881848" d="M99.874,67.926,82.338,85.255,44.344,47.261l-1.437-1.438a3.757,3.757,0,0,1,5.313-5.315l-3.334-3.334A3.758,3.758,0,1,1,50.2,31.86l-1.927-1.928a3.757,3.757,0,1,1,5.313-5.313l4.9,4.9,7.459,7.459A4.375,4.375,0,0,1,73.4,33.807l.007.007,3.06,3.06,27.25,27.251Z" transform="translate(-41.806 -21.331)" fill="#35d8b9"/>
    </g>
    <g id="Grupo_1102894" data-name="Grupo 1102894" transform="translate(63.072 15.905)">
      <path id="Trazado_881849" data-name="Trazado 881849" d="M278.1,150.729a1.21,1.21,0,0,1-.859-.356l-20.329-20.329a1.215,1.215,0,0,1,1.718-1.718l20.328,20.328a1.215,1.215,0,0,1-.859,2.074Z" transform="translate(-253.963 -125.38)" fill="#fff"/>
      <circle id="Elipse_11734" data-name="Elipse 11734" cx="1.215" cy="1.215" r="1.215" transform="translate(0)" fill="#fff"/>
    </g>
    <path id="Trazado_881850" data-name="Trazado 881850" d="M94.415,47.813l2.978-2.943a1.215,1.215,0,0,0,.005-1.723L55.706,1.454a4.97,4.97,0,0,0-8.334,2.294l-.107-.107a4.972,4.972,0,0,0-7.888,5.882,4.974,4.974,0,0,0-2.53,8.391l.314.314a4.969,4.969,0,0,0-2.294,8.334l.324.324c-.112.094-.221.19-.324.293a4.98,4.98,0,0,0,0,7.033L74.3,73.644a1.215,1.215,0,0,0,1.713.005l21.38-21.131A1.215,1.215,0,0,0,97.4,50.8ZM49.647,4.97a2.543,2.543,0,0,1,4.341-1.8L62.112,11.3a5.593,5.593,0,0,0-4.05,3.142l-7.67-7.67A2.526,2.526,0,0,1,49.647,4.97ZM36.585,21.249a2.543,2.543,0,0,1,3.6,0h0L52.488,33.556a1.215,1.215,0,0,0,1.718-1.718L38.565,16.2a2.543,2.543,0,1,1,3.6-3.6L57.8,28.242a1.215,1.215,0,0,0,1.718-1.718L41.951,8.955a2.543,2.543,0,1,1,3.6-3.6L57.579,17.391a5.546,5.546,0,0,0,1.6,3.349L69.653,31.209a1.215,1.215,0,1,0,1.718-1.718L60.9,19.022a3.159,3.159,0,0,1,4.468-4.468L94.816,44,75.163,63.423,36.585,24.845A2.545,2.545,0,0,1,36.585,21.249ZM75.163,71.072,36.585,32.495a2.547,2.547,0,0,1,0-3.6,2.58,2.58,0,0,1,.34-.281L74.3,65.995A1.215,1.215,0,0,0,76.012,66L92.687,49.52l2.129,2.129Z" transform="translate(0 0)" fill="#333"/>
  </g>
</svg>
