<svg xmlns="http://www.w3.org/2000/svg" width="62.746" height="70.991" viewBox="0 0 62.746 70.991">
  <g id="_52" data-name="52" transform="translate(-14.866)">
    <g id="Grupo_1103001" data-name="Grupo 1103001" transform="translate(14.866)">
      <g id="Grupo_1102896" data-name="Grupo 1102896" transform="translate(37.235 59.743)">
        <g id="Grupo_1102895" data-name="Grupo 1102895">
          <path id="Trazado_881851" data-name="Trazado 881851" d="M165.83,215.438H150.7A1.566,1.566,0,0,0,149.139,217v7.423a1.566,1.566,0,0,0,1.566,1.566H165.83a1.566,1.566,0,0,0,1.566-1.566V217A1.566,1.566,0,0,0,165.83,215.438Z" transform="translate(-149.139 -215.438)" fill="#70d6f9"/>
        </g>
      </g>
      <g id="Grupo_1102898" data-name="Grupo 1102898" transform="translate(30.674 9.109)">
        <g id="Grupo_1102897" data-name="Grupo 1102897">
          <path id="Trazado_881852" data-name="Trazado 881852" d="M155.8,32.846H126.538a1.059,1.059,0,0,0-1.059,1.059V35.78a1.059,1.059,0,0,0,1.059,1.059H155.8a1.059,1.059,0,0,0,1.059-1.059V33.905A1.059,1.059,0,0,0,155.8,32.846Z" transform="translate(-125.479 -32.846)" fill="#dae6f1"/>
        </g>
      </g>
      <g id="Grupo_1102900" data-name="Grupo 1102900" transform="translate(31.898 13.102)">
        <g id="Grupo_1102899" data-name="Grupo 1102899">
          <path id="Trazado_881853" data-name="Trazado 881853" d="M129.892,47.248l6.479,46.7a1.564,1.564,0,0,1,.424-.06H151.92a1.564,1.564,0,0,1,.424.06l6.479-46.7Z" transform="translate(-129.892 -47.248)" fill="#edf4fc"/>
        </g>
      </g>
      <g id="Grupo_1102902" data-name="Grupo 1102902" transform="translate(36.528 46.478)">
        <g id="Grupo_1102901" data-name="Grupo 1102901">
          <path id="Trazado_881854" data-name="Trazado 881854" d="M146.589,167.6l1.849,13.324a1.564,1.564,0,0,1,.424-.06h15.125a1.564,1.564,0,0,1,.424.06L166.26,167.6Z" transform="translate(-146.589 -167.604)" fill="#70d6f9"/>
        </g>
      </g>
      <g id="Grupo_1102904" data-name="Grupo 1102904" transform="translate(8.938 0.693)">
        <g id="Grupo_1102903" data-name="Grupo 1102903">
          <path id="Trazado_881855" data-name="Trazado 881855" d="M69.892,10.915h8.014V3.887A1.387,1.387,0,0,0,76.518,2.5H48.484A1.387,1.387,0,0,0,47.1,3.887v66.83A1.387,1.387,0,0,0,48.484,72.1H76.518a1.373,1.373,0,0,0,.2-.02,1.565,1.565,0,0,1-1.326-1.546V63.116a1.565,1.565,0,0,1,1.142-1.506h0L73.777,41.724l-3.72-26.815h-.165a1.059,1.059,0,0,1-1.059-1.059V11.974A1.059,1.059,0,0,1,69.892,10.915Z" transform="translate(-47.097 -2.5)" fill="#dae6f1"/>
        </g>
      </g>
      <g id="Grupo_1102906" data-name="Grupo 1102906" transform="translate(8.938 0.693)">
        <g id="Grupo_1102905" data-name="Grupo 1102905">
          <path id="Trazado_881856" data-name="Trazado 881856" d="M69.892,10.915h8.014V3.887A1.387,1.387,0,0,0,76.518,2.5H48.484A1.387,1.387,0,0,0,47.1,3.887v44.4h27.59l-4.63-33.376h-.165a1.059,1.059,0,0,1-1.059-1.059V11.975A1.059,1.059,0,0,1,69.892,10.915Z" transform="translate(-47.097 -2.5)" fill="#9be5f9"/>
        </g>
      </g>
      <g id="Grupo_1102908" data-name="Grupo 1102908" transform="translate(37.235 67.274)">
        <g id="Grupo_1102907" data-name="Grupo 1102907">
          <path id="Trazado_881857" data-name="Trazado 881857" d="M149.138,242.6v1.458a1.566,1.566,0,0,0,1.566,1.566h15.125a1.566,1.566,0,0,0,1.566-1.566V242.6Z" transform="translate(-149.138 -242.595)" fill="#9be5f9"/>
        </g>
      </g>
      <g id="Grupo_1102910" data-name="Grupo 1102910" transform="translate(35.618 39.917)">
        <g id="Grupo_1102909" data-name="Grupo 1102909">
          <path id="Trazado_881858" data-name="Trazado 881858" d="M143.307,143.945l.91,6.561h19.671l.91-6.561Z" transform="translate(-143.307 -143.945)" fill="#f5c84c"/>
        </g>
      </g>
      <g id="Grupo_1102912" data-name="Grupo 1102912" transform="translate(42.318 23.785)">
        <g id="Grupo_1102911" data-name="Grupo 1102911">
          <path id="Trazado_881859" data-name="Trazado 881859" d="M171.513,85.769a4.045,4.045,0,1,0,4.045,4.045A4.045,4.045,0,0,0,171.513,85.769Z" transform="translate(-167.468 -85.769)" fill="#f5c84c"/>
        </g>
      </g>
      <g id="Grupo_1102914" data-name="Grupo 1102914" transform="translate(19.033 26.499)">
        <g id="Grupo_1102913" data-name="Grupo 1102913">
          <path id="Trazado_881860" data-name="Trazado 881860" d="M88.793,95.556a5.293,5.293,0,1,0,5.293,5.293A5.293,5.293,0,0,0,88.793,95.556Z" transform="translate(-83.5 -95.556)" fill="#f5c84c"/>
        </g>
      </g>
      <g id="Grupo_1102916" data-name="Grupo 1102916" transform="translate(8.938 46.478)">
        <g id="Grupo_1102915" data-name="Grupo 1102915">
          <path id="Trazado_881861" data-name="Trazado 881861" d="M74.687,167.6H47.1v8.558H75.874Z" transform="translate(-47.097 -167.604)" fill="#f5c84c"/>
        </g>
      </g>
      <g id="Grupo_1102918" data-name="Grupo 1102918" transform="translate(8.938 0.693)">
        <g id="Grupo_1102917" data-name="Grupo 1102917">
          <path id="Trazado_881862" data-name="Trazado 881862" d="M76.518,2.5H48.484A1.387,1.387,0,0,0,47.1,3.887v7.294c4.016-3.855,11.358-7.638,21.058,1.289q.341.314.678.616V11.975a1.059,1.059,0,0,1,1.059-1.059h8.014V3.887A1.387,1.387,0,0,0,76.518,2.5Z" transform="translate(-47.097 -2.5)" fill="#70d6f9"/>
        </g>
      </g>
      <g id="Grupo_1102922" data-name="Grupo 1102922" transform="translate(36.542 59.05)">
        <g id="Grupo_1102921" data-name="Grupo 1102921">
          <g id="Grupo_1102920" data-name="Grupo 1102920">
            <g id="Grupo_1102919" data-name="Grupo 1102919">
              <path id="Trazado_881863" data-name="Trazado 881863" d="M164.023,212.938H148.9a2.261,2.261,0,0,0-2.259,2.259v7.423a2.261,2.261,0,0,0,2.259,2.259h15.125a2.261,2.261,0,0,0,2.259-2.259V215.2A2.261,2.261,0,0,0,164.023,212.938Zm.873,9.683a.873.873,0,0,1-.872.872H148.9a.873.873,0,0,1-.872-.872V215.2a.873.873,0,0,1,.872-.872h15.125a.873.873,0,0,1,.872.872Z" transform="translate(-146.639 -212.938)"/>
            </g>
          </g>
        </g>
      </g>
      <g id="Grupo_1102926" data-name="Grupo 1102926" transform="translate(29.981 8.416)">
        <g id="Grupo_1102925" data-name="Grupo 1102925">
          <g id="Grupo_1102924" data-name="Grupo 1102924">
            <g id="Grupo_1102923" data-name="Grupo 1102923">
              <path id="Trazado_881864" data-name="Trazado 881864" d="M153.992,30.347H124.731a1.754,1.754,0,0,0-1.752,1.752v1.875a1.754,1.754,0,0,0,1.752,1.752h29.261a1.754,1.754,0,0,0,1.752-1.752V32.1A1.754,1.754,0,0,0,153.992,30.347Zm.366,3.628a.366.366,0,0,1-.366.366H124.731a.366.366,0,0,1-.366-.366V32.1a.366.366,0,0,1,.366-.366h29.261a.366.366,0,0,1,.366.366Z" transform="translate(-122.979 -30.347)"/>
            </g>
          </g>
        </g>
      </g>
      <g id="Grupo_1102928" data-name="Grupo 1102928" transform="translate(53.681 12.667)">
        <g id="Grupo_1102927" data-name="Grupo 1102927">
          <path id="Trazado_881865" data-name="Trazado 881865" d="M215.653,45.686a.691.691,0,0,0-.782.591l-6.419,46.27a.694.694,0,0,0,.592.782.706.706,0,0,0,.1.006.693.693,0,0,0,.686-.6l6.419-46.27A.694.694,0,0,0,215.653,45.686Z" transform="translate(-208.445 -45.679)"/>
        </g>
      </g>
      <g id="Grupo_1102930" data-name="Grupo 1102930" transform="translate(31.238 12.655)">
        <g id="Grupo_1102929" data-name="Grupo 1102929">
          <path id="Trazado_881866" data-name="Trazado 881866" d="M135.315,92.515l-6.421-46.282a.693.693,0,1,0-1.374.191l6.421,46.282a.693.693,0,0,0,.686.6.759.759,0,0,0,.1-.006A.693.693,0,0,0,135.315,92.515Z" transform="translate(-127.514 -45.635)"/>
        </g>
      </g>
      <g id="Grupo_1102932" data-name="Grupo 1102932" transform="translate(42.477 49.779)">
        <g id="Grupo_1102931" data-name="Grupo 1102931">
          <path id="Trazado_881867" data-name="Trazado 881867" d="M175.294,179.506h-6.561a.693.693,0,1,0,0,1.387h6.561a.693.693,0,0,0,0-1.387Z" transform="translate(-168.04 -179.506)"/>
        </g>
      </g>
      <g id="Grupo_1102934" data-name="Grupo 1102934" transform="translate(20.511 58.337)">
        <g id="Grupo_1102933" data-name="Grupo 1102933">
          <path id="Trazado_881868" data-name="Trazado 881868" d="M96.085,210.367H89.524a.693.693,0,0,0,0,1.387h6.561a.693.693,0,0,0,0-1.387Z" transform="translate(-88.831 -210.367)"/>
        </g>
      </g>
      <g id="Grupo_1102936" data-name="Grupo 1102936" transform="translate(45.67 19.604)">
        <g id="Grupo_1102935" data-name="Grupo 1102935">
          <path id="Trazado_881869" data-name="Trazado 881869" d="M180.25,70.693a.693.693,0,0,0-.693.693v.837a.693.693,0,1,0,1.387,0v-.837A.693.693,0,0,0,180.25,70.693Z" transform="translate(-179.557 -70.693)"/>
        </g>
      </g>
      <g id="Grupo_1102938" data-name="Grupo 1102938" transform="translate(45.67 33.832)">
        <g id="Grupo_1102937" data-name="Grupo 1102937">
          <path id="Trazado_881870" data-name="Trazado 881870" d="M180.25,122a.693.693,0,0,0-.693.693v.837a.693.693,0,1,0,1.387,0v-.837A.693.693,0,0,0,180.25,122Z" transform="translate(-179.557 -122.001)"/>
        </g>
      </g>
      <g id="Grupo_1102940" data-name="Grupo 1102940" transform="translate(40.344 21.81)">
        <g id="Grupo_1102939" data-name="Grupo 1102939">
          <path id="Trazado_881871" data-name="Trazado 881871" d="M162.125,79.444l-.592-.592a.693.693,0,1,0-.98.98l.592.592a.693.693,0,1,0,.98-.98Z" transform="translate(-160.35 -78.649)"/>
        </g>
      </g>
      <g id="Grupo_1102942" data-name="Grupo 1102942" transform="translate(50.404 31.871)">
        <g id="Grupo_1102941" data-name="Grupo 1102941">
          <path id="Trazado_881872" data-name="Trazado 881872" d="M198.4,115.724l-.592-.592a.693.693,0,0,0-.98.98l.592.592a.693.693,0,1,0,.98-.98Z" transform="translate(-196.629 -114.928)"/>
        </g>
      </g>
      <g id="Grupo_1102944" data-name="Grupo 1102944" transform="translate(38.138 27.136)">
        <g id="Grupo_1102943" data-name="Grupo 1102943">
          <path id="Trazado_881873" data-name="Trazado 881873" d="M153.923,97.856h-.837a.693.693,0,1,0,0,1.387h.837a.693.693,0,1,0,0-1.387Z" transform="translate(-152.393 -97.856)"/>
        </g>
      </g>
      <g id="Grupo_1102946" data-name="Grupo 1102946" transform="translate(52.366 27.136)">
        <g id="Grupo_1102945" data-name="Grupo 1102945">
          <path id="Trazado_881874" data-name="Trazado 881874" d="M205.231,97.856h-.837a.693.693,0,0,0,0,1.387h.837a.693.693,0,1,0,0-1.387Z" transform="translate(-203.701 -97.856)"/>
        </g>
      </g>
      <g id="Grupo_1102948" data-name="Grupo 1102948" transform="translate(40.344 31.871)">
        <g id="Grupo_1102947" data-name="Grupo 1102947">
          <path id="Trazado_881875" data-name="Trazado 881875" d="M162.124,115.131a.694.694,0,0,0-.981,0l-.592.592a.693.693,0,0,0,.981.98l.592-.592A.694.694,0,0,0,162.124,115.131Z" transform="translate(-160.349 -114.929)"/>
        </g>
      </g>
      <g id="Grupo_1102950" data-name="Grupo 1102950" transform="translate(50.404 21.81)">
        <g id="Grupo_1102949" data-name="Grupo 1102949">
          <path id="Trazado_881876" data-name="Trazado 881876" d="M198.4,78.853a.694.694,0,0,0-.981,0l-.592.592a.693.693,0,0,0,.981.981l.592-.592A.694.694,0,0,0,198.4,78.853Z" transform="translate(-196.628 -78.65)"/>
        </g>
      </g>
      <g id="Grupo_1102952" data-name="Grupo 1102952" transform="translate(23.633 21.242)">
        <g id="Grupo_1102951" data-name="Grupo 1102951">
          <path id="Trazado_881877" data-name="Trazado 881877" d="M100.781,76.6a.693.693,0,0,0-.693.693v1.1a.693.693,0,1,0,1.387,0v-1.1A.693.693,0,0,0,100.781,76.6Z" transform="translate(-100.088 -76.601)"/>
        </g>
      </g>
      <g id="Grupo_1102954" data-name="Grupo 1102954" transform="translate(23.633 39.86)">
        <g id="Grupo_1102953" data-name="Grupo 1102953">
          <path id="Trazado_881878" data-name="Trazado 881878" d="M100.781,143.738a.693.693,0,0,0-.693.693v1.1a.693.693,0,1,0,1.387,0v-1.1A.693.693,0,0,0,100.781,143.738Z" transform="translate(-100.088 -143.738)"/>
        </g>
      </g>
      <g id="Grupo_1102956" data-name="Grupo 1102956" transform="translate(16.663 24.129)">
        <g id="Grupo_1102955" data-name="Grupo 1102955">
          <path id="Trazado_881879" data-name="Trazado 881879" d="M76.913,87.988l-.774-.775a.693.693,0,1,0-.981.98l.774.775a.693.693,0,1,0,.981-.98Z" transform="translate(-74.955 -87.011)"/>
        </g>
      </g>
      <g id="Grupo_1102958" data-name="Grupo 1102958" transform="translate(29.828 37.294)">
        <g id="Grupo_1102957" data-name="Grupo 1102957">
          <path id="Trazado_881880" data-name="Trazado 881880" d="M124.385,135.462l-.775-.774a.693.693,0,1,0-.98.981l.775.774a.693.693,0,1,0,.98-.981Z" transform="translate(-122.427 -134.484)"/>
        </g>
      </g>
      <g id="Grupo_1102960" data-name="Grupo 1102960" transform="translate(13.776 31.099)">
        <g id="Grupo_1102959" data-name="Grupo 1102959">
          <path id="Trazado_881881" data-name="Trazado 881881" d="M66.332,112.144h-1.1a.693.693,0,1,0,0,1.387h1.1a.693.693,0,1,0,0-1.387Z" transform="translate(-64.544 -112.144)"/>
        </g>
      </g>
      <g id="Grupo_1102962" data-name="Grupo 1102962" transform="translate(32.394 31.099)">
        <g id="Grupo_1102961" data-name="Grupo 1102961">
          <path id="Trazado_881882" data-name="Trazado 881882" d="M133.47,112.144h-1.1a.693.693,0,1,0,0,1.387h1.1a.693.693,0,1,0,0-1.387Z" transform="translate(-131.682 -112.144)"/>
        </g>
      </g>
      <g id="Grupo_1102964" data-name="Grupo 1102964" transform="translate(16.663 37.294)">
        <g id="Grupo_1102963" data-name="Grupo 1102963">
          <path id="Trazado_881883" data-name="Trazado 881883" d="M76.913,134.687a.693.693,0,0,0-.98,0l-.774.774a.693.693,0,0,0,.981.98l.774-.774A.694.694,0,0,0,76.913,134.687Z" transform="translate(-74.955 -134.484)"/>
        </g>
      </g>
      <g id="Grupo_1102966" data-name="Grupo 1102966" transform="translate(29.828 24.129)">
        <g id="Grupo_1102965" data-name="Grupo 1102965">
          <path id="Trazado_881884" data-name="Trazado 881884" d="M124.385,87.213a.693.693,0,0,0-.98,0l-.775.775a.693.693,0,0,0,.981.98l.775-.775A.693.693,0,0,0,124.385,87.213Z" transform="translate(-122.427 -87.01)"/>
        </g>
      </g>
      <g id="Grupo_1102968" data-name="Grupo 1102968" transform="translate(8.245)">
        <g id="Grupo_1102967" data-name="Grupo 1102967">
          <path id="Trazado_881885" data-name="Trazado 881885" d="M74.712,0H46.678A2.083,2.083,0,0,0,44.6,2.081v66.83a2.083,2.083,0,0,0,2.08,2.081H74.712a1.756,1.756,0,0,0,.243-.019.693.693,0,1,0-.194-1.373.325.325,0,0,1-.049.006H46.678a.7.7,0,0,1-.694-.694V2.081a.7.7,0,0,1,.694-.694H74.712a.7.7,0,0,1,.694.694V8.9a.693.693,0,1,0,1.387,0V2.081A2.083,2.083,0,0,0,74.712,0Z" transform="translate(-44.598)"/>
        </g>
      </g>
      <g id="Grupo_1102970" data-name="Grupo 1102970" transform="translate(0 36.716)">
        <g id="Grupo_1102969" data-name="Grupo 1102969">
          <path id="Trazado_881886" data-name="Trazado 881886" d="M18.8,133.925h-.638v-.638a.894.894,0,0,0-.887-.887.876.876,0,0,0-.887.887v.638h-.638a.894.894,0,0,0-.887.887.876.876,0,0,0,.887.887h.638v.638a.894.894,0,0,0,.887.887.876.876,0,0,0,.887-.887V135.7H18.8a.894.894,0,0,0,.887-.887A.876.876,0,0,0,18.8,133.925Z" transform="translate(-14.866 -132.4)" fill="#70d6f9"/>
        </g>
      </g>
      <g id="Grupo_1102972" data-name="Grupo 1102972" transform="translate(45.326 0)">
        <g id="Grupo_1102971" data-name="Grupo 1102971">
          <path id="Trazado_881887" data-name="Trazado 881887" d="M183.4,2.454A3.077,3.077,0,0,1,180.937.042c0-.055-.111-.055-.111,0a3.077,3.077,0,0,1-2.468,2.413c-.055,0-.055.083,0,.111a3.077,3.077,0,0,1,2.468,2.413c0,.055.111.055.111,0A3.077,3.077,0,0,1,183.4,2.565C183.46,2.537,183.46,2.454,183.4,2.454Z" transform="translate(-178.316 0)" fill="#f5c84c"/>
        </g>
      </g>
      <g id="Grupo_1102974" data-name="Grupo 1102974" transform="translate(59.366 46.588)">
        <g id="Grupo_1102973" data-name="Grupo 1102973">
          <path id="Trazado_881888" data-name="Trazado 881888" d="M232.036,169.491a1.87,1.87,0,0,1-1.5-1.466c0-.034-.067-.034-.067,0a1.87,1.87,0,0,1-1.5,1.466c-.034,0-.034.05,0,.067a1.87,1.87,0,0,1,1.5,1.466c0,.034.067.034.067,0a1.87,1.87,0,0,1,1.5-1.466C232.07,169.542,232.07,169.491,232.036,169.491Z" transform="translate(-228.944 -168)" fill="#87d147"/>
        </g>
      </g>
      <g id="Grupo_1102976" data-name="Grupo 1102976" transform="translate(3.993 45.617)">
        <g id="Grupo_1102975" data-name="Grupo 1102975">
          <path id="Trazado_881889" data-name="Trazado 881889" d="M30.209,164.5a.943.943,0,1,0,.943.943A.943.943,0,0,0,30.209,164.5Z" transform="translate(-29.266 -164.5)" fill="#f5c84c"/>
        </g>
      </g>
      <g id="Grupo_1102978" data-name="Grupo 1102978" transform="translate(53.632 4.298)">
        <g id="Grupo_1102977" data-name="Grupo 1102977">
          <path id="Trazado_881890" data-name="Trazado 881890" d="M209.209,15.5a.943.943,0,1,0,.943.943A.943.943,0,0,0,209.209,15.5Z" transform="translate(-208.266 -15.5)" fill="#87d147"/>
        </g>
      </g>
      <g id="Grupo_1102980" data-name="Grupo 1102980" transform="translate(3.993 12.063)">
        <g id="Grupo_1102979" data-name="Grupo 1102979">
          <path id="Trazado_881891" data-name="Trazado 881891" d="M30.209,43.5a.943.943,0,1,0,.943.943A.943.943,0,0,0,30.209,43.5Z" transform="translate(-29.266 -43.5)" fill="#fc657e"/>
        </g>
      </g>
      <g id="Grupo_1102982" data-name="Grupo 1102982" transform="translate(36.755 66.581)">
        <g id="Grupo_1102981" data-name="Grupo 1102981">
          <path id="Trazado_881892" data-name="Trazado 881892" d="M166.012,240.1H148.1a.693.693,0,1,0,0,1.387h17.913a.693.693,0,1,0,0-1.387Z" transform="translate(-147.406 -240.095)"/>
        </g>
      </g>
      <g id="Grupo_1102984" data-name="Grupo 1102984" transform="translate(35.16 39.224)">
        <g id="Grupo_1102983" data-name="Grupo 1102983">
          <path id="Trazado_881893" data-name="Trazado 881893" d="M163.355,141.444H142.348a.693.693,0,1,0,0,1.387h21.006a.693.693,0,1,0,0-1.387Z" transform="translate(-141.655 -141.444)"/>
        </g>
      </g>
      <g id="Grupo_1102986" data-name="Grupo 1102986" transform="translate(36.122 45.785)">
        <g id="Grupo_1102985" data-name="Grupo 1102985">
          <path id="Trazado_881894" data-name="Trazado 881894" d="M164.976,165.1H145.818a.693.693,0,0,0,0,1.387h19.157a.693.693,0,1,0,0-1.387Z" transform="translate(-145.125 -165.104)"/>
        </g>
      </g>
      <g id="Grupo_1102990" data-name="Grupo 1102990" transform="translate(41.625 23.091)">
        <g id="Grupo_1102989" data-name="Grupo 1102989">
          <g id="Grupo_1102988" data-name="Grupo 1102988">
            <g id="Grupo_1102987" data-name="Grupo 1102987">
              <path id="Trazado_881895" data-name="Trazado 881895" d="M169.708,83.269a4.739,4.739,0,1,0,4.738,4.739A4.744,4.744,0,0,0,169.708,83.269Zm0,8.09a3.352,3.352,0,1,1,3.352-3.352A3.356,3.356,0,0,1,169.708,91.359Z" transform="translate(-164.969 -83.269)"/>
            </g>
          </g>
        </g>
      </g>
      <g id="Grupo_1102994" data-name="Grupo 1102994" transform="translate(18.339 25.805)">
        <g id="Grupo_1102993" data-name="Grupo 1102993">
          <g id="Grupo_1102992" data-name="Grupo 1102992">
            <g id="Grupo_1102991" data-name="Grupo 1102991">
              <path id="Trazado_881896" data-name="Trazado 881896" d="M86.986,93.056a5.987,5.987,0,1,0,5.987,5.987A5.994,5.994,0,0,0,86.986,93.056Zm0,10.587a4.6,4.6,0,1,1,4.6-4.6A4.605,4.605,0,0,1,86.986,103.643Z" transform="translate(-80.999 -93.056)"/>
            </g>
          </g>
        </g>
      </g>
      <g id="Grupo_1102996" data-name="Grupo 1102996" transform="translate(8.491 45.785)">
        <g id="Grupo_1102995" data-name="Grupo 1102995">
          <path id="Trazado_881897" data-name="Trazado 881897" d="M73.371,165.1H46.177a.693.693,0,1,0,0,1.387H73.371a.693.693,0,1,0,0-1.387Z" transform="translate(-45.484 -165.104)"/>
        </g>
      </g>
      <g id="Grupo_1102998" data-name="Grupo 1102998" transform="translate(8.504 54.343)">
        <g id="Grupo_1102997" data-name="Grupo 1102997">
          <path id="Trazado_881898" data-name="Trazado 881898" d="M74.545,195.965H46.224a.693.693,0,1,0,0,1.387h28.32a.693.693,0,1,0,0-1.387Z" transform="translate(-45.531 -195.965)"/>
        </g>
      </g>
      <g id="Grupo_1103000" data-name="Grupo 1103000" transform="translate(8.327 4.488)">
        <g id="Grupo_1102999" data-name="Grupo 1102999">
          <path id="Trazado_881899" data-name="Trazado 881899" d="M67.593,22.358q-.279-.251-.56-.51c-4.433-4.08-8.845-5.973-13.114-5.625a14.459,14.459,0,0,0-8.808,4.264.693.693,0,1,0,.954,1.006c4.163-3.951,11.018-6.918,20.03,1.375q.287.264.571.519a.693.693,0,0,0,.928-1.03Z" transform="translate(-44.894 -16.183)"/>
        </g>
      </g>
    </g>
  </g>
</svg>
