<svg id="_53" data-name="53" xmlns="http://www.w3.org/2000/svg" width="38.953" height="70.426" viewBox="0 0 38.953 70.426">
  <g id="_443077968">
    <path id="_443078808" d="M28.023,9.866c.3.089.614.178.93.268,5.1,1.452,11,3.134,11.991,14.976h0a1.464,1.464,0,0,1-.049.518L34.367,56.112l-1.433-.3,1.435.307a1.468,1.468,0,0,1-1.456,1.16h-22.9a1.468,1.468,0,0,1-1.451-1.248l-6.53-30.49h0a1.465,1.465,0,0,1-.021-.5c1-11.781,6.9-13.459,11.985-14.908.316-.09.628-.179.93-.268V3.418a1.467,1.467,0,0,1,1.467-1.467H26.556a1.467,1.467,0,0,1,1.467,1.467V9.866Zm.127,3.088c-.659-.188-1.3-.371-1.97-.594a1.468,1.468,0,0,1-1.091-1.419V4.886h-7.23v6.028a1.468,1.468,0,0,1-1,1.418v0c-.7.237-1.374.429-2.064.625-4.166,1.186-8.984,2.56-9.852,12.195L11.2,54.341H31.751L38,25.148c-.869-9.635-5.687-11.009-9.852-12.195Z" transform="translate(-1.997 13.15)" fill="#333"/>
    <path id="_443078784" d="M6.241,2.7a1.467,1.467,0,0,0-2.934,0v9.823a1.467,1.467,0,0,0,2.934,0Z" transform="translate(14.703 4.041)" fill="#333"/>
    <path id="_443077992" d="M4.533,8.407c-1.093-.143-1.66-.643-1.608-1.582q0-.052,0-.1h0C3.3,1.877,7.057.569,11.475.9a28.973,28.973,0,0,1,8.838,2.363c3.025,1.32,5.076,3.11,4.873,4.284S23.8,9.313,21.316,8.883c-3.159-.548-8.368-.478-12.151-.426-2.147.029-3.855.052-4.632-.049Zm1.7-2.849C7,5.562,8,5.549,9.13,5.533c2.759-.037,6.252-.085,9.257.1a25.192,25.192,0,0,0-7.13-1.8c-2.243-.169-4.212.232-5.024,1.733Z" transform="translate(9.784 -0.853)" fill="#333"/>
    <path id="_443078448" d="M14.569,5.433a1.467,1.467,0,1,0,0-2.934H4.4a1.467,1.467,0,1,0,0,2.934H14.569Z" transform="translate(9.99 20.126)" fill="#333"/>
    <path id="_443078280" d="M14.569,4.886a1.467,1.467,0,1,0,0-2.934H4.4a1.467,1.467,0,1,0,0,2.934H14.569Z" transform="translate(9.99 13.151)" fill="#333"/>
    <path id="_443078592" d="M19.178,4.886a1.467,1.467,0,0,0,0-2.934H4.231a1.467,1.467,0,0,0,0,2.934H19.178Z" transform="translate(7.772 13.151)" fill="#333"/>
    <path id="_443077920" d="M4.036,3.556H14.975a1.1,1.1,0,0,1,1.1,1.1V21.486a1.1,1.1,0,0,1-1.1,1.1H4.036a1.1,1.1,0,0,1-1.1-1.1V4.657a1.1,1.1,0,0,1,1.1-1.1Zm9.838,2.2H5.136V20.386h8.738Z" transform="translate(9.971 33.625)" fill="#333"/>
  </g>
  <path id="Trazado_881900" data-name="Trazado 881900" d="M11.834,3.716H3.1V18.345h8.738Z" transform="translate(12.012 35.666)" fill="#feca5f" fill-rule="evenodd"/>
  <path id="Trazado_881901" data-name="Trazado 881901" d="M25.31,15.434V32.264a1.1,1.1,0,0,1-1.1,1.1H13.271a1.1,1.1,0,0,1-1.1-1.1V15.434a1.1,1.1,0,0,1,1.1-1.1H24.21a1.1,1.1,0,0,1,1.1,1.1Zm9.959.017C34.4,5.816,29.583,4.443,25.418,3.256c-.61-.174-1.209-.344-1.823-.545H13.887c-.614.2-1.213.371-1.823.545C7.9,4.443,3.08,5.816,2.212,15.451L8.464,44.645H29.017L35.27,15.451Z" transform="translate(0.736 22.847)" fill="#63cbe5" fill-rule="evenodd"/>
  <path id="Trazado_881902" data-name="Trazado 881902" d="M3.151,6.753h7.23V2.165H3.151Z" transform="translate(12.711 15.872)" fill="#ebe5df" fill-rule="evenodd"/>
  <path id="Trazado_881903" data-name="Trazado 881903" d="M6.058,2.811c2.759-.037,6.252-.085,9.257.1a25.192,25.192,0,0,0-7.13-1.8C5.943.934,3.973,1.335,3.162,2.836c.765,0,1.766-.009,2.9-.025Z" transform="translate(12.856 1.869)" fill="#ebe5df" fill-rule="evenodd"/>
</svg>
