<svg xmlns="http://www.w3.org/2000/svg" width="51.513" height="69.5" viewBox="0 0 51.513 69.5">
  <g id="_54" data-name="54" transform="translate(-64.704)">
    <g id="Grupo_1103002" data-name="Grupo 1103002" transform="translate(77.157 16.591)">
      <path id="Trazado_881904" data-name="Trazado 881904" d="M177.151,122.068v-2.712H158.039v2.712a3.843,3.843,0,0,1-.842,2.4l-2.063,2.579a3.843,3.843,0,0,0-.842,2.4v42.123H180.9V129.448a3.843,3.843,0,0,0-.842-2.4l-2.063-2.579A3.844,3.844,0,0,1,177.151,122.068Z" transform="translate(-154.291 -119.356)" fill="#fddf7f"/>
    </g>
    <g id="Grupo_1103003" data-name="Grupo 1103003" transform="translate(83.981 26.459)">
      <path id="Trazado_881905" data-name="Trazado 881905" d="M205.044,208.546a1.649,1.649,0,0,0,1.649-1.649,1.649,1.649,0,1,0,3.3,0,1.649,1.649,0,1,0,3.3,0,1.649,1.649,0,1,0,3.3,0l.008.011-6.6-16.557-6.6,16.557.008-.011A1.649,1.649,0,0,0,205.044,208.546Z" transform="translate(-203.387 -190.351)" fill="#ecf4f7"/>
    </g>
    <g id="Grupo_1103004" data-name="Grupo 1103004" transform="translate(82.311 43.005)">
      <path id="Trazado_881906" data-name="Trazado 881906" d="M194.948,321.979h0a8.273,8.273,0,0,0,9.4,0h0a8.273,8.273,0,0,0,2.985-9.874l-1.08-2.708-.008-.011a1.649,1.649,0,1,1-3.3,0,1.649,1.649,0,0,1-3.3,0,1.649,1.649,0,0,1-3.3,0,1.649,1.649,0,0,1-3.3,0l-.008.011-1.08,2.708A8.273,8.273,0,0,0,194.948,321.979Z" transform="translate(-191.373 -309.385)" fill="#83e1e5"/>
    </g>
    <g id="Grupo_1103005" data-name="Grupo 1103005" transform="translate(79.031 3.362)">
      <path id="Trazado_881907" data-name="Trazado 881907" d="M188.758,28.548h-6.246V24.189h-6.621v4.359h-6.246a1.874,1.874,0,0,0-1.874,1.874v5.121a1.874,1.874,0,0,0,1.874,1.874h19.112a1.874,1.874,0,0,0,1.874-1.874V30.422A1.874,1.874,0,0,0,188.758,28.548Z" transform="translate(-167.772 -24.189)" fill="#aab1ba"/>
    </g>
    <path id="Trazado_881908" data-name="Trazado 881908" d="M70.745,12.156a.7.7,0,0,1,.7-.7h.811V10.65a.7.7,0,1,1,1.39,0v.811h.811a.7.7,0,1,1,0,1.39h-.811v.811a.7.7,0,1,1-1.39,0v-.811H71.44A.7.7,0,0,1,70.745,12.156Zm35.723.7h.811v.811a.7.7,0,1,0,1.39,0v-.811h.811a.7.7,0,0,0,0-1.39h-.811V10.65a.7.7,0,1,0-1.39,0v.811h-.811a.7.7,0,1,0,0,1.39ZM77.157,33.685a.7.7,0,0,0,.695-.7v-.463a.7.7,0,1,0-1.39,0v.463A.7.7,0,0,0,77.157,33.685Zm34.984,35.121a.7.7,0,0,1-.7.7H69.474a.7.7,0,1,1,0-1.39h6.987V64.816H74.815a.7.7,0,1,1,0-1.39h1.647V35.556a.7.7,0,1,1,1.39,0v27.87h25.217V26.683a3.16,3.16,0,0,0-.69-1.967l-2.063-2.579a4.556,4.556,0,0,1-.994-2.835V17.286H81.6V19.3a4.555,4.555,0,0,1-.995,2.835l-2.063,2.579a3.159,3.159,0,0,0-.69,1.967v3.249a.7.7,0,1,1-1.39,0V26.683a4.554,4.554,0,0,1,.995-2.835l2.063-2.579a3.16,3.16,0,0,0,.69-1.967V17.187a2.571,2.571,0,0,1-1.874-2.471V9.6A2.572,2.572,0,0,1,80.9,7.026h5.551V4.057h-1.21a.7.7,0,0,1,0-1.39h4.52V.7a.7.7,0,0,1,1.39,0V2.667h4.52a.7.7,0,1,1,0,1.39h-1.21V7.026h5.551A2.572,2.572,0,0,1,102.585,9.6v5.122a2.571,2.571,0,0,1-1.874,2.471V19.3a3.16,3.16,0,0,0,.69,1.967l2.063,2.579a4.555,4.555,0,0,1,.994,2.835V63.426h1.647a.7.7,0,1,1,0,1.39h-1.647V68.11h6.987A.7.7,0,0,1,112.141,68.805ZM87.845,7.026h5.23V4.057h-5.23ZM100.016,15.9a1.18,1.18,0,0,0,1.179-1.179V9.6a1.18,1.18,0,0,0-1.179-1.179H80.9A1.18,1.18,0,0,0,79.725,9.6v5.122A1.18,1.18,0,0,0,80.9,15.9Zm3.052,52.215V64.816H77.852V68.11Zm-37.014,0H65.4a.7.7,0,1,0,0,1.39h.656a.7.7,0,1,0,0-1.39Zm49.467,0h-.656a.7.7,0,1,0,0,1.39h.656a.7.7,0,0,0,0-1.39ZM89.89,22.866a.7.7,0,1,1,1.39,0v3.46l6.555,16.433,1.08,2.708a8.974,8.974,0,0,1-13.424,10.7h0a8.924,8.924,0,0,1-3.236-10.7l1.08-2.708L89.89,26.326v-3.46Zm6.59,20.248L90.585,28.335,84.691,43.113c0,.019.005.039.009.058s0,.019,0,.028c.006.03.014.059.023.088l.005.014c.008.024.016.048.026.07l.014.029c.008.017.016.035.025.052l.018.031c.009.015.018.031.028.046l.022.031c.01.014.02.028.031.041l.025.029.034.037.028.027.037.033.03.025.04.03.032.022.043.026.034.019.046.022.036.016.049.018.036.012.053.014.035.008.061.009.03,0c.031,0,.062,0,.094,0A.955.955,0,0,0,86.592,43a.7.7,0,0,1,1.39,0,.954.954,0,0,0,1.908,0,.7.7,0,1,1,1.39,0,.954.954,0,1,0,1.908,0,.7.7,0,0,1,1.39,0,.955.955,0,0,0,.954.954c.032,0,.063,0,.094,0l.03,0,.061-.009.035-.008.053-.014.036-.012.049-.018.036-.016.046-.022.034-.019.043-.026.032-.022.04-.03.03-.025.037-.034.028-.027.034-.038.025-.029.031-.042.021-.03c.01-.015.019-.031.028-.047l.017-.03c.009-.018.018-.036.026-.054l.013-.027c.01-.024.019-.049.027-.075l0-.01c.009-.029.017-.058.023-.088,0-.009,0-.018,0-.027S96.478,43.133,96.48,43.113Zm1.144,2.869-.5-1.257c-.025.023-.051.043-.077.065s-.051.045-.077.065-.063.045-.095.068-.053.039-.081.057-.069.04-.1.06-.055.033-.084.048-.075.035-.112.052-.057.027-.086.039-.08.029-.12.042-.058.021-.087.03-.087.022-.131.033c-.028.007-.056.015-.084.021-.049.01-.1.016-.15.022-.024,0-.048.008-.072.011q-.113.011-.229.011a2.337,2.337,0,0,1-1.649-.68,2.34,2.34,0,0,1-3.3,0,2.34,2.34,0,0,1-3.3,0,2.337,2.337,0,0,1-1.649.68c-.077,0-.154,0-.229-.011-.024,0-.048-.007-.072-.01-.051-.007-.1-.013-.151-.022-.028-.005-.054-.013-.081-.02-.045-.011-.09-.02-.134-.033-.029-.009-.056-.02-.085-.029s-.083-.027-.123-.043-.056-.025-.084-.038-.077-.034-.114-.053-.054-.031-.082-.047-.071-.04-.106-.062-.053-.037-.08-.056-.065-.044-.1-.069-.051-.043-.077-.065-.053-.043-.077-.065l-.5,1.257a7.541,7.541,0,0,0,2.734,9.045,7.619,7.619,0,0,0,8.609,0A7.541,7.541,0,0,0,97.624,45.982ZM90.585,20.92a.7.7,0,0,0,.695-.7v-.487a.7.7,0,1,0-1.39,0v.487A.7.7,0,0,0,90.585,20.92Z" fill="#1c1d21"/>
  </g>
</svg>
