<svg xmlns="http://www.w3.org/2000/svg" width="84.557" height="57.304" viewBox="0 0 84.557 57.304">
  <g id="_55" data-name="55" transform="translate(0 -20.627)">
    <g id="Grupo_1103006" data-name="Grupo 1103006" transform="translate(1.156 21.784)">
      <ellipse id="Elipse_11735" data-name="Elipse 11735" cx="28.323" cy="17.01" rx="28.323" ry="17.01" fill="#d7e8fc"/>
      <ellipse id="Elipse_11736" data-name="Elipse 11736" cx="13.955" cy="7.34" rx="13.955" ry="7.34" transform="translate(14.368 9.671)" fill="#b1d1f9"/>
      <path id="Trazado_881909" data-name="Trazado 881909" d="M78.71,65.14V84.377H30.07c-.383,0-.766-.007-1.149-.013-15.1-.363-27.17-7.835-27.17-17V48.13c0,9.394,12.683,17.01,28.32,17.01Z" transform="translate(-1.75 -31.118)" fill="#b1d1f9"/>
      <path id="Trazado_881910" data-name="Trazado 881910" d="M72.948,48.128c0,9.394-12.683,17.01-28.323,17.01H72.948Z" transform="translate(-16.302 -31.118)" fill="#eaf3fd"/>
      <rect id="Rectángulo_403368" data-name="Rectángulo 403368" width="5.285" height="22.705" transform="translate(76.96 32.287)" fill="#d7e8fc"/>
    </g>
    <g id="Grupo_1103007" data-name="Grupo 1103007" transform="translate(0 20.627)">
      <path id="Trazado_881918" data-name="Trazado 881918" d="M55.557,23.9c1.092.186,2.172.414,3.21.679a1.156,1.156,0,0,0,.571-2.241c-1.1-.28-2.24-.521-3.393-.717a1.156,1.156,0,1,0-.388,2.279Z" transform="translate(-18.53 -20.958)"/>
      <path id="Trazado_881919" data-name="Trazado 881919" d="M21.75,43.762c0,4.764,6.638,8.5,15.111,8.5s15.111-3.732,15.111-8.5-6.638-8.5-15.111-8.5S21.75,39,21.75,43.762Zm27.91,0c0,2.987-5.143,6.184-12.8,6.184s-12.8-3.2-12.8-6.184,5.143-6.183,12.8-6.183S49.66,40.776,49.66,43.762Z" transform="translate(-7.382 -25.596)"/>
      <path id="Trazado_881920" data-name="Trazado 881920" d="M83.4,52.912H78.116a1.156,1.156,0,0,0-1.156,1.156v.578h-18V38.792c0-5.336-3.739-10.371-10.258-13.807a1.157,1.157,0,0,0-1.079,2.048c5.735,3.022,9.024,7.31,9.024,11.76,0,8.742-12.187,15.854-27.167,15.854S2.312,47.536,2.312,38.793,14.5,22.939,29.479,22.939a1.156,1.156,0,1,0,0-2.312C13.225,20.627,0,28.777,0,38.793V58.031c0,5.838,4.333,11.164,11.887,14.607a1.156,1.156,0,1,0,.96-2.1c-6.7-3.053-10.535-7.611-10.535-12.5V45.844C6.788,52.369,17.28,56.959,29.479,56.959H76.96V73.884c-8.036,1.01-54.118-.4-56.806-.968a1.156,1.156,0,1,0-.488,2.261A46.718,46.718,0,0,0,29.479,76.2H76.96v.578a1.156,1.156,0,0,0,1.156,1.156H83.4a1.156,1.156,0,0,0,1.156-1.156V54.07A1.156,1.156,0,0,0,83.4,52.912ZM43.847,54.648c5.7-1.969,10.236-5.067,12.8-8.8v8.8Zm38.4,20.971H79.272V55.225h2.973Z" transform="translate(0 -20.627)"/>
    </g>
  </g>
</svg>
