<svg xmlns="http://www.w3.org/2000/svg" width="16" height="13.683" viewBox="0 0 16 13.683">
  <path id="corazon" d="M7.134,55.493,1.487,50.221a4.828,4.828,0,0,1-.372-.388H3.834A1.75,1.75,0,0,0,5.45,48.756l.328-.787L7.319,51.39a.74.74,0,0,0,.669.441.758.758,0,0,0,.687-.416L10,48.762l.053.106a1.751,1.751,0,0,0,1.566.969h3.266a4.828,4.828,0,0,1-.372.387L8.866,55.493a1.27,1.27,0,0,1-1.731,0Zm8.606-7.159H11.616a.255.255,0,0,1-.225-.137l-.725-1.447a.751.751,0,0,0-1.344,0L8.028,49.337,6.434,45.777a.749.749,0,0,0-1.375.022l-.994,2.384a.249.249,0,0,1-.231.153H.5a.774.774,0,0,0-.228.034A4.683,4.683,0,0,1,0,46.8v-.181a4.467,4.467,0,0,1,7.625-3.159L8,43.834l.375-.375A4.467,4.467,0,0,1,16,46.618V46.8A4.613,4.613,0,0,1,15.741,48.334Z" transform="translate(0 -42.151)" fill="#1e4678"/>
</svg>
