<svg id="Grupo_1102004" data-name="Grupo 1102004" xmlns="http://www.w3.org/2000/svg" xmlns:xlink="http://www.w3.org/1999/xlink" width="122.932" height="122.932" viewBox="0 0 122.932 122.932">
  <defs>
    <clipPath id="clip-path">
      <rect id="Rectángulo_403527" data-name="Rectángulo 403527" width="122.932" height="122.932" fill="#1aa6d2"/>
    </clipPath>
    <clipPath id="clip-path-2">
      <rect id="Rectángulo_404280" data-name="Rectángulo 404280" width="128.931" height="43.311" fill="none"/>
    </clipPath>
    <clipPath id="clip-path-4">
      <rect id="Rectángulo_404277" data-name="Rectángulo 404277" width="24.898" height="25.337" fill="none"/>
    </clipPath>
    <clipPath id="clip-path-5">
      <rect id="Rectángulo_404278" data-name="Rectángulo 404278" width="19.096" height="27.028" fill="none"/>
    </clipPath>
  </defs>
  <g id="Grupo_1101867" data-name="Grupo 1101867">
    <g id="Grupo_1101865" data-name="Grupo 1101865">
      <g id="Grupo_1101864" data-name="Grupo 1101864" clip-path="url(#clip-path)">
        <path id="Trazado_885007" data-name="Trazado 885007" d="M0,0H122.932V122.932H0Z" fill="#1aa6d2"/>
        <g id="Grupo_1103539" data-name="Grupo 1103539" transform="translate(5.243 48.217)">
          <g id="Grupo_1103538" data-name="Grupo 1103538" clip-path="url(#clip-path-2)">
            <g id="Grupo_1103537" data-name="Grupo 1103537">
              <g id="Grupo_1103536" data-name="Grupo 1103536" clip-path="url(#clip-path-2)">
                <path id="Trazado_883999" data-name="Trazado 883999" d="M210.929,116.319c-.746.346-5.321,2.444-5.678,3.3s-.151,3.351,2.839,2.994,6.373-3.569,7.537-3.807,4.109-.147,6.041-1.138,9.755.9,9.755.9-7.2-8.419-20.494-2.247" transform="translate(-171.463 -95.342)" fill="#d19074"/>
                <path id="Trazado_884000" data-name="Trazado 884000" d="M230.57,131.411c-2.085-.456-7.355-1.494-8.893-.7-1.932.991-4.877.9-6.041,1.138s-4.546,3.45-7.537,3.807c-2.1.251-2.826-.91-2.947-1.918-.136,1.053.373,2.861,2.947,2.554,2.99-.357,6.373-3.569,7.537-3.807s4.109-.148,6.041-1.138,9.755.9,9.755.9a8.8,8.8,0,0,0-.862-.831" transform="translate(-171.472 -109.019)" fill="#dd9b7a"/>
                <path id="Trazado_884001" data-name="Trazado 884001" d="M110.625,124.561s-.595,2.617,1.9,2.736,3.807-.3,6.067-2.141,3.331-2.7,5.353-3.075,11.783-3.411,12.61-4.418-18.2-.715-25.934,6.9" transform="translate(-92.421 -98.007)" fill="#dd9b7a"/>
                <path id="Trazado_884002" data-name="Trazado 884002" d="M135.972,117.907a76.408,76.408,0,0,1-12.022,4.013c-2.022.374-3.093,1.231-5.353,3.075s-3.569,2.26-6.067,2.141a1.83,1.83,0,0,1-1.945-1.748,1.985,1.985,0,0,0,1.945,2.462c2.5.119,3.807-.3,6.067-2.141s3.331-2.7,5.353-3.075,11.783-3.411,12.61-4.418c.105-.128-.113-.235-.588-.309" transform="translate(-92.422 -98.56)" fill="#f5af84"/>
                <path id="Trazado_884003" data-name="Trazado 884003" d="M45.9,114.14c-.4.165-6.067,3.807-6.424,4.521s.238,4.521,6.424,3.807,3.45-2.216,9.755-4.759,7.97-3.212,10.825-3.569,14.782-1.279,17.13-1.9c1.641-.435-23.436-4.046-37.711,1.9" transform="translate(-32.931 -92.582)" fill="#dd9b7a"/>
                <path id="Trazado_884004" data-name="Trazado 884004" d="M81.973,116.774c-4.081.59-13.061,1.3-15.489,1.6-2.855.357-4.521,1.026-10.826,3.569s-3.569,4.045-9.755,4.759c-4.761.549-6.209-1.579-6.461-2.914-.263.91.521,4.391,6.461,3.706,6.186-.714,3.45-2.216,9.755-4.759s7.971-3.212,10.826-3.569,14.782-1.279,17.13-1.9c.307-.082-.322-.274-1.642-.495" transform="translate(-32.934 -97.613)" fill="#f5af84"/>
                <path id="Trazado_884005" data-name="Trazado 884005" d="M126.689,34.912q-.3.793-.636,1.569l-.3.677s-11.66-.357-15.227,0-7.733,1.31-9.757,2.974a44.546,44.546,0,0,1-9.04,5.473c-2.26.832-15.466,4.284-20.1,4.486S58.305,48.7,54.5,49.057s-16.772,2.139-21.888,0a6.437,6.437,0,0,1-2.24-1.482,4.5,4.5,0,0,1-1.021-1.681,4.777,4.777,0,0,1-.182-2.2,5.983,5.983,0,0,1,.67-2.017,5.287,5.287,0,0,1,1.226-1.542c2.142-1.782,8.683-3.21,11.842-3.924s17.423-1.667,17.423-1.667l-.02-.03c-.263-.4-3.058-4.658-4.985-5.348a.879.879,0,0,0-.111-.04c-2.021-.6-6.662-2.432-11.064-2.668s-10.35.711-14.395.832S17.263,29.307,8.7,29.429.012,25.859.012,24.67a.657.657,0,0,1,.071-.3.944.944,0,0,1,.294-.315,2.109,2.109,0,0,1,.332-.185c.051-.023.1-.045.16-.067,1.066-.415,2.993-.6,4.973-1.156a68.934,68.934,0,0,1,7.612-2.021c1.428-.121,6.426-2.142,9.161-3.331s7.615-1.428,10.114-2.142,16.176-1.59,18.079-2.26,5.355-2.617,7.972-2.738,23.791,2.263,34.5,2.62,17.608-3.688,20.7-4.045c1.546-.179,4.49-.327,7.049-.431s4.729-.165,4.729-.165a34.588,34.588,0,0,1,.933,26.779" transform="translate(-0.01 -6.798)" fill="#f9c193"/>
                <path id="Trazado_884006" data-name="Trazado 884006" d="M274.946,170.88q-.3.793-.637,1.569l-.3.677s-11.66-.357-15.227,0-7.733,1.31-9.757,2.974a44.545,44.545,0,0,1-9.04,5.473c-2.26.832-15.466,4.284-20.1,4.486s-13.324-1.391-17.133-1.034-16.772,2.139-21.889,0a6.437,6.437,0,0,1-2.24-1.482,4.494,4.494,0,0,1-1.021-1.681,4.867,4.867,0,0,1-.182-2.2,5.978,5.978,0,0,1,.67-2.017c-.209,1.92.606,4.008,3.462,5.2,5.116,2.142,18.083.357,21.888,0s12.492,1.239,17.13,1.034,17.847-3.651,20.107-4.483a44.842,44.842,0,0,0,9.04-5.473c2.024-1.667,6.187-2.617,9.754-2.974,2.489-.249,11.037-.152,15.473-.071" transform="translate(-148.267 -142.767)" fill="#f5af84"/>
                <path id="Trazado_884007" data-name="Trazado 884007" d="M44.137,106.279c4.4.237,9.041,2.072,11.063,2.667,1.133.333,4.042,4.024,5.115,5.421.65-.047.823-.591.832-1.124a2.739,2.739,0,0,0-.5-1.589c-.871-1.273-3.152-4.414-4.758-4.886-2.022-.595-6.662-2.43-11.064-2.667s-10.35.712-14.394.831-12.491,2.022-21.056,2.141c-6.357.088-8.061-1.919-8.517-3.447-.534.207-.859.468-.859.865,0,1.19.121,4.879,8.687,4.76s17.012-2.022,21.056-2.141,9.993-1.068,14.395-.831" transform="translate(0 -86.623)" fill="#f5af84"/>
                <path id="Trazado_884008" data-name="Trazado 884008" d="M574.706,13.142c-3.482.931-10.015,4.136-19.6,3.819-.814-.027-1.689-.066-2.611-.115h0a24.974,24.974,0,0,0,12.514.888c7.484-1.2,7.472-3.11,9.7-4.593" transform="translate(-461.837 -10.986)" fill="#f5af84"/>
                <path id="Trazado_884009" data-name="Trazado 884009" d="M163.542,51.042c-.016.313,4.149.159,5.446-.382.43-.179,1.035-.279,1.271-.842-.342.061-.629.12-.834.179-1.453.415-3.71.671-5.883,1.045" transform="translate(-136.707 -41.644)" fill="#f5af84"/>
                <path id="Trazado_884010" data-name="Trazado 884010" d="M259.767,34.541c1.187-.577.459-.949,1.7-2.831-.809.357-1.541.684-2.127.89a91.4,91.4,0,0,1-9.863,1.217s8.5,1.6,10.293.724" transform="translate(-208.539 -26.507)" fill="#f5af84"/>
                <path id="Trazado_884011" data-name="Trazado 884011" d="M141.718,22.564c-1.689-2.04-15.568,3.714-21.555,4.358s-15.717,1.332-19.01-.39S78.549,23.125,76,23.593a8.437,8.437,0,0,0-3.489,1.528,12.755,12.755,0,0,1-8.754,2.584,60.262,60.262,0,0,0-8.264-.34C53,27.654,45.418,29.35,43.722,29.55s-3.992.1-5.189,1-7.484,3.081-9.38,3.28-8.183,1.51-8.283,2.408c-.181,1.627,4.99,2.2,8.482,1.5s19.559-2.5,25.148-3.2c3.388-.424,9.324.181,14.029.812a18.256,18.256,0,0,1,9.084,3.839c1.637,1.326,2.871,2.828,2.734,4.33-.3,3.293-.3,4.053-5.389,4.951s-19.31-.925-25.147,5.5c-1.245,1.371,0,4.215,4.191,4.215s15.717-1.618,19.759-1.169a120.578,120.578,0,0,0,18.262.421c5.089-.449,20.507-5.688,23.651-8.233s6.736-4.94,11.526-5.389,14.969.449,15.568,0,4.64-14.388-1.048-21.256" transform="translate(-17.441 -18.498)" fill="#ffcca6"/>
                <path id="Trazado_884012" data-name="Trazado 884012" d="M205.094,196.226c-.183,1.6,4.668,2,7.278,1.5s10.493-.026,11.291-.662.158-4.521-1.47-5.825-16.608.7-17.1,4.99" transform="translate(-171.437 -159.528)" fill="#ffd3b6"/>
                <path id="Trazado_884013" data-name="Trazado 884013" d="M39.383,93.257c-.173,2.861,8.828.725,11.678-.635s.2-2.159-2.04-2.159-5.888,1.787-7.385,1.892-2.211.2-2.253.9" transform="translate(-32.918 -75.619)" fill="#ffd3b6"/>
                <path id="Trazado_884014" data-name="Trazado 884014" d="M149.287,61.433c-1.249,1.153,2.794,3.293,9.78,2s11.661.1,12.467-1.3-2.948-4.289-8.675-3.987-6.727,1.592-9.151,1.992-3.123.1-4.42,1.3" transform="translate(-124.603 -48.585)" fill="#ffd3b6"/>
                <path id="Trazado_884015" data-name="Trazado 884015" d="M429.407,86.724c-.6-.15-6.736,1.8-10.029,2.712s-18.861,1.038-22,2.289a39.994,39.994,0,0,0-6.886,4.372,40.514,40.514,0,0,1-7.509,4.451,20.488,20.488,0,0,1-7.359,1.913c-7.085.437-10.48.936-12.026,3.331-2.625,4.067,9.93,3.992,14.421,4.091s14.869-3.094,17.763-4.89c.672-.417,1.3-.8,1.864-1.162l.122-.078.01-.006c1.342-.862,10.362-6.707,13.522-7.187,3.293-.5,15.867.051,16.765-1.065s1.946-8.622,1.347-8.772" transform="translate(-303.634 -72.487)" fill="#ffd3b6"/>
                <path id="Trazado_884016" data-name="Trazado 884016" d="M345.9,36.879c-1.452,1.753,5.688,2.406,12.574,3.454s13.173.9,13.622,0-8.233-3.316-11.825-3.454-12.873-1.808-14.37,0" transform="translate(-288.987 -30.13)" fill="#ffd3b6"/>
                <path id="Trazado_884017" data-name="Trazado 884017" d="M311.489,20.427c-2.617.121-6.066,2.068-7.972,2.738a7.947,7.947,0,0,1-1.19.255,9.426,9.426,0,0,1,1.407,2.666s.906,2.264,1.911,2.536,4.737.212,6.234.841,5.126-.216,9.7,1.481c3.329,1.234,2.67-.458,6.063-.655s5.089,1.095,6.786,0,1.3-1.661,2.495-2.575.8-2.112,2.2-3.01a4.81,4.81,0,0,0,1.716-1.921c-11.233-.723-27.106-2.457-29.349-2.356" transform="translate(-252.719 -17.072)" fill="#f58f7d"/>
                <path id="Trazado_884018" data-name="Trazado 884018" d="M307.794,23.695a8.438,8.438,0,0,1,3.489-1.528c2.545-.468,21.854,1.216,25.148,2.939a7.265,7.265,0,0,0,1.76.592,2.643,2.643,0,0,1,.931-.993,4.813,4.813,0,0,0,1.717-1.921c-11.233-.723-27.106-2.457-29.349-2.356-2.617.121-6.066,2.068-7.972,2.738a7.976,7.976,0,0,1-1.19.255,9.77,9.77,0,0,1,1.308,2.382,13.312,13.312,0,0,0,4.158-2.107" transform="translate(-252.72 -17.071)" fill="#ea8375"/>
                <path id="Trazado_884019" data-name="Trazado 884019" d="M326.717,20.427c-1.923.089-4.294,1.163-6.173,1.993.748,1.053,1.483,1.924,1.483,1.924s1.31,2.283,2.189,2.563,2.8.218,4.108.862,6.356,1.278,9.418,1.882,1.4-.834,4.371-1.036,4.451,1.122,5.935,0,1.135-1.7,2.182-2.64.7-2.165,1.92-3.085a4.247,4.247,0,0,0,.406-.353c-10.777-.807-23.821-2.2-25.838-2.11" transform="translate(-267.947 -17.072)" fill="#e2796a"/>
                <path id="Trazado_884020" data-name="Trazado 884020" d="M340.33,10.8a2.392,2.392,0,0,0,1.837-.728,8.628,8.628,0,0,0,1.008-1.518c.849-1.614,3.834-2.718,3.834-2.718s-1.67-2.952-6.632-3.355A120.966,120.966,0,0,1,327.648.963c-2.137-.51-7.634-1.029-10.491.311s-6.824,3.963-6.341,6.066,1.387,3.49,5.956,3.519,13.039-.105,15.714.415,4.119,1.83,4.931,1.579,1.362-.691,1.383-1.509c.012-.46.823-.554,1.529-.548" transform="translate(-259.782 -0.354)" fill="#f4ece3"/>
                <path id="Trazado_884021" data-name="Trazado 884021" d="M355.2,8.55c.848-1.614,3.834-2.717,3.834-2.717s-1.67-2.952-6.632-3.355A120.964,120.964,0,0,1,339.673.963c-2.137-.51-7.634-1.029-10.491.311A22.085,22.085,0,0,0,325.161,3.7h0a15.947,15.947,0,0,1,8.326-1.624c4.428.479,5.347,1.321,10.581,1.64s8.493-1,9.523.727-3.605,4.245-3.605,4.245l1.615,2.155a4.988,4.988,0,0,1,.754-.045,2.392,2.392,0,0,0,1.837-.728A8.616,8.616,0,0,0,355.2,8.55" transform="translate(-271.806 -0.354)" fill="#e8e1da"/>
                <path id="Trazado_884022" data-name="Trazado 884022" d="M337.718,32.262c-3.888-.374-11.675.331-15.029-.393s-8.9-3.6-11.727-1.22a1.909,1.909,0,0,0-.144,1.182,4.556,4.556,0,0,0,.925,2.064,3.584,3.584,0,0,0,1.685,1.036,11.336,11.336,0,0,0,3.346.419c4.569.028,13.039-.105,15.714.415s4.118,1.83,4.931,1.579,1.362-.691,1.383-1.509c.012-.46.823-.554,1.529-.548a2.392,2.392,0,0,0,1.837-.728s-.563-1.923-4.451-2.3" transform="translate(-259.784 -24.845)" fill="#e2d9d0"/>
                <path id="Trazado_884023" data-name="Trazado 884023" d="M344.1,41.034c-3.338.185-9.4-1.427-10.312-1.542s-2.594.659-1.552,1.927,9.648,1.1,14.232.95,9.744,2.163,9.744,2.163l.133.022a1.488,1.488,0,0,0,.119-.561c.008-.313.389-.455.854-.512-2.613-1.124-10.306-2.608-13.218-2.447" transform="translate(-277.447 -33.002)" fill="#e8e1da"/>
                <path id="Trazado_884024" data-name="Trazado 884024" d="M344.847,41.034c-3.338.185-9.4-1.427-10.312-1.542a2.008,2.008,0,0,0-1.736.7,1.665,1.665,0,0,0,.207.321c1.042,1.267,9.648,1.1,14.232.95s9.744,2.163,9.744,2.163l.132.022a1.474,1.474,0,0,0,.11-.481c-3.144-1.066-9.733-2.277-12.378-2.13" transform="translate(-278.192 -33.002)" fill="#d3c7bc"/>
                <path id="Trazado_884025" data-name="Trazado 884025" d="M346.935,16.021c-1.5.544,1.156,1.951,3.671,2.472a48.789,48.789,0,0,0,8.885.58c2.483-.026,8.109.659,8.653.45s1.931-1.9.058-2.222-8.216.512-10.6.086-8.558-2.129-10.666-1.366" transform="translate(-289.643 -13.23)" fill="#f9f5f2"/>
                <g id="Grupo_1103532" data-name="Grupo 1103532" transform="translate(51.83 0.55)" opacity="0.5">
                  <g id="Grupo_1103531" data-name="Grupo 1103531">
                    <g id="Grupo_1103530" data-name="Grupo 1103530" clip-path="url(#clip-path-4)">
                      <path id="Trazado_884026" data-name="Trazado 884026" d="M332.461,3.359l8.257,1.093a.055.055,0,0,1,.029.1c-1.091.843-10.492,8.4-17.883,24.058a.139.139,0,0,1-.24.023c-.469-.681-2.257-2.874-6.508-4.071a.33.33,0,0,1-.225-.433c.842-2.233,6-14.951,16.119-20.681a.726.726,0,0,1,.452-.087" transform="translate(-315.869 -3.352)" fill="#f9f5f2"/>
                    </g>
                  </g>
                </g>
                <g id="Grupo_1103535" data-name="Grupo 1103535" transform="translate(53.358)" opacity="0.5">
                  <g id="Grupo_1103534" data-name="Grupo 1103534">
                    <g id="Grupo_1103533" data-name="Grupo 1103533" clip-path="url(#clip-path-5)">
                      <path id="Trazado_884027" data-name="Trazado 884027" d="M331.559,26.879c.931-2.968,6.676-20.683,12.688-25.444a.084.084,0,0,0-.027-.148c-.908-.264-5.53-1.546-8.546-1.242a.478.478,0,0,0-.328.183c-1.159,1.476-9.858,12.841-10.161,21.8a.217.217,0,0,0,.115.2c.688.368,4.188,2.316,5.888,4.712a.21.21,0,0,0,.372-.061" transform="translate(-325.184 0.001)" fill="#f9f5f2"/>
                    </g>
                  </g>
                </g>
              </g>
            </g>
          </g>
        </g>
      </g>
    </g>
  </g>
</svg>
