<svg xmlns="http://www.w3.org/2000/svg" xmlns:xlink="http://www.w3.org/1999/xlink" width="138" height="138" viewBox="0 0 138 138">
  <defs>
    <filter id="Elipse_11581" x="0" y="0" width="138" height="138" filterUnits="userSpaceOnUse">
      <feOffset dy="3" input="SourceAlpha"/>
      <feGaussianBlur stdDeviation="3" result="blur"/>
      <feFlood flood-opacity="0.161"/>
      <feComposite operator="in" in2="blur"/>
      <feComposite in="SourceGraphic"/>
    </filter>
  </defs>
  <g id="banner-principal-decorativo-3" transform="translate(-778.333 -427)">
    <g transform="matrix(1, 0, 0, 1, 778.33, 427)" filter="url(#Elipse_11581)">
      <g id="Elipse_11581-2" data-name="Elipse 11581" transform="translate(19 16)" fill="#fff7e6" stroke="rgba(250,246,237,0.5)" stroke-width="10">
        <circle cx="50" cy="50" r="50" stroke="none"/>
        <circle cx="50" cy="50" r="55" fill="none"/>
      </g>
    </g>
    <g id="Grupo_1100449" data-name="Grupo 1100449" transform="translate(818.077 464.788)">
      <path id="Trazado_875092" data-name="Trazado 875092" d="M122.115,25.242c9.027-15.635-7.573-26.025-16.768-16.83-9.2-9.2-25.8,1.195-16.768,16.83,4.154,7.2,12.534,13.793,16.768,14.928C109.581,39.035,117.96,32.438,122.115,25.242Z" transform="translate(-76.174 -4.959)" fill="#ffbebc" fill-rule="evenodd"/>
      <g id="Grupo_1100407" data-name="Grupo 1100407" transform="translate(0 8.221)">
        <path id="Trazado_875093" data-name="Trazado 875093" d="M58.2,339.628a3.769,3.769,0,0,0-4.733-2.444c-.018,0-10.8,2.61-10.823,2.613a3.525,3.525,0,0,0-3.733-2.856c-1.191.108-8.688.963-9.932,1.078a22.454,22.454,0,0,1-4.837-.42c-3.162-.475-6.745-1.014-10.34-.2-4.265.961-7.525,3.6-9.966,8.079l-3.4,6a3.389,3.389,0,0,0,0,3.351,2.964,2.964,0,0,0,2.575,1.48H14.923c2.934.115,3.3-1.424,4.667-3.5l6.8.324c5.022.24,6.625-.015,11.433-1.818,3.721-1.4,8.371-3.3,12.107-4.828,2.675-1.095,4.986-2.041,5.853-2.344a3.657,3.657,0,0,0,2.422-4.508Zm-3.181,2.358c-4.536,1.715-12.9,5.314-18,7.187-4.527,1.7-5.806,1.9-10.525,1.676l-7.462-.356a1.139,1.139,0,0,0-1.019.531l-1.345,2.137a2.24,2.24,0,0,1-.585.736,3.386,3.386,0,0,1-1.163.124H3.017c-.765-.04-.893-.884-.585-1.436.009-.016,3.4-6,3.4-6.012,4.61-8.267,11.009-7.789,17.971-6.72,4.424.763,5.411.441,10.37-.1,2.134-.236,4.341-.481,4.947-.537a1.246,1.246,0,0,1,1.306,1.165c.02.227.072.832-1.445,1.489A57.624,57.624,0,0,1,29.813,345a1.14,1.14,0,1,0,.521,2.219,59.987,59.987,0,0,0,9.556-3.262,5.119,5.119,0,0,0,2.264-1.694l11.82-2.854c1.055-.232,1.816.088,2.04.857a1.392,1.392,0,0,1-.992,1.722Z" transform="translate(0 -307.311)" fill="#020288"/>
        <path id="Trazado_875094" data-name="Trazado 875094" d="M51.337,87.623H66.644a1.14,1.14,0,0,0,1.049-.694l2.457-5.777,5.962,14.021a1.14,1.14,0,0,0,2.1,0l3.21-7.55H95.973a1.14,1.14,0,0,0,0-2.279H80.666a1.14,1.14,0,0,0-1.049.694L77.16,91.815,71.2,77.794a1.14,1.14,0,0,0-2.1,0l-3.21,7.55H51.337a1.14,1.14,0,0,0,0,2.279Z" transform="translate(-44.483 -77.1)" fill="#020288"/>
      </g>
    </g>
  </g>
</svg>
