<svg xmlns="http://www.w3.org/2000/svg" xmlns:xlink="http://www.w3.org/1999/xlink" width="521" height="279.184" viewBox="0 0 521 279.184">
  <defs>
    <clipPath id="clip-path">
      <rect id="Rectángulo_402151" data-name="Rectángulo 402151" width="521" height="279.184" transform="translate(855.414 974.788)" fill="#d2e1f1" stroke="#707070" stroke-width="1"/>
    </clipPath>
    <clipPath id="clip-path-2">
      <rect id="Rectángulo_402440" data-name="Rectángulo 402440" width="142.885" height="142.885" fill="none"/>
    </clipPath>
    <clipPath id="clip-path-3">
      <rect id="Rectángulo_402442" data-name="Rectángulo 402442" width="16.097" height="16.097" fill="none"/>
    </clipPath>
    <clipPath id="clip-path-4">
      <rect id="Rectángulo_404487" data-name="Rectángulo 404487" width="240.015" height="240.015" fill="none"/>
    </clipPath>
    <clipPath id="clip-path-6">
      <rect id="Rectángulo_404482" data-name="Rectángulo 404482" width="75.634" height="232.936" fill="none"/>
    </clipPath>
    <clipPath id="clip-path-7">
      <rect id="Rectángulo_404483" data-name="Rectángulo 404483" width="55.802" height="117.536" fill="none"/>
    </clipPath>
    <clipPath id="clip-path-8">
      <rect id="Rectángulo_404484" data-name="Rectángulo 404484" width="35.965" height="78.364" fill="none"/>
    </clipPath>
    <clipPath id="clip-path-9">
      <rect id="Rectángulo_404485" data-name="Rectángulo 404485" width="21.687" height="49.896" fill="none"/>
    </clipPath>
  </defs>
  <g id="_14" data-name="14" transform="translate(-855.414 -974.788)">
    <path id="Trazado_884941" data-name="Trazado 884941" d="M0,0H521V279.184H0Z" transform="translate(855.414 974.788)" fill="#fff"/>
    <g id="Enmascarar_grupo_1099693" data-name="Enmascarar grupo 1099693" clip-path="url(#clip-path)">
      <g id="Elipse_11618" data-name="Elipse 11618" transform="translate(1340.633 1213.788)" fill="none" stroke="#d7f38d" stroke-width="10">
        <circle cx="31.5" cy="31.5" r="31.5" stroke="none"/>
        <circle cx="31.5" cy="31.5" r="26.5" fill="none"/>
      </g>
      <circle id="Elipse_11635" data-name="Elipse 11635" cx="94.5" cy="94.5" r="94.5" transform="translate(1312.633 930.472)" fill="#d7f38d"/>
      <g id="Trazado_884972" data-name="Trazado 884972" transform="translate(826.633 1184.972)" fill="none">
        <path d="M33,0C51.225,0,66,14.551,66,32.5S51.225,65,33,65,0,50.449,0,32.5,14.775,0,33,0Z" stroke="none"/>
        <path d="M 33 14 C 22.52336502075195 14 14 22.29906845092773 14 32.5 C 14 42.70093154907227 22.52336502075195 51 33 51 C 43.47663879394531 51 52 42.70093154907227 52 32.5 C 52 22.29906845092773 43.47663879394531 14 33 14 M 33 0 C 51.22538757324219 0 66 14.55075073242188 66 32.5 C 66 50.44924926757812 51.22538757324219 65 33 65 C 14.77461242675781 65 0 50.44924926757812 0 32.5 C 0 14.55075073242188 14.77461242675781 0 33 0 Z" stroke="none" fill="#3e8ff2"/>
      </g>
      <g id="Grupo_1101113" data-name="Grupo 1101113" transform="translate(1294.747 1159.788)">
        <g id="Grupo_1101112" data-name="Grupo 1101112" clip-path="url(#clip-path-2)">
          <path id="Trazado_875944" data-name="Trazado 875944" d="M138.375,138.375h0a13.606,13.606,0,0,1-19.243,0L4.485,23.729A13.608,13.608,0,0,1,23.729,4.485L138.375,119.132A13.606,13.606,0,0,1,138.375,138.375Z" transform="translate(0.012 0.012)" fill="none" stroke="#fff" stroke-miterlimit="10" stroke-width="1"/>
        </g>
      </g>
      <g id="Grupo_1101117" data-name="Grupo 1101117" transform="translate(1340.633 1092.862)">
        <g id="Grupo_1101116" data-name="Grupo 1101116" clip-path="url(#clip-path-3)">
          <circle id="Elipse_11620" data-name="Elipse 11620" cx="7.207" cy="7.207" r="7.207" transform="translate(0.841 0.842)" fill="none" stroke="#fff" stroke-miterlimit="10" stroke-width="1"/>
        </g>
      </g>
    </g>
    <g id="Grupo_1103986" data-name="Grupo 1103986" transform="translate(1007.038 991.372)">
      <g id="Grupo_1104002" data-name="Grupo 1104002" clip-path="url(#clip-path-4)">
        <g id="Grupo_1104001" data-name="Grupo 1104001">
          <g id="Grupo_1104000" data-name="Grupo 1104000" clip-path="url(#clip-path-4)">
            <path id="Trazado_884942" data-name="Trazado 884942" d="M241.175,122.159A119.016,119.016,0,1,1,122.159,3.143,119.016,119.016,0,0,1,241.175,122.159" transform="translate(-2.151 -2.151)" fill="#f1f3fc"/>
            <path id="Trazado_884943" data-name="Trazado 884943" d="M230.768,10.763A985.559,985.559,0,0,0,228.2,232.552,119.487,119.487,0,0,0,304.79,236.8l11.695-59.013A308.706,308.706,0,0,0,301.694,6.7a119.514,119.514,0,0,0-70.925,4.065" transform="translate(-152.73 -2.151)" fill="#c1c8f8"/>
            <path id="Trazado_884944" data-name="Trazado 884944" d="M227.779,27.04q-.5,3.694-.986,7.391c-1.984,15.246-3.446,30.558-4.64,45.888l-.824,11.5c-.231,3.838-.415,7.678-.625,11.518-.1,1.92-.217,3.839-.292,5.76l-.213,5.763-.213,5.764c-.072,1.922-.15,3.843-.177,5.765l-.223,11.534c-.049,1.922-.042,3.845-.048,5.768l-.014,5.768-.013,5.768c0,1.923.047,3.845.069,5.768l.17,11.535c.256,7.687.445,15.376.87,23.056.322,7.684.865,15.357,1.367,23.031.293,3.834.631,7.665.944,11.5.164,1.915.309,3.833.488,5.747l.571,5.739.571,5.739q.044.433.086.866c.709.294,1.42.586,2.136.868q-1.479-15.29-2.547-30.614-1.525-22.969-2.107-45.985l-.2-11.507c-.026-1.918-.073-3.836-.082-5.754V143.709c0-1.918-.01-3.836.033-5.754l.174-11.508c.014-1.918.077-3.835.135-5.753l.171-5.752.171-5.753c.061-1.918.168-3.833.25-5.75l.532-11.5L224,80.449c.2-3.833.528-7.656.81-11.484l.435-5.74c.134-1.914.3-3.826.479-5.737l1.028-11.469c.372-3.82.8-7.634,1.194-11.453l.6-5.728.26-2.186c-.342.127-.681.258-1.022.389" transform="translate(-150.234 -18.241)" fill="#c1c8f8"/>
            <path id="Trazado_884945" data-name="Trazado 884945" d="M351.952,66.928c1.351,16.7,2.038,33.455,2.428,50.207.084,4.189.2,8.377.227,12.567l.107,12.569c-.019,8.38-.054,16.76-.2,25.139l-.118,6.284-.177,6.283c-.13,4.188-.231,8.377-.385,12.564l-.569,12.558c-.1,2.092-.171,4.186-.3,6.277l-.389,6.273-.389,6.273c-.139,2.09-.238,4.183-.417,6.271l-1,12.529c-.181,2.087-.339,4.175-.54,6.261l-.628,6.253-.647,6.25-.677,6.246c.865-16.735,1.858-33.444,2.447-50.174.364-8.361.587-16.727.863-25.091l.313-12.548.149-6.274.092-6.276c.337-16.733.426-33.47.4-50.21s-.211-33.48-.578-50.231" transform="translate(-238.356 -45.806)" fill="#a9a4e1"/>
            <path id="Trazado_884946" data-name="Trazado 884946" d="M402.847,554.2l-2.555,19.163-.7,5.54c.8-.04,1.591-.094,2.384-.151l.677-5.083,2.425-19.18c.766-6.4,1.572-12.792,2.293-19.2,1.487-12.8,2.891-25.617,4.063-38.462-2.149,12.718-4.064,25.465-5.9,38.224-.939,6.376-1.793,12.764-2.687,19.146" transform="translate(-273.481 -340.034)" fill="#a9a4e1"/>
            <path id="Trazado_884947" data-name="Trazado 884947" d="M289.618,596.421l-.354-10.383c-.161-3.46-.281-6.921-.487-10.379-.367-6.918-.817-13.834-1.5-20.743-.3,6.937-.365,13.867-.348,20.795-.014,3.465.058,6.927.09,10.39l.223,10.387q.253,9.456.745,18.906c.645.158,1.291.315,1.941.463q-.042-9.72-.309-19.434" transform="translate(-196.373 -379.787)" fill="#a9a4e1"/>
            <path id="Trazado_884948" data-name="Trazado 884948" d="M407.436,11.133l1.451,6.789c.483,2.262.97,4.524,1.406,6.8s.948,4.528,1.375,6.8l1.293,6.815c.435,2.271.822,4.55,1.236,6.824.2,1.138.415,2.274.6,3.415L415.346,52l.566,3.421c.192,1.14.381,2.28.53,3.426q.469,3.434.989,6.863c1.192,9.168,2.14,18.361,2.627,27.635a190.866,190.866,0,0,0-.782-27.848q-.365-3.467-.767-6.931c-.122-1.157-.283-2.307-.449-3.457l-.485-3.452-.505-3.45c-.18-1.148-.387-2.291-.579-3.436-.4-2.289-.765-4.584-1.19-6.868l-1.354-6.836c-.217-1.141-.472-2.274-.713-3.41l-.742-3.4c-.493-2.269-1.036-4.527-1.575-6.785l-.81-3.387-.87-3.372q-.836-3.289-1.74-6.561c-.542-.044-1.085-.08-1.628-.117q.791,3.552,1.568,7.106" transform="translate(-277.778 -2.756)" fill="#a9a4e1"/>
            <path id="Trazado_884949" data-name="Trazado 884949" d="M277.5,13.35q-.993,9.095-1.8,18.208c-.558,6.1-1.017,12.207-1.476,18.314-.242,3.053-.408,6.111-.61,9.166s-.39,6.112-.556,9.171l-.46,9.176-.39,9.18c-.127,3.06-.19,6.123-.287,9.184s-.183,6.123-.209,9.186l-.117,9.187.016,9.189.038,4.593q.031,2.3.1,4.594l.12,4.593.15,4.591c.547-12.241.97-24.467,1.554-36.689l.436-9.165c.152-3.055.272-6.11.454-9.164l.462-9.163.512-9.161c.148-3.055.321-6.108.5-9.162l.533-9.16L277.552,31.7l1.12-18.632c-.391.092-.78.19-1.169.285" transform="translate(-185.886 -8.942)" fill="#a9a4e1"/>
            <path id="Trazado_884950" data-name="Trazado 884950" d="M321.06,331.895q.231,9.618.235,19.234c.017,3.205-.009,6.41-.014,9.615l-.081,9.614-.145,9.614c-.071,3.2-.119,6.409-.212,9.613q-.23,9.613-.691,19.223-.233-9.618-.237-19.234c-.018-3.205.01-6.41.015-9.615l.082-9.614.147-9.614c.07-3.2.12-6.409.213-9.613q.231-9.613.69-19.223" transform="translate(-218.947 -227.151)" fill="#a9a4e1"/>
            <path id="Trazado_884951" data-name="Trazado 884951" d="M327.941,6.24l-.145,4.695-.234,9.653c-.055,3.218-.133,6.436-.166,9.655q-.149,9.655-.066,19.316.612-9.643.994-19.291c.143-3.216.242-6.433.364-9.649l.3-9.651.117-4.884c-.388.049-.774.1-1.161.156" transform="translate(-224.007 -4.164)" fill="#a9a4e1"/>
            <path id="Trazado_884952" data-name="Trazado 884952" d="M402.814,246.2c.862,5.533,1.5,11.1,1.989,16.679.25,2.789.447,5.583.625,8.378.1,1.4.159,2.8.225,4.195s.143,2.8.182,4.2q.3,8.4.085,16.806c-.134,5.6-.542,11.2-1.169,16.76.033-2.8.207-5.591.187-8.39.012-1.4.063-2.793.051-4.19l0-4.191c.006-.7-.005-1.4-.019-2.095l-.023-2.095c-.013-1.4-.024-2.792-.07-4.189l-.089-4.188-.143-4.187c-.03-1.4-.1-2.791-.155-4.187s-.118-2.791-.186-4.186c-.113-2.792-.285-5.581-.426-8.372l-.507-8.371c-.151-2.793-.373-5.581-.559-8.375" transform="translate(-275.688 -168.5)" fill="#a9a4e1"/>
            <path id="Trazado_884953" data-name="Trazado 884953" d="M463.052,444.581c.5-3.371,1.015-6.736,1.459-10.113l.689-5.059.66-5.062.625-5.066.59-5.069c.2-1.689.375-3.381.563-5.072l.276-2.536.244-2.54c.706-6.767,1.237-13.549,1.7-20.337l.322-5.093.249-5.1.138-2.55.084-2.552q.071-2.552.182-5.107c.226,6.81.269,13.637-.048,20.45-.044,1.705-.148,3.407-.25,5.108s-.181,3.406-.318,5.106l-.406,5.1c-.139,1.7-.316,3.4-.474,5.093l-.258,2.544-.29,2.541c-.2,1.692-.368,3.39-.6,5.079l-.674,5.069-.74,5.06c-1.029,6.74-2.243,13.453-3.723,20.106" transform="translate(-316.915 -248.663)" fill="#a9a4e1"/>
            <g id="Grupo_1103990" data-name="Grupo 1103990" transform="translate(94.003 2.785)" opacity="0.2">
              <g id="Grupo_1103989" data-name="Grupo 1103989">
                <g id="Grupo_1103988" data-name="Grupo 1103988" clip-path="url(#clip-path-6)">
                  <path id="Trazado_884954" data-name="Trazado 884954" d="M319.73,70.272a79.327,79.327,0,0,0,2.594,111.993,97.159,97.159,0,0,1,29.465,59.494q2.078-.5,4.127-1.069l10.551-53.242.8-4.043.342-1.728v-.006q.352-1.775.681-3.552c.071-.382.138-.765.208-1.148q.221-1.215.435-2.431c.077-.444.151-.888.226-1.331q.192-1.131.376-2.263.111-.688.218-1.376.177-1.129.347-2.259.1-.667.2-1.335.172-1.182.333-2.364c.056-.4.112-.81.166-1.215q.176-1.326.34-2.654c.038-.305.078-.611.115-.916q.668-5.516,1.138-11.042c.012-.145.023-.291.035-.436q.135-1.621.254-3.242c.015-.2.028-.4.042-.6q.111-1.566.207-3.133l.034-.572q.1-1.631.175-3.261c.006-.129.013-.258.019-.388a308.84,308.84,0,0,0-5.671-75.071h.007a308.622,308.622,0,0,0-14.688-50.5q-4.082-1.02-8.271-1.758a90.035,90.035,0,0,1-24.8,61.449" transform="translate(-297.859 -8.823)" fill="#ff1d25"/>
                </g>
              </g>
            </g>
            <g id="Grupo_1103993" data-name="Grupo 1103993" transform="translate(113.838 60.062)" opacity="0.2">
              <g id="Grupo_1103992" data-name="Grupo 1103992">
                <g id="Grupo_1103991" data-name="Grupo 1103991" clip-path="url(#clip-path-7)">
                  <path id="Trazado_884955" data-name="Trazado 884955" d="M360.711,249.181a59.521,59.521,0,0,0,49.527,58.67l.388-1.959a308.67,308.67,0,0,0,.843-115.577,59.52,59.52,0,0,0-50.758,58.866" transform="translate(-360.711 -190.315)" fill="#ff1d25"/>
                </g>
              </g>
            </g>
            <g id="Grupo_1103996" data-name="Grupo 1103996" transform="translate(133.675 79.681)" opacity="0.2">
              <g id="Grupo_1103995" data-name="Grupo 1103995">
                <g id="Grupo_1103994" data-name="Grupo 1103994" clip-path="url(#clip-path-8)">
                  <path id="Trazado_884956" data-name="Trazado 884956" d="M423.564,291.726A39.681,39.681,0,0,0,456.6,330.842a308.659,308.659,0,0,0,.827-78.364,39.679,39.679,0,0,0-33.864,39.248" transform="translate(-423.564 -252.478)" fill="#ff1d25"/>
                </g>
              </g>
            </g>
            <g id="Grupo_1103999" data-name="Grupo 1103999" transform="translate(147.951 93.933)" opacity="0.2">
              <g id="Grupo_1103998" data-name="Grupo 1103998">
                <g id="Grupo_1103997" data-name="Grupo 1103997" clip-path="url(#clip-path-9)">
                  <path id="Trazado_884957" data-name="Trazado 884957" d="M468.8,322.635a25.4,25.4,0,0,0,20.4,24.9,308.591,308.591,0,0,0,.527-49.9A25.4,25.4,0,0,0,468.8,322.635" transform="translate(-468.801 -297.64)" fill="#ff1d25"/>
                </g>
              </g>
            </g>
            <path id="Trazado_884958" data-name="Trazado 884958" d="M473.4,23.365l1.666,5.058.834,2.528c.137.422.283.841.412,1.265l.364,1.28,2.91,10.24c.259.848.437,1.719.651,2.58l.624,2.587,1.253,5.171.626,2.585c.2.863.353,1.738.531,2.606l1.035,5.218,1.031,5.217.816,5.256.828,5.253c.128.877.3,1.747.391,2.629l.305,2.641.61,5.282.305,2.641c.1.88.213,1.759.263,2.645l.779,10.6a324.268,324.268,0,0,1-.463,42.483c-.323,3.528-.611,7.06-.962,10.586l-1.389,10.539c-.2,1.762-.535,3.5-.837,5.248l-.916,5.236c-.315,1.745-.588,3.491-.938,5.236l-1.02,5.237c-2.7,13.968-5.444,27.929-8.1,41.906q-1.088,5.654-2.159,11.312c.61-.165,1.221-.33,1.827-.5q1.074-5.223,2.147-10.447c2.873-13.934,5.663-27.885,8.491-41.829l1.054-5.23c.354-1.742.636-3.511.958-5.265l.937-5.272c.309-1.758.651-3.511.857-5.285l1.426-10.615c.362-3.551.663-7.11,1-10.664a321.581,321.581,0,0,0,.341-42.8l-.869-10.673c-.057-.891-.175-1.776-.285-2.661l-.328-2.657-.656-5.313-.328-2.656c-.1-.887-.279-1.762-.415-2.644l-.88-5.28-.891-5.277-1.1-5.237-1.11-5.234c-.191-.871-.356-1.747-.569-2.613l-.664-2.592-1.327-5.182-.666-2.59c-.231-.861-.425-1.732-.7-2.58l-3.11-10.234-.388-1.279c-.138-.424-.292-.842-.437-1.263l-.883-2.523-1.77-5.044C473.5,20,472.3,17.1,471.131,14.192c-.363-.092-.728-.178-1.093-.266,1.166,3.131,2.379,6.243,3.358,9.439" transform="translate(-321.697 -9.531)" fill="#c1c8f8"/>
            <path id="Trazado_884959" data-name="Trazado 884959" d="M120.008,240.015A120.007,120.007,0,0,1,35.15,35.149,120.007,120.007,0,1,1,204.866,204.865a119.221,119.221,0,0,1-84.858,35.15m0-238.032A118.024,118.024,0,1,0,238.032,120.007,118.157,118.157,0,0,0,120.008,1.984" transform="translate(0 0)" fill="#f1f3fc"/>
            <path id="Trazado_884960" data-name="Trazado 884960" d="M484.592,241.56a52.657,52.657,0,0,0-.618-8.931.217.217,0,0,0-.429.008l-.04.325a.216.216,0,0,1-.424.029l-.87-3.3a.217.217,0,0,0-.426.042l-.172,2.782a.217.217,0,0,1-.415.073l-.619-1.433a.217.217,0,0,0-.415.09l.062,3.517a.217.217,0,0,1-.413.1l-.626-1.345a.217.217,0,0,0-.412.114c.265,2.37.779,7.487.837,12.026a.216.216,0,0,0,.427.045l.365-1.58a.217.217,0,0,1,.424.007l.632,3.224a.217.217,0,0,0,.429-.039l.055-4.589a.217.217,0,0,1,.429-.042l.733,3.488a.217.217,0,0,0,.427-.022l.144-1.408a.216.216,0,0,1,.428-.021.217.217,0,0,0,.429-.038Z" transform="translate(-327.676 -157.095)" fill="#f1f3fc"/>
            <path id="Trazado_884961" data-name="Trazado 884961" d="M476.006,448.165a52.672,52.672,0,0,0,.471-8.94.217.217,0,0,0-.427-.044l-.079.318a.217.217,0,0,1-.425-.023l-.463-3.377a.217.217,0,0,0-.428-.01l-.508,2.74a.217.217,0,0,1-.421.022l-.441-1.5a.217.217,0,0,0-.423.039l-.365,3.5a.217.217,0,0,1-.421.044l-.458-1.411a.217.217,0,0,0-.423.064c-.024,2.384-.135,7.526-.629,12.039a.216.216,0,0,0,.418.1l.553-1.524a.217.217,0,0,1,.42.058l.236,3.277a.216.216,0,0,0,.43.013l.612-4.549a.217.217,0,0,1,.43.01l.3,3.551a.217.217,0,0,0,.427.03l.314-1.38a.217.217,0,0,1,.427.032.217.217,0,0,0,.43.014Z" transform="translate(-322.057 -298.341)" fill="#f1f3fc"/>
            <path id="Trazado_884962" data-name="Trazado 884962" d="M431.645,341.754a52.649,52.649,0,0,0-.173-8.951.217.217,0,0,0-.429-.013l-.055.323a.217.217,0,0,1-.426.008l-.7-3.335a.217.217,0,0,0-.427.021l-.31,2.77a.216.216,0,0,1-.418.052l-.547-1.461a.217.217,0,0,0-.42.069l-.112,3.516a.217.217,0,0,1-.417.074l-.559-1.374a.216.216,0,0,0-.417.094c.147,2.38.406,7.516.238,12.053a.216.216,0,0,0,.424.066l.443-1.559a.217.217,0,0,1,.423.028l.471,3.251a.217.217,0,0,0,.43-.018l.284-4.581a.216.216,0,0,1,.43-.021l.559,3.52a.216.216,0,0,0,.428,0l.214-1.4a.217.217,0,0,1,.428,0,.217.217,0,0,0,.431-.017Z" transform="translate(-291.714 -225.59)" fill="#f1f3fc"/>
            <path id="Trazado_884963" data-name="Trazado 884963" d="M377.557,499.716a32.531,32.531,0,0,0-.107-5.523.134.134,0,0,0-.264-.008l-.034.2a.134.134,0,0,1-.263.005l-.435-2.058a.134.134,0,0,0-.263.013L376,494.053a.134.134,0,0,1-.258.032l-.338-.9a.134.134,0,0,0-.259.043l-.07,2.169a.133.133,0,0,1-.257.046l-.345-.848a.134.134,0,0,0-.257.058c.091,1.469.251,4.638.147,7.437a.133.133,0,0,0,.262.041l.273-.962a.134.134,0,0,1,.261.017l.291,2.006a.134.134,0,0,0,.266-.011l.175-2.827a.134.134,0,0,1,.265-.013l.345,2.172a.134.134,0,0,0,.264,0l.132-.863a.134.134,0,0,1,.264,0,.134.134,0,0,0,.266-.011Z" transform="translate(-256.115 -336.882)" fill="#f1f3fc"/>
            <path id="Trazado_884964" data-name="Trazado 884964" d="M411.622,208.238a32.5,32.5,0,0,0-.107-5.523.134.134,0,0,0-.264-.008l-.034.2a.134.134,0,0,1-.263,0l-.435-2.058a.134.134,0,0,0-.263.013l-.191,1.709a.134.134,0,0,1-.258.032l-.338-.9a.134.134,0,0,0-.259.043l-.069,2.169a.134.134,0,0,1-.257.046l-.345-.848a.134.134,0,0,0-.257.058c.091,1.468.251,4.638.147,7.437a.133.133,0,0,0,.262.041l.273-.962a.134.134,0,0,1,.261.017l.291,2.006a.134.134,0,0,0,.265-.011l.175-2.827a.134.134,0,0,1,.265-.013l.345,2.172a.134.134,0,0,0,.264,0l.132-.863a.134.134,0,0,1,.264,0,.134.134,0,0,0,.266-.01Z" transform="translate(-279.43 -137.393)" fill="#f1f3fc"/>
            <path id="Trazado_884965" data-name="Trazado 884965" d="M484.349,241.034a43.6,43.6,0,0,0-.568-7.495l-.153-.926-.081-.462c-.01-.039,0,0,0-.008h0c.022-.083-.013.159-.026.3a.451.451,0,0,1-.707.339.543.543,0,0,1-.2-.336l-.063-.227-.126-.454c-.173-.6-.327-1.213-.483-1.821l-.117-.456-.059-.228c-.019-.058.006,0,.016-.007s.006,0,.019-.006.013-.071.006.048l-.033.47-.153,1.878-.019.235-.009.117a.436.436,0,0,1-.061.2.4.4,0,0,1-.71-.048l-.356-.875-.177-.436c-.075-.189-.07-.193-.147-.186a.076.076,0,0,0-.058.056c0,.032,0,.144,0,.212l0,.471.014,1.884.008.942a.314.314,0,0,1-.128.28.31.31,0,0,1-.312.026.411.411,0,0,1-.179-.225l-.1-.213-.4-.851-.1-.206a.109.109,0,0,0-.106-.059.124.124,0,0,0-.1.065.134.134,0,0,0-.009.063l.013.115.428,3.747c.272,2.5.481,5.01.553,7.53l.012.472,0,.118,0,.054s0,0,0-.01a.076.076,0,0,0-.048-.049.064.064,0,0,0-.06.026c-.007,0-.016.041-.005,0l.026-.115.1-.46.2-.92a.566.566,0,0,1,.234-.382.518.518,0,0,1,.522-.02.507.507,0,0,1,.2.2.649.649,0,0,1,.065.2l.047.23.365,1.849.178.925.022.116.011.058s0,0,0-.013a.1.1,0,0,0-.076-.051.084.084,0,0,0-.069.046.11.11,0,0,0-.009.025l0-.118c.024-1.256.026-2.512.068-3.768l.014-.471.008-.247a.468.468,0,0,1,.284-.4.478.478,0,0,1,.477.06.538.538,0,0,1,.184.357l.088.463.339,1.854c.114.521.209,1.63.358.966l.122-.935.031-.233a.448.448,0,0,1,.095-.274.3.3,0,0,1,.517.141.147.147,0,0,0,.242.094c.08-.059.04-.256.057-.4l.028-.942Zm.057,0-.013,1.884-.007.942,0,.236a.331.331,0,0,1-.086.264.3.3,0,0,1-.287.067.292.292,0,0,1-.2-.222.132.132,0,0,0-.225-.053c-.029.028-.026.08-.034.169l-.017.235-.07.94a.705.705,0,0,1-.054.285.364.364,0,0,1-.643-.027,2.138,2.138,0,0,1-.071-.258l-.222-.916-.437-1.833-.105-.459c-.024-.112-.025-.075-.007-.06s.021.012.03.01.033-.036.033-.036v.224l0,.471c.011,1.256-.017,2.512-.023,3.768v.118a.531.531,0,0,1-.063.251.515.515,0,0,1-.911-.026.576.576,0,0,1-.041-.125l-.012-.058-.023-.116-.184-.924-.36-1.849-.044-.231c-.011-.056-.01-.045,0-.027a.084.084,0,0,0,.036.034.066.066,0,0,0,.072,0c.029,0,.048-.105.018.019l-.219.916-.109.458-.027.115a.563.563,0,0,1-.1.213.491.491,0,0,1-.479.181.483.483,0,0,1-.383-.342.505.505,0,0,1-.02-.125v-.064l0-.117-.005-.469c-.038-2.5-.165-5.009-.327-7.514-.091-1.252-.179-2.5-.316-3.752l-.012-.119a.335.335,0,0,1,.03-.167.319.319,0,0,1,.275-.173.3.3,0,0,1,.281.16l.1.22.392.857c.069.125.126.334.2.357a.132.132,0,0,0,.183-.147l-.025-.942-.052-1.884-.019-.471a2.521,2.521,0,0,1,0-.259.347.347,0,0,1,.238-.278.356.356,0,0,1,.361.081.936.936,0,0,1,.141.25l.2.428.392.854c.009.029.055.014.056,0l.017-.379.079-1.883.026-.47a.513.513,0,0,1,.155-.382.468.468,0,0,1,.46-.09.473.473,0,0,1,.3.341l.062.228.123.454c.165.606.331,1.212.479,1.822l.115.457c.027.126.106.389.066.3-.013-.006-.009,0-.013,0s-.018.044-.007-.008l.032-.234a.509.509,0,0,1,.169-.358.45.45,0,0,1,.444-.064.435.435,0,0,1,.267.352l.059.47.1.94c.122,1.255.205,2.512.242,3.77s.067,2.515.027,3.771" transform="translate(-327.462 -156.57)" fill="red"/>
            <path id="Trazado_884966" data-name="Trazado 884966" d="M475.385,447.636a43.52,43.52,0,0,0,.346-7.508l-.039-.938-.024-.469c-.006-.04,0,0,0-.008s-.01,0,0,0c.032-.079-.033.156-.062.294a.451.451,0,0,1-.743.251.544.544,0,0,1-.158-.358l-.035-.233-.07-.466c-.1-.62-.178-1.243-.258-1.866l-.061-.467-.031-.234c-.012-.06.006,0,.017-.005s.006,0,.019,0,.022-.069,0,.049l-.089.462-.38,1.846-.048.23-.024.115a.429.429,0,0,1-.084.189.4.4,0,0,1-.7-.133l-.247-.912-.123-.455c-.052-.2-.046-.2-.123-.2a.075.075,0,0,0-.064.049c-.008.031-.02.143-.029.211l-.059.467-.214,1.872-.106.936a.307.307,0,0,1-.474.251.412.412,0,0,1-.15-.245l-.074-.224-.3-.894-.074-.216a.109.109,0,0,0-.1-.072.124.124,0,0,0-.112.052.132.132,0,0,0-.016.061v.116l-.029,3.771c-.034,2.515-.13,5.031-.365,7.542l-.045.47-.011.118,0,.054s0,0,0-.01a.076.076,0,0,0-.042-.054.063.063,0,0,0-.062.019c-.007,0-.021.039-.005,0l.039-.111.157-.444.315-.888a.565.565,0,0,1,.279-.351.518.518,0,0,1,.52.044.5.5,0,0,1,.175.221.64.64,0,0,1,.041.2l.019.235.138,1.879.065.94.008.117,0,.059s0-.005,0-.013a.094.094,0,0,0-.069-.06.084.084,0,0,0-.074.037c-.009.014-.016.038-.012.023l.016-.116c.176-1.244.331-2.49.524-3.732l.071-.466.039-.244a.467.467,0,0,1,.33-.366.478.478,0,0,1,.466.117.54.54,0,0,1,.14.377l.031.47.111,1.882c.05.531.009,1.643.239,1l.234-.913.059-.228a.446.446,0,0,1,.127-.26.3.3,0,0,1,.5.2.147.147,0,0,0,.229.123c.086-.049.071-.25.106-.395l.142-.932Zm.057.008-.242,1.869-.121.934-.03.233a.331.331,0,0,1-.118.252.3.3,0,0,1-.293.031.293.293,0,0,1-.171-.245.132.132,0,0,0-.217-.079c-.032.024-.036.076-.054.164l-.046.231-.184.924a.7.7,0,0,1-.088.276.364.364,0,0,1-.635-.1,2.122,2.122,0,0,1-.039-.264l-.109-.936-.211-1.873-.049-.469c-.01-.114-.015-.078,0-.06s.019.015.028.014.037-.031.037-.031l-.026.222-.054.468c-.141,1.248-.321,2.492-.48,3.738l-.015.117a.537.537,0,0,1-.093.242.515.515,0,0,1-.9-.136.6.6,0,0,1-.026-.128l0-.059-.009-.117-.071-.94-.133-1.879-.015-.235c0-.056,0-.046,0-.026a.083.083,0,0,0,.032.038.067.067,0,0,0,.072,0c.028,0,.061-.1.016.021l-.329.883-.164.442-.041.11a.563.563,0,0,1-.121.2.491.491,0,0,1-.5.122.482.482,0,0,1-.339-.386.51.51,0,0,1,0-.127l.007-.063.013-.117.052-.466c.266-2.489.444-4.992.587-7.5.061-1.253.126-2.508.141-3.763l0-.12a.331.331,0,0,1,.05-.162.32.32,0,0,1,.294-.139.3.3,0,0,1,.26.194l.075.23.285.9c.053.132.084.346.15.377a.132.132,0,0,0,.2-.124l.09-.938.177-1.876.039-.47a2.484,2.484,0,0,1,.027-.257.349.349,0,0,1,.27-.247.358.358,0,0,1,.349.125.916.916,0,0,1,.11.266l.143.449.285.895c.005.03.053.02.056.007l.062-.374.307-1.859.083-.464a.512.512,0,0,1,.2-.36.467.467,0,0,1,.468-.033.473.473,0,0,1,.254.375l.033.234.067.466c.091.621.182,1.243.254,1.867l.058.467c.012.128.058.4.029.306-.012-.008-.009,0-.013,0s-.023.042-.006-.009l.06-.227a.51.51,0,0,1,.211-.336.45.45,0,0,1,.448-.009.436.436,0,0,1,.222.382l0,.474-.014.946c-.031,1.261-.1,2.518-.217,3.772s-.239,2.5-.43,3.746" transform="translate(-321.465 -297.816)" fill="red"/>
            <path id="Trazado_884967" data-name="Trazado 884967" d="M431.4,341.226a43.512,43.512,0,0,0-.195-7.514l-.107-.933-.058-.465c-.009-.04,0,0,0-.008s-.009,0,0,0c.026-.081-.021.158-.041.3a.451.451,0,0,1-.723.3.544.544,0,0,1-.184-.346l-.051-.23-.1-.459c-.143-.612-.267-1.228-.392-1.843l-.094-.461-.047-.231c-.016-.058.006,0,.016-.006s.006,0,.019-.006.016-.07,0,.048l-.055.468-.246,1.868-.031.234-.016.116a.429.429,0,0,1-.07.2.4.4,0,0,1-.706-.083l-.312-.892-.155-.445c-.066-.193-.06-.2-.137-.193a.074.074,0,0,0-.06.053c-.006.031-.009.144-.014.211l-.025.471-.079,1.883-.039.941a.307.307,0,0,1-.455.284.408.408,0,0,1-.167-.234l-.09-.218-.36-.87-.089-.21a.109.109,0,0,0-.1-.064.123.123,0,0,0-.108.06.139.139,0,0,0-.012.062l.007.115.241,3.764c.147,2.511.232,5.028.178,7.548l-.011.473,0,.118v.054s0,0,0-.01a.075.075,0,0,0-.046-.051.063.063,0,0,0-.061.023c-.007,0-.018.04-.005,0l.031-.114.125-.454.25-.908a.563.563,0,0,1,.253-.37.518.518,0,0,1,.522.006.5.5,0,0,1,.191.208.639.639,0,0,1,.056.2l.036.233.273,1.865.132.933.016.117.008.058c0-.005,0-.005,0-.013a.093.093,0,0,0-.073-.055.083.083,0,0,0-.071.042.1.1,0,0,0-.01.024l.008-.117c.086-1.253.151-2.507.255-3.759l.038-.47.021-.246a.468.468,0,0,1,.3-.389.478.478,0,0,1,.473.084.536.536,0,0,1,.166.365l.065.467.246,1.868c.088.526.128,1.639.31.983l.168-.927.042-.232a.444.444,0,0,1,.108-.269.3.3,0,0,1,.509.166.147.147,0,0,0,.237.106c.083-.055.052-.254.077-.4l.075-.939Zm.057,0-.107,1.881-.053.94-.014.235a.331.331,0,0,1-.1.26.3.3,0,0,1-.29.053.293.293,0,0,1-.188-.232.131.131,0,0,0-.222-.063c-.03.026-.031.078-.043.167l-.029.234-.116.935a.715.715,0,0,1-.068.282.364.364,0,0,1-.64-.059,2.179,2.179,0,0,1-.058-.261l-.176-.926-.345-1.853-.082-.464c-.019-.113-.021-.077,0-.06s.02.013.029.012.035-.034.035-.034l-.01.223-.021.471c-.051,1.255-.141,2.508-.21,3.762l-.007.118a.527.527,0,0,1-.075.248.515.515,0,0,1-.909-.071.583.583,0,0,1-.035-.126l-.009-.058-.017-.116-.138-.932-.268-1.865-.032-.233c-.008-.057-.007-.045,0-.027a.086.086,0,0,0,.035.036.067.067,0,0,0,.073,0c.028,0,.053-.1.017.02l-.264.9-.132.452-.033.113a.562.562,0,0,1-.106.208.492.492,0,0,1-.488.157.484.484,0,0,1-.365-.361.5.5,0,0,1-.013-.126l0-.064,0-.117.019-.469c.087-2.5.084-5.012.047-7.521-.029-1.255-.054-2.51-.129-3.763l-.006-.12a.333.333,0,0,1,.038-.165.32.32,0,0,1,.283-.159.3.3,0,0,1,.273.174l.092.225.349.875c.062.128.109.339.177.365a.131.131,0,0,0,.19-.138l.022-.942.042-1.884,0-.471a2.476,2.476,0,0,1,.009-.259.349.349,0,0,1,.252-.266.357.357,0,0,1,.357.1.935.935,0,0,1,.128.257l.175.437.349.873c.008.029.054.016.056,0l.035-.378.173-1.877.049-.469a.51.51,0,0,1,.174-.373.467.467,0,0,1,.465-.067.473.473,0,0,1,.28.356l.05.23.1.46c.135.613.271,1.227.388,1.844l.091.462c.021.127.087.395.051.3-.012-.007-.008,0-.013,0s-.02.043-.006-.008l.043-.232a.507.507,0,0,1,.187-.35.449.449,0,0,1,.446-.042.437.437,0,0,1,.249.365l.035.472.054.945c.06,1.259.08,2.519.054,3.777s-.058,2.515-.16,3.768" transform="translate(-291.499 -225.064)" fill="red"/>
            <path id="Trazado_884968" data-name="Trazado 884968" d="M377.254,499.188a23.825,23.825,0,0,0-.178-4.63l-.076-.573-.041-.286c-.008-.009.019.058.05.065a.082.082,0,0,0,.087-.007c.078-.125.016.044.015.128a.374.374,0,0,1-.6.249.434.434,0,0,1-.15-.271l-.032-.142-.063-.284c-.089-.378-.163-.758-.239-1.138l-.057-.285-.028-.142c-.012-.029.027.061.066.063a.1.1,0,0,0,.1-.017c.038-.014.047-.122.036-.032l-.036.288-.166,1.151-.021.144-.01.072a.348.348,0,0,1-.056.152.32.32,0,0,1-.56-.067l-.186-.554c-.054-.166-.154-.446-.11-.364,0,0,0-.007,0-.008l-.009.122-.02.29-.056,1.162-.027.581a.228.228,0,0,1-.1.2.225.225,0,0,1-.228.007.288.288,0,0,1-.118-.161l-.056-.134c-.138-.3-.348-.94-.34-.576l.17,2.323c.112,1.549.18,3.1.153,4.663l-.006.292,0,.073v.031a.125.125,0,0,0,0-.032.152.152,0,0,0-.107-.11.145.145,0,0,0-.143.049c-.017.013-.033.066-.025.038l.019-.07.076-.281.151-.561a.464.464,0,0,1,.208-.3.431.431,0,0,1,.436,0,.423.423,0,0,1,.161.175.505.505,0,0,1,.045.157l.023.144.174,1.149.084.575.01.072.005.036a.131.131,0,0,0-.01-.037.181.181,0,0,0-.15-.111.174.174,0,0,0-.158.085.2.2,0,0,0-.023.072l.005-.073c.06-.773.1-1.546.176-2.319l.026-.289.015-.157a.389.389,0,0,1,.64-.251.42.42,0,0,1,.134.284l.037.289c.053.384.09.77.133,1.156l.063.578c0,.034.015.128.011.113s-.019-.012-.018-.008c0-.013-.015.071.015-.074l.114-.571.028-.143a.319.319,0,0,1,.08-.185.221.221,0,0,1,.369.122c0,.056.055.077.1.051.036-.01.029-.139.043-.229l.055-.579Zm.057,0-.065,1.161-.024.581-.006.145a.23.23,0,0,1-.068.178.21.21,0,0,1-.341-.125.048.048,0,0,0-.082-.02,1.9,1.9,0,0,0-.029.228l-.062.578a.443.443,0,0,1-.047.2.275.275,0,0,1-.255.128.279.279,0,0,1-.239-.172,1.591,1.591,0,0,1-.042-.172l-.119-.57c-.079-.38-.163-.759-.232-1.14l-.054-.286c-.014-.084-.013-.014.029.021a.114.114,0,0,0,.114.025.135.135,0,0,0,.086-.1l0,.134-.009.291c-.022.775-.075,1.549-.111,2.323l0,.073a.453.453,0,0,1-.064.21.441.441,0,0,1-.78-.062.484.484,0,0,1-.03-.107l-.005-.036-.01-.072-.083-.576-.16-1.152-.019-.144c-.005-.042,0-.016.011.017a.165.165,0,0,0,.065.069.152.152,0,0,0,.158,0c.056-.015.092-.149.063-.054l-.166.557-.083.279-.021.069a.457.457,0,0,1-.086.168.409.409,0,0,1-.405.132.4.4,0,0,1-.3-.3.43.43,0,0,1-.011-.1l0-.041,0-.072.013-.288c.06-1.54.074-3.088.072-4.636-.011-.774-.013-1.549-.058-2.322l0-.075a.246.246,0,0,1,.028-.121.235.235,0,0,1,.209-.117.225.225,0,0,1,.2.128l.057.141.213.541c.034.077.076.218.093.209.033.01.074,0,.067-.057l.01-.581.019-1.163v-.291a1.287,1.287,0,0,1,0-.169.267.267,0,0,1,.192-.2.274.274,0,0,1,.274.076.612.612,0,0,1,.092.175l.112.269.223.535a.051.051,0,0,0-.09-.014c-.007.007-.013.029-.01.016l.005-.073.011-.145.092-1.16.029-.289a.409.409,0,0,1,.14-.293.38.38,0,0,1,.379-.055.39.39,0,0,1,.23.286l.031.142.063.284c.085.378.17.756.242,1.137l.056.285.028.143c.016.083.009.016-.033-.013a.1.1,0,0,0-.106-.011c-.035.005-.07.088-.058.067l.029-.142a.412.412,0,0,1,.152-.272.364.364,0,0,1,.364-.033.355.355,0,0,1,.2.3l.017.292.023.585c.051,1.56-.025,3.115-.123,4.662" transform="translate(-255.841 -336.356)" fill="red"/>
            <path id="Trazado_884969" data-name="Trazado 884969" d="M411.319,207.71a23.83,23.83,0,0,0-.178-4.631l-.076-.573-.041-.286c-.008-.009.019.058.05.065a.082.082,0,0,0,.087-.007c.078-.125.016.044.015.128a.374.374,0,0,1-.6.249.432.432,0,0,1-.149-.271l-.032-.142-.063-.284c-.089-.377-.163-.758-.239-1.138l-.057-.285-.028-.142c-.012-.029.027.061.066.063a.1.1,0,0,0,.1-.017c.038-.014.047-.122.036-.032l-.035.288-.166,1.151-.021.144-.01.072a.349.349,0,0,1-.057.152.32.32,0,0,1-.56-.067l-.186-.554c-.054-.166-.154-.446-.11-.364,0,0,0-.007,0-.008s-.006.084-.009.122l-.02.29-.056,1.161-.027.581a.229.229,0,0,1-.1.2.225.225,0,0,1-.228.007.29.29,0,0,1-.118-.161l-.056-.134c-.138-.3-.347-.94-.34-.576l.171,2.323c.112,1.549.18,3.1.153,4.663l-.006.293v.1a.141.141,0,0,0,0-.032.152.152,0,0,0-.107-.11.146.146,0,0,0-.143.049c-.017.013-.033.066-.025.038l.019-.07.076-.281.152-.561a.463.463,0,0,1,.208-.3.432.432,0,0,1,.436,0,.426.426,0,0,1,.161.175.523.523,0,0,1,.045.158l.022.144.174,1.149.084.575.01.072.005.036a.129.129,0,0,0-.01-.037.181.181,0,0,0-.15-.11.175.175,0,0,0-.158.085.2.2,0,0,0-.023.072l.005-.073c.06-.773.1-1.547.176-2.319l.026-.289.015-.157a.389.389,0,0,1,.64-.251.42.42,0,0,1,.134.284l.037.288c.053.384.09.77.133,1.156l.063.578c0,.034.016.128.011.113s-.019-.012-.018-.008c0-.013-.015.071.015-.074l.114-.571.028-.143a.321.321,0,0,1,.08-.185.221.221,0,0,1,.369.122c0,.056.055.077.1.051.037-.01.029-.139.043-.229l.055-.579Zm.057,0-.065,1.161-.024.581-.006.145a.229.229,0,0,1-.068.179.21.21,0,0,1-.341-.125.048.048,0,0,0-.082-.02,1.864,1.864,0,0,0-.029.228l-.062.579a.452.452,0,0,1-.047.2.275.275,0,0,1-.255.128.279.279,0,0,1-.239-.172,1.581,1.581,0,0,1-.041-.172l-.119-.57c-.079-.38-.163-.759-.232-1.14l-.054-.286c-.014-.084-.013-.014.029.021a.113.113,0,0,0,.114.026.135.135,0,0,0,.086-.1l0,.134-.009.291c-.022.775-.075,1.549-.111,2.323l0,.073a.45.45,0,0,1-.064.21.441.441,0,0,1-.78-.062.467.467,0,0,1-.029-.107l-.005-.036-.01-.072-.082-.575-.16-1.152-.019-.144c-.005-.042,0-.016.011.017a.165.165,0,0,0,.065.069.153.153,0,0,0,.158,0c.057-.015.092-.149.063-.054l-.166.557-.082.279-.021.069a.457.457,0,0,1-.086.168.409.409,0,0,1-.406.132.4.4,0,0,1-.3-.3.433.433,0,0,1-.011-.1l0-.041,0-.072.013-.288c.06-1.54.074-3.088.072-4.636-.011-.774-.013-1.549-.058-2.322l0-.075a.242.242,0,0,1,.028-.121.235.235,0,0,1,.209-.118.226.226,0,0,1,.2.129l.057.141.213.541c.034.077.077.219.094.209.033.009.073,0,.067-.057l.011-.581.019-1.163v-.291a1.282,1.282,0,0,1,0-.169.267.267,0,0,1,.192-.2.274.274,0,0,1,.275.075.635.635,0,0,1,.092.176l.112.269.222.534a.051.051,0,0,0-.09-.014c-.007.007-.013.029-.01.016l.005-.073.011-.145.092-1.16.029-.289a.409.409,0,0,1,.141-.293.38.38,0,0,1,.379-.055.39.39,0,0,1,.23.286l.031.142.063.284c.085.378.17.756.242,1.137l.057.285.028.143c.016.083.009.016-.033-.013a.1.1,0,0,0-.106-.011c-.035.005-.07.088-.058.068l.029-.142a.412.412,0,0,1,.152-.272.364.364,0,0,1,.364-.033.356.356,0,0,1,.2.3l.017.292.023.585c.05,1.56-.025,3.115-.123,4.662" transform="translate(-279.155 -136.867)" fill="red"/>
            <path id="Trazado_884970" data-name="Trazado 884970" d="M52.923,619.286a26.461,26.461,0,1,1-26.461-26.461,26.461,26.461,0,0,1,26.461,26.461" transform="translate(0 -405.733)" fill="#5c6b99"/>
            <path id="Trazado_884971" data-name="Trazado 884971" d="M76.665,648.173v17.988H72.8V652.541a4.657,4.657,0,0,1-.754.534,7.821,7.821,0,0,1-.927.454,8.162,8.162,0,0,1-1.018.343,7.358,7.358,0,0,1-1.043.2v-3.264a16.393,16.393,0,0,0,5.264-2.638Z" transform="translate(-47.264 -443.613)" fill="#fff"/>
          </g>
        </g>
      </g>
    </g>
  </g>
</svg>
