<svg xmlns="http://www.w3.org/2000/svg" xmlns:xlink="http://www.w3.org/1999/xlink" width="521" height="279.184" viewBox="0 0 521 279.184">
  <defs>
    <clipPath id="clip-path">
      <rect id="Rectángulo_402151" data-name="Rectángulo 402151" width="521" height="279.184" transform="translate(855.414 974.788)" fill="#d2e1f1" stroke="#707070" stroke-width="1"/>
    </clipPath>
    <clipPath id="clip-path-2">
      <rect id="Rectángulo_402440" data-name="Rectángulo 402440" width="142.885" height="142.885" fill="none"/>
    </clipPath>
    <clipPath id="clip-path-3">
      <rect id="Rectángulo_402442" data-name="Rectángulo 402442" width="16.097" height="16.097" fill="none"/>
    </clipPath>
    <clipPath id="clip-path-4">
      <rect id="Rectángulo_404489" data-name="Rectángulo 404489" width="240.015" height="240.015" fill="none"/>
    </clipPath>
  </defs>
  <g id="Grupo_1104022" data-name="Grupo 1104022" transform="translate(618.376 11396.212)">
    <g id="Grupo_1104021" data-name="Grupo 1104021">
      <path id="Trazado_884941" data-name="Trazado 884941" d="M0,0H521V279.184H0Z" transform="translate(-618.376 -11396.212)" fill="#fff"/>
      <g id="Enmascarar_grupo_1099693" data-name="Enmascarar grupo 1099693" transform="translate(-1473.79 -12371)" clip-path="url(#clip-path)">
        <g id="Elipse_11618" data-name="Elipse 11618" transform="translate(1340.633 1213.788)" fill="none" stroke="#d7f38d" stroke-width="10">
          <circle cx="31.5" cy="31.5" r="31.5" stroke="none"/>
          <circle cx="31.5" cy="31.5" r="26.5" fill="none"/>
        </g>
        <circle id="Elipse_11635" data-name="Elipse 11635" cx="94.5" cy="94.5" r="94.5" transform="translate(1312.633 930.472)" fill="#d7f38d"/>
        <g id="Trazado_884972" data-name="Trazado 884972" transform="translate(826.633 1184.972)" fill="none">
          <path d="M33,0C51.225,0,66,14.551,66,32.5S51.225,65,33,65,0,50.449,0,32.5,14.775,0,33,0Z" stroke="none"/>
          <path d="M 33 14 C 22.52336502075195 14 14 22.29906845092773 14 32.5 C 14 42.70093154907227 22.52336502075195 51 33 51 C 43.47663879394531 51 52 42.70093154907227 52 32.5 C 52 22.29906845092773 43.47663879394531 14 33 14 M 33 0 C 51.22538757324219 0 66 14.55075073242188 66 32.5 C 66 50.44924926757812 51.22538757324219 65 33 65 C 14.77461242675781 65 0 50.44924926757812 0 32.5 C 0 14.55075073242188 14.77461242675781 0 33 0 Z" stroke="none" fill="#3e8ff2"/>
        </g>
        <g id="Grupo_1101113" data-name="Grupo 1101113" transform="translate(1294.747 1159.788)">
          <g id="Grupo_1101112" data-name="Grupo 1101112" clip-path="url(#clip-path-2)">
            <path id="Trazado_875944" data-name="Trazado 875944" d="M138.375,138.375h0a13.606,13.606,0,0,1-19.243,0L4.485,23.729A13.608,13.608,0,0,1,23.729,4.485L138.375,119.132A13.606,13.606,0,0,1,138.375,138.375Z" transform="translate(0.012 0.012)" fill="none" stroke="#fff" stroke-miterlimit="10" stroke-width="1"/>
          </g>
        </g>
        <g id="Grupo_1101117" data-name="Grupo 1101117" transform="translate(1340.633 1092.862)">
          <g id="Grupo_1101116" data-name="Grupo 1101116" clip-path="url(#clip-path-3)">
            <circle id="Elipse_11620" data-name="Elipse 11620" cx="7.207" cy="7.207" r="7.207" transform="translate(0.841 0.842)" fill="none" stroke="#fff" stroke-miterlimit="10" stroke-width="1"/>
          </g>
        </g>
      </g>
      <g id="Grupo_1104006" data-name="Grupo 1104006" transform="translate(-466.752 -11379.628)">
        <g id="Grupo_1104006-2" data-name="Grupo 1104006" clip-path="url(#clip-path-4)">
          <path id="Trazado_884973" data-name="Trazado 884973" d="M241.174,122.159A119.016,119.016,0,1,1,122.158,3.143,119.016,119.016,0,0,1,241.174,122.159" transform="translate(-2.15 -2.151)" fill="#f1f3fc"/>
          <path id="Trazado_884974" data-name="Trazado 884974" d="M232.174,10.589A985.551,985.551,0,0,0,229.6,232.737a119.56,119.56,0,0,0,76.6,3.941l11.67-58.888a308.621,308.621,0,0,0,5.266-40.42.657.657,0,0,0-1.243-.337l-1.135,2.27a.656.656,0,0,1-1.239-.224l-.737-6.938a.656.656,0,0,0-1.224-.252l-4.015,7.138a.656.656,0,0,1-1.228-.322v-9.588a.656.656,0,0,0-1.195-.374l-1.856,2.672a.656.656,0,0,1-1.191-.31l-.489-4.947a.656.656,0,0,0-1.243-.222l-3.225,6.632a.656.656,0,0,1-1.243-.223l-.457-4.722a.656.656,0,0,0-1.234-.242l-3.922,7.458a.656.656,0,0,1-1.236-.27l-.542-10.033a.656.656,0,0,0-1.228-.283L291.17,128a.656.656,0,0,1-1.229-.33l.088-4.917a.656.656,0,0,0-1.265-.256l-4.009,9.991a.656.656,0,0,1-1.264-.211l-.339-6.612a.656.656,0,0,0-1.2-.324l-2.263,3.473a.656.656,0,0,1-1.195-.241l-.562-3.113a.656.656,0,0,0-1.262-.106l-1.283,3.557a.656.656,0,0,1-1.269-.152l-.37-3.425a.656.656,0,0,0-1.291-.077.656.656,0,0,1-1.276.012l-.26-1.04a.655.655,0,0,0-.325-.418,3.074,3.074,0,0,1-.457-5.108l.266-.212a.656.656,0,0,0,.247-.513V116.9a.656.656,0,0,1,.964-.579l1.247.662a.656.656,0,0,0,.964-.579v-1.829a.656.656,0,0,1,1.111-.472l3.319,3.2a.656.656,0,0,0,1.11-.516l-.346-5.126a.656.656,0,0,1,1.157-.466l2.358,2.81a.656.656,0,0,0,1.154-.495l-1.166-10.408a.656.656,0,0,1,1.175-.468l3.792,5.019a.656.656,0,0,0,1.173-.484l-.738-5.409a.656.656,0,0,1,1.206-.437l6.318,10.082a.656.656,0,0,0,1.21-.393l-.58-8.439a.656.656,0,0,1,1.148-.476l6.968,7.985a.656.656,0,0,0,1.149-.473l-.859-13.386a.656.656,0,0,1,1.241-.335l1.64,3.279a.656.656,0,0,0,1.242-.277l.142-5.74a.656.656,0,0,1,1.276-.2l4.54,13.145a.656.656,0,0,0,1.271-.133l1.489-11.91a.656.656,0,0,1,1.221-.244l3.437,6.029a.656.656,0,0,0,1.225-.361,308.775,308.775,0,0,0-20.1-92.672,119.6,119.6,0,0,0-70.94,3.776" transform="translate(-153.677 -2.151)" fill="#c1c8f8"/>
          <path id="Trazado_884975" data-name="Trazado 884975" d="M229.187,26.489q-.516,3.781-1.01,7.566c-1.984,15.246-3.445,30.557-4.639,45.888l-.825,11.5c-.23,3.838-.415,7.678-.625,11.518-.1,1.92-.217,3.839-.293,5.76l-.213,5.763-.213,5.764c-.073,1.921-.15,3.842-.177,5.765l-.223,11.534c-.049,1.922-.042,3.845-.047,5.768l-.014,5.768-.013,5.768c0,1.923.047,3.845.068,5.768l.171,11.536c.256,7.686.445,15.376.87,23.056.322,7.684.864,15.357,1.367,23.03.294,3.835.631,7.665.944,11.5.164,1.915.31,3.833.488,5.747l.571,5.739.571,5.739q.053.526.1,1.052c.709.29,1.419.577,2.134.854q-1.49-15.376-2.564-30.787-1.525-22.968-2.108-45.984l-.2-11.507c-.026-1.918-.073-3.836-.082-5.754V143.332c0-1.918-.01-3.836.033-5.754l.175-11.508c.013-1.918.077-3.836.135-5.753l.171-5.752.171-5.753c.061-1.918.168-3.833.25-5.749l.533-11.5.685-11.491c.2-3.832.528-7.656.81-11.484l.435-5.74c.134-1.915.3-3.826.479-5.737l1.028-11.469c.372-3.82.8-7.634,1.194-11.453l.6-5.728.281-2.36c-.341.125-.678.259-1.018.387" transform="translate(-151.182 -17.864)" fill="#a9a4e1"/>
          <path id="Trazado_884976" data-name="Trazado 884976" d="M355.1,162.417c.087-6.715.115-13.431.131-20.146l-.108-12.569c-.032-4.19-.143-8.379-.227-12.567-.391-16.752-1.077-33.5-2.428-50.207q.55,25.125.578,50.231c.028,16.739-.061,33.477-.4,50.21l-.092,6.276-.149,6.274-.313,12.548c-.276,8.363-.5,16.73-.863,25.091-.59,16.73-1.582,33.439-2.447,50.174l.676-6.246.647-6.25.628-6.253c.2-2.085.359-4.174.54-6.26l1-12.529c.179-2.088.278-4.18.417-6.271l.389-6.273.39-6.273c.131-2.091.2-4.185.3-6.277l.569-12.558c.154-4.187.255-8.376.385-12.564l.177-6.283.118-6.284c0-.121,0-.243.005-.364a3.071,3.071,0,0,1,.068-4.629" transform="translate(-238.711 -45.806)" fill="#a9a4e1"/>
          <path id="Trazado_884977" data-name="Trazado 884977" d="M403.368,554.2l-2.555,19.163-.7,5.53c.8-.041,1.591-.094,2.383-.151l.676-5.073,2.425-19.18c.766-6.4,1.572-12.793,2.293-19.2,1.486-12.8,2.891-25.617,4.063-38.462-2.149,12.718-4.064,25.465-5.9,38.224-.939,6.376-1.793,12.764-2.687,19.146" transform="translate(-273.839 -340.033)" fill="#a9a4e1"/>
          <path id="Trazado_884978" data-name="Trazado 884978" d="M290.136,596.422l-.354-10.383c-.16-3.46-.281-6.921-.487-10.379-.367-6.918-.817-13.834-1.5-20.743-.3,6.937-.365,13.867-.348,20.795-.014,3.465.058,6.927.09,10.39l.223,10.387q.254,9.476.747,18.946c.645.157,1.291.312,1.94.458q-.042-9.738-.309-19.47" transform="translate(-196.727 -379.788)" fill="#a9a4e1"/>
          <path id="Trazado_884979" data-name="Trazado 884979" d="M407.96,11.156l1.451,6.789c.483,2.262.97,4.524,1.406,6.8s.948,4.528,1.375,6.8l1.293,6.816c.436,2.271.822,4.549,1.236,6.824.2,1.138.415,2.275.6,3.415l.546,3.423.566,3.421c.192,1.14.381,2.28.529,3.425q.47,3.434.989,6.863c1.192,9.168,2.14,18.361,2.627,27.635a190.863,190.863,0,0,0-.782-27.848q-.365-3.466-.768-6.931c-.122-1.157-.283-2.307-.449-3.457l-.485-3.452-.505-3.45c-.18-1.148-.387-2.291-.578-3.436-.4-2.289-.765-4.584-1.19-6.868l-1.354-6.835c-.217-1.141-.472-2.274-.713-3.41l-.741-3.4c-.493-2.269-1.035-4.527-1.575-6.785l-.81-3.387-.87-3.372q-.835-3.282-1.736-6.546-.813-.067-1.63-.122.79,3.547,1.566,7.1" transform="translate(-278.138 -2.779)" fill="#a9a4e1"/>
          <path id="Trazado_884980" data-name="Trazado 884980" d="M278.026,13.221q-1,9.115-1.8,18.249c-.558,6.1-1.017,12.207-1.476,18.314-.242,3.053-.407,6.111-.61,9.167s-.39,6.112-.556,9.17l-.46,9.176-.391,9.18c-.126,3.06-.189,6.122-.286,9.183s-.183,6.122-.209,9.186l-.117,9.187.016,9.189.038,4.593q.031,2.3.1,4.594l.12,4.593.15,4.591c.547-12.241.97-24.467,1.554-36.689l.436-9.165c.153-3.054.272-6.111.454-9.164l.462-9.163.512-9.161c.148-3.055.321-6.108.5-9.161l.533-9.16,1.079-18.322,1.123-18.672c-.391.091-.778.19-1.167.285" transform="translate(-186.24 -8.853)" fill="#a9a4e1"/>
          <path id="Trazado_884981" data-name="Trazado 884981" d="M321.578,331.9q.231,9.618.235,19.234c.017,3.205-.009,6.41-.014,9.615l-.081,9.614-.145,9.614c-.071,3.2-.119,6.409-.212,9.613q-.231,9.613-.691,19.223-.233-9.618-.237-19.234c-.018-3.206.01-6.41.014-9.615l.082-9.614.146-9.614c.07-3.2.12-6.409.213-9.613q.231-9.613.69-19.223" transform="translate(-219.302 -227.151)" fill="#a9a4e1"/>
          <path id="Trazado_884982" data-name="Trazado 884982" d="M328.46,6.177l-.146,4.718-.234,9.653c-.055,3.218-.133,6.435-.166,9.654q-.148,9.655-.066,19.317.612-9.643.994-19.291c.144-3.216.243-6.433.364-9.649l.3-9.651.118-4.9c-.388.048-.775.1-1.161.152" transform="translate(-224.362 -4.124)" fill="#a9a4e1"/>
          <path id="Trazado_884983" data-name="Trazado 884983" d="M405.777,268.78c-.135-1.969-.28-3.937-.456-5.9-.485-5.579-1.127-11.146-1.989-16.679.186,2.794.407,5.581.559,8.375l.507,8.371c.14,2.791.312,5.58.426,8.372.069,1.4.135,2.79.187,4.186s.124,2.79.154,4.187l.03.868a.653.653,0,0,0,.859-.691l-1.166-10.408a.653.653,0,0,1,.89-.679" transform="translate(-276.043 -168.5)" fill="#a9a4e1"/>
          <path id="Trazado_884984" data-name="Trazado 884984" d="M410.056,397.475l-.339-6.612a.661.661,0,0,0-.056-.233c0,.158,0,.316.005.473l.023,2.095c.014.7.025,1.4.019,2.095l0,4.191c.013,1.4-.038,2.793-.051,4.191.02,2.8-.155,5.587-.187,8.389.524-4.647.892-9.318,1.078-14a.631.631,0,0,1-.49-.594" transform="translate(-280.242 -267.35)" fill="#a9a4e1"/>
          <path id="Trazado_884985" data-name="Trazado 884985" d="M468.033,438.883l.674-5.069c.234-1.689.4-3.386.6-5.079l.29-2.541.258-2.544c.158-1.7.335-3.393.474-5.093l.406-5.1c.136-1.7.21-3.4.317-5.105s.206-3.4.25-5.109q.178-3.811.213-7.627l-.344-3.481a.639.639,0,0,0-.158-.364L470.949,393l-.249,5.1-.322,5.093c-.467,6.787-1,13.57-1.7,20.337l-.244,2.54-.275,2.536c-.187,1.691-.359,3.383-.563,5.072l-.59,5.069-.625,5.066-.66,5.062-.689,5.059c-.443,3.376-.957,6.742-1.459,10.113,1.48-6.653,2.694-13.366,3.723-20.106Z" transform="translate(-317.27 -268.131)" fill="#a9a4e1"/>
          <path id="Trazado_884986" data-name="Trazado 884986" d="M120.008,240.015A120.007,120.007,0,0,1,35.15,35.149,120.007,120.007,0,1,1,204.866,204.865a119.223,119.223,0,0,1-84.858,35.15m0-238.032A118.024,118.024,0,1,0,238.032,120.007,118.157,118.157,0,0,0,120.008,1.984" fill="#f1f3fc"/>
          <path id="Trazado_884987" data-name="Trazado 884987" d="M419.046,285.851a1.291,1.291,0,0,0-1.041-.879,1.277,1.277,0,0,0-1.258.556l-.086.144-.042.081-.083.164-.166.327-.332.653-.332.654-.166.327-.012.024-.006-.056-.58-5.835-.073-.729-.018-.182a2.042,2.042,0,0,0-.035-.251,1.363,1.363,0,0,0-.354-.678,1.4,1.4,0,0,0-1.41-.353,1.366,1.366,0,0,0-.642.432,3.316,3.316,0,0,0-.262.417l-1.455,2.546-1.454,2.546-.727,1.273-.055.1v-.089l.01-1.466.02-2.932.02-2.932.01-1.466v-.183a1.611,1.611,0,0,0-.043-.381,1.481,1.481,0,0,0-.423-.738,1.533,1.533,0,0,0-1.563-.328,1.476,1.476,0,0,0-.677.5c-.051.065-.065.087-.081.11l-.052.075-.1.151-.419.6-.838,1.2-.089.127,0-.039-.284-2.918-.15-1.5a1.53,1.53,0,0,0-2.63-.821,1.566,1.566,0,0,0-.24.341l-.092.184-.161.329-.321.659-.643,1.317-1.286,2.635-.389.8-.015-.158-.139-1.46-.139-1.459-.069-.729-.009-.092c-.006-.053-.019-.133-.032-.2a1.486,1.486,0,0,0-.151-.405,1.527,1.527,0,0,0-.615-.617,1.568,1.568,0,0,0-1.64.088,1.548,1.548,0,0,0-.32.3,1.741,1.741,0,0,0-.118.173c-.044.072-.059.1-.07.123l-.171.324-.684,1.3-2.63,4.984-.148-2.561-.338-5.854-.046-.759a1.517,1.517,0,0,0-2.818-.65l-.1.184-.177.321-1.414,2.568-.038.069.036-2.535.021-1.466v-.208a1.478,1.478,0,0,0-.058-.394,1.427,1.427,0,0,0-.451-.705,1.5,1.5,0,0,0-1.526-.247,1.429,1.429,0,0,0-.648.523,1.878,1.878,0,0,0-.169.32l-.068.17-.271.681-.541,1.363L380.3,278.8l-.541,1.362-.187.472-.062-1.065-.169-2.927-.085-1.463-.021-.366-.011-.183-.006-.1-.025-.184a1.373,1.373,0,0,0-2.4-.615l-.107.143-.05.077-.1.154-.2.308-.792,1.234-.792,1.233-.272.424h0l-.135-.72-.27-1.441-.135-.721-.038-.2a1.336,1.336,0,0,0-.12-.336,1.291,1.291,0,0,0-.51-.53,1.321,1.321,0,0,0-1.375.049,1.252,1.252,0,0,0-.462.555,2.284,2.284,0,0,0-.082.215l-.061.173-.968,2.768-.121.346-.058.161c-.006.008-.006.02-.009.02s-.005.019-.046.016-.033,0-.046-.028a.027.027,0,0,0,0-.016c0-.01-.007-.055-.011-.081l-.021-.182-.043-.364-.171-1.456-.086-.728-.043-.364a3.47,3.47,0,0,0-.069-.449,1.227,1.227,0,0,0-.359-.577,1.241,1.241,0,0,0-.6-.278,1.168,1.168,0,0,0-1.327.78l-.043.139a.067.067,0,0,0-.007.022.138.138,0,0,1-.029.048.159.159,0,0,1-.144.015.088.088,0,0,1-.043-.039c-.009-.007-.01-.026-.02-.041l-.045-.173-.185-.709-.051-.194a1.188,1.188,0,0,0-.134-.3,1.219,1.219,0,0,0-.456-.417l-.264-.16-.24-.191a2.6,2.6,0,0,1-.839-2.224,2.559,2.559,0,0,1,.426-1.154,2.412,2.412,0,0,1,.409-.469,2.987,2.987,0,0,1,.258-.223l.16-.132a1.118,1.118,0,0,0,.2-.235,1.1,1.1,0,0,0,.168-.582l0-.369-.005-.719a.226.226,0,0,1,.13-.2.232.232,0,0,1,.124-.02.571.571,0,0,1,.2.086l.65.338.325.169.167.087a1.123,1.123,0,0,0,.279.1,1.067,1.067,0,0,0,1.049-.4,1.052,1.052,0,0,0,.207-.546c.008-.113,0-.152,0-.218l0-.183-.013-1.466a.284.284,0,0,1,.129-.3.275.275,0,0,1,.3,0l2.083,1.966,1.064,1.009.277.259a.949.949,0,0,0,.49.234,1,1,0,0,0,.955-.4.965.965,0,0,0,.179-.51,1.808,1.808,0,0,0-.006-.222l-.013-.183-.051-.731-.1-1.462-.1-1.462-.052-.732a2.289,2.289,0,0,1-.012-.605.358.358,0,0,1,.3-.231.341.341,0,0,1,.189.032.309.309,0,0,1,.082.055l.038.037.059.07.946,1.12.946,1.12.237.28.118.14a1.76,1.76,0,0,0,.147.161.939.939,0,0,0,1.57-.621,2.812,2.812,0,0,0-.032-.414l-.042-.364-.168-1.456-.336-2.913-.331-2.913-.157-1.457-.079-.729-.036-.353a.351.351,0,0,1,.043-.206.394.394,0,0,1,.357-.2.362.362,0,0,1,.192.063.893.893,0,0,1,.182.209l.879,1.173,1.758,2.347.879,1.173.11.147.055.073.086.1a.961.961,0,0,0,.463.266.992.992,0,0,0,.966-.325.92.92,0,0,0,.212-.5,1.1,1.1,0,0,0,0-.26l-.024-.181-.1-.727L384,253.684l-.384-2.907a.769.769,0,0,1-.013-.253.306.306,0,0,1,.081-.145.346.346,0,0,1,.335-.083.292.292,0,0,1,.135.1l.03.039.048.078.1.156.383.625,3.061,5,1.53,2.5.765,1.251.191.313a3.432,3.432,0,0,0,.24.363,1.134,1.134,0,0,0,1.971-.527,1.306,1.306,0,0,0,.019-.3l-.011-.183-.021-.366-.085-1.464-.17-2.927-.171-2.927-.021-.366-.011-.183c0-.039,0-.033,0-.044s.019-.038.059-.048.033,0,.063.026l.473.554,3.81,4.457,1.9,2.229.476.557.257.3a1.328,1.328,0,0,0,.643.389,1.377,1.377,0,0,0,1.375-.422,1.32,1.32,0,0,0,.32-.694,1.062,1.062,0,0,0,.014-.185c0-.067,0-.125,0-.144l-.011-.183-.713-11.706-.059-.964.282.569.652,1.313.325.657c.062.121.092.192.18.355a1.4,1.4,0,0,0,.556.559,1.432,1.432,0,0,0,1.5-.079,1.394,1.394,0,0,0,.506-.622,1.769,1.769,0,0,0,.109-.632l.061-2.931.043-2.246.295.841,1.936,5.535,1.936,5.535.242.692.03.086c.009.027.041.1.063.15a1.293,1.293,0,0,0,.833.709,1.338,1.338,0,0,0,1.349-.378,1.3,1.3,0,0,0,.324-.66c.014-.068.017-.1.02-.128l.011-.091.022-.182.352-2.91.694-5.823.332-2.87c-.02-.045.091-.071.11-.039l.689,1.175,1.477,2.532.738,1.267.369.633.185.317.046.079.083.124a1.114,1.114,0,0,0,.225.232,1.167,1.167,0,0,0,1.224.114,1.139,1.139,0,0,0,.636-1.048l-.1-1.487-.231-2.927c-.315-3.9-.748-7.794-1.242-11.676s-1.064-7.753-1.73-11.607l-.17.025c.493,3.878.946,7.759,1.32,11.647s.668,7.782.924,11.677l.173,2.922.073,1.439a.134.134,0,0,1-.087.134.155.155,0,0,1-.161-.014,4.432,4.432,0,0,1-.269-.46l-.357-.641-.713-1.281-1.427-2.561-.357-.64-.178-.32a2.793,2.793,0,0,0-.248-.4,1.243,1.243,0,0,0-2.167.555l-.4,2.947-.761,5.814-.376,2.908-.023.181-.008.06-.009-.026-.236-.694-1.892-5.55-1.891-5.55-.237-.694-.118-.347a3.159,3.159,0,0,0-.18-.46,1.407,1.407,0,0,0-.561-.549,1.411,1.411,0,0,0-1.949.719,1.772,1.772,0,0,0-.1.61l-.01.366-.021.733-.042,1.465-.075,2.6-.282-.559-.66-1.309-.33-.654-.165-.327a1.479,1.479,0,0,0-.478-.564,1.418,1.418,0,0,0-1.491-.063,1.4,1.4,0,0,0-.556.559,1.475,1.475,0,0,0-.162.757l.1,1.465.789,11.7.005.079-.13-.144-.488-.547-1.95-2.189-3.9-4.378-.491-.55a1.245,1.245,0,0,0-1.268-.366,1.23,1.23,0,0,0-.879.974,1.36,1.36,0,0,0-.014.321l.014.183.029.365.231,2.923.232,2.923.116,1.461.029.365.014.183c0,.035.005.047,0,.063,0,.058-.046.1-.121.132a.163.163,0,0,1-.181-.044c-.008,0-.108-.161-.164-.248l-.2-.308-.792-1.234-1.583-2.468-3.167-4.936-.4-.617-.1-.154-.049-.077-.08-.108a.979.979,0,0,0-.457-.315,1.02,1.02,0,0,0-1.019.253.981.981,0,0,0-.262.49,1.375,1.375,0,0,0,.009.476l.408,2.9.2,1.451.1.726.026.181a.454.454,0,0,1,0,.105.292.292,0,0,1-.069.169.38.38,0,0,1-.355.125.35.35,0,0,1-.163-.094l-.037-.039-.055-.073-.111-.146-.889-1.166-1.777-2.332-.889-1.166a1.379,1.379,0,0,0-.311-.329.917.917,0,0,0-.495-.158.939.939,0,0,0-.85.493.894.894,0,0,0-.1.5l.041.375.085.728.169,1.456.322,2.915.317,2.914.159,1.458.039.364a3.025,3.025,0,0,1,.027.315.368.368,0,0,1-.238.312.353.353,0,0,1-.383-.071,1.061,1.061,0,0,1-.1-.11l-.117-.141-.235-.281-.939-1.126L375.807,260l-.059-.07-.091-.093a.894.894,0,0,0-.219-.151.937.937,0,0,0-.522-.092.959.959,0,0,0-.8.623.908.908,0,0,0-.054.261v.13l.006.092.023.365.047.732.094,1.463.094,1.463.047.731.012.183a1.15,1.15,0,0,1,.005.144.324.324,0,0,1-.061.171.345.345,0,0,1-.331.133.3.3,0,0,1-.16-.083l-.253-.246-1.046-1.027-1.046-1.027-.523-.513-.262-.257a2.641,2.641,0,0,0-.322-.289,1.032,1.032,0,0,0-1.484.385,1.129,1.129,0,0,0-.115.527l-.013,1.466,0,.183c0,.057,0,.139,0,.148a.252.252,0,0,1-.051.129.261.261,0,0,1-.252.091.321.321,0,0,1-.066-.025l-.157-.085-.322-.175-.644-.349a1.374,1.374,0,0,0-.475-.182,1.077,1.077,0,0,0-.591.08,1.088,1.088,0,0,0-.645.951l-.008.747,0,.364a.214.214,0,0,1-.036.112.243.243,0,0,1-.039.043l-.126.1c-.094.071-.193.151-.3.251a3.319,3.319,0,0,0-.561.622,3.489,3.489,0,0,0-.606,1.558,3.57,3.57,0,0,0,1.1,3.075l.329.272.358.228c.067.04.057.041.08.071a.139.139,0,0,1,.015.037l.039.162.171.713.044.182a1.267,1.267,0,0,0,.12.3,1.143,1.143,0,0,0,.476.462,1.216,1.216,0,0,0,1.248-.089,1.2,1.2,0,0,0,.407-.528l.049-.153c.011-.033.01-.021.014-.035s.015-.02.015-.031a.117.117,0,0,1,.112-.025c.058.017.058.027.071.065l.279,2.83.036.365.018.182.011.1.031.164a1.257,1.257,0,0,0,2.219.434,1.306,1.306,0,0,0,.166-.3l.07-.183.128-.343,1.021-2.749.063-.172a1.007,1.007,0,0,1,.05-.127s0,0,.005,0,0,0,0,0l.029.163.126.722.251,1.444.126.722a1.894,1.894,0,0,0,.071.288,1.387,1.387,0,0,0,.175.332,1.342,1.342,0,0,0,1.983.2,1.493,1.493,0,0,0,.227-.268l.1-.153.2-.306.808-1.223.808-1.223.25-.375.02.441.066,1.464.131,2.929.065,1.464a1.791,1.791,0,0,0,.119.624,1.419,1.419,0,0,0,.519.616,1.442,1.442,0,0,0,1.5.053,1.384,1.384,0,0,0,.551-.576c.025-.048.065-.132.072-.152l.034-.085.069-.17.276-.679.551-1.359,2.2-5.434.551-1.358.021-.05-.016.742-.063,2.931-.008.376a1.531,1.531,0,0,0,.218.795,1.509,1.509,0,0,0,1.413.709,1.444,1.444,0,0,0,.787-.307,1.459,1.459,0,0,0,.289-.3c.037-.052.078-.116.106-.162l.045-.08.358-.639L389,274.228l.294,5.839.147,2.928.018.366.011.193a1.626,1.626,0,0,0,.083.415,1.573,1.573,0,0,0,2.15.9,1.521,1.521,0,0,0,.648-.582c.092-.149.085-.152.123-.22l.085-.163.17-.325,2.722-5.194.5-.954,0,.022.143,1.459.143,1.459.072.729a3.525,3.525,0,0,0,.072.508,1.544,1.544,0,0,0,2.741.5,3.335,3.335,0,0,0,.245-.453l.639-1.319,2.129-4.41.068.664.293,2.917.037.365a3.113,3.113,0,0,0,.078.516,1.522,1.522,0,0,0,2.7.457l.423-.611.835-1.2.241-.348.007,1.028.02,2.932.02,2.932.01,1.466,0,.366v.183c0,.017,0,.081.007.15a1.19,1.19,0,0,0,.027.193,1.445,1.445,0,0,0,2.531.6,3.265,3.265,0,0,0,.258-.422l.178-.321.71-1.282,1.42-2.565,1.42-2.565.02-.036.01.088.082.728.658,5.827.011.1.033.175a1.293,1.293,0,0,0,.141.342,1.308,1.308,0,0,0,.54.506,1.314,1.314,0,0,0,1.652-.384,2.022,2.022,0,0,0,.152-.258l.162-.329.323-.658.615-1.247c.009-.015-.024,0,.005-.008s.031.015.033,0l-.148,2.692-.194,2.92q-.416,5.838-1.05,11.661c-.849,7.761-1.931,15.5-3.333,23.194l.168.033c1.626-7.65,3.012-15.359,4.026-23.124q.762-5.822,1.306-11.673l.259-2.926L419,287.54l.057-.732.029-.366a1.583,1.583,0,0,0-.045-.591m-18.461-40.734V245.1s0,.006,0,.015m-.6,13.464s0,0,0,0,0,.006,0,0m-20.6,22.532,0,0c0,.005,0,0,0,0m6.4-4.619v0l-.006.011c-.005.006,0-.008,0-.009m10.086.139,0,.02v0s0-.024,0-.017m.444.1c.007-.013.012-.021.006-.008a.022.022,0,0,1-.006.008m10.489,1.322h0c0-.014,0-.026,0,0m1.651,9.557a0,0,0,0,1,0,0s0,0,0,0m4.96-6.473,0,0c0-.009,0,0,0,0" transform="translate(-249.023 -151.071)" fill="#de5653"/>
          <path id="Trazado_884988" data-name="Trazado 884988" d="M52.923,619.286a26.461,26.461,0,1,1-26.461-26.461,26.461,26.461,0,0,1,26.461,26.461" transform="translate(0 -405.733)" fill="#5c6b99"/>
          <path id="Trazado_884989" data-name="Trazado 884989" d="M69.507,663h7.46v3.215H65.262v-1.325a6.165,6.165,0,0,1,.454-2.423,8.024,8.024,0,0,1,1.141-1.926,9.86,9.86,0,0,1,1.5-1.51q.816-.656,1.552-1.184.773-.552,1.355-1.055a7.662,7.662,0,0,0,.982-1,3.8,3.8,0,0,0,.6-1.006,2.994,2.994,0,0,0,.2-1.086A2.184,2.184,0,0,0,72.4,652a2.837,2.837,0,0,0-1.951-.577,6.551,6.551,0,0,0-4.344,1.8v-3.411a9.322,9.322,0,0,1,5.178-1.485,7.654,7.654,0,0,1,2.4.35,5.086,5.086,0,0,1,1.8,1,4.277,4.277,0,0,1,1.123,1.576,5.331,5.331,0,0,1,.386,2.068,5.818,5.818,0,0,1-.375,2.159,6.632,6.632,0,0,1-.993,1.718,9.03,9.03,0,0,1-1.43,1.417q-.81.645-1.681,1.246-.589.418-1.135.828a10.633,10.633,0,0,0-.964.81,4.381,4.381,0,0,0-.662.779,1.342,1.342,0,0,0-.246.724" transform="translate(-44.666 -443.719)" fill="#fff"/>
        </g>
      </g>
    </g>
  </g>
</svg>
