<svg xmlns="http://www.w3.org/2000/svg" width="90" height="90" viewBox="0 0 90 90">
  <g id="Grupo_1103488" data-name="Grupo 1103488" transform="translate(-283.051 -940)">
    <g id="Grupo_1103091" data-name="Grupo 1103091" transform="translate(-735.949 -5824)">
      <rect id="Rectángulo_401800" data-name="Rectángulo 401800" width="90" height="90" rx="5" transform="translate(1019 6764)" fill="#d7f38d"/>
    </g>
    <g id="Layer_35" transform="translate(288.64 952.291)">
      <g id="Grupo_1103477" data-name="Grupo 1103477" transform="translate(7.9 5)">
        <g id="Grupo_1103470" data-name="Grupo 1103470" transform="translate(1.034 1.034)">
          <path id="Trazado_883961" data-name="Trazado 883961" d="M59.152,66.451c6.133-13.506,4.41-28.115,3.308-43.344A13.693,13.693,0,0,0,49.574,10.221L9.4,6.5V31.652c3.17,4,25.841,1.516,28.046.207C28.626,44.4,41.3,56.941,36.688,66.451Z" transform="translate(-9.4 -6.5)" fill="#ffddce" fill-rule="evenodd"/>
        </g>
        <g id="Grupo_1103471" data-name="Grupo 1103471" transform="translate(1.034 1.034)">
          <path id="Trazado_883962" data-name="Trazado 883962" d="M57.5,25.588c1.1,14.333,2.619,28.115-2.274,40.863h3.928c6.133-13.506,4.41-28.115,3.308-43.344A13.693,13.693,0,0,0,49.574,10.221L9.4,6.5V9.394l35.212,3.239A13.867,13.867,0,0,1,57.5,25.588Z" transform="translate(-9.4 -6.5)" fill="#e8c9bc" fill-rule="evenodd"/>
        </g>
        <g id="Grupo_1103472" data-name="Grupo 1103472" transform="translate(1.034 8.683)">
          <path id="Trazado_883963" data-name="Trazado 883963" d="M9.4,27.661H34.621a4.219,4.219,0,0,0,8.338-.9,3.984,3.984,0,0,0-.827-2.481,4.282,4.282,0,0,0,.827-2.481,4.176,4.176,0,0,0-4.2-4.2,4.283,4.283,0,0,0-4.135,3.308H9.4Z" transform="translate(-9.4 -17.6)" fill="#f2fbff" fill-rule="evenodd"/>
        </g>
        <g id="Grupo_1103473" data-name="Grupo 1103473" transform="translate(33.559 24.945)">
          <path id="Trazado_883964" data-name="Trazado 883964" d="M60.045,49.538v27.7h6.615v-27.7a4.219,4.219,0,0,0-.9-8.338,4.4,4.4,0,0,0-2.481.758A4.236,4.236,0,0,0,60.8,41.2a4.176,4.176,0,0,0-4.2,4.2,4.287,4.287,0,0,0,3.445,4.135Z" transform="translate(-56.6 -41.2)" fill="#f2fbff" fill-rule="evenodd"/>
        </g>
        <g id="Grupo_1103474" data-name="Grupo 1103474" transform="translate(39.967 2.894)">
          <path id="Trazado_883965" data-name="Trazado 883965" d="M71.068,17.745a3.308,3.308,0,1,1,3.308,3.308A3.308,3.308,0,0,1,71.068,17.745Zm-5.168,0A8.545,8.545,0,1,0,74.445,9.2,8.543,8.543,0,0,0,65.9,17.745Z" transform="translate(-65.9 -9.2)" fill="#fca6a4" fill-rule="evenodd"/>
        </g>
        <g id="Grupo_1103475" data-name="Grupo 1103475" transform="translate(45.135 8.2)">
          <path id="Trazado_883966" data-name="Trazado 883966" d="M76.708,16.9a3.308,3.308,0,1,0,3.308,3.308A3.265,3.265,0,0,0,76.708,16.9Z" transform="translate(-73.4 -16.9)" fill="#fb6572" fill-rule="evenodd"/>
        </g>
        <g id="Grupo_1103476" data-name="Grupo 1103476">
          <path id="Trazado_883967" data-name="Trazado 883967" d="M76.241,23.983A4.341,4.341,0,1,0,71.9,19.641,4.367,4.367,0,0,0,76.241,23.983Zm0-6.546a2.274,2.274,0,1,1-2.274,2.274A2.25,2.25,0,0,1,76.241,17.436Z" transform="translate(-27.798 -8.202)"/>
          <path id="Trazado_883968" data-name="Trazado 883968" d="M63.027,23.261a9.411,9.411,0,0,0,2.894-6.822,9.6,9.6,0,0,0-9.578-9.578,9.345,9.345,0,0,0-5.788,2c-.482-.069-.965-.138-1.378-.207L9.071,5A1.066,1.066,0,0,0,7.9,6.034V31.185a.962.962,0,0,0,.207.62c3.032,3.79,19.777,2.619,26.668,1.24C31.26,39.8,33.052,46.414,34.637,52.34c1.309,4.824,2.481,9.372.689,13.162a1.1,1.1,0,0,0,.069,1.034,1.178,1.178,0,0,0,.9.482h22.4a1.039,1.039,0,0,0,.965-.62C65.439,53.65,64.405,40.144,63.3,25.81c-.138-.827-.207-1.723-.276-2.55Zm.827-6.822a7.511,7.511,0,1,1-7.511-7.511A7.529,7.529,0,0,1,63.854,16.439ZM40.77,21.056a3.023,3.023,0,0,1,.62,1.861,3.206,3.206,0,0,1-3.17,3.17,3.172,3.172,0,0,1-3.1-2.481,1.039,1.039,0,0,0-1.034-.827H9.967V18.231H34.154a1.1,1.1,0,0,0,1.034-.827,3.116,3.116,0,0,1,3.1-2.481,3.206,3.206,0,0,1,3.17,3.17,3.023,3.023,0,0,1-.62,1.861.928.928,0,0,0-.069,1.1Zm4.341,16.263a3.116,3.116,0,0,1-2.481-3.1,3.206,3.206,0,0,1,3.17-3.17,3.023,3.023,0,0,1,1.861.62,1.032,1.032,0,0,0,1.24,0,3.024,3.024,0,0,1,1.861-.62,3.206,3.206,0,0,1,3.17,3.17,3.172,3.172,0,0,1-2.481,3.1,1.039,1.039,0,0,0-.827,1.034v26.6H46.076V38.283a1.257,1.257,0,0,0-.965-.965ZM58,64.951H52.553V39.11a5.176,5.176,0,0,0,3.308-4.893,5.235,5.235,0,0,0-5.237-5.237,5.1,5.1,0,0,0-2.481.62,5.1,5.1,0,0,0-2.481-.62,5.235,5.235,0,0,0-5.237,5.237,5.423,5.423,0,0,0,3.308,4.893V64.951H37.669c1.309-4.066.138-8.476-1.1-13.093-1.723-6.477-3.514-13.162,1.171-19.846a1.036,1.036,0,0,0-.069-1.309,1.159,1.159,0,0,0-1.309-.207c-.758.413-6.34,1.447-13.231,1.723-8.062.345-12.128-.482-13.3-1.516v-6H33.19a5.176,5.176,0,0,0,4.893,3.308,5.235,5.235,0,0,0,5.237-5.237A5.1,5.1,0,0,0,42.7,20.3a5.1,5.1,0,0,0,.62-2.481,5.235,5.235,0,0,0-5.237-5.237,5.423,5.423,0,0,0-4.893,3.308H9.967V6.929l38.727,3.583a9.544,9.544,0,0,0,7.649,15.3A10.172,10.172,0,0,0,61.1,24.57c0,.413.069.827.069,1.24,1.1,13.989,2.067,27.012-3.17,39.14Z" transform="translate(-7.9 -5)"/>
        </g>
      </g>
    </g>
  </g>
</svg>
