<svg xmlns="http://www.w3.org/2000/svg" xmlns:xlink="http://www.w3.org/1999/xlink" width="521" height="279.184" viewBox="0 0 521 279.184">
  <defs>
    <clipPath id="clip-path">
      <rect id="Rectángulo_402151" data-name="Rectángulo 402151" width="521" height="279.184" transform="translate(855.414 974.788)" fill="#d2e1f1" stroke="#707070" stroke-width="1"/>
    </clipPath>
    <clipPath id="clip-path-2">
      <rect id="Rectángulo_402440" data-name="Rectángulo 402440" width="142.885" height="142.885" fill="none"/>
    </clipPath>
    <clipPath id="clip-path-3">
      <rect id="Rectángulo_402442" data-name="Rectángulo 402442" width="16.097" height="16.097" fill="none"/>
    </clipPath>
    <clipPath id="clip-path-4">
      <rect id="Rectángulo_404490" data-name="Rectángulo 404490" width="242.663" height="242.663" fill="none"/>
    </clipPath>
  </defs>
  <g id="Grupo_1104021" data-name="Grupo 1104021" transform="translate(675.376 11507.163)">
    <g id="Grupo_1104005" data-name="Grupo 1104005" transform="translate(-1530.79 -12481.951)">
      <path id="Trazado_884941" data-name="Trazado 884941" d="M0,0H521V279.184H0Z" transform="translate(855.414 974.788)" fill="#fff"/>
      <g id="Enmascarar_grupo_1099693" data-name="Enmascarar grupo 1099693" clip-path="url(#clip-path)">
        <g id="Elipse_11618" data-name="Elipse 11618" transform="translate(1340.633 1213.788)" fill="none" stroke="#d7f38d" stroke-width="10">
          <circle cx="31.5" cy="31.5" r="31.5" stroke="none"/>
          <circle cx="31.5" cy="31.5" r="26.5" fill="none"/>
        </g>
        <circle id="Elipse_11635" data-name="Elipse 11635" cx="94.5" cy="94.5" r="94.5" transform="translate(1312.633 930.472)" fill="#d7f38d"/>
        <g id="Trazado_884972" data-name="Trazado 884972" transform="translate(826.633 1184.972)" fill="none">
          <path d="M33,0C51.225,0,66,14.551,66,32.5S51.225,65,33,65,0,50.449,0,32.5,14.775,0,33,0Z" stroke="none"/>
          <path d="M 33 14 C 22.52336502075195 14 14 22.29906845092773 14 32.5 C 14 42.70093154907227 22.52336502075195 51 33 51 C 43.47663879394531 51 52 42.70093154907227 52 32.5 C 52 22.29906845092773 43.47663879394531 14 33 14 M 33 0 C 51.22538757324219 0 66 14.55075073242188 66 32.5 C 66 50.44924926757812 51.22538757324219 65 33 65 C 14.77461242675781 65 0 50.44924926757812 0 32.5 C 0 14.55075073242188 14.77461242675781 0 33 0 Z" stroke="none" fill="#3e8ff2"/>
        </g>
        <g id="Grupo_1101113" data-name="Grupo 1101113" transform="translate(1294.747 1159.788)">
          <g id="Grupo_1101112" data-name="Grupo 1101112" clip-path="url(#clip-path-2)">
            <path id="Trazado_875944" data-name="Trazado 875944" d="M138.375,138.375h0a13.606,13.606,0,0,1-19.243,0L4.485,23.729A13.608,13.608,0,0,1,23.729,4.485L138.375,119.132A13.606,13.606,0,0,1,138.375,138.375Z" transform="translate(0.012 0.012)" fill="none" stroke="#fff" stroke-miterlimit="10" stroke-width="1"/>
          </g>
        </g>
        <g id="Grupo_1101117" data-name="Grupo 1101117" transform="translate(1340.633 1092.862)">
          <g id="Grupo_1101116" data-name="Grupo 1101116" clip-path="url(#clip-path-3)">
            <circle id="Elipse_11620" data-name="Elipse 11620" cx="7.207" cy="7.207" r="7.207" transform="translate(0.841 0.842)" fill="none" stroke="#fff" stroke-miterlimit="10" stroke-width="1"/>
          </g>
        </g>
      </g>
      <g id="Grupo_1104007" data-name="Grupo 1104007" transform="translate(1007.038 990.021)">
        <g id="Grupo_1104007-2" data-name="Grupo 1104007" clip-path="url(#clip-path-4)">
          <path id="Trazado_884990" data-name="Trazado 884990" d="M243.8,123.472A120.329,120.329,0,1,1,123.471,3.143,120.329,120.329,0,0,1,243.8,123.472" transform="translate(-2.139 -2.14)" fill="#f1f3fc"/>
          <path id="Trazado_884991" data-name="Trazado 884991" d="M232.571,10.755q-5.835,46.653-7.247,93.625a.411.411,0,0,0,.8.131l.562-1.849a.409.409,0,0,1,.79.029l2.942,13a.409.409,0,0,0,.8-.029L233.9,97.978a.409.409,0,0,1,.809,0l1.413,8.973a.409.409,0,0,0,.786.082l2.1-5.5a.409.409,0,0,1,.783.065l2.446,12.041a.409.409,0,0,0,.8-.01l1.8-10.212a.409.409,0,0,1,.8-.011l1.53,7.421a.409.409,0,0,0,.805-.022l2.167-14.511a.409.409,0,0,1,.8-.049l2.344,8.419a.409.409,0,0,0,.791-.012l1.417-5.746a.409.409,0,0,1,.794,0l2.17,8.679a.409.409,0,0,0,.786.029l2.385-7.243a.409.409,0,0,1,.787.032l1.023,4.239a.409.409,0,0,0,.787.031l2.609-8a.409.409,0,0,1,.8.08l1.7,14.994a.409.409,0,0,0,.806.042l1.969-8.863a.409.409,0,0,1,.8.005l2.218,10.643a.409.409,0,0,0,.8-.011l3.132-17.321a.409.409,0,0,1,.8-.009l3.448,16.847a.409.409,0,0,0,.8.011l2.082-8.871a.409.409,0,0,1,.774-.068l4.178,9.715a.409.409,0,0,0,.779-.094l3.051-18.3a.409.409,0,0,1,.8-.015l3.293,15.977a.409.409,0,0,0,.8,0l2.429-11.213a.409.409,0,0,1,.788-.043l2.855,8.567a.409.409,0,0,0,.784-.026l3.591-13.664a.409.409,0,0,1,.8.015l4.36,19.619a.409.409,0,0,0,.8.013l2.854-11.141a.409.409,0,0,1,.8.035l1.13,6.849a.409.409,0,0,0,.81-.024l1.095-10.5a.409.409,0,0,1,.807-.042.41.41,0,0,0,.811-.109A312.135,312.135,0,0,0,304.289,6.8a120.872,120.872,0,0,0-71.718,3.956" transform="translate(-153.428 -2.14)" fill="#c1c8f8"/>
          <path id="Trazado_884992" data-name="Trazado 884992" d="M322.106,416.107l-.679,2.39a.552.552,0,0,1-1.079-.1l-1.593-15.758a.552.552,0,0,0-1.094-.032l-1.994,12.349a.552.552,0,0,1-1.086.019l-2.044-10.367a.552.552,0,0,0-1.091.06l-1.325,15.568a.552.552,0,0,1-1.085.085l-2.212-8.991a.552.552,0,0,0-1.084.073l-.843,7.845a.552.552,0,0,1-1.091.043l-3.241-17.256a.552.552,0,0,0-1.086.006l-2.043,11.549a.552.552,0,0,1-1.088-.013l-1.129-7.46a.551.551,0,0,0-1.091,0l-1.973,13.414a.551.551,0,0,1-1.09.007l-3.11-19.459a.552.552,0,0,0-1.091.008l-2.721,18.7a.552.552,0,0,1-1.091.008l-1.128-7.049a.552.552,0,0,0-1.095.043L279.8,424.783a.552.552,0,0,1-1.09.071l-2.088-9.791a.552.552,0,0,0-1.086.036l-1.006,6.915a.552.552,0,0,1-1.089.017l-3.617-20.438a.552.552,0,0,0-1.091.029l-1.486,12.036a.552.552,0,0,1-1.093.015l-1.117-7.346a.552.552,0,0,0-1.092.011l-1.624,12.447a.552.552,0,0,1-1.087.042l-1.774-8.447a.552.552,0,0,0-1.084.019l-1.032,5.962a.552.552,0,0,1-1.092-.033L254.7,402.435a.552.552,0,0,0-1.092-.028l-2.716,16.533a.552.552,0,0,1-1.094-.05l-.341-4.81a.552.552,0,0,0-1.1-.025l-.876,7.593a.552.552,0,0,1-1.1-.016l-1.3-15.168a.552.552,0,0,0-1.1-.03l-1.536,10.886a.551.551,0,0,1-1.093-.008l-1.886-14.855a.552.552,0,0,0-1.093-.011l-2.2,14.992a.552.552,0,0,1-1.089.017l-1.018-5.679a.552.552,0,0,0-1.092.041l-1.158,11.241a.552.552,0,0,1-1.1.01l-2.361-19.437a.552.552,0,0,0-1.1.027l-.95,13.158a.552.552,0,0,1-1.079.118.553.553,0,0,0-1.083.165q.561,44.084,5.024,88.054a120.844,120.844,0,0,0,77.442,4.13l11.81-59.6a311.878,311.878,0,0,0,4.755-33.385.552.552,0,0,0-1.08-.2" transform="translate(-152.633 -272.112)" fill="#c1c8f8"/>
          <path id="Trazado_884993" data-name="Trazado 884993" d="M322.435,414.852a.644.644,0,0,0-.492.22.735.735,0,0,0-.131.242l-.069.224-.537,1.779c-.045.141-.089.313-.134.428a.356.356,0,0,1-.231.215.379.379,0,0,1-.5-.277l-.164-1.829-.656-7.4-.328-3.7-.164-1.851-.082-.926-.01-.115c-.009-.06-.021-.122-.034-.183a.92.92,0,0,0-.885-.662.952.952,0,0,0-.71.3,1.165,1.165,0,0,0-.256.628l-.16.915-.312,1.832-.622,3.664-.622,3.665-.311,1.832c-.077.438-.045.272-.08.314a.058.058,0,0,1-.047-.008s0,0,0,0,0-.014-.013-.055l-1.38-7.3-.345-1.826-.173-.913a2.589,2.589,0,0,0-.152-.591,1.13,1.13,0,0,0-.738-.612,1.2,1.2,0,0,0-.915.134,1.149,1.149,0,0,0-.525.8c-.015.092-.015.116-.019.156l-.011.116-.021.231-.043.463-.172,1.85-.664,7.4-.327,3.7-.081.914-1.662-6.853-.219-.9-.109-.451a1.266,1.266,0,0,0-.636-.824,1.287,1.287,0,0,0-1.018-.076,1.243,1.243,0,0,0-.765.732,2.66,2.66,0,0,0-.116.64l-.051.462-.409,3.694-.2,1.847-.021.189-.2-1.088c-.888-4.875-1.819-9.743-2.748-14.61l-.043-.228a1.38,1.38,0,0,0-.2-.491,1.3,1.3,0,0,0-.922-.565,1.318,1.318,0,0,0-1.014.3,1.252,1.252,0,0,0-.336.449,1.622,1.622,0,0,0-.114.4l-.319,1.831-.638,3.662-.638,3.661-.228,1.308-.1-.629-.293-1.835-.586-3.67a2.648,2.648,0,0,0-.143-.621,1.185,1.185,0,0,0-.763-.661,1.235,1.235,0,0,0-.961.12,1.2,1.2,0,0,0-.565.818l-.261,1.865-.511,3.682-1.021,7.363-.064.46-.016.11s0,.008,0,.011l-.026,0s0,0,0,0-.008-.02-.015-.067l-.019-.115-.077-.458-.154-.916-.618-3.665-1.235-7.33-.618-3.665-.309-1.833-.154-.916-.077-.458a.906.906,0,0,0-1.7-.3,1.068,1.068,0,0,0-.1.332l-.033.23-.065.46-.261,1.84-.523,3.68L284.4,412.9l-.523,3.68-.131.92-.065.46a.3.3,0,0,1-.1.219.288.288,0,0,1-.4-.062.408.408,0,0,1-.041-.118l-.037-.229-.075-.459-.6-3.668-.293-1.835c-.054-.319-.083-.584-.158-.946a.783.783,0,0,0-.434-.514.863.863,0,0,0-.66-.017.8.8,0,0,0-.465.493,2.746,2.746,0,0,0-.068.522l-.076.926-.152,1.852-.3,3.7-.3,3.7-.152,1.852-.038.463c-.013.186-.022.24-.059.293a.266.266,0,0,1-.37.037.259.259,0,0,1-.056-.079.4.4,0,0,0-.017-.056l-.024-.113-.1-.455-.192-.909-.383-1.818-.766-3.637-.376-1.82-.188-.91a1.058,1.058,0,0,0-.272-.593.905.905,0,0,0-.688-.254.9.9,0,0,0-.656.338.873.873,0,0,0-.162.34c-.033.139-.029.171-.046.261l-.14.919-.28,1.837-.56,3.674a2.654,2.654,0,0,1-.063.353.113.113,0,0,1-.083.068.167.167,0,0,1-.13-.016.127.127,0,0,1-.057-.094l-.311-1.824-1.245-7.328-1.238-7.33-.619-3.665-.039-.229c-.009-.047-.007-.058-.025-.133a1.192,1.192,0,0,0-.066-.214,1.105,1.105,0,0,0-.692-.624,1.177,1.177,0,0,0-.9.095,1.118,1.118,0,0,0-.542.757l-.252,1.882-.968,7.37-.237,1.843-.022.171-.038-.256-.27-1.839-.539-3.677-.067-.46-.034-.23a1.481,1.481,0,0,0-.037-.184,1.048,1.048,0,0,0-.088-.243,1.23,1.23,0,0,0-.818-.662,1.282,1.282,0,0,0-1,.159,1.261,1.261,0,0,0-.566.878l-.065.474-.125.921-1,7.366-.318,2.349-.158-.763-.753-3.639-.377-1.82-.195-.93a1.365,1.365,0,0,0-.686-.892,1.407,1.407,0,0,0-1.092-.083,1.364,1.364,0,0,0-.822.79,1.847,1.847,0,0,0-.074.262l-.021.118-.04.229-.161.915-.322,1.83-.158.893-.1-.917-.4-3.695-.4-3.695-.2-1.847-.1-.924-.05-.462-.025-.231-.012-.116a2.436,2.436,0,0,0-.049-.254,1.406,1.406,0,0,0-.781-.908,1.451,1.451,0,0,0-1.141-.023,1.4,1.4,0,0,0-.818.876,2.2,2.2,0,0,0-.059.242l-.019.115-.039.229-.306,1.833-.613,3.665-1.22,7.332-.045.277-.087-1.205-.034-.464a1.757,1.757,0,0,0-.025-.206,1.206,1.206,0,0,0-.078-.285,1.4,1.4,0,0,0-.355-.527,1.465,1.465,0,0,0-1.112-.385,1.434,1.434,0,0,0-1.058.573,1.41,1.41,0,0,0-.251.555,1.814,1.814,0,0,0-.035.208l-.013.115-.052.462-.106.923-.211,1.846-.09.786-.483-5.555-.322-3.7-.16-1.851-.041-.463-.01-.116a1.654,1.654,0,0,0-.026-.2,1.372,1.372,0,0,0-.224-.552,1.407,1.407,0,0,0-1.013-.6,1.43,1.43,0,0,0-1.106.336,1.353,1.353,0,0,0-.365.5,1.22,1.22,0,0,0-.087.273,1.583,1.583,0,0,0-.032.179l-.064.46-.129.92-.258,1.84-.515,3.681-.238,1.73-.932-7.044-.488-3.684-.244-1.842a1.692,1.692,0,0,0-.1-.412,1.253,1.253,0,0,0-.321-.468,1.313,1.313,0,0,0-1.008-.342,1.289,1.289,0,0,0-.946.524,1.257,1.257,0,0,0-.22.5,1.532,1.532,0,0,0-.03.167l-.016.115-1.99,14.079-.238-1.288L234.5,410.9a1.172,1.172,0,0,0-.556-.8,1.19,1.19,0,0,0-.938-.112,1.138,1.138,0,0,0-.735.64,1.03,1.03,0,0,0-.073.23,1.592,1.592,0,0,0-.028.183l-.022.231-.174,1.85-.349,3.7-.349,3.7-.166,1.743c-.006.011.007,0,0,.007s-.044.007-.053,0,0,.011-.012-.01,0,0-.009-.038l-.015-.115-.03-.23-.96-7.371-.968-7.37-.494-3.684-.062-.461a1.15,1.15,0,0,0-.2-.587.868.868,0,0,0-1.274-.086.9.9,0,0,0-.253.613l-.028.464-.055.928-.443,7.42-.221,3.71-.028.464a.552.552,0,0,1-.1.369.448.448,0,0,1-.651.039.406.406,0,0,1-.1-.156,1.026,1.026,0,0,0-.116-.233.62.62,0,0,0-.47-.254.643.643,0,0,0-.7.654l.174,0a.455.455,0,0,1,.51-.456.415.415,0,0,1,.316.179.807.807,0,0,1,.084.185.615.615,0,0,0,.142.236.678.678,0,0,0,1-.039.8.8,0,0,0,.162-.5l.039-.463.314-3.7.629-7.407.079-.926.039-.463a.3.3,0,0,1,.083-.226.269.269,0,0,1,.375.03c.035.051.044.1.063.29l.05.462.4,3.7.824,7.388.832,7.387.026.231.013.115a1.9,1.9,0,0,0,.037.19,1.021,1.021,0,0,0,.572.67,1.091,1.091,0,0,0,.85.02,1.047,1.047,0,0,0,.61-.649,1.659,1.659,0,0,0,.046-.208l.015-.125.026-.231.052-.462.1-.923.413-3.694.413-3.694.18-1.609.542,3.151.318,1.831.02.114c.01.049.005.051.03.149a1.2,1.2,0,0,0,1.1.938,1.22,1.22,0,0,0,.938-.33,1.179,1.179,0,0,0,.293-.437,1.359,1.359,0,0,0,.066-.237l.022-.133,2.033-13.362.049.4.449,3.689.9,7.379.225,1.845a1.411,1.411,0,0,0,.542.969,1.426,1.426,0,0,0,1.094.261,1.4,1.4,0,0,0,.963-.661,1.545,1.545,0,0,0,.182-.529l.033-.23.533-3.679.524-3.679.063-.44.281,3.324.626,7.407.078.926.039.463.01.115a1.612,1.612,0,0,0,.023.183,1.39,1.39,0,0,0,.213.56,1.427,1.427,0,0,0,1.016.635,1.473,1.473,0,0,0,1.123-.314,1.426,1.426,0,0,0,.384-.5,1.284,1.284,0,0,0,.1-.28,2.007,2.007,0,0,0,.037-.216l.054-.461.384-3.289.028.41.033.464.008.116a2.672,2.672,0,0,0,.043.272,1.464,1.464,0,0,0,2.8.129,2.555,2.555,0,0,0,.068-.266l.019-.115.076-.458.152-.917.3-1.833,1.189-7.337.564-3.5.561,4.9.424,3.692.212,1.846.106.923a1.605,1.605,0,0,0,.319.874,1.405,1.405,0,0,0,2.078.086,1.38,1.38,0,0,0,.309-.5,2.349,2.349,0,0,0,.062-.245l.019-.115.156-.916.311-1.832.295-1.735.291,1.364.775,3.635.387,1.818.048.227a1.813,1.813,0,0,0,.05.19,1.154,1.154,0,0,0,.109.252,1.307,1.307,0,0,0,.905.646,1.33,1.33,0,0,0,1.582-1.159l.463-3.688.923-7.376.028-.224.514,3.267.289,1.836.145.918.018.115a1.59,1.59,0,0,0,.034.172,1.166,1.166,0,0,0,.22.46,1.2,1.2,0,0,0,.893.46,1.214,1.214,0,0,0,.928-.345,1.164,1.164,0,0,0,.282-.44,1.292,1.292,0,0,0,.061-.235c.016-.087.012-.09.019-.139l.109-.923.218-1.846.854-7.384.195-1.668.034.186.677,3.655,1.353,7.309,1.346,7.31.339,1.836a.952.952,0,0,0,.458.643.98.98,0,0,0,.767.083.926.926,0,0,0,.589-.527,2.4,2.4,0,0,0,.113-.556l.51-3.682.255-1.841.127-.92c.01-.062.023-.186.031-.2a.172.172,0,0,1,.032-.076.2.2,0,0,1,.145-.074.214.214,0,0,1,.16.051c.041.045.048.054.088.245l.2.907.4,1.815.784,3.633.392,1.816.2.908.1.454.025.114c.016.056.032.111.052.165a.855.855,0,0,0,1.484.154,1.108,1.108,0,0,0,.165-.594l.036-.463.142-1.853.286-3.705.285-3.706.143-1.853.071-.927a3.143,3.143,0,0,1,.041-.4.257.257,0,0,1,.15-.161.282.282,0,0,1,.387.176c.049.243.1.594.149.886l.294,1.835.575,3.672.071.459.036.229a.955.955,0,0,0,.112.318.845.845,0,0,0,1.225.22.867.867,0,0,0,.316-.583l.068-.459.137-.919.548-3.676,1.1-7.352.548-3.676.274-1.838.068-.459.034-.23a.352.352,0,0,1,.032-.112.211.211,0,0,1,.293-.056c.042.031.061.056.075.147l.069.459.139.919.278,1.838.555,3.675,1.11,7.35.555,3.675.139.919.07.459.018.115a1.2,1.2,0,0,0,.032.16,1.037,1.037,0,0,0,.2.406,1.1,1.1,0,0,0,1.621.1,1.081,1.081,0,0,0,.251-.392,1.821,1.821,0,0,0,.055-.211l.019-.119.071-.459,1.142-7.345.57-3.672.172-1.1.468,3.272.263,1.84.136.919.069.459.034.23a1.781,1.781,0,0,0,.043.2,1.237,1.237,0,0,0,.937.882,1.266,1.266,0,0,0,1.539-1.047l.082-.457.328-1.829.657-3.658.657-3.658.147-.816c.847,4.586,1.694,9.172,2.581,13.751l.349,1.825.087.456.022.114a2.24,2.24,0,0,0,.063.228,1.3,1.3,0,0,0,.3.469,1.316,1.316,0,0,0,1.947-.1,1.519,1.519,0,0,0,.289-.826l.048-.462.1-.924.193-1.848.366-3.514.106.424,1.8,7.212.056.225.028.113c.012.045.011.054.042.15a1.234,1.234,0,0,0,.679.766,1.285,1.285,0,0,0,.99,0,1.226,1.226,0,0,0,.69-.764,1.515,1.515,0,0,0,.049-.242l.012-.13.019-.231.038-.463.076-.926.3-3.7.6-7.409.143-1.853.041-.516.176.855.374,1.82,1.5,7.282a1.056,1.056,0,0,0,1.3.851,1.026,1.026,0,0,0,.685-.542.9.9,0,0,0,.076-.2,1.287,1.287,0,0,0,.034-.165l.035-.229.282-1.837.564-3.674.564-3.673.28-1.837.137-.919c.028-.2.033-.192.055-.232a.173.173,0,0,1,.12-.051.177.177,0,0,1,.13.047.184.184,0,0,1,.035.055.186.186,0,0,0,.01.046l.013.115.1.923.21,1.846.419,3.693.839,7.386c.075.625.129,1.211.222,1.867a.722.722,0,0,0,.947.506.677.677,0,0,0,.414-.409c.06-.175.085-.306.13-.462l.479-1.8a1.065,1.065,0,0,1,.143-.389.434.434,0,0,1,.325-.156.45.45,0,0,1,.474.488l.173.015a.641.641,0,0,0-.649-.707m-89.028-3.713h0c0-.008,0-.01,0-.01s0,0,0,.009m2.152,5.438,0,.006c0,.008,0,0,0-.006m3.379-14.755c0-.014,0-.02,0-.006l0,.006m3.066,14.6c0,.012.005.018,0,.01Zm2.018-10.6,0,0c0-.023,0-.017,0,0m.642.016c0-.02.006-.031,0-.009l0,.009m1.74,14.93v0c0,.041-.006.017,0,0m.682.013,0,.008c0,.024,0,.012,0-.008m1.278-7.352v0c0-.022,0-.02,0,0m.7.013v0c0-.025.005-.023,0,0m.737,4.574,0,.023s0-.01,0-.023m.715.056,0-.024c0,.013,0,.026,0,.024m3.768-16.235,0-.01c.007-.039,0,0,0,.01m2.049,13.612,0,.01c0,.019,0,0,0-.01m5.475,2.45v0c0,.013,0,.011,0,0m2.335-12.193s0-.008,0-.009,0-.005,0,.009m2.481,7.112,0,0c0,.009,0,.007,0,0m24.8,5.908,0,0c.008,0,0,0,0,0m5.435-6.016,0,0s0,.021,0,0m14.894-8.727v0c0-.018,0-.014,0,0" transform="translate(-152.444 -271.359)" fill="#de5653"/>
          <path id="Trazado_884994" data-name="Trazado 884994" d="M361.743,143.1l-.108-12.708c-.032-4.236-.145-8.471-.23-12.706-.4-16.937-1.09-33.874-2.455-50.761q.557,25.4.585,50.785.025,14.788-.1,29.574l.892,7.883a.409.409,0,0,0,.806.042l.574-2.581q.025-4.764.036-9.529" transform="translate(-244.418 -45.573)" fill="#a9a4e1"/>
          <path id="Trazado_884995" data-name="Trazado 884995" d="M401.888,554.833,399.3,574.208l-.711,5.613c.805-.039,1.607-.09,2.409-.144l.687-5.159,2.452-19.391c.775-6.47,1.589-12.933,2.319-19.409,1.5-12.945,2.923-25.9,4.108-38.886-2.172,12.858-4.109,25.746-5.963,38.645-.95,6.447-1.813,12.9-2.717,19.357" transform="translate(-271.412 -338.304)" fill="#a9a4e1"/>
          <path id="Trazado_884996" data-name="Trazado 884996" d="M288.656,596.879l-.358-10.5c-.162-3.5-.284-7-.492-10.494-.371-6.994-.826-13.987-1.518-20.972-.3,7.013-.369,14.02-.352,21.024-.014,3.5.059,7,.091,10.5l.225,10.5q.255,9.521.749,19.036c.654.162,1.308.325,1.967.477q-.044-9.793-.312-19.58" transform="translate(-194.699 -377.856)" fill="#a9a4e1"/>
          <path id="Trazado_884997" data-name="Trazado 884997" d="M406.452,11.168l1.467,6.864c.489,2.287.98,4.574,1.421,6.871s.958,4.578,1.39,6.876l1.307,6.89c.44,2.3.832,4.6,1.25,6.9.2,1.151.42,2.3.61,3.452l.552,3.461.572,3.458c.194,1.153.385,2.306.535,3.464q.474,3.471,1,6.939c1.206,9.269,2.164,18.563,2.656,27.94a192.961,192.961,0,0,0-.791-28.156q-.369-3.5-.776-7.008c-.123-1.169-.287-2.332-.454-3.5l-.49-3.49-.511-3.488c-.182-1.16-.391-2.316-.585-3.474-.4-2.314-.773-4.635-1.2-6.943l-1.369-6.911c-.22-1.153-.477-2.3-.721-3.447l-.749-3.441c-.5-2.294-1.047-4.577-1.592-6.86l-.819-3.424-.88-3.409q-.849-3.34-1.767-6.662c-.546-.043-1.1-.075-1.643-.11q.8,3.6,1.59,7.2" transform="translate(-275.68 -2.699)" fill="#a9a4e1"/>
          <path id="Trazado_884998" data-name="Trazado 884998" d="M276.747,13.6q-1,9.156-1.807,18.33c-.564,6.167-1.028,12.341-1.493,18.516-.244,3.087-.412,6.179-.616,9.268s-.394,6.18-.563,9.272l-.465,9.277-.4,9.281c-.128,3.093-.191,6.19-.289,9.285s-.186,6.19-.211,9.287l-.034,2.7,1.469,7.234q.21-4.936.442-9.87l.441-9.266c.154-3.088.274-6.178.459-9.265l.467-9.264.518-9.262c.149-3.088.325-6.176.506-9.262l.539-9.261,1.091-18.524,1.128-18.759c-.4.094-.791.191-1.186.289" transform="translate(-184.444 -9.064)" fill="#a9a4e1"/>
          <path id="Trazado_884999" data-name="Trazado 884999" d="M319.258,409.384q-.045,2.215-.09,4.429l-.148,9.72-.083,9.72c0,3.241-.032,6.481-.014,9.721q0,9.722.24,19.446.466-9.716.7-19.435c.094-3.239.143-6.479.215-9.719l.146-9.72.043-5.147Z" transform="translate(-217.158 -278.759)" fill="#a9a4e1"/>
          <path id="Trazado_885000" data-name="Trazado 885000" d="M326.955,6.367l-.145,4.7-.236,9.759c-.056,3.254-.135,6.507-.168,9.761q-.15,9.761-.066,19.53.618-9.749,1.005-19.5c.145-3.251.245-6.5.368-9.756l.3-9.757.118-4.9c-.393.05-.783.11-1.175.164" transform="translate(-222.192 -4.224)" fill="#a9a4e1"/>
          <path id="Trazado_885001" data-name="Trazado 885001" d="M404.464,271.532c-.18-2.826-.379-5.651-.632-8.471-.49-5.641-1.139-11.269-2.01-16.863.188,2.825.412,5.643.565,8.467l.513,8.463c.142,2.822.316,5.642.43,8.464.069,1.411.136,2.821.189,4.233.037.992.079,1.983.115,2.975a.409.409,0,0,0,.666-.216l.438-1.866c-.015-.315-.031-.631-.045-.946-.066-1.414-.128-2.829-.228-4.241" transform="translate(-273.61 -167.643)" fill="#a9a4e1"/>
          <path id="Trazado_885002" data-name="Trazado 885002" d="M465.824,474.582l.748-5.115.681-5.125c.236-1.707.4-3.423.608-5.135l.293-2.569.261-2.573c.16-1.716.339-3.431.48-5.149l.411-5.155c.122-1.52.195-3.044.286-4.566l-.773-3.142a.56.56,0,0,0-.058-.131c-.429,6.015-.915,12.025-1.541,18.023l-.246,2.568-.279,2.564c-.19,1.709-.363,3.42-.569,5.128l-.6,5.125-.632,5.122-.667,5.118-.7,5.115c-.448,3.414-.968,6.816-1.475,10.224,1.5-6.727,2.724-13.514,3.764-20.328" transform="translate(-314.628 -296.83)" fill="#a9a4e1"/>
          <path id="Trazado_885003" data-name="Trazado 885003" d="M121.332,242.663A121.331,121.331,0,0,1,35.538,35.537,121.331,121.331,0,0,1,207.126,207.125a120.536,120.536,0,0,1-85.794,35.537m0-240.657A119.326,119.326,0,1,0,240.658,121.331,119.461,119.461,0,0,0,121.332,2.005" transform="translate(-0.001 0)" fill="#f1f3fc"/>
          <path id="Trazado_885004" data-name="Trazado 885004" d="M324.309,293.7a.315.315,0,0,1-.381.325.28.28,0,0,1-.211-.16c-.028-.059-.054-.266-.183-.364a.533.533,0,0,0-.821.138,1.3,1.3,0,0,0-.084.406l-.044.37-.356,2.962-.712,5.924-.089.741-.022.185-.011.089c-.005.01,0,.024-.009.032a.094.094,0,0,1-.07.058.124.124,0,0,1-.1-.017c-.025-.024-.024-.014-.042-.109l-.11-.737-.44-2.951-.445-2.95-.029-.184a.851.851,0,0,0-.129-.335.827.827,0,0,0-1.3-.082.844.844,0,0,0-.175.326l-.05.186-.386,1.441-1.543,5.763-.772,2.882-.074.277-.087-.41-2.48-11.672L311.892,290l-.157-.729-.078-.364c-.011-.044,0-.031-.029-.121a1.136,1.136,0,0,0-.435-.632,1.152,1.152,0,0,0-.973-.169,1.133,1.133,0,0,0-.75.684,1.594,1.594,0,0,0-.053.164l-.024.09-.048.18-.1.36-.777,2.88-1.554,5.76-.777,2.88-.023.084-1.553-4.747-.47-1.416-.235-.708-.117-.354a1.348,1.348,0,0,0-.258-.46,1.267,1.267,0,0,0-.486-.345,1.281,1.281,0,0,0-1.547.479,1.348,1.348,0,0,0-.132.26c-.029.079-.06.209-.06.209l-.159.729-.318,1.457L299.511,302l-.2.936L297.049,291.9l-.3-1.461-.15-.731-.075-.365-.019-.091c-.012-.049,0-.018-.032-.138a1.314,1.314,0,0,0-.274-.527,1.328,1.328,0,0,0-2.1.117,1.373,1.373,0,0,0-.213.535l-.031.184-.062.368-.248,1.471-.965,5.887-.959,5.889-.48,2.944-.007.042-1.9-4.368-1.189-2.736-.3-.684-.149-.342-.094-.209a1.229,1.229,0,0,0-2.235.072,1.81,1.81,0,0,0-.067.215l-.021.091-.042.182-.084.363-1.342,5.813-.176.764-.143-.677-2.468-11.675-.308-1.459-.154-.729-.077-.365-.039-.182-.023-.1a1.1,1.1,0,0,0-.076-.221,1.062,1.062,0,0,0-.757-.594,1.084,1.084,0,0,0-.906.226,1.057,1.057,0,0,0-.3.4,1.25,1.25,0,0,0-.067.222l-.018.1-.064.367-.256,1.47-1,5.881-1,5.881-.5,2.941-.053.31-.147-.676-1.267-5.83-.633-2.915-.158-.729a.986.986,0,0,0-.1-.283.758.758,0,0,0-.249-.273.814.814,0,0,0-.686-.1.781.781,0,0,0-.509.488,1.88,1.88,0,0,0-.057.227l-.039.182-.156.729-1.246,5.835-.319,1.457-.079.364-.04.182a.132.132,0,0,1-.019.043c-.01.042-.13.037-.147,0a.083.083,0,0,1-.016-.04c-.006-.012-.014-.11-.021-.16l-.043-.37-.086-.741-.173-1.482-1.379-11.852-.043-.37a.672.672,0,0,0-.871-.592.658.658,0,0,0-.431.408l-.467,1.428-.937,2.832-.936,2.832-.234.708c-.1.315-.09.277-.184.3a.107.107,0,0,1-.089-.042.133.133,0,0,1-.024-.057l-.043-.182-.172-.726-.688-2.9-.086-.363a.891.891,0,0,0-.1-.261.692.692,0,0,0-.231-.239.731.731,0,0,0-.629-.074.723.723,0,0,0-.452.456l-.473,1.416-1.9,5.657-.057.163a.054.054,0,0,1-.013.019.059.059,0,0,1-.041.006c-.019-.007-.022-.01-.025-.019s0-.008,0-.012-.013-.054-.02-.079l-.043-.181-.347-1.451-.693-2.9-.693-2.9-.174-.725-.086-.362-.021-.091a1.412,1.412,0,0,0-.057-.168.881.881,0,0,0-1.6.01,1.711,1.711,0,0,0-.055.164l-.023.09-.047.181-.093.361-.745,2.889-.373,1.444-.064.249-.161-.6-.385-1.441-.771-2.882-.771-2.882-.024-.09a1.262,1.262,0,0,0-.044-.14,1.048,1.048,0,0,0-2,.083,1.45,1.45,0,0,0-.035.167l-.029.184-.236,1.473-.932,5.893-.771,5.05-.382-1.883-.593-2.923-.148-.731a1.36,1.36,0,0,0-.04-.161,1.1,1.1,0,0,0-.1-.241,1.136,1.136,0,0,0-.379-.4,1.2,1.2,0,0,0-1.012-.131,1.174,1.174,0,0,0-.75.745,2.093,2.093,0,0,0-.066.291l-.033.183-.132.734-1.022,5.878-.268,1.558-1.152-5.554-.606-2.921-.3-1.461-.078-.374a1.1,1.1,0,0,0-1.565-.752,1.059,1.059,0,0,0-.391.326,1.286,1.286,0,0,0-.172.332l-1.054,2.791-.527,1.4-.14.371-.175-1.081-.485-2.943-.493-2.942-.123-.736-.031-.184-.015-.092a1.4,1.4,0,0,0-.034-.156.978.978,0,0,0-.6-.658,1.016,1.016,0,0,0-.854.064,1,1,0,0,0-.486.722l-.1.739-1.669,11.815-.418,2.953-.208,1.477-.1.724c-.007.018.008,0,0,.009s-.024.007-.029.007l-1.33-5.449-1.406-5.8-.354-1.449-.045-.181a1.106,1.106,0,0,0-.066-.212.563.563,0,0,0-.4-.31.573.573,0,0,0-.482.124.72.72,0,0,0-.21.4l-.4,1.435c-.034.112-.067.256-.1.342a.279.279,0,0,1-.2.167.316.316,0,0,1-.391-.311l-.173-.005a.5.5,0,0,0,.174.4.539.539,0,0,0,.429.111.494.494,0,0,0,.362-.274c.061-.144.083-.243.127-.367l.462-1.418c.044-.134.063-.206.126-.249a.258.258,0,0,1,.218-.044.228.228,0,0,1,.16.135.843.843,0,0,1,.036.146l.037.183.3,1.46,1.227,5.839.614,2.92.307,1.46.153.73.077.365a.794.794,0,0,0,.437.549.82.82,0,0,0,.692-.007.793.793,0,0,0,.433-.566l.127-.75.239-1.473.476-2.945,1.839-11.391.424,2.879.442,2.95.226,1.474.056.369.028.184a1.09,1.09,0,0,0,.177.444,1.077,1.077,0,0,0,1.7.085,1.092,1.092,0,0,0,.132-.2,1.371,1.371,0,0,0,.067-.152l.067-.174.135-.348.269-.7.538-1.391.75-1.938.174.871.582,2.926,1.164,5.852.3,1.481a1.149,1.149,0,0,0,.647.793,1.17,1.17,0,0,0,.995-.02,1.158,1.158,0,0,0,.616-.819l.068-.375.53-2.936.906-5.059.389,1.858.612,2.919.153.73a1.39,1.39,0,0,0,.119.364,1.133,1.133,0,0,0,.35.409,1.166,1.166,0,0,0,.984.17,1.139,1.139,0,0,0,.764-.693,1.374,1.374,0,0,0,.063-.239l.015-.1.027-.184.108-.738.862-5.9.831-5.908.085-.613.563,1.946.829,2.866.414,1.433.207.717.1.358a.952.952,0,0,0,1.853-.042l.171-.726.342-1.452.684-2.9.1-.418.059.226.189.721.754,2.886.754,2.886.377,1.443.047.181.028.1a.732.732,0,0,0,.066.16.764.764,0,0,0,.565.39.759.759,0,0,0,.834-.5l.062-.19,1.837-5.676.46-1.418a.093.093,0,0,1,.139-.049.059.059,0,0,1,.025.025c.009.016.008.01.028.089l.089.362.712,2.9.178.724.045.181a.74.74,0,0,0,.131.278.707.707,0,0,0,1.115,0,.873.873,0,0,0,.123-.254l.057-.177.228-.71.913-2.84.913-2.84.46-1.407a.145.145,0,0,1,.28.06l.041.37,1.3,11.861.163,1.482.081.742.04.37c.01.072.007.1.027.209a.707.707,0,0,0,.13.3.731.731,0,0,0,1.15.009.77.77,0,0,0,.137-.292l.041-.182.082-.364.328-1.455,1.342-5.813.168-.726.042-.182c.012-.051.034-.15.033-.134.006-.015,0,0,.01-.008s.03,0,.028.005,0,0,0,0,0-.012.016.071l.146.731.584,2.926,1.167,5.851.145.732.073.368a.9.9,0,0,0,.488.626.918.918,0,0,0,.779,0,.9.9,0,0,0,.494-.63l.143-.744.559-2.93,1.119-5.86,1.118-5.86.116-.617.3,1.532,2.317,11.7.289,1.463.145.732.018.092a1.363,1.363,0,0,0,.038.157,1.187,1.187,0,0,0,2.263.05,1.621,1.621,0,0,0,.048-.167l.043-.181.173-.726.346-1.451,1.251-5.245.015.034,1.168,2.745,2.337,5.49.073.172.036.086c.018.038.009.028.063.135a1.267,1.267,0,0,0,.9.674,1.286,1.286,0,0,0,1.067-.3,1.269,1.269,0,0,0,.34-.482,1.423,1.423,0,0,0,.075-.266l.016-.092.251-1.471.5-2.941,1-5.881.887-5.235.012.058,2.425,11.683.3,1.46.019.092s.037.153.063.221a1.286,1.286,0,0,0,.335.5,1.308,1.308,0,0,0,1.087.325,1.292,1.292,0,0,0,.943-.678,1.211,1.211,0,0,0,.1-.265c.032-.117.02-.085.032-.135l.039-.182.628-2.916,1.255-5.833.121-.562.3.888,1.918,5.649.12.353a1.475,1.475,0,0,0,.188.387,1.214,1.214,0,0,0,.435.376,1.238,1.238,0,0,0,1.771-.793l.37-1.445.739-2.89,1.478-5.78.585-2.291,1.3,5.689,2.7,11.624.169.727.042.182.028.113a.931.931,0,0,0,.078.2.953.953,0,0,0,.695.5.967.967,0,0,0,.8-.24.926.926,0,0,0,.242-.362,1.268,1.268,0,0,0,.046-.149l.022-.091.177-.724.709-2.9,1.419-5.8.354-1.449.037-.15.029.162.525,2.936.532,2.936.132.734a.733.733,0,0,0,.319.515.72.72,0,0,0,.61.078.683.683,0,0,0,.445-.44.9.9,0,0,0,.032-.149l.009-.1.016-.186.066-.743.526-5.943.263-2.972.033-.372a1.226,1.226,0,0,1,.048-.323.3.3,0,0,1,.457-.085c.079.062.075.129.144.293a.486.486,0,0,0,.367.262.531.531,0,0,0,.424-.122.486.486,0,0,0,.162-.408Zm-79.59,3.815h0c-.008-.031,0-.021,0,0m5.44-7.154,0-.007c-.005-.019,0-.01,0,.007m33.73,16.453v0c.007.032,0,.019,0,0m2.151-8.394,0,0c-.011-.027-.006-.016,0,0m.761-.062,0-.008c.008-.034,0-.014,0,.008m7.906-8.768,0-.005c-.007-.036,0-.018,0,.005m4.117,15.556,0-.005c0,.022-.009.039,0,.005m3.265-10.741c0-.009-.005-.013,0-.008Zm.878-.04v-.007c.009-.042.005-.017,0,.007m7.263-5.194a.053.053,0,0,1,0-.009c0-.014,0-.005,0,.009m5.333,19.307v0c0,.009,0,.011,0,0m3.773-10.9s0-.007,0,.009h0c.008,0,0,0,0-.01" transform="translate(-153.241 -196.066)" fill="#de5653"/>
          <path id="Trazado_885005" data-name="Trazado 885005" d="M53.506,616.436a26.753,26.753,0,1,1-26.753-26.753,26.753,26.753,0,0,1,26.753,26.753" transform="translate(0 -401.529)" fill="#5c6b99"/>
          <path id="Trazado_885006" data-name="Trazado 885006" d="M66.078,662.2v-3.411a6.885,6.885,0,0,0,4.168,1.3,3.756,3.756,0,0,0,2.339-.645,2.142,2.142,0,0,0,.837-1.8,2.045,2.045,0,0,0-1.036-1.836,5.372,5.372,0,0,0-2.847-.645h-1.65v-3h1.526q3.473,0,3.473-2.307,0-2.17-2.667-2.171a6.079,6.079,0,0,0-3.473,1.154v-3.2a9.6,9.6,0,0,1,4.367-.943,6.591,6.591,0,0,1,4.249,1.228,3.909,3.909,0,0,1,1.519,3.188,4.145,4.145,0,0,1-3.535,4.367v.062a4.8,4.8,0,0,1,2.977,1.371,3.866,3.866,0,0,1,1.092,2.785,4.773,4.773,0,0,1-1.824,3.945,7.886,7.886,0,0,1-5.037,1.451,9.733,9.733,0,0,1-4.478-.893" transform="translate(-44.994 -438.992)" fill="#fff"/>
        </g>
      </g>
    </g>
  </g>
</svg>
