<svg xmlns="http://www.w3.org/2000/svg" width="90" height="90" viewBox="0 0 90 90">
  <g id="Grupo_1103487" data-name="Grupo 1103487" transform="translate(-598.051 -940)">
    <g id="Grupo_1103457" data-name="Grupo 1103457" transform="translate(-420.949 -5824)">
      <rect id="Rectángulo_401800" data-name="Rectángulo 401800" width="90" height="90" rx="5" transform="translate(1019 6764)" fill="#d7f38d"/>
    </g>
    <g id="stretcher_2167146" transform="translate(612.008 951.957)">
      <g id="Grupo_1103469" data-name="Grupo 1103469" transform="translate(29.942 20.639)">
        <path id="Trazado_883942" data-name="Trazado 883942" d="M54.673,26.2H45.846a4.114,4.114,0,0,0-3.576-2.067H34l3.742-2.5A9.75,9.75,0,0,1,49,21.954Z" transform="translate(-28.832 -20)" fill="#838f9b"/>
        <path id="Trazado_883943" data-name="Trazado 883943" d="M31.584,29.55A2.611,2.611,0,0,0,31.067,28H41.4a1.037,1.037,0,0,1,1.034,1.034v3.1H29a2.576,2.576,0,0,0,2.584-2.584Z" transform="translate(-29 -19.731)" fill="#838f9b"/>
        <path id="Trazado_883944" data-name="Trazado 883944" d="M57.512,26.91A3.1,3.1,0,0,1,55.321,32.2h-9.3V28.067A4.124,4.124,0,0,0,45.46,26h9.861A3.094,3.094,0,0,1,57.512,26.91Z" transform="translate(-28.446 -19.798)" fill="#838f9b"/>
      </g>
      <path id="Trazado_883945" data-name="Trazado 883945" d="M31.168,28A2.581,2.581,0,0,1,29.1,32.135H26v-3.1A1.037,1.037,0,0,1,27.034,28Z" transform="translate(0.841 0.908)" fill="#4fc1e9"/>
      <path id="Trazado_883946" data-name="Trazado 883946" d="M33.352,12.925a2.926,2.926,0,0,1-.858,2.067l-.827.827A32.711,32.711,0,0,1,25.9,20.409L23.873,17.36a7.138,7.138,0,0,0-1.333-1.5,27.673,27.673,0,0,0,4.383-3.566l1.437-1.437a2.924,2.924,0,0,1,4.993,2.067Z" transform="translate(0.725 0.303)" fill="#4fc1e9"/>
      <path id="Trazado_883947" data-name="Trazado 883947" d="M22.5,27.437a3.78,3.78,0,0,0-.134,1.034v4.135H17.2L11.114,22.579l-.01-.093a7.022,7.022,0,0,1,.041-2.667,7.153,7.153,0,0,1,3.08-4.61A7.28,7.28,0,0,1,18.236,14a7.191,7.191,0,0,1,4.682,1.726h.01a7.138,7.138,0,0,1,1.333,1.5l2.026,3.049L29,24.336H26.5a4.126,4.126,0,0,0-4,3.1Z" transform="translate(0.336 0.437)" fill="#4fc1e9"/>
      <ellipse id="Elipse_11912" data-name="Elipse 11912" cx="6.5" cy="6" rx="6.5" ry="6" transform="translate(12.043 2.043)" fill="#f0d0b4"/>
      <path id="Trazado_883948" data-name="Trazado 883948" d="M46.807,28.135v4.135H42.673v-3.1a1.037,1.037,0,0,0-1.034-1.034H27.168a1.037,1.037,0,0,0-1.034,1.034v3.1H22V28.135a3.78,3.78,0,0,1,.134-1.034,4.126,4.126,0,0,1,4-3.1H42.673a4.145,4.145,0,0,1,4.135,4.135Z" transform="translate(0.707 0.774)" fill="#ecc19c"/>
      <path id="Trazado_883949" data-name="Trazado 883949" d="M63.109,32.91A3.1,3.1,0,0,1,60.918,38.2H47.48V37.168a1.037,1.037,0,0,0-1.034-1.034H44.379a1.037,1.037,0,0,0-1.034,1.034V38.2H22.673V37.168a1.037,1.037,0,0,0-1.034-1.034H19.572a1.037,1.037,0,0,0-1.034,1.034V38.2H5.1a3.1,3.1,0,0,1,0-6.2H60.918A3.093,3.093,0,0,1,63.109,32.91Z" transform="translate(0.034 1.043)" fill="#d3a06c"/>
      <path id="Trazado_883950" data-name="Trazado 883950" d="M11.416,22.546,17.5,32.572H10.011l-7.587-12.9A3.1,3.1,0,1,1,7.768,16.53Z" transform="translate(0.034 0.471)" fill="#cf9e76"/>
      <path id="Trazado_883951" data-name="Trazado 883951" d="M22.135,42.2v1.034A1.037,1.037,0,0,1,21.1,44.269H19.034A1.037,1.037,0,0,1,18,43.236v-6.2A1.037,1.037,0,0,1,19.034,36H21.1a1.037,1.037,0,0,1,1.034,1.034V42.2Z" transform="translate(0.572 1.178)" fill="#b27946"/>
      <path id="Trazado_883952" data-name="Trazado 883952" d="M46.135,42.2v1.034A1.037,1.037,0,0,1,45.1,44.269H43.034A1.037,1.037,0,0,1,42,43.236v-6.2A1.037,1.037,0,0,1,43.034,36H45.1a1.037,1.037,0,0,1,1.034,1.034V42.2Z" transform="translate(1.379 1.178)" fill="#b27946"/>
      <path id="Trazado_883953" data-name="Trazado 883953" d="M22,38H42.673v4.135H22Z" transform="translate(0.707 1.245)" fill="#ecc19c"/>
      <path id="Trazado_883954" data-name="Trazado 883954" d="M18.269,38v4.135h-3.1a1.037,1.037,0,0,0-1.034,1.034v7.6a6.087,6.087,0,0,0-4.135,0V42.135A4.133,4.133,0,0,1,14.135,38Z" transform="translate(0.303 1.245)" fill="#ecc19c"/>
      <path id="Trazado_883955" data-name="Trazado 883955" d="M54.269,42.135v8.631a6.087,6.087,0,0,0-4.135,0v-7.6A1.037,1.037,0,0,0,49.1,42.135H46V38h4.135A4.133,4.133,0,0,1,54.269,42.135Z" transform="translate(1.514 1.245)" fill="#ecc19c"/>
      <path id="Trazado_883956" data-name="Trazado 883956" d="M14.269,50.362a6.2,6.2,0,1,1-4.135,0,6.087,6.087,0,0,1,4.135,0Z" transform="translate(0.168 1.649)" fill="#838f9b"/>
      <path id="Trazado_883957" data-name="Trazado 883957" d="M54.269,50.362a6.2,6.2,0,1,1-4.135,0,6.087,6.087,0,0,1,4.135,0Z" transform="translate(1.514 1.649)" fill="#838f9b"/>
      <circle id="Elipse_11913" data-name="Elipse 11913" cx="2" cy="2" r="2" transform="translate(10.043 56.043)" fill="#e6e9ed"/>
      <circle id="Elipse_11914" data-name="Elipse 11914" cx="2" cy="2" r="2" transform="translate(52.043 56.043)" fill="#e6e9ed"/>
      <path id="Trazado_883958" data-name="Trazado 883958" d="M60.951,32.009h-.576a4.092,4.092,0,0,0,.575-2.067,4.139,4.139,0,0,0-4.135-4.135h-.689l-5.393-4.045a10.851,10.851,0,0,0-6.472-2.157,10.735,10.735,0,0,0-5.981,1.811L34.8,23.74H29.889L28.06,21a34.058,34.058,0,0,0,5.066-4.146l.826-.826a3.957,3.957,0,0,0-5.6-5.6l-1.441,1.441a26.376,26.376,0,0,1-3.643,3,8.151,8.151,0,0,0-.854-.517,7.236,7.236,0,1,0-7.674.012,8.085,8.085,0,0,0-.754.426,8.206,8.206,0,0,0-3.409,4.792L8.7,16.474a4.135,4.135,0,0,0-7.128,4.192L8.24,32.009H5.135a4.135,4.135,0,1,0,0,8.269h5.2a5.115,5.115,0,0,0-1.061,3.1v7.944a7.236,7.236,0,1,0,6.2,0v-6.91h2.067a2.069,2.069,0,0,0,2.067,2.067h2.067a2.069,2.069,0,0,0,2.067-2.067H42.346a2.069,2.069,0,0,0,2.067,2.067H46.48a2.069,2.069,0,0,0,2.067-2.067h2.067v6.91a7.236,7.236,0,1,0,6.2,0V43.379a5.115,5.115,0,0,0-1.061-3.1h5.2a4.135,4.135,0,0,0,0-8.269Zm-2.068-2.067a2.069,2.069,0,0,1-2.067,2.067H48.548v-3.1a5.163,5.163,0,0,0-.1-1.034h8.373A2.069,2.069,0,0,1,58.883,29.942Zm-27.484,0a1.543,1.543,0,0,1-1.458,2.067H27.875V29.942Zm2.118,0h8.828v2.067H33.2a3.432,3.432,0,0,0,.321-2.067Zm8.828-2.067H27.875a2.069,2.069,0,0,0-2.067,2.067v2.067H23.74v-3.1a3.1,3.1,0,0,1,3.1-3.1H43.379a3.1,3.1,0,0,1,3.1,3.1v3.1H44.413V29.942A2.069,2.069,0,0,0,42.346,27.875Zm-2.917-4.738a8.9,8.9,0,0,1,10.065.28l3.189,2.391H47.488A5.147,5.147,0,0,0,43.38,23.74H38.524ZM28.376,13.33l1.441-1.441a1.89,1.89,0,0,1,2.673,2.673l-.826.826a31.888,31.888,0,0,1-4.75,3.888l-1.46-2.189a8.213,8.213,0,0,0-.593-.781A28.237,28.237,0,0,0,28.376,13.33ZM13.4,8.236A5.168,5.168,0,1,1,18.571,13.4,5.174,5.174,0,0,1,13.4,8.236Zm-.911,12.221a6.2,6.2,0,0,1,11.242-2.223l3.672,5.507h-.564a5.171,5.171,0,0,0-4.73,3.1H22.1a1.557,1.557,0,0,1-1.329-.754l-2.347-3.913-1.773,1.064L19,27.151a3.642,3.642,0,0,0,2.677,1.728c0,.01,0,.02,0,.029v3.1H18.121l-5.665-9.34a6.152,6.152,0,0,1,.036-2.213Zm-9.142-.837a2.069,2.069,0,0,1,.736-2.829,2.125,2.125,0,0,1,2.835.746L15.7,32.009H10.639ZM17.538,57.85a5.168,5.168,0,1,1-5.168-5.168A5.174,5.174,0,0,1,17.538,57.85Zm-2.067-15.5A2.069,2.069,0,0,0,13.4,44.413V50.7a6.5,6.5,0,0,0-2.067,0V43.379a3.1,3.1,0,0,1,3.1-3.1h3.1v2.067Zm4.135,2.067v-6.2h2.067l0,6.2Zm4.135-2.067V40.278H42.346v2.067Zm20.673,2.067v-6.2H46.48l0,6.2ZM58.884,57.85a5.168,5.168,0,1,1-5.168-5.168A5.174,5.174,0,0,1,58.884,57.85ZM54.749,43.379V50.7a6.5,6.5,0,0,0-2.067,0V44.413a2.069,2.069,0,0,0-2.067-2.067H48.548V40.278h3.1A3.1,3.1,0,0,1,54.749,43.379Zm6.2-5.168h-12.4a2.069,2.069,0,0,0-2.067-2.067H44.413a2.069,2.069,0,0,0-2.067,2.067H23.74a2.069,2.069,0,0,0-2.067-2.067H19.606a2.069,2.069,0,0,0-2.067,2.067H5.135a2.067,2.067,0,1,1,0-4.135H60.951a2.067,2.067,0,0,1,0,4.135Z"/>
      <path id="Trazado_883959" data-name="Trazado 883959" d="M49,56.1A3.1,3.1,0,1,0,52.1,53,3.1,3.1,0,0,0,49,56.1Zm4.135,0A1.034,1.034,0,1,1,52.1,55.067,1.034,1.034,0,0,1,53.135,56.1Z" transform="translate(1.615 1.749)"/>
      <path id="Trazado_883960" data-name="Trazado 883960" d="M9,56.1A3.1,3.1,0,1,0,12.1,53,3.1,3.1,0,0,0,9,56.1Zm4.135,0A1.034,1.034,0,1,1,12.1,55.067,1.034,1.034,0,0,1,13.135,56.1Z" transform="translate(0.269 1.749)"/>
    </g>
  </g>
</svg>
