<svg xmlns="http://www.w3.org/2000/svg" width="61.554" height="56.767" viewBox="0 0 61.554 56.767">
  <g id="Grupo_1102430" data-name="Grupo 1102430" transform="translate(-334.621 -1399.423)">
    <g id="Rectángulo_401341" data-name="Rectángulo 401341" transform="translate(334.621 1399.423)" fill="#ffb27e" stroke="#fcd8c0" stroke-width="3">
      <rect width="61.554" height="56.767" rx="12" stroke="none"/>
      <rect x="1.5" y="1.5" width="58.554" height="53.767" rx="10.5" fill="none"/>
    </g>
    <g id="disabled_2084174" transform="translate(349.087 1406.811)">
      <path id="Trazado_885161" data-name="Trazado 885161" d="M38.576,33.175V34.35A1.179,1.179,0,0,1,37.4,35.525H29.763A8.947,8.947,0,0,0,28,33.763V32h9.4A1.179,1.179,0,0,1,38.576,33.175Z" transform="translate(-11.135 -12.785)" fill="#aab2bd"/>
      <path id="Trazado_885162" data-name="Trazado 885162" d="M13.752,24.741v.012a8.9,8.9,0,0,0-3.525,0V17.525H3.763a1.763,1.763,0,1,1,0-3.525h8.226a1.76,1.76,0,0,1,1.763,1.763v8.978Z" transform="translate(-0.412 -5.362)" fill="#aab2bd"/>
      <path id="Trazado_885163" data-name="Trazado 885163" d="M40.383,55.175a2.349,2.349,0,1,1-2.6-1.1A2.3,2.3,0,0,1,38.35,54a2.354,2.354,0,0,1,1.763.793A2.49,2.49,0,0,1,40.383,55.175Z" transform="translate(-14.435 -21.858)" fill="#838f9b"/>
      <path id="Trazado_885164" data-name="Trazado 885164" d="M43.777,57.175A2.344,2.344,0,0,0,43.46,56H53.766a.589.589,0,0,1,.588.588v1.175a.589.589,0,0,1-.588.588H43.46A2.344,2.344,0,0,0,43.777,57.175Z" transform="translate(-17.512 -22.683)" fill="#ccd1d9"/>
      <path id="Trazado_885165" data-name="Trazado 885165" d="M39,50.668l.576-3.525h.6a2.352,2.352,0,0,0,2.062-1.222l-.887,5.541a2.354,2.354,0,0,0-1.763-.793,2.3,2.3,0,0,0-.57.071Z" transform="translate(-15.672 -18.526)" fill="#ccd1d9"/>
      <path id="Trazado_885166" data-name="Trazado 885166" d="M37.159,45.525H33.622c.018-.194.024-.388.024-.588A8.668,8.668,0,0,0,33.14,42H39.7a.593.593,0,0,1,.411.17v1a2.343,2.343,0,0,1-.288,1.122V44.3a2.352,2.352,0,0,1-2.062,1.222Z" transform="translate(-13.255 -16.909)" fill="#aab2bd"/>
      <path id="Trazado_885167" data-name="Trazado 885167" d="M19.008,44.517A1.759,1.759,0,1,1,17.763,44,1.759,1.759,0,0,1,19.008,44.517Z" transform="translate(-6.186 -17.734)" fill="#e6e9ed"/>
      <path id="Trazado_885168" data-name="Trazado 885168" d="M21.627,40.814c0,.2-.006.394-.024.588a8.812,8.812,0,1,1-10.553-9.225,8.9,8.9,0,0,1,3.525,0v2.415a6.466,6.466,0,1,0,2.873,1.716c.047-.041.094-.082.135-.123a1.758,1.758,0,0,0,.517-1.246V33.763a8.947,8.947,0,0,1,1.763,1.763,8.779,8.779,0,0,1,1.257,2.35A8.668,8.668,0,0,1,21.627,40.814Z" transform="translate(-1.237 -12.785)" fill="#838f9b"/>
      <path id="Trazado_885169" data-name="Trazado 885169" d="M48.7,44.743a1.762,1.762,0,0,1-1.246,3.008H43.4a1.768,1.768,0,0,1-1.657-1.169l-2.38-6.669a.6.6,0,0,0-.141-.217.593.593,0,0,0-.411-.17H32.257A8.779,8.779,0,0,0,31,37.175h7.638A1.179,1.179,0,0,0,39.814,36h.693a2.353,2.353,0,0,1,2.215,1.557l2.38,6.669h2.35a1.759,1.759,0,0,1,1.246.517Z" transform="translate(-12.373 -14.435)" fill="#cf9e76"/>
      <path id="Trazado_885170" data-name="Trazado 885170" d="M25.525,27.164v1.175a1.758,1.758,0,0,1-.517,1.246c-.041.041-.088.082-.135.123a1.75,1.75,0,0,1-1.111.394A1.76,1.76,0,0,1,22,28.339V21.876A5.878,5.878,0,0,1,27.876,16a5.319,5.319,0,0,1,5.282,4.665l.593,4.736H25.525Z" transform="translate(-8.661 -6.186)" fill="#7cd9ca"/>
      <circle id="Elipse_11957" data-name="Elipse 11957" cx="4" cy="4" r="4" transform="translate(16 1.43)" fill="#f0d0b4"/>
      <path id="Trazado_885171" data-name="Trazado 885171" d="M36.95,32.962a2.327,2.327,0,0,0,.48-1.408,2.353,2.353,0,0,0-2.35-2.35H33.143L30.9,22.927a2.944,2.944,0,0,0-2.767-1.95h-.106V20.39a1.765,1.765,0,0,0-1.763-1.763h-.656L25.082,14.4a5.916,5.916,0,0,0-3.158-4.516,4.7,4.7,0,1,0-4.781-.317,6.483,6.483,0,0,0-3.216,2.412V10.4a2.353,2.353,0,0,0-2.35-2.35H3.35a2.35,2.35,0,1,0,0,4.7H9.226v6.185A9.4,9.4,0,1,0,20.9,29.2h2.316l-.42,2.576a2.934,2.934,0,1,0,3.459,4.475h10a1.176,1.176,0,0,0,1.175-1.175V33.9A1.17,1.17,0,0,0,36.95,32.962Zm-7.155-9.639,2.52,7.056h2.765a1.175,1.175,0,0,1,0,2.35H31.033a1.176,1.176,0,0,1-1.106-.78l-2.381-6.666a1.178,1.178,0,0,0-1.107-.78H20.286a9.22,9.22,0,0,0-.576-1.175h6.556a1.76,1.76,0,0,0,1.655-1.175h.214a1.766,1.766,0,0,1,1.66,1.17Zm-2.667,4.284,1.692,4.738a2.313,2.313,0,0,0,.183.385h-2.7Zm-.274-7.217v1.175a.589.589,0,0,1-.588.588H18.912a9.527,9.527,0,0,0-1.46-1.447v-.9h8.814a.589.589,0,0,1,.588.588Zm-14.088,1.9a2.34,2.34,0,0,0,1.627,2.094l-1.629,1.629a2.35,2.35,0,0,0-.6-.25V22.192a6.063,6.063,0,0,1,.6.1ZM11.576,29.2a1.175,1.175,0,1,1,1.175-1.175A1.176,1.176,0,0,1,11.576,29.2Zm-.588-3.442a2.3,2.3,0,0,0-.6.25l-2.53-2.53a5.848,5.848,0,0,1,3.128-1.3ZM7.03,24.313l2.53,2.53a2.35,2.35,0,0,0-.25.6H5.731a5.843,5.843,0,0,1,1.3-3.128Zm2.28,4.3a2.3,2.3,0,0,0,.25.6l-2.53,2.53a5.843,5.843,0,0,1-1.3-3.128Zm1.081,1.43a2.35,2.35,0,0,0,.6.25v3.579a5.848,5.848,0,0,1-3.128-1.3Zm1.774.25a2.3,2.3,0,0,0,.6-.25l2.53,2.53a5.848,5.848,0,0,1-3.128,1.3Zm3.959,1.449-2.53-2.53a2.35,2.35,0,0,0,.25-.6h3.579a5.843,5.843,0,0,1-1.3,3.128Zm-2.28-4.3a2.3,2.3,0,0,0-.25-.6l2.531-2.531a5.828,5.828,0,0,1,1.3,3.129ZM16.277,5.7A3.525,3.525,0,1,1,19.8,9.226,3.529,3.529,0,0,1,16.277,5.7Zm2.938,4.7a4.744,4.744,0,0,1,4.7,4.149l.509,4.077H17.452V15.589a3.4,3.4,0,0,1,1-2.422l-.831-.831a4.568,4.568,0,0,0-1.347,3.253v6.564a1.175,1.175,0,1,1-2.35,0V15.689A5.3,5.3,0,0,1,19.215,10.4ZM3.35,11.576a1.175,1.175,0,1,1,0-2.35h8.226A1.176,1.176,0,0,1,12.752,10.4v8.308a9.461,9.461,0,0,0-1.175-.082,9.344,9.344,0,0,0-1.175.082V11.576Zm8.226,24.678a8.226,8.226,0,1,1,0-16.452,8.353,8.353,0,0,1,1.175.093v1.183a7.136,7.136,0,0,0-1.175-.1A7.062,7.062,0,1,0,17,23.528a2.322,2.322,0,0,0,.441-1.256A8.142,8.142,0,0,1,19.8,28.028a8.235,8.235,0,0,1-8.226,8.226Zm9.1-10.576h5.59v.588A1.765,1.765,0,0,1,24.5,28.028H20.978A9.488,9.488,0,0,0,20.676,25.678ZM24.5,29.2a2.91,2.91,0,0,0,1.223-.275l-.475,2.961a2.905,2.905,0,0,0-1.234-.326L24.4,29.2Zm-.588,7.051a1.763,1.763,0,1,1,1.763-1.763A1.765,1.765,0,0,1,23.915,36.255Zm12.339-1.175H26.794a2.938,2.938,0,0,0,0-1.175h9.461Z"/>
    </g>
  </g>
</svg>
