<svg xmlns="http://www.w3.org/2000/svg" width="90" height="90" viewBox="0 0 90 90">
  <g id="Grupo_1103486" data-name="Grupo 1103486" transform="translate(-913.051 -940)">
    <g id="Grupo_1103459" data-name="Grupo 1103459" transform="translate(-105.949 -5824)">
      <rect id="Rectángulo_401800" data-name="Rectángulo 401800" width="90" height="90" rx="5" transform="translate(1019 6764)" fill="#d7f38d"/>
    </g>
    <g id="no-medicine_5898090" transform="translate(925.051 930.559)">
      <g id="Grupo_1103484" data-name="Grupo 1103484" transform="translate(1.004 27.444)">
        <g id="Grupo_1103478" data-name="Grupo 1103478" transform="translate(33.277)">
          <path id="Trazado_883969" data-name="Trazado 883969" d="M285.554,75.7H259.777a3.667,3.667,0,0,1-3.667-3.667V37.605a3.667,3.667,0,0,1,3.667-3.667h25.776a3.667,3.667,0,0,1,3.667,3.667V72.028A3.667,3.667,0,0,1,285.554,75.7Z" transform="translate(-256.11 -33.938)" fill="#efedef"/>
          <path id="Trazado_883970" data-name="Trazado 883970" d="M272.731,67.3V42.336a10.38,10.38,0,0,1,4.3-8.4H259.777a3.667,3.667,0,0,0-3.667,3.667V72.028a3.667,3.667,0,0,0,3.667,3.667h17.258a10.379,10.379,0,0,1-4.3-8.4Z" transform="translate(-256.11 -33.938)" fill="#d7d0d6"/>
        </g>
        <g id="Grupo_1103479" data-name="Grupo 1103479" transform="translate(35.22 3.054)">
          <circle id="Elipse_11915" data-name="Elipse 11915" cx="4.301" cy="4.301" r="4.301" transform="matrix(0.24, -0.971, 0.971, 0.24, 0.893, 8.352)" fill="#02c7dd"/>
          <circle id="Elipse_11916" data-name="Elipse 11916" cx="4.301" cy="4.301" r="4.301" transform="translate(0.001 17.826) rotate(-45)" fill="#02c7dd"/>
          <circle id="Elipse_11917" data-name="Elipse 11917" cx="4.301" cy="4.301" r="4.301" transform="translate(0 30.436) rotate(-45)" fill="#02c7dd"/>
        </g>
        <g id="Grupo_1103480" data-name="Grupo 1103480" transform="translate(53.199 3.084)">
          <circle id="Elipse_11918" data-name="Elipse 11918" cx="4.301" cy="4.301" r="4.301" transform="translate(0 2.004) rotate(-13.467)" fill="#2ed1e2"/>
          <circle id="Elipse_11919" data-name="Elipse 11919" cx="4.301" cy="4.301" r="4.301" transform="matrix(0.123, -0.992, 0.992, 0.123, 0.342, 21.551)" fill="#2ed1e2"/>
          <circle id="Elipse_11920" data-name="Elipse 11920" cx="4.301" cy="4.301" r="4.301" transform="matrix(0.123, -0.992, 0.992, 0.123, 0.337, 34.161)" fill="#2ed1e2"/>
        </g>
        <g id="Grupo_1103481" data-name="Grupo 1103481" transform="translate(0 22.522)">
          <path id="Trazado_883971" data-name="Trazado 883971" d="M20.793,224.653h1.319A13.333,13.333,0,0,0,35.406,211.36V202.2H7.5v9.16a13.333,13.333,0,0,0,13.294,13.294Z" transform="translate(-7.499 -202.2)" fill="#fd8087"/>
          <path id="Trazado_883972" data-name="Trazado 883972" d="M18.208,202.2H7.5v9.16a13.333,13.333,0,0,0,13.294,13.294h1.319a13.17,13.17,0,0,0,5.063-1.008A32.435,32.435,0,0,1,18.208,202.2Z" transform="translate(-7.499 -202.2)" fill="#fe646f"/>
        </g>
        <g id="Grupo_1103482" data-name="Grupo 1103482" transform="translate(0 0.069)">
          <path id="Trazado_883973" data-name="Trazado 883973" d="M22.112,34.45H20.793A13.333,13.333,0,0,0,7.5,47.744V56.9H35.406v-9.16A13.333,13.333,0,0,0,22.112,34.45Z" transform="translate(-7.499 -34.45)" fill="#f9f7f8"/>
          <path id="Trazado_883974" data-name="Trazado 883974" d="M18.168,55.216a33.539,33.539,0,0,1,6.68-20.48,13.221,13.221,0,0,0-2.736-.286H20.793A13.333,13.333,0,0,0,7.5,47.744V56.9H18.208Q18.169,56.065,18.168,55.216Z" transform="translate(-7.499 -34.45)" fill="#efedef"/>
        </g>
        <circle id="Elipse_11921" data-name="Elipse 11921" cx="10.996" cy="10.996" r="10.996" transform="translate(22.116 33.98)" fill="#f9f7f8"/>
        <path id="Trazado_883975" data-name="Trazado 883975" d="M162.122,262.857a14.334,14.334,0,1,0,14.334,14.335A14.334,14.334,0,0,0,162.122,262.857Zm0,5.471a8.813,8.813,0,0,1,3.529.735L153.993,280.72a8.86,8.86,0,0,1,8.129-12.392Zm0,17.728a8.807,8.807,0,0,1-4.061-.989L170,273.131a8.858,8.858,0,0,1-7.875,12.925Z" transform="translate(-129.01 -232.216)" fill="#fe646f"/>
      </g>
      <g id="Grupo_1103485" data-name="Grupo 1103485" transform="translate(0 26.441)">
        <path id="Trazado_883976" data-name="Trazado 883976" d="M63.724,26.441H37.948a4.677,4.677,0,0,0-4.671,4.671V57.105a15.223,15.223,0,0,0-3.362.56v-7.7h0v-9.16a14.314,14.314,0,0,0-14.3-14.3H14.3A14.13,14.13,0,0,0,8.826,27.6,1,1,0,1,0,9.6,29.456a12.134,12.134,0,0,1,4.7-.939h1.319a12.3,12.3,0,0,1,12.29,12.29v8.156H2.008V40.807a12.326,12.326,0,0,1,3.969-9.023,1,1,0,0,0-1.362-1.475A14.34,14.34,0,0,0,0,40.807v9.16s0,0,0,0v9.156a14.314,14.314,0,0,0,14.3,14.3h1.318a14.187,14.187,0,0,0,3.176-.361,15.338,15.338,0,1,0,30.5-2.858h6.558a1,1,0,1,0,0-2.008H48.866a15.144,15.144,0,0,0-2.076-4.418,5.3,5.3,0,0,0-8.619-6.152,15.234,15.234,0,0,0-2.886-.5V31.112a2.667,2.667,0,0,1,2.664-2.663H63.724a2.667,2.667,0,0,1,2.664,2.663V65.535A2.666,2.666,0,0,1,63.724,68.2H60.537a1,1,0,1,0,0,2.008h3.187a4.676,4.676,0,0,0,4.671-4.67V31.112a4.677,4.677,0,0,0-4.672-4.671ZM14.3,71.416a12.3,12.3,0,0,1-12.29-12.29V50.97h25.9v7.424A15.34,15.34,0,0,0,18.847,70.98a12.166,12.166,0,0,1-3.231.436ZM34.116,85.75a13.345,13.345,0,0,1-13.33-13.33c0-.21.005-.423.015-.632a13.321,13.321,0,0,1,13.332-12.7h.137a13.267,13.267,0,0,1,3.994.657l.006,0a13.279,13.279,0,0,1,6.474,4.622l0,0a13.2,13.2,0,0,1,2.361,5.048A13.344,13.344,0,0,1,34.116,85.75ZM45.61,60.934a3.3,3.3,0,0,1-.2,1.114,15.238,15.238,0,0,0-5.159-3.686,3.293,3.293,0,0,1,5.354,2.572Z" transform="translate(0 -26.441)"/>
        <path id="Trazado_883977" data-name="Trazado 883977" d="M281.8,56.07a5.3,5.3,0,1,0,5.3,5.3A5.311,5.311,0,0,0,281.8,56.07Zm0,8.6a3.3,3.3,0,1,1,3.3-3.3A3.3,3.3,0,0,1,281.8,64.671Z" transform="translate(-239.485 -52.104)"/>
        <path id="Trazado_883978" data-name="Trazado 883978" d="M409.142,66.678a5.3,5.3,0,1,0-5.3-5.3A5.311,5.311,0,0,0,409.142,66.678Zm0-8.6a3.3,3.3,0,1,1-3.3,3.3A3.3,3.3,0,0,1,409.142,58.077Z" transform="translate(-349.783 -52.103)"/>
        <path id="Trazado_883979" data-name="Trazado 883979" d="M281.8,150.29a5.3,5.3,0,1,0,5.3,5.3A5.311,5.311,0,0,0,281.8,150.29Zm0,8.6a3.3,3.3,0,1,1,3.3-3.3A3.3,3.3,0,0,1,281.8,158.891Z" transform="translate(-239.485 -133.713)"/>
        <path id="Trazado_883980" data-name="Trazado 883980" d="M409.142,160.9a5.3,5.3,0,1,0-5.3-5.3A5.311,5.311,0,0,0,409.142,160.9Zm0-8.6a3.3,3.3,0,1,1-3.3,3.3A3.3,3.3,0,0,1,409.142,152.3Z" transform="translate(-349.783 -133.713)"/>
        <path id="Trazado_883981" data-name="Trazado 883981" d="M409.142,255.119a5.3,5.3,0,1,0-5.3-5.3A5.311,5.311,0,0,0,409.142,255.119Zm0-8.6a3.3,3.3,0,1,1-3.3,3.3A3.3,3.3,0,0,1,409.142,246.518Z" transform="translate(-349.783 -215.321)"/>
        <path id="Trazado_883982" data-name="Trazado 883982" d="M372.3,59.293v33.23a1,1,0,1,0,2.008,0V59.293a1,1,0,0,0-2.008,0Z" transform="translate(-322.464 -54.026)"/>
        <path id="Trazado_883983" data-name="Trazado 883983" d="M195.543,297.782a1,1,0,0,0-.585-.733,9.787,9.787,0,0,0-3.741-.816l-.189,0a9.879,9.879,0,0,0-9.867,9.867,9.756,9.756,0,0,0,.819,3.93,1,1,0,0,0,1.63.308l11.657-11.659A1,1,0,0,0,195.543,297.782Zm-12.2,9.98a7.864,7.864,0,0,1,7.683-9.523h.145a7.875,7.875,0,0,1,1.517.176Z" transform="translate(-156.912 -260.119)"/>
        <path id="Trazado_883984" data-name="Trazado 883984" d="M230.873,332.655a1,1,0,0,0-1.6-.251L217.335,344.34a1,1,0,0,0,.248,1.6,9.745,9.745,0,0,0,4.523,1.1,9.879,9.879,0,0,0,9.867-9.867,9.738,9.738,0,0,0-.678-3.584,10.062,10.062,0,0,0-.423-.936Zm-8.767,12.38a7.774,7.774,0,0,1-2.287-.34l9.805-9.806a7.761,7.761,0,0,1,.341,2.285A7.868,7.868,0,0,1,222.106,345.035Z" transform="translate(-187.99 -291.196)"/>
      </g>
    </g>
  </g>
</svg>
