<svg xmlns="http://www.w3.org/2000/svg" width="61.554" height="56.767" viewBox="0 0 61.554 56.767">
  <g id="Grupo_1102432" data-name="Grupo 1102432" transform="translate(-334.621 -1399.423)">
    <g id="Rectángulo_401341" data-name="Rectángulo 401341" transform="translate(334.621 1399.423)" fill="#ffb27e" stroke="#fcd8c0" stroke-width="3">
      <rect width="61.554" height="56.767" rx="12" stroke="none"/>
      <rect x="1.5" y="1.5" width="58.554" height="53.767" rx="10.5" fill="none"/>
    </g>
    <g id="moretones" transform="translate(349.894 1412.677)">
      <g id="Grupo_1104032" data-name="Grupo 1104032" transform="translate(2.187 0.444)">
        <g id="Grupo_1104029" data-name="Grupo 1104029" transform="translate(0)">
          <path id="Trazado_885059" data-name="Trazado 885059" d="M36.052,35.077a1.8,1.8,0,0,1-1.8,1.8H27.383l-6.145-.709a6.655,6.655,0,0,0-1.679.02c-.073.01-.145.021-.218.034l-.117.021-.065.012-.154.033-2.592.588H12.16a2.606,2.606,0,0,1-2.606-2.606v-.993a2.612,2.612,0,0,1,.155-.885l.762-2.107a11.652,11.652,0,0,0,.564-5.7L9.552,14.729a27.647,27.647,0,0,1-.308-4.117V7.5H21.815L21.738,9l-.81,15.8a3.553,3.553,0,0,0,1.912,3.336l8.738,4.533,3.053.65a1.8,1.8,0,0,1,1.422,1.757Z" transform="translate(-9.244 -7.501)" fill="#ffcebf"/>
          <g id="Grupo_1104028" data-name="Grupo 1104028" transform="translate(9.83)">
            <path id="Trazado_885060" data-name="Trazado 885060" d="M192.55,35.077a1.8,1.8,0,0,1-1.8,1.8H188.9a1.8,1.8,0,0,0,.374-3.553l-3.052-.65-8.738-4.533a3.552,3.552,0,0,1-1.912-3.336l.887-17.3h1.85L178.235,9l-.81,15.8a3.553,3.553,0,0,0,1.912,3.336l8.738,4.533,3.053.65a1.8,1.8,0,0,1,1.422,1.757Z" transform="translate(-175.571 -7.501)" fill="#ffb09e"/>
          </g>
        </g>
        <g id="Grupo_1104030" data-name="Grupo 1104030" transform="translate(17.146 0)">
          <circle id="Elipse_11952" data-name="Elipse 11952" cx="6.01" cy="6.01" r="6.01" fill="#fdb4ba"/>
        </g>
        <path id="Trazado_885061" data-name="Trazado 885061" d="M387.607,7.5a6.058,6.058,0,0,0-.845.059,6.01,6.01,0,0,1,0,11.9,6.01,6.01,0,1,0,.845-11.96Z" transform="translate(-364.451 -7.501)" fill="#fe99a0"/>
        <path id="Trazado_885062" data-name="Trazado 885062" d="M85.075,258.7a2.216,2.216,0,0,1-2.216-2.216v-4.093a2.216,2.216,0,0,1,4.433,0v4.093A2.216,2.216,0,0,1,85.075,258.7Z" transform="translate(-78.508 -235.831)" fill="#fe99a0"/>
        <g id="Grupo_1104031" data-name="Grupo 1104031" transform="translate(22.002 3.983)">
          <path id="Trazado_885063" data-name="Trazado 885063" d="M383.971,77.4a1.213,1.213,0,0,1-2.425,0,8.63,8.63,0,0,1,1.213-2.5A8.629,8.629,0,0,1,383.971,77.4Z" transform="translate(-381.546 -74.896)" fill="#fe646f"/>
        </g>
        <path id="Trazado_885064" data-name="Trazado 885064" d="M392.56,74.9s-.3.448-.6.982a4.293,4.293,0,0,1,.616,1.518,1.211,1.211,0,0,1-.616,1.055,1.211,1.211,0,0,0,1.809-1.055A8.629,8.629,0,0,0,392.56,74.9Z" transform="translate(-369.345 -70.913)" fill="#fd4755"/>
      </g>
      <g id="Grupo_1104033" data-name="Grupo 1104033" transform="translate(1.744 0)">
        <path id="Trazado_885065" data-name="Trazado 885065" d="M201.366,16.46h.023a.443.443,0,0,0,.442-.421l.8-15.574a.443.443,0,0,0-.885-.045l-.8,15.574A.443.443,0,0,0,201.366,16.46Z" transform="translate(-189.173 0)"/>
        <path id="Trazado_885066" data-name="Trazado 885066" d="M25.343,12.907A6.453,6.453,0,0,0,29.552,1.562a.443.443,0,1,0-.578.672,5.544,5.544,0,1,1-1.682-1,.443.443,0,0,0,.31-.83,6.452,6.452,0,0,0-6.7,10.727L10.667,20.772a.443.443,0,1,0,.608.645L13.631,19.2a3.994,3.994,0,0,0,1.948,2.275l8.738,4.533a.443.443,0,0,0,.112.04l3.053.65a1.353,1.353,0,0,1-.283,2.676H20.352l-6.12-.706c-1.417-.243-3.537.415-4.925.706H5.1a2.165,2.165,0,0,1-2.162-2.162,5.71,5.71,0,0,1,.128-1.728l.762-2.107a12.133,12.133,0,0,0,.585-5.914L2.934,7.606a27.289,27.289,0,0,1-.3-4.051V.444a.443.443,0,1,0-.886,0V3.555a28.186,28.186,0,0,0,.313,4.183L3.54,17.594A11.244,11.244,0,0,1,3,23.074l-.763,2.108a6.158,6.158,0,0,0-.181,2.029A3.052,3.052,0,0,0,5.1,30.259H9.357c1.353-.237,3.355-.935,4.773-.712l6.145.709.051,0H27.2a2.24,2.24,0,0,0,.467-4.43l-2.994-.637-8.684-4.5a3.107,3.107,0,0,1-1.623-2.179l7.229-6.8a6.418,6.418,0,0,0,3.749,1.2Z" transform="translate(-1.744 -0.001)"/>
        <path id="Trazado_885067" data-name="Trazado 885067" d="M377.359,70.34a3.778,3.778,0,0,0-.663-1.718c-.308-.549-.611-1.008-.623-1.027a.443.443,0,0,0-.739,0c-.013.019-.316.478-.624,1.027a3.777,3.777,0,0,0-.663,1.718,1.656,1.656,0,1,0,3.311,0Zm-2.425,0a5.458,5.458,0,0,1,.769-1.669,5.46,5.46,0,0,1,.769,1.669.769.769,0,1,1-1.539,0Z" transform="translate(-352.045 -63.414)"/>
        <path id="Trazado_885068" data-name="Trazado 885068" d="M73.852,402.878a.443.443,0,0,0,0-.886,1.177,1.177,0,0,1-1.175-1.175v-.845a.443.443,0,1,0-.886,0v.845A2.064,2.064,0,0,0,73.852,402.878Z" transform="translate(-67.65 -375.917)"/>
        <path id="Trazado_885069" data-name="Trazado 885069" d="M331.112,36.5a.443.443,0,0,0-.627,0l-2.115,2.115a.443.443,0,1,0,.627.627l2.115-2.115A.443.443,0,0,0,331.112,36.5Z" transform="translate(-308.946 -34.222)"/>
        <path id="Trazado_885070" data-name="Trazado 885070" d="M329.95,122.341l-.649.649a.443.443,0,1,0,.627.627l.65-.649a.443.443,0,0,0-.627-.627Z" transform="translate(-309.82 -114.989)"/>
        <path id="Trazado_885071" data-name="Trazado 885071" d="M414.838,38.707l.65-.649a.443.443,0,1,0-.627-.627l-.65.649a.443.443,0,1,0,.627.627Z" transform="translate(-389.713 -35.096)"/>
        <path id="Trazado_885072" data-name="Trazado 885072" d="M360,155.516a.442.442,0,0,0,.313-.13l.638-.638a.443.443,0,0,0-.627-.627l-.638.638a.443.443,0,0,0,.313.757Z" transform="translate(-338.414 -144.891)"/>
        <path id="Trazado_885073" data-name="Trazado 885073" d="M446.3,69.207a.442.442,0,0,0,.313-.13l.639-.639a.443.443,0,0,0-.627-.627l-.639.639a.443.443,0,0,0,.313.757Z" transform="translate(-419.614 -63.681)"/>
        <path id="Trazado_885074" data-name="Trazado 885074" d="M417.243,128.463a.442.442,0,0,0,.313-.13l2.635-2.635a.443.443,0,0,0-.627-.627l-2.635,2.635a.443.443,0,0,0,.313.757Z" transform="translate(-392.271 -117.557)"/>
        <path id="Trazado_885075" data-name="Trazado 885075" d="M75.8,256.78a.442.442,0,0,0,.313-.13l3.692-3.692a.443.443,0,1,0-.627-.627l-3.692,3.692a.443.443,0,0,0,.313.757Z" transform="translate(-71.01 -237.297)"/>
        <path id="Trazado_885076" data-name="Trazado 885076" d="M79.2,298.774a.443.443,0,1,0,.627.627l4.213-4.213a.443.443,0,1,0-.627-.627Z" transform="translate(-74.5 -277.031)"/>
        <path id="Trazado_885077" data-name="Trazado 885077" d="M110.506,373.951l-.85.765a.443.443,0,1,0,.593.659l.85-.765a.443.443,0,1,0-.593-.659Z" transform="translate(-103.14 -351.744)"/>
      </g>
    </g>
  </g>
</svg>
