<svg xmlns="http://www.w3.org/2000/svg" xmlns:xlink="http://www.w3.org/1999/xlink" width="505.001" height="377.553" viewBox="0 0 505.001 377.553">
  <defs>
    <clipPath id="clip-path">
      <rect id="Rectángulo_404387" data-name="Rectángulo 404387" width="505" height="370" transform="translate(915 522)" fill="#fff" stroke="#707070" stroke-width="1"/>
    </clipPath>
    <clipPath id="clip-path-2">
      <path id="Trazado_884583" data-name="Trazado 884583" d="M867.362,782.714c-1.051-9.622-12.728-15.629-13.292-25.288-.542-9.281,9.344-15.9,11.5-24.944,2.884-12.1-8.7-23.283-8.7-35.721a19.676,19.676,0,0,1,38.441-5.927c4.035,12.783-5.174,28.176,2.068,39.458,6.776,10.559,23.939,10.412,30.341,21.2,4.716,7.949,1.4,18.033-1.828,26.692s-6.066,19.055-.681,26.566c2.993,4.174,7.915,6.44,11.883,9.7a28.568,28.568,0,0,1-12.354,50.06l-18.117,13.023c-6.141,7.613-19.059,6.562-26.062-.269s-9-17.419-8.327-27.18c.429-6.255,1.7-13.006-1.421-18.449-3.455-6.036-11.48-8.756-13.893-15.28-2.1-5.679.912-11.883,4.149-17s6.944-10.626,6.284-16.642Z" transform="translate(-854.049 -677.102)" fill="#79c0ff"/>
    </clipPath>
    <clipPath id="clip-path-3">
      <path id="Trazado_884586" data-name="Trazado 884586" d="M744.094,958.3c-4.922-5.561-2.312-15.288-7.507-20.593-4.994-5.095-13.851-2.892-20.1-6.335-8.361-4.6-8.735-16.949-15.8-23.367a15.1,15.1,0,0,0-23.195,18.777c5.179,8.886,18.672,11.593,21.341,21.526,2.5,9.294-6.436,18.966-3.607,28.168,2.085,6.78,9.521,10.093,16.1,12.728s13.947,6.381,15.44,13.317c.828,3.855-.425,7.814-.622,11.753a21.917,21.917,0,0,0,34.8,18.807l16.743-3.573c7.491.437,13.556-7.44,13.287-14.939s-5.254-14.094-11.144-18.748c-3.775-2.985-8.26-5.746-9.744-10.32-1.648-5.074.946-11.038-1.513-15.772-2.14-4.12-7.222-5.612-11.8-6.415s-9.614-1.539-12.695-5.015Z" transform="translate(-675.567 -904.232)" fill="#4f95ff"/>
    </clipPath>
    <clipPath id="clip-path-4">
      <path id="Trazado_884590" data-name="Trazado 884590" d="M1828.792,831.014c1.051-9.622,12.728-15.629,13.292-25.288.542-9.281-9.344-15.9-11.5-24.944-2.884-12.1,8.7-23.283,8.7-35.721a19.676,19.676,0,0,0-38.441-5.927c-4.035,12.783,5.175,28.176-2.068,39.458-6.776,10.559-23.939,10.412-30.341,21.2-4.716,7.949-1.4,18.033,1.828,26.692s6.066,19.055.681,26.566c-2.993,4.174-7.915,6.44-11.883,9.7a28.568,28.568,0,0,0,12.354,50.06l18.117,13.022c6.141,7.613,19.059,6.562,26.062-.269s9-17.419,8.327-27.18c-.429-6.255-1.7-13.006,1.421-18.449,3.455-6.036,11.48-8.756,13.892-15.28,2.1-5.679-.912-11.883-4.149-17s-6.944-10.626-6.284-16.642Z" transform="translate(-1748.667 -725.402)" fill="#79c0ff"/>
    </clipPath>
    <clipPath id="clip-path-5">
      <rect id="Rectángulo_404402" data-name="Rectángulo 404402" width="325.527" height="377.553" fill="none"/>
    </clipPath>
    <clipPath id="clip-path-6">
      <rect id="Rectángulo_404388" data-name="Rectángulo 404388" width="48.233" height="50.537" fill="#79c0ff"/>
    </clipPath>
    <clipPath id="clip-path-7">
      <rect id="Rectángulo_404388-2" data-name="Rectángulo 404388" width="38.716" height="40.566" fill="#79c0ff"/>
    </clipPath>
    <clipPath id="clip-path-8">
      <rect id="Rectángulo_404389" data-name="Rectángulo 404389" width="19.956" height="19.955" fill="none"/>
    </clipPath>
    <clipPath id="clip-path-9">
      <rect id="Rectángulo_404389-2" data-name="Rectángulo 404389" width="19.956" height="19.955" fill="none" stroke="#2e53f0" stroke-width="1"/>
    </clipPath>
    <clipPath id="clip-path-10">
      <rect id="Rectángulo_404437" data-name="Rectángulo 404437" width="41.76" height="32.387" transform="translate(0 0)" fill="none"/>
    </clipPath>
    <clipPath id="clip-path-11">
      <rect id="Rectángulo_404437-2" data-name="Rectángulo 404437" width="37.211" height="28.859" fill="none"/>
    </clipPath>
    <clipPath id="clip-path-12">
      <rect id="Rectángulo_404437-3" data-name="Rectángulo 404437" width="41.76" height="32.387" fill="none"/>
    </clipPath>
  </defs>
  <g id="_2" data-name="2" transform="translate(-915 -513.914)">
    <g id="Grupo_1103849" data-name="Grupo 1103849" transform="translate(10898 10778.467)">
      <path id="Trazado_884579" data-name="Trazado 884579" d="M2509.925,781.4c46.479-44.368,57.583-134.954,14.532-197.938-35.883-52.5-101.976-106.5-185.26-122.236s-156.25-15.723-187.805,5.072c-25.823,17.018-13.819,40.718-5.72,60.859,10.811,26.886,12.4,48.233-32.069,87.291-50.769,44.585-64.51,61.323-67.054,104.436-2.07,35.064,27.205,82.231,65.618,88.988,53.478,9.409,73.326-15.443,125.646-32.2,41.97-13.44,71.081-7.156,109.134,18.6s94.773,52.232,162.981-12.88Z" transform="translate(-12029.445 -10714.55)" fill="#a3caff" opacity="0.5"/>
      <g id="Enmascarar_grupo_1099700" data-name="Enmascarar grupo 1099700" transform="translate(-10898 -10779)" clip-path="url(#clip-path)">
        <g id="Grupo_1103859" data-name="Grupo 1103859" transform="translate(25.099)">
          <path id="Trazado_884580" data-name="Trazado 884580" d="M905.59,961.341a70.928,70.928,0,0,0,36.188-34.868c4.309-9.21,6-21.509-1.438-28.437-4.956-4.615-12.64-5.233-19.126-3.287S909.142,900.8,903.7,904.837c3.918-8.739,7.911-17.8,7.97-27.373s-4.914-19.874-13.973-22.972c-8.256-2.825-17.688,1.148-23.443,7.709s-8.474,15.221-10.294,23.754c-2.03-10.072-4.254-20.555-10.652-28.592s-18.34-12.669-27.251-7.558c-6.612,3.792-9.786,11.9-9.761,19.517s2.707,14.96,5.355,22.11A70.511,70.511,0,0,0,791.4,867.909c-8-3.237-18.626-4.321-23.973,2.459-3.632,4.607-3.287,11.4-.7,16.671s7.016,9.357,11.349,13.313c-7.314-5.082-14.931-10.294-23.7-11.866s-19.05,1.555-23,9.538c-5.25,10.605,2.716,22.888,11.089,31.249,30.755,30.717,81.789,68.392,125.434,69.527,5.181.135,2.476-19.58,7.889-19.976" transform="translate(162.958 -94.325)" fill="#2e53f0"/>
          <g id="Grupo_1103856" data-name="Grupo 1103856" transform="translate(919.926 722.642)">
            <path id="Trazado_884581" data-name="Trazado 884581" d="M867.362,782.714c-1.051-9.622-12.728-15.629-13.292-25.288-.542-9.281,9.344-15.9,11.5-24.944,2.884-12.1-8.7-23.283-8.7-35.721a19.676,19.676,0,0,1,38.441-5.927c4.035,12.783-5.174,28.176,2.068,39.458,6.776,10.559,23.939,10.412,30.341,21.2,4.716,7.949,1.4,18.033-1.828,26.692s-6.066,19.055-.681,26.566c2.993,4.174,7.915,6.44,11.883,9.7a28.568,28.568,0,0,1-12.354,50.06l-18.117,13.023c-6.141,7.613-19.059,6.562-26.062-.269s-9-17.419-8.327-27.18c.429-6.255,1.7-13.006-1.421-18.449-3.455-6.036-11.48-8.756-13.893-15.28-2.1-5.679.912-11.883,4.149-17s6.944-10.626,6.284-16.642Z" transform="translate(-854.049 -677.102)" fill="#79c0ff"/>
            <g id="Grupo_1103855" data-name="Grupo 1103855" clip-path="url(#clip-path-2)">
              <path id="Trazado_884582" data-name="Trazado 884582" d="M909.041,868.583c-15.91-19.706-17.062-47.083-25.4-71-5.057-14.5-12.88-27.953-17.373-42.64C860,734.453,860.5,712.616,858.393,691.3s-7.554-43.649-22.846-58.656m-.492,26.318a273.588,273.588,0,0,0,23.17,32.871M830.843,686a78.04,78.04,0,0,0,29.42,29.278m-34.78-15.637A91.621,91.621,0,0,0,860.831,722m-2.3-29.858a53.293,53.293,0,0,0,10.614-29.82m-10.223,37.327a85.509,85.509,0,0,0,13.086-14.809m-1,82.965c15.688-12.161,25.162-28.269,30.913-43.1m-35.385,31.11a83.722,83.722,0,0,0,27.23-41.644M822,727.984a98,98,0,0,0,42.628,19.408M808.77,754.7a184,184,0,0,0,70.262,31.291M835.862,765.1c13.321,6.5,25.44,10.042,39.87,13.426m8.344,19.694a80.688,80.688,0,0,0,16.7-26.6M890.31,818.683a77.929,77.929,0,0,0,29.5-34.612M819.216,803.828a352.385,352.385,0,0,0,68.967,9.428m-54.776.37a226.015,226.015,0,0,0,57.319,8.743" transform="translate(-827.803 -651.33)" fill="none" stroke="#4f95ff" stroke-miterlimit="10" stroke-width="5.71" opacity="0.53"/>
            </g>
          </g>
          <g id="Grupo_1103858" data-name="Grupo 1103858" transform="translate(894.901 831.115)">
            <path id="Trazado_884584" data-name="Trazado 884584" d="M744.094,958.3c-4.922-5.561-2.312-15.288-7.507-20.593-4.994-5.095-13.851-2.892-20.1-6.335-8.361-4.6-8.735-16.949-15.8-23.367a15.1,15.1,0,0,0-23.195,18.777c5.179,8.886,18.672,11.593,21.341,21.526,2.5,9.294-6.436,18.966-3.607,28.168,2.085,6.78,9.521,10.093,16.1,12.728s13.947,6.381,15.44,13.317c.828,3.855-.425,7.814-.622,11.753a21.917,21.917,0,0,0,34.8,18.807l16.743-3.573c7.491.437,13.556-7.44,13.287-14.939s-5.254-14.094-11.144-18.748c-3.775-2.985-8.26-5.746-9.744-10.32-1.648-5.074.946-11.038-1.513-15.772-2.14-4.12-7.222-5.612-11.8-6.415s-9.614-1.539-12.695-5.015Z" transform="translate(-675.567 -904.232)" fill="#4f95ff"/>
            <g id="Grupo_1103857" data-name="Grupo 1103857" clip-path="url(#clip-path-3)">
              <path id="Trazado_884585" data-name="Trazado 884585" d="M676.821,872.81c.639,16.423,10.509,31.035,21.53,43.229s23.687,23.17,32.09,37.3c6.024,10.126,9.626,21.509,15.255,31.858,9.281,17.071,24.237,31.846,27.226,51.047M698.738,916.215a210.247,210.247,0,0,0-6.717-30.114m18.987,43.363a59.914,59.914,0,0,0-1.454-31.808m4.981,35.6a70.26,70.26,0,0,0,5.528-31.61M676.35,907.2a40.916,40.916,0,0,0,22.409,9.353m-11.093,3.888a65.535,65.535,0,0,0,15.158.206m-7.953,37.34c11.392,4.384,25.427,7.314,40.425,4.674m-42.2-14.737a64.235,64.235,0,0,0,37.7,6.011m-3.8-5.431a75.179,75.179,0,0,0,10.963-34.221m3.531,62.309a141.285,141.285,0,0,0,18.466-56.045m-21,50.324c5.523-9.941,9.76-18.651,12.938-29.568m-29.778,40.232a61.92,61.92,0,0,0,23.72,4.233m-26.465,13a59.774,59.774,0,0,0,34.872,1.1m-1.984-4.006a270.082,270.082,0,0,0,30.215-44.032M756.116,1002a173.646,173.646,0,0,0,24.6-37.067" transform="translate(-676.021 -886.018)" fill="none" stroke="#fefefe" stroke-miterlimit="10" stroke-width="4.38" opacity="0.23"/>
            </g>
          </g>
        </g>
        <g id="Grupo_1103862" data-name="Grupo 1103862" transform="translate(499.869)">
          <path id="Trazado_884587" data-name="Trazado 884587" d="M1680.776,919.757c-16.1,1.9-33.208-2.6-47.075-12.4-8.23-5.813-15.978-15.553-13.615-25.1,1.572-6.36,7.4-10.614,13.607-12.085s12.808-.651,19.256.177c-7.676-5.6-15.574-11.442-20.593-19.635s-6.385-19.437-.74-26.486c5.145-6.423,14.759-7.583,22.775-4.737s14.687,8.958,20.576,15.4c-3.6-9.626-7.268-19.7-6.318-29.7s8.1-19.757,17.894-19.685c7.264.055,14.01,5.469,17.949,12.026s5.6,14.149,7.192,21.568a66.854,66.854,0,0,1,12.009-34.843c4.729-6.654,12.669-12.732,20.467-9.5,5.3,2.194,8.55,8.2,9.218,13.968s-.761,11.429-2.173,16.923c3.22-7.907,6.612-16.066,12.812-21.665s16.057-7.89,23.367-2.951c9.71,6.562,9.71,20.959,7.348,32.191-9.761,46.415-40.118,86.546-81.018,107.1" transform="translate(-875.905 -10.548)" fill="#2e53f0"/>
          <g id="Grupo_1103861" data-name="Grupo 1103861" transform="translate(809.98 742.944)">
            <path id="Trazado_884588" data-name="Trazado 884588" d="M1828.792,831.014c1.051-9.622,12.728-15.629,13.292-25.288.542-9.281-9.344-15.9-11.5-24.944-2.884-12.1,8.7-23.283,8.7-35.721a19.676,19.676,0,0,0-38.441-5.927c-4.035,12.783,5.175,28.176-2.068,39.458-6.776,10.559-23.939,10.412-30.341,21.2-4.716,7.949-1.4,18.033,1.828,26.692s6.066,19.055.681,26.566c-2.993,4.174-7.915,6.44-11.883,9.7a28.568,28.568,0,0,0,12.354,50.06l18.117,13.022c6.141,7.613,19.059,6.562,26.062-.269s9-17.419,8.327-27.18c-.429-6.255-1.7-13.006,1.421-18.449,3.455-6.036,11.48-8.756,13.892-15.28,2.1-5.679-.912-11.883-4.149-17s-6.944-10.626-6.284-16.642Z" transform="translate(-1748.667 -725.402)" fill="#79c0ff"/>
            <g id="Grupo_1103860" data-name="Grupo 1103860" clip-path="url(#clip-path-4)">
              <path id="Trazado_884589" data-name="Trazado 884589" d="M1836.339,680.95c-15.288,15.007-20.74,37.336-22.846,58.656s-1.6,43.162-7.873,63.645c-4.494,14.683-12.321,28.138-17.373,42.64-8.335,23.918-9.491,51.3-25.4,71m50.816-176.758a273.587,273.587,0,0,0,23.17-32.871m-25.2,56.323a78.1,78.1,0,0,0,29.42-29.277m-29.992,36a91.62,91.62,0,0,0,35.347-22.363m-43.662-37.315a53.293,53.293,0,0,0,10.614,29.82m-13.476-7.3a85.651,85.651,0,0,0,13.085,14.809m-43,25.049c5.75,14.834,15.225,30.942,30.913,43.1m-22.758-53.637a83.767,83.767,0,0,0,27.23,41.644m1.917-8.424a97.977,97.977,0,0,0,42.628-19.408M1792.858,834.3a184.091,184.091,0,0,0,70.262-31.291m-66.962,23.826c14.435-3.38,26.549-6.923,39.87-13.426m-64.919,6.524a80.717,80.717,0,0,0,16.7,26.6m-35.73-14.149a77.876,77.876,0,0,0,29.5,34.612m2.127-5.427a352.064,352.064,0,0,0,68.967-9.429m-71.514,18.542a226.361,226.361,0,0,0,57.319-8.743" transform="translate(-1750.646 -699.635)" fill="none" stroke="#4f95ff" stroke-miterlimit="10" stroke-width="5.71" opacity="0.53"/>
            </g>
          </g>
        </g>
      </g>
      <g id="Grupo_1103874" data-name="Grupo 1103874" transform="translate(-9875 -10264.553)">
        <rect id="Rectángulo_404390" data-name="Rectángulo 404390" width="129.613" height="30.953" transform="translate(143.805 346.6)" fill="#72b8b3"/>
        <g id="Grupo_1103873" data-name="Grupo 1103873">
          <g id="Grupo_1103872" data-name="Grupo 1103872" clip-path="url(#clip-path-5)">
            <path id="Trazado_884596" data-name="Trazado 884596" d="M185.344,260.273s27.193.967,27.834,2.416c.65,1.467-7.169,4.843-10.969,6.121" transform="translate(9.331 13.103)" fill="#72b8b3"/>
            <path id="Trazado_884597" data-name="Trazado 884597" d="M264.328,152.4c.251-4.427-61.426-18.147-61.426-18.147s-64.281,13.5-63.991,17.638c3.189,45.5,6.462,122.486,6.462,122.486l111.5.453s5.027-79.619,7.455-122.43" transform="translate(6.993 6.759)" fill="#72b8b3"/>
            <path id="Trazado_884598" data-name="Trazado 884598" d="M199.547,181.405l19.493-33.2-38.852-.158Z" transform="translate(9.071 7.454)" fill="#fff"/>
            <path id="Trazado_884599" data-name="Trazado 884599" d="M218.893,149.567l5.721-9.743c-12.629-3.143-23.548-5.572-23.548-5.572s-12.064,2.533-25.715,5.741l5.466,9.419Z" transform="translate(8.828 6.759)" fill="#b12e00"/>
            <path id="Trazado_884600" data-name="Trazado 884600" d="M199.289,182.017l-30.747-33.052,6.366-9.55,1.093.729-5.792,8.685,30.041,32.293Z" transform="translate(8.485 7.019)" fill="#fff"/>
            <path id="Trazado_884601" data-name="Trazado 884601" d="M199.5,182.017l-.962-.895,30.04-32.293-5.791-8.685,1.093-.729,6.365,9.55Z" transform="translate(9.995 7.019)" fill="#fff"/>
            <path id="Trazado_884602" data-name="Trazado 884602" d="M187.526,207.805H153.541V189.776h33.985Zm-32.672-1.313h31.359v-15.4H154.854Z" transform="translate(7.73 9.554)" fill="#fff"/>
            <path id="Trazado_884603" data-name="Trazado 884603" d="M257.747,265.418l-111.669-2.611L130.1,349.7l143.929.584Z" transform="translate(6.55 13.231)" fill="#72b8b3"/>
            <path id="Trazado_884604" data-name="Trazado 884604" d="M160.982,182.506a10.653,10.653,0,0,0,8.11,12.587,10.409,10.409,0,0,0,12.23-8.338,10.659,10.659,0,0,0-8.086-12.568,10.382,10.382,0,0,0-12.254,8.319" transform="translate(8.094 8.758)" fill="#fff"/>
            <path id="Trazado_884605" data-name="Trazado 884605" d="M170.988,191.522a6.818,6.818,0,0,1-1.377-.142,7.12,7.12,0,0,1-2.355-12.849,6.686,6.686,0,0,1,5.111-.98,7.115,7.115,0,0,1,2.351,12.835,6.717,6.717,0,0,1-3.73,1.135m-.015-12.8a5.406,5.406,0,0,0-2.993.909,5.806,5.806,0,0,0,1.9,10.467,5.4,5.4,0,0,0,4.115-.8,5.8,5.8,0,0,0-1.9-10.457,5.509,5.509,0,0,0-1.123-.117" transform="translate(8.261 8.931)" fill="#00113c"/>
            <path id="Trazado_884606" data-name="Trazado 884606" d="M170.192,186.506c-.113-.31-11.06-31.338-.134-45.349,3.925-5.033,10.164-7.134,18.564-6.242l-.14,1.306c-7.908-.839-13.761,1.092-17.389,5.743-8.8,11.287-2.55,36.239.333,44.088Z" transform="translate(8.317 6.782)" fill="#00113c"/>
            <path id="Trazado_884607" data-name="Trazado 884607" d="M233.224,167.237l-1.3-.22c1.874-11.051.087-20.432-4.9-25.739-3.908-4.159-9.725-5.861-17.278-5.057l-.14-1.307c7.994-.851,14.17.99,18.375,5.465,5.271,5.608,7.181,15.4,5.239,26.857" transform="translate(10.553 6.782)" fill="#00113c"/>
            <path id="Trazado_884608" data-name="Trazado 884608" d="M237.775,204.4l-9.319-2.589.351-1.266,8.055,2.238,5.03-18.1a14.529,14.529,0,1,0-28-7.781l-5.031,18.1,8.055,2.236-.351,1.267-9.322-2.59,5.383-19.367a15.842,15.842,0,1,1,30.527,8.483Z" transform="translate(10.434 8.304)" fill="#00113c"/>
            <path id="Trazado_884609" data-name="Trazado 884609" d="M213.03,195.492a2.847,2.847,0,1,0,3.506-1.981,2.848,2.848,0,0,0-3.506,1.981" transform="translate(10.72 9.737)" fill="#fff"/>
            <path id="Trazado_884610" data-name="Trazado 884610" d="M225.218,198.879a2.848,2.848,0,1,0,3.506-1.981,2.848,2.848,0,0,0-3.506,1.981" transform="translate(11.333 9.908)" fill="#fff"/>
            <path id="Trazado_884611" data-name="Trazado 884611" d="M286.137,188.379c12.5,18.512,22.642,40.51,25.951,52.66,2.874,10.554-22.642,11.535-22.642,11.535s-16.621-25.43-26.989-47.691Z" transform="translate(13.213 9.484)" fill="#b12e00"/>
            <path id="Trazado_884612" data-name="Trazado 884612" d="M300.1,212.167l-28.122,12.856c-2.981-6.22-6.27-13.15-9.525-20.14l23.68-16.5A232.552,232.552,0,0,1,300.1,212.167" transform="translate(13.213 9.484)" fill="#8a2200"/>
            <path id="Trazado_884613" data-name="Trazado 884613" d="M266.9,226.994l-23.141-30.166s4.367-49.5,6.5-49.048c20.926,4.466,28.451,20.529,51.272,60.509Z" transform="translate(12.272 7.44)" fill="#72b8b3"/>
            <path id="Trazado_884614" data-name="Trazado 884614" d="M229.808,273.285l14.052,9.473s60.319-26.525,69.325-38.672c4.553-6.141-14.311-23.107-14.311-23.107Z" transform="translate(11.57 11.125)" fill="#b12e00"/>
            <path id="Trazado_884615" data-name="Trazado 884615" d="M215.916,296.694l14.513-25.874S248.6,268.011,248.5,272.6c-.377,17.351-13.053,28.029-18.368,30.371-6.982,3.074-14.22-6.279-14.22-6.279" transform="translate(10.87 13.592)" fill="#00557a"/>
            <path id="Trazado_884616" data-name="Trazado 884616" d="M245.259,280.657l-15.452-9.273,15.4-12.611,10.962,16.766c-4.252,1.977-10.909,5.119-10.909,5.119" transform="translate(11.57 13.028)" fill="#00557a"/>
            <path id="Trazado_884617" data-name="Trazado 884617" d="M251.028,207.85c-.059-.341-5.756-34.575.538-56.215l1.261.367c-6.21,21.35-.562,55.29-.505,55.629Z" transform="translate(12.516 7.634)" fill="#fff"/>
            <rect id="Rectángulo_404391" data-name="Rectángulo 404391" width="37.999" height="26.672" transform="translate(223.888 298.004)" fill="#72b8b3"/>
            <path id="Trazado_884618" data-name="Trazado 884618" d="M251.844,294.96H212.532V283.094h39.312Zm-38-1.313h36.686v-9.24H213.845Z" transform="translate(10.7 14.252)" fill="#fff"/>
            <rect id="Rectángulo_404392" data-name="Rectángulo 404392" width="1.312" height="64.87" transform="translate(176.258 273.697) rotate(-84.623)" fill="#fff"/>
            <path id="Trazado_884619" data-name="Trazado 884619" d="M210.871,150.647l4.932-52.3h-32.81l4.6,52.3Z" transform="translate(9.213 4.951)" fill="#b12e00"/>
            <path id="Trazado_884620" data-name="Trazado 884620" d="M211.7,138.165l2.914-21.859-27.871-2.5c4.762,13.521,14.983,23.94,24.957,24.359" transform="translate(9.401 5.73)" fill="#8a2200"/>
            <path id="Trazado_884621" data-name="Trazado 884621" d="M236.12,76.032a35.8,35.8,0,1,1-36.383-35.2,35.8,35.8,0,0,1,36.383,35.2" transform="translate(8.283 2.055)" fill="#00113c"/>
            <path id="Trazado_884622" data-name="Trazado 884622" d="M224.916,85.419c.07-.686,8.422.15,8.424,7.766,0,6.6-5.17,12.668-10.629,13.571,0,0,2.2-21.325,2.206-21.338" transform="translate(11.212 4.291)" fill="#8a2200"/>
            <path id="Trazado_884623" data-name="Trazado 884623" d="M224.169,101.186l-.45-1.233c2.655-.968,3.518-2.541,3.078-5.608-.347-2.419,1.789-3.635,2.967-3.94l.332,1.27c-.093.025-2.267.626-2,2.483.527,3.677-.684,5.845-3.927,7.028" transform="translate(11.263 4.551)" fill="#00113c"/>
            <path id="Trazado_884624" data-name="Trazado 884624" d="M172.958,84.954c-.059-.687-8.423,0-8.56,7.615-.12,6.594,4.942,12.759,10.385,13.76,0,0-1.823-21.361-1.824-21.375" transform="translate(8.276 4.267)" fill="#8a2200"/>
            <path id="Trazado_884625" data-name="Trazado 884625" d="M173.214,100.734c-3.222-1.242-4.395-3.43-3.8-7.1.3-1.852-1.862-2.491-1.954-2.518l.354-1.265c1.172.326,3.287,1.58,2.9,3.992-.495,3.059.339,4.646,2.978,5.662Z" transform="translate(8.431 4.524)" fill="#00113c"/>
            <path id="Trazado_884626" data-name="Trazado 884626" d="M170.035,74.743c.4,24.018,5.038,57.288,30.958,56.86,23.191-.382,29.462-33.832,29.066-57.85s-13.925-29.4-30.5-29.129-29.919,6.1-29.523,30.119" transform="translate(8.56 2.246)" fill="#b12e00"/>
            <path id="Trazado_884627" data-name="Trazado 884627" d="M187.5,90.518c-1.085,0-1.962,1.322-1.96,2.949s.884,2.944,1.969,2.942,1.962-1.321,1.959-2.948-.883-2.945-1.968-2.943" transform="translate(9.341 4.557)" fill="#00113c"/>
            <path id="Trazado_884628" data-name="Trazado 884628" d="M209.935,90.483c-1.085,0-1.962,1.322-1.96,2.949s.884,2.944,1.969,2.942,1.962-1.321,1.959-2.948-.883-2.945-1.968-2.943" transform="translate(10.47 4.555)" fill="#00113c"/>
            <path id="Trazado_884629" data-name="Trazado 884629" d="M181.252,84.583l11.919-.019a7.825,7.825,0,0,0-11.919.019" transform="translate(9.125 4.119)" fill="#00113c"/>
            <path id="Trazado_884630" data-name="Trazado 884630" d="M204.625,84.546l11.919-.019a7.825,7.825,0,0,0-11.919.019" transform="translate(10.302 4.117)" fill="#00113c"/>
            <path id="Trazado_884631" data-name="Trazado 884631" d="M199.149,106.359a4.413,4.413,0,0,1-4.613-3.669c-.274-1.889.811-4.144,3.8-4.874l-.124-8.708,1.313-.019.139,9.814L199.1,99c-2.548.429-3.478,2.068-3.268,3.5.207,1.417,1.542,2.805,3.959,2.505l.162,1.3a6.544,6.544,0,0,1-.808.051" transform="translate(9.792 4.485)" fill="#00113c"/>
            <path id="Trazado_884632" data-name="Trazado 884632" d="M199.57,41.825A29.45,29.45,0,0,1,227.3,57.6l-.006.284c.247.275.5.588.768.951,4.115,5.622,3.915,18.457,3.34,25.4-1.083.715-2.614,7.225-5.246,5.324-2.065-1.493-3.589-8.421-4.14-15.552a22.386,22.386,0,0,1-19.736-7c-5.972-6.765-7.227-17.367-2.7-25.178" transform="translate(9.91 2.102)" fill="#00113c"/>
            <path id="Trazado_884633" data-name="Trazado 884633" d="M199.325,41.825A29.45,29.45,0,0,0,171.6,57.6l.006.284c-.247.275-.5.588-.768.951-4.115,5.622-3.914,18.457-3.34,25.4,1.083.715,2.614,7.225,5.246,5.324,2.065-1.493,3.589-8.421,4.14-15.552a22.386,22.386,0,0,0,19.736-7c5.972-6.765,7.227-17.367,2.7-25.178" transform="translate(8.417 2.102)" fill="#00113c"/>
            <path id="Trazado_884638" data-name="Trazado 884638" d="M226.318,26.438A26.438,26.438,0,1,1,199.88,0a26.438,26.438,0,0,1,26.438,26.438" transform="translate(8.732)" fill="#00113c"/>
            <path id="Trazado_884639" data-name="Trazado 884639" d="M45.8,102.589C50.36,88.931,56.476,75.662,61.865,62.314h66.709c5.389,13.348,11.505,26.617,16.066,40.275,4.609,13.8,2.25,26.97-9.833,35.838-10.423,7.649-24.3,11.688-37.17,11.63H92.8c-12.868.058-26.746-3.982-37.17-11.63-12.083-8.868-14.442-22.033-9.833-35.838" transform="translate(2.195 3.137)" fill="#00113c"/>
            <rect id="Rectángulo_404395" data-name="Rectángulo 404395" width="129.613" height="30.953" transform="translate(32.609 346.6)" fill="#72b8b3"/>
            <path id="Trazado_884640" data-name="Trazado 884640" d="M107.35,260.273s-27.193.967-27.834,2.416c-.65,1.467,7.169,4.843,10.969,6.121" transform="translate(4.001 13.103)" fill="#8aded9"/>
            <path id="Trazado_884641" data-name="Trazado 884641" d="M33.043,152.4c-.251-4.427,61.425-18.147,61.425-18.147s64.282,13.5,63.992,17.638C155.272,197.387,152,274.377,152,274.377l-111.5.453s-5.027-79.619-7.455-122.43" transform="translate(1.664 6.759)" fill="#8aded9"/>
            <path id="Trazado_884642" data-name="Trazado 884642" d="M93.674,181.405l-19.493-33.2,38.852-.158Z" transform="translate(3.735 7.454)" fill="#fff"/>
            <path id="Trazado_884643" data-name="Trazado 884643" d="M74.826,149.567l-5.721-9.743c12.629-3.143,23.548-5.572,23.548-5.572s12.064,2.533,25.715,5.741l-5.466,9.419Z" transform="translate(3.479 6.759)" fill="#ffb68f"/>
            <path id="Trazado_884644" data-name="Trazado 884644" d="M93.589,182.017l-.962-.895,30.041-32.293-5.792-8.685,1.093-.729,6.365,9.55Z" transform="translate(4.663 7.019)" fill="#fff"/>
            <path id="Trazado_884645" data-name="Trazado 884645" d="M93.378,182.017,62.632,148.965,69,139.415l1.093.729L64.3,148.829,94.34,181.122Z" transform="translate(3.153 7.019)" fill="#fff"/>
            <path id="Trazado_884646" data-name="Trazado 884646" d="M40.51,265.418l111.669-2.611L168.16,349.7l-143.929.584Z" transform="translate(1.22 13.231)" fill="#8aded9"/>
            <path id="Trazado_884647" data-name="Trazado 884647" d="M145.977,294.96H106.666V283.094h39.311Zm-38-1.313h36.685v-9.24H107.979Z" transform="translate(5.37 14.252)" fill="#fff"/>
            <path id="Trazado_884648" data-name="Trazado 884648" d="M80.71,294.96H41.4V283.094H80.71Zm-38-1.313H79.4v-9.24H42.711Z" transform="translate(2.084 14.252)" fill="#fff"/>
            <rect id="Rectángulo_404396" data-name="Rectángulo 404396" width="64.87" height="1.312" transform="translate(65.061 278.467) rotate(-5.373)" fill="#fff"/>
            <path id="Trazado_884649" data-name="Trazado 884649" d="M82.06,150.647l-4.932-52.3h32.81l-4.6,52.3Z" transform="translate(3.883 4.951)" fill="#ffb68f"/>
            <path id="Trazado_884650" data-name="Trazado 884650" d="M81,138.165l-2.914-21.859,27.871-2.5c-4.762,13.521-14.983,23.94-24.957,24.359" transform="translate(3.931 5.73)" fill="#d28262"/>
            <path id="Trazado_884651" data-name="Trazado 884651" d="M58.669,76.032a35.8,35.8,0,1,0,36.383-35.2,35.8,35.8,0,0,0-36.383,35.2" transform="translate(2.953 2.055)" fill="#00113c"/>
            <path id="Trazado_884652" data-name="Trazado 884652" d="M66.953,85.419c-.071-.686-8.422.15-8.424,7.766,0,6.6,5.17,12.668,10.629,13.571,0,0-2.2-21.325-2.206-21.338" transform="translate(2.947 4.291)" fill="#d28262"/>
            <path id="Trazado_884653" data-name="Trazado 884653" d="M67.5,101.186c-3.246-1.183-4.457-3.351-3.927-7.028.268-1.874-1.905-2.458-2-2.482L61.9,90.4c1.178.3,3.314,1.521,2.968,3.94-.441,3.067.421,4.639,3.078,5.608Z" transform="translate(3.1 4.551)" fill="#00113c"/>
            <path id="Trazado_884654" data-name="Trazado 884654" d="M118.9,84.954c.059-.687,8.422,0,8.56,7.615.12,6.594-4.942,12.759-10.386,13.76,0,0,1.823-21.361,1.826-21.375" transform="translate(5.894 4.267)" fill="#d28262"/>
            <path id="Trazado_884655" data-name="Trazado 884655" d="M118.444,100.734l-.472-1.225c2.637-1.017,3.471-2.6,2.977-5.663-.39-2.412,1.725-3.666,2.9-3.991l.351,1.265-.175-.632.178.632c-.091.026-2.254.666-1.955,2.518.593,3.667-.58,5.856-3.8,7.1" transform="translate(5.939 4.524)" fill="#00113c"/>
            <path id="Trazado_884656" data-name="Trazado 884656" d="M124.2,74.743c-.4,24.018-5.038,57.288-30.958,56.86-23.191-.382-29.462-33.832-29.066-57.85s13.925-29.4,30.5-29.129,29.919,6.1,29.523,30.119" transform="translate(3.23 2.246)" fill="#ffb68f"/>
            <path id="Trazado_884657" data-name="Trazado 884657" d="M104.049,90.518c1.085,0,1.962,1.322,1.959,2.949s-.883,2.944-1.968,2.942-1.962-1.321-1.959-2.948.883-2.945,1.968-2.943" transform="translate(5.139 4.557)" fill="#00113c"/>
            <path id="Trazado_884658" data-name="Trazado 884658" d="M81.611,90.483c1.085,0,1.962,1.322,1.96,2.949s-.884,2.944-1.969,2.942-1.962-1.321-1.959-2.948.883-2.945,1.968-2.943" transform="translate(4.01 4.555)" fill="#00113c"/>
            <path id="Trazado_884659" data-name="Trazado 884659" d="M110.677,84.583l-11.918-.019a7.824,7.824,0,0,1,11.918.019" transform="translate(4.972 4.119)" fill="#00113c"/>
            <path id="Trazado_884660" data-name="Trazado 884660" d="M87.3,84.546l-11.918-.019a7.824,7.824,0,0,1,11.918.019" transform="translate(3.795 4.117)" fill="#00113c"/>
            <path id="Trazado_884661" data-name="Trazado 884661" d="M92.472,106.359a6.59,6.59,0,0,1-.81-.051l.163-1.3c2.427.294,3.752-1.089,3.96-2.505.209-1.435-.719-3.074-3.267-3.5l-.556-.093.137-9.814,1.313.019-.122,8.708c2.984.73,4.07,2.985,3.795,4.874a4.414,4.414,0,0,1-4.613,3.669" transform="translate(4.615 4.485)" fill="#00113c"/>
            <path id="Trazado_884666" data-name="Trazado 884666" d="M120.884,87.77c2.136,0,3.869-2.6,3.869-5.8s-1.761-24.8-3.869-25.149c-34.821-5.8-2.136,30.953,0,30.953" transform="translate(5.282 2.829)" fill="#00113c"/>
            <path id="Trazado_884667" data-name="Trazado 884667" d="M65.816,87.77c-2.136,0-3.869-2.6-3.869-5.8s1.761-24.8,3.869-25.149c34.821-5.8,2.136,30.953,0,30.953" transform="translate(3.119 2.829)" fill="#00113c"/>
            <path id="Trazado_884668" data-name="Trazado 884668" d="M64.889,55.938A35.864,35.864,0,0,1,84.628,42.053H103.7a35.835,35.835,0,0,1,19.71,13.894c-6.489,11.667-17.47,19.238-29.839,18.987-11.955-.242-22.42-7.732-28.681-19" transform="translate(3.267 2.117)" fill="#00113c"/>
            <path id="Trazado_884669" data-name="Trazado 884669" d="M140.021,214.891H106.036v-25.73h33.985Zm-32.672-1.313h31.359v-23.1H107.349Z" transform="translate(5.338 9.523)" fill="#fff"/>
            <rect id="Rectángulo_404399" data-name="Rectángulo 404399" width="5.158" height="10.318" transform="translate(125.788 192.807)" fill="#00113c"/>
            <path id="Trazado_884670" data-name="Trazado 884670" d="M133.679,207.125h-8.406V196.139h8.406Zm-7.093-1.313h5.78v-8.36h-5.78Z" transform="translate(6.307 9.875)" fill="#00113c"/>
            <rect id="Rectángulo_404400" data-name="Rectángulo 404400" width="10.964" height="1.313" transform="translate(117.404 205.691)" fill="#00113c"/>
            <rect id="Rectángulo_404401" data-name="Rectángulo 404401" width="10.964" height="1.313" transform="translate(117.404 210.849)" fill="#00113c"/>
            <path id="Trazado_884671" data-name="Trazado 884671" d="M175.095,197.286c6.9,22.2,10.408,47.168,10.059,60.27-.3,11.38-26.028,4.7-26.028,4.7s-8.933-30.332-12.584-55.628Z" transform="translate(7.378 9.932)" fill="#ffb68f"/>
            <path id="Trazado_884672" data-name="Trazado 884672" d="M181.875,225.185l-31.885,4.373c-1.1-7.093-2.3-14.987-3.447-22.931l28.553-9.341a241.9,241.9,0,0,1,6.78,27.9" transform="translate(7.378 9.932)" fill="#d28262"/>
            <path id="Trazado_884673" data-name="Trazado 884673" d="M144.184,230.082c-2.058-30.877-1.284-80.322,1.8-80.545,22.842-1.647,33.988,41.764,38.321,72.3Z" transform="translate(7.201 7.526)" fill="#8aded9"/>
            <path id="Trazado_884674" data-name="Trazado 884674" d="M183.44,241.805c8.473,29.493-1.333,114.039-1.333,114.039l-15.861,0s-7.722-79.455-8.516-101.783c-.206-5.779,22.863-22.172,25.71-12.26" transform="translate(7.941 12.017)" fill="#ffb68f"/>
            <path id="Trazado_884675" data-name="Trazado 884675" d="M186.1,332.887l-2.528,28.047H163.32l-1.234-30.859Z" transform="translate(8.16 16.618)" fill="#00557a"/>
            <path id="Trazado_884676" data-name="Trazado 884676" d="M9.69,195.63c-6.631,21.337-10,45.333-9.667,57.925.291,10.938,25.015,4.518,25.015,4.518s8.586-29.152,12.095-53.465Z" transform="translate(0 9.849)" fill="#ffb68f"/>
            <path id="Trazado_884677" data-name="Trazado 884677" d="M3.022,222.444l30.645,4.2c1.061-6.818,2.212-14.4,3.314-22.038L9.538,195.63a232.7,232.7,0,0,0-6.516,26.814" transform="translate(0.152 9.849)" fill="#d28262"/>
            <path id="Trazado_884678" data-name="Trazado 884678" d="M39.52,227.151c1.977-29.676,1.234-77.2-1.732-77.411C15.836,148.156,5.123,189.879.959,219.223Z" transform="translate(0.048 7.536)" fill="#8aded9"/>
            <path id="Trazado_884679" data-name="Trazado 884679" d="M40.547,261.069,7.9,171.38H75.55l32.645,89.689Z" transform="translate(0.398 8.628)" fill="#fff"/>
            <path id="Trazado_884680" data-name="Trazado 884680" d="M63.745,177.717H22.715L17.81,164.243H58.841ZM23.634,176.4H61.869l-3.947-10.848H19.685Z" transform="translate(0.897 8.269)" fill="#00113c"/>
            <path id="Trazado_884681" data-name="Trazado 884681" d="M82.385,223.385l-2.2,15.433s-53.105,21.066-66.6,18.426c-6.821-1.334-1.27-28.324-1.27-28.324Z" transform="translate(0.513 11.246)" fill="#ffb68f"/>
            <path id="Trazado_884682" data-name="Trazado 884682" d="M72.047,228.743s-.108-9,2.433-12c1.995-2.357,14.367-7.967,14.367-7.967S99.08,221.712,100.009,229.3c-5.822,5.655-16.334,9.776-23.948,11.973-.227-4.26-4.014-12.534-4.014-12.534" transform="translate(3.627 10.511)" fill="#00557a"/>
            <path id="Trazado_884683" data-name="Trazado 884683" d="M61.986,223.269l22.721-2.515-8.138,19.921s-3.469,1.287-8.843,3.151Z" transform="translate(3.121 11.114)" fill="#00557a"/>
            <path id="Trazado_884684" data-name="Trazado 884684" d="M147.214,209.692c-.06-.342-5.757-34.575.537-56.215l1.263.367c-6.211,21.349-.563,55.289-.506,55.629Z" transform="translate(7.29 7.727)" fill="#fff"/>
          </g>
        </g>
      </g>
      <path id="Trazado_884850" data-name="Trazado 884850" d="M-9788.612-11952.562a8.532,8.532,0,0,0,6.4,3.292,8.258,8.258,0,0,0,6.312-3.292" transform="translate(5.316 1806.533)" fill="none" stroke="#00113c" stroke-width="1.5"/>
      <path id="Trazado_884851" data-name="Trazado 884851" d="M-9788.612-11952.562a8.532,8.532,0,0,0,6.4,3.292,8.258,8.258,0,0,0,6.312-3.292" transform="translate(116.316 1806.533)" fill="none" stroke="#00113c" stroke-width="1.5"/>
    </g>
    <g id="Grupo_1103865" data-name="Grupo 1103865" transform="translate(938.482 538.519)">
      <g id="Grupo_1103864" data-name="Grupo 1103864" transform="translate(0 0)" clip-path="url(#clip-path-6)">
        <path id="Trazado_884591" data-name="Trazado 884591" d="M12.489,37.766,3.307,47.878A12.731,12.731,0,1,0,22.157,65l9.182-10.111Z" transform="translate(0 -18.632)" fill="#79c0ff"/>
        <path id="Trazado_884592" data-name="Trazado 884592" d="M60.509,3.307a12.732,12.732,0,0,0-17.984.866L33.342,14.284,52.193,31.4l9.183-10.112a12.732,12.732,0,0,0-.866-17.984" transform="translate(-16.449 0)" fill="#79c0ff"/>
      </g>
    </g>
    <g id="Grupo_1103869" data-name="Grupo 1103869" transform="translate(1327.671 542.395)">
      <g id="Grupo_1103864-2" data-name="Grupo 1103864" transform="translate(0 0)" clip-path="url(#clip-path-7)">
        <path id="Trazado_884591-2" data-name="Trazado 884591" d="M15.131,37.766l7.37,8.117A10.219,10.219,0,1,1,7.37,59.623L0,51.507Z" transform="translate(13.56 -22.407)" fill="#79c0ff"/>
        <path id="Trazado_884592-2" data-name="Trazado 884592" d="M36.691,2.654a10.219,10.219,0,0,1,14.436.7L58.5,11.466,43.367,25.207,36,17.09a10.22,10.22,0,0,1,.7-14.436" transform="translate(-33.342 0)" fill="#79c0ff"/>
      </g>
    </g>
    <path id="Trazado_884593" data-name="Trazado 884593" d="M11.615,0V11.616H0V23.881H11.615V35.5H23.88V23.881H35.5V11.616H23.88V0Z" transform="translate(1340.639 632.639)" fill="#fff"/>
    <path id="Trazado_884595" data-name="Trazado 884595" d="M11.615,0V11.616H0V23.881H11.615V35.5H23.88V23.881H35.5V11.616H23.88V0Z" transform="translate(930.639 679.316)" fill="#62a9ff"/>
    <g id="Grupo_1103867" data-name="Grupo 1103867" transform="translate(1047.96 582.96)">
      <g id="Grupo_1103866" data-name="Grupo 1103866" transform="translate(0 0)" clip-path="url(#clip-path-8)">
        <path id="Trazado_884594" data-name="Trazado 884594" d="M1.206,10.253A9.048,9.048,0,1,1,10.254,19.3,9.048,9.048,0,0,1,1.206,10.253Z" transform="translate(-0.276 -0.276)" fill="none" stroke="#fff" stroke-miterlimit="10" stroke-width="2.412"/>
      </g>
    </g>
    <g id="Grupo_1103870" data-name="Grupo 1103870" transform="translate(1379.96 589.056)">
      <g id="Grupo_1103866-2" data-name="Grupo 1103866" transform="translate(0 0)" clip-path="url(#clip-path-9)">
        <path id="Trazado_884594-2" data-name="Trazado 884594" d="M1.206,10.253A9.048,9.048,0,1,1,10.254,19.3,9.048,9.048,0,0,1,1.206,10.253Z" transform="translate(-0.276 -0.276)" fill="none" stroke="#2e53f0" stroke-miterlimit="10" stroke-width="2.412"/>
      </g>
    </g>
    <g id="Grupo_1103967" data-name="Grupo 1103967" transform="translate(1330.116 680.152)">
      <g id="Grupo_1103967-2" data-name="Grupo 1103967" transform="translate(0 0)">
        <path id="Trazado_884594-3" data-name="Trazado 884594" d="M1.206,7.493a6.288,6.288,0,1,1,6.288,6.288A6.288,6.288,0,0,1,1.206,7.493Z" transform="translate(-0.56 -0.56)" fill="none" stroke="#fff" stroke-miterlimit="10" stroke-width="2"/>
      </g>
    </g>
    <g id="Grupo_1103968" data-name="Grupo 1103968" transform="translate(1137.5 513.914)">
      <path id="Trazado_884872" data-name="Trazado 884872" d="M26.668,0,11.576,26.141H41.76Z" fill="#71bff3"/>
      <g id="Grupo_1103963" data-name="Grupo 1103963">
        <g id="Grupo_1103962" data-name="Grupo 1103962" clip-path="url(#clip-path-10)">
          <path id="Trazado_884873" data-name="Trazado 884873" d="M1.444,30.943,16.536,4.8l15.092,26.14Z" fill="none" stroke="#1d71b8" stroke-linecap="round" stroke-linejoin="round" stroke-width="2.888"/>
        </g>
      </g>
    </g>
    <g id="Grupo_1103969" data-name="Grupo 1103969" transform="translate(991.774 627.605)">
      <path id="Trazado_884872-2" data-name="Trazado 884872" d="M25.024,0,11.576,23.294h26.9Z" transform="translate(-1.261 0)" fill="#71bff3"/>
      <g id="Grupo_1103963-2" data-name="Grupo 1103963" transform="translate(0 0)">
        <g id="Grupo_1103962-2" data-name="Grupo 1103962" clip-path="url(#clip-path-11)">
          <path id="Trazado_884873-2" data-name="Trazado 884873" d="M1.444,28.1,14.892,4.8,28.34,28.1Z" transform="translate(-0.157 -0.523)" fill="none" stroke="#1d71b8" stroke-linecap="round" stroke-linejoin="round" stroke-width="2.888"/>
        </g>
      </g>
    </g>
    <g id="Grupo_1103970" data-name="Grupo 1103970" transform="translate(1378.24 698.461)">
      <path id="Trazado_884872-3" data-name="Trazado 884872" d="M26.668,0,41.76,26.141H11.576Z" transform="translate(-11.576 0)" fill="#71bff3"/>
      <g id="Grupo_1103963-3" data-name="Grupo 1103963" transform="translate(0 0)">
        <g id="Grupo_1103962-3" data-name="Grupo 1103962" clip-path="url(#clip-path-12)">
          <path id="Trazado_884873-3" data-name="Trazado 884873" d="M31.628,30.943,16.536,4.8,1.444,30.943Z" transform="translate(8.688 0)" fill="none" stroke="#1d71b8" stroke-linecap="round" stroke-linejoin="round" stroke-width="2.888"/>
        </g>
      </g>
    </g>
  </g>
</svg>
