<svg id="Grupo_1103551" data-name="Grupo 1103551" xmlns="http://www.w3.org/2000/svg" xmlns:xlink="http://www.w3.org/1999/xlink" width="122.932" height="122.932" viewBox="0 0 122.932 122.932">
  <defs>
    <clipPath id="clip-path">
      <rect id="Rectángulo_403527" data-name="Rectángulo 403527" width="122.932" height="122.932" fill="none"/>
    </clipPath>
    <clipPath id="clip-path-2">
      <rect id="Rectángulo_404289" data-name="Rectángulo 404289" width="145.398" height="113.809" fill="none"/>
    </clipPath>
  </defs>
  <g id="Grupo_1101867" data-name="Grupo 1101867">
    <g id="Grupo_1101865" data-name="Grupo 1101865">
      <g id="Grupo_1101864" data-name="Grupo 1101864" clip-path="url(#clip-path)">
        <rect id="Rectángulo_403526" data-name="Rectángulo 403526" width="122.932" height="122.932" fill="#1aa6d2"/>
        <g id="Grupo_1103549" data-name="Grupo 1103549" transform="translate(-35.003 23.605)">
          <g id="Grupo_1103548" data-name="Grupo 1103548" clip-path="url(#clip-path-2)">
            <path id="Trazado_884078" data-name="Trazado 884078" d="M134.327,38.51q-3.249,1.957-6.531,3.856c1.856-.16,9.225-3,10.756-.082a5.267,5.267,0,0,1-1.1,6.46C130.428,53.935,95.93,70.466,89.045,73.45A205.264,205.264,0,0,0,66.437,85.044C51.753,93.706,37.943,103.733,24.21,113.8c-.728.534-24.686-48.868-24.2-48.818,9.425-6.356,20.158-10.114,30.677-14.246C41.257,46.587,52.093,42,60.16,33.725c2.7-2.77,5.023-5.867,7.653-8.7a35.981,35.981,0,0,1,8.618-6.863c2.956-1.693,6.421-3.308,8.463-6.154,1.862-2.6,2.436-5.87,4.272-8.472A7.469,7.469,0,0,1,96.847.155,8.934,8.934,0,0,1,103.468,5.9c1.825,5.757-1.148,10.547-5.1,14.386,2.32-1.322,12.2-12.564,20.166-17.44C120.771,1.476,125.52,0,127.722,2c3.516,3.2-4.437,12.009-4.741,12.363.639-.428,7.445-5.774,10.764-5.71a4.529,4.529,0,0,1,4.151,4.894c-.27,3.063-2.559,5.288-4.506,7.467q-1.207,1.354-2.458,2.666a18.3,18.3,0,0,1,7.214-2.88c2.731-.307,5.588.8,6.683,3.49,2.86,7.023-5.741,11.354-10.5,14.217" transform="translate(0)" fill="#feba91"/>
            <path id="Trazado_884079" data-name="Trazado 884079" d="M164.117,125.817c.065,1.8-6.605,5.392-8.359,6.264a101.347,101.347,0,0,1-9.368,3.943,210.788,210.788,0,0,0-19.86,8.494,181.427,181.427,0,0,0-18.779,10.809q-4.6,3.033-9.009,6.337c-2.886,2.171-5.6,4.6-8.516,6.717a1.431,1.431,0,0,1-1.749-.09,1.573,1.573,0,0,1-1.238-.385A75.89,75.89,0,0,1,71.1,147.933c-4.137-7.408-8.353-25.251-7.709-25.462,2.607-.855,48.269-18.549,55.185-33.953a10.621,10.621,0,0,1,8.834-5.949,25.878,25.878,0,0,1,6.261.453,49.373,49.373,0,0,0,6.506.546,52.355,52.355,0,0,0,13.368-1.536c1.046-.259,4.556,7.36,5.631,10.466a90.5,90.5,0,0,1,3.01,10.738c1.564,7.372,1.664,15.031,1.935,22.582" transform="translate(-50.148 -64.959)" fill="#fef6f0"/>
            <path id="Trazado_884080" data-name="Trazado 884080" d="M98.089,130.281c-2.267-1.4-5.074.551-6.784,1.928a25.486,25.486,0,0,0-5.23,5.96,37.223,37.223,0,0,0-2.451,4.427c-.068-2.088-.248-4.179-.475-6.262-.244-2.237-.4-4.72-1.953-6.491A4.673,4.673,0,0,0,75.27,128.7c-4.365,2.426-2.727,9.725-1.806,13.58a30.516,30.516,0,0,0,6.97,13.3c.719.8,10.936-8.221,14.562-12.54,2.475-2.948,8.223-9.578,3.093-12.756M75.607,138.25c-.256-1.971-.63-4.526.294-6.368,1.071-2.136,3.008-1.057,3.711.685.782,1.938.757,4.349.946,6.405a42,42,0,0,1-.4,12.316,37.261,37.261,0,0,1-3.33-7.417,31.946,31.946,0,0,1-1.225-5.621m21.808-3.765a8.157,8.157,0,0,1-1.463,2.9,47.217,47.217,0,0,1-4.315,5.567,48.857,48.857,0,0,1-7.933,7.075,57.366,57.366,0,0,1,3.539-8.365,31.947,31.947,0,0,1,3.547-5.285c1.328-1.6,3.229-3.614,5.3-4.142,1.249-.319,1.461,1.464,1.326,2.244" transform="translate(-57.324 -101.444)" fill="#e7dfd6"/>
            <path id="Trazado_884081" data-name="Trazado 884081" d="M170.493,284.471a86.9,86.9,0,0,1-16.242-15.011,90.147,90.147,0,0,1-11.494-19.06c-.439-.937-2.245-.694-1.892.449a65.487,65.487,0,0,0,10.774,19.979A68.775,68.775,0,0,0,168.5,286.81c1.421.929,3.507-1.232,1.994-2.339" transform="translate(-111.52 -197.846)" fill="#e7dfd6"/>
            <path id="Trazado_884082" data-name="Trazado 884082" d="M231.053,238.577a240.344,240.344,0,0,1-25.232-3.592c-7.455-1.321-15.241-2.8-21.553-7.238-.854-.6-2.346.327-1.387,1.195,4.09,3.7,9.243,5.516,14.526,6.79,2.77,4.129,6.657,7.3,10.337,10.582l6.25,5.583c2.218,1.981,4.341,4.1,6.669,5.954,1.443,1.149,3.789-.6,2.276-2.055-3.885-3.727-8.235-7.051-12.325-10.553-3.312-2.836-6.785-5.6-9.822-8.758,1.077.224,2.152.438,3.215.651,8.833,1.773,17.746,2.762,26.656,4.017,2.06.29,2.508-2.428.39-2.575" transform="translate(-144.585 -180.211)" fill="#e7dfd6"/>
            <path id="Trazado_884083" data-name="Trazado 884083" d="M337.273,274.255a77.218,77.218,0,0,0-3.846,13.309c-.308,1.535,2.233,2.07,2.533.616.934-4.538,2.053-8.989,3.171-13.485.277-1.115-1.469-1.412-1.857-.44" transform="translate(-264.034 -216.729)" fill="#e7dfd6"/>
            <path id="Trazado_884084" data-name="Trazado 884084" d="M393.363,108.643a54.9,54.9,0,0,0-6.643,8.741,51.3,51.3,0,0,0-2.762,5.144c-.751,1.571-1.858,3.409-1.958,5.166-.079,1.385,1.9,1.5,2.569.618.99-1.319,1.4-3.261,2.063-4.777.734-1.684,1.59-3.305,2.453-4.925a72.627,72.627,0,0,1,5.837-8.93c.658-.887-.905-1.727-1.559-1.037" transform="translate(-302.52 -85.838)" fill="#e7dfd6"/>
            <path id="Trazado_884085" data-name="Trazado 884085" d="M328.534,167.756a115.727,115.727,0,0,1-14.159-5.358c-4.584-2.083-8.927-4.617-13.4-6.914-.861-.443-2.137.607-1.225,1.37a63.892,63.892,0,0,0,13.016,8.026,96.314,96.314,0,0,0,14.886,5.771,1.514,1.514,0,1,0,.881-2.895" transform="translate(-237.136 -123.051)" fill="#e7dfd6"/>
            <path id="Trazado_884086" data-name="Trazado 884086" d="M397.838,110.347c-.444-.991-2.2-.726-1.937.461,1.86,8.512-1.05,17.214-3.595,25.288-2.67,8.473-6.09,16.67-9.4,24.906-.741,1.844,2.448,2.531,3.162.789,3.425-8.37,6.748-16.807,9.435-25.447a97.075,97.075,0,0,0,3.261-13.3c.681-4.213.855-8.721-.926-12.694" transform="translate(-303.151 -86.906)" fill="#e7dfd6"/>
            <path id="Trazado_884087" data-name="Trazado 884087" d="M484.376,120.214a94.343,94.343,0,0,0-3.744-22.09.977.977,0,0,0-1.88.446,203.243,203.243,0,0,1,2.6,22.183,131.236,131.236,0,0,1-.835,22.081c-.225,1.855,2.974,1.856,3.2,0a125.838,125.838,0,0,0,.661-22.62" transform="translate(-379.134 -77.219)" fill="#e7dfd6"/>
            <path id="Trazado_884088" data-name="Trazado 884088" d="M592.691,110.232a25.329,25.329,0,0,1-5.122,3.145c-1.709.783-3.659,1-5.318,1.806-.388.189-.13.592.2.624,1.856.176,4.046-.793,5.717-1.54a20.609,20.609,0,0,0,5.237-3.422c.488-.433-.282-.952-.715-.612" transform="translate(-460.955 -87.21)" fill="#e88452"/>
            <path id="Trazado_884089" data-name="Trazado 884089" d="M576.625,197.494a49.813,49.813,0,0,1-9.181,1.717c-.548.038-.56.774,0,.746a33.3,33.3,0,0,0,9.44-1.663.422.422,0,1,0-.258-.8" transform="translate(-449.053 -156.387)" fill="#e88452"/>
            <path id="Trazado_884090" data-name="Trazado 884090" d="M557.709,65.1a32.4,32.4,0,0,1-4.162,3.71c-1.493,1.113-3.207,1.848-4.714,2.918-.39.277.087.75.444.648,3.521-1,6.822-4.1,9.143-6.81.324-.378-.417-.777-.711-.466" transform="translate(-434.529 -51.47)" fill="#e88452"/>
          </g>
        </g>
      </g>
    </g>
  </g>
</svg>
