<svg id="Grupo_1103547" data-name="Grupo 1103547" xmlns="http://www.w3.org/2000/svg" xmlns:xlink="http://www.w3.org/1999/xlink" width="122.932" height="122.932" viewBox="0 0 122.932 122.932">
  <defs>
    <clipPath id="clip-path">
      <rect id="Rect치ngulo_403527" data-name="Rect치ngulo 403527" width="122.932" height="122.932" fill="none"/>
    </clipPath>
    <clipPath id="clip-path-2">
      <path id="Trazado_884103" data-name="Trazado 884103" d="M0-.348,118.846-10.594,137.732-.348V97.8H0Z" transform="translate(0 10.594)" fill="none"/>
    </clipPath>
  </defs>
  <g id="Grupo_1101867" data-name="Grupo 1101867">
    <g id="Grupo_1101865" data-name="Grupo 1101865">
      <g id="Grupo_1101864" data-name="Grupo 1101864" clip-path="url(#clip-path)">
        <rect id="Rect치ngulo_403526" data-name="Rect치ngulo 403526" width="122.932" height="122.932" fill="#1aa6d2"/>
        <g id="Grupo_1103553" data-name="Grupo 1103553" transform="translate(21.921 5.997)">
          <g id="Enmascarar_grupo_1099698" data-name="Enmascarar grupo 1099698" transform="translate(-10 -3.591)" clip-path="url(#clip-path-2)">
            <path id="Trazado_884091" data-name="Trazado 884091" d="M137.732,10.955c-4.219,12.616-19.914,45.7-24,51.828S95.858,79.633,84.626,78.867,70.839,93.42,65.221,96.721s-10.21-1.513-12.255-2.279A11.559,11.559,0,0,1,40.308,92.65s-9.813,2.2-11.345-5.937c-.438-2.327,1.147-8.578,1.147-8.578S20.287,90.356,12.627,94.442-.9,96.227.116,94.442c.567-.992,10.738-15.606,20.416-29.014,1.314-1.823,2.62-3.623,3.891-5.362,6.223-8.521,11.619-15.621,13.224-16.943C41.99,39.547,87.69,31.888,89.731,29.337S116.126-8.656,116.126-8.656Z" transform="translate(-0.001 10.527)" fill="#feba91"/>
            <path id="Trazado_884092" data-name="Trazado 884092" d="M331.588,948.1a1.144,1.144,0,0,1-.762-.289c-2.318-2.055-8.559-4.1-10.768-4.721a1.149,1.149,0,0,1,.618-2.213c.345.1,8.489,2.391,11.675,5.215a1.149,1.149,0,0,1-.763,2.009" transform="translate(-298.566 -869.716)" fill="#6b98af"/>
            <path id="Trazado_884093" data-name="Trazado 884093" d="M341.579,916.768a4.677,4.677,0,1,1-4.677-4.677,4.677,4.677,0,0,1,4.677,4.677" transform="translate(-310.731 -842.837)" fill="#8cc8eb"/>
            <path id="Trazado_884094" data-name="Trazado 884094" d="M345.376,928.486a.766.766,0,0,1-.752-.627,4.173,4.173,0,0,1,2.181-4.308.766.766,0,0,1,.721,1.351,2.678,2.678,0,0,0-1.4,2.68.766.766,0,0,1-.754.9" transform="translate(-322.266 -853.471)" fill="#d3e8ef"/>
            <path id="Trazado_884095" data-name="Trazado 884095" d="M438.714,887.949a.535.535,0,0,1-.528-.626l2.6-15.005.047-.082c2.2-3.833,2.766-4.629,3.5-5.29l9.77-10.5a.535.535,0,0,1,.783.728l-9.8,10.54-.018.016c-.629.562-1.164,1.324-3.257,4.961l-2.57,14.819a.535.535,0,0,1-.526.444" transform="translate(-409.829 -790.628)" fill="#e88452"/>
            <path id="Trazado_884096" data-name="Trazado 884096" d="M615.291,959.922a.535.535,0,0,1-.521-.656l3.675-15.82a9.133,9.133,0,0,1,2.745-4.875l12.268-11.392a.535.535,0,0,1,.728.784l-12.268,11.392a8.07,8.07,0,0,0-2.427,4.313l0,.013-3.676,15.826a.535.535,0,0,1-.521.414" transform="translate(-574.983 -856.816)" fill="#e88452"/>
            <path id="Trazado_884097" data-name="Trazado 884097" d="M810.956,1038.061a.535.535,0,0,1-.52-.661c.01-.04.977-4.024,2.307-8.253,1.812-5.758,3.418-9.222,4.774-10.3,3.016-2.387,12.168-10.613,12.26-10.7a.535.535,0,0,1,.715.8c-.092.083-9.27,8.331-12.312,10.74-2.395,1.9-5.652,13.608-6.706,17.961a.535.535,0,0,1-.519.409" transform="translate(-757.989 -932.558)" fill="#e88452"/>
            <path id="Trazado_884098" data-name="Trazado 884098" d="M491.5,1095.112h-.027c-3.945-.195-8.58-2.494-8.776-2.592a.535.535,0,0,1,.479-.957c.046.023,4.632,2.3,8.35,2.48a.535.535,0,0,1-.026,1.069" transform="translate(-451.197 -1010.644)" fill="#e88452"/>
            <path id="Trazado_884099" data-name="Trazado 884099" d="M690.986,1146.9a.526.526,0,0,1-.083-.006,43.4,43.4,0,0,1-8.438-2.885.535.535,0,0,1,.442-.974,43.331,43.331,0,0,0,8.159,2.8.535.535,0,0,1-.081,1.063" transform="translate(-638.018 -1058.789)" fill="#e88452"/>
            <path id="Trazado_884100" data-name="Trazado 884100" d="M909.472,1196.743c-1.607,0-7.334-2.72-7.982-3.031a.535.535,0,1,1,.462-.965c2.362,1.131,6.492,2.926,7.519,2.926a.535.535,0,1,1,0,1.07" transform="translate(-842.882 -1105.287)" fill="#e88452"/>
            <path id="Trazado_884101" data-name="Trazado 884101" d="M1386.419,454.092l-.045,0c-2.408-.2-7.257-3.424-7.462-3.562a.535.535,0,0,1,.594-.889c1.335.892,5.186,3.238,6.957,3.385a.535.535,0,0,1-.044,1.068" transform="translate(-1289.478 -410.219)" fill="#e88452"/>
            <path id="Trazado_884102" data-name="Trazado 884102" d="M284.787,1216.614a.535.535,0,0,1-.346-.943c1.3-1.1,11.04-11.593,11.138-11.7a.535.535,0,0,1,.784.728c-.4.434-9.884,10.644-11.23,11.786a.532.532,0,0,1-.346.127" transform="translate(-265.862 -1115.674)" fill="#e88452"/>
          </g>
        </g>
      </g>
    </g>
  </g>
</svg>
