<svg xmlns="http://www.w3.org/2000/svg" width="63.494" height="70.372" viewBox="0 0 63.494 70.372">
  <g id="ankle_7739268" transform="translate(-25.021 0)">
    <g id="Grupo_1103661" data-name="Grupo 1103661" transform="translate(26.39 1.375)">
      <g id="Grupo_1103654" data-name="Grupo 1103654" transform="translate(1.778 53.064)">
        <path id="Trazado_884136" data-name="Trazado 884136" d="M62.729,407.579a3.027,3.027,0,0,0,.338,1.394H53.674a5.756,5.756,0,0,1-5.558-7.247l1.514-5.64a3.238,3.238,0,0,0,1.128.2h2.956A9.015,9.015,0,0,1,62.73,405.3v2.276Z" transform="translate(-47.916 -396.085)" fill="#ffdad5"/>
      </g>
      <g id="Grupo_1103655" data-name="Grupo 1103655" transform="translate(1.552)">
        <path id="Trazado_884137" data-name="Trazado 884137" d="M46.272,10l1.145,12.781H71.555L73.055,10Z" transform="translate(-46.272 -10.003)" fill="#ffdad5"/>
      </g>
      <g id="Grupo_1103656" data-name="Grupo 1103656" transform="translate(44.444 54.052)">
        <path id="Trazado_884138" data-name="Trazado 884138" d="M374.652,411.844v0a3.323,3.323,0,0,1-3.322,3.322H358.346v-11.9a31.716,31.716,0,0,0,8.34,2.02l2.257.231a6.356,6.356,0,0,1,5.709,6.323Z" transform="translate(-358.346 -403.27)" fill="#ffdad5"/>
      </g>
      <g id="Grupo_1103657" data-name="Grupo 1103657" transform="translate(38.217 48.065)">
        <path id="Trazado_884139" data-name="Trazado 884139" d="M319.264,363.144a.15.15,0,0,0-.079-.132l-6.149-3.305v19.558h6.228Z" transform="translate(-313.036 -359.707)" fill="#ffbecc"/>
      </g>
      <g id="Grupo_1103658" data-name="Grupo 1103658" transform="translate(0 12.781)">
        <path id="Trazado_884140" data-name="Trazado 884140" d="M64.118,102.995H34.982l.531,6.013H63.5Z" transform="translate(-34.982 -102.995)" fill="#ffbecc"/>
      </g>
      <g id="Grupo_1103659" data-name="Grupo 1103659" transform="translate(0.531 18.794)">
        <path id="Trazado_884141" data-name="Trazado 884141" d="M67.245,171.025a4.679,4.679,0,0,1-2.439-4.6l2.025-19.678H38.845l2.1,23.741a13.142,13.142,0,0,1-.775,5.743l-.243.652a3.213,3.213,0,0,0,3.011,4.335H45.89a9.016,9.016,0,0,1,9.016,9.016v2.277a3.063,3.063,0,0,0,3.063,3.063H76.531V176.016Z" transform="translate(-38.845 -146.746)" fill="#ff7e96"/>
      </g>
      <g id="Grupo_1103660" data-name="Grupo 1103660" transform="translate(13.753 18.795)">
        <path id="Trazado_884142" data-name="Trazado 884142" d="M159.51,176.021v9.108a3.777,3.777,0,0,1-4.955,1.394l-13.182-6.782a11.66,11.66,0,0,1-6.24-11.791l2.2-17.886a3.773,3.773,0,0,1,3.745-3.313h8.736l-2.026,19.677a4.68,4.68,0,0,0,2.44,4.6Z" transform="translate(-135.045 -146.751)" fill="#ffbecc"/>
      </g>
    </g>
    <path id="Trazado_884143" data-name="Trazado 884143" d="M81.571,56.31l-2.257-.231a30.332,30.332,0,0,1-7.1-1.606v-1.6a1.523,1.523,0,0,0-.8-1.343l-15.435-8.3a3.32,3.32,0,0,1-1.723-3.249L56.893,14.3a1.374,1.374,0,0,0-1.367-1.515H54.77L56.09,1.535a1.374,1.374,0,0,0-2.73-.321L52,12.781H30.343L29.311,1.252a1.374,1.374,0,0,0-2.738.245l1.011,11.284H26.39a1.374,1.374,0,0,0-1.369,1.5l2.627,29.755a11.837,11.837,0,0,1-.695,5.142l-.243.652a4.664,4.664,0,0,0,1.568,5.285L27.04,59.723A7.13,7.13,0,0,0,33.926,68.7H42.58a4.431,4.431,0,0,0,3.465,1.67h24.79A1.374,1.374,0,0,0,72.21,69v-.3H83.818a4.7,4.7,0,0,0,4.7-4.7v0a7.709,7.709,0,0,0-6.944-7.691ZM27.891,15.53H54l-.336,3.264H28.179Zm6.034,50.422a4.381,4.381,0,0,1-4.23-5.517l1.187-4.423.128,0h2.956a7.65,7.65,0,0,1,7.64,7.642v2.3H33.926Zm10.61.735a1.681,1.681,0,0,1-.18-.754V63.656a10.4,10.4,0,0,0-10.39-10.39H31.01a1.859,1.859,0,0,1-1.723-2.481l.243-.652a14.608,14.608,0,0,0,.857-6.343L28.422,21.544h13.2a5.125,5.125,0,0,0-.556,1.772L38.866,41.2c-.045.365-.074.749-.088,1.142a1.374,1.374,0,0,0,2.747.1c.011-.312.034-.616.069-.9l2.2-17.886a2.4,2.4,0,0,1,2.381-2.106h7.213l-1.87,18.163a6.111,6.111,0,0,0,3.156,5.952l8.562,4.6v7.851a2.406,2.406,0,0,1-2.951.607L47.1,51.937c-.237-.122-.473-.255-.7-.4a1.375,1.375,0,0,0-1.444,2.339c.289.179.589.348.889.5l13.182,6.782a5.185,5.185,0,0,0,4.208.219v6.239H46.045a1.69,1.69,0,0,1-1.509-.934Zm21.445.934V51.739l3.479,1.87V67.622ZM85.766,64a1.95,1.95,0,0,1-1.948,1.948H72.21V57.377a33.063,33.063,0,0,0,6.824,1.437l2.257.231A4.968,4.968,0,0,1,85.766,64v0Z" transform="translate(0 0)"/>
    <path id="Trazado_884144" data-name="Trazado 884144" d="M137.925,342.545a1.373,1.373,0,1,0-.744,1.8,1.387,1.387,0,0,0,.744-1.8Z" transform="translate(-95.109 -294.735)"/>
  </g>
</svg>
