<svg xmlns="http://www.w3.org/2000/svg" width="61.554" height="56.767" viewBox="0 0 61.554 56.767">
  <g id="Grupo_1103501" data-name="Grupo 1103501" transform="translate(-334.621 -1399.423)">
    <g id="Rectángulo_401341" data-name="Rectángulo 401341" transform="translate(334.621 1399.423)" fill="#ffb27e" stroke="#fcd8c0" stroke-width="3">
      <rect width="61.554" height="56.767" rx="12" stroke="none"/>
      <rect x="1.5" y="1.5" width="58.554" height="53.767" rx="10.5" fill="none"/>
    </g>
    <g id="back-pain_4986231" transform="translate(315.61 1410.239)">
      <g id="Grupo_1104064" data-name="Grupo 1104064" transform="translate(34.272 0.518)">
        <g id="Grupo_1104062" data-name="Grupo 1104062" transform="translate(2.743)">
          <path id="Trazado_885192" data-name="Trazado 885192" d="M311.85,13.441A4.567,4.567,0,1,0,303.39,14l-1.754,2.25,4.9,3.491,1.09-2.78,2.4.9Z" transform="translate(-285.81 -7.46)" fill="#ffcfc5"/>
          <path id="Trazado_885193" data-name="Trazado 885193" d="M355.383,139.242l1.165.83,1.09-2.78-1.288-.523Z" transform="translate(-335.824 -127.788)" fill="#ffac9a"/>
          <path id="Trazado_885194" data-name="Trazado 885194" d="M404.653,15.132a4.567,4.567,0,0,0-2.93-5.756c-.119-.039-.238-.071-.357-.1a4.568,4.568,0,0,1,2,5.333l-1.837,4.457,1.3.487Z" transform="translate(-378.613 -9.151)" fill="#ffac9a"/>
          <path id="Trazado_885195" data-name="Trazado 885195" d="M326.239,7.67a4.565,4.565,0,0,0-5.4,6.36l1.248-1.279a1.375,1.375,0,1,1,2.623-.422,2.083,2.083,0,0,0,1.687-1.286l.209-.515,2.9,1.178a4.567,4.567,0,0,0-3.274-4.037Z" transform="translate(-303.262 -7.486)" fill="#ff9680"/>
          <path id="Trazado_885196" data-name="Trazado 885196" d="M403.538,12.825l1.287.522a4.568,4.568,0,0,0-3.274-4.037c-.076-.022-.151-.042-.227-.06A4.574,4.574,0,0,1,403.538,12.825Z" transform="translate(-378.574 -9.127)" fill="#f66a48"/>
          <path id="Trazado_885197" data-name="Trazado 885197" d="M350.649,270.837a3.781,3.781,0,0,0-.569-.763l-3.841-4.016-1.037-5.5a9.721,9.721,0,0,1-.64,2.474l-2.061,5.079a8.083,8.083,0,0,0,1.547,2.312l4.516,3.012a4.823,4.823,0,0,1,.734,1.507.915.915,0,0,0,1.735-.017,4.971,4.971,0,0,0-.384-4.085Z" transform="translate(-323.837 -242.979)" fill="#ffac9a"/>
          <path id="Trazado_885198" data-name="Trazado 885198" d="M187.423,130.706l-.442-1.825-4.9-3.491-.013.005a3.286,3.286,0,0,0-2.733-.562l-4.546,1.088.691,2.887.707,2.956-3.029,7.464,10.969,4.451,2.853-7.031A9.724,9.724,0,0,0,187.423,130.706Z" transform="translate(-166.257 -116.597)" fill="#8ce0ff"/>
          <path id="Trazado_885199" data-name="Trazado 885199" d="M317.144,171.98l-.442-1.825-1.484-1.058.639,2.36a9.724,9.724,0,0,1-.441,5.943l-2.853,7.031,1.287.522,2.853-7.031A9.724,9.724,0,0,0,317.144,171.98Z" transform="translate(-295.978 -157.871)" fill="#00acf0"/>
          <path id="Trazado_885200" data-name="Trazado 885200" d="M78.645,170.793l-.51-1.47a8.839,8.839,0,0,1,.4-4.557l-4.071-4.614a2.778,2.778,0,0,1,1.452-4.544l6.6-1.539.946,4.058-4.407.949,2.744,4.652Z" transform="translate(-73.771 -143.887)" fill="#ffcfc5"/>
          <path id="Trazado_885201" data-name="Trazado 885201" d="M131.24,158.126l-.946-4.058-1.317.307.642,2.754-4.511,1.375,3.081,5.223-2.345,5.242c.018.117.039.235.064.353l.51,1.47,3.161-7.065-2.744-4.652Z" transform="translate(-121.543 -143.886)" fill="#ffac9a"/>
          <path id="Trazado_885202" data-name="Trazado 885202" d="M152.974,409.034a6.072,6.072,0,0,1-3.192-4.167h-.03l-1.747,6.837h6.017Z" transform="translate(-142.849 -377.266)" fill="#83a5b9"/>
          <path id="Trazado_885203" data-name="Trazado 885203" d="M169.773,333.313s-1.594,6.725,3.222,9.137l1.051,2.678h8.383l-1.687-7.364Z" transform="translate(-162.87 -310.681)" fill="#c2d3dd"/>
          <path id="Trazado_885204" data-name="Trazado 885204" d="M310.576,389.078l-1.531-.622,1.829,7.985h1.389Z" transform="translate(-292.704 -361.995)" fill="#83a5b9"/>
        </g>
        <g id="Grupo_1104063" data-name="Grupo 1104063" transform="translate(0 18.499)">
          <path id="Trazado_885205" data-name="Trazado 885205" d="M0,0H1.042V3.121H0Z" transform="translate(1.221 0.783) rotate(-48.771)"/>
          <path id="Trazado_885206" data-name="Trazado 885206" d="M0,0H3.121V1.042H0Z" transform="translate(0 4.406) rotate(-3.784)"/>
          <path id="Trazado_885207" data-name="Trazado 885207" d="M0,0H3.121V1.042H0Z" transform="translate(1.754 8.869) rotate(-48.771)"/>
        </g>
      </g>
      <g id="Grupo_1104065" data-name="Grupo 1104065" transform="translate(42.841 4.239)">
        <path id="Trazado_885208" data-name="Trazado 885208" d="M201.709,151.69a3.26,3.26,0,0,0-.491-.657l-3.948-4.128-.624-3.308c-.029.076-.87,2.157-.87,2.157l-.965-.392.783-1.928a9.149,9.149,0,0,0,.417-5.625l-.4-1.636-4.75-3.384-.007.009a2.767,2.767,0,0,0-2.306-.476l-4.026.964,1.277,5.4,4.04-.967.242,1.013-4.688,1.122-2.465,6.073,10,4.06,1.477-3.64.965.392-.8,1.961a7.542,7.542,0,0,0,1.317,1.924l4.515,3.011.04.042a4.522,4.522,0,0,1,.85,1.7l.748-.007A4.435,4.435,0,0,0,201.709,151.69Z" transform="translate(-181.178 -127.299)" fill="none"/>
        <path id="Trazado_885209" data-name="Trazado 885209" d="M158.838,429.552l-1.176,4.6h4.582l-.7-1.777A6.32,6.32,0,0,1,158.838,429.552Z" transform="translate(-157.662 -403.958)" fill="none"/>
        <path id="Trazado_885210" data-name="Trazado 885210" d="M183.968,346.5l-3.418,2.924-.677-.792,3.008-2.573-5.724-2.323a11.978,11.978,0,0,0-.073,2.914,5.882,5.882,0,0,0,3.129,5.033l.179.089.995,2.534h7.374l-1.48-6.462Z" transform="translate(-175.682 -324.105)" fill="none"/>
        <path id="Trazado_885211" data-name="Trazado 885211" d="M164.976,221.611l-.065-.272-3.215.692,1.842,3.123Z" transform="translate(-161.416 -210.206)" fill="none"/>
        <path id="Trazado_885212" data-name="Trazado 885212" d="M316.938,67.109a2.083,2.083,0,0,1-1.05-2.671l.965.392a1.041,1.041,0,0,0,.573,1.357l2.295.87,1.624-3.936a4.054,4.054,0,0,0,.194-1.224l-2.11-.856-.013.032a2.609,2.609,0,0,1-2.091,1.605l-.025,0-.634.064.064-.634a.859.859,0,0,0-.529-.877.854.854,0,0,0-1.1,1.144l.147.326-1.48,1.5-1.4,1.8,3.912,2.788Z" transform="translate(-301.621 -61.04)" fill="none"/>
      </g>
      <path id="Trazado_885213" data-name="Trazado 885213" d="M94.474,32.622a5.509,5.509,0,0,0-.425-4.5,4.3,4.3,0,0,0-.647-.868l-3.734-3.9-.991-5.258a10.211,10.211,0,0,0-.222-3.586l-.4-1.665.843-2.15,2.393.9L93.3,6.7l.014-.037A5.088,5.088,0,0,0,90.053.248a5.108,5.108,0,0,0-4.02.377l.5.914a4.046,4.046,0,0,1,5.551,1.712,4.1,4.1,0,0,1,.262.648l-2.5-1.016-.4,1a1.564,1.564,0,0,1-.753.812,1.907,1.907,0,0,0-1.105-1.224,1.9,1.9,0,0,0-2.47,1.044,1.906,1.906,0,0,0-.09,1.141l-.454.461a4.048,4.048,0,0,1,1.207-4.036l-.7-.775A5.088,5.088,0,0,0,83.76,6.987L82.482,8.625a3.8,3.8,0,0,0-2.741-.377L74.688,9.457l.205.857L71.958,11l.237,1.015,2.941-.686.717,3.033-3.75.807-2.085-.689-.327.989,2.033.672,2.508,4.252-2.514,5.619-.068-.2a8.394,8.394,0,0,1,.384-4.225l.119-.3L67.87,16.438a2.257,2.257,0,0,1,1.18-3.692l2.1-.49-.237-1.015-2.1.49a3.3,3.3,0,0,0-1.725,5.4l3.868,4.384a9.226,9.226,0,0,0-.32,4.55l.007.032.951,2.744,1.319-2.948c.006.313.024.64.058.977a10.011,10.011,0,0,0,.192,1.187l-1.9,7.424,15.728.009-1.8-7.841.309-.762a8.6,8.6,0,0,0,1.109,1.438l.04.042,4.507,3.006a4.628,4.628,0,0,1,.587,1.282,5.967,5.967,0,0,0,.3.66H94.1A3.487,3.487,0,0,0,94.474,32.622ZM84.754,7.406l1.481-1.5-.147-.326a.854.854,0,0,1,1.1-1.144.859.859,0,0,1,.529.877l-.064.634.634-.064.025,0A2.609,2.609,0,0,0,90.4,4.271l.013-.032,2.11.856a4.055,4.055,0,0,1-.194,1.224l-1.624,3.936-2.295-.87a1.042,1.042,0,0,1-.573-1.357l-.965-.392a2.083,2.083,0,0,0,1.05,2.671l-.66,1.682L83.353,9.2ZM72.889,16.065l3.215-.692.065.272-1.438,3.543Zm-.28,18.37,1.176-4.6a6.32,6.32,0,0,0,2.709,2.825l.7,1.777Zm13.079.009H78.313l-.995-2.534-.179-.089a5.882,5.882,0,0,1-3.129-5.033,11.984,11.984,0,0,1,.073-2.914L79.808,26.2,76.8,28.769l.677.792,3.418-2.924,3.312,1.344Zm7.048-2.136a4.522,4.522,0,0,0-.85-1.7l-.04-.042-4.515-3.011a7.542,7.542,0,0,1-1.317-1.924l.8-1.961-.965-.392-1.477,3.64-10-4.06,2.465-6.073,4.688-1.122-.242-1.013-4.04.967-1.277-5.4,4.026-.964a2.767,2.767,0,0,1,2.306.476l.007-.009,4.75,3.384.4,1.636a9.149,9.149,0,0,1-.417,5.625L86.242,22.3l.965.392s.841-2.081.87-2.157l.624,3.308,3.948,4.128a3.26,3.26,0,0,1,.491.657,4.435,4.435,0,0,1,.343,3.67Z" transform="translate(-29.767 0)"/>
    </g>
  </g>
</svg>
