<svg xmlns="http://www.w3.org/2000/svg" width="61.554" height="56.767" viewBox="0 0 61.554 56.767">
  <g id="Grupo_1103499" data-name="Grupo 1103499" transform="translate(-334.621 -1399.423)">
    <g id="Rectángulo_401341" data-name="Rectángulo 401341" transform="translate(334.621 1399.423)" fill="#ffb27e" stroke="#fcd8c0" stroke-width="3">
      <rect width="61.554" height="56.767" rx="12" stroke="none"/>
      <rect x="1.5" y="1.5" width="58.554" height="53.767" rx="10.5" fill="none"/>
    </g>
    <g id="disabled_2084174_1_" data-name="disabled_2084174 (1)" transform="translate(348.445 1409.228)">
      <path id="Trazado_885214" data-name="Trazado 885214" d="M38.025,33.114v1.114a1.117,1.117,0,0,1-1.114,1.114H29.671A8.481,8.481,0,0,0,28,33.671V32h8.912A1.117,1.117,0,0,1,38.025,33.114Z" transform="translate(-11.962 -13.734)" fill="#aab2bd"/>
      <path id="Trazado_885215" data-name="Trazado 885215" d="M13.139,24.181v.011a8.438,8.438,0,0,0-3.342,0V17.342H3.671a1.671,1.671,0,0,1,0-3.342h7.8a1.669,1.669,0,0,1,1.671,1.671v8.511Z" transform="translate(-0.443 -5.759)" fill="#aab2bd"/>
      <path id="Trazado_885216" data-name="Trazado 885216" d="M40.155,55.114a2.227,2.227,0,1,1-2.467-1.047,2.175,2.175,0,0,1,.54-.067,2.232,2.232,0,0,1,1.671.752A2.361,2.361,0,0,1,40.155,55.114Z" transform="translate(-15.506 -23.481)" fill="#838f9b"/>
      <path id="Trazado_885217" data-name="Trazado 885217" d="M43.761,57.114A2.222,2.222,0,0,0,43.46,56h9.769a.559.559,0,0,1,.557.557v1.114a.559.559,0,0,1-.557.557H43.46A2.222,2.222,0,0,0,43.761,57.114Z" transform="translate(-18.811 -24.367)" fill="#ccd1d9"/>
      <path id="Trazado_885218" data-name="Trazado 885218" d="M39,50.42l.546-3.342h.568a2.23,2.23,0,0,0,1.955-1.159l-.841,5.252a2.232,2.232,0,0,0-1.671-.752,2.175,2.175,0,0,0-.54.067Z" transform="translate(-16.835 -19.901)" fill="#ccd1d9"/>
      <path id="Trazado_885219" data-name="Trazado 885219" d="M36.95,45.342H33.6c.017-.184.022-.368.022-.557A8.217,8.217,0,0,0,33.14,42h6.216a.562.562,0,0,1,.39.162v.952a2.221,2.221,0,0,1-.273,1.064v.006a2.23,2.23,0,0,1-1.955,1.159Z" transform="translate(-14.239 -18.164)" fill="#aab2bd"/>
      <path id="Trazado_885220" data-name="Trazado 885220" d="M18.852,44.49A1.667,1.667,0,1,1,17.671,44a1.667,1.667,0,0,1,1.181.49Z" transform="translate(-6.645 -19.05)" fill="#e6e9ed"/>
      <path id="Trazado_885221" data-name="Trazado 885221" d="M20.709,40.355c0,.189-.006.373-.022.557a8.353,8.353,0,1,1-10-8.744,8.438,8.438,0,0,1,3.342,0v2.289a6.129,6.129,0,1,0,2.724,1.626c.045-.039.089-.078.128-.117a1.667,1.667,0,0,0,.49-1.181V33.671a8.481,8.481,0,0,1,1.671,1.671A8.321,8.321,0,0,1,20.23,37.57,8.217,8.217,0,0,1,20.709,40.355Z" transform="translate(-1.329 -13.734)" fill="#838f9b"/>
      <path id="Trazado_885222" data-name="Trazado 885222" d="M47.776,44.288A1.67,1.67,0,0,1,46.6,47.139H42.758a1.676,1.676,0,0,1-1.571-1.108l-2.256-6.322A.573.573,0,0,0,38.8,39.5a.562.562,0,0,0-.39-.162H32.192A8.321,8.321,0,0,0,31,37.114h7.241A1.117,1.117,0,0,0,39.355,36h.657a2.23,2.23,0,0,1,2.1,1.476L44.367,43.8H46.6A1.667,1.667,0,0,1,47.776,44.288Z" transform="translate(-13.291 -15.506)" fill="#cf9e76"/>
      <path id="Trazado_885223" data-name="Trazado 885223" d="M25.342,26.582V27.7a1.667,1.667,0,0,1-.49,1.181c-.039.039-.084.078-.128.117a1.658,1.658,0,0,1-1.053.373A1.669,1.669,0,0,1,22,27.7V21.57A5.572,5.572,0,0,1,27.57,16a5.042,5.042,0,0,1,5.007,4.422l.563,4.489h-7.8Z" transform="translate(-9.304 -6.645)" fill="#887e8b"/>
      <circle id="Elipse_11962" data-name="Elipse 11962" cx="3.929" cy="3.929" r="3.929" transform="translate(14.751 1.154)" fill="#f0d0b4"/>
      <path id="Trazado_885224" data-name="Trazado 885224" d="M35.077,31.3a2.206,2.206,0,0,0,.455-1.335A2.23,2.23,0,0,0,33.3,27.735H31.469l-2.125-5.95a2.791,2.791,0,0,0-2.623-1.848h-.1V19.38a1.673,1.673,0,0,0-1.671-1.671h-.622l-.5-4a5.608,5.608,0,0,0-2.993-4.28,4.454,4.454,0,1,0-4.532-.3,6.146,6.146,0,0,0-3.049,2.286v-1.5a2.23,2.23,0,0,0-2.228-2.228h-7.8a2.228,2.228,0,1,0,0,4.456H8.8V18A8.906,8.906,0,1,0,19.86,27.735h2.2l-.4,2.442a2.781,2.781,0,1,0,3.279,4.242h9.483A1.115,1.115,0,0,0,35.532,33.3V32.19A1.109,1.109,0,0,0,35.077,31.3ZM28.295,22.16l2.389,6.689H33.3a1.114,1.114,0,0,1,0,2.228H29.469a1.115,1.115,0,0,1-1.049-.74l-2.257-6.319a1.117,1.117,0,0,0-1.049-.739H19.281a8.74,8.74,0,0,0-.546-1.114H24.95a1.669,1.669,0,0,0,1.568-1.114h.2a1.674,1.674,0,0,1,1.573,1.109Zm-2.528,4.061,1.6,4.491a2.192,2.192,0,0,0,.173.365H24.989Zm-.26-6.841v1.114a.558.558,0,0,1-.557.557H17.979A9.03,9.03,0,0,0,16.6,19.679v-.856H24.95a.558.558,0,0,1,.557.557Zm-13.355,1.8a2.218,2.218,0,0,0,1.542,1.985L12.15,24.708a2.228,2.228,0,0,0-.568-.237V21.088a5.747,5.747,0,0,1,.57.09Zm-1.127,6.556a1.114,1.114,0,1,1,1.114-1.114A1.115,1.115,0,0,1,11.025,27.735Zm-.557-3.263a2.18,2.18,0,0,0-.568.237l-2.4-2.4a5.543,5.543,0,0,1,2.965-1.231ZM6.716,23.1l2.4,2.4a2.228,2.228,0,0,0-.237.568H5.484A5.539,5.539,0,0,1,6.716,23.1Zm2.161,4.079a2.181,2.181,0,0,0,.237.568l-2.4,2.4a5.539,5.539,0,0,1-1.231-2.965ZM9.9,28.533a2.227,2.227,0,0,0,.568.237v3.393A5.543,5.543,0,0,1,7.5,30.931Zm1.681.237a2.181,2.181,0,0,0,.568-.237l2.4,2.4a5.543,5.543,0,0,1-2.965,1.231Zm3.753,1.373-2.4-2.4a2.228,2.228,0,0,0,.237-.568h3.393a5.539,5.539,0,0,1-1.231,2.965Zm-2.161-4.079a2.18,2.18,0,0,0-.237-.568l2.4-2.4a5.524,5.524,0,0,1,1.231,2.966ZM15.481,5.456A3.342,3.342,0,1,1,18.823,8.8a3.345,3.345,0,0,1-3.342-3.342Zm2.785,4.456a4.5,4.5,0,0,1,4.456,3.933l.483,3.864H16.6v-2.88a3.225,3.225,0,0,1,.951-2.3l-.788-.788a4.33,4.33,0,0,0-1.277,3.083v6.222a1.114,1.114,0,0,1-2.228,0V14.924A5.019,5.019,0,0,1,18.266,9.912ZM3.228,11.025a1.114,1.114,0,1,1,0-2.228h7.8a1.115,1.115,0,0,1,1.114,1.114v7.875a8.968,8.968,0,0,0-1.114-.077,8.858,8.858,0,0,0-1.114.077V11.025Zm7.8,23.393a7.8,7.8,0,0,1,0-15.6,7.918,7.918,0,0,1,1.114.089v1.122a6.764,6.764,0,0,0-1.114-.1,6.694,6.694,0,1,0,5.14,2.418,2.2,2.2,0,0,0,.418-1.191,7.718,7.718,0,0,1,2.24,5.457,7.806,7.806,0,0,1-7.8,7.8Zm8.626-10.025h5.3v.557a1.673,1.673,0,0,1-1.671,1.671H19.937A8.994,8.994,0,0,0,19.651,24.393Zm3.628,3.342a2.758,2.758,0,0,0,1.159-.261l-.45,2.807a2.754,2.754,0,0,0-1.17-.309l.365-2.237Zm-.557,6.684a1.671,1.671,0,1,1,1.671-1.671A1.673,1.673,0,0,1,22.722,34.418Zm11.7-1.114H25.45a2.785,2.785,0,0,0,0-1.114h8.968Z"/>
    </g>
  </g>
</svg>
