<svg xmlns="http://www.w3.org/2000/svg" width="61.554" height="56.767" viewBox="0 0 61.554 56.767">
  <g id="Grupo_1103524" data-name="Grupo 1103524" transform="translate(-334.621 -1399.423)">
    <g id="Rectángulo_401341" data-name="Rectángulo 401341" transform="translate(334.621 1399.423)" fill="#ffb27e" stroke="#fcd8c0" stroke-width="3">
      <rect width="61.554" height="56.767" rx="12" stroke="none"/>
      <rect x="1.5" y="1.5" width="58.554" height="53.767" rx="10.5" fill="none"/>
    </g>
    <g id="entablillar" transform="translate(232.243 1406.813)">
      <g id="Grupo_1104072" data-name="Grupo 1104072" transform="translate(122.796 0.615)">
        <g id="Grupo_1104071" data-name="Grupo 1104071" transform="translate(0)">
          <path id="Trazado_885252" data-name="Trazado 885252" d="M154.6,17.335h-.622a2.649,2.649,0,0,0-2.649,2.649v2.3a1.182,1.182,0,0,1-.379.867l-1.617,1.5a.644.644,0,0,1-1.082-.472V11.59a1.7,1.7,0,0,0-1.611-1.711A1.672,1.672,0,0,0,144.9,11.55V9.215A1.7,1.7,0,0,0,143.293,7.5a1.672,1.672,0,0,0-1.733,1.671V11.55a1.672,1.672,0,0,0-1.733-1.671,1.7,1.7,0,0,0-1.611,1.711v4.324a1.672,1.672,0,0,0-1.733-1.671,1.7,1.7,0,0,0-1.611,1.711v11.7a2.254,2.254,0,0,0,.135.767l1.354,3.739a2.253,2.253,0,0,1,.135.767V47.849a.41.41,0,0,0,.41.41H149a.41.41,0,0,0,.41-.41V33.688a2.29,2.29,0,0,1,.462-1.379L154.626,26a2.657,2.657,0,0,0,.535-1.6V17.9A.566.566,0,0,0,154.6,17.335Z" transform="translate(-134.445 -7.503)" fill="#ffe1b4"/>
          <path id="Trazado_885253" data-name="Trazado 885253" d="M266.667,38.483V51.955a.644.644,0,0,0,1.082.472l1.208-1.119a.644.644,0,0,1-.982-.547V38.171a1.7,1.7,0,0,0-1.611-1.711,1.665,1.665,0,0,0-1.072.339A1.707,1.707,0,0,1,266.667,38.483Z" transform="translate(-254.171 -34.084)" fill="#fad7a5"/>
          <path id="Trazado_885254" data-name="Trazado 885254" d="M292.37,127.4h-.622a2.638,2.638,0,0,0-1.135.255.563.563,0,0,1,.093.31v5.843a2.657,2.657,0,0,1-.535,1.6l-4.758,6.31a2.289,2.289,0,0,0-.462,1.379v15.227h1.82a.41.41,0,0,0,.41-.41V143.755a2.29,2.29,0,0,1,.462-1.379l4.758-6.31a2.657,2.657,0,0,0,.535-1.6v-6.5A.566.566,0,0,0,292.37,127.4Z" transform="translate(-272.218 -117.57)" fill="#fad7a5"/>
          <path id="Trazado_885255" data-name="Trazado 885255" d="M149.777,169.491l-.448.415a.645.645,0,0,1-1.048-.265c-.021-.064-1.772,0-1.772-.071l1.739-2.853v-.984H134.869v7.174a2.256,2.256,0,0,0,.135.767l.266.734.682.648.2,1.775.211.582a2.252,2.252,0,0,1,.135.767v1.587l.82,2.249-.82,2.249v3.487h12.913v-4.5l-.82-1.231.82-1.231v-1.842a2.29,2.29,0,0,1,.462-1.379l3.335-4.423A7.353,7.353,0,0,0,149.777,169.491Z" transform="translate(-134.444 -152.757)" fill="#407194"/>
          <path id="Trazado_885256" data-name="Trazado 885256" d="M289.739,232.011l-4.328,5.74a2.29,2.29,0,0,0-.461,1.379V248.6h2.23v-4.5l-.82-1.231.82-1.231v-1.842a2.289,2.289,0,0,1,.462-1.379l3.335-4.423a5.829,5.829,0,0,0-1.237-1.973Z" transform="translate(-272.217 -213.6)" fill="#365f7e"/>
          <path id="Trazado_885257" data-name="Trazado 885257" d="M131.25,422.371h13.876a1.568,1.568,0,1,0,0-3.135H131.25a1.568,1.568,0,1,0,0,3.135Z" transform="translate(-129.682 -385.472)" fill="#ddebfd"/>
          <path id="Trazado_885258" data-name="Trazado 885258" d="M288.062,419.236h-2.675a1.568,1.568,0,0,1,0,3.135h2.675a1.568,1.568,0,1,0,0-3.135Z" transform="translate(-272.619 -385.472)" fill="#bed9fd"/>
          <path id="Trazado_885259" data-name="Trazado 885259" d="M222.149,349.284H214.93l-.82,1.117.82,1.345h7.219Z" transform="translate(-207.187 -321.257)" fill="#5392f9"/>
          <path id="Trazado_885260" data-name="Trazado 885260" d="M284.949,349.284h2.23v2.463h-2.23Z" transform="translate(-272.217 -321.257)" fill="#4071f7"/>
          <path id="Trazado_885261" data-name="Trazado 885261" d="M160.363,340.871v-3.5a.5.5,0,0,0-.5-.5h-5.194v4.5h5.194A.5.5,0,0,0,160.363,340.871Z" transform="translate(-152.62 -309.864)" fill="#6cbff8"/>
          <path id="Trazado_885262" data-name="Trazado 885262" d="M284.356,169.986l-1.2,1.115a.644.644,0,0,1-1.082-.472v-4.895h1.307v.984l-.149,2.727c0,.074.161.133.182.2a.623.623,0,0,0,.264.335.643.643,0,0,0,.435.1A.674.674,0,0,0,284.356,169.986Z" transform="translate(-269.574 -152.758)" fill="#365f7e"/>
          <path id="Trazado_885263" data-name="Trazado 885263" d="M139.752,185.423l.878,2.423,12.133-7.19a.654.654,0,0,1-.033-.207v-2.717Z" transform="translate(-138.926 -163.773)" fill="#6cbff8"/>
          <path id="Trazado_885264" data-name="Trazado 885264" d="M282.071,178.508v2.944l1.34-.794a.655.655,0,0,1-.033-.207v-2.717Z" transform="translate(-269.575 -163.773)" fill="#5fa7ee"/>
        </g>
      </g>
      <path id="Trazado_885265" data-name="Trazado 885265" d="M142.948,9.833h-.622a3.267,3.267,0,0,0-3.264,3.264v2.3a.567.567,0,0,1-.182.416l-1.617,1.5a.023.023,0,0,1-.031.005.029.029,0,0,1-.015-.011l0-.008a.069.069,0,0,1,0-.008V4.7a2.327,2.327,0,0,0-2.2-2.326,2.261,2.261,0,0,0-1.139.256v-.3A2.3,2.3,0,0,0,131.666,0a2.287,2.287,0,0,0-2.37,2.286v.345a2.272,2.272,0,0,0-1.14-.256,2.327,2.327,0,0,0-2.2,2.326V7a2.277,2.277,0,0,0-1.14-.256,2.3,2.3,0,0,0-2.2,2.326v6.26a.615.615,0,1,0,1.23,0V14.206h12.148v.019l-12.037,7.134-.013-.036a1.628,1.628,0,0,1-.1-.558V18.2a.615.615,0,0,0-1.23,0v2.568a2.853,2.853,0,0,0,.171.977l1.354,3.737a1.646,1.646,0,0,1,.1.559v7.73a2.182,2.182,0,0,0,0,4.357v3.246a.615.615,0,0,0,1.23,0V38.129h8.088a.615.615,0,1,0,0-1.23h-9.185a.953.953,0,1,1,0-1.905H138.24a.953.953,0,0,1,0,1.905h-1.821a.615.615,0,0,0,0,1.23h.725v3.242a.615.615,0,0,0,1.23,0V38.125a2.182,2.182,0,0,0,0-4.357V26.8a1.68,1.68,0,0,1,.338-1.008l4.758-6.31a3.291,3.291,0,0,0,.66-1.97v-6.5a1.182,1.182,0,0,0-1.181-1.181ZM130.526,2.288a1.057,1.057,0,0,1,1.1-1.057,1.088,1.088,0,0,1,1.018,1.1V12.976h-2.115ZM128.2,3.606a1.058,1.058,0,0,1,1.1,1.056v8.313h-2.115V4.7a1.087,1.087,0,0,1,1.018-1.1Zm-4.362,5.461a1.088,1.088,0,0,1,1.018-1.1,1.057,1.057,0,0,1,1.1,1.057v3.949h-2.114Zm10.034,3.909V4.662a1.057,1.057,0,0,1,1.1-1.056,1.087,1.087,0,0,1,1.018,1.1v8.273H133.87Zm2.114,2.679v1.514l-11.159,6.613-.452-1.246Zm1.159,13.6V30.49h-5.989V29.258Zm-11.683,3.48h4.579a1.117,1.117,0,0,0,1.111-1.018h5.994v2.044H125.46Zm4.464-1.23h-4.464V28.24h4.464Zm7.8-6.457a2.917,2.917,0,0,0-.586,1.749v1.228H131.15a1.117,1.117,0,0,0-1.111-1.018h-4.579v-.972a3,3,0,0,0-.209-1.08L136.488,18.3a1.252,1.252,0,0,0,1.612-.084l.114-.106a6.688,6.688,0,0,1,2.641,2.8Zm5.169-7.539a2.053,2.053,0,0,1-.412,1.23l-.812,1.077a8.111,8.111,0,0,0-2.53-2.572l.571-.529a1.8,1.8,0,0,0,.576-1.318V13.1a2.036,2.036,0,0,1,2.034-2.034h.572v6.449Z" transform="translate(0)"/>
    </g>
  </g>
</svg>
