<svg xmlns="http://www.w3.org/2000/svg" width="61.554" height="56.767" viewBox="0 0 61.554 56.767">
  <g id="Grupo_1103515" data-name="Grupo 1103515" transform="translate(-334.621 -1399.423)">
    <g id="Rectángulo_401341" data-name="Rectángulo 401341" transform="translate(334.621 1399.423)" fill="#ffb27e" stroke="#fcd8c0" stroke-width="3">
      <rect width="61.554" height="56.767" rx="12" stroke="none"/>
      <rect x="1.5" y="1.5" width="58.554" height="53.767" rx="10.5" fill="none"/>
    </g>
    <g id="quemar" transform="translate(346.607 1407.007)">
      <path id="Trazado_885234" data-name="Trazado 885234" d="M101.626,145.3a2.943,2.943,0,0,0,1.783-.627l3.8-2.981a2.2,2.2,0,0,1,1.68-.446l11.8,1.74a9.208,9.208,0,0,0,1.343.1h.718a1.721,1.721,0,0,0,1.721-1.721v-8.512a5.39,5.39,0,0,0-5.39-5.39H103.889a5.39,5.39,0,0,0-5.389,5.39v9.9a2.557,2.557,0,0,0,2.587,2.557Z" transform="translate(-91.271 -118.106)" fill="#92c8f5"/>
      <g id="Grupo_1104066" data-name="Grupo 1104066" transform="translate(8.972 9.358)">
        <path id="Trazado_885235" data-name="Trazado 885235" d="M129.9,311.973a3.206,3.206,0,0,0-2.892.608l-3.8,2.981a2.944,2.944,0,0,1-.963.5,2.554,2.554,0,0,0,.844.133l.538-.006a2.944,2.944,0,0,0,1.783-.627l3.8-2.981a2.2,2.2,0,0,1,1.68-.446Z" transform="translate(-122.244 -298.352)" fill="#389cea"/>
        <path id="Trazado_885236" data-name="Trazado 885236" d="M351.077,127.463h-2.2a5.39,5.39,0,0,1,5.389,5.39v8.512a1.573,1.573,0,0,1-1.395,1.646,9.2,9.2,0,0,0,1.159.075h.718a1.721,1.721,0,0,0,1.721-1.721v-8.512A5.39,5.39,0,0,0,351.077,127.463Z" transform="translate(-332.237 -127.463)" fill="#389cea"/>
      </g>
      <g id="Grupo_1104067" data-name="Grupo 1104067" transform="translate(0.548 24.979)">
        <path id="Trazado_885237" data-name="Trazado 885237" d="M404.946,340.252h6.388a.559.559,0,0,1,.558.558v7.551a.558.558,0,0,1-.558.558h-6.779Z" transform="translate(-375.405 -340.252)" fill="#ffcbbe"/>
        <path id="Trazado_885238" data-name="Trazado 885238" d="M196.206,397.322a1.568,1.568,0,0,0-1.444-.087l-4.276,1.929a1.989,1.989,0,1,1-1.639-3.626l4.671-2.1,4.04-1.813c3.331-1.493,4.76-.011,6.93,1.481l-.27,2.727C201.928,400.032,197.481,398.075,196.206,397.322Z" transform="translate(-174.445 -387.282)" fill="#ffcbbe"/>
        <path id="Trazado_885239" data-name="Trazado 885239" d="M18.645,389.721l-7.928,4.136a2.2,2.2,0,0,1-2.038-3.9l7.928-4.136a2.2,2.2,0,0,1,2.038,3.9Z" transform="translate(-7.5 -382.247)" fill="#ffcbbe"/>
      </g>
      <path id="Trazado_885240" data-name="Trazado 885240" d="M83.61,319.25c0,3.559-2.749,5.687-6.491,5.4s-9.164-3.974-9.164-3.974l-8.639,6.778A2.2,2.2,0,1,1,56.6,324l11-8.635a2.2,2.2,0,0,1,1.68-.446l8.362,1.232,4.111.606A2.33,2.33,0,0,1,83.61,319.25Z" transform="translate(-51.667 -291.777)" fill="#ffddce"/>
      <g id="Grupo_1104068" data-name="Grupo 1104068" transform="translate(15.559 23.118)">
        <path id="Trazado_885241" data-name="Trazado 885241" d="M223.17,324.649a5.073,5.073,0,0,0,2.72-4.717,2.33,2.33,0,0,0-1.855-2.494l-4.111-.606-7.952-1.172.377-.3a2.2,2.2,0,0,1,1.68-.446l8.361,1.232,4.111.606a2.33,2.33,0,0,1,1.855,2.494A5.231,5.231,0,0,1,223.17,324.649Z" transform="translate(-211.973 -314.895)" fill="#ffcbbe"/>
      </g>
      <path id="Trazado_885242" data-name="Trazado 885242" d="M187.862,316.593l-3.008-.443-8.361-1.232a2.2,2.2,0,0,0-1.68.446l-3.352,2.63a4.8,4.8,0,0,0,2.115.169c.926-.109,1.826-.38,2.747-.522a4.731,4.731,0,0,1,2.744.253c.831.394,1.454,1.145,2.292,1.521a4.521,4.521,0,0,0,4.4-.909A23.51,23.51,0,0,0,187.862,316.593Z" transform="translate(-158.876 -291.776)" fill="#dd636e"/>
      <g id="Grupo_1104069" data-name="Grupo 1104069" transform="translate(22.724 24.495)">
        <path id="Trazado_885243" data-name="Trazado 885243" d="M313.645,333.655a21.827,21.827,0,0,1-2.119,2.235,6.163,6.163,0,0,1-1.959,1,4.676,4.676,0,0,0,4.162-1,23.5,23.5,0,0,0,2.1-1.913Z" transform="translate(-309.567 -333.655)" fill="#da4a54"/>
      </g>
      <path id="Trazado_885244" data-name="Trazado 885244" d="M39.151,15.986V10.8a3.3,3.3,0,0,0-6.607,0v5.183a1.116,1.116,0,0,1-.222.67,4.4,4.4,0,1,0,7.049,0A1.109,1.109,0,0,1,39.151,15.986Z" transform="translate(-29.136 -6.949)" fill="#ddeafb"/>
      <path id="Trazado_885245" data-name="Trazado 885245" d="M63.609,49.295a2.224,2.224,0,0,1-2.167-2.13,2.18,2.18,0,0,1,.437-1.389,3.338,3.338,0,0,0,.663-1.991V38.6a1.1,1.1,0,1,1,2.2,0v5.182a3.331,3.331,0,0,0,.662,1.99A2.2,2.2,0,0,1,63.643,49.3Z" transform="translate(-56.933 -34.747)" fill="#389cea"/>
      <path id="Trazado_885246" data-name="Trazado 885246" d="M64.818,132.458H62.47a3.33,3.33,0,0,1-.59,1.3,2.18,2.18,0,0,0-.437,1.389,2.224,2.224,0,0,0,2.167,2.13h.035a2.2,2.2,0,0,0,1.763-3.521A3.316,3.316,0,0,1,64.818,132.458Z" transform="translate(-56.933 -122.734)" fill="#92c8f5"/>
      <g id="Grupo_1104070" data-name="Grupo 1104070" transform="translate(-0.003 0)">
        <path id="Trazado_885250" data-name="Trazado 885250" d="M56.694,30a1.654,1.654,0,0,0-1.652,1.652v5.183A2.784,2.784,0,0,1,54.49,38.5a2.725,2.725,0,0,0-.547,1.737A2.78,2.78,0,0,0,56.651,42.9h.043a2.752,2.752,0,0,0,2.2-4.4,2.777,2.777,0,0,1-.551-1.659V31.652A1.654,1.654,0,0,0,56.694,30Zm-.551,1.652a.551.551,0,0,1,1.1,0v5.182c0,.046,0,.091,0,.137H56.141c0-.046,0-.091,0-.137Zm1.719,9.66A1.638,1.638,0,0,1,56.7,41.8h-.033a1.667,1.667,0,0,1-1.623-1.6,1.634,1.634,0,0,1,.327-1.042,3.863,3.863,0,0,0,.568-1.084h1.51a3.843,3.843,0,0,0,.568,1.083,1.65,1.65,0,0,1-.154,2.156Z" transform="translate(-49.981 -27.798)"/>
        <path id="Trazado_885251" data-name="Trazado 885251" d="M36.476,24.43h-3.05a2.257,2.257,0,0,0,.325-1.17V14.748a5.948,5.948,0,0,0-5.941-5.941h-15.2a5.909,5.909,0,0,0-2.038.359.578.578,0,0,1-.016-.129V3.855a3.855,3.855,0,0,0-7.71,0V5.009a.551.551,0,0,0,1.1,0V3.855a2.754,2.754,0,0,1,5.507,0V9.037a1.669,1.669,0,0,0,.33,1A3.854,3.854,0,0,1,6.645,16.2,3.894,3.894,0,0,1,2.851,12.47a3.814,3.814,0,0,1,.767-2.432,1.676,1.676,0,0,0,.332-1V7.652a.551.551,0,0,0-1.1,0V9.037a.568.568,0,0,1-.112.339A4.961,4.961,0,0,0,6.629,17.3h.044v7.344a3.107,3.107,0,0,0,3.059,3.107l-.536.421L1.466,32.206a2.749,2.749,0,0,0,1.281,5.185,2.73,2.73,0,0,0,1.267-.311l1.172-.611a2.772,2.772,0,0,0,1.1.229,2.74,2.74,0,0,0,1.7-.586l8.329-6.534c.445.288,1.288.817,2.34,1.393l-3.931,1.764a2.561,2.561,0,0,0-1.276,3.358,2.526,2.526,0,0,0,1.42,1.333,2.571,2.571,0,0,0,1.947-.061l4.277-1.929a1.022,1.022,0,0,1,.938.059,7.9,7.9,0,0,0,5.524,1.018A5.064,5.064,0,0,0,30.568,34.2h2.265a.551.551,0,1,0,0-1.1H31.094a.551.551,0,0,0-1.037-.247l-.283.532a4.094,4.094,0,0,1-2.508,2.065,6.918,6.918,0,0,1-4.681-.9,2.124,2.124,0,0,0-1.951-.115l-4.277,1.929a1.439,1.439,0,1,1-1.187-2.621L19.9,31.62a16.385,16.385,0,0,0,5.512,1.8,7.182,7.182,0,0,0,4.661-1.1,5.48,5.48,0,0,0,2.345-3.794.551.551,0,0,0-1.089-.168c-.409,2.647-2.7,4.2-5.832,3.959-3.552-.274-8.846-3.844-8.9-3.88a.551.551,0,0,0-.649.022L7.3,35.245a1.647,1.647,0,1,1-2.038-2.588l7.431-5.83a5.568,5.568,0,0,0,2.063.107c.934-.11,1.839-.381,2.767-.524a4.142,4.142,0,0,1,2.424.207c.838.4,1.452,1.143,2.3,1.526a5.046,5.046,0,0,0,4.961-.971A20.946,20.946,0,0,0,29.173,25.4s.887.129.914.129h6.389a.008.008,0,0,1,.008.008v7.552a.008.008,0,0,1-.008.008h-1.2a.551.551,0,1,0,0,1.1h1.2a1.11,1.11,0,0,0,1.109-1.109V25.54a1.11,1.11,0,0,0-1.109-1.109ZM3.5,36.1a1.65,1.65,0,0,1-2.337-1.955,1.633,1.633,0,0,1,.808-.965l2.509-1.309a2.745,2.745,0,0,0-.363,3.775c.025.032.051.062.077.092Zm23.048-9.811c-.5.378-2.264,1.557-3.846.846-.839-.377-1.449-1.122-2.283-1.517a5.181,5.181,0,0,0-3.064-.3c-.915.141-1.808.411-2.728.519a5.625,5.625,0,0,1-.728.04l2.369-1.859a1.68,1.68,0,0,1,1.26-.334L27.8,25.2A13.751,13.751,0,0,1,26.553,26.292ZM17.693,22.6a2.8,2.8,0,0,0-2.1.557l-3.8,2.982a2.406,2.406,0,0,1-1.449.51l-.539.006a2.007,2.007,0,0,1-2.031-2.007v-7.46a4.956,4.956,0,0,0,3.368-7.049,4.822,4.822,0,0,1,1.472-.229h15.2a4.845,4.845,0,0,1,4.84,4.839V23.26a1.172,1.172,0,0,1-1.17,1.17H30.128Z" transform="translate(0.003 0)"/>
      </g>
    </g>
  </g>
</svg>
