<svg xmlns="http://www.w3.org/2000/svg" width="122.932" height="122.932" viewBox="0 0 122.932 122.932">
  <g id="Grupo_1103681" data-name="Grupo 1103681" transform="translate(-791.051 -1798.342)">
    <rect id="Rectángulo_403526" data-name="Rectángulo 403526" width="122.932" height="122.932" transform="translate(791.051 1798.342)" fill="#b1fafc"/>
    <g id="washing-hand_2866030" transform="translate(809.966 1817.715)">
      <g id="Grupo_1103678" data-name="Grupo 1103678" transform="translate(0 5.9)">
        <path id="Trazado_884154" data-name="Trazado 884154" d="M42.86,50.977v-.013c.776-7.957,6.734-14.48,6.734-14.48l-3.761-5.655-3.38-5.09a7.87,7.87,0,0,1-1.328-4.222c0-.2,0-.395.013-.592a7.877,7.877,0,0,1,3.485-6.155,1.3,1.3,0,0,1,1.815.368l5.09,7.588,5.5,8.193,1.144,1.7a39.169,39.169,0,0,1,3.485,6.444,5.256,5.256,0,0,0,2.683,9.245,34.924,34.924,0,0,1,.46,4.524,37.418,37.418,0,0,1-.013,3.84L74.45,69.06V79.581h-26.3l-5.852-9.3C34.246,69.6,31.1,66.233,30.84,65.93a14.3,14.3,0,0,0,2.012.5,4.6,4.6,0,0,0,2.933-8.325A39.9,39.9,0,0,0,42.86,50.977Z" transform="translate(9.719 -1.312)" fill="#dbab7b"/>
        <path id="Trazado_884155" data-name="Trazado 884155" d="M42.97,46.814a16.708,16.708,0,0,1-.2-4.564A39.9,39.9,0,0,1,35.7,49.378,4.6,4.6,0,0,1,32.765,57.7a10.188,10.188,0,0,1-1.647-.392l.11.356c1.159,1.021,4.458,3.334,10.979,3.888a26.469,26.469,0,0,1,.763-14.741Z" transform="translate(9.807 7.415)" fill="#c19167"/>
        <circle id="Elipse_11934" data-name="Elipse 11934" cx="2.63" cy="2.63" r="2.63" transform="translate(3.477 17.106)" fill="#c6f1f7"/>
        <circle id="Elipse_11935" data-name="Elipse 11935" cx="2.63" cy="2.63" r="2.63" transform="translate(75.986 15.65)" fill="#c6f1f7"/>
        <path id="Trazado_884156" data-name="Trazado 884156" d="M63.748,29.157a3.945,3.945,0,0,1,0,5.576,3.888,3.888,0,0,1-2.6,1.157h-.013A5.231,5.231,0,0,0,57.081,33.6a4.677,4.677,0,0,1,1.092-4.445,3.945,3.945,0,0,1,5.576,0Z" transform="translate(17.948 2.925)" fill="#9fe0f4"/>
        <path id="Trazado_884157" data-name="Trazado 884157" d="M56.731,40.732A5.271,5.271,0,0,0,61.15,38.72a3.937,3.937,0,0,1-2.078,7.4,3.849,3.849,0,0,1-2.3-.907,34.922,34.922,0,0,0-.46-4.524l.421.039Z" transform="translate(17.746 6.302)" fill="#78d3ef"/>
        <path id="Trazado_884158" data-name="Trazado 884158" d="M57.405,42.73a5.256,5.256,0,0,1-2.683-9.245,5.335,5.335,0,0,1,3.656-1.223,5.231,5.231,0,0,1,4.051,2.288h.013a5.224,5.224,0,0,1,.907,3.248,5.387,5.387,0,0,1-1.1,2.959,5.271,5.271,0,0,1-4.419,2.012L57.4,42.73Z" transform="translate(16.651 4.265)" fill="#60c3ea"/>
        <path id="Trazado_884159" data-name="Trazado 884159" d="M35.968,47.67a4.6,4.6,0,0,1-2.933,8.325,14.3,14.3,0,0,1-2.012-.5.013.013,0,0,1-.013-.013,5.205,5.205,0,0,0,.132-.907,5.309,5.309,0,0,0-.881-3.2,38.24,38.24,0,0,0,5.708-3.709Z" transform="translate(9.536 9.123)" fill="#78d3ef"/>
        <path id="Trazado_884160" data-name="Trazado 884160" d="M28.567,57.255c0,.473-.039.842-.066,1.315a3.944,3.944,0,0,1-7.641,1.157l3.6-4.787a5.263,5.263,0,0,0,4.1,2.315Z" transform="translate(6.574 11.414)" fill="#9fe0f4"/>
        <path id="Trazado_884161" data-name="Trazado 884161" d="M32.569,51.053a5.309,5.309,0,0,1,.881,3.2,5.278,5.278,0,0,1-5.537,4.971,5.261,5.261,0,1,1,4.642-8.167Z" transform="translate(7.227 9.449)" fill="#60c3ea"/>
        <path id="Trazado_884162" data-name="Trazado 884162" d="M10.364,37.886a4.6,4.6,0,0,1-1.5,9.022,4.878,4.878,0,0,1-1.7-.421,4.6,4.6,0,0,1-2.657-4.419,4.458,4.458,0,0,1,.8-2.328A4.531,4.531,0,0,1,9.351,37.7a4.3,4.3,0,0,1,1.013.184Z" transform="translate(1.42 5.979)" fill="#60c3ea"/>
        <path id="Trazado_884163" data-name="Trazado 884163" d="M10.821,34.17c-.039.736-.053,1.46-.026,2.2L10.9,39.8a4.3,4.3,0,0,0-1.013-.184A4.531,4.531,0,0,0,5.85,41.653a5.248,5.248,0,0,1,.263-9.64,5.054,5.054,0,0,1,2.223-.381,5.19,5.19,0,0,1,2.63.881c-.066.552-.118,1.1-.145,1.657Z" transform="translate(0.884 4.066)" fill="#78d3ef"/>
        <path id="Trazado_884164" data-name="Trazado 884164" d="M9.217,27.691a3.847,3.847,0,0,1,2.157.789,26.9,26.9,0,0,0-1.118,5.274,5.19,5.19,0,0,0-2.63-.881,5.054,5.054,0,0,0-2.223.381,4.051,4.051,0,0,1-.342-1.828,3.954,3.954,0,0,1,4.156-3.735Z" transform="translate(1.594 2.825)" fill="#9fe0f4"/>
        <path id="Trazado_884165" data-name="Trazado 884165" d="M26.956,15.89,19.763,26.109l-.368-10.745a7.93,7.93,0,0,0-.644-2.249,5.575,5.575,0,0,1,.526-.408,4.585,4.585,0,0,1,6.378,1.263Z" transform="translate(5.909 -2.142)" fill="#c19167"/>
        <path id="Trazado_884166" data-name="Trazado 884166" d="M31.278,9.191l-5.721,8.114-1.3-1.92a6.164,6.164,0,0,1-1.065-3.327,4.778,4.778,0,0,1,1.933-3.84A4.561,4.561,0,0,1,31.278,9.191Z" transform="translate(7.308 -3.557)" fill="#dbab7b"/>
        <g id="Grupo_1103677" data-name="Grupo 1103677">
          <path id="Trazado_884167" data-name="Trazado 884167" d="M38.586,10.12l2.591-3.682a4.611,4.611,0,0,1,7.733,5.011l2.828-4a4.6,4.6,0,0,1,7.523,5.3l-3.6,5.116a1.345,1.345,0,0,0-1.315.079A7.877,7.877,0,0,0,50.856,24.1c-.013.2-.013.395-.013.592a7.87,7.87,0,0,0,1.328,4.222L55.551,34l3.761,5.655s-5.958,6.523-6.734,14.48v.013A39.9,39.9,0,0,1,45.5,61.279,38.24,38.24,0,0,1,39.8,64.988h-.013a5.262,5.262,0,0,0-8.746,5.852l-3.6,4.787-5.076,7.128H0V66.973L8.588,56.952a4.878,4.878,0,0,0,1.7.421,4.6,4.6,0,0,0,1.5-9.022l-.105-3.433c-.026-.736-.013-1.46.026-2.2.026-.552.079-1.1.145-1.657a26.9,26.9,0,0,1,1.118-5.274h.013c.158-.513.329-1.039.526-1.539l1.92-4.971-.25-16.544a1.57,1.57,0,0,1,1.315-1.565,8.23,8.23,0,0,1,1.7-.105,7.615,7.615,0,0,1,6.47,4.393,7.93,7.93,0,0,1,.644,2.249l.368,10.745,7.194-10.219Z" transform="translate(0 -4.486)" fill="#e8c395"/>
          <path id="Trazado_884168" data-name="Trazado 884168" d="M49.317,13.341a4.354,4.354,0,0,1,1.96,4.011,4.747,4.747,0,0,1-.842,2.407l-2.525,3.577-5.09-7.588a1.354,1.354,0,0,0-.5-.447s3.056-4.339,7-1.96Z" transform="translate(13.337 -1.92)" fill="#e8c395"/>
          <path id="Trazado_884169" data-name="Trazado 884169" d="M52.488,20.673a4.647,4.647,0,0,1,1.946,4.011,4.7,4.7,0,0,1-.842,2.394l-1.526,2.17-5.5-8.193a4.956,4.956,0,0,1,5.918-.381Z" transform="translate(14.676 0.361)" fill="#e8c395"/>
        </g>
        <path id="Trazado_884170" data-name="Trazado 884170" d="M21.953,40.964a1.314,1.314,0,0,1-.879-1.639c1.578-5.222-1.461-9.236-3.414-11.164a1.315,1.315,0,0,1,1.848-1.873c2.374,2.345,6.06,7.256,4.082,13.8a1.4,1.4,0,0,1-1.637.879Z" transform="translate(5.442 2.265)" fill="#f1dbbf"/>
        <circle id="Elipse_11936" data-name="Elipse 11936" cx="1.973" cy="1.973" r="1.973" transform="translate(33.449 59.372)" fill="#96dbf1"/>
        <circle id="Elipse_11937" data-name="Elipse 11937" cx="1.973" cy="1.973" r="1.973" transform="translate(75.544 39.946)" fill="#96dbf1"/>
        <circle id="Elipse_11938" data-name="Elipse 11938" cx="1.973" cy="1.973" r="1.973" transform="translate(8.196 44.075)" fill="#96dbf1"/>
      </g>
      <g id="Grupo_1103679" data-name="Grupo 1103679" transform="translate(0.011 -0.001)">
        <path id="Trazado_884171" data-name="Trazado 884171" d="M5.313,24.378A3.666,3.666,0,0,0,8.16,23.37,3.946,3.946,0,0,0,5.727,16.5a1.3,1.3,0,0,0-1.382,1.245,1.317,1.317,0,0,0,1.244,1.382,1.314,1.314,0,1,1-.141,2.625,1.323,1.323,0,0,1-1.1-.715A1.315,1.315,0,1,0,2,22.229,3.965,3.965,0,0,0,5.313,24.378Z" transform="translate(0.575 5.199)" fill="#252525"/>
        <path id="Trazado_884172" data-name="Trazado 884172" d="M60.515,23.273c.068,0,.137.005.206.005a3.962,3.962,0,0,0,3.309-1.794,1.315,1.315,0,0,0-2.2-1.436,1.315,1.315,0,1,1-1.982-1.693,1.292,1.292,0,0,1,.948-.335,1.316,1.316,0,0,0,.141-2.628,3.946,3.946,0,0,0-.418,7.88Z" transform="translate(17.883 4.85)" fill="#252525"/>
        <path id="Trazado_884173" data-name="Trazado 884173" d="M48.782,53.529a1.315,1.315,0,0,0-2.232,1.393l1.394,2.236a1.315,1.315,0,1,0,2.232-1.391Z" transform="translate(14.596 16.675)" fill="#252525"/>
        <path id="Trazado_884174" data-name="Trazado 884174" d="M52.172,51.409A1.315,1.315,0,0,0,49.94,52.8l1.394,2.236a1.316,1.316,0,1,0,2.233-1.391Z" transform="translate(15.664 16.007)" fill="#252525"/>
        <path id="Trazado_884175" data-name="Trazado 884175" d="M18.09,52.561,19.708,50.5a1.314,1.314,0,1,0-2.07-1.62L16.02,50.941a1.314,1.314,0,1,0,2.07,1.62Z" transform="translate(4.949 15.245)" fill="#252525"/>
        <path id="Trazado_884176" data-name="Trazado 884176" d="M16.337,46.18a1.313,1.313,0,0,0-1.846.224L12.86,48.482A1.315,1.315,0,1,0,14.929,50.1l1.631-2.078a1.314,1.314,0,0,0-.222-1.846Z" transform="translate(3.953 14.466)" fill="#252525"/>
        <path id="Trazado_884177" data-name="Trazado 884177" d="M45.915,2.569c.179.059,4.391,1.522,5.18,8.43a1.316,1.316,0,0,0,1.3,1.167,1.182,1.182,0,0,0,.151-.009A1.314,1.314,0,0,0,53.709,10.7C52.714,2,46.944.134,46.7.058a1.315,1.315,0,0,0-.784,2.511Z" transform="translate(14.172 0.001)" fill="#252525"/>
        <path id="Trazado_884178" data-name="Trazado 884178" d="M52.607,3.829c.018.011,1.841,1.131,1.69,4.182a1.315,1.315,0,0,0,1.248,1.38h.067a1.315,1.315,0,0,0,1.313-1.249c.235-4.7-2.885-6.526-3.018-6.6a1.316,1.316,0,0,0-1.3,2.288Z" transform="translate(16.358 0.433)" fill="#252525"/>
        <path id="Trazado_884179" data-name="Trazado 884179" d="M6.211,11.078a1.315,1.315,0,0,0,2.546.655c.059-.224,1.519-5.463,6.878-5.172a1.316,1.316,0,0,0,.135-2.628,9.432,9.432,0,0,0-9.56,7.145Z" transform="translate(1.933 1.236)" fill="#252525"/>
        <path id="Trazado_884180" data-name="Trazado 884180" d="M4.258,6.871a1.363,1.363,0,0,0,1.708-.729C6.015,6.019,7.24,3.1,10.132,3.311A1.316,1.316,0,0,0,10.274.682C5.41.449,3.6,4.976,3.522,5.171a1.3,1.3,0,0,0,.735,1.7Z" transform="translate(1.07 0.213)" fill="#252525"/>
        <path id="Trazado_884181" data-name="Trazado 884181" d="M75.836,59.737c.018-.45.029-.885.034-1.311a4.963,4.963,0,0,0,.873.116,5.139,5.139,0,0,0,3.8-1.339,5.255,5.255,0,0,0,.1-7.728,6.693,6.693,0,0,0,.664-2.538,6.528,6.528,0,0,0-.322-2.43,5.261,5.261,0,1,0-5.8-8.554,5.48,5.48,0,0,0-1.6,4.161,6.624,6.624,0,0,0-1.639.527,40.9,40.9,0,0,0-2.974-5.27l-.637-.948,1.007-1.432a6.037,6.037,0,0,0,1.074-3.076A5.806,5.806,0,0,0,64.6,23.738l.246-.349A6.049,6.049,0,0,0,65.923,20.3a5.92,5.92,0,0,0-2.513-5.153,5.829,5.829,0,0,0-3.256-1.071l.183-.26A5.916,5.916,0,1,0,50.661,7l-.195.277A5.921,5.921,0,0,0,40.1,5.994L38.363,8.458a5.907,5.907,0,0,0-6.748-.03c-2.856,2.47-2.422,4.987-2.421,5.045a5.035,5.035,0,0,0-4.1.455,8.9,8.9,0,0,0-6.848-3.861,9.654,9.654,0,0,0-1.983.124,2.869,2.869,0,0,0-2.408,2.879L14.1,29.36l-1.823,4.727c-.022.057-.038.117-.06.175a5.147,5.147,0,0,0-1.349-.256A5.28,5.28,0,0,0,5.337,39a5.44,5.44,0,0,0,.083,1.209A6.555,6.555,0,0,0,5.007,51a5.945,5.945,0,0,0-.392,1.777,5.877,5.877,0,0,0,2.01,4.757l-6.3,7.352a1.314,1.314,0,1,0,2,1.71L9,58.8a5.455,5.455,0,0,0,4.895-.846,1.316,1.316,0,0,0-1.5-2.161,3.215,3.215,0,0,1-2.029.584,3.577,3.577,0,0,1-1.219-.3c-.018-.008-.034-.02-.053-.028A3.279,3.279,0,0,1,7.24,52.927a3.189,3.189,0,0,1,.589-1.685,3.24,3.24,0,0,1,2.843-1.449,3.123,3.123,0,0,1,.754.138,3.279,3.279,0,0,1,2.187,2.016,1.315,1.315,0,1,0,2.467-.909,5.922,5.922,0,0,0-3.012-3.285l-.079-2.568c-.024-.644-.014-1.326.026-2.087.025-.521.075-1.043.138-1.574a25.627,25.627,0,0,1,1.053-4.98c.007-.018.022-.032.028-.051.149-.481.308-.975.5-1.452l1.92-4.971a1.319,1.319,0,0,0,.088-.493l-.25-16.548a.249.249,0,0,1,.212-.243,6.885,6.885,0,0,1,1.411-.091,6.272,6.272,0,0,1,5.346,3.623,6.691,6.691,0,0,1,.527,1.75l.368,10.745a1.316,1.316,0,0,0,.554,1.027c.406.291,9.921,7.211,6.643,18.063a1.314,1.314,0,0,0,.879,1.639,1.335,1.335,0,0,0,1.64-.879c3.135-10.378-3.893-17.754-6.619-20.14l14.8-21.008a3.3,3.3,0,0,1,5.989,1.91,3.249,3.249,0,0,1-.463,1.673c0,.005,0,.012-.005.017L35.168,29a1.315,1.315,0,1,0,2.152,1.514L52.809,8.524a3.268,3.268,0,0,1,2.132-1.352,3.227,3.227,0,0,1,2.437.548,3.3,3.3,0,0,1,.8,4.589l-3.13,4.443a2.7,2.7,0,0,0-1.449.42,9.135,9.135,0,0,0-4.061,7.16c-.005.079,0,.166-.005.246l-6.872,9.748a1.315,1.315,0,1,0,2.149,1.516l5.374-7.623a9.265,9.265,0,0,0,.886,1.74L53.956,34.3,50.2,39.626a1.315,1.315,0,1,0,2.149,1.516l3.168-4.494,2.149,3.234c-1.608,1.986-5.56,7.466-6.346,14.044a38.591,38.591,0,0,1-6.63,6.634,37.756,37.756,0,0,1-4.6,3.072,6.579,6.579,0,0,0-10.632,7.424L26.4,75.123c-.02.024-.038.049-.055.074l-4.114,5.777A1.315,1.315,0,1,0,24.375,82.5l3-4.219a5.263,5.263,0,0,0,9-3.418l.008-.134a6.527,6.527,0,0,0,4.681-3.141,21.1,21.1,0,0,0,10.169,3.436l4.688,7.448a1.314,1.314,0,1,0,2.225-1.4l-5.033-8a1.311,1.311,0,0,0-1-.61,22.456,22.456,0,0,1-7.1-1.668,5.915,5.915,0,0,0,3.611-4.415,1.315,1.315,0,1,0-2.588-.467,3.316,3.316,0,0,1-3.386,2.7,4.852,4.852,0,0,1-.676-.147,6.626,6.626,0,0,0-.458-2.618,40.293,40.293,0,0,0,4.782-3.21,41.084,41.084,0,0,0,4.987-4.631c.047.43.107.854.185,1.27a1.235,1.235,0,0,0,1.535,1.049,1.314,1.314,0,0,0,1.049-1.535,15.534,15.534,0,0,1-.181-4.206c.722-7.408,6.34-13.659,6.4-13.721a1.317,1.317,0,0,0,.124-1.615L53.257,28.5c-.7-1.052-2.261-6.21,1.8-9.138l5.061,7.541a.16.16,0,0,0,.013.018l5.483,8.17c.008.013.017.024.025.037l1.148,1.71a37.97,37.97,0,0,1,3.016,5.45A6.53,6.53,0,0,0,72.884,52.9a32.942,32.942,0,0,1,.308,3.452c0,.016,0,.032,0,.049a35.919,35.919,0,0,1-.013,3.7,1.31,1.31,0,0,0,.276.876l8.351,10.7a1.315,1.315,0,0,0,2.074-1.618ZM6.463,48.811a3.927,3.927,0,0,1,1.01-6.7,1.315,1.315,0,0,0,.721-1.768,2.7,2.7,0,0,1-.226-1.215,2.655,2.655,0,0,1,2.78-2.492,2.47,2.47,0,0,1,.684.138,28.412,28.412,0,0,0-.889,4.454c-.068.583-.124,1.167-.151,1.743-.045.832-.054,1.59-.028,2.307l.058,1.9a5.873,5.873,0,0,0-3.959,1.636Zm26.7-38.259a3.242,3.242,0,0,1,3.689.05L32.884,16.24l-.226-.333a0,0,0,0,1,0,0l0,0a4.888,4.888,0,0,1-.843-2.6,3.415,3.415,0,0,1,1.356-2.751Zm-4.787,5.412a3.244,3.244,0,0,1,2.086,1.4l0,0,0,.007.793,1.169-4.419,6.271-.242-6.957a9.034,9.034,0,0,0-.366-1.57,3.218,3.218,0,0,1,2.14-.32Zm6.832,56.195a1.331,1.331,0,0,0-.977.356,1.315,1.315,0,0,0-.412.956c0,.3-.018.544-.037.813l-.028.431a2.642,2.642,0,0,1-2.779,2.492,2.593,2.593,0,0,1-2.008-1.123l3.048-4.056a1.317,1.317,0,0,0,.038-1.727,3.653,3.653,0,0,1-.579-2.288,3.906,3.906,0,0,1,1.293-2.725,3.864,3.864,0,0,1,2.847-1.011,3.948,3.948,0,0,1,3.064,1.754c.028.041.058.082.089.12a3.986,3.986,0,0,1,.587,2.292,3.969,3.969,0,0,1-4.148,3.715ZM67.8,29.765a3.4,3.4,0,0,1-.6,1.72l-.422.6L63.1,26.611a3.583,3.583,0,0,1,3.3.3,3.346,3.346,0,0,1,1.4,2.856Zm-5.9-12.47A3.3,3.3,0,0,1,63.3,20.15a3.413,3.413,0,0,1-.6,1.731l-1.422,2.013-3.916-5.835a3.288,3.288,0,0,1,4.533-.764Zm13.46,34.288a1.314,1.314,0,0,0-1.132-1.09,3.94,3.94,0,0,1-2.01-6.927,4.069,4.069,0,0,1,2.755-.923,1.294,1.294,0,0,0,1.048-.445,1.319,1.319,0,0,0,.309-1.1,3.388,3.388,0,0,1,.726-3.289,2.628,2.628,0,0,1,3.717,3.717,2.548,2.548,0,0,1-1.687.772,1.313,1.313,0,0,0-1.026,2.127,3.878,3.878,0,0,1,.634,2.359,4.093,4.093,0,0,1-.838,2.238,1.316,1.316,0,0,0,.425,1.957,2.6,2.6,0,0,1,1.385,2.438,2.629,2.629,0,0,1-2.785,2.492,2.474,2.474,0,0,1-1.073-.3,36.891,36.891,0,0,0-.447-4.03Z" transform="translate(-0.008 1.098)" fill="#252525"/>
      </g>
    </g>
  </g>
</svg>
