<svg xmlns="http://www.w3.org/2000/svg" width="122.932" height="122.932" viewBox="0 0 122.932 122.932">
  <g id="Grupo_1103680" data-name="Grupo 1103680" transform="translate(-1107.051 -1798.342)">
    <rect id="Rectángulo_404337" data-name="Rectángulo 404337" width="122.932" height="122.932" transform="translate(1107.051 1798.342)" fill="#b1fafc"/>
    <g id="blood-test_7850948" transform="translate(1128.566 1819.873)">
      <circle id="Elipse_11950" data-name="Elipse 11950" cx="13.815" cy="13.815" r="13.815" transform="translate(2.245 37.422)" fill="#ff7375"/>
      <path id="Trazado_885009" data-name="Trazado 885009" d="M49.277,32.1a6.694,6.694,0,0,0,3.479-5.9c0-3.667-4.3-6.656-6.443-12.2-2.148,5.539-6.443,8.528-6.443,12.2a6.694,6.694,0,0,0,3.479,5.9A6.28,6.28,0,0,0,49.277,32.1Z" transform="translate(9.938 3.327)" fill="#ff7375"/>
      <path id="Trazado_885010" data-name="Trazado 885010" d="M36.026,23.351h2.512a3.14,3.14,0,1,0,0-6.28H41.05a3.14,3.14,0,0,0,0-6.28H57.377a3.14,3.14,0,1,0,0-6.28H32.887l.088.138A6.28,6.28,0,0,0,27.863,2H21.219a7.536,7.536,0,0,0-6.744,4.17l-.427.854H4V24.607h8.792l.427.854a7.536,7.536,0,0,0,6.744,4.17H36.026a3.14,3.14,0,1,0,0-6.28Z" transform="translate(0.757 0.256)" fill="#ffd199"/>
      <rect id="Rectángulo_404491" data-name="Rectángulo 404491" width="2.512" height="2.512" rx="1" transform="translate(54.995 6.652)" fill="#ff595b"/>
      <path id="Trazado_885011" data-name="Trazado 885011" d="M44.327,46H65.678L70.7,66.1H28L33.024,46h11.3Z" transform="translate(6.9 11.517)" fill="#b3d4ff"/>
      <path id="Trazado_885012" data-name="Trazado 885012" d="M42.145,58.792a3.115,3.115,0,0,0,1.256-.239,3.981,3.981,0,0,0,3.14,1.495,3.843,3.843,0,0,0,3.479-1.934,2.21,2.21,0,0,0,1.545.678,3.215,3.215,0,0,0,0-6.28h0v-.138A2.512,2.512,0,0,0,49.053,50a2.6,2.6,0,0,0-1.884.816A2.6,2.6,0,0,0,45.285,50a2.512,2.512,0,0,0-2.512,2.374.98.98,0,0,0,0,.2,3.769,3.769,0,0,0-.653,0,3.14,3.14,0,1,0,0,6.28Z" transform="translate(9.71 12.541)" fill="#ff7375"/>
      <path id="Trazado_885013" data-name="Trazado 885013" d="M61.773,7.908a4.4,4.4,0,0,0-4.4-4.4H33.515A7.536,7.536,0,0,0,27.863,1H21.219a8.791,8.791,0,0,0-7.861,4.859l-.089.165H4V8.536H14.048a1.256,1.256,0,0,0,1.118-.691l.44-.867a6.28,6.28,0,0,1,5.614-3.466h6.644a5.024,5.024,0,0,1,5.024,5.024v5.652a1.884,1.884,0,1,1-3.768,0V8.536A1.256,1.256,0,0,0,27.863,7.28H24.1a1.256,1.256,0,0,0-1.256,1.256c0,.766-.264,7.536-7.536,7.536v2.512c7.071,0,9.507-5.2,9.96-8.792h1.344v4.4a4.408,4.408,0,0,0,.766,2.512,4.459,4.459,0,0,0-2.022,3.768,4.622,4.622,0,0,0,.779,2.587,4.335,4.335,0,0,0-1.6,5.576H19.963a6.28,6.28,0,0,1-5.614-3.466l-.44-.867a1.256,1.256,0,0,0-1.118-.691H4v2.512h8.013l.088.163a8.792,8.792,0,0,0,7.862,4.86H36.026a4.4,4.4,0,0,0,4.4-4.4,4.308,4.308,0,0,0-.565-2.11,4.383,4.383,0,0,0,3.077-4.17,4.308,4.308,0,0,0-.565-2.11,4.383,4.383,0,0,0,3.077-4.17,4.333,4.333,0,0,0-.44-1.884H57.377a4.4,4.4,0,0,0,4.4-4.4ZM36.026,28.631H28.491a1.884,1.884,0,0,1,0-3.768h7.536a1.884,1.884,0,0,1,0,3.768Zm2.512-6.28H29.332a1.733,1.733,0,0,1-1.469-1.884,1.733,1.733,0,0,1,1.469-1.884h9.206a1.884,1.884,0,1,1,0,3.768Zm2.512-6.28H34.959a4.333,4.333,0,0,0,.44-1.884V12.3H41.05a1.884,1.884,0,0,1,0,3.768ZM35.4,9.792V8.536a7.536,7.536,0,0,0-.44-2.512H57.377a1.884,1.884,0,0,1,0,3.768Z" transform="translate(0.757 0)"/>
      <path id="Trazado_885014" data-name="Trazado 885014" d="M47.144,27.4a4.182,4.182,0,0,0,2.148-3.692H46.78a1.645,1.645,0,0,1-.841,1.482,1.256,1.256,0,0,1-1.155,0L43.59,27.4a3.768,3.768,0,0,0,1.771.44,3.856,3.856,0,0,0,1.783-.44Z" transform="translate(10.89 5.812)"/>
      <path id="Trazado_885015" data-name="Trazado 885015" d="M43,33.457a7.536,7.536,0,0,0,7.134,0,7.912,7.912,0,0,0,4.132-7.008c0-2.411-1.407-4.383-3.027-6.656a27.279,27.279,0,0,1-3.5-5.991,1.256,1.256,0,0,0-2.336,0,27.279,27.279,0,0,1-3.5,5.991c-1.62,2.273-3.027,4.245-3.027,6.656A7.912,7.912,0,0,0,43,33.457Zm.942-12.208a38.935,38.935,0,0,0,2.625-4.044,38.936,38.936,0,0,0,2.625,4.044c1.432,2.009,2.512,3.592,2.512,5.2a5.438,5.438,0,0,1-2.813,4.8h0a5.124,5.124,0,0,1-4.735,0,5.438,5.438,0,0,1-2.813-4.8C41.382,24.842,42.512,23.259,43.944,21.25Z" transform="translate(9.682 3.073)"/>
      <circle id="Elipse_11951" data-name="Elipse 11951" cx="1.256" cy="1.256" r="1.256" transform="translate(54.995 6.652)"/>
      <path id="Trazado_885016" data-name="Trazado 885016" d="M38,55.908a4.39,4.39,0,0,0,5.2,4.32,5.486,5.486,0,0,0,7.36-.176,3.278,3.278,0,0,0,1.256.251,4.132,4.132,0,0,0,3.768-4.4,4.383,4.383,0,0,0-2.637-4.195A3.768,3.768,0,0,0,49.3,49a3.893,3.893,0,0,0-1.884.49A3.893,3.893,0,0,0,45.536,49a3.768,3.768,0,0,0-3.592,2.512A4.4,4.4,0,0,0,38,55.908Zm4.785-1.884a1.256,1.256,0,0,0,1.08-.327,1.356,1.356,0,0,0,.414-1.105,1.256,1.256,0,0,1,1.256-1.08,1.344,1.344,0,0,1,.967.414,1.256,1.256,0,0,0,1.834,0,1.344,1.344,0,0,1,.967-.414,1.256,1.256,0,0,1,1.256,1v.188a1.246,1.246,0,0,0,1.256,1.319c.653,0,1.256.9,1.256,1.884,0,1.344-1.055,2.411-1.922,1.557a1.25,1.25,0,0,0-2,.339,2.625,2.625,0,0,1-2.361,1.243,2.725,2.725,0,0,1-2.185-.992,1.278,1.278,0,0,0-1.482-.414,1.922,1.922,0,0,1-2.612-1.733,1.884,1.884,0,0,1,2.273-1.884Z" transform="translate(9.459 12.285)"/>
      <rect id="Rectángulo_404492" data-name="Rectángulo 404492" width="2.512" height="2.512" rx="0.98" transform="translate(17.317 43.677)"/>
      <rect id="Rectángulo_404493" data-name="Rectángulo 404493" width="2.512" height="2.512" rx="0.98" transform="translate(14.805 49.982)"/>
      <path id="Trazado_885017" data-name="Trazado 885017" d="M16.061,59.143A15.071,15.071,0,0,0,31.132,45.327h9.42L43.377,49.1H39.924a1.256,1.256,0,0,0-1.256.955l-5.024,20.1A1.247,1.247,0,0,0,34.9,71.7H77.6a1.246,1.246,0,0,0,1.218-1.557L73.8,50.05a1.256,1.256,0,0,0-1.218-.955H51.227v2.512H71.6l4.4,17.583H36.507l4.4-17.583h4.358l2.512,3.265,2.01-1.507L42.247,43.318a1.256,1.256,0,0,0-1.068-.5H31.132A15.071,15.071,0,1,0,16.061,59.143Zm0-27.631A12.559,12.559,0,1,1,3.5,44.071,12.559,12.559,0,0,1,16.061,31.512Z" transform="translate(0 7.166)"/>
      <rect id="Rectángulo_404494" data-name="Rectángulo 404494" width="2.512" height="2.512" rx="0.98" transform="translate(18.573 56.261)"/>
      <path id="Trazado_885018" data-name="Trazado 885018" d="M7.713,44.043c-.49.49-.1,1.683.879,2.675s2.185,1.369,2.675.879.088-1.683-.892-2.663S8.2,43.553,7.713,44.043Z" transform="translate(1.653 10.963)"/>
      <path id="Trazado_885019" data-name="Trazado 885019" d="M20.145,43.6c.628-.289.653-1.545.063-2.8s-1.6-2.035-2.21-1.733-.653,1.557,0,2.813S19.517,43.9,20.145,43.6Z" transform="translate(4.218 9.725)"/>
      <path id="Trazado_885020" data-name="Trazado 885020" d="M9.9,39.007c1.155-.766,1.771-1.859,1.394-2.437s-1.633-.414-2.788.352-1.783,1.859-1.394,2.437S8.746,39.786,9.9,39.007Z" transform="translate(1.524 9.015)"/>
    </g>
  </g>
</svg>
