<svg xmlns="http://www.w3.org/2000/svg" width="122.932" height="122.932" viewBox="0 0 122.932 122.932">
  <g id="Grupo_1103684" data-name="Grupo 1103684" transform="translate(-1107.051 -1798.342)">
    <rect id="Rect치ngulo_404337" data-name="Rect치ngulo 404337" width="122.932" height="122.932" transform="translate(1107.051 1798.342)" fill="#b1fafc"/>
    <g id="injury_575032" transform="translate(1122.176 1818.603)">
      <rect id="Rect치ngulo_404353" data-name="Rect치ngulo 404353" width="29.803" height="22.674" transform="translate(23.181 44.342) rotate(45)" fill="#f9c19b"/>
      <path id="Trazado_884240" data-name="Trazado 884240" d="M28.227,295.369a.966.966,0,0,1-.707-.257.931.931,0,0,1,0-1.349l15.287-15.351L23.088,258.692,7.8,274.044a.954.954,0,1,1-1.349-1.349l15.994-16.058a.966.966,0,0,1,.707-.257h0a1.348,1.348,0,0,1,.707.257l21.068,21.068a.931.931,0,0,1,0,1.349L28.934,295.112A.967.967,0,0,1,28.227,295.369Z" transform="translate(0 -212.959)" fill="#33363a"/>
      <path id="Trazado_884241" data-name="Trazado 884241" d="M151.736,29.426l-2.12-2.12a2.4,2.4,0,0,0-3.34,0L133.494,40.088l-.964-.964,16.957-16.957a2.4,2.4,0,0,0,0-3.34l-2.119-2.12a2.4,2.4,0,0,0-3.34,0L127.071,33.665l-.964-.964,16.957-16.957a2.4,2.4,0,0,0,0-3.34l-2.12-2.12a2.4,2.4,0,0,0-3.34,0L120.648,27.242l-.964-.963,14.645-14.645a2.4,2.4,0,0,0,0-3.34l-2.184-2.12a2.4,2.4,0,0,0-3.34,0L112.49,22.553l-1.734,1.67L98.166,36.877v-8.8a3.522,3.522,0,0,0-3.533-3.533H90.394a3.522,3.522,0,0,0-3.533,3.533v20.3a2.365,2.365,0,0,0,.514,2.7l.514.514h0L108.636,72.4a2.442,2.442,0,0,0,3.469,0l21.582-21.582,3.533-3.533,14.517-14.517A2.4,2.4,0,0,0,151.736,29.426Z" transform="translate(-66.856 -4.568)" fill="#ffd6bb"/>
      <path id="Trazado_884242" data-name="Trazado 884242" d="M149.166,44.594l-2.12-2.12a2.4,2.4,0,0,0-3.34,0L133.493,52.687l-2.569,2.569-.964-.963,2.569-2.569,14.388-14.388a2.4,2.4,0,0,0,0-3.34l-2.12-2.12a2.4,2.4,0,0,0-3.34,0L127.07,46.263,124.5,48.833l-.963-.963,2.569-2.569,14.388-14.388a2.4,2.4,0,0,0,0-3.34l-2.12-2.12a2.4,2.4,0,0,0-3.34,0L120.647,39.84l-2.569,2.569-.963-.964,2.569-2.569L131.759,26.8a2.4,2.4,0,0,0,0-3.34l-2.184-2.12a2.4,2.4,0,0,0-3.34,0L112.49,35.151l-1.734,1.67-.835.835-1.67,1.67L98.166,49.475,95.6,52.044V43.18a3.522,3.522,0,0,0-3.533-3.533H87.889a3.785,3.785,0,0,0-.9.129,3.793,3.793,0,0,0-.129.9v20.3a2.365,2.365,0,0,0,.514,2.7l.514.514h0L108.635,85a2.442,2.442,0,0,0,3.469,0l19.013-19.077,2.569-2.569.963-.964,2.569-2.569L149.166,47.87A2.327,2.327,0,0,0,149.166,44.594Z" transform="translate(-66.855 -17.166)" fill="#f9c19b"/>
      <g id="Grupo_1103703" data-name="Grupo 1103703" transform="translate(18.799 0)">
        <path id="Trazado_884243" data-name="Trazado 884243" d="M83,47.982a.966.966,0,0,1-.707-.257l-.514-.514a3.118,3.118,0,0,1-.771-3.533V23.509a4.469,4.469,0,0,1,4.5-4.5h4.239a4.469,4.469,0,0,1,4.5,4.5V30l10.919-10.984,1.734-1.67L123.213.964a3.334,3.334,0,0,1,4.689,0l2.184,2.12a3.334,3.334,0,0,1,0,4.689L116.148,21.711l.257.257a.954.954,0,0,1-1.349,1.349l-.963-.963a.966.966,0,0,1-.257-.707,1.346,1.346,0,0,1,.257-.707L128.737,6.295a1.479,1.479,0,0,0,0-1.991l-2.184-2.12a1.479,1.479,0,0,0-1.991,0L108.247,18.563l-1.734,1.67L93.923,32.887a.888.888,0,0,1-1.028.193.909.909,0,0,1-.578-.9V23.509a2.577,2.577,0,0,0-2.569-2.569H85.509a2.577,2.577,0,0,0-2.569,2.569v20.3a.815.815,0,0,1-.064.385,1.391,1.391,0,0,0,.257,1.606l.514.514a.931.931,0,0,1,0,1.349A.653.653,0,0,1,83,47.982Z" transform="translate(-80.77 0)" fill="#33363a"/>
        <path id="Trazado_884244" data-name="Trazado 884244" d="M315.7,50.538a.966.966,0,0,1-.707-.257l-.964-.963a.931.931,0,0,1,0-1.349l16.957-16.957a1.307,1.307,0,0,0,.385-.964,1.212,1.212,0,0,0-.385-.963l-2.12-2.12a1.479,1.479,0,0,0-1.991,0,.954.954,0,1,1-1.349-1.349,3.334,3.334,0,0,1,4.689,0l2.12,2.12a3.413,3.413,0,0,1,0,4.753L316.086,48.74l.257.257a.931.931,0,0,1,0,1.349A.96.96,0,0,1,315.7,50.538Z" transform="translate(-274.285 -20.477)" fill="#33363a"/>
        <path id="Trazado_884245" data-name="Trazado 884245" d="M353.627,88.464a.966.966,0,0,1-.707-.257l-.964-.964a.931.931,0,0,1,0-1.349l16.957-16.957a1.307,1.307,0,0,0,.385-.964,1.212,1.212,0,0,0-.385-.964l-2.12-2.12a1.479,1.479,0,0,0-1.991,0,.954.954,0,1,1-1.349-1.349,3.334,3.334,0,0,1,4.689,0l2.12,2.12a3.413,3.413,0,0,1,0,4.753l-16.251,16.25.257.257a.931.931,0,0,1,0,1.349A.958.958,0,0,1,353.627,88.464Z" transform="translate(-305.788 -51.98)" fill="#33363a"/>
        <path id="Trazado_884246" data-name="Trazado 884246" d="M213.313,173.144a3.354,3.354,0,0,1-2.441-1.028.954.954,0,0,1,1.349-1.349,1.512,1.512,0,0,0,2.12,0l39.631-39.631a1.307,1.307,0,0,0,.385-.964,1.212,1.212,0,0,0-.385-.964l-2.12-2.12a1.479,1.479,0,0,0-1.991,0,.954.954,0,1,1-1.349-1.349,3.334,3.334,0,0,1,4.689,0l2.12,2.12a3.413,3.413,0,0,1,0,4.753L215.69,172.245A3.526,3.526,0,0,1,213.313,173.144Z" transform="translate(-188.598 -103.645)" fill="#33363a"/>
        <path id="Trazado_884247" data-name="Trazado 884247" d="M271.557,123.188a.966.966,0,0,1-.707-.257l-3.469-3.533a.954.954,0,1,1,1.349-1.349l3.469,3.533a.931.931,0,0,1,0,1.349A.744.744,0,0,1,271.557,123.188Z" transform="translate(-235.537 -97.816)" fill="#33363a"/>
        <path id="Trazado_884248" data-name="Trazado 884248" d="M309.862,161.494a.966.966,0,0,1-.707-.257l-3.469-3.533a.954.954,0,0,1,1.349-1.349l3.469,3.533a.931.931,0,0,1,0,1.349A.745.745,0,0,1,309.862,161.494Z" transform="translate(-267.354 -129.634)" fill="#33363a"/>
        <path id="Trazado_884249" data-name="Trazado 884249" d="M348.167,199.8a.966.966,0,0,1-.707-.257l-3.469-3.533a.954.954,0,1,1,1.349-1.349l3.469,3.533a.931.931,0,0,1,0,1.349A.744.744,0,0,1,348.167,199.8Z" transform="translate(-299.172 -161.452)" fill="#33363a"/>
        <path id="Trazado_884250" data-name="Trazado 884250" d="M138.5,200.666a1.023,1.023,0,0,1-.964-.771.951.951,0,0,1,.771-1.092,3.577,3.577,0,0,0,2.312-1.477,3.511,3.511,0,0,0,.578-2.634l-1.8-9.7a.906.906,0,0,1,.771-1.092.951.951,0,0,1,1.092.771l1.8,9.7a5.535,5.535,0,0,1-.9,4.111,5.414,5.414,0,0,1-3.533,2.248C138.628,200.666,138.564,200.666,138.5,200.666Z" transform="translate(-127.915 -152.749)" fill="#33363a"/>
        <path id="Trazado_884251" data-name="Trazado 884251" d="M219.894,238.205h-8.157a.964.964,0,1,1,0-1.927h8.157a.964.964,0,1,1,0,1.927Z" transform="translate(-188.755 -196.262)" fill="#33363a"/>
        <path id="Trazado_884252" data-name="Trazado 884252" d="M187.791,238.205h-.707a.964.964,0,1,1,0-1.927h.707a.964.964,0,1,1,0,1.927Z" transform="translate(-168.278 -196.262)" fill="#33363a"/>
        <path id="Trazado_884253" data-name="Trazado 884253" d="M165.794,238.205h-.707a.964.964,0,0,1,0-1.927h.707a.964.964,0,0,1,0,1.927Z" transform="translate(-150.007 -196.262)" fill="#33363a"/>
      </g>
      <path id="Trazado_884254" data-name="Trazado 884254" d="M235.472,344.7a23.468,23.468,0,0,0-7.387-17.022,23.279,23.279,0,0,0-7.451,17.022,9.919,9.919,0,0,0,.514,3.6,7.118,7.118,0,0,0,13.746,0A8.318,8.318,0,0,0,235.472,344.7Z" transform="translate(-178.147 -272.183)" fill="#ff5050"/>
      <path id="Trazado_884255" data-name="Trazado 884255" d="M264.628,353.945a7.11,7.11,0,0,0,6.873-5.267,9.918,9.918,0,0,0,.514-3.6,23.468,23.468,0,0,0-7.387-17.022" transform="translate(-214.691 -272.498)" fill="#db234f"/>
      <g id="Grupo_1103704" data-name="Grupo 1103704" transform="translate(41.523 45.862)">
        <path id="Trazado_884256" data-name="Trazado 884256" d="M223.3,349.882a8.113,8.113,0,0,1-7.772-5.909,10.965,10.965,0,0,1-.578-3.918,24.251,24.251,0,0,1,7.772-17.728.976.976,0,0,1,1.285,0,24.655,24.655,0,0,1,7.708,17.728,9.009,9.009,0,0,1-.642,3.918A8.131,8.131,0,0,1,223.3,349.882Zm.064-25.5a22.611,22.611,0,0,0-6.487,15.673,9.13,9.13,0,0,0,.45,3.276v.064a6.244,6.244,0,0,0,5.974,4.56,6.129,6.129,0,0,0,5.909-4.56c0-.064.064-.129.064-.193a7.554,7.554,0,0,0,.45-3.147A22.323,22.323,0,0,0,223.36,324.381Z" transform="translate(-214.946 -313.398)" fill="#33363a"/>
        <path id="Trazado_884257" data-name="Trazado 884257" d="M259.9,300.982a.988.988,0,0,1-.964-.964v-.578a.964.964,0,0,1,1.927,0v.578A.988.988,0,0,1,259.9,300.982Z" transform="translate(-251.488 -293.788)" fill="#33363a"/>
        <path id="Trazado_884258" data-name="Trazado 884258" d="M259.9,273.232a.988.988,0,0,1-.964-.964v-.514a.964.964,0,0,1,1.927,0v.514A.988.988,0,0,1,259.9,273.232Z" transform="translate(-251.488 -270.791)" fill="#33363a"/>
      </g>
    </g>
  </g>
</svg>
