<svg xmlns="http://www.w3.org/2000/svg" width="61.554" height="56.767" viewBox="0 0 61.554 56.767">
  <g id="Grupo_1102441" data-name="Grupo 1102441" transform="translate(-334.621 -1399.423)">
    <g id="Rectángulo_401341" data-name="Rectángulo 401341" transform="translate(334.621 1399.423)" fill="#ffb27e" stroke="#fcd8c0" stroke-width="3">
      <rect width="61.554" height="56.767" rx="12" stroke="none"/>
      <rect x="1.5" y="1.5" width="58.554" height="53.767" rx="10.5" fill="none"/>
    </g>
    <g id="tobillo" transform="translate(353.108 1412.591)">
      <path id="Trazado_885140" data-name="Trazado 885140" d="M176.341,27.479H180.8a3.566,3.566,0,0,1-1.794-3.439L180.57,7.5h-1.791l-2.438,1.783Z" transform="translate(-165.86 -7.054)" fill="#ffd1bd"/>
      <path id="Trazado_885141" data-name="Trazado 885141" d="M446.128,444.258h-1.266c-.132,0-.265-.005-.4-.015,0,0-.131,3.581-.131,3.581h1.793a1.783,1.783,0,0,0,0-3.566Z" transform="translate(-417.926 -417.839)" fill="#ffd1bd"/>
      <path id="Trazado_885142" data-name="Trazado 885142" d="M35.256,35.246a1.826,1.826,0,0,0-1.662-1.788,5.358,5.358,0,0,1-2.239-.679l-9.363-5.3-.694-.393a5.349,5.349,0,0,1-2.69-5.159L19.974,7.5H9.283V25.792a5.349,5.349,0,0,1-.407,2.047L7.9,30.194a4.9,4.9,0,0,0,7.257,6,6.47,6.47,0,0,1,5.433-.823L25.2,36.737a7.328,7.328,0,0,0,5.36-.471,4.409,4.409,0,0,0,2.495.774h.406A1.793,1.793,0,0,0,35.256,35.246Z" transform="translate(-7.055 -7.054)" fill="#ffe4d9"/>
      <circle id="Elipse_11954" data-name="Elipse 11954" cx="4.903" cy="4.903" r="4.903" transform="translate(0.446 14.007)" fill="#ffa18c"/>
      <circle id="Elipse_11955" data-name="Elipse 11955" cx="3.12" cy="3.12" r="3.12" transform="translate(2.229 15.79)" fill="#ff8178"/>
      <circle id="Elipse_11956" data-name="Elipse 11956" cx="1.337" cy="1.337" r="1.337" transform="translate(4.012 17.573)" fill="#fc424b"/>
      <path id="Trazado_885143" data-name="Trazado 885143" d="M29.8,26.648a2.211,2.211,0,0,0-1.6-.675H26.936a4.912,4.912,0,0,1-2.415-.636l-9.363-5.3a3.124,3.124,0,0,1-1.569-3.009L15.154.488A.446.446,0,0,0,14.71,0H2.229a.446.446,0,0,0-.446.446V6.9a.446.446,0,0,0,.892,0v-6H14.22L12.7,16.944a4.017,4.017,0,0,0,2.018,3.869l9.363,5.3a5.806,5.806,0,0,0,2.855.752H28.2a1.337,1.337,0,0,1,1.337,1.375,1.365,1.365,0,0,1-1.374,1.3H26a3.947,3.947,0,0,1-2.242-.7.446.446,0,0,0-.452-.031,6.882,6.882,0,0,1-5.034.443l-4.611-1.367a6.9,6.9,0,0,0-5.811.882,4.431,4.431,0,0,1-2.5.769H5.306A4.5,4.5,0,0,1,.893,25.207a4.427,4.427,0,0,1,.362-1.89l0-.006.273-.659a5.348,5.348,0,1,0,1.144-8.373v-5.6a.446.446,0,0,0-.892,0v6.249a5.34,5.34,0,0,0-.891,6.937l-.457,1.1a5.35,5.35,0,0,0,7.916,6.542,6.006,6.006,0,0,1,5.059-.767l4.612,1.367a7.774,7.774,0,0,0,5.455-.389,4.832,4.832,0,0,0,2.527.71h2.162a2.263,2.263,0,0,0,2.265-2.167,2.212,2.212,0,0,0-.63-1.616Zm-24.45-12.2A4.458,4.458,0,1,1,.891,18.91,4.463,4.463,0,0,1,5.349,14.452Z" transform="translate(0 0)"/>
      <path id="Trazado_885144" data-name="Trazado 885144" d="M33.567,265.3A3.566,3.566,0,1,0,30,261.729,3.57,3.57,0,0,0,33.567,265.3Zm0-6.241a2.675,2.675,0,1,1-2.675,2.675A2.678,2.678,0,0,1,33.567,259.055Z" transform="translate(-28.218 -242.819)"/>
      <path id="Trazado_885145" data-name="Trazado 885145" d="M61.784,291.729A1.783,1.783,0,1,0,60,289.946,1.785,1.785,0,0,0,61.784,291.729Zm0-2.675a.892.892,0,1,1-.892.892A.893.893,0,0,1,61.784,289.055Z" transform="translate(-56.435 -271.036)"/>
    </g>
  </g>
</svg>
