<svg xmlns="http://www.w3.org/2000/svg" width="144" height="125" viewBox="0 0 144 125">
  <g id="Grupo_1104012" data-name="Grupo 1104012" transform="translate(-1097.051 -2566)">
    <g id="Rectángulo_404358" data-name="Rectángulo 404358" transform="translate(1097.051 2566)" fill="#fff" stroke="#3e8ff2" stroke-width="3">
      <rect width="144" height="125" rx="5" stroke="none"/>
      <rect x="1.5" y="1.5" width="141" height="122" rx="3.5" fill="none"/>
    </g>
    <g id="_027---Blood-Loss" data-name="027---Blood-Loss" transform="translate(1129.903 2587.252)">
      <g id="Layer_2" transform="translate(1.445 1.445)">
        <path id="Shape" d="M30.227,30.848a10.114,10.114,0,1,1-20.227,0,13.208,13.208,0,0,1,1.474-5.736,29.975,29.975,0,0,1,5.375-7.441c.968-1.026,1.835-1.835,2.427-2.355a1.274,1.274,0,0,1,1.676,0c.592.52,1.459,1.329,2.427,2.355A27.344,27.344,0,0,1,29.5,26.918a11.655,11.655,0,0,1,.722,3.93Z" transform="translate(4.448 6.673)" fill="#f44335"/>
        <path id="Shape-2" data-name="Shape" d="M27.058,26.918a27.344,27.344,0,0,0-6.126-9.247c-.968-1.026-1.835-1.835-2.427-2.355a1.274,1.274,0,0,0-1.676,0c-.354.311-.815.737-1.329,1.24.345.338.709.7,1.1,1.115a27.344,27.344,0,0,1,6.126,9.247,11.655,11.655,0,0,1,.722,3.93A10.145,10.145,0,0,1,15.5,40.765a10.093,10.093,0,0,0,12.281-9.917,11.655,11.655,0,0,0-.722-3.93Z" transform="translate(6.894 6.673)" fill="#c81e1e"/>
        <path id="Shape-3" data-name="Shape" d="M26.227,55.848A10.114,10.114,0,1,1,6,55.848c0-6.689,6.848-13.379,9.276-15.532a1.274,1.274,0,0,1,1.676,0C19.379,42.47,26.227,49.159,26.227,55.848Z" transform="translate(2.669 17.793)" fill="#f44335"/>
        <path id="Shape-4" data-name="Shape" d="M14.505,40.317a1.274,1.274,0,0,0-1.676,0c-.357.316-.816.741-1.329,1.24,2.972,2.89,7.946,8.586,7.946,14.292A10.145,10.145,0,0,1,11.5,65.765a10.093,10.093,0,0,0,12.281-9.917c0-6.689-6.848-13.379-9.276-15.532Z" transform="translate(5.115 17.793)" fill="#c81e1e"/>
        <path id="Shape-5" data-name="Shape" d="M29.669,43.05a4.334,4.334,0,1,1-8.669,0c0-2.976,2.933-5.953,3.973-6.906a.533.533,0,0,1,.722,0C26.736,37.1,29.669,40.073,29.669,43.05Z" transform="translate(9.341 16.014)" fill="#f44335"/>
        <path id="Shape-6" data-name="Shape" d="M25.028,36.143a.533.533,0,0,0-.722,0,18,18,0,0,0-1.806,1.94,8.55,8.55,0,0,1,2.167,4.966A4.522,4.522,0,0,1,22.5,46.932a4.165,4.165,0,0,0,2.167.626A4.424,4.424,0,0,0,29,43.05C29,40.073,26.069,37.1,25.028,36.143Z" transform="translate(10.008 16.014)" fill="#c81e1e"/>
        <path id="Shape-7" data-name="Shape" d="M35.521,15.97a32.382,32.382,0,0,1-10.807,3.482c-.968-1.026-1.835-1.835-2.427-2.355a1.274,1.274,0,0,0-1.676,0c-.592.52-1.459,1.329-2.427,2.355A32.382,32.382,0,0,1,7.377,15.97a.722.722,0,0,1,0-1.271A31.208,31.208,0,0,1,21.449,11a31.208,31.208,0,0,1,14.072,3.7.722.722,0,0,1,0,1.271Z" transform="translate(3.112 4.893)" fill="#c81e1e"/>
        <path id="Shape-8" data-name="Shape" d="M80.186,21.672H77.3a3.612,3.612,0,0,1,0,7.224h-2.89a3.612,3.612,0,1,1,0,7.224H42.419a14.35,14.35,0,0,1-6.458-1.531l-2.008-1a27.344,27.344,0,0,0-6.126-9.247,32.382,32.382,0,0,0,10.807-3.482.722.722,0,0,0,0-1.271,31.208,31.208,0,0,0-14.072-3.7,31.208,31.208,0,0,0-14.072,3.7.722.722,0,0,0,0,1.271A32.382,32.382,0,0,0,21.3,24.345a29.975,29.975,0,0,0-5.375,7.441H2.89A2.9,2.9,0,0,1,0,28.9V11.558a2.9,2.9,0,0,1,2.89-2.89H26.151A10.114,10.114,0,0,0,33.3,5.707l2.745-2.745A10.114,10.114,0,0,1,43.2,0h8.813a5.779,5.779,0,0,1,5.779,5.779V7.224h20.95a3.612,3.612,0,0,1,0,7.224h1.445a3.612,3.612,0,1,1,0,7.224Z" transform="translate(0 0)" fill="#ffe0b2"/>
        <g id="Grupo_1103757" data-name="Grupo 1103757" transform="translate(47.678)">
          <path id="Shape-9" data-name="Shape" d="M38.779,5.779V7.224h4.334V5.779A5.779,5.779,0,0,0,37.334,0H33A5.779,5.779,0,0,1,38.779,5.779Z" transform="translate(-33)" fill="#dfc49c"/>
          <path id="Shape-10" data-name="Shape" d="M61.171,18.393a3.612,3.612,0,0,0-2.557-6.169H57.169a3.612,3.612,0,1,0,0-7.224H52.834a3.612,3.612,0,1,1,0,7.224h1.445a3.612,3.612,0,0,1,0,7.224H51.39a3.612,3.612,0,1,1,0,7.224H48.5a3.612,3.612,0,1,1,0,7.224h4.334a3.612,3.612,0,1,0,0-7.224h2.89a3.612,3.612,0,0,0,0-7.224h2.89a3.612,3.612,0,0,0,2.557-1.055Z" transform="translate(-26.106 2.224)" fill="#dfc49c"/>
        </g>
      </g>
      <g id="Layer_3" transform="translate(0)">
        <path id="Shape-11" data-name="Shape" d="M18.677,20.51C16.93,22.57,14,26.557,14,30.114a1.445,1.445,0,1,0,2.89,0c0-1.9,1.492-4.787,3.992-7.734a1.445,1.445,0,0,0-2.2-1.87Z" transform="translate(6.227 8.896)"/>
        <circle id="Oval" cx="1.445" cy="1.445" r="1.445" transform="translate(23.117 41.899)"/>
        <path id="Shape-12" data-name="Shape" d="M19.356,40.683a2.7,2.7,0,0,0-3.595,0C12.827,43.294,6,50.14,6,57.3a11.558,11.558,0,1,0,23.117,0C29.117,50.14,22.29,43.294,19.356,40.683Zm-1.8,25.323A8.7,8.7,0,0,1,8.89,57.3c0-6.035,6.473-12.37,8.669-14.344,2.195,1.972,8.669,8.309,8.669,14.344A8.7,8.7,0,0,1,17.558,66.006Z" transform="translate(2.669 17.792)"/>
        <path id="Shape-13" data-name="Shape" d="M26.769,50.447c4.826,0,9.44-6.442,1.341-13.922a1.982,1.982,0,0,0-2.68,0C17.378,43.965,21.907,50.447,26.769,50.447Zm0-11.2c1.49,1.53,2.89,3.553,2.89,5.237a2.89,2.89,0,0,1-5.779,0C23.88,42.805,25.278,40.782,26.769,39.251Z" transform="translate(9.351 16.014)"/>
        <path id="Shape-14" data-name="Shape" d="M14.677,45.51C12.93,47.57,10,51.557,10,55.114a1.445,1.445,0,0,0,2.89,0c0-1.9,1.492-4.787,3.992-7.734a1.445,1.445,0,1,0-2.2-1.87Z" transform="translate(4.448 20.016)"/>
        <circle id="Oval-2" data-name="Oval" cx="1.445" cy="1.445" r="1.445" transform="translate(17.338 78.019)"/>
        <path id="Shape-15" data-name="Shape" d="M84.285,15.219a5.057,5.057,0,0,0-4.1-8h-19.5A7.233,7.233,0,0,0,53.457,0H44.644a11.636,11.636,0,0,0-8.173,3.385L33.726,6.13A8.725,8.725,0,0,1,27.6,8.669H4.334A4.334,4.334,0,0,0,0,13V30.341a4.334,4.334,0,0,0,4.334,4.334H15.215A11.59,11.59,0,1,0,37.488,37.64a15.865,15.865,0,0,0,6.376,1.37H75.852a5.029,5.029,0,0,0,4.41-7.483,5,5,0,0,0,2.89-7.224,5.025,5.025,0,0,0,1.134-9.083ZM26.006,47.678a8.7,8.7,0,0,1-8.669-8.711c0-6.035,6.473-12.37,8.669-14.344a29.548,29.548,0,0,1,8.04,10.907,8.783,8.783,0,0,1-8.04,12.148Zm1.8-25.323a2.7,2.7,0,0,0-3.595,0c-.55.49-1.24,1.13-1.994,1.891a31.375,31.375,0,0,1-8.325-2.575,26.963,26.963,0,0,1,24.232,0A31.4,31.4,0,0,1,29.8,24.247c-.757-.761-1.443-1.4-1.994-1.891Zm53.827-.683H57.792a1.445,1.445,0,0,0,0,2.89h20.95a2.167,2.167,0,1,1,0,4.334H57.792a1.445,1.445,0,1,0,0,2.89h18.06a2.167,2.167,0,1,1,0,4.334H43.864A14.77,14.77,0,0,1,36.553,34a26.623,26.623,0,0,0-4.469-7.24,34.359,34.359,0,0,0,8.659-3.166,2.167,2.167,0,0,0,.02-3.83,30.211,30.211,0,0,0-29.494-.01,2.167,2.167,0,0,0-.02,3.83,34.489,34.489,0,0,0,8.677,3.179,29.847,29.847,0,0,0-3.444,5.025H4.334A1.445,1.445,0,0,1,2.89,30.341V13a1.445,1.445,0,0,1,1.445-1.445H27.6a11.636,11.636,0,0,0,8.173-3.385l2.745-2.745a8.725,8.725,0,0,1,6.13-2.539h8.813a4.334,4.334,0,0,1,4.334,4.334H49.123a1.445,1.445,0,1,0,0,2.89H80.186a2.167,2.167,0,0,1,0,4.334H57.792a1.445,1.445,0,1,0,0,2.89H81.631a2.167,2.167,0,1,1,0,4.334Z" transform="translate(0)"/>
      </g>
    </g>
  </g>
</svg>
