<svg xmlns="http://www.w3.org/2000/svg" width="144" height="125" viewBox="0 0 144 125">
  <g id="Grupo_1104011" data-name="Grupo 1104011" transform="translate(-1097.051 -2933)">
    <g id="Rectángulo_404360" data-name="Rectángulo 404360" transform="translate(1097.051 2933)" fill="#fff" stroke="#3e8ff2" stroke-width="3">
      <rect width="144" height="125" rx="5" stroke="none"/>
      <rect x="1.5" y="1.5" width="141" height="122" rx="3.5" fill="none"/>
    </g>
    <g id="_06_Blood_test" data-name="06 Blood test" transform="translate(1121.977 2921.716)">
      <path id="Trazado_884305" data-name="Trazado 884305" d="M85.872,50.069H57.36a7.81,7.81,0,0,0,7.806-7.806,1.791,1.791,0,0,0-1.789-1.793h-25.9A25.959,25.959,0,0,0,21.334,46.1a10.733,10.733,0,0,1-6.669,2.327H9.934A1.934,1.934,0,0,0,8,50.351V77.29a1.936,1.936,0,0,0,1.934,1.936h4.731a10.722,10.722,0,0,1,6.672,2.329,25.957,25.957,0,0,0,16.14,5.631H53.9v-27.4H85.872a4.857,4.857,0,0,0,0-9.713Z" transform="translate(-6.495 -6.43)" fill="#ffc89f"/>
      <path id="Trazado_884306" data-name="Trazado 884306" d="M275,111.484H244.326a3.386,3.386,0,0,0-3.386,3.386H275a4.857,4.857,0,0,0,4.546-6.549A4.851,4.851,0,0,1,275,111.484Z" transform="translate(-195.62 -61.518)" fill="#f2b78f"/>
      <path id="Trazado_884307" data-name="Trazado 884307" d="M21.336,222.484a10.721,10.721,0,0,0-6.672-2.329H9.934A1.935,1.935,0,0,1,8,218.22v3.386a1.935,1.935,0,0,0,1.934,1.936h4.731a10.722,10.722,0,0,1,6.672,2.329,25.957,25.957,0,0,0,16.14,5.631H53.9v-3.386H37.476a25.954,25.954,0,0,1-16.137-5.629Z" transform="translate(-6.495 -150.746)" fill="#f7bc94"/>
      <g id="Grupo_1103781" data-name="Grupo 1103781" transform="translate(39.698 53.35)">
        <rect id="Rectángulo_404375" data-name="Rectángulo 404375" width="28.453" height="9.711" rx="4.856" transform="translate(0.929 0)" fill="#f4b184"/>
        <rect id="Rectángulo_404376" data-name="Rectángulo 404376" width="25.115" height="9.711" rx="4.856" transform="translate(0 9.713)" fill="#f4b184"/>
        <rect id="Rectángulo_404377" data-name="Rectángulo 404377" width="20.835" height="7.981" rx="3.99" transform="translate(0 19.425)" fill="#f4b184"/>
      </g>
      <path id="Trazado_884308" data-name="Trazado 884308" d="M239.59,163.154H220.845A4.857,4.857,0,0,1,216.293,160a4.859,4.859,0,0,0,4.552,6.548H239.59A4.859,4.859,0,0,0,244.14,160a4.855,4.855,0,0,1-4.55,3.154Z" transform="translate(-175.363 -103.477)" fill="#eaa678"/>
      <path id="Trazado_884309" data-name="Trazado 884309" d="M231.312,214.744H215.9a4.855,4.855,0,0,1-4.55-3.163,4.856,4.856,0,0,0,4.55,6.545h15.409a4.857,4.857,0,0,0,4.55-6.546,4.855,4.855,0,0,1-4.55,3.164Z" transform="translate(-171.352 -145.355)" fill="#eaa678"/>
      <path id="Trazado_884310" data-name="Trazado 884310" d="M227.912,260.917H215.054a3.982,3.982,0,0,1-3.608-2.3,3.989,3.989,0,0,0,3.611,5.68h12.858a3.989,3.989,0,0,0,3.611-5.68A3.982,3.982,0,0,1,227.912,260.917Z" transform="translate(-171.369 -183.547)" fill="#eaa678"/>
      <path id="Trazado_884311" data-name="Trazado 884311" d="M384.134,228.107a.608.608,0,0,1,.775,0c1.492,1.238,6.771,6.019,6.771,11.741a7.155,7.155,0,0,1-14.31,0C377.366,234.132,382.642,229.345,384.134,228.107Z" transform="translate(-306.388 -158.661)" fill="#ff5c83"/>
      <path id="Trazado_884312" data-name="Trazado 884312" d="M384.505,287.088a7.159,7.159,0,0,1-6.98-5.588,9.8,9.8,0,0,0-.175,1.811,7.155,7.155,0,1,0,14.31,0,9.808,9.808,0,0,0-.177-1.811A7.157,7.157,0,0,1,384.505,287.088Z" transform="translate(-306.372 -202.124)" fill="#e5557f"/>
      <path id="Trazado_884313" data-name="Trazado 884313" d="M234.012,391.49H175.661a1.881,1.881,0,0,0-1.881,1.881v6.749h62.113v-6.749A1.881,1.881,0,0,0,234.012,391.49Z" transform="translate(-141.093 -291.425)" fill="#eaeaea"/>
      <path id="Trazado_884314" data-name="Trazado 884314" d="M173.78,419.37h62.113v3.386H173.78Z" transform="translate(-141.093 -314.061)" fill="#d6d6d6"/>
      <path id="Trazado_884315" data-name="Trazado 884315" d="M173.78,437.37v3.611A2.821,2.821,0,0,0,176.6,443.8h56.47a2.821,2.821,0,0,0,2.821-2.821V437.37Z" transform="translate(-141.093 -328.675)" fill="#c4c4c4"/>
      <path id="Trazado_884316" data-name="Trazado 884316" d="M233.072,441.391H176.6a2.821,2.821,0,0,1-2.821-2.821v3.386a2.821,2.821,0,0,0,2.821,2.821h56.47a2.821,2.821,0,0,0,2.821-2.821V438.57a2.821,2.821,0,0,1-2.821,2.821Z" transform="translate(-141.093 -329.649)" fill="#adadad"/>
      <ellipse id="Elipse_11943" data-name="Elipse 11943" cx="2.733" cy="1.343" rx="2.733" ry="1.343" transform="matrix(0.454, -0.891, 0.891, 0.454, 73.952, 78.355)" fill="#ffa4c7"/>
      <path id="Trazado_884317" data-name="Trazado 884317" d="M56.56,82.181a5.408,5.408,0,0,0,4.678-8.124,6.277,6.277,0,0,0,3.939-9.672A6.275,6.275,0,0,0,69.5,54.723h9.941a6.279,6.279,0,1,0,0-12.557H57.508a9.217,9.217,0,0,0,2.6-6.418,3.211,3.211,0,0,0-3.207-3.2H30.942A27.518,27.518,0,0,0,13.9,38.49a9.363,9.363,0,0,1-5.808,2.026H3.35A3.356,3.356,0,0,0,0,43.87V70.852A3.356,3.356,0,0,0,3.35,74.2H8.088a9.363,9.363,0,0,1,5.807,2.026,27.518,27.518,0,0,0,17.051,5.949Zm0-2.821H43.678a2.584,2.584,0,1,1,0-5.169H56.56a2.584,2.584,0,1,1,0,5.169Zm3.421-8H44.543a3.453,3.453,0,0,1,0-6.905H59.982a3.453,3.453,0,0,1,0,6.905Zm7.733-13.187a3.452,3.452,0,0,1-3.448,3.45H45.476a3.452,3.452,0,0,1,0-6.9H64.259A3.453,3.453,0,0,1,67.715,58.176ZM15.655,74.016a12.205,12.205,0,0,0-7.567-2.633H3.35a.527.527,0,0,1-.523-.527V43.87a.525.525,0,0,1,.523-.527H8.088a12.206,12.206,0,0,0,7.565-2.633,24.674,24.674,0,0,1,15.292-5.336H56.9a.376.376,0,0,1,.376.376,6.422,6.422,0,0,1-6.408,6.418H42.278a1.413,1.413,0,0,0-1.373,1.074c-1.253,5.079-4.6,8.479-9.931,10.108a23.851,23.851,0,0,1-8.013.94,1.416,1.416,0,1,0-.25,2.821,26.356,26.356,0,0,0,9-1.031c5.936-1.787,9.941-5.607,11.641-11.086H79.439a3.452,3.452,0,1,1,0,6.9H45.476a6.275,6.275,0,0,0-4.383,10.768,6.273,6.273,0,0,0-.782,9.873,5.41,5.41,0,0,0-1.386,6.817H30.947A24.674,24.674,0,0,1,15.655,74.016Z"/>
      <path id="Trazado_884318" data-name="Trazado 884318" d="M396.84,112.365h1.54a1.414,1.414,0,1,0,0-2.821h-1.54a1.414,1.414,0,0,0,0,2.821Z" transform="translate(-321.131 -62.508)"/>
      <path id="Trazado_884319" data-name="Trazado 884319" d="M379.945,220.865a2.022,2.022,0,0,0-2.584,0c-1.71,1.42-7.291,6.544-7.291,12.851a8.583,8.583,0,1,0,17.166,0C387.236,227.409,381.655,222.285,379.945,220.865Zm-1.292,18.621a5.767,5.767,0,0,1-5.756-5.763c0-.886.284-5.44,5.756-10.238,5.472,4.8,5.756,9.352,5.756,10.238a5.767,5.767,0,0,1-5.756,5.756Z" transform="translate(-300.461 -152.515)"/>
      <path id="Trazado_884320" data-name="Trazado 884320" d="M227.865,384.24H169.4a3.3,3.3,0,0,0-3.3,3.3v10.389a4.243,4.243,0,0,0,4.24,4.24h56.583a4.243,4.243,0,0,0,4.24-4.24V387.537A3.3,3.3,0,0,0,227.865,384.24ZM169.4,387.061h58.466a.47.47,0,0,1,.47.47v5.349H168.927v-5.344a.47.47,0,0,1,.472-.47Zm57.523,12.264H170.34a1.414,1.414,0,0,1-1.413-1.413v-2.2h59.414v2.212a1.414,1.414,0,0,1-1.418,1.405Z" transform="translate(-134.857 -285.539)"/>
    </g>
  </g>
</svg>
