<svg xmlns="http://www.w3.org/2000/svg" width="144" height="125" viewBox="0 0 144 125">
  <g id="Grupo_1104010" data-name="Grupo 1104010" transform="translate(-1097.051 -2933)">
    <g id="Rectángulo_404360" data-name="Rectángulo 404360" transform="translate(1097.051 2933)" fill="#fff" stroke="#3e8ff2" stroke-width="3">
      <rect width="144" height="125" rx="5" stroke="none"/>
      <rect x="1.5" y="1.5" width="141" height="122" rx="3.5" fill="none"/>
    </g>
    <g id="wound_2637744" transform="translate(1126.045 2951.995)">
      <g id="Grupo_1103763" data-name="Grupo 1103763" transform="translate(2.371 2.371)">
        <g id="Grupo_1103759" data-name="Grupo 1103759" transform="translate(34.279)">
          <path id="Trazado_884259" data-name="Trazado 884259" d="M59.907,29.053v.37A16.224,16.224,0,0,1,57.7,37.65a6.816,6.816,0,0,0-3.592,1.124A6.71,6.71,0,0,0,51.2,43.258l-.123.754A16.466,16.466,0,0,1,27,29.423v-.37a16.5,16.5,0,0,1,2.893-9.324L41.3,3.124a2.623,2.623,0,0,1,4.305,0l11.408,16.6A16.5,16.5,0,0,1,59.907,29.053Z" transform="translate(-27 -2)" fill="#ff826e"/>
        </g>
        <g id="Grupo_1103760" data-name="Grupo 1103760" transform="translate(0 32.907)">
          <path id="Trazado_884260" data-name="Trazado 884260" d="M39.583,52.34l20-12.628.768-4.607.123-.754a6.71,6.71,0,0,1,2.907-4.484,6.816,6.816,0,0,1,3.592-1.124h2.208l1.988-1.33A8.474,8.474,0,0,1,75.85,26a8.426,8.426,0,0,1,8.419,8.419v.1a8.373,8.373,0,0,1-2.879,6.335L74.52,46.869a6.7,6.7,0,0,1-2.8,1.467l-3.908.974L41.187,72.3a12.577,12.577,0,0,1-13.849,1.728,12.768,12.768,0,0,1-4.429-3.7L2,42.454V37.888a11.891,11.891,0,0,1,17.194-10.64,12.02,12.02,0,0,1,4.2,3.51l1.577,2.1-12,9.6L21.2,53.423l12-9.6Z" transform="translate(-2 -26)" fill="#f0d0b4"/>
        </g>
        <g id="Grupo_1103761" data-name="Grupo 1103761" transform="translate(10.969 38.392)">
          <path id="Trazado_884261" data-name="Trazado 884261" d="M23.711,30l8.227,10.969L30.224,42.34l-12,9.6L10,40.969l12-9.6Z" transform="translate(-10 -30)" fill="#b4dd7f"/>
        </g>
        <g id="Grupo_1103762" data-name="Grupo 1103762" transform="translate(42.505 19.196)">
          <path id="Trazado_884262" data-name="Trazado 884262" d="M49.454,21.485v5.485H43.969v5.485H38.485V26.969H33V21.485h5.485V16h5.485v5.485Z" transform="translate(-33 -16)" fill="#e6e9ed"/>
        </g>
      </g>
      <g id="Grupo_1103764" data-name="Grupo 1103764" transform="translate(1 1)">
        <path id="Trazado_884263" data-name="Trazado 884263" d="M76.219,33.907a9.761,9.761,0,0,0-5.431,1.644l-1.1.735a17.83,17.83,0,0,0,1.244-6.492v-.373a17.754,17.754,0,0,0-3.136-10.1L56.382,2.725a3.978,3.978,0,0,0-6.557,0l-11.411,16.6a17.758,17.758,0,0,0-3.136,10.1v.373A17.776,17.776,0,0,0,58.966,46.607l-.259,1.552L40.294,59.789l-4.837-6.447,1.717-1.374L27.3,38.811l-1.714,1.371-.728-.971A13.253,13.253,0,0,0,1,47.162v5.027L22.181,80.43a13.948,13.948,0,0,0,20.276,2.188l26.377-22.78,3.594-.9a8.132,8.132,0,0,0,3.365-1.759l6.874-6.015a9.859,9.859,0,0,0-6.447-17.259ZM53.1,44.877A15.1,15.1,0,0,1,38.021,29.794v-.373a15.01,15.01,0,0,1,2.655-8.545L52.086,4.28a1.282,1.282,0,0,1,2.035,0l11.411,16.6a15.007,15.007,0,0,1,2.655,8.545v.373a15.082,15.082,0,0,1-1.715,6.93A8.043,8.043,0,0,0,59.5,43.408l0,.022A15.084,15.084,0,0,1,53.1,44.877Zm-19.72,6.61-11.57,9.259-6.58-8.773L26.8,42.717ZM80.862,49.1l-6.874,6.014a5.387,5.387,0,0,1-2.224,1.165l-4.229,1.057L40.667,80.544a11.209,11.209,0,0,1-16.292-1.759L3.742,51.276V47.162a10.512,10.512,0,0,1,18.922-6.307l.779,1.039-12,9.6,9.874,13.166,11.995-9.6,4.652,6.2-.958.6a9.555,9.555,0,0,0-4.471,8.116V72.3h2.742V69.978a6.818,6.818,0,0,1,3.195-5.8L61.211,49.821l.994-5.963a5.339,5.339,0,0,1,5.272-4.466h2.494l2.338-1.559A7.092,7.092,0,0,1,80.862,49.1Z" transform="translate(-1 -1)"/>
        <path id="Trazado_884264" data-name="Trazado 884264" d="M51.2,20.485H45.711V15H37.485v5.485H32v8.227h5.485V34.2h8.227V28.711H51.2Zm-2.742,5.485H42.969v5.485H40.227V25.969H34.742V23.227h5.485V17.742h2.742v5.485h5.485Z" transform="translate(10.505 4.196)"/>
      </g>
    </g>
  </g>
</svg>
