<svg xmlns="http://www.w3.org/2000/svg" width="144" height="125" viewBox="0 0 144 125">
  <g id="Grupo_1104013" data-name="Grupo 1104013" transform="translate(-1097.051 -3651)">
    <g id="Rectángulo_404364" data-name="Rectángulo 404364" transform="translate(1097.051 3651)" fill="#fff" stroke="#3e8ff2" stroke-width="3">
      <rect width="144" height="125" rx="5" stroke="none"/>
      <rect x="1.5" y="1.5" width="141" height="122" rx="3.5" fill="none"/>
    </g>
    <g id="ambulance_10620239" transform="translate(1127.135 3669.428)">
      <g id="Grupo_1103769" data-name="Grupo 1103769" transform="translate(0.085 2.666)">
        <g id="Grupo_1103766" data-name="Grupo 1103766" transform="translate(2.641 25.089)">
          <path id="Trazado_884265" data-name="Trazado 884265" d="M357.635,189.671h2.656a1.462,1.462,0,0,0,1.458-1.458v-8.229a1.462,1.462,0,0,0-1.458-1.458h-2.656a1.462,1.462,0,0,0-1.458,1.458v8.229A1.462,1.462,0,0,0,357.635,189.671Z" transform="translate(-299.699 -174.42)" fill="#ffe177" fill-rule="evenodd"/>
          <path id="Trazado_884266" data-name="Trazado 884266" d="M370.955,189.671h1.66a1.462,1.462,0,0,0,1.458-1.458v-8.229a1.462,1.462,0,0,0-1.458-1.458h-1.66a1.462,1.462,0,0,1,1.458,1.458v8.229A1.462,1.462,0,0,1,370.955,189.671Z" transform="translate(-312.023 -174.42)" fill="#ffd064" fill-rule="evenodd"/>
          <path id="Trazado_884267" data-name="Trazado 884267" d="M65.87,172.439H85.287a3.965,3.965,0,0,1,3.749,2.344L95.41,189.79a3.238,3.238,0,0,1,.272,1.327v18.567a2.415,2.415,0,0,1-2.41,2.41H19.2a3.219,3.219,0,0,1-3.213-3.213V167a3.219,3.219,0,0,1,3.213-3.213H62.656A3.22,3.22,0,0,1,65.869,167v5.438Z" transform="translate(-15.991 -162.127)" fill="#fe646f" fill-rule="evenodd"/>
          <path id="Trazado_884268" data-name="Trazado 884268" d="M79.155,172.439h4.3V212.1H35.134a3.22,3.22,0,0,1-3.213-3.213V167a3.22,3.22,0,0,1,3.213-3.213H75.942A3.22,3.22,0,0,1,79.155,167v5.438Z" transform="translate(-29.276 -162.128)" fill="#fd4755" fill-rule="evenodd"/>
          <path id="Trazado_884269" data-name="Trazado 884269" d="M465.852,378.823h4.078v6.888h-4.078a1.113,1.113,0,0,1-1.111-1.111v-4.666A1.113,1.113,0,0,1,465.852,378.823Z" transform="translate(-390.239 -341.462)" fill="#a79ba7" fill-rule="evenodd"/>
          <path id="Trazado_884270" data-name="Trazado 884270" d="M465.852,378.823h2a1.113,1.113,0,0,0-1.111,1.111V384.6a1.113,1.113,0,0,0,1.111,1.111h-2a1.113,1.113,0,0,1-1.111-1.111v-4.666A1.113,1.113,0,0,1,465.852,378.823Z" transform="translate(-390.239 -341.462)" fill="#837683" fill-rule="evenodd"/>
          <path id="Trazado_884271" data-name="Trazado 884271" d="M373.805,258.19l-5.326-12.54h-12.3v12.54Z" transform="translate(-299.699 -230.399)" fill="#d8ecfe" fill-rule="evenodd"/>
          <path id="Trazado_884272" data-name="Trazado 884272" d="M356.177,245.65H358v12.54h-1.822Z" transform="translate(-299.699 -230.399)" fill="#c4e2ff" fill-rule="evenodd"/>
          <path id="Trazado_884273" data-name="Trazado 884273" d="M15.992,200.542V157a3.22,3.22,0,0,1,3.213-3.213H64.317A3.22,3.22,0,0,1,67.531,157v46.755H19.205A3.219,3.219,0,0,1,15.992,200.542Z" transform="translate(-15.992 -153.787)" fill="#eceff1" fill-rule="evenodd"/>
          <path id="Trazado_884274" data-name="Trazado 884274" d="M15.992,200.542V157a3.22,3.22,0,0,1,3.213-3.213h3.321A3.22,3.22,0,0,0,19.313,157v43.541a3.22,3.22,0,0,0,3.213,3.213H19.205A3.219,3.219,0,0,1,15.992,200.542Z" transform="translate(-15.992 -153.787)" fill="#d1d1d6" fill-rule="evenodd"/>
          <path id="Trazado_884275" data-name="Trazado 884275" d="M15.992,393.229v-8.4H67.531v11.609H19.205A3.22,3.22,0,0,1,15.992,393.229Z" transform="translate(-15.992 -346.474)" fill="#fe646f" fill-rule="evenodd"/>
          <path id="Trazado_884276" data-name="Trazado 884276" d="M15.992,393.229v-8.4h3.32v8.4a3.22,3.22,0,0,0,3.213,3.213h-3.32A3.22,3.22,0,0,1,15.992,393.229Z" transform="translate(-15.992 -346.474)" fill="#fd4755" fill-rule="evenodd"/>
          <path id="Trazado_884277" data-name="Trazado 884277" d="M100.491,416.049a6.427,6.427,0,1,1-6.427,6.427,6.426,6.426,0,0,1,6.427-6.427Zm46.226,0a6.427,6.427,0,1,1-6.427,6.427A6.427,6.427,0,0,1,146.717,416.049Z" transform="translate(-81.102 -372.508)" fill="#8d9ca8" fill-rule="evenodd"/>
        </g>
        <g id="Grupo_1103767" data-name="Grupo 1103767" transform="translate(14.677 30.535)">
          <circle id="Elipse_11940" data-name="Elipse 11940" cx="13.733" cy="13.733" r="13.733" fill="#fe646f"/>
          <path id="Trazado_884278" data-name="Trazado 884278" d="M173.426,190.616a13.733,13.733,0,0,1-11.2,23.362,13.733,13.733,0,0,0,0-27.3A13.706,13.706,0,0,1,173.426,190.616Z" transform="translate(-149.982 -186.593)" fill="#fd4755" fill-rule="evenodd"/>
          <path id="Trazado_884279" data-name="Trazado 884279" d="M126.508,219.954h7.079v4.654h4.654v7.079h-4.654v4.655h-7.079v-4.655h-4.655v-7.079h4.655Z" transform="translate(-116.314 -214.415)" fill="#eceff1" fill-rule="evenodd"/>
          <path id="Trazado_884280" data-name="Trazado 884280" d="M126.508,219.954h1.774v4.654h-1.774Zm0,11.733v4.655h1.774v-4.655Zm-2.88-7.079h-1.774v7.079h1.774Z" transform="translate(-116.314 -214.415)" fill="#d1d1d6" fill-rule="evenodd"/>
        </g>
        <g id="Grupo_1103768" data-name="Grupo 1103768" transform="translate(0 0)">
          <circle id="Elipse_11941" data-name="Elipse 11941" cx="12.307" cy="12.307" r="12.307" transform="translate(0 23.95) rotate(-76.7)" fill="#8ac9fe"/>
          <path id="Trazado_884281" data-name="Trazado 884281" d="M85.094,17.669a12.307,12.307,0,0,1,0,24.614c-.279,0-.556-.01-.83-.029a12.307,12.307,0,0,0,0-24.557c.274-.018.551-.029.83-.029Z" transform="translate(-70.288 -15.178)" fill="#60b7ff" fill-rule="evenodd"/>
          <circle id="Elipse_11942" data-name="Elipse 11942" cx="9.149" cy="9.149" r="9.149" transform="translate(4.169 22.165) rotate(-79.746)" fill="#eceff1"/>
          <path id="Trazado_884282" data-name="Trazado 884282" d="M43.308,36.694q.354,0,.7.027a9.149,9.149,0,0,0,0,18.244q-.348.026-.7.027a9.149,9.149,0,0,1,0-18.3Z" transform="translate(-28.502 -31.045)" fill="#d1d1d6" fill-rule="evenodd"/>
        </g>
      </g>
      <path id="Trazado_884283" data-name="Trazado 884283" d="M20.165,24.022V16.795a1.328,1.328,0,1,1,2.656,0v6.46l4.568,2.636a1.328,1.328,0,1,1-1.328,2.3l-5.231-3.02A1.329,1.329,0,0,1,20.165,24.022Zm40.593,9.059a1.328,1.328,0,1,1,2.3-1.328L64.471,34.2a1.328,1.328,0,0,1-2.3,1.328ZM35.1,41.087A12.405,12.405,0,1,1,22.693,53.492,12.419,12.419,0,0,1,35.1,41.087Zm0,27.467A15.062,15.062,0,1,0,20.036,53.492,15.079,15.079,0,0,0,35.1,68.554ZM28.837,51.541v3.9h2.982a1.329,1.329,0,0,1,1.328,1.328v2.983h3.9V56.77a1.329,1.329,0,0,1,1.328-1.328h2.984v-3.9H38.375a1.328,1.328,0,0,1-1.328-1.328V47.231h-3.9v2.982a1.328,1.328,0,0,1-1.328,1.328ZM27.509,58.1h2.982v2.984a1.328,1.328,0,0,0,1.328,1.328h6.556A1.328,1.328,0,0,0,39.7,61.081V58.1h2.984a1.327,1.327,0,0,0,1.328-1.328V50.213a1.328,1.328,0,0,0-1.328-1.328H39.7V45.9a1.328,1.328,0,0,0-1.328-1.328H31.819A1.328,1.328,0,0,0,30.491,45.9v2.982H27.509a1.329,1.329,0,0,0-1.328,1.328V56.77A1.328,1.328,0,0,0,27.509,58.1ZM77.058,37.571,79.5,36.16a1.328,1.328,0,1,1,1.328,2.3l-2.446,1.41a1.313,1.313,0,0,1-.663.18,1.328,1.328,0,0,1-.666-2.479ZM72.714,34.2a1.328,1.328,0,1,0,2.3,1.328l1.413-2.444a1.328,1.328,0,1,0-2.3-1.328Zm-5.451-.748V30.626a1.328,1.328,0,1,1,2.656,0v2.822a1.328,1.328,0,1,1-2.656,0Zm9.87,50.833a2.19,2.19,0,1,1-2.19-2.19A2.189,2.189,0,0,1,77.133,84.281Zm-46.227,0a2.19,2.19,0,1,1-2.189-2.19A2.188,2.188,0,0,1,30.906,84.281ZM67.135,60.776V50.892H77.229l4.2,9.884Zm17.407,2.062a1.332,1.332,0,0,0,.115-1.254L79.331,49.045a1.327,1.327,0,0,0-1.222-.809h-12.3a1.327,1.327,0,0,0-1.328,1.328V62.1a1.328,1.328,0,0,0,1.328,1.328H83.434A1.334,1.334,0,0,0,84.542,62.838Zm2.065,20.115A1.084,1.084,0,0,0,87.69,81.87V79.889H84.941A2.441,2.441,0,0,1,82.5,77.451V72.784a2.442,2.442,0,0,1,2.439-2.439H87.69V63.3a1.931,1.931,0,0,0-.166-.809L81.151,47.487a2.649,2.649,0,0,0-2.527-1.534H62.194v37H67.3a7.753,7.753,0,0,1,15.277,0h4.025ZM74.943,89.379a5.1,5.1,0,1,0-5.1-5.1A5.1,5.1,0,0,0,74.943,89.379ZM28.716,76.526a7.765,7.765,0,0,1,7.638,6.427H59.538V74H10.657v7.068a1.886,1.886,0,0,0,1.884,1.886h8.537A7.765,7.765,0,0,1,28.716,76.526Zm0,12.854a5.1,5.1,0,1,0-5.1-5.1A5.1,5.1,0,0,0,28.716,89.379ZM12.54,35.642a1.885,1.885,0,0,0-1.884,1.884V71.343H59.538V37.526a1.886,1.886,0,0,0-1.885-1.884H28.341a13.456,13.456,0,0,1-13.7,0Zm8.952-22.456A10.836,10.836,0,1,0,32.328,24.022,10.848,10.848,0,0,0,21.492,13.186ZM67.135,39.878a.135.135,0,0,1,.13-.13h2.654a.134.134,0,0,1,.13.13V43.3H67.135V39.878ZM87.69,77.233H85.158V73H87.69ZM89.97,61.456,83.595,46.45A5.26,5.26,0,0,0,78.624,43.3H72.705V39.878a2.788,2.788,0,0,0-2.786-2.786H67.265a2.788,2.788,0,0,0-2.786,2.786V43.3H62.194V37.526a4.546,4.546,0,0,0-4.54-4.54H31.566a13.491,13.491,0,1,0-20.045.117A4.548,4.548,0,0,0,8,37.526V81.067a4.546,4.546,0,0,0,4.54,4.542h8.537a7.753,7.753,0,0,0,15.278,0H67.3a7.753,7.753,0,0,0,15.278,0h4.025a3.743,3.743,0,0,0,3.739-3.739V63.3a4.584,4.584,0,0,0-.378-1.848Z" transform="translate(-6.601 -6.558)" fill-rule="evenodd"/>
    </g>
  </g>
</svg>
