<svg xmlns="http://www.w3.org/2000/svg" width="144" height="125" viewBox="0 0 144 125">
  <g id="Grupo_1104014" data-name="Grupo 1104014" transform="translate(-1097.051 -4400)">
    <g id="Rectángulo_404368" data-name="Rectángulo 404368" transform="translate(1097.051 4400)" fill="#fff" stroke="#3e8ff2" stroke-width="3">
      <rect width="144" height="125" rx="5" stroke="none"/>
      <rect x="1.5" y="1.5" width="141" height="122" rx="3.5" fill="none"/>
    </g>
    <g id="relief_5705228" transform="translate(1072.367 4417.691)">
      <g id="Grupo_1103777" data-name="Grupo 1103777" transform="translate(64.012 1.315)">
        <path id="Trazado_884284" data-name="Trazado 884284" d="M154.936,66.354h-37.4a6.778,6.778,0,0,1-6.778-6.778v-26.6a25.477,25.477,0,1,1,50.953,0v26.6A6.778,6.778,0,0,1,154.936,66.354Z" transform="translate(-103.648 -7.5)" fill="#00516a"/>
        <path id="Trazado_884285" data-name="Trazado 884285" d="M243.652,7.5a25.765,25.765,0,0,0-2.631.135,25.48,25.48,0,0,1,22.846,25.342v26.6a6.778,6.778,0,0,1-6.778,6.778h5.262a6.778,6.778,0,0,0,6.778-6.778v-26.6A25.476,25.476,0,0,0,243.652,7.5Z" transform="translate(-211.062 -7.5)" fill="#004651"/>
        <path id="Trazado_884286" data-name="Trazado 884286" d="M134.505,315.119a.877.877,0,0,0,.877-.877v-20.15a10.524,10.524,0,0,0-7.168-9.974l-14.461-4.867-.834.171a4.476,4.476,0,0,1-2.444-2.3l-.807-3.7-14.3-.174-.236,3.862a4.185,4.185,0,0,1-2.377,2.226l-.919-.082L77.37,284.118a10.524,10.524,0,0,0-7.168,9.974v20.15a.877.877,0,0,0,.877.877Z" transform="translate(-70.202 -226.637)" fill="#c9f6b0"/>
        <g id="Grupo_1103771" data-name="Grupo 1103771" transform="translate(35.382 46.608)">
          <path id="Trazado_884287" data-name="Trazado 884287" d="M294.572,284.117l-14.461-4.867-.834.171a4.476,4.476,0,0,1-2.444-2.3l-.027-3.879h-4.864v6.35a3.5,3.5,0,0,0,2.14,2.029l15.229,5.125a10.524,10.524,0,0,1,7.168,9.974v18.4h4.385a.877.877,0,0,0,.877-.877v-20.15a10.524,10.524,0,0,0-7.168-9.974Z" transform="translate(-271.942 -273.244)" fill="#9be69d"/>
        </g>
        <path id="Trazado_884288" data-name="Trazado 884288" d="M204.487,287.873a11.281,11.281,0,0,0,10.961-8.622l-.834.171a4.476,4.476,0,0,1-2.444-2.3l-.027-3.879h-15.7v3.7a3.5,3.5,0,0,1-2.148,2.047l-.767.258A11.28,11.28,0,0,0,204.487,287.873Z" transform="translate(-171.897 -226.636)" fill="#ffa78f"/>
        <path id="Trazado_884289" data-name="Trazado 884289" d="M274.081,281.624l4.3,1.447a11.229,11.229,0,0,0,1.728-3.82l-.767-.258a3.5,3.5,0,0,1-2.14-2.029v-3.719h-5.262v6.35A3.5,3.5,0,0,0,274.081,281.624Z" transform="translate(-236.559 -226.637)" fill="#f89580"/>
        <path id="Trazado_884290" data-name="Trazado 884290" d="M372.508,135.3h-1.383v-7.812h1.383a3.906,3.906,0,1,1,0,7.812Z" transform="translate(-318.347 -106.447)" fill="#ffa78f"/>
        <path id="Trazado_884291" data-name="Trazado 884291" d="M114.667,135.3h1.383v-7.812h-1.383a3.906,3.906,0,1,0,0,7.812Z" transform="translate(-103.648 -106.447)" fill="#f89580"/>
        <g id="Grupo_1103772" data-name="Grupo 1103772" transform="translate(12.403 13.542)">
          <path id="Trazado_884292" data-name="Trazado 884292" d="M161.105,122.843a20.047,20.047,0,0,1-8.045-1.363,20.469,20.469,0,0,1-12.142-18.717V92.216a44.5,44.5,0,0,0,16.76-3.191,43.86,43.86,0,0,0,7.864-4.14,1.051,1.051,0,0,1,1.412.239,18.279,18.279,0,0,0,14.34,7.093v10.767A20.192,20.192,0,0,1,169.16,121.5a19.626,19.626,0,0,1-8.055,1.344Z" transform="translate(-140.918 -84.712)" fill="#ffa78f"/>
        </g>
        <path id="Trazado_884293" data-name="Trazado 884293" d="M233.121,134.438a19.686,19.686,0,0,1-5.062,13.37c-6.134,6.6-16.343,5.343-17.909,5.127a20.176,20.176,0,0,0,6.685,1.645s.667.043,1.289.046a20.187,20.187,0,0,0,20.259-20.187V123.671a18.467,18.467,0,0,1-5.27-.814c.01,3.844.009,7.733.009,11.581Z" transform="translate(-185.605 -102.625)" fill="#f89580"/>
        <g id="Grupo_1103774" data-name="Grupo 1103774" transform="translate(0 58.591)">
          <g id="Grupo_1103773" data-name="Grupo 1103773">
            <path id="Trazado_884294" data-name="Trazado 884294" d="M70.2,370.146l21.2-14.029a5.6,5.6,0,0,0,2.4-3.58l1.339-6.747a5.239,5.239,0,0,1,5.138-4.219h.76a1.754,1.754,0,0,1,1.754,1.754v13.468a1.753,1.753,0,0,1-.589,1.311L87.165,371.462H71.079a.877.877,0,0,1-.877-.877Z" transform="translate(-70.202 -341.571)" fill="#ffa78f"/>
          </g>
        </g>
        <path id="Trazado_884295" data-name="Trazado 884295" d="M159.839,341.57h-.76a5.14,5.14,0,0,0-1.325.17,5.2,5.2,0,0,0-1.882.941.988.988,0,0,1,1.21.21.606.606,0,0,1,.054.433v13.467a1.753,1.753,0,0,1-.589,1.311l-15.038,13.359h4.457L161,358.1a1.754,1.754,0,0,0,.589-1.311V343.324a1.754,1.754,0,0,0-1.754-1.754Z" transform="translate(-129.003 -282.979)" fill="#f89580"/>
        <g id="Grupo_1103776" data-name="Grupo 1103776" transform="translate(32.59 58.591)">
          <g id="Grupo_1103775" data-name="Grupo 1103775">
            <path id="Trazado_884296" data-name="Trazado 884296" d="M288.611,370.146l-21.2-14.029a5.6,5.6,0,0,1-2.4-3.58l-1.339-6.747a5.239,5.239,0,0,0-5.138-4.219h-.76a1.754,1.754,0,0,0-1.754,1.754v13.468a1.753,1.753,0,0,0,.589,1.311l15.038,13.358h16.086a.877.877,0,0,0,.877-.877Z" transform="translate(-256.021 -341.571)" fill="#ffa78f"/>
          </g>
        </g>
        <path id="Trazado_884297" data-name="Trazado 884297" d="M268.413,356.117a5.6,5.6,0,0,1-2.4-3.58l-1.339-6.748a5.239,5.239,0,0,0-5.138-4.219h-.76a1.754,1.754,0,0,0-1.541.917,5.233,5.233,0,0,1,2.178,3.3l1.339,6.748a5.6,5.6,0,0,0,2.4,3.58L283.982,369.9a.816.816,0,0,1,.366.681.877.877,0,0,1-.877.877h5.262a.877.877,0,0,0,.877-.877v-.438Z" transform="translate(-224.43 -282.979)" fill="#f89580"/>
      </g>
      <path id="Trazado_884298" data-name="Trazado 884298" d="M92.14,30.641a1.315,1.315,0,0,0,.224-1.847,4.931,4.931,0,0,0-7.763,0,1.315,1.315,0,0,0,2.071,1.623,2.3,2.3,0,0,1,3.621,0A1.316,1.316,0,0,0,92.14,30.641Zm8.924,0a1.315,1.315,0,0,0,1.847-.224,2.3,2.3,0,0,1,3.621,0,1.315,1.315,0,0,0,2.071-1.623,4.931,4.931,0,0,0-7.763,0A1.316,1.316,0,0,0,101.065,30.641Zm21.38,26.908-.164-.055a8.049,8.049,0,0,0,1.114-4.1c0-1.015.013-26.627-.018-27.541a26.79,26.79,0,0,0-53.547-.006c-.035.989-.019,13.385-.019,14.406a1.315,1.315,0,0,0,2.631,0V30.8a5.187,5.187,0,0,0,2.591.691H75.1v1.421A21.787,21.787,0,0,0,86.581,52.118a2.188,2.188,0,0,1-.591.307L73.5,56.627a5.426,5.426,0,0,1-1.061-3.236v-7a1.315,1.315,0,0,0-2.631,0v7a8.049,8.049,0,0,0,1.114,4.1l-.164.055A11.831,11.831,0,0,0,62.7,68.771V88.482a1.327,1.327,0,0,0,2.042,1.1l10.53-6.969,0,0L85.935,75.55A6.959,6.959,0,0,0,88.9,71.129l1.339-6.748a3.933,3.933,0,0,1,3.848-3.16h.76a.439.439,0,0,1,.438.438V75.128a.439.439,0,0,1-.147.328L81.583,87.5a1.315,1.315,0,1,0,1.747,1.967L96.6,77.675l13.273,11.79a1.315,1.315,0,1,0,1.747-1.967L98.065,75.456a.439.439,0,0,1-.147-.328V61.66a.439.439,0,0,1,.438-.438,4.86,4.86,0,0,1,4.756,3.905l1.191,6a6.959,6.959,0,0,0,2.966,4.421l1.806,1.195a1.315,1.315,0,1,0,1.452-2.194l-1.806-1.195a4.312,4.312,0,0,1-1.838-2.739l-1.191-6a7.44,7.44,0,0,0-1.542-3.265,12.655,12.655,0,0,0,4.273-5.742l13.181,4.436a9.2,9.2,0,0,1,6.272,8.728V86.034l-7.892-5.224V74.452a1.315,1.315,0,0,0-2.631,0v4.618l-1.681-1.112a1.315,1.315,0,0,0-1.452,2.194l14.245,9.428a1.326,1.326,0,0,0,2.042-1.1V68.771a11.831,11.831,0,0,0-8.064-11.221Zm-1.686-31.181a2.592,2.592,0,0,1-2.585,2.489h-.068V23.676h.068A2.594,2.594,0,0,1,120.749,26q.006.186.009.373ZM75.1,28.857a2.569,2.569,0,0,1-2.644-2.863A2.6,2.6,0,0,1,75.1,23.676Zm-.068-7.812a5.191,5.191,0,0,0-1.992.4,24.17,24.17,0,0,1,47.133,0,5.19,5.19,0,0,0-2-.4,17.442,17.442,0,0,1-9.5-2.13,16.918,16.918,0,0,1-5.184-4.452,2.377,2.377,0,0,0-3.179-.528,42.637,42.637,0,0,1-7.628,4.016,47.061,47.061,0,0,1-17.651,3.094Zm2.7,11.864V23.663a45.485,45.485,0,0,0,15.936-3.272,45.282,45.282,0,0,0,7.893-4.128,19.519,19.519,0,0,0,5.838,4.952,19.683,19.683,0,0,0,8.078,2.408v9.506A18.872,18.872,0,0,1,96.6,52h-.067A19.018,19.018,0,0,1,77.73,32.909Zm9.93,30.96-1.339,6.748a4.312,4.312,0,0,1-1.838,2.739L75.851,79.07V74.452a1.315,1.315,0,1,0-2.631,0v6.359l-7.892,5.224V68.771A9.2,9.2,0,0,1,71.6,60.043l13.181-4.436A12.687,12.687,0,0,0,88.861,61.2,6.516,6.516,0,0,0,87.66,63.869Zm14.423-4.278a7.445,7.445,0,0,0-3.726-1,3.05,3.05,0,0,0-1.754.554,3.05,3.05,0,0,0-1.754-.554h-.76a6.52,6.52,0,0,0-3.2.839,10.034,10.034,0,0,1-3.622-4.685,4.8,4.8,0,0,0,1.858-1.472,21.174,21.174,0,0,0,7.4,1.357H96.6a21.507,21.507,0,0,0,7.493-1.337,4.8,4.8,0,0,0,1.842,1.452,10.013,10.013,0,0,1-3.855,4.845Zm18.681-6.2a5.426,5.426,0,0,1-1.061,3.236l-12.489-4.2a2.184,2.184,0,0,1-.552-.28,21.577,21.577,0,0,0,5.118-3.784,21.359,21.359,0,0,0,6.325-15.231V31.488h.068a5.188,5.188,0,0,0,2.591-.691V53.391ZM101.357,43.51a1.316,1.316,0,1,0-1.371-2.246,6.626,6.626,0,0,1-3.524.953,6.507,6.507,0,0,1-3.243-.953,1.315,1.315,0,1,0-1.371,2.245,9.14,9.14,0,0,0,4.558,1.338A9.6,9.6,0,0,0,101.357,43.51Z" transform="translate(0 0)"/>
    </g>
  </g>
</svg>
