<svg xmlns="http://www.w3.org/2000/svg" xmlns:xlink="http://www.w3.org/1999/xlink" width="138" height="138" viewBox="0 0 138 138">
  <defs>
    <filter id="Elipse_11581" x="0" y="0" width="138" height="138" filterUnits="userSpaceOnUse">
      <feOffset dy="3" input="SourceAlpha"/>
      <feGaussianBlur stdDeviation="3" result="blur"/>
      <feFlood flood-opacity="0.161"/>
      <feComposite operator="in" in2="blur"/>
      <feComposite in="SourceGraphic"/>
    </filter>
  </defs>
  <g id="banner-principal-decorativo-2" transform="translate(-724.333 -372)">
    <g transform="matrix(1, 0, 0, 1, 724.33, 372)" filter="url(#Elipse_11581)">
      <g id="Elipse_11581-2" data-name="Elipse 11581" transform="translate(19 16)" fill="#fff7e6" stroke="rgba(250,246,237,0.5)" stroke-width="10">
        <circle cx="50" cy="50" r="50" stroke="none"/>
        <circle cx="50" cy="50" r="55" fill="none"/>
      </g>
    </g>
    <g id="cruz-roja" transform="translate(755.515 400.182)">
      <g id="Grupo_1102289" data-name="Grupo 1102289" transform="translate(3.807 3.807)">
        <g id="Grupo_1102287" data-name="Grupo 1102287">
          <path id="Trazado_882790" data-name="Trazado 882790" d="M34.012,68.023A34.012,34.012,0,1,1,68.023,34.012,34.05,34.05,0,0,1,34.012,68.023Zm0-65.366A31.355,31.355,0,1,0,65.366,34.012,31.39,31.39,0,0,0,34.012,2.657Z" fill="#020288"/>
        </g>
      </g>
      <path id="Trazado_882792" data-name="Trazado 882792" d="M155.878,142.876h13v13h13v13h-13v13h-13v-13h-13v-13h13Z" transform="translate(-124.56 -124.56)" fill="#a4fbc4" stroke="#020288" stroke-width="3" fill-rule="evenodd"/>
    </g>
  </g>
</svg>
