<svg xmlns="http://www.w3.org/2000/svg" xmlns:xlink="http://www.w3.org/1999/xlink" width="295" height="261" viewBox="0 0 295 261">
  <defs>
    <clipPath id="clip-path">
      <path id="Rectángulo_404105" data-name="Rectángulo 404105" d="M0,0H44.9a10,10,0,0,1,10,10V251a10,10,0,0,1-10,10H0a0,0,0,0,1,0,0V0A0,0,0,0,1,0,0Z" transform="translate(1362 3567)" fill="#b1d1f9"/>
    </clipPath>
    <clipPath id="clip-path-2">
      <rect id="Rectángulo_404102" data-name="Rectángulo 404102" width="88.146" height="88.146" fill="none"/>
    </clipPath>
    <clipPath id="clip-path-4">
      <rect id="Rectángulo_404104" data-name="Rectángulo 404104" width="9.93" height="9.93" fill="none"/>
    </clipPath>
  </defs>
  <g id="t-2" transform="translate(-180.051 -911)">
    <path id="Trazado_885023" data-name="Trazado 885023" d="M10,0H285a10,10,0,0,1,10,10V251a10,10,0,0,1-10,10H10A10,10,0,0,1,0,251V10A10,10,0,0,1,10,0Z" transform="translate(180.051 911)" fill="#b1d1f9"/>
    <g id="Enmascarar_grupo_1099688" data-name="Enmascarar grupo 1099688" transform="translate(-941.949 -2656)" clip-path="url(#clip-path)">
      <g id="Grupo_1103114" data-name="Grupo 1103114" transform="translate(1334.999 3463.368)">
        <ellipse id="Elipse_11892" data-name="Elipse 11892" cx="62.341" cy="62.619" rx="62.341" ry="62.619" transform="translate(21.938 22.036)" fill="#d7f38d"/>
        <g id="Grupo_1103109" data-name="Grupo 1103109" transform="translate(26.913 314.072)">
          <g id="Grupo_1103108" data-name="Grupo 1103108" clip-path="url(#clip-path-2)">
            <path id="Trazado_883850" data-name="Trazado 883850" d="M85.555,85.555h0a8.394,8.394,0,0,1-11.871,0L2.958,14.83A8.395,8.395,0,0,1,14.83,2.958L85.555,73.684A8.394,8.394,0,0,1,85.555,85.555Z" transform="translate(-0.184 -0.184)" fill="none" stroke="#fff" stroke-miterlimit="10" stroke-width="1"/>
          </g>
        </g>
        <g id="Grupo_1103111" data-name="Grupo 1103111" transform="translate(55.026 191.497)">
          <g id="Grupo_1103110" data-name="Grupo 1103110" clip-path="url(#clip-path-2)">
            <path id="Trazado_883851" data-name="Trazado 883851" d="M85.555,85.555h0a8.394,8.394,0,0,1-11.871,0L2.958,14.83A8.395,8.395,0,0,1,14.83,2.958L85.555,73.684A8.394,8.394,0,0,1,85.555,85.555Z" transform="translate(-0.184 -0.184)" fill="none" stroke="#fff" stroke-miterlimit="10" stroke-width="1"/>
          </g>
        </g>
        <g id="Grupo_1103113" data-name="Grupo 1103113" transform="translate(12.007 450.968)">
          <g id="Grupo_1103112" data-name="Grupo 1103112" clip-path="url(#clip-path-4)">
            <circle id="Elipse_11893" data-name="Elipse 11893" cx="4.446" cy="4.446" r="4.446" transform="translate(0.519 0.519)" fill="none" stroke="#fff" stroke-miterlimit="10" stroke-width="1"/>
          </g>
        </g>
      </g>
    </g>
  </g>
</svg>
